<svg xmlns="http://www.w3.org/2000/svg" width="237.918" height="77.556" viewBox="0 0 237.918 77.556">
  <g id="그룹_274" data-name="그룹 274" transform="translate(-476.316 -244.289)">
    <g id="그룹_272" data-name="그룹 272">
      <g id="그룹_270" data-name="그룹 270">
        <g id="그룹_269" data-name="그룹 269">
          <path id="패스_222" data-name="패스 222" d="M660.7,271.723c-1.268-3.778-2.416-7.352-4.779-10.5a37.455,37.455,0,0,0-8.28-8.373,38.7,38.7,0,0,0-10.562-5.668c-3.76-1.18-7.815-.42-11.981-.415s-7.966.015-11.724,1.2a37.867,37.867,0,0,0-10.67,5.108,59.774,59.774,0,0,0-5.264,4.086,38.27,38.27,0,0,0-9.386-6.886,39.53,39.53,0,0,0-11.293-4.152c-3.94-.724-8.227-2.247-12.289-1.739-3.919.49-7.968,2.36-11.733,4.09s-5.937,5.522-8.813,8.153l-.853.78a69.575,69.575,0,0,0-6.508-4.652c-3.445-2.271-7.916-2.163-11.711-3.232-3.933-1.109-7.622-2.2-11.63-2.073a40.908,40.908,0,0,0-22.566,7.213c-3.121,2.351-4.756,6.032-7.1,9.376s-4.47,6.4-5.573,10.081a35.284,35.284,0,0,0-1.654,11.433,36.3,36.3,0,0,0,1.76,11.534,36.92,36.92,0,0,0,6,10.142c2.423,3.029,5.89,4.886,9.335,7.157s6.146,5.9,9.941,6.974c3.933,1.108,8.253-.039,12.261-.166,4.048-.127,8.127-.1,11.939-1.427,3.774-1.317,6.518-4.324,9.753-6.761,1.757-1.324,3.828-2.388,5.72-3.661a35.936,35.936,0,0,0,8.263,6.133A33.184,33.184,0,0,0,574.486,320c3.919-.489,7.327-2.446,11.092-4.175s8.362-2.143,11.237-4.774a11.816,11.816,0,0,0,1.393-1.535,22.871,22.871,0,0,0,4.179,3.92c3.245,2.286,7.351,2.795,11.248,4.019,3.76,1.18,7.377,3.617,11.542,3.612s8.155-1.326,11.913-2.515a41.934,41.934,0,0,0,19.383-13.528c2.356-3.149,5.6-6.261,6.866-10.042,1.216-3.649,1.2-8,1.2-12.042S661.924,275.369,660.7,271.723Z" fill="#161615"/>
        </g>
      </g>
      <g id="그룹_271" data-name="그룹 271">
        <path id="패스_223" data-name="패스 223" d="M714.234,282.766a32.162,32.162,0,0,1-6.344,20.987,35.364,35.364,0,0,1-8.135,7.622c-3.039,2.2-5.69,5.532-9.342,6.713-3.524,1.14-7.616.082-11.521.082a36.027,36.027,0,0,1-21.207-6.324c-3.07-2.226-6.541-4.32-8.775-7.379-2.212-3.028-1.981-7.332-3.167-10.971-1.144-3.51-2.589-6.84-2.589-10.73A34.858,34.858,0,0,1,645,271.794c1.186-3.638,1.829-7.609,4.041-10.637a37.477,37.477,0,0,1,8.377-7.842c3.039-2.2,6.72-3.419,10.371-4.6,3.524-1.14,7.2-.692,11.106-.692s7.808-1.138,11.331,0c3.652,1.181,6.284,4.214,9.323,6.418a32.362,32.362,0,0,1,14.688,28.323Z" fill="#161615"/>
      </g>
    </g>
    <g id="그룹_273" data-name="그룹 273">
      <path id="패스_224" data-name="패스 224" d="M508.436,270.421a21.5,21.5,0,0,0-4.289,4.355l-4.814-3.749a33.626,33.626,0,0,1,2.822-3.459,15.007,15.007,0,0,1,3.127-2.559,14.507,14.507,0,0,1,3.708-1.586,17.486,17.486,0,0,1,4.621-.556,15.946,15.946,0,0,1,5.258.827,11.293,11.293,0,0,1,4.04,2.371,10.738,10.738,0,0,1,2.573,3.666,11.793,11.793,0,0,1,.914,4.714,12.156,12.156,0,0,1-2.463,7.664,24.1,24.1,0,0,1-3.155,3.474q-1.908,1.766-4.455,3.859l-7.97,6.616h18.43v5.955h-28v-5.34l13.338-11.283q1.992-1.652,3.376-3a18.864,18.864,0,0,0,2.241-2.559,9.157,9.157,0,0,0,1.245-2.367,7.751,7.751,0,0,0,.388-2.478,5.566,5.566,0,0,0-1.8-4.43,6.533,6.533,0,0,0-4.455-1.569A7.877,7.877,0,0,0,508.436,270.421Z" fill="#fff"/>
      <path id="패스_225" data-name="패스 225" d="M586.721,290.462a19.78,19.78,0,0,1-3.432,6.368,16.27,16.27,0,0,1-5.341,4.273,16.2,16.2,0,0,1-13.863.028,16.026,16.026,0,0,1-5.314-4.246,19.4,19.4,0,0,1-3.4-6.34,25.8,25.8,0,0,1,.027-15.576,19.741,19.741,0,0,1,3.432-6.368,16.3,16.3,0,0,1,5.341-4.273,16.208,16.208,0,0,1,13.863-.028,16.094,16.094,0,0,1,5.314,4.246,19.451,19.451,0,0,1,3.4,6.341,25.8,25.8,0,0,1-.027,15.575Zm-6.5-13.094a14.268,14.268,0,0,0-1.993-4.411,10.265,10.265,0,0,0-3.127-2.978,8.2,8.2,0,0,0-8.164-.027,9.873,9.873,0,0,0-3.071,2.922,14.283,14.283,0,0,0-1.965,4.383,21.577,21.577,0,0,0,0,10.834,14.624,14.624,0,0,0,1.992,4.411,9.842,9.842,0,0,0,3.127,2.978,7.928,7.928,0,0,0,4.1,1.075,7.784,7.784,0,0,0,4.068-1.075,9.77,9.77,0,0,0,3.072-2.95,14.722,14.722,0,0,0,1.965-4.383,20.154,20.154,0,0,0,.691-5.376A20.465,20.465,0,0,0,580.218,277.368Z" fill="#fff"/>
      <path id="패스_226" data-name="패스 226" d="M623.94,270.421a21.5,21.5,0,0,0-4.289,4.355l-4.814-3.749a33.622,33.622,0,0,1,2.822-3.459,15.005,15.005,0,0,1,3.127-2.559,14.506,14.506,0,0,1,3.708-1.586,17.485,17.485,0,0,1,4.621-.556,15.945,15.945,0,0,1,5.258.827,11.3,11.3,0,0,1,4.04,2.371,10.738,10.738,0,0,1,2.573,3.666,11.793,11.793,0,0,1,.914,4.714,12.156,12.156,0,0,1-2.463,7.664,24.1,24.1,0,0,1-3.155,3.474q-1.908,1.766-4.455,3.859l-7.97,6.616h18.43v5.955h-28v-5.34l13.338-11.283q1.992-1.652,3.376-3a18.859,18.859,0,0,0,2.241-2.559,9.187,9.187,0,0,0,1.245-2.367,7.749,7.749,0,0,0,.388-2.478,5.566,5.566,0,0,0-1.8-4.43,6.534,6.534,0,0,0-4.455-1.569A7.877,7.877,0,0,0,623.94,270.421Z" fill="#fff"/>
      <path id="패스_227" data-name="패스 227" d="M678.371,263.143h4.76v38.87h-6.752V270.035l-6.974,1.929-1.439-5.513Z" fill="#fff"/>
    </g>
  </g>
</svg>
