<svg xmlns="http://www.w3.org/2000/svg" xmlns:xlink="http://www.w3.org/1999/xlink" width="155.866" height="267.409" viewBox="0 0 155.866 267.409">
  <defs>
    <linearGradient id="linear-gradient" x1="-0.906" y1="1.176" x2="-0.133" y2="0.329" gradientUnits="objectBoundingBox">
      <stop offset="0" stop-color="#f9cd86"/>
      <stop offset="0.252" stop-color="#fdf0dc"/>
      <stop offset="0.35" stop-color="#fff"/>
    </linearGradient>
    <linearGradient id="linear-gradient-2" x1="0.066" y1="-0.053" x2="0.865" y2="0.919" gradientUnits="objectBoundingBox">
      <stop offset="0.5" stop-color="#fff"/>
      <stop offset="1" stop-color="#f9cd86"/>
    </linearGradient>
    <linearGradient id="linear-gradient-3" x1="-2.838" y1="1.649" x2="-1.978" y2="0.849" gradientUnits="objectBoundingBox">
      <stop offset="0" stop-color="#f55142"/>
      <stop offset="0.327" stop-color="#f44e3e"/>
      <stop offset="0.59" stop-color="#f44434"/>
      <stop offset="0.83" stop-color="#f33523"/>
      <stop offset="1" stop-color="#f22613"/>
    </linearGradient>
    <linearGradient id="linear-gradient-4" x1="-2.489" y1="0.838" x2="-1.69" y2="1.698" gradientUnits="objectBoundingBox">
      <stop offset="0" stop-color="#f22613"/>
      <stop offset="0.17" stop-color="#f33523"/>
      <stop offset="0.41" stop-color="#f44434"/>
      <stop offset="0.673" stop-color="#f44e3e"/>
      <stop offset="1" stop-color="#f55142"/>
    </linearGradient>
    <linearGradient id="linear-gradient-5" x1="-1.231" y1="0.847" x2="-0.227" y2="0.847" gradientUnits="objectBoundingBox">
      <stop offset="0" stop-color="#f7b855"/>
      <stop offset="1" stop-color="#f5ab35"/>
    </linearGradient>
    <linearGradient id="linear-gradient-6" x1="-1.106" y1="1.388" x2="-0.104" y2="1.388" xlink:href="#linear-gradient-5"/>
    <linearGradient id="linear-gradient-7" x1="-1.319" y1="1.984" x2="-0.315" y2="1.984" gradientUnits="objectBoundingBox">
      <stop offset="0" stop-color="#f39c12"/>
      <stop offset="1" stop-color="#f38812"/>
    </linearGradient>
    <linearGradient id="linear-gradient-8" x1="-4.701" y1="1.372" x2="-4.701" y2="0.372" xlink:href="#linear-gradient-4"/>
  </defs>
  <g id="그룹_397" data-name="그룹 397" transform="translate(-4200.982 -2634.558)">
    <text id="선착순_300명에게_2_000원_상당의_모바일_기프티콘_" data-name="선착순 300명에게
2,000원 상당의
모바일 기프티콘!" transform="translate(4279 2841.967)" fill="#3b3b3b" font-size="18" font-family="NotoSansCJKkr-Bold, Noto Sans CJK KR" font-weight="700"><tspan x="-67.626" y="0">선착순 300명에게</tspan><tspan x="-59.292" y="27">2,000원 상당의</tspan><tspan x="-63.333" y="54">모바일 기프티콘!</tspan></text>
    <g id="그룹_395" data-name="그룹 395" transform="translate(4176.233 2531.614)">
      <ellipse id="타원_70" data-name="타원 70" cx="43.446" cy="4.345" rx="43.446" ry="4.345" transform="translate(60.88 264.151)" fill="#c2ccd9"/>
      <path id="패스_291" data-name="패스 291" d="M137.66,42.612a4.348,4.348,0,0,0-5.4-3.415l-1.747.469h0L26.651,67.493v0l-1.747.465a4.346,4.346,0,0,0-2.967,5.657l7.746,21.736,6.712-1.8,20.6,55.072a4.343,4.343,0,0,0,5.192,2.676l79.458-21.289A4.348,4.348,0,0,0,144.8,125.1l-9.7-57.992,6.708-1.8Z" transform="translate(3.065 99.317)" fill="url(#linear-gradient)"/>
      <path id="패스_292" data-name="패스 292" d="M149.542,55.925a4.344,4.344,0,0,0-3.906-5.053l-1.8-.156h0L36.717,41.344h0l-1.8-.156a4.342,4.342,0,0,0-4.723,4.3l-.156,23.079,6.925.6.517,58.8a4.343,4.343,0,0,0,3.967,4.288l81.944,7.173a4.347,4.347,0,0,0,4.653-3.536l10.718-57.814,6.925.608Z" transform="translate(31.011 106.419)" fill="url(#linear-gradient-2)"/>
      <g id="그룹_394" data-name="그룹 394" transform="translate(42.966 102.944)">
        <path id="패스_293" data-name="패스 293" d="M58.565,30.987C45.727,32.112,40.3,62.415,38.571,75.4a4.341,4.341,0,0,0,4.683,4.9,4.477,4.477,0,0,0,.938-.182C56.666,76.149,85.575,65.544,84.45,52.71A23.923,23.923,0,0,0,58.565,30.987ZM56.054,50.468a8.946,8.946,0,0,1,9.68,7.707c-.743,2-7.421,5.765-15.432,8.937C52.022,58.683,54.507,51.476,56.054,50.468Z" transform="translate(16.451 -30.895)" fill="url(#linear-gradient-3)"/>
        <path id="패스_294" data-name="패스 294" d="M78.372,71.987C74.41,59.5,63.809,30.6,50.971,31.726A23.926,23.926,0,0,0,29.248,57.611c1.125,12.838,31.433,18.26,44.411,20a4.148,4.148,0,0,0,.956.017,4.336,4.336,0,0,0,3.758-5.639ZM48.729,60.122a8.956,8.956,0,0,1,7.712-9.684c2,.747,5.761,7.425,8.932,15.432C56.944,64.145,49.732,61.664,48.729,60.122Z" transform="translate(-14.909 -28.223)" fill="url(#linear-gradient-4)"/>
        <path id="패스_295" data-name="패스 295" d="M36.582,52.441a13.033,13.033,0,0,1,25.968-2.272Z" transform="translate(9.76 -6.227)" fill="#f22613"/>
        <path id="패스_296" data-name="패스 296" d="M134.32,40.192,27.2,49.563,43,134.735a4.349,4.349,0,0,0,4.649,3.536l81.948-7.173a4.343,4.343,0,0,0,3.967-4.288Z" transform="translate(-21.437 0.2)" fill="url(#linear-gradient-5)"/>
        <path id="패스_297" data-name="패스 297" d="M25.939,54.91l3.854,22.748L145.437,67.544l-.152-23.079a4.342,4.342,0,0,0-4.723-4.3L29.841,49.853A4.343,4.343,0,0,0,25.939,54.91Z" transform="translate(-25.877 0.067)" fill="url(#linear-gradient-6)"/>
        <rect id="사각형_142" data-name="사각형 142" width="26.068" height="90.151" transform="matrix(0.996, -0.087, 0.087, 0.996, 46.341, 46.213)" fill="#f55142"/>
        <path id="패스_298" data-name="패스 298" d="M130.05,60.508l.123-13.912L28.371,55.5l2.537,13.679Z" transform="translate(-17.533 21.619)" fill="url(#linear-gradient-7)"/>
        <rect id="사각형_143" data-name="사각형 143" width="26.068" height="90.151" transform="translate(46.34 46.214) rotate(-5.001)" fill="url(#linear-gradient-8)"/>
      </g>
    </g>
  </g>
</svg>
