<svg xmlns="http://www.w3.org/2000/svg" width="160" height="199.503" viewBox="0 0 160 199.503">
  <g id="그룹_389" data-name="그룹 389" transform="translate(-1657.931 -1502.464)">
    <g id="그룹_388" data-name="그룹 388" transform="translate(1683.933 1502.464)">
      <g id="그룹_383" data-name="그룹 383" transform="translate(1.677 8.026)">
        <path id="패스_251" data-name="패스 251" d="M-321.612,97.833h-64.525l-19.328,55.093h103.18Z" transform="translate(406.622 -96.675)" fill="#ffffde"/>
        <path id="패스_252" data-name="패스 252" d="M-305.125,151.244h-103.18a1.158,1.158,0,0,1-.945-.489,1.159,1.159,0,0,1-.148-1.053l19.328-55.094a1.158,1.158,0,0,1,1.093-.775h64.525a1.158,1.158,0,0,1,1.093.775l19.328,55.094a1.158,1.158,0,0,1-.148,1.053A1.158,1.158,0,0,1-305.125,151.244Zm-101.546-2.317h99.912L-325.274,96.15h-62.882Z" transform="translate(409.464 -93.833)" fill="#ffe292"/>
      </g>
      <g id="그룹_384" data-name="그룹 384" transform="translate(2.078 71.307)">
        <path id="패스_253" data-name="패스 253" d="M-352.89,316.312h-51.189V324.5l8.813,51.626h84.751L-301.7,324.5v-8.187Z" transform="translate(405.237 -315.154)" fill="#ffffde"/>
        <path id="패스_254" data-name="패스 254" d="M-313.356,374.443h-84.751a1.159,1.159,0,0,1-1.142-.964l-8.813-51.626a1.131,1.131,0,0,1-.017-.195v-8.187a1.159,1.159,0,0,1,1.159-1.159h102.377a1.159,1.159,0,0,1,1.159,1.159v8.187a1.162,1.162,0,0,1-.016.195l-8.813,51.626A1.159,1.159,0,0,1-313.356,374.443Zm-83.774-2.317h82.8l8.632-50.566v-6.93h-100.06v6.93Z" transform="translate(408.079 -312.313)" fill="#ffe292"/>
      </g>
      <g id="그룹_385" data-name="그룹 385" transform="translate(0 63.12)">
        <rect id="사각형_140" data-name="사각형 140" width="106.535" height="16.374" transform="translate(1.158 1.158)" fill="#ffffde"/>
        <path id="패스_255" data-name="패스 255" d="M-307.562,302.738H-414.1a1.159,1.159,0,0,1-1.159-1.159V285.206a1.159,1.159,0,0,1,1.159-1.159h106.535a1.159,1.159,0,0,1,1.159,1.159V301.58A1.159,1.159,0,0,1-307.562,302.738Zm-105.376-2.317H-308.72V286.364H-412.938Z" transform="translate(415.255 -284.047)" fill="#ffe292"/>
      </g>
      <g id="그룹_386" data-name="그룹 386" transform="translate(17.666 0)">
        <path id="패스_256" data-name="패스 256" d="M-283.019,70.122h-63.134l-4.11,11.3h71.353Z" transform="translate(351.421 -68.963)" fill="#00d798"/>
        <path id="패스_257" data-name="패스 257" d="M-281.751,79.74H-353.1a1.16,1.16,0,0,1-.949-.494,1.16,1.16,0,0,1-.14-1.061l4.109-11.3a1.159,1.159,0,0,1,1.089-.762h63.134a1.159,1.159,0,0,1,1.089.762l4.11,11.3a1.161,1.161,0,0,1-.14,1.061A1.16,1.16,0,0,1-281.751,79.74Zm-69.7-2.317H-283.4l-3.267-8.984h-61.511Z" transform="translate(354.262 -66.122)" fill="#ffe292"/>
      </g>
      <ellipse id="타원_68" data-name="타원 68" cx="3.596" cy="3.596" rx="3.596" ry="3.596" transform="translate(41.153 27.389)" fill="#753206"/>
      <ellipse id="타원_69" data-name="타원 69" cx="3.596" cy="3.596" rx="3.596" ry="3.596" transform="translate(60.658 27.389)" fill="#753206"/>
      <g id="그룹_387" data-name="그룹 387" transform="translate(48.451 36.761)">
        <path id="패스_258" data-name="패스 258" d="M-242,198.054a6.565,6.565,0,0,1-5.852-3.337,1.159,1.159,0,0,1,.518-1.555,1.159,1.159,0,0,1,1.555.518,4.263,4.263,0,0,0,3.78,2.056,4.262,4.262,0,0,0,3.784-2.066,1.163,1.163,0,0,1,1.557-.5,1.154,1.154,0,0,1,.511,1.544A6.565,6.565,0,0,1-242,198.054Z" transform="translate(247.975 -193.04)" fill="#ffb354"/>
      </g>
    </g>
    <text id="선착순_300명에게_바나나우유_기프티콘_" data-name="선착순 300명에게
바나나우유 기프티콘!" transform="translate(1737.931 1668.967)" fill="#4d4d4d" font-size="18" font-family="NotoSansCJKkr-Bold, Noto Sans CJK KR" font-weight="700"><tspan x="-67.626" y="0">선착순 300명에게</tspan><tspan x="-79.893" y="27">바나나우유 기프티콘!</tspan></text>
  </g>
</svg>
