<svg xmlns="http://www.w3.org/2000/svg" width="2002" height="642.86" viewBox="0 0 2002 642.86">
  <g id="그룹_361" data-name="그룹 361" transform="translate(0 -93.515)">
    <g id="그룹_330" data-name="그룹 330" transform="translate(-1245.249 -432.033) rotate(-30)">
      <g id="그룹_99" data-name="그룹 99" transform="translate(654.581 1356.73)">
        <g id="그룹_92" data-name="그룹 92" transform="translate(0)">
          <path id="패스_50" data-name="패스 50" d="M739.943,1369.852c9.087-11.971,24.482-14.607,39.352-12.427s29.24,6.77,34.506,20.846c16.8-9.721,38.729-4.8,54.019,7.165s24.2,33.124,18.808,51.773c9.894,6.264,19.4,12.874,26.2,22.4s10.23,22.024,12.94,33.416c2.2,9.267-1.568,18.48-4,27.69s-8.146,17.951-16.649,22.245c5.557,9.095,16.012,18.76,19.293,28.905,3.318,10.254,2.918,21.717,2.2,32.465-.712,10.588-5.83,20.356-11.7,29.2-5.981,9.011-14.054,14.174-24.332,17.552-11.724,3.852-23.2,6.377-35.187,3.454a26.529,26.529,0,0,1-13.317,20.545c-7.333,4.021-17.044.967-25.393,1.455-16.647.974-32.863-.065-48.913-4.589-1.906-.537-4.1,3.838-6.075,3.958-2.776.167-6.656-3.881-9.1-2.558-10.417,5.635-21.037,7.129-32.864,6.674s-25.031,1.464-34.983-4.957c-9.308-6.005-14.758-16.912-20.284-26.509-5.5-9.547-7.372-20.119-8.428-31.089-1.063-11.021-2.806-22.1.291-32.728,3.084-10.586,11.26-20.641,17.618-29.65-7.735-16.345-15.184-33.9-13.108-51.867s13.791-35.453,31.637-38.374c-4.755-13.355-9.75-27.617-8.94-41.769s7.839-29.379,21.312-33.792c-.316-8.176,3.965-17.1,11.06-21.169S733.042,1365.456,739.943,1369.852Z" transform="translate(-654.581 -1356.73)" fill="#ec898e"/>
        </g>
        <g id="그룹_98" data-name="그룹 98" transform="translate(88.092 35.054)">
          <g id="그룹_97" data-name="그룹 97">
            <g id="그룹_93" data-name="그룹 93">
              <path id="패스_51" data-name="패스 51" d="M742.822,1388.362a8.367,8.367,0,0,1,1.748,1.813,8.188,8.188,0,0,1,.688,2.412,7.814,7.814,0,0,1,.146,2.436,7.7,7.7,0,0,1-.551,2.371,7.878,7.878,0,0,1-1.166,2.17,7.159,7.159,0,0,1-6.63,2.5,8.042,8.042,0,0,1-2.466-.237c-.738-.305-1.2-1.118-1.838-1.664a6.49,6.49,0,0,1-2.774-6.345,6.83,6.83,0,0,1,1.942-4.292,7.912,7.912,0,0,1,1.639-1.783,8.1,8.1,0,0,1,4.7-.993,7.474,7.474,0,0,1,2.288.687A7.761,7.761,0,0,1,742.822,1388.362Z" transform="translate(-729.928 -1386.712)" fill="#fff"/>
            </g>
            <g id="그룹_94" data-name="그룹 94" transform="translate(23.948 2.613)">
              <path id="패스_52" data-name="패스 52" d="M763.3,1390.6a8.421,8.421,0,0,1,1.748,1.813,8.234,8.234,0,0,1,.687,2.413,7.855,7.855,0,0,1,.146,2.436,7.726,7.726,0,0,1-.551,2.371,7.831,7.831,0,0,1-1.167,2.169,7.148,7.148,0,0,1-6.629,2.5,7.987,7.987,0,0,1-2.467-.237c-.737-.305-1.2-1.117-1.837-1.663a6.49,6.49,0,0,1-2.774-6.345,7.594,7.594,0,0,1,.593-2.329,7.484,7.484,0,0,1,1.349-1.962,7.848,7.848,0,0,1,1.639-1.783,8.105,8.105,0,0,1,4.7-.994,7.482,7.482,0,0,1,2.288.688A7.807,7.807,0,0,1,763.3,1390.6Z" transform="translate(-750.41 -1388.948)" fill="#fff"/>
            </g>
            <g id="그룹_95" data-name="그룹 95" transform="translate(25.514 7.066)">
              <path id="패스_53" data-name="패스 53" d="M758.494,1393.619a4.372,4.372,0,0,1,.914.948,4.254,4.254,0,0,1,.359,1.262,4.089,4.089,0,0,1,.077,1.274,4.035,4.035,0,0,1-.289,1.239,2.466,2.466,0,0,1-1.7,1.806,2.575,2.575,0,0,1-2.376.635,4.173,4.173,0,0,1-1.29-.124c-.386-.16-.627-.584-.961-.87a3.338,3.338,0,0,1-1.4-2.049,4.061,4.061,0,0,1-.047-1.27,3.564,3.564,0,0,1,1.015-2.245,4.125,4.125,0,0,1,.857-.932,4.235,4.235,0,0,1,2.456-.521,3.913,3.913,0,0,1,1.2.359A4.069,4.069,0,0,1,758.494,1393.619Z" transform="translate(-751.75 -1392.756)" fill="#161615"/>
            </g>
            <g id="그룹_96" data-name="그룹 96" transform="translate(1.566 4.452)">
              <path id="패스_54" data-name="패스 54" d="M738.011,1391.383a4.367,4.367,0,0,1,.914.948,4.3,4.3,0,0,1,.36,1.263,4.442,4.442,0,0,1-.212,2.513,4.13,4.13,0,0,1-.61,1.135,4.011,4.011,0,0,1-1.092.67,2.567,2.567,0,0,1-2.376.635,4.19,4.19,0,0,1-1.29-.124c-.386-.159-.627-.584-.961-.87a4.023,4.023,0,0,1-.9-.883,3.417,3.417,0,0,1-.555-2.436,3.567,3.567,0,0,1,1.015-2.245,4.12,4.12,0,0,1,.858-.933,4.052,4.052,0,0,1,1.194-.448,3.977,3.977,0,0,1,1.261-.071,3.887,3.887,0,0,1,1.2.358A4.077,4.077,0,0,1,738.011,1391.383Z" transform="translate(-731.267 -1390.52)" fill="#161615"/>
            </g>
          </g>
        </g>
      </g>
      <g id="그룹_101" data-name="그룹 101" transform="translate(711.952 1373.925)" opacity="0.2">
        <g id="그룹_100" data-name="그룹 100" transform="translate(0 0)">
          <path id="패스_55" data-name="패스 55" d="M727.937,1372.664c-3.356-2.059-7.814-1.121-11.8-.124a18.255,18.255,0,0,0-3.852,1.278,15.771,15.771,0,0,0-4.229,3.429,16.631,16.631,0,0,0-4.03,6.162c-.734,2.34-.447,5.071,1.24,6.674a3.353,3.353,0,0,0,2.342,1,5,5,0,0,0,3.3-1.932c1.833-2.021,3.184-4.553,5.444-6.062a15.8,15.8,0,0,1,3.417-1.569l6.4-2.34a4.585,4.585,0,0,0,2.356-1.475,4.151,4.151,0,0,0-.6-5.04" transform="translate(-703.651 -1371.437)" fill="#fff"/>
        </g>
      </g>
      <g id="그룹_103" data-name="그룹 103" transform="translate(671.56 1472.553)" opacity="0.2">
        <g id="그룹_102" data-name="그룹 102" transform="translate(0 0)">
          <path id="패스_56" data-name="패스 56" d="M697.4,1455.906c-5.507-.86-11.24,3.439-16.3,7.516a31.979,31.979,0,0,0-4.754,4.4,30.366,30.366,0,0,0-4.349,7.839c-1.563,3.79-2.893,7.813-2.9,11.759s1.566,7.8,4.58,9.076a4.3,4.3,0,0,0,3.652-.052c1.747-.881,2.917-2.984,3.72-5.017,1.656-4.19,2.425-8.82,4.888-12.532a28.806,28.806,0,0,1,4.03-4.554l7.81-7.643a8.588,8.588,0,0,0,2.608-3.723,6.2,6.2,0,0,0-2.992-7.075" transform="translate(-669.103 -1455.795)" fill="#fff"/>
        </g>
      </g>
    </g>
    <g id="그룹_334" data-name="그룹 334" transform="translate(1428.505 736.375) rotate(-150)">
      <g id="그룹_99-2" data-name="그룹 99" transform="translate(0 0)">
        <g id="그룹_92-2" data-name="그룹 92">
          <path id="패스_50-2" data-name="패스 50" d="M110.854,402.894c11.8,15.546,31.794,18.97,51.1,16.139s37.972-8.791,44.811-27.072c21.823,12.624,50.3,6.233,70.151-9.3s31.429-43.016,24.425-67.235c12.848-8.134,25.2-16.718,34.03-29.091s13.285-28.6,16.805-43.395c2.862-12.035-2.036-24-5.191-35.96s-10.578-23.311-21.621-28.888c7.217-11.811,20.794-24.362,25.055-37.538,4.309-13.317,3.79-28.2,2.851-42.161-.925-13.75-7.572-26.436-15.191-37.916-7.768-11.7-18.252-18.407-31.6-22.793-15.226-5-30.126-8.282-45.7-4.485A34.452,34.452,0,0,0,243.5,6.514c-9.523-5.222-22.134-1.256-32.976-1.889C188.9,3.36,167.843,4.71,147,10.584c-2.475.7-5.323-4.985-7.889-5.139-3.6-.217-8.644,5.04-11.82,3.322C113.762,1.448,99.971-.492,84.611.1S52.105-1.8,39.181,6.536C27.094,14.335,20.016,28.5,12.84,40.963,5.7,53.361,3.267,67.09,1.895,81.337c-1.38,14.312-3.644,28.7.378,42.5,4.005,13.747,14.623,26.8,22.88,38.505C15.107,183.57,5.434,206.372,8.129,229.7s17.91,46.04,41.085,49.834C43.04,296.878,36.553,315.4,37.6,333.778s10.18,38.153,27.676,43.883c-.41,10.618,5.149,22.2,14.363,27.491S101.893,408.6,110.854,402.894Z" transform="translate(0 0)" fill="#ec898e"/>
        </g>
        <g id="그룹_98-2" data-name="그룹 98" transform="translate(114.4 350.979)">
          <g id="그룹_97-2" data-name="그룹 97" transform="translate(0 0)">
            <g id="그룹_93-2" data-name="그룹 93" transform="translate(0 3.395)">
              <path id="패스_51-2" data-name="패스 51" d="M16.745,17.9a10.866,10.866,0,0,0,2.27-2.354,10.633,10.633,0,0,0,.893-3.132,10.147,10.147,0,0,0,.19-3.163,10,10,0,0,0-.715-3.079,10.231,10.231,0,0,0-1.514-2.818,10.1,10.1,0,0,0-2.711-1.666A10.043,10.043,0,0,0,12.413.147,10.078,10.078,0,0,0,9.258.105a10.444,10.444,0,0,0-3.2.308C5.1.809,4.5,1.864,3.669,2.574A9.994,9.994,0,0,0,1.448,4.765a10.054,10.054,0,0,0-1.263,2.9,10.09,10.09,0,0,0-.119,3.151,9.83,9.83,0,0,0,.771,3.024,9.736,9.736,0,0,0,1.751,2.549A10.275,10.275,0,0,0,4.717,18.7a10.04,10.04,0,0,0,2.965,1.11,10,10,0,0,0,3.134.179,9.706,9.706,0,0,0,2.971-.892C14.745,18.7,15.913,18.606,16.745,17.9Z" transform="translate(0 0)" fill="#fff"/>
            </g>
            <g id="그룹_94-2" data-name="그룹 94" transform="translate(31.099 0)">
              <path id="패스_52-2" data-name="패스 52" d="M16.745,17.9a10.936,10.936,0,0,0,2.27-2.355,10.693,10.693,0,0,0,.893-3.134,10.2,10.2,0,0,0,.19-3.163,10.033,10.033,0,0,0-.715-3.079A10.169,10.169,0,0,0,17.867,3.35a10.006,10.006,0,0,0-2.71-1.667A10.07,10.07,0,0,0,12.413.146,10.06,10.06,0,0,0,9.258.106a10.372,10.372,0,0,0-3.2.308C5.1.811,4.5,1.865,3.669,2.574A10.016,10.016,0,0,0,1.446,4.766a10.031,10.031,0,0,0-1.262,2.9,10.052,10.052,0,0,0-.119,3.151,9.862,9.862,0,0,0,.77,3.025,9.719,9.719,0,0,0,1.752,2.548A10.191,10.191,0,0,0,4.717,18.7a10.053,10.053,0,0,0,2.966,1.11,10.022,10.022,0,0,0,3.132.181,9.717,9.717,0,0,0,2.971-.893C14.744,18.7,15.913,18.606,16.745,17.9Z" transform="translate(0 0)" fill="#fff"/>
            </g>
            <g id="그룹_95-2" data-name="그룹 95" transform="translate(33.133 3.775)">
              <path id="패스_53-2" data-name="패스 53" d="M8.758,9.36A5.678,5.678,0,0,0,9.945,8.129a5.525,5.525,0,0,0,.466-1.639,5.31,5.31,0,0,0,.1-1.655,5.241,5.241,0,0,0-.375-1.609,5.328,5.328,0,0,0-.791-1.474A5.307,5.307,0,0,0,7.928.88a5.256,5.256,0,0,0-1.435-.8A5.253,5.253,0,0,0,4.842.056a5.419,5.419,0,0,0-1.675.16c-.5.208-.814.759-1.248,1.13A5.2,5.2,0,0,0,.757,2.493,5.237,5.237,0,0,0,.1,4.008,5.274,5.274,0,0,0,.035,5.657a5.114,5.114,0,0,0,.4,1.582,5.1,5.1,0,0,0,.916,1.333,5.357,5.357,0,0,0,1.113,1.21,5.271,5.271,0,0,0,1.552.581,5.241,5.241,0,0,0,1.638.094,5.082,5.082,0,0,0,1.555-.467A5.285,5.285,0,0,0,8.758,9.36Z" transform="translate(0 0)" fill="#161615"/>
            </g>
            <g id="그룹_96-2" data-name="그룹 96" transform="translate(2.033 7.17)">
              <path id="패스_54-2" data-name="패스 54" d="M8.758,9.36A5.671,5.671,0,0,0,9.945,8.129a5.583,5.583,0,0,0,.468-1.64,5.291,5.291,0,0,0,.1-1.654,5.28,5.28,0,0,0-.374-1.61,5.364,5.364,0,0,0-.793-1.474A5.209,5.209,0,0,0,7.928.881,5.271,5.271,0,0,0,6.493.076,5.294,5.294,0,0,0,4.842.056a5.441,5.441,0,0,0-1.675.16c-.5.207-.814.758-1.248,1.13A5.224,5.224,0,0,0,.757,2.493,5.308,5.308,0,0,0,.1,4.008,5.257,5.257,0,0,0,.035,5.656a5.106,5.106,0,0,0,.4,1.581,5.106,5.106,0,0,0,.916,1.334A5.35,5.35,0,0,0,2.468,9.782a5.262,5.262,0,0,0,1.55.581,5.164,5.164,0,0,0,1.638.092A5.047,5.047,0,0,0,7.211,9.99,5.3,5.3,0,0,0,8.758,9.36Z" transform="translate(0 0)" fill="#161615"/>
            </g>
          </g>
        </g>
      </g>
      <g id="그룹_101-2" data-name="그룹 101" transform="translate(74.504 372.092)" opacity="0.2">
        <g id="그룹_100-2" data-name="그룹 100" transform="translate(0 0)">
          <path id="패스_55-2" data-name="패스 55" d="M31.538,23.918c-4.358,2.674-10.147,1.456-15.318.161a23.707,23.707,0,0,1-5-1.66,20.481,20.481,0,0,1-5.492-4.453,21.6,21.6,0,0,1-5.234-8C-.46,6.925-.087,3.378,2.1,1.3A4.354,4.354,0,0,1,5.145,0C6.8.043,8.282,1.237,9.436,2.509c2.381,2.625,4.134,5.912,7.069,7.872a20.52,20.52,0,0,0,4.438,2.037l8.313,3.039a5.954,5.954,0,0,1,3.06,1.915,5.391,5.391,0,0,1-.777,6.545" transform="translate(0 0)" fill="#fff"/>
        </g>
      </g>
      <g id="그룹_103-2" data-name="그룹 103" transform="translate(22.049 216.163)" opacity="0.2">
        <g id="그룹_102-2" data-name="그룹 102" transform="translate(0 0)">
          <path id="패스_56-2" data-name="패스 56" d="M36.748,53.214c-7.151,1.117-14.6-4.467-21.164-9.761a41.529,41.529,0,0,1-6.173-5.72A39.434,39.434,0,0,1,3.763,27.553C1.733,22.631.006,17.407,0,12.282S2.033,2.149,5.948.5a5.59,5.59,0,0,1,4.743.067c2.268,1.144,3.788,3.876,4.831,6.515,2.15,5.442,3.149,11.454,6.348,16.275A37.409,37.409,0,0,0,27.1,29.266l10.142,9.925c1.392,1.363,2.872,2.876,3.387,4.834a8.058,8.058,0,0,1-3.885,9.188" transform="translate(0 0)" fill="#fff"/>
        </g>
      </g>
    </g>
    <g id="그룹_331" data-name="그룹 331" transform="translate(318.881 -1399.999) rotate(19)">
      <g id="그룹_99-3" data-name="그룹 99" transform="translate(654.581 1356.73)">
        <g id="그룹_92-3" data-name="그룹 92" transform="translate(0)">
          <path id="패스_50-3" data-name="패스 50" d="M707.877,1364.923c5.673-7.474,15.286-9.12,24.569-7.759s18.256,4.226,21.544,13.015c10.492-6.07,24.181-3,33.727,4.473s15.11,20.681,11.743,32.325c6.177,3.911,12.114,8.038,16.361,13.986s6.387,13.751,8.079,20.863c1.376,5.786-.979,11.538-2.5,17.289s-5.086,11.207-10.395,13.889c3.47,5.678,10,11.712,12.046,18.047,2.072,6.4,1.822,13.559,1.371,20.27-.445,6.61-3.64,12.71-7.3,18.229-3.734,5.626-8.775,8.85-15.192,10.959-7.32,2.405-14.484,3.982-21.969,2.156a16.563,16.563,0,0,1-8.314,12.828c-4.578,2.51-10.642.6-15.854.908a91.482,91.482,0,0,1-30.539-2.865c-1.19-.335-2.559,2.4-3.793,2.471-1.733.1-4.156-2.423-5.683-1.6-6.5,3.518-13.135,4.451-20.519,4.167s-15.628.915-21.841-3.094c-5.812-3.75-9.214-10.559-12.664-16.551-3.432-5.961-4.6-12.562-5.262-19.411-.664-6.881-1.752-13.8.182-20.434,1.926-6.609,7.03-12.887,11-18.512-4.83-10.2-9.48-21.167-8.184-32.383s8.611-22.135,19.753-23.959c-2.969-8.338-6.087-17.242-5.582-26.078s4.894-18.343,13.306-21.1c-.2-5.1,2.475-10.674,6.906-13.217S703.569,1362.178,707.877,1364.923Z" transform="translate(-654.581 -1356.73)" fill="#ec898e"/>
        </g>
        <g id="그룹_98-3" data-name="그룹 98" transform="translate(55.001 21.886)">
          <g id="그룹_97-3" data-name="그룹 97">
            <g id="그룹_93-3" data-name="그룹 93">
              <path id="패스_51-3" data-name="패스 51" d="M737.978,1387.742a5.225,5.225,0,0,1,1.091,1.132,5.109,5.109,0,0,1,.429,1.506,4.88,4.88,0,0,1,.091,1.521,4.811,4.811,0,0,1-.344,1.48,4.923,4.923,0,0,1-.728,1.355,4.469,4.469,0,0,1-4.14,1.559,5.043,5.043,0,0,1-1.54-.148c-.461-.191-.747-.7-1.148-1.039a3.985,3.985,0,0,1-1.675-2.447,4.855,4.855,0,0,1-.057-1.515,4.267,4.267,0,0,1,1.213-2.68,4.942,4.942,0,0,1,1.023-1.113,5.053,5.053,0,0,1,2.932-.62,4.664,4.664,0,0,1,1.429.428A4.854,4.854,0,0,1,737.978,1387.742Z" transform="translate(-729.928 -1386.712)" fill="#fff"/>
            </g>
            <g id="그룹_94-3" data-name="그룹 94" transform="translate(14.952 1.632)">
              <path id="패스_52-3" data-name="패스 52" d="M758.461,1389.977a5.257,5.257,0,0,1,1.091,1.132,5.142,5.142,0,0,1,.429,1.507,4.9,4.9,0,0,1,.091,1.52,4.831,4.831,0,0,1-.344,1.48,4.9,4.9,0,0,1-.729,1.354,4.463,4.463,0,0,1-4.139,1.559,5,5,0,0,1-1.54-.148c-.46-.19-.747-.7-1.147-1.038a4.052,4.052,0,0,1-1.732-3.962,4.736,4.736,0,0,1,.37-1.454,4.671,4.671,0,0,1,.842-1.225,4.886,4.886,0,0,1,1.023-1.113,5.057,5.057,0,0,1,2.932-.621,4.679,4.679,0,0,1,1.428.429A4.872,4.872,0,0,1,758.461,1389.977Z" transform="translate(-750.41 -1388.948)" fill="#fff"/>
            </g>
            <g id="그룹_95-3" data-name="그룹 95" transform="translate(15.93 4.412)">
              <path id="패스_53-3" data-name="패스 53" d="M755.96,1393.295a2.722,2.722,0,0,1,.571.592,2.645,2.645,0,0,1,.224.787,2.55,2.55,0,0,1,.048.8,2.512,2.512,0,0,1-.18.774,1.538,1.538,0,0,1-1.062,1.128,1.606,1.606,0,0,1-1.483.4,2.6,2.6,0,0,1-.805-.077c-.241-.1-.391-.365-.6-.543a2.116,2.116,0,0,1-.906-2.072,2.225,2.225,0,0,1,.633-1.4,2.593,2.593,0,0,1,.535-.582,2.646,2.646,0,0,1,1.534-.325,2.454,2.454,0,0,1,.747.225A2.533,2.533,0,0,1,755.96,1393.295Z" transform="translate(-751.75 -1392.756)" fill="#161615"/>
            </g>
            <g id="그룹_96-3" data-name="그룹 96" transform="translate(0.978 2.78)">
              <path id="패스_54-3" data-name="패스 54" d="M735.477,1391.059a2.735,2.735,0,0,1,.571.592,2.685,2.685,0,0,1,.225.788,2.778,2.778,0,0,1-.132,1.569,2.577,2.577,0,0,1-.381.708,2.506,2.506,0,0,1-.682.419,1.6,1.6,0,0,1-1.483.4,2.6,2.6,0,0,1-.805-.077c-.241-.1-.391-.364-.6-.543a2.512,2.512,0,0,1-.559-.551,2.135,2.135,0,0,1-.347-1.52,2.227,2.227,0,0,1,.634-1.4,1.709,1.709,0,0,1,1.281-.863,2.492,2.492,0,0,1,.787-.044,2.435,2.435,0,0,1,.747.224A2.549,2.549,0,0,1,735.477,1391.059Z" transform="translate(-731.267 -1390.52)" fill="#161615"/>
            </g>
          </g>
        </g>
      </g>
      <g id="그룹_101-3" data-name="그룹 101" transform="translate(690.401 1367.466)" opacity="0.2">
        <g id="그룹_100-3" data-name="그룹 100" transform="translate(0 0)">
          <path id="패스_55-3" data-name="패스 55" d="M718.814,1372.2c-2.1-1.285-4.878-.7-7.365-.077a11.391,11.391,0,0,0-2.4.8,9.85,9.85,0,0,0-2.64,2.141,10.381,10.381,0,0,0-2.516,3.847,4.1,4.1,0,0,0,.774,4.167,2.094,2.094,0,0,0,1.462.623,3.123,3.123,0,0,0,2.063-1.206c1.145-1.262,1.988-2.843,3.4-3.785a9.841,9.841,0,0,1,2.134-.98l4-1.461a2.858,2.858,0,0,0,1.471-.92,2.592,2.592,0,0,0-.374-3.147" transform="translate(-703.651 -1371.437)" fill="#fff"/>
        </g>
      </g>
      <g id="그룹_103-3" data-name="그룹 103" transform="translate(665.182 1429.045)" opacity="0.2">
        <g id="그룹_102-3" data-name="그룹 102" transform="translate(0 0)">
          <path id="패스_56-3" data-name="패스 56" d="M686.771,1455.865c-3.438-.537-7.018,2.147-10.175,4.693a19.98,19.98,0,0,0-2.968,2.75,18.959,18.959,0,0,0-2.716,4.894,19.867,19.867,0,0,0-1.809,7.342c0,2.463.977,4.872,2.859,5.667a2.689,2.689,0,0,0,2.28-.033,5.782,5.782,0,0,0,2.323-3.132c1.034-2.616,1.514-5.507,3.052-7.825a17.976,17.976,0,0,1,2.516-2.843l4.876-4.772a5.362,5.362,0,0,0,1.629-2.324,3.875,3.875,0,0,0-1.868-4.418" transform="translate(-669.103 -1455.795)" fill="#fff"/>
        </g>
      </g>
    </g>
    <g id="그룹_335" data-name="그룹 335" transform="translate(596.824 -970.664) rotate(-17)">
      <g id="그룹_99-4" data-name="그룹 99" transform="translate(654.581 1356.73)">
        <g id="그룹_92-4" data-name="그룹 92" transform="translate(0)">
          <path id="패스_50-4" data-name="패스 50" d="M699.456,1363.628c4.777-6.293,12.87-7.679,20.687-6.533s15.371,3.559,18.14,10.959c8.834-5.11,20.36-2.523,28.4,3.766s12.723,17.413,9.888,27.217c5.2,3.293,10.2,6.768,13.776,11.776s5.378,11.578,6.8,17.567c1.159,4.871-.824,9.715-2.1,14.557s-4.282,9.437-8.752,11.694c2.921,4.781,8.417,9.862,10.143,15.2,1.744,5.391,1.534,11.417,1.154,17.067-.374,5.566-3.065,10.7-6.149,15.348-3.144,4.737-7.388,7.451-12.791,9.227-6.163,2.025-12.2,3.353-18.5,1.816a13.946,13.946,0,0,1-7,10.8c-3.855,2.114-8.96.508-13.349.764a77.024,77.024,0,0,1-25.714-2.412c-1-.282-2.155,2.018-3.194,2.081-1.459.088-3.5-2.04-4.785-1.345-5.476,2.962-11.059,3.748-17.277,3.508s-13.159.77-18.39-2.605c-4.893-3.157-7.758-8.89-10.663-13.936-2.89-5.019-3.875-10.577-4.431-16.344-.559-5.793-1.475-11.618.153-17.205,1.621-5.565,5.919-10.851,9.262-15.587-4.066-8.592-7.982-17.823-6.891-27.266s7.25-18.637,16.632-20.173c-2.5-7.021-5.125-14.518-4.7-21.958s4.121-15.444,11.2-17.764c-.166-4.3,2.084-8.987,5.814-11.128S695.828,1361.317,699.456,1363.628Z" transform="translate(-654.581 -1356.73)" fill="#ec898e"/>
        </g>
        <g id="그룹_98-4" data-name="그룹 98" transform="translate(46.31 18.428)">
          <g id="그룹_97-4" data-name="그룹 97">
            <g id="그룹_93-4" data-name="그룹 93">
              <path id="패스_51-4" data-name="패스 51" d="M736.706,1387.579a4.4,4.4,0,0,1,.919.953,4.3,4.3,0,0,1,.361,1.268,4.109,4.109,0,0,1,.077,1.28,4.052,4.052,0,0,1-.29,1.247,4.146,4.146,0,0,1-.613,1.141,3.762,3.762,0,0,1-3.485,1.313,4.255,4.255,0,0,1-1.3-.125c-.388-.161-.629-.588-.966-.875a3.354,3.354,0,0,1-1.411-2.06,4.089,4.089,0,0,1-.048-1.276,3.594,3.594,0,0,1,1.021-2.256,4.161,4.161,0,0,1,.862-.937,4.253,4.253,0,0,1,2.469-.522,3.927,3.927,0,0,1,1.2.361A4.082,4.082,0,0,1,736.706,1387.579Z" transform="translate(-729.928 -1386.712)" fill="#fff"/>
            </g>
            <g id="그룹_94-4" data-name="그룹 94" transform="translate(12.589 1.374)">
              <path id="패스_52-4" data-name="패스 52" d="M757.189,1389.814a4.428,4.428,0,0,1,.919.953,4.328,4.328,0,0,1,.361,1.269,4.126,4.126,0,0,1,.077,1.28,4.068,4.068,0,0,1-.289,1.246,4.12,4.12,0,0,1-.613,1.14,3.757,3.757,0,0,1-3.485,1.313,4.208,4.208,0,0,1-1.3-.125c-.387-.16-.629-.587-.966-.874a3.411,3.411,0,0,1-1.459-3.336,3.987,3.987,0,0,1,.312-1.224,3.932,3.932,0,0,1,.709-1.032,4.113,4.113,0,0,1,.862-.937,4.258,4.258,0,0,1,2.468-.523,3.941,3.941,0,0,1,1.2.362A4.1,4.1,0,0,1,757.189,1389.814Z" transform="translate(-750.41 -1388.948)" fill="#fff"/>
            </g>
            <g id="그룹_95-4" data-name="그룹 95" transform="translate(13.412 3.714)">
              <path id="패스_53-4" data-name="패스 53" d="M755.295,1393.209a2.3,2.3,0,0,1,.481.5,2.229,2.229,0,0,1,.189.663,2.147,2.147,0,0,1,.041.67,2.116,2.116,0,0,1-.152.651,1.3,1.3,0,0,1-.894.949,1.351,1.351,0,0,1-1.249.333,2.179,2.179,0,0,1-.678-.065c-.2-.084-.329-.307-.505-.457a1.782,1.782,0,0,1-.763-1.745,1.873,1.873,0,0,1,.533-1.18,2.18,2.18,0,0,1,.451-.49,2.228,2.228,0,0,1,1.291-.274,2.064,2.064,0,0,1,.629.189A2.127,2.127,0,0,1,755.295,1393.209Z" transform="translate(-751.75 -1392.756)" fill="#161615"/>
            </g>
            <g id="그룹_96-4" data-name="그룹 96" transform="translate(0.823 2.34)">
              <path id="패스_54-4" data-name="패스 54" d="M734.812,1390.974a2.3,2.3,0,0,1,.481.5,2.259,2.259,0,0,1,.189.664,2.338,2.338,0,0,1-.111,1.321,2.168,2.168,0,0,1-.321.6,2.111,2.111,0,0,1-.574.353,1.347,1.347,0,0,1-1.249.334,2.188,2.188,0,0,1-.678-.065c-.2-.084-.329-.307-.505-.457a2.115,2.115,0,0,1-.471-.464,1.8,1.8,0,0,1-.292-1.28,1.875,1.875,0,0,1,.534-1.18,1.439,1.439,0,0,1,1.079-.726,2.1,2.1,0,0,1,.663-.037,2.052,2.052,0,0,1,.629.188A2.147,2.147,0,0,1,734.812,1390.974Z" transform="translate(-731.267 -1390.52)" fill="#161615"/>
            </g>
          </g>
        </g>
      </g>
      <g id="그룹_101-4" data-name="그룹 101" transform="translate(684.741 1365.769)" opacity="0.2">
        <g id="그룹_100-4" data-name="그룹 100" transform="translate(0 0)">
          <path id="패스_55-4" data-name="패스 55" d="M716.418,1372.082c-1.764-1.082-4.108-.589-6.2-.065a9.586,9.586,0,0,0-2.025.672,8.291,8.291,0,0,0-2.223,1.8,8.741,8.741,0,0,0-2.119,3.239,3.455,3.455,0,0,0,.652,3.508,1.763,1.763,0,0,0,1.231.524,2.63,2.63,0,0,0,1.737-1.015c.964-1.063,1.674-2.394,2.862-3.187a8.292,8.292,0,0,1,1.8-.825l3.365-1.23a2.406,2.406,0,0,0,1.239-.775,2.182,2.182,0,0,0-.315-2.65" transform="translate(-703.651 -1371.437)" fill="#fff"/>
        </g>
      </g>
      <g id="그룹_103-4" data-name="그룹 103" transform="translate(663.507 1417.618)" opacity="0.2">
        <g id="그룹_102-4" data-name="그룹 102" transform="translate(0 0)">
          <path id="패스_56-4" data-name="패스 56" d="M683.979,1455.854c-2.895-.452-5.909,1.808-8.567,3.951a16.826,16.826,0,0,0-2.5,2.315,15.962,15.962,0,0,0-2.286,4.121,16.729,16.729,0,0,0-1.523,6.182c0,2.074.823,4.1,2.408,4.771a2.264,2.264,0,0,0,1.92-.027,4.868,4.868,0,0,0,1.956-2.637c.87-2.2,1.275-4.637,2.57-6.588a15.136,15.136,0,0,1,2.119-2.394l4.106-4.018a4.515,4.515,0,0,0,1.371-1.957,3.262,3.262,0,0,0-1.573-3.72" transform="translate(-669.103 -1455.795)" fill="#fff"/>
        </g>
      </g>
    </g>
    <g id="그룹_336" data-name="그룹 336" transform="translate(1938.959 600.062) rotate(-163)">
      <g id="그룹_99-5" data-name="그룹 99" transform="translate(0 0)">
        <g id="그룹_92-5" data-name="그룹 92" transform="translate(0 0)">
          <path id="패스_50-5" data-name="패스 50" d="M56.919,206.87c6.059,7.983,16.325,9.741,26.24,8.286s19.5-4.514,23.009-13.9c11.205,6.482,25.825,3.2,36.02-4.777s16.138-22.087,12.541-34.523c6.6-4.177,12.937-8.584,17.473-14.937s6.821-14.686,8.629-22.282c1.47-6.179-1.045-12.322-2.665-18.464s-5.431-11.969-11.1-14.833c3.705-6.064,10.677-12.509,12.865-19.274,2.212-6.838,1.946-14.481,1.464-21.648-.475-7.06-3.888-13.574-7.8-19.468-3.988-6.009-9.371-9.451-16.224-11.7-7.818-2.569-15.468-4.252-23.463-2.3a17.69,17.69,0,0,0-8.88-13.7c-4.89-2.681-11.365-.644-16.932-.97-11.1-.65-21.913.043-32.615,3.06-1.271.358-2.733-2.56-4.051-2.639-1.851-.111-4.438,2.588-6.069,1.706C58.412.744,51.331-.253,43.445.051s-16.691-.977-23.326,3.3c-6.207,4-9.841,11.277-13.525,17.677C2.927,27.4,1.677,34.448.973,41.763.264,49.111-.9,56.5,1.167,63.586c2.057,7.059,7.508,13.763,11.748,19.771-5.158,10.9-10.125,22.607-8.741,34.585s9.2,23.64,21.1,25.588c-3.171,8.905-6.5,18.415-5.961,27.852s5.227,19.59,14.21,22.533c-.21,5.452,2.644,11.4,7.375,14.115S52.318,209.8,56.919,206.87Z" transform="translate(0 0)" fill="#ec898e"/>
        </g>
        <g id="그룹_98-5" data-name="그룹 98" transform="translate(58.74 180.214)">
          <g id="그룹_97-5" data-name="그룹 97" transform="translate(0 0)">
            <g id="그룹_93-5" data-name="그룹 93" transform="translate(0 1.743)">
              <path id="패스_51-5" data-name="패스 51" d="M8.6,9.189A5.577,5.577,0,0,0,9.763,7.979a5.454,5.454,0,0,0,.458-1.608,5.212,5.212,0,0,0,.1-1.624,5.14,5.14,0,0,0-.367-1.581,5.259,5.259,0,0,0-.777-1.447A5.2,5.2,0,0,0,7.782.864,5.164,5.164,0,0,0,6.374.075,5.2,5.2,0,0,0,4.754.054,5.4,5.4,0,0,0,3.109.212c-.492.2-.8.745-1.226,1.11A5.117,5.117,0,0,0,.743,2.447,5.155,5.155,0,0,0,.095,3.935,5.186,5.186,0,0,0,.034,5.553a5.044,5.044,0,0,0,.4,1.553,5,5,0,0,0,.9,1.309A5.278,5.278,0,0,0,2.422,9.6a5.154,5.154,0,0,0,1.523.57,5.139,5.139,0,0,0,1.609.092,4.982,4.982,0,0,0,1.526-.458A5.178,5.178,0,0,0,8.6,9.189Z" transform="translate(0 0)" fill="#fff"/>
            </g>
            <g id="그룹_94-5" data-name="그룹 94" transform="translate(15.968 0)">
              <path id="패스_52-5" data-name="패스 52" d="M8.6,9.189A5.617,5.617,0,0,0,9.764,7.98a5.49,5.49,0,0,0,.458-1.61,5.234,5.234,0,0,0,.1-1.624,5.16,5.16,0,0,0-.367-1.581A5.226,5.226,0,0,0,9.174,1.72,5.155,5.155,0,0,0,7.782.864,5.178,5.178,0,0,0,6.374.075a5.164,5.164,0,0,0-1.62-.02A5.338,5.338,0,0,0,3.109.213c-.491.2-.8.745-1.225,1.109A5.14,5.14,0,0,0,.743,2.447,5.154,5.154,0,0,0,.095,3.934,5.163,5.163,0,0,0,.034,5.552a5.057,5.057,0,0,0,.4,1.553,4.987,4.987,0,0,0,.9,1.309A5.217,5.217,0,0,0,2.422,9.6a5.159,5.159,0,0,0,1.523.57,5.143,5.143,0,0,0,1.608.093,5,5,0,0,0,1.526-.459A5.2,5.2,0,0,0,8.6,9.189Z" transform="translate(0 0)" fill="#fff"/>
            </g>
            <g id="그룹_95-5" data-name="그룹 95" transform="translate(17.013 1.939)">
              <path id="패스_53-5" data-name="패스 53" d="M4.5,4.806a2.912,2.912,0,0,0,.61-.632,2.828,2.828,0,0,0,.239-.841,2.724,2.724,0,0,0,.051-.85A2.684,2.684,0,0,0,5.2,1.656,2.737,2.737,0,0,0,4.8.9,2.733,2.733,0,0,0,4.071.452,2.7,2.7,0,0,0,3.334.039a2.7,2.7,0,0,0-.847-.01,2.764,2.764,0,0,0-.86.082C1.369.218,1.209.5.986.691a2.686,2.686,0,0,0-.6.589,2.685,2.685,0,0,0-.339.778A2.7,2.7,0,0,0,.018,2.9a2.622,2.622,0,0,0,.206.813,2.625,2.625,0,0,0,.47.684,2.765,2.765,0,0,0,.572.621,2.709,2.709,0,0,0,.8.3A2.71,2.71,0,0,0,2.9,5.37a2.618,2.618,0,0,0,.8-.24A2.7,2.7,0,0,0,4.5,4.806Z" transform="translate(0 0)" fill="#161615"/>
            </g>
            <g id="그룹_96-5" data-name="그룹 96" transform="translate(1.044 3.681)">
              <path id="패스_54-5" data-name="패스 54" d="M4.5,4.806a2.921,2.921,0,0,0,.61-.632,2.865,2.865,0,0,0,.24-.842A2.713,2.713,0,0,0,5.4,2.483a2.709,2.709,0,0,0-.192-.827A2.75,2.75,0,0,0,4.8.9,2.678,2.678,0,0,0,4.07.452,2.721,2.721,0,0,0,3.334.039a2.713,2.713,0,0,0-.847-.01,2.775,2.775,0,0,0-.86.082C1.369.218,1.209.5.986.691a2.682,2.682,0,0,0-.6.589,2.722,2.722,0,0,0-.339.778A2.7,2.7,0,0,0,.018,2.9a2.621,2.621,0,0,0,.207.812,2.613,2.613,0,0,0,.47.684,2.736,2.736,0,0,0,.572.623,2.711,2.711,0,0,0,.8.3,2.661,2.661,0,0,0,.841.047,2.6,2.6,0,0,0,.8-.239A2.723,2.723,0,0,0,4.5,4.806Z" transform="translate(0 0)" fill="#161615"/>
            </g>
          </g>
        </g>
      </g>
      <g id="그룹_101-5" data-name="그룹 101" transform="translate(38.255 191.055)" opacity="0.2">
        <g id="그룹_100-5" data-name="그룹 100" transform="translate(0 0)">
          <path id="패스_55-5" data-name="패스 55" d="M16.194,12.281c-2.238,1.373-5.21.747-7.865.083a12.159,12.159,0,0,1-2.568-.852A10.517,10.517,0,0,1,2.94,9.225,11.087,11.087,0,0,1,.253,5.116,4.383,4.383,0,0,1,1.08.666,2.236,2.236,0,0,1,2.642,0a3.335,3.335,0,0,1,2.2,1.288C6.068,2.636,6.968,4.324,8.475,5.33a10.518,10.518,0,0,0,2.279,1.046l4.268,1.56a3.052,3.052,0,0,1,1.571.983,2.768,2.768,0,0,1-.4,3.361" transform="translate(0 0)" fill="#fff"/>
        </g>
      </g>
      <g id="그룹_103-5" data-name="그룹 103" transform="translate(11.321 110.991)" opacity="0.2">
        <g id="그룹_102-5" data-name="그룹 102" transform="translate(0 0)">
          <path id="패스_56-5" data-name="패스 56" d="M18.869,27.323C15.2,27.9,11.374,25.03,8,22.311a21.343,21.343,0,0,1-3.17-2.937,20.247,20.247,0,0,1-2.9-5.227A21.219,21.219,0,0,1,0,6.306C0,3.676,1.044,1.1,3.054.254A2.872,2.872,0,0,1,5.489.289,6.175,6.175,0,0,1,7.97,3.634c1.1,2.794,1.617,5.881,3.26,8.357a19.2,19.2,0,0,0,2.687,3.036l5.208,5.1a5.726,5.726,0,0,1,1.74,2.482,4.138,4.138,0,0,1-2,4.718" transform="translate(0 0)" fill="#fff"/>
        </g>
      </g>
    </g>
    <g id="그룹_332" data-name="그룹 332" transform="matrix(0.017, 1, -1, 0.017, 2079.127, -207.763)">
      <g id="그룹_99-6" data-name="그룹 99" transform="translate(654.581 1356.73)">
        <g id="그룹_92-6" data-name="그룹 92" transform="translate(0)">
          <path id="패스_50-6" data-name="패스 50" d="M683.605,1361.191c3.09-4.07,8.324-4.967,13.38-4.225s9.942,2.3,11.732,7.088c5.714-3.305,13.169-1.632,18.367,2.436s8.229,11.262,6.4,17.6c3.364,2.13,6.6,4.377,8.91,7.617s3.478,7.489,4.4,11.362c.749,3.151-.533,6.283-1.359,9.415a11.7,11.7,0,0,1-5.661,7.564c1.889,3.092,5.444,6.378,6.56,9.828,1.128,3.487.992,7.384.746,11.039-.242,3.6-1.982,6.921-3.977,9.927a14.856,14.856,0,0,1-8.273,5.968c-3.986,1.31-7.888,2.168-11.964,1.174a9.021,9.021,0,0,1-4.528,6.986c-2.493,1.367-5.8.329-8.634.494a49.823,49.823,0,0,1-16.631-1.56c-.648-.183-1.394,1.305-2.066,1.346-.944.057-2.263-1.32-3.095-.87a20.792,20.792,0,0,1-11.174,2.269c-4.021-.156-8.511.5-11.895-1.685-3.165-2.042-5.018-5.75-6.9-9.014-1.869-3.246-2.506-6.841-2.866-10.571-.361-3.747-.954-7.514.1-11.128s3.829-7.018,5.99-10.082c-2.63-5.557-5.163-11.528-4.457-17.636s4.689-12.054,10.757-13.047c-1.617-4.541-3.315-9.39-3.04-14.2s2.665-9.989,7.246-11.49a8.174,8.174,0,0,1,3.761-7.2C677.846,1359.215,681.259,1359.7,683.605,1361.191Z" transform="translate(-654.581 -1356.73)" fill="#ec898e"/>
        </g>
        <g id="그룹_98-6" data-name="그룹 98" transform="translate(29.953 11.919)">
          <g id="그룹_97-6" data-name="그룹 97">
            <g id="그룹_93-6" data-name="그룹 93">
              <path id="패스_51-6" data-name="패스 51" d="M734.312,1387.273a2.846,2.846,0,0,1,.594.616,2.782,2.782,0,0,1,.234.82,2.657,2.657,0,0,1,.05.828,2.612,2.612,0,0,1-.187.806,2.677,2.677,0,0,1-.4.738,2.434,2.434,0,0,1-2.254.849,2.744,2.744,0,0,1-.839-.081c-.251-.1-.407-.38-.625-.566a2.171,2.171,0,0,1-.912-1.333,2.642,2.642,0,0,1-.031-.825,2.323,2.323,0,0,1,.66-1.459,2.688,2.688,0,0,1,.557-.606,2.751,2.751,0,0,1,1.6-.338,2.533,2.533,0,0,1,.778.233A2.638,2.638,0,0,1,734.312,1387.273Z" transform="translate(-729.928 -1386.712)" fill="#fff"/>
            </g>
            <g id="그룹_94-6" data-name="그룹 94" transform="translate(8.143 0.889)">
              <path id="패스_52-6" data-name="패스 52" d="M754.795,1389.508a2.862,2.862,0,0,1,.594.616,2.8,2.8,0,0,1,.234.821,2.673,2.673,0,0,1,.05.828,2.631,2.631,0,0,1-.187.806,2.665,2.665,0,0,1-.4.738,2.431,2.431,0,0,1-2.254.849,2.723,2.723,0,0,1-.839-.081c-.25-.1-.407-.38-.625-.565a2.206,2.206,0,0,1-.943-2.157,2.582,2.582,0,0,1,.2-.792,2.541,2.541,0,0,1,.459-.667,2.666,2.666,0,0,1,.557-.606,2.752,2.752,0,0,1,1.6-.338,2.539,2.539,0,0,1,.778.234A2.664,2.664,0,0,1,754.795,1389.508Z" transform="translate(-750.41 -1388.948)" fill="#fff"/>
            </g>
            <g id="그룹_95-6" data-name="그룹 95" transform="translate(8.675 2.402)">
              <path id="패스_53-6" data-name="패스 53" d="M754.043,1393.049a1.5,1.5,0,0,1,.311.323,1.447,1.447,0,0,1,.122.429,1.389,1.389,0,0,1,.026.434,1.367,1.367,0,0,1-.1.421.838.838,0,0,1-.578.614.875.875,0,0,1-.808.216,1.416,1.416,0,0,1-.438-.042c-.131-.054-.213-.2-.327-.3a1.134,1.134,0,0,1-.477-.7,1.375,1.375,0,0,1-.016-.432,1.21,1.21,0,0,1,.345-.763,1.4,1.4,0,0,1,.292-.317,1.438,1.438,0,0,1,.835-.177,1.338,1.338,0,0,1,.407.122A1.384,1.384,0,0,1,754.043,1393.049Z" transform="translate(-751.75 -1392.756)" fill="#161615"/>
            </g>
            <g id="그룹_96-6" data-name="그룹 96" transform="translate(0.532 1.514)">
              <path id="패스_54-6" data-name="패스 54" d="M733.56,1390.813a1.491,1.491,0,0,1,.311.323,1.46,1.46,0,0,1,.122.429,1.512,1.512,0,0,1-.072.854,1.4,1.4,0,0,1-.208.386,1.368,1.368,0,0,1-.371.228.872.872,0,0,1-.808.216,1.425,1.425,0,0,1-.438-.042c-.131-.054-.213-.2-.327-.3a1.363,1.363,0,0,1-.3-.3,1.162,1.162,0,0,1-.189-.828,1.211,1.211,0,0,1,.345-.763,1.4,1.4,0,0,1,.292-.317,1.378,1.378,0,0,1,.406-.152,1.36,1.36,0,0,1,.429-.024,1.327,1.327,0,0,1,.407.122A1.385,1.385,0,0,1,733.56,1390.813Z" transform="translate(-731.267 -1390.52)" fill="#161615"/>
            </g>
          </g>
        </g>
      </g>
      <g id="그룹_101-6" data-name="그룹 101" transform="translate(674.088 1362.576)" opacity="0.2">
        <g id="그룹_100-6" data-name="그룹 100" transform="translate(0 0)">
          <path id="패스_55-6" data-name="패스 55" d="M711.909,1371.854c-1.141-.7-2.657-.381-4.011-.042a6.2,6.2,0,0,0-1.31.434,5.363,5.363,0,0,0-1.438,1.166,5.653,5.653,0,0,0-1.37,2.1,2.235,2.235,0,0,0,.422,2.269,1.14,1.14,0,0,0,.8.339,1.7,1.7,0,0,0,1.123-.657,11.442,11.442,0,0,1,1.851-2.061,5.356,5.356,0,0,1,1.162-.533l2.177-.8a1.558,1.558,0,0,0,.8-.5,1.411,1.411,0,0,0-.2-1.714" transform="translate(-703.651 -1371.437)" fill="#fff"/>
        </g>
      </g>
      <g id="그룹_103-6" data-name="그룹 103" transform="translate(660.354 1396.111)" opacity="0.2">
        <g id="그룹_102-6" data-name="그룹 102" transform="translate(0 0)">
          <path id="패스_56-6" data-name="패스 56" d="M678.725,1455.833c-1.872-.292-3.822,1.169-5.541,2.556a10.868,10.868,0,0,0-1.616,1.5,10.324,10.324,0,0,0-1.479,2.666,10.818,10.818,0,0,0-.985,4,3.238,3.238,0,0,0,1.557,3.086,1.463,1.463,0,0,0,1.242-.018,3.149,3.149,0,0,0,1.265-1.706,22.212,22.212,0,0,1,1.662-4.261,9.778,9.778,0,0,1,1.37-1.548l2.655-2.6a2.921,2.921,0,0,0,.887-1.266,2.11,2.11,0,0,0-1.017-2.406" transform="translate(-669.103 -1455.795)" fill="#fff"/>
        </g>
      </g>
    </g>
    <g id="그룹_333" data-name="그룹 333" transform="matrix(0.966, 0.259, -0.259, 0.966, 846.138, 108.971)">
      <g id="그룹_99-7" data-name="그룹 99" transform="translate(0 0)">
        <g id="그룹_92-7" data-name="그룹 92">
          <path id="패스_50-7" data-name="패스 50" d="M737.881,1362.57c-4.044-5.328-10.9-6.5-17.514-5.531s-13.013,3.013-15.357,9.277c-7.479-4.326-17.237-2.136-24.041,3.189s-10.771,14.742-8.371,23.042c-4.4,2.788-8.635,5.729-11.662,9.97s-4.553,9.8-5.759,14.872c-.981,4.124.7,8.224,1.779,12.323s3.625,7.989,7.41,9.9c-2.473,4.048-7.126,8.349-8.587,12.864-1.477,4.564-1.3,9.665-.977,14.448.317,4.712,2.595,9.06,5.206,12.994,2.662,4.01,6.255,6.308,10.829,7.812,5.218,1.714,10.324,2.838,15.66,1.537a11.807,11.807,0,0,0,5.927,9.144c3.264,1.789,7.585.43,11.3.647a65.217,65.217,0,0,0,21.769-2.042c.848-.239,1.824,1.708,2.7,1.761,1.235.074,2.962-1.727,4.051-1.139,4.636,2.508,9.362,3.173,14.626,2.97s11.14.652,15.569-2.206c4.142-2.673,6.568-7.527,9.027-11.8,2.447-4.249,3.281-8.954,3.751-13.836.473-4.9,1.249-9.835-.13-14.565-1.373-4.711-5.011-9.186-7.841-13.2,3.443-7.274,6.758-15.089,5.834-23.083s-6.138-15.778-14.08-17.078c2.116-5.944,4.339-12.291,3.979-18.589s-3.489-13.075-9.485-15.039a10.7,10.7,0,0,0-4.922-9.421C745.42,1359.983,740.953,1360.613,737.881,1362.57Z" transform="translate(-654.581 -1356.73)" fill="#ec898e"/>
        </g>
        <g id="그룹_98-7" data-name="그룹 98" transform="translate(64.525 15.601)">
          <g id="그룹_97-7" data-name="그룹 97" transform="translate(0)">
            <g id="그룹_93-7" data-name="그룹 93" transform="translate(10.658)">
              <path id="패스_51-7" data-name="패스 51" d="M731.091,1387.447a3.721,3.721,0,0,0-.778.807,3.645,3.645,0,0,0-.306,1.073,3.478,3.478,0,0,0-.065,1.084,3.426,3.426,0,0,0,.245,1.055,3.511,3.511,0,0,0,.519.966,3.186,3.186,0,0,0,2.951,1.111,3.579,3.579,0,0,0,1.1-.105c.328-.136.533-.5.818-.74a2.842,2.842,0,0,0,1.194-1.744,3.464,3.464,0,0,0,.041-1.08,3.042,3.042,0,0,0-.864-1.91,3.521,3.521,0,0,0-.73-.793,3.6,3.6,0,0,0-2.09-.442,3.33,3.33,0,0,0-1.018.305A3.464,3.464,0,0,0,731.091,1387.447Z" transform="translate(-729.928 -1386.713)" fill="#fff"/>
            </g>
            <g id="그룹_94-7" data-name="그룹 94" transform="translate(0 1.163)">
              <path id="패스_52-7" data-name="패스 52" d="M751.574,1389.682a3.754,3.754,0,0,0-.778.807,3.664,3.664,0,0,0-.306,1.074,3.491,3.491,0,0,0-.065,1.084,3.44,3.44,0,0,0,.245,1.055,3.488,3.488,0,0,0,.519.965,3.18,3.18,0,0,0,2.95,1.111,3.559,3.559,0,0,0,1.1-.105c.328-.136.532-.5.818-.74a2.888,2.888,0,0,0,1.235-2.824,3.379,3.379,0,0,0-.264-1.037,3.332,3.332,0,0,0-.6-.873,3.491,3.491,0,0,0-.729-.793,3.609,3.609,0,0,0-2.09-.442,3.328,3.328,0,0,0-1.018.306A3.475,3.475,0,0,0,751.574,1389.682Z" transform="translate(-750.41 -1388.948)" fill="#fff"/>
            </g>
            <g id="그룹_95-7" data-name="그룹 95" transform="translate(2.595 3.145)">
              <path id="패스_53-7" data-name="패스 53" d="M752.358,1393.14a1.95,1.95,0,0,0-.407.422,1.89,1.89,0,0,0-.16.562,1.817,1.817,0,0,0-.034.567,1.791,1.791,0,0,0,.128.552,1.1,1.1,0,0,0,.757.8,1.145,1.145,0,0,0,1.057.282,1.865,1.865,0,0,0,.574-.055c.172-.071.279-.26.428-.387a1.508,1.508,0,0,0,.646-1.477,1.588,1.588,0,0,0-.452-1,1.841,1.841,0,0,0-.381-.415,1.886,1.886,0,0,0-1.093-.232,1.748,1.748,0,0,0-.533.16A1.809,1.809,0,0,0,752.358,1393.14Z" transform="translate(-751.75 -1392.756)" fill="#161615"/>
            </g>
            <g id="그룹_96-7" data-name="그룹 96" transform="translate(13.253 1.981)">
              <path id="패스_54-7" data-name="패스 54" d="M731.875,1390.9a1.949,1.949,0,0,0-.407.422,1.916,1.916,0,0,0-.16.562,1.978,1.978,0,0,0,.094,1.119,1.836,1.836,0,0,0,.272.5,1.782,1.782,0,0,0,.486.3,1.141,1.141,0,0,0,1.057.283,1.866,1.866,0,0,0,.574-.055c.172-.071.279-.26.428-.387a1.791,1.791,0,0,0,.4-.393,1.521,1.521,0,0,0,.247-1.084,1.587,1.587,0,0,0-.452-1,1.837,1.837,0,0,0-.382-.416,1.807,1.807,0,0,0-.531-.2,1.776,1.776,0,0,0-.562-.031,1.735,1.735,0,0,0-.533.159A1.82,1.82,0,0,0,731.875,1390.9Z" transform="translate(-731.267 -1390.52)" fill="#161615"/>
            </g>
          </g>
        </g>
      </g>
      <g id="그룹_101-7" data-name="그룹 101" transform="translate(84.413 7.653)" opacity="0.2">
        <g id="그룹_100-7" data-name="그룹 100" transform="translate(0 0)">
          <path id="패스_55-7" data-name="패스 55" d="M704.187,1371.983c1.493-.916,3.477-.5,5.25-.055a8.128,8.128,0,0,1,1.714.569,7.024,7.024,0,0,1,1.882,1.526,7.4,7.4,0,0,1,1.794,2.743,2.925,2.925,0,0,1-.552,2.97,1.492,1.492,0,0,1-1.042.444,2.226,2.226,0,0,1-1.471-.86,14.978,14.978,0,0,0-2.423-2.7,7.029,7.029,0,0,0-1.521-.7l-2.849-1.042a2.038,2.038,0,0,1-1.049-.656,1.847,1.847,0,0,1,.266-2.243" transform="translate(-703.651 -1371.437)" fill="#fff"/>
        </g>
      </g>
      <g id="그룹_103-7" data-name="그룹 103" transform="translate(99.713 51.547)" opacity="0.2">
        <g id="그룹_102-7" data-name="그룹 102" transform="translate(0 0)">
          <path id="패스_56-7" data-name="패스 56" d="M670.53,1455.845c2.451-.383,5,1.531,7.253,3.345a14.229,14.229,0,0,1,2.116,1.96,13.515,13.515,0,0,1,1.936,3.489,14.16,14.16,0,0,1,1.29,5.233c0,1.756-.7,3.473-2.038,4.04a1.917,1.917,0,0,1-1.625-.023,4.123,4.123,0,0,1-1.656-2.233c-.737-1.865-1.079-3.926-2.176-5.578a12.834,12.834,0,0,0-1.794-2.027l-3.476-3.4a3.82,3.82,0,0,1-1.161-1.657,2.762,2.762,0,0,1,1.332-3.149" transform="translate(-669.103 -1455.795)" fill="#fff"/>
        </g>
      </g>
    </g>
  </g>
</svg>
