<svg xmlns="http://www.w3.org/2000/svg" width="2000.894" height="612.821" viewBox="0 0 2000.894 612.821">
  <g id="그룹_363" data-name="그룹 363" transform="translate(-21.197 -86.456)">
    <g id="그룹_345" data-name="그룹 345" transform="matrix(0.966, 0.259, -0.259, 0.966, 104.093, 310.558)">
      <g id="그룹_82" data-name="그룹 82" transform="translate(0 0)">
        <path id="패스_44" data-name="패스 44" d="M238.928,315.693c-13.926,7.133-16.9-3.906-31.781-8.6s-13.075-10.252-27.961-14.944-16.6.569-31.489-4.123-14.172-6.893-29.06-11.586-14.3-6.5-29.186-11.195-14.689-5.3-29.577-10S43.9,253.891,29.006,249.2s-20.252,2.079-27.378-11.69,4.665-13.182,9.478-27.959,3.9-15.061,8.718-29.838,4.657-14.828,9.47-29.606,5.555-14.546,10.369-29.323,1-15.979,5.818-30.757,8.526-13.609,13.341-28.388S63.089,46.682,67.9,31.9,62.857,9.438,76.789,2.3s15.358,2.624,30.243,7.317,13.354,9.4,28.24,14.091,15.506,2.794,30.393,7.487,14.812,4.924,29.7,9.617,15.767,1.994,30.654,6.686,14.639,5.462,29.527,10.156,14.469,5.99,29.358,10.683,20.187-3.595,27.313,10.174-1.174,13.729-5.988,28.505-8.068,13.749-12.882,28.525-3.8,15.1-8.616,29.875-4.859,14.765-9.673,29.542-5.06,14.7-9.875,29.479-5.507,14.562-10.321,29.34-7,14.742-8.215,30.21C245.279,301.413,252.86,308.559,238.928,315.693Z" fill="#e64c29"/>
      </g>
      <g id="그룹_88" data-name="그룹 88" transform="translate(195.115 79.576)">
        <g id="그룹_87" data-name="그룹 87" transform="translate(0 0)">
          <g id="그룹_83" data-name="그룹 83" transform="translate(25.544 8.152)">
            <path id="패스_45" data-name="패스 45" d="M1.671,14.043A9.228,9.228,0,0,1,.178,11.69,9.025,9.025,0,0,1-.016,8.924a8.628,8.628,0,0,1,.4-2.67A8.524,8.524,0,0,1,1.531,3.809,8.768,8.768,0,0,1,3.3,1.718,8.734,8.734,0,0,1,5.876.792,8.744,8.744,0,0,1,8.455-.02a8.732,8.732,0,0,1,2.661.507,8.935,8.935,0,0,1,2.637.805c.735.494,1.05,1.475,1.623,2.21a8.384,8.384,0,0,1,1.48,2.208A8.46,8.46,0,0,1,17.4,8.343a8.544,8.544,0,0,1-.458,2.648,8.357,8.357,0,0,1-1.183,2.39,8.4,8.4,0,0,1-1.925,1.827,8.823,8.823,0,0,1-2.2,1.567,8.717,8.717,0,0,1-2.689.418,8.651,8.651,0,0,1-2.666-.386,8.342,8.342,0,0,1-2.339-1.252A8.617,8.617,0,0,1,1.671,14.043Z" fill="#fff"/>
          </g>
          <g id="그룹_84" data-name="그룹 84">
            <path id="패스_46" data-name="패스 46" d="M1.671,14.042A9.238,9.238,0,0,1,.178,11.69,9.016,9.016,0,0,1-.016,8.924a8.631,8.631,0,0,1,.4-2.671A8.566,8.566,0,0,1,1.531,3.807,8.8,8.8,0,0,1,3.3,1.717,8.725,8.725,0,0,1,5.877.791,8.751,8.751,0,0,1,8.455-.02a8.732,8.732,0,0,1,2.661.506,8.954,8.954,0,0,1,2.636.8c.736.494,1.051,1.476,1.624,2.209a8.433,8.433,0,0,1,1.479,2.21,8.456,8.456,0,0,1,.549,2.633,8.517,8.517,0,0,1-.459,2.648,8.389,8.389,0,0,1-1.183,2.39,8.391,8.391,0,0,1-1.925,1.827,8.817,8.817,0,0,1-2.2,1.568,8.794,8.794,0,0,1-2.69.418,8.636,8.636,0,0,1-2.666-.387,8.322,8.322,0,0,1-2.339-1.251A8.678,8.678,0,0,1,1.671,14.042Z" fill="#fff"/>
          </g>
          <g id="그룹_85" data-name="그룹 85" transform="translate(6.645 3.745)">
            <path id="패스_47" data-name="패스 47" d="M.874,7.344A4.8,4.8,0,0,1,.093,6.115a4.712,4.712,0,0,1-.1-1.448A4.51,4.51,0,0,1,.2,3.271,4.45,4.45,0,0,1,.8,1.991,4.607,4.607,0,0,1,1.727.9,4.617,4.617,0,0,1,3.073.414,4.557,4.557,0,0,1,4.422-.01,4.564,4.564,0,0,1,5.813.254a4.665,4.665,0,0,1,1.38.422c.384.258.549.771.849,1.154a4.4,4.4,0,0,1,.774,1.155A4.456,4.456,0,0,1,9.1,4.362a4.5,4.5,0,0,1-.241,1.386A4.382,4.382,0,0,1,8.245,7a4.346,4.346,0,0,1-1.007.955,4.632,4.632,0,0,1-1.15.82,4.589,4.589,0,0,1-1.406.219,4.491,4.491,0,0,1-1.394-.2,4.366,4.366,0,0,1-1.225-.656A4.477,4.477,0,0,1,.874,7.344Z" fill="#161615"/>
          </g>
          <g id="그룹_86" data-name="그룹 86" transform="translate(32.189 11.899)">
            <path id="패스_48" data-name="패스 48" d="M.874,7.344a4.782,4.782,0,0,1-.781-1.23,4.71,4.71,0,0,1-.1-1.446A4.493,4.493,0,0,1,.2,3.271,4.48,4.48,0,0,1,.8,1.991,4.558,4.558,0,0,1,1.727.9,4.6,4.6,0,0,1,3.074.413,4.582,4.582,0,0,1,4.422-.011,4.562,4.562,0,0,1,5.814.253a4.692,4.692,0,0,1,1.38.422c.385.259.548.772.849,1.156a4.42,4.42,0,0,1,.774,1.155A4.446,4.446,0,0,1,9.1,4.363a4.47,4.47,0,0,1-.242,1.384A4.38,4.38,0,0,1,8.244,7a4.368,4.368,0,0,1-1.006.954,4.6,4.6,0,0,1-1.15.82,4.592,4.592,0,0,1-1.407.22,4.55,4.55,0,0,1-1.4-.2,4.359,4.359,0,0,1-1.223-.655A4.468,4.468,0,0,1,.874,7.344Z" fill="#161615"/>
          </g>
        </g>
      </g>
      <g id="그룹_90" data-name="그룹 90" transform="translate(55.016 32.731)" opacity="0.2">
        <g id="그룹_89" data-name="그룹 89" transform="translate(0 0)">
          <path id="패스_49" data-name="패스 49" d="M37.68.422C33.306.169,28.556,4.144,25.292,9.163s-5.335,10.981-7.343,16.813Q11.642,44.293,5.335,62.607C2.245,71.582-.931,81.171-.091,89.852s7.57,15.276,14.262,10.749c5.041-3.408,7.717-11.1,9.76-17.945q8.794-29.442,16.294-59.167c1.147-4.549,2.286-9.214,2.213-13.655S40.84,1.156,37.8-.1" fill="#fff"/>
        </g>
      </g>
    </g>
    <g id="그룹_350" data-name="그룹 350" transform="translate(1278.075 262.806)">
      <g id="그룹_82-2" data-name="그룹 82" transform="translate(0)">
        <path id="패스_44-2" data-name="패스 44" d="M998.534,1604.137c18.466,9.41,22.446-5.237,42.227-11.511s17.4-13.638,37.177-19.911,22.042.7,41.824-5.576,18.84-9.188,38.625-15.461,19.008-8.668,38.79-14.944,19.521-7.083,39.306-13.358,21.219-1.856,41.007-8.132,26.882,2.687,36.392-15.595-6.148-17.462-12.487-37.037-5.132-19.956-11.471-39.532-6.131-19.644-12.47-39.221-7.324-19.267-13.665-38.843-1.278-21.183-7.617-40.761-11.273-18.014-17.614-37.593-5.615-19.812-11.956-39.392,6.779-29.8-11.694-39.211-20.4,3.532-40.18,9.805-17.763,12.508-37.544,18.781-20.6,3.758-40.381,10.032-19.684,6.58-39.468,12.853-20.942,2.7-40.724,8.97-19.455,7.293-39.24,13.568-19.232,7.991-39.018,14.265-26.791-4.7-36.3,13.584,1.511,18.2,7.851,37.774,10.665,18.2,17,37.777,5,20,11.335,39.581,6.4,19.56,12.741,39.136,6.668,19.474,13.008,39.052,7.261,19.288,13.6,38.866,9.241,19.522,10.8,40.027C990.151,1585.225,980.061,1594.725,998.534,1604.137Z" transform="translate(-898.338 -1184.739)" fill="#e64c29"/>
      </g>
      <g id="그룹_88-2" data-name="그룹 88" transform="translate(102.105 106.181)">
        <g id="그룹_87-2" data-name="그룹 87" transform="translate(0 0)">
          <g id="그룹_83-2" data-name="그룹 83" transform="translate(0 10.897)">
            <path id="패스_45-2" data-name="패스 45" d="M1088.548,1271.672a12.31,12.31,0,0,0,1.99-3.124,11.978,11.978,0,0,0,.268-3.668,11.4,11.4,0,0,0-.522-3.539,11.232,11.232,0,0,0-1.516-3.238,11.542,11.542,0,0,0-2.345-2.766c-.986-.756-2.3-.823-3.414-1.219a7.362,7.362,0,0,0-6.956-.387,11.933,11.933,0,0,0-3.5,1.077c-.978.658-1.4,1.96-2.163,2.936a9.433,9.433,0,0,0-2.111,9.934,10,10,0,0,0,4.112,5.58,10.139,10.139,0,0,0,10.025,2.094,11.152,11.152,0,0,0,3.11-1.668C1086.5,1273.027,1087.784,1272.648,1088.548,1271.672Z" transform="translate(-1067.675 -1253.047)" fill="#fff"/>
          </g>
          <g id="그룹_84-2" data-name="그룹 84" transform="translate(33.944)">
            <path id="패스_46-2" data-name="패스 46" d="M1068.95,1265.313a12.326,12.326,0,0,0,1.99-3.124,11.953,11.953,0,0,0,.268-3.667,12.318,12.318,0,0,0-2.036-6.779,11.58,11.58,0,0,0-2.345-2.765c-.986-.756-2.3-.823-3.414-1.219a7.367,7.367,0,0,0-6.956-.386,11.959,11.959,0,0,0-3.5,1.076c-.979.658-1.4,1.961-2.164,2.934a9.436,9.436,0,0,0-2.11,9.937,9.993,9.993,0,0,0,4.112,5.58,10.13,10.13,0,0,0,10.025,2.094,11.133,11.133,0,0,0,3.11-1.667C1066.9,1266.666,1068.186,1266.29,1068.95,1265.313Z" transform="translate(-1048.076 -1246.69)" fill="#fff"/>
          </g>
          <g id="그룹_85-2" data-name="그룹 85" transform="translate(36.146 4.989)">
            <path id="패스_47-2" data-name="패스 47" d="M1064.1,1259.341a6.407,6.407,0,0,0,1.042-1.633,6.243,6.243,0,0,0,.14-1.92,5.965,5.965,0,0,0-.271-1.851,5.863,5.863,0,0,0-.794-1.694,5.5,5.5,0,0,0-6.649-2.286,6.229,6.229,0,0,0-1.834.564c-.511.343-.731,1.024-1.131,1.533a4.871,4.871,0,0,0-1.419,3.361,5.943,5.943,0,0,0,.315,1.837,5.221,5.221,0,0,0,2.149,2.918,4.065,4.065,0,0,0,3.391,1.368,5.977,5.977,0,0,0,1.852-.272,5.832,5.832,0,0,0,1.629-.874A5.985,5.985,0,0,0,1064.1,1259.341Z" transform="translate(-1053.177 -1249.6)" fill="#161615"/>
          </g>
          <g id="그룹_86-2" data-name="그룹 86" transform="translate(2.2 15.888)">
            <path id="패스_48-2" data-name="패스 48" d="M1083.7,1265.7a6.381,6.381,0,0,0,1.041-1.634,6.23,6.23,0,0,0,.14-1.917,6.429,6.429,0,0,0-1.065-3.547,6,6,0,0,0-1.226-1.447,5.6,5.6,0,0,0-5.424-.84,6.251,6.251,0,0,0-1.833.564c-.511.344-.731,1.025-1.131,1.536a4.918,4.918,0,0,0-1.1,5.2,5.222,5.222,0,0,0,2.149,2.918,5.291,5.291,0,0,0,5.245,1.1,5.829,5.829,0,0,0,1.627-.873A5.983,5.983,0,0,0,1083.7,1265.7Z" transform="translate(-1072.776 -1255.959)" fill="#161615"/>
          </g>
        </g>
      </g>
      <g id="그룹_90-2" data-name="그룹 90" transform="translate(288.983 43.588)" opacity="0.2">
        <g id="그룹_89-2" data-name="그룹 89" transform="translate(0 0)">
          <path id="패스_49-2" data-name="패스 49" d="M946.935,1210.859c5.809-.35,12.1,4.9,16.418,11.547s7.045,14.541,9.691,22.267q8.31,24.263,16.621,48.524c4.072,11.89,8.255,24.592,7.11,36.106s-10.1,20.28-18.974,14.3c-6.681-4.5-10.207-14.693-12.9-23.759q-11.573-39.007-21.427-78.393c-1.507-6.027-3-12.209-2.891-18.1s2.151-11.512,6.186-13.185" transform="translate(-940.58 -1210.17)" fill="#fff"/>
        </g>
      </g>
    </g>
    <g id="그룹_346" data-name="그룹 346" transform="translate(326.099 127.28)">
      <g id="그룹_82-3" data-name="그룹 82">
        <path id="패스_44-3" data-name="패스 44" d="M931.585,1323.9c6.127,3.122,7.448-1.738,14.011-3.82s5.772-4.525,12.336-6.606,7.314.231,13.878-1.85,6.251-3.049,12.816-5.13,6.307-2.876,12.871-4.959,6.477-2.35,13.042-4.432,7.041-.616,13.606-2.7,8.92.892,12.075-5.174-2.04-5.794-4.143-12.29-1.7-6.622-3.806-13.117-2.034-6.518-4.138-13.014-2.43-6.393-4.534-12.889-.424-7.029-2.528-13.525-3.741-5.978-5.845-12.474-1.863-6.574-3.967-13.071,2.249-9.889-3.88-13.011-6.769,1.172-13.332,3.253-5.894,4.15-12.458,6.232-6.835,1.247-13.4,3.329-6.531,2.183-13.1,4.265-6.949.9-13.513,2.976-6.455,2.42-13.02,4.5-6.381,2.652-12.947,4.734-8.889-1.559-12.045,4.507.5,6.038,2.605,12.534,3.539,6.039,5.642,12.535,1.658,6.637,3.761,13.133,2.124,6.49,4.228,12.986,2.212,6.462,4.316,12.958,2.409,6.4,4.513,12.9,3.066,6.478,3.584,13.281C928.8,1317.625,925.455,1320.777,931.585,1323.9Z" transform="translate(-898.338 -1184.739)" fill="#e64c29"/>
      </g>
      <g id="그룹_88-3" data-name="그룹 88" transform="translate(33.88 35.232)">
        <g id="그룹_87-3" data-name="그룹 87" transform="translate(0 0)">
          <g id="그룹_83-3" data-name="그룹 83" transform="translate(0 3.616)">
            <path id="패스_45-3" data-name="패스 45" d="M1074.6,1259.228a4.082,4.082,0,0,0,.661-1.037,3.968,3.968,0,0,0,.089-1.217,3.776,3.776,0,0,0-.173-1.174,3.723,3.723,0,0,0-.5-1.074,5.829,5.829,0,0,0-3.046-1.677,3.866,3.866,0,0,0-1.173.226,3.957,3.957,0,0,0-1.163.357c-.325.218-.464.65-.718.974a3.13,3.13,0,0,0-.7,3.3,3.317,3.317,0,0,0,1.364,1.852,3.364,3.364,0,0,0,3.326.695,3.707,3.707,0,0,0,1.032-.553A3.827,3.827,0,0,0,1074.6,1259.228Z" transform="translate(-1067.675 -1253.047)" fill="#fff"/>
          </g>
          <g id="그룹_84-3" data-name="그룹 84" transform="translate(11.263)">
            <path id="패스_46-3" data-name="패스 46" d="M1055,1252.869a4.1,4.1,0,0,0,.661-1.036,3.968,3.968,0,0,0,.089-1.217,4.087,4.087,0,0,0-.676-2.249,3.491,3.491,0,0,0-4.219-1.45,3.966,3.966,0,0,0-1.162.357c-.325.219-.464.651-.718.974a3.13,3.13,0,0,0-.7,3.3,3.315,3.315,0,0,0,1.364,1.852,3.361,3.361,0,0,0,3.326.695,3.7,3.7,0,0,0,1.032-.553A3.85,3.85,0,0,0,1055,1252.869Z" transform="translate(-1048.076 -1246.69)" fill="#fff"/>
          </g>
          <g id="그룹_85-3" data-name="그룹 85" transform="translate(11.994 1.655)">
            <path id="패스_47-3" data-name="패스 47" d="M1056.8,1252.833a2.13,2.13,0,0,0,.346-.542,2.066,2.066,0,0,0,.046-.637,1.976,1.976,0,0,0-.09-.614,1.942,1.942,0,0,0-.263-.562,2.01,2.01,0,0,0-.407-.48,2.031,2.031,0,0,0-.593-.211,1.277,1.277,0,0,0-1.207-.067,2.064,2.064,0,0,0-.608.187c-.17.114-.243.34-.375.509a1.949,1.949,0,0,0-.343.509,1.646,1.646,0,0,0-.024,1.216,1.919,1.919,0,0,0,.271.549,1.9,1.9,0,0,0,.442.419,1.349,1.349,0,0,0,1.125.454,1.986,1.986,0,0,0,.614-.09,1.935,1.935,0,0,0,.54-.29A1.982,1.982,0,0,0,1056.8,1252.833Z" transform="translate(-1053.177 -1249.6)" fill="#161615"/>
          </g>
          <g id="그룹_86-3" data-name="그룹 86" transform="translate(0.73 5.272)">
            <path id="패스_48-3" data-name="패스 48" d="M1076.4,1259.191a2.121,2.121,0,0,0,.345-.542,2.056,2.056,0,0,0,.047-.636,2.132,2.132,0,0,0-.353-1.177,1.989,1.989,0,0,0-.407-.48,1.858,1.858,0,0,0-1.8-.279,2.078,2.078,0,0,0-.608.187c-.17.114-.242.34-.375.509a1.632,1.632,0,0,0-.366,1.724,1.732,1.732,0,0,0,.713.968,1.756,1.756,0,0,0,1.74.364,1.934,1.934,0,0,0,.54-.29A1.981,1.981,0,0,0,1076.4,1259.191Z" transform="translate(-1072.776 -1255.959)" fill="#161615"/>
          </g>
        </g>
      </g>
      <g id="그룹_90-3" data-name="그룹 90" transform="translate(95.888 14.463)" opacity="0.2">
        <g id="그룹_89-3" data-name="그룹 89" transform="translate(0 0)">
          <path id="패스_49-3" data-name="패스 49" d="M942.689,1210.4c1.927-.116,4.015,1.627,5.448,3.832a33.356,33.356,0,0,1,3.216,7.389l5.515,16.1c1.351,3.945,2.739,8.16,2.359,11.98s-3.353,6.729-6.3,4.745c-2.217-1.494-3.387-4.875-4.279-7.884q-3.84-12.943-7.11-26.012a23.623,23.623,0,0,1-.959-6.005c.037-1.953.714-3.82,2.053-4.375" transform="translate(-940.58 -1210.17)" fill="#fff"/>
        </g>
      </g>
    </g>
    <g id="그룹_352" data-name="그룹 352" transform="translate(1761.019 410)">
      <g id="그룹_82-4" data-name="그룹 82" transform="translate(0)">
        <path id="패스_44-4" data-name="패스 44" d="M1003.966,1323.9c-6.127,3.122-7.448-1.738-14.011-3.82s-5.772-4.525-12.336-6.606-7.314.231-13.878-1.85-6.251-3.049-12.816-5.13-6.307-2.876-12.871-4.959-6.477-2.35-13.042-4.432-7.041-.616-13.606-2.7-8.92.892-12.076-5.174,2.04-5.794,4.144-12.29,1.7-6.622,3.806-13.117,2.034-6.518,4.138-13.014,2.43-6.393,4.534-12.889.424-7.029,2.528-13.525,3.741-5.978,5.845-12.474,1.863-6.574,3.967-13.071-2.249-9.889,3.88-13.011,6.769,1.172,13.332,3.253,5.894,4.15,12.458,6.232,6.835,1.247,13.4,3.329,6.531,2.183,13.1,4.265,6.949.9,13.513,2.976,6.455,2.42,13.02,4.5,6.381,2.652,12.947,4.734,8.889-1.559,12.045,4.507-.5,6.038-2.605,12.534-3.538,6.039-5.642,12.535-1.658,6.637-3.761,13.133-2.124,6.49-4.228,12.986-2.213,6.462-4.316,12.958-2.409,6.4-4.513,12.9-3.066,6.478-3.584,13.281C1006.747,1317.625,1010.1,1320.777,1003.966,1323.9Z" transform="translate(-898.338 -1184.739)" fill="#e64c29"/>
      </g>
      <g id="그룹_88-4" data-name="그룹 88" transform="translate(86.052 35.232)">
        <g id="그룹_87-4" data-name="그룹 87" transform="translate(0 0)">
          <g id="그룹_83-4" data-name="그룹 83" transform="translate(11.263 3.616)">
            <path id="패스_45-4" data-name="패스 45" d="M1068.427,1259.228a4.086,4.086,0,0,1-.661-1.037,3.968,3.968,0,0,1-.089-1.217,3.779,3.779,0,0,1,.173-1.174,3.73,3.73,0,0,1,.5-1.074,3.489,3.489,0,0,1,4.219-1.451,3.955,3.955,0,0,1,1.163.357c.325.218.464.65.718.974a3.13,3.13,0,0,1,.7,3.3,3.317,3.317,0,0,1-1.364,1.852,3.364,3.364,0,0,1-3.326.695,3.7,3.7,0,0,1-1.032-.553A3.828,3.828,0,0,1,1068.427,1259.228Z" transform="translate(-1067.675 -1253.047)" fill="#fff"/>
          </g>
          <g id="그룹_84-4" data-name="그룹 84">
            <path id="패스_46-4" data-name="패스 46" d="M1048.828,1252.869a4.1,4.1,0,0,1-.661-1.036,3.964,3.964,0,0,1-.089-1.217,4.085,4.085,0,0,1,.676-2.249,3.491,3.491,0,0,1,4.219-1.45,3.966,3.966,0,0,1,1.163.357c.325.219.464.651.718.974a3.13,3.13,0,0,1,.7,3.3,3.316,3.316,0,0,1-1.364,1.852,3.361,3.361,0,0,1-3.326.695,3.7,3.7,0,0,1-1.032-.553A3.851,3.851,0,0,1,1048.828,1252.869Z" transform="translate(-1048.076 -1246.69)" fill="#fff"/>
          </g>
          <g id="그룹_85-4" data-name="그룹 85" transform="translate(2.932 1.655)">
            <path id="패스_47-4" data-name="패스 47" d="M1053.571,1252.833a2.131,2.131,0,0,1-.346-.542,2.07,2.07,0,0,1-.046-.637,1.976,1.976,0,0,1,.09-.614,1.942,1.942,0,0,1,.263-.562,2.007,2.007,0,0,1,.407-.48,2.031,2.031,0,0,1,.593-.211,1.277,1.277,0,0,1,1.207-.067,2.065,2.065,0,0,1,.608.187c.17.114.243.34.375.509a1.614,1.614,0,0,1,.471,1.115,1.974,1.974,0,0,1-.1.609,1.916,1.916,0,0,1-.271.549,1.9,1.9,0,0,1-.442.419,1.349,1.349,0,0,1-1.125.454,1.986,1.986,0,0,1-.614-.09,1.935,1.935,0,0,1-.54-.29A1.982,1.982,0,0,1,1053.571,1252.833Z" transform="translate(-1053.177 -1249.6)" fill="#161615"/>
          </g>
          <g id="그룹_86-4" data-name="그룹 86" transform="translate(14.195 5.272)">
            <path id="패스_48-4" data-name="패스 48" d="M1073.169,1259.191a2.121,2.121,0,0,1-.345-.542,2.063,2.063,0,0,1-.047-.636,2.279,2.279,0,0,1,.76-1.657,1.858,1.858,0,0,1,1.8-.279,2.077,2.077,0,0,1,.608.187c.17.114.243.34.375.509a1.632,1.632,0,0,1,.366,1.724,1.732,1.732,0,0,1-.713.968,1.756,1.756,0,0,1-1.74.364,1.934,1.934,0,0,1-.54-.29A1.981,1.981,0,0,1,1073.169,1259.191Z" transform="translate(-1072.776 -1255.959)" fill="#161615"/>
          </g>
        </g>
      </g>
      <g id="그룹_90-4" data-name="그룹 90" transform="translate(24.276 14.463)" opacity="0.2">
        <g id="그룹_89-4" data-name="그룹 89" transform="translate(0 0)">
          <path id="패스_49-4" data-name="패스 49" d="M957.181,1210.4c-1.927-.116-4.015,1.627-5.448,3.832a33.359,33.359,0,0,0-3.216,7.389L943,1237.72c-1.351,3.945-2.739,8.16-2.359,11.98s3.353,6.729,6.3,4.745c2.217-1.494,3.387-4.875,4.279-7.884q3.84-12.943,7.11-26.012a23.623,23.623,0,0,0,.959-6.005c-.037-1.953-.714-3.82-2.053-4.375" transform="translate(-940.58 -1210.17)" fill="#fff"/>
        </g>
      </g>
    </g>
    <g id="그룹_348" data-name="그룹 348" transform="matrix(0.695, -0.719, 0.719, 0.695, 643.521, 568.641)">
      <g id="그룹_82-5" data-name="그룹 82" transform="translate(0 0)">
        <path id="패스_44-5" data-name="패스 44" d="M68.387,90.8c-3.929,2.009-4.795-1.154-9.022-2.53s-3.727-2.961-7.954-4.335-4.7.126-8.929-1.249-4.03-2-8.258-3.377-4.065-1.891-8.292-3.266-4.173-1.549-8.4-2.925S13,72.7,8.774,71.321s-5.732.549-7.782-3.4,1.292-3.759,2.622-7.974,1.072-4.3,2.4-8.513S7.3,47.2,8.633,42.986s1.541-4.147,2.872-8.362.249-4.567,1.579-8.782,2.385-3.873,3.716-8.088,1.176-4.266,2.506-8.482S17.826,2.838,21.757.83s4.356.784,8.583,2.159,3.8,2.717,8.031,4.092S42.77,7.914,47,9.29s4.207,1.441,8.435,2.816,4.471.6,8.7,1.98,4.159,1.594,8.387,2.97,4.112,1.745,8.34,3.12,5.71-.983,7.76,2.97-.3,3.923-1.633,8.138S84.73,35.2,83.4,39.411s-1.043,4.308-2.374,8.523-1.344,4.211-2.674,8.426-1.4,4.192-2.731,8.407-1.527,4.152-2.858,8.367-1.95,4.2-2.259,8.62C70.154,86.734,72.317,88.794,68.387,90.8Z" fill="#e64c29"/>
      </g>
      <g id="그룹_88-5" data-name="그룹 88" transform="translate(55.448 23.188)">
        <g id="그룹_87-5" data-name="그룹 87" transform="translate(0 0)">
          <g id="그룹_83-5" data-name="그룹 83" transform="translate(7.254 2.388)">
            <path id="패스_45-5" data-name="패스 45" d="M.5,4.019a2.693,2.693,0,0,1-.428-.676,2.611,2.611,0,0,1-.061-.791,2.472,2.472,0,0,1,.107-.763,2.407,2.407,0,0,1,.32-.7A2.441,2.441,0,0,1,.939.5,2.422,2.422,0,0,1,1.666.24,2.425,2.425,0,0,1,2.395.013,2.481,2.481,0,0,1,3.15.164,2.553,2.553,0,0,1,3.9.4c.209.143.3.424.465.636a2.456,2.456,0,0,1,.424.634,2.469,2.469,0,0,1,.161.754,2.445,2.445,0,0,1-.124.756,2.359,2.359,0,0,1-.33.681,2.34,2.34,0,0,1-.541.518,2.44,2.44,0,0,1-.62.443,2.422,2.422,0,0,1-.761.114,2.441,2.441,0,0,1-.756-.116,2.406,2.406,0,0,1-.665-.363A2.5,2.5,0,0,1,.5,4.019Z" fill="#fff"/>
          </g>
          <g id="그룹_84-5" data-name="그룹 84">
            <path id="패스_46-5" data-name="패스 46" d="M.5,4.019a2.706,2.706,0,0,1-.428-.676,2.619,2.619,0,0,1-.061-.791,2.469,2.469,0,0,1,.107-.763,2.418,2.418,0,0,1,.32-.7A2.451,2.451,0,0,1,.94.5,2.42,2.42,0,0,1,1.667.239,2.435,2.435,0,0,1,2.4.013,2.474,2.474,0,0,1,3.15.164,2.555,2.555,0,0,1,3.9.4c.21.143.3.425.465.635a2.466,2.466,0,0,1,.424.635,2.461,2.461,0,0,1,.162.754,2.436,2.436,0,0,1-.124.756,2.359,2.359,0,0,1-.33.681,2.329,2.329,0,0,1-.541.518,2.438,2.438,0,0,1-.619.443,2.45,2.45,0,0,1-.761.114,2.434,2.434,0,0,1-.756-.117,2.4,2.4,0,0,1-.665-.363A2.515,2.515,0,0,1,.5,4.019Z" fill="#fff"/>
          </g>
          <g id="그룹_85-5" data-name="그룹 85" transform="translate(1.891 1.086)">
            <path id="패스_47-5" data-name="패스 47" d="M.264,2.1A1.412,1.412,0,0,1,.04,1.749a1.36,1.36,0,0,1-.032-.414,1.3,1.3,0,0,1,.056-.4A1.259,1.259,0,0,1,.231.571,1.282,1.282,0,0,1,.491.26,1.287,1.287,0,0,1,.872.125,1.262,1.262,0,0,1,1.253.007a1.3,1.3,0,0,1,.395.079,1.33,1.33,0,0,1,.392.124c.109.074.157.222.243.332A1.285,1.285,0,0,1,2.5.873a1.308,1.308,0,0,1,.085.395,1.287,1.287,0,0,1-.065.4,1.231,1.231,0,0,1-.172.356,1.208,1.208,0,0,1-.283.271,1.284,1.284,0,0,1-.324.232,1.277,1.277,0,0,1-.4.059,1.271,1.271,0,0,1-.4-.061A1.253,1.253,0,0,1,.6,2.331,1.291,1.291,0,0,1,.264,2.1Z" fill="#161615"/>
          </g>
          <g id="그룹_86-5" data-name="그룹 86" transform="translate(9.145 3.474)">
            <path id="패스_48-5" data-name="패스 48" d="M.264,2.1A1.4,1.4,0,0,1,.04,1.748a1.358,1.358,0,0,1-.032-.414,1.283,1.283,0,0,1,.056-.4A1.265,1.265,0,0,1,.231.571,1.271,1.271,0,0,1,.491.261,1.281,1.281,0,0,1,.872.125,1.279,1.279,0,0,1,1.253.007a1.294,1.294,0,0,1,.395.079,1.33,1.33,0,0,1,.392.124c.11.075.157.222.243.333A1.287,1.287,0,0,1,2.5.874a1.3,1.3,0,0,1,.085.394,1.285,1.285,0,0,1-.065.4,1.238,1.238,0,0,1-.172.356,1.212,1.212,0,0,1-.283.271,1.264,1.264,0,0,1-.324.232,1.272,1.272,0,0,1-.4.06,1.289,1.289,0,0,1-.4-.061A1.25,1.25,0,0,1,.6,2.331,1.289,1.289,0,0,1,.264,2.1Z" fill="#161615"/>
          </g>
        </g>
      </g>
      <g id="그룹_90-5" data-name="그룹 90" transform="translate(15.658 9.482)" opacity="0.2">
        <g id="그룹_89-5" data-name="그룹 89" transform="translate(0 0)">
          <path id="패스_49-5" data-name="패스 49" d="M10.674.2C9.435.123,8.1,1.249,7.185,2.677A21.56,21.56,0,0,0,5.143,7.468L1.651,17.914C.8,20.474-.082,23.208.175,25.693S2.354,30.078,4.239,28.8c1.42-.963,2.161-3.157,2.725-5.11q2.425-8.4,4.483-16.882a15.431,15.431,0,0,0,.6-3.9c-.03-1.27-.472-2.485-1.335-2.85" fill="#fff"/>
        </g>
      </g>
    </g>
    <g id="그룹_349" data-name="그룹 349" transform="matrix(0.695, -0.719, 0.719, 0.695, 993.229, 268.21)">
      <g id="그룹_82-6" data-name="그룹 82" transform="translate(0 0)">
        <path id="패스_44-6" data-name="패스 44" d="M107.179,142.311c-6.158,3.148-7.514-1.809-14.139-3.965s-5.841-4.64-12.466-6.795-7.369.2-13.994-1.958-6.316-3.139-12.942-5.293-6.371-2.963-13-5.119-6.54-2.428-13.166-4.583-7.1-.665-13.725-2.82-8.983.861-12.2-5.334,2.025-5.891,4.11-12.5,1.681-6.736,3.766-13.342,2.015-6.629,4.1-13.235,2.415-6.5,4.5-13.1.39-7.157,2.475-13.763,3.738-6.069,5.823-12.676,1.843-6.687,3.928-13.294S27.938,4.448,34.1,1.3,40.926,2.53,47.55,4.685,53.512,8.943,60.137,11.1s6.894,1.306,13.519,3.462,6.593,2.258,13.219,4.413,7.007.949,13.632,3.1,6.518,2.5,13.144,4.654,6.445,2.735,13.071,4.89,8.949-1.541,12.161,4.655-.473,6.148-2.559,12.754-3.533,6.133-5.619,12.739-1.635,6.753-3.72,13.358-2.105,6.6-4.191,13.206-2.2,6.57-4.281,13.176-2.393,6.507-4.479,13.113-3.056,6.583-3.541,13.51C109.949,135.933,113.339,139.162,107.179,142.311Z" fill="#e64c29"/>
      </g>
      <g id="그룹_88-6" data-name="그룹 88" transform="translate(86.901 36.342)">
        <g id="그룹_87-6" data-name="그룹 87" transform="translate(0 0)">
          <g id="그룹_83-6" data-name="그룹 83" transform="translate(11.369 3.743)">
            <path id="패스_45-6" data-name="패스 45" d="M.791,6.3A4.233,4.233,0,0,1,.12,5.24,4.09,4.09,0,0,1,.024,4,3.868,3.868,0,0,1,.192,2.8a3.762,3.762,0,0,1,.5-1.092A3.826,3.826,0,0,1,1.472.782,3.8,3.8,0,0,1,2.612.376,3.811,3.811,0,0,1,3.753.021,3.885,3.885,0,0,1,4.937.257,3.99,3.99,0,0,1,6.11.627c.328.224.472.665.729,1a3.84,3.84,0,0,1,.665.994A3.869,3.869,0,0,1,7.756,3.8a3.823,3.823,0,0,1-.195,1.185,3.683,3.683,0,0,1-.517,1.067,3.662,3.662,0,0,1-.848.812,3.82,3.82,0,0,1-.971.695,3.8,3.8,0,0,1-1.192.178,3.826,3.826,0,0,1-1.185-.182,3.776,3.776,0,0,1-1.043-.569A3.919,3.919,0,0,1,.791,6.3Z" fill="#fff"/>
          </g>
          <g id="그룹_84-6" data-name="그룹 84">
            <path id="패스_46-6" data-name="패스 46" d="M.791,6.3A4.229,4.229,0,0,1,.12,5.239,4.1,4.1,0,0,1,.024,4,3.877,3.877,0,0,1,.192,2.8a3.8,3.8,0,0,1,.5-1.092,3.845,3.845,0,0,1,.779-.93A3.784,3.784,0,0,1,2.612.375,3.822,3.822,0,0,1,3.753.02,3.881,3.881,0,0,1,4.937.257,4,4,0,0,1,6.11.626c.328.224.471.665.729,1a3.861,3.861,0,0,1,.665,1A3.855,3.855,0,0,1,7.756,3.8a3.82,3.82,0,0,1-.194,1.185,3.708,3.708,0,0,1-.517,1.067,3.665,3.665,0,0,1-.848.812,3.836,3.836,0,0,1-.971.695,3.848,3.848,0,0,1-1.193.178,3.825,3.825,0,0,1-1.185-.183,3.752,3.752,0,0,1-1.043-.569A3.929,3.929,0,0,1,.791,6.3Z" fill="#fff"/>
          </g>
          <g id="그룹_85-6" data-name="그룹 85" transform="translate(2.963 1.702)">
            <path id="패스_47-6" data-name="패스 47" d="M.414,3.295a2.2,2.2,0,0,1-.351-.554,2.137,2.137,0,0,1-.05-.649A2.022,2.022,0,0,1,.1,1.467,1.962,1.962,0,0,1,.363.9,2.008,2.008,0,0,1,.77.409,2.009,2.009,0,0,1,1.366.2a1.976,1.976,0,0,1,.6-.186,2.027,2.027,0,0,1,.619.124A2.083,2.083,0,0,1,3.2.328c.171.117.246.348.381.52a2.022,2.022,0,0,1,.348.52,2.036,2.036,0,0,1,.132.618,2.026,2.026,0,0,1-.1.62,1.936,1.936,0,0,1-.27.558,1.889,1.889,0,0,1-.443.425,2.018,2.018,0,0,1-.508.364,2.012,2.012,0,0,1-.624.093,2,2,0,0,1-.62-.1,1.978,1.978,0,0,1-.546-.3A2.033,2.033,0,0,1,.414,3.295Z" fill="#161615"/>
          </g>
          <g id="그룹_86-6" data-name="그룹 86" transform="translate(14.332 5.445)">
            <path id="패스_48-6" data-name="패스 48" d="M.414,3.294A2.193,2.193,0,0,1,.063,2.74a2.128,2.128,0,0,1-.05-.648A2.011,2.011,0,0,1,.1,1.467,1.979,1.979,0,0,1,.362.9,1.983,1.983,0,0,1,.77.408,1.993,1.993,0,0,1,1.366.2a2,2,0,0,1,.6-.185,2.022,2.022,0,0,1,.619.123A2.087,2.087,0,0,1,3.2.328c.172.117.246.348.381.521a2.023,2.023,0,0,1,.348.52,2.033,2.033,0,0,1,.133.618,2.015,2.015,0,0,1-.1.62,1.952,1.952,0,0,1-.27.559,1.9,1.9,0,0,1-.443.424,1.989,1.989,0,0,1-.508.363,1.991,1.991,0,0,1-.624.094,2.006,2.006,0,0,1-.62-.1,1.969,1.969,0,0,1-.546-.3A2.023,2.023,0,0,1,.414,3.294Z" fill="#161615"/>
          </g>
        </g>
      </g>
      <g id="그룹_90-6" data-name="그룹 90" transform="translate(24.539 14.86)" opacity="0.2">
        <g id="그룹_89-6" data-name="그룹 89" transform="translate(0 0)">
          <path id="패스_49-6" data-name="패스 49" d="M16.73.32c-1.943-.128-4.037,1.636-5.469,3.874a33.787,33.787,0,0,0-3.2,7.51L2.588,28.076c-1.34,4.011-2.717,8.3-2.313,12.191s3.414,6.872,6.369,4.867c2.226-1.51,3.387-4.948,4.27-8.008q3.8-13.164,7.026-26.459a24.179,24.179,0,0,0,.935-6.112c-.048-1.99-.74-3.895-2.092-4.467" fill="#fff"/>
        </g>
      </g>
    </g>
    <g id="그룹_351" data-name="그룹 351" transform="matrix(-0.695, -0.719, 0.719, -0.695, 1877.592, 366.865)">
      <g id="그룹_82-7" data-name="그룹 82" transform="translate(0 0)">
        <path id="패스_44-7" data-name="패스 44" d="M149.725.677c-8.662-4.429-10.571,2.545-19.89,5.577s-8.216,6.527-17.536,9.558-10.366-.278-19.686,2.754-8.885,4.415-18.206,7.446-8.962,4.168-18.282,7.2-9.2,3.416-18.521,6.448-9.985.935-19.308,3.967-12.638-1.212-17.156,7.5,2.849,8.288,5.782,17.58,2.365,9.476,5.3,18.769,2.835,9.325,5.768,18.618,3.4,9.143,6.331,18.435S24.866,134.6,27.8,143.9s5.258,8.538,8.192,17.831,2.592,9.407,5.526,18.7-3.263,14.187,5.4,18.615,9.6-1.729,18.924-4.761,8.386-5.991,17.706-9.022,9.7-1.837,19.018-4.87,9.275-3.177,18.6-6.208,9.857-1.334,19.177-4.365,9.169-3.515,18.49-6.547,9.066-3.847,18.388-6.879,12.59,2.168,17.108-6.548-.666-8.649-3.6-17.941-4.971-8.628-7.9-17.92-2.3-9.5-5.233-18.792-2.962-9.284-5.9-18.577-3.088-9.243-6.022-18.535-3.367-9.154-6.3-18.447-4.3-9.26-4.982-19.006C153.622,9.649,158.391,5.107,149.725.677Z" fill="#e64c29"/>
      </g>
      <g id="그룹_88-7" data-name="그룹 88" transform="translate(121.282 133.713)">
        <g id="그룹_87-7" data-name="그룹 87" transform="translate(0 0)">
          <g id="그룹_83-7" data-name="그룹 83" transform="translate(15.967 -0.083)">
            <path id="패스_45-7" data-name="패스 45" d="M1.056,1.994a5.953,5.953,0,0,0-.944,1.49A5.756,5.756,0,0,0-.023,5.229,5.442,5.442,0,0,0,.214,6.91a5.292,5.292,0,0,0,.7,1.536,5.384,5.384,0,0,0,1.1,1.31,5.346,5.346,0,0,0,1.6.571,5.365,5.365,0,0,0,1.606.5,5.466,5.466,0,0,0,1.665-.333,5.611,5.611,0,0,0,1.651-.521c.462-.315.663-.935,1.025-1.4a5.4,5.4,0,0,0,.935-1.4,5.435,5.435,0,0,0,.356-1.663,5.377,5.377,0,0,0-.273-1.667,5.185,5.185,0,0,0-.727-1.5A5.152,5.152,0,0,0,8.661,1.2,5.376,5.376,0,0,0,7.295.223,5.348,5.348,0,0,0,5.617-.027,5.383,5.383,0,0,0,3.951.229a5.311,5.311,0,0,0-1.467.8A5.51,5.51,0,0,0,1.056,1.994Z" fill="#fff"/>
          </g>
          <g id="그룹_84-7" data-name="그룹 84" transform="translate(-0.027 5.182)">
            <path id="패스_46-7" data-name="패스 46" d="M1.056,1.995a5.954,5.954,0,0,0-.944,1.49A5.756,5.756,0,0,0-.023,5.229,5.444,5.444,0,0,0,.213,6.911a5.337,5.337,0,0,0,.7,1.536,5.413,5.413,0,0,0,1.1,1.308,5.329,5.329,0,0,0,1.6.571,5.369,5.369,0,0,0,1.606.5,5.455,5.455,0,0,0,1.665-.332,5.626,5.626,0,0,0,1.651-.52c.462-.316.663-.936,1.025-1.4a5.431,5.431,0,0,0,.935-1.4,5.416,5.416,0,0,0,.356-1.662,5.37,5.37,0,0,0-.273-1.667,5.212,5.212,0,0,0-.727-1.5A5.153,5.153,0,0,0,8.661,1.2,5.393,5.393,0,0,0,7.3.223,5.414,5.414,0,0,0,5.618-.028,5.381,5.381,0,0,0,3.951.23a5.281,5.281,0,0,0-1.467.8A5.527,5.527,0,0,0,1.056,1.995Z" fill="#fff"/>
          </g>
          <g id="그룹_85-7" data-name="그룹 85" transform="translate(4.115 7.965)">
            <path id="패스_47-7" data-name="패스 47" d="M.553,1.043a3.1,3.1,0,0,0-.494.779,3.011,3.011,0,0,0-.07.913,2.844,2.844,0,0,0,.123.879,2.762,2.762,0,0,0,.369.8,2.833,2.833,0,0,0,.573.685,2.829,2.829,0,0,0,.838.3,2.783,2.783,0,0,0,.84.261,2.846,2.846,0,0,0,.87-.174,2.936,2.936,0,0,0,.864-.273c.241-.164.346-.489.536-.732a2.844,2.844,0,0,0,.489-.732,2.868,2.868,0,0,0,.186-.869,2.845,2.845,0,0,0-.144-.873,2.722,2.722,0,0,0-.38-.785,2.66,2.66,0,0,0-.624-.6A2.841,2.841,0,0,0,3.816.116a2.824,2.824,0,0,0-.877-.131A2.8,2.8,0,0,0,2.067.12,2.776,2.776,0,0,0,1.3.539,2.851,2.851,0,0,0,.553,1.043Z" fill="#161615"/>
          </g>
          <g id="그룹_86-7" data-name="그룹 86" transform="translate(20.108 2.7)">
            <path id="패스_48-7" data-name="패스 48" d="M.552,1.044a3.078,3.078,0,0,0-.493.78,2.991,2.991,0,0,0-.071.912,2.832,2.832,0,0,0,.123.88,2.784,2.784,0,0,0,.369.8,2.79,2.79,0,0,0,.573.685,2.81,2.81,0,0,0,.839.3,2.814,2.814,0,0,0,.84.26,2.847,2.847,0,0,0,.87-.173,2.945,2.945,0,0,0,.864-.273c.241-.165.347-.489.536-.733a2.841,2.841,0,0,0,.489-.732,2.859,2.859,0,0,0,.187-.869,2.829,2.829,0,0,0-.144-.871,2.733,2.733,0,0,0-.38-.786,2.667,2.667,0,0,0-.624-.6A2.8,2.8,0,0,0,3.816.117a2.806,2.806,0,0,0-.877-.132A2.826,2.826,0,0,0,2.066.12,2.766,2.766,0,0,0,1.3.54,2.845,2.845,0,0,0,.552,1.044Z" fill="#161615"/>
          </g>
        </g>
      </g>
      <g id="그룹_90-7" data-name="그룹 90" transform="translate(33.808 115.604)" opacity="0.2">
        <g id="그룹_89-7" data-name="그룹 89" transform="translate(0 0)">
          <path id="패스_49-7" data-name="패스 49" d="M23.2,63.914c-2.733.18-5.679-2.3-7.694-5.45A47.527,47.527,0,0,1,11,47.9Q7.154,36.383,3.3,24.868C1.419,19.225-.517,13.2.05,7.718S4.853-1.949,9.01.872C12.141,3,13.774,7.833,15.017,12.138Q20.364,30.656,24.9,49.359a34.018,34.018,0,0,1,1.315,8.6c-.067,2.8-1.04,5.479-2.942,6.284" fill="#fff"/>
        </g>
      </g>
    </g>
    <g id="그룹_347" data-name="그룹 347" transform="translate(630.262 168.053)">
      <g id="그룹_82-8" data-name="그룹 82" transform="translate(0)">
        <path id="패스_44-8" data-name="패스 44" d="M1067.913,1408.149c-9.837,5.013-11.957-2.79-22.494-6.132s-9.266-7.265-19.8-10.606-11.741.372-22.279-2.97-10.036-4.895-20.575-8.236-10.126-4.617-20.663-7.96-10.4-3.773-20.938-7.115-11.3-.989-21.844-4.332-14.32,1.431-19.386-8.307,3.275-9.3,6.652-19.73,2.734-10.631,6.111-21.059,3.266-10.464,6.643-20.893,3.9-10.263,7.28-20.691.681-11.284,4.058-21.713,6-9.6,9.383-20.026,2.991-10.554,6.369-20.984-3.611-15.875,6.229-20.888,10.867,1.881,21.4,5.223,9.463,6.663,20,10,10.972,2,21.51,5.344,10.485,3.5,21.024,6.847,11.155,1.438,21.694,4.778,10.364,3.885,20.9,7.228,10.245,4.257,20.785,7.6,14.271-2.5,19.337,7.236-.805,9.694-4.182,20.122-5.681,9.7-9.058,20.124-2.661,10.656-6.038,21.084-3.409,10.419-6.787,20.848-3.552,10.374-6.929,20.8-3.868,10.275-7.245,20.7-4.923,10.4-5.754,21.322C1072.379,1398.074,1077.754,1403.135,1067.913,1408.149Z" transform="translate(-898.338 -1184.739)" fill="#e64c29"/>
      </g>
      <g id="그룹_88-8" data-name="그룹 88" transform="translate(138.149 56.562)">
        <g id="그룹_87-8" data-name="그룹 87" transform="translate(0 0)">
          <g id="그룹_83-8" data-name="그룹 83" transform="translate(18.082 5.805)">
            <path id="패스_45-8" data-name="패스 45" d="M1068.883,1262.969a6.564,6.564,0,0,1-1.06-1.664,6.371,6.371,0,0,1-.143-1.954,6.066,6.066,0,0,1,.278-1.885,5.982,5.982,0,0,1,.807-1.725,9.358,9.358,0,0,1,4.89-2.692,6.208,6.208,0,0,1,1.883.363,6.353,6.353,0,0,1,1.866.574c.521.35.745,1.044,1.152,1.564a5.025,5.025,0,0,1,1.125,5.292,5.327,5.327,0,0,1-2.19,2.973,5.4,5.4,0,0,1-5.34,1.116,5.945,5.945,0,0,1-1.657-.889A6.15,6.15,0,0,1,1068.883,1262.969Z" transform="translate(-1067.675 -1253.047)" fill="#fff"/>
          </g>
          <g id="그룹_84-8" data-name="그룹 84">
            <path id="패스_46-8" data-name="패스 46" d="M1049.284,1256.61a6.572,6.572,0,0,1-1.06-1.664,6.362,6.362,0,0,1-.142-1.953,6.558,6.558,0,0,1,1.085-3.611,5.605,5.605,0,0,1,6.773-2.328,6.372,6.372,0,0,1,1.866.573c.521.351.746,1.045,1.153,1.563a5.025,5.025,0,0,1,1.124,5.293,5.325,5.325,0,0,1-2.19,2.973,5.4,5.4,0,0,1-5.34,1.115,5.927,5.927,0,0,1-1.657-.888A6.181,6.181,0,0,1,1049.284,1256.61Z" transform="translate(-1048.076 -1246.69)" fill="#fff"/>
          </g>
          <g id="그룹_85-8" data-name="그룹 85" transform="translate(4.707 2.657)">
            <path id="패스_47-8" data-name="패스 47" d="M1053.809,1254.789a3.417,3.417,0,0,1-.555-.87,3.322,3.322,0,0,1-.074-1.023,3.173,3.173,0,0,1,.145-.985,3.124,3.124,0,0,1,.423-.9,2.93,2.93,0,0,1,3.542-1.218,3.319,3.319,0,0,1,.977.3c.272.183.389.546.6.817a3.125,3.125,0,0,1,.55.817,2.64,2.64,0,0,1,.038,1.951,2.783,2.783,0,0,1-1.145,1.555,2.165,2.165,0,0,1-1.806.729,3.188,3.188,0,0,1-.986-.145,3.1,3.1,0,0,1-.868-.466A3.181,3.181,0,0,1,1053.809,1254.789Z" transform="translate(-1053.177 -1249.6)" fill="#161615"/>
          </g>
          <g id="그룹_86-8" data-name="그룹 86" transform="translate(22.789 8.463)">
            <path id="패스_48-8" data-name="패스 48" d="M1073.408,1261.147a3.4,3.4,0,0,1-.554-.87,3.308,3.308,0,0,1-.075-1.021,3.66,3.66,0,0,1,1.22-2.66,2.982,2.982,0,0,1,2.889-.447,3.33,3.33,0,0,1,.977.3c.272.183.389.546.6.818a2.62,2.62,0,0,1,.588,2.768,2.782,2.782,0,0,1-1.145,1.555,2.819,2.819,0,0,1-2.793.584,3.1,3.1,0,0,1-.867-.465A3.183,3.183,0,0,1,1073.408,1261.147Z" transform="translate(-1072.776 -1255.959)" fill="#161615"/>
          </g>
        </g>
      </g>
      <g id="그룹_90-8" data-name="그룹 90" transform="translate(38.973 23.219)" opacity="0.2">
        <g id="그룹_89-8" data-name="그룹 89" transform="translate(0 0)">
          <path id="패스_49-8" data-name="패스 49" d="M967.231,1210.537c-3.094-.187-6.446,2.612-8.746,6.151s-3.753,7.746-5.162,11.862q-4.426,12.925-8.854,25.848c-2.169,6.334-4.4,13.1-3.787,19.233s5.383,10.8,10.107,7.618c3.559-2.4,5.437-7.827,6.87-12.656q6.165-20.778,11.414-41.759a37.936,37.936,0,0,0,1.54-9.641c-.059-3.136-1.146-6.132-3.3-7.023" transform="translate(-940.58 -1210.17)" fill="#fff"/>
        </g>
      </g>
    </g>
  </g>
</svg>
