<svg xmlns="http://www.w3.org/2000/svg" width="1920" height="250" viewBox="0 0 1920 250">
  <g id="그룹_520" data-name="그룹 520" transform="translate(882 -951)">
    <rect id="사각형_242" data-name="사각형 242" width="1920" height="250" transform="translate(-882 951)" fill="none"/>
    <g id="그룹_519" data-name="그룹 519" transform="translate(163.736 -3294.153)">
      <path id="패스_358" data-name="패스 358" d="M0,0H211.452V1.783H0Z" transform="translate(-37.422 4451.054)" fill="#aec9cb"/>
      <g id="그룹_404" data-name="그룹 404" transform="translate(88.932 4417.084)">
        <path id="패스_300" data-name="패스 300" d="M1773.54,1426.6c-9.462,5.756-19.814-.509-19.814-.509s-.8-12.074,8.658-17.83,25.605-3.014,25.605-3.014S1783,1420.84,1773.54,1426.6Z" transform="translate(-1753.443 -1404.591)" fill="#2b6b6f"/>
        <g id="그룹_400" data-name="그룹 400" transform="translate(0 5.214)">
          <rect id="사각형_149" data-name="사각형 149" width="30.432" height="1.091" transform="matrix(0.854, -0.52, 0.52, 0.854, 0, 15.816)" fill="#f7c15f"/>
        </g>
        <g id="그룹_401" data-name="그룹 401" transform="translate(15.637 11.606)">
          <rect id="사각형_150" data-name="사각형 150" width="1.091" height="8.737" transform="matrix(0.016, -1, 1, 0.016, 0, 1.09)" fill="#f7c15f"/>
        </g>
        <g id="그룹_402" data-name="그룹 402" transform="translate(10.613 6.85)">
          <rect id="사각형_151" data-name="사각형 151" width="8.737" height="1.091" transform="translate(0 7.822) rotate(-63.548)" fill="#f7c15f"/>
        </g>
        <g id="그룹_403" data-name="그룹 403" transform="translate(6.96 16.884)">
          <rect id="사각형_152" data-name="사각형 152" width="1.091" height="8.737" transform="translate(0 1.09) rotate(-89.079)" fill="#f7c15f"/>
        </g>
      </g>
      <g id="그룹_407" data-name="그룹 407" transform="translate(27.926 4433.807)">
        <path id="패스_301" data-name="패스 301" d="M1010.634,1624.205v-15.883h-.561a.341.341,0,0,1-.341-.341h0a.341.341,0,0,1,.341-.341H1095.8a8.624,8.624,0,0,1,8.624,8.624h0a8.624,8.624,0,0,1-8.624,8.624h-85.729a.341.341,0,0,1-.341-.341h0a.341.341,0,0,1,.341-.341Z" transform="translate(-1009.732 -1607.64)" fill="#97c11f"/>
        <path id="패스_302" data-name="패스 302" d="M1998.248,1616.264h0a8.624,8.624,0,0,0-8.624-8.624h1.408a8.624,8.624,0,0,1,8.623,8.624h0a8.623,8.623,0,0,1-8.623,8.624h-1.408A8.623,8.623,0,0,0,1998.248,1616.264Z" transform="translate(-1908.922 -1607.64)" fill="#fff"/>
        <g id="그룹_405" data-name="그룹 405" transform="translate(0 7.931)" style="mix-blend-mode: multiply;isolation: isolate">
          <path id="패스_303" data-name="패스 303" d="M1010.073,1712.568h.561v-.7H1095.8a8.624,8.624,0,0,0,8.6-7.931c.018.229.028.46.028.693h0a8.624,8.624,0,0,1-8.624,8.624h-85.729a.341.341,0,0,1-.341-.341h0A.341.341,0,0,1,1010.073,1712.568Z" transform="translate(-1009.732 -1703.933)" fill="#d1d1d1"/>
        </g>
        <g id="그룹_406" data-name="그룹 406" transform="translate(0.902 0.682)">
          <path id="패스_304" data-name="패스 304" d="M1066.66,1631.8h-45.977v-15.883h45.977a7.916,7.916,0,0,1,7.943,7.692q.005.25,0,.5A7.916,7.916,0,0,1,1066.66,1631.8Z" transform="translate(-1020.683 -1615.921)" fill="#fff"/>
          <path id="패스_305" data-name="패스 305" d="M1073.635,1625.3c0-.166,0-.333,0-.5a7.916,7.916,0,0,0-7.943-7.692h-45.009v-1.188h45.977a7.916,7.916,0,0,1,7.943,7.692q.005.25,0,.5a7.783,7.783,0,0,1-2.267,5.325A7.746,7.746,0,0,0,1073.635,1625.3Z" transform="translate(-1020.683 -1615.921)" fill="#d1d1d1" style="mix-blend-mode: multiply;isolation: isolate"/>
        </g>
        <rect id="사각형_153" data-name="사각형 153" width="36.045" height="1.254" transform="translate(45.493 5.085) rotate(180)" fill="#d1d1d1" style="mix-blend-mode: multiply;isolation: isolate"/>
        <rect id="사각형_154" data-name="사각형 154" width="35.297" height="1.254" transform="translate(47.781 14.244) rotate(180)" fill="#d1d1d1" style="mix-blend-mode: multiply;isolation: isolate"/>
        <rect id="사각형_155" data-name="사각형 155" width="29.695" height="1.254" transform="translate(32.063 9.25) rotate(180)" fill="#d1d1d1" style="mix-blend-mode: multiply;isolation: isolate"/>
      </g>
      <g id="그룹_410" data-name="그룹 410" transform="translate(10.745 4424.758)">
        <path id="패스_306" data-name="패스 306" d="M801.595,1506.488v-8.36h-.3a.179.179,0,0,1-.18-.179h0a.179.179,0,0,1,.18-.18h80.017a4.539,4.539,0,0,1,4.539,4.539h0a4.539,4.539,0,0,1-4.539,4.539H801.3a.18.18,0,0,1-.18-.179h0a.18.18,0,0,1,.18-.18Z" transform="translate(-801.12 -1497.769)" fill="#ffb522"/>
        <path id="패스_307" data-name="패스 307" d="M1745.1,1502.308h0a4.539,4.539,0,0,0-4.539-4.539h.741a4.539,4.539,0,0,1,4.539,4.539h0a4.539,4.539,0,0,1-4.539,4.539h-.741A4.539,4.539,0,0,0,1745.1,1502.308Z" transform="translate(-1663.19 -1497.769)" fill="#fff"/>
        <g id="그룹_408" data-name="그룹 408" transform="translate(0 4.174)" style="mix-blend-mode: multiply;isolation: isolate">
          <path id="패스_308" data-name="패스 308" d="M801.3,1553h.3v-.371h79.721a4.539,4.539,0,0,0,4.524-4.174q.014.181.015.365h0a4.539,4.539,0,0,1-4.539,4.539H801.3a.179.179,0,0,1-.18-.179h0A.179.179,0,0,1,801.3,1553Z" transform="translate(-801.12 -1548.454)" fill="#d1d1d1"/>
        </g>
        <g id="그룹_409" data-name="그룹 409" transform="translate(0.475 0.359)">
          <path id="패스_309" data-name="패스 309" d="M843.551,1510.488H806.885v-8.36h36.666a4.167,4.167,0,0,1,4.181,4.048c0,.088,0,.175,0,.263A4.167,4.167,0,0,1,843.551,1510.488Z" transform="translate(-806.885 -1502.128)" fill="#fff"/>
          <path id="패스_310" data-name="패스 310" d="M847.222,1507.065q0-.131,0-.263a4.167,4.167,0,0,0-4.181-4.049H806.885v-.625h36.666a4.167,4.167,0,0,1,4.181,4.048c0,.088,0,.175,0,.263a4.1,4.1,0,0,1-1.193,2.8A4.077,4.077,0,0,0,847.222,1507.065Z" transform="translate(-806.885 -1502.128)" fill="#d1d1d1" style="mix-blend-mode: multiply;isolation: isolate"/>
        </g>
        <rect id="사각형_156" data-name="사각형 156" width="31.438" height="0.66" transform="translate(36.411 2.677) rotate(180)" fill="#e6e6e6" style="mix-blend-mode: multiply;isolation: isolate"/>
        <rect id="사각형_157" data-name="사각형 157" width="31.044" height="0.66" transform="translate(37.615 7.498) rotate(180)" fill="#e6e6e6" style="mix-blend-mode: multiply;isolation: isolate"/>
        <rect id="사각형_158" data-name="사각형 158" width="28.095" height="0.66" transform="translate(29.342 4.869) rotate(180)" fill="#e6e6e6" style="mix-blend-mode: multiply;isolation: isolate"/>
      </g>
      <g id="그룹_415" data-name="그룹 415" transform="translate(33.737 4372.688)">
        <path id="패스_311" data-name="패스 311" d="M1080.649,885.744c1.9,8.674,11.269,11.206,11.269,11.206s7.445-6.222,5.542-14.9-12.435-16.515-12.435-16.515S1078.745,877.07,1080.649,885.744Z" transform="translate(-1080.29 -865.54)" fill="#2b6b6f"/>
        <g id="그룹_411" data-name="그룹 411" transform="translate(5.971 7.482)">
          <rect id="사각형_159" data-name="사각형 159" width="0.874" height="24.401" transform="translate(0 0.187) rotate(-12.377)" fill="#f7c15f"/>
        </g>
        <g id="그룹_412" data-name="그룹 412" transform="translate(3.307 12.033)">
          <rect id="사각형_160" data-name="사각형 160" width="0.874" height="7.006" transform="translate(0 0.614) rotate(-44.612)" fill="#f7c15f"/>
        </g>
        <g id="그룹_413" data-name="그룹 413" transform="translate(9.041 14.756)">
          <rect id="사각형_161" data-name="사각형 161" width="7.006" height="0.874" transform="translate(0 6.589) rotate(-70.143)" fill="#f7c15f"/>
        </g>
        <g id="그룹_414" data-name="그룹 414" transform="translate(5.053 19.987)">
          <rect id="사각형_162" data-name="사각형 162" width="0.874" height="7.006" transform="matrix(0.712, -0.702, 0.702, 0.712, 0, 0.614)" fill="#f7c15f"/>
        </g>
      </g>
      <g id="그룹_420" data-name="그룹 420" transform="translate(7.872 4388.071)">
        <path id="패스_312" data-name="패스 312" d="M781.313,1074.172c9.627,5.475,19.791-1.092,19.791-1.092s.448-12.092-9.179-17.567-25.683-2.259-25.683-2.259S771.686,1068.7,781.313,1074.172Z" transform="translate(-766.241 -1052.315)" fill="#97c11f"/>
        <g id="그룹_416" data-name="그룹 416" transform="translate(8.139 5.246)">
          <rect id="사각형_163" data-name="사각형 163" width="1.091" height="30.432" transform="translate(0 0.948) rotate(-60.373)" fill="#f7c15f"/>
        </g>
        <g id="그룹_417" data-name="그룹 417" transform="translate(10.479 11.331)">
          <rect id="사각형_164" data-name="사각형 164" width="8.737" height="1.091" transform="translate(0 0.397) rotate(-2.607)" fill="#f7c15f"/>
        </g>
        <g id="그룹_418" data-name="그룹 418" transform="translate(19.254 6.543)">
          <rect id="사각형_165" data-name="사각형 165" width="1.091" height="8.737" transform="translate(0 0.514) rotate(-28.138)" fill="#f7c15f"/>
        </g>
        <g id="그룹_419" data-name="그룹 419" transform="translate(19.307 16.351)">
          <rect id="사각형_166" data-name="사각형 166" width="8.737" height="1.091" transform="translate(0 0.397) rotate(-2.607)" fill="#f7c15f"/>
        </g>
      </g>
      <g id="그룹_422" data-name="그룹 422" transform="translate(16.081 4407.485)">
        <path id="패스_313" data-name="패스 313" d="M961.521,1304.6v-15.883h.561a.341.341,0,0,0,.341-.341h0a.341.341,0,0,0-.341-.341H874.538a8.624,8.624,0,0,0-8.624,8.624h0a8.624,8.624,0,0,0,8.624,8.624h87.544a.341.341,0,0,0,.341-.341h0a.341.341,0,0,0-.341-.341Z" transform="translate(-865.915 -1288.039)" fill="#2b6b6f"/>
        <path id="패스_314" data-name="패스 314" d="M915.4,1296.663h0a8.624,8.624,0,0,1,8.624-8.624h-1.408a8.624,8.624,0,0,0-8.623,8.624h0a8.624,8.624,0,0,0,8.623,8.624h1.408A8.624,8.624,0,0,1,915.4,1296.663Z" transform="translate(-910.035 -1288.039)" fill="#fff"/>
        <path id="패스_315" data-name="패스 315" d="M972.564,1296.663h0a8.623,8.623,0,0,1,8.624-8.624h-1.408a8.623,8.623,0,0,0-8.623,8.624h0a8.623,8.623,0,0,0,8.623,8.624h1.408A8.623,8.623,0,0,1,972.564,1296.663Z" transform="translate(-962.489 -1288.039)" fill="#fff"/>
        <g id="그룹_421" data-name="그룹 421" transform="translate(0 7.931)" style="mix-blend-mode: multiply;isolation: isolate">
          <path id="패스_316" data-name="패스 316" d="M962.082,1392.967h-.561v-.7H874.538a8.624,8.624,0,0,1-8.6-7.931c-.018.229-.028.46-.028.693h0a8.624,8.624,0,0,0,8.624,8.624h87.544a.341.341,0,0,0,.341-.341h0A.341.341,0,0,0,962.082,1392.967Z" transform="translate(-865.915 -1384.332)" fill="#d1d1d1"/>
        </g>
        <path id="패스_317" data-name="패스 317" d="M1290.018,1312.2H1343.4V1296.32h-53.387a7.917,7.917,0,0,0-7.943,7.692q-.006.25,0,.5A7.917,7.917,0,0,0,1290.018,1312.2Z" transform="translate(-1247.798 -1295.638)" fill="#fff"/>
        <path id="패스_318" data-name="패스 318" d="M1283.043,1305.7q-.005-.25,0-.5a7.917,7.917,0,0,1,7.943-7.692H1343.4v-1.188h-53.387a7.917,7.917,0,0,0-7.943,7.692q-.006.25,0,.5a7.783,7.783,0,0,0,2.267,5.325A7.747,7.747,0,0,1,1283.043,1305.7Z" transform="translate(-1247.798 -1295.638)" fill="#d1d1d1" style="mix-blend-mode: multiply;isolation: isolate"/>
        <rect id="사각형_167" data-name="사각형 167" width="38.872" height="1.254" transform="translate(49.739 3.205)" fill="#d1d1d1" style="mix-blend-mode: multiply;isolation: isolate"/>
        <rect id="사각형_168" data-name="사각형 168" width="34.934" height="1.254" transform="translate(60.672 12.99)" fill="#d1d1d1" style="mix-blend-mode: multiply;isolation: isolate"/>
        <rect id="사각형_169" data-name="사각형 169" width="23.385" height="1.254" transform="translate(40.148 7.997)" fill="#d1d1d1" style="mix-blend-mode: multiply;isolation: isolate"/>
        <rect id="사각형_170" data-name="사각형 170" width="8.602" height="1.254" transform="translate(66.531 7.997)" fill="#d1d1d1" style="mix-blend-mode: multiply;isolation: isolate"/>
        <path id="패스_319" data-name="패스 319" d="M1520.235,1408.161v-7.8h-5.778v7.8c0,.066,0,.13.007.194h5.764C1520.233,1408.291,1520.235,1408.227,1520.235,1408.161Z" transform="translate(-1461.044 -1391.108)" fill="#d1d1d1" style="mix-blend-mode: multiply;isolation: isolate"/>
        <path id="패스_320" data-name="패스 320" d="M1528.031,1411.05h0a2.889,2.889,0,0,1-2.889-2.889v-7.8h5.778v7.8A2.889,2.889,0,0,1,1528.031,1411.05Z" transform="translate(-1470.849 -1391.108)" fill="#97c11f"/>
        <path id="패스_321" data-name="패스 321" d="M932.821,1288.039h3.113a13.208,13.208,0,0,0-3.421,1.067c-.832.587-3.941,3.579-4.029,5.544a13.067,13.067,0,0,0,.3,4.664,8.169,8.169,0,0,0,2.688,4.136,19.508,19.508,0,0,0,4.458,1.863h-4.752s-3.958-.735-3.962-1.415-3.342-2.325-3.342-4.642-.352-4.81-.293-4.986,3.52-4.752,3.52-4.752l3.182-1.405.866-.073Z" transform="translate(-918.83 -1288.039)" fill="#fff"/>
      </g>
      <g id="그룹_425" data-name="그룹 425" transform="translate(-4.984 4440.172)">
        <path id="패스_322" data-name="패스 322" d="M610.133,1690.6l15.2,5.672,43.929,0v-11.34l-43.929,0Z" transform="translate(-610.133 -1684.932)" fill="#ffb522"/>
        <path id="사각형_171" data-name="사각형 171" d="M0,0H10.6a0,0,0,0,1,0,0V0A4.466,4.466,0,0,1,6.134,4.466H4.466A4.466,4.466,0,0,1,0,0V0A0,0,0,0,1,0,0Z" transform="translate(61.354 10.975) rotate(-89.994)" fill="#97c11f"/>
        <path id="패스_323" data-name="패스 323" d="M1328.056,1684.984v11.34h3.581l-.01-11.34Z" transform="translate(-1268.928 -1684.979)" fill="#3d3d3d"/>
        <path id="패스_324" data-name="패스 324" d="M625.331,1696.272l-15.2-5.672,15.2-5.668Z" transform="translate(-610.133 -1684.932)" fill="#ffb522"/>
        <path id="패스_325" data-name="패스 325" d="M625.331,1696.272c.954-.713-2.427-2.19-1.06-3.738s3.415-1.365,2.766-2.828-5.9-1.609-1.7-4.774l-15.2,5.669Z" transform="translate(-610.133 -1684.932)" fill="#fff"/>
        <path id="패스_326" data-name="패스 326" d="M615.839,1727.921l-5.706,2.128,6.4,2.39A11.517,11.517,0,0,0,615.839,1727.921Z" transform="translate(-610.133 -1724.381)" fill="#2b6b6f"/>
        <g id="그룹_423" data-name="그룹 423" transform="translate(18.836 8.194)">
          <path id="패스_327" data-name="패스 327" d="M874.566,1785.046a.486.486,0,0,0,.022-.145.481.481,0,0,0-.481-.48l-34.787.051a.48.48,0,1,0,0,.961l34.788-.05A.481.481,0,0,0,874.566,1785.046Z" transform="translate(-838.84 -1784.421)" fill="#edefe2"/>
        </g>
        <g id="그룹_424" data-name="그룹 424" transform="translate(18.055 2.444)">
          <path id="패스_328" data-name="패스 328" d="M865.08,1715.23a.481.481,0,0,0-.459-.625l-34.787.051a.481.481,0,1,0,0,.961l34.787-.051A.48.48,0,0,0,865.08,1715.23Z" transform="translate(-829.354 -1714.605)" fill="#edefe2"/>
        </g>
      </g>
      <g id="그룹_434" data-name="그룹 434" transform="translate(30.136 4319.459)">
        <g id="그룹_433" data-name="그룹 433" transform="translate(0 0)">
          <path id="패스_329" data-name="패스 329" d="M1342.5,832.007l-4.746.01h0l-4.746.01s1.613,21.041-9.759,25.848l14.558-.03h0l14.558-.03C1340.975,853.055,1342.5,832.007,1342.5,832.007Z" transform="translate(-1299.64 -781.54)" fill="#ffb522"/>
          <path id="패스_330" data-name="패스 330" d="M1501.773,832.007l-2.264,0c-1.159,1.381-2.476,2.981-2.476,2.981s-1.908,16.691,5.6,22.84l9.008-.019C1500.246,853.055,1501.773,832.007,1501.773,832.007Z" transform="translate(-1458.911 -781.54)" fill="#d4d4d4" style="mix-blend-mode: multiply;isolation: isolate"/>
          <path id="패스_331" data-name="패스 331" d="M1221.611,272.682c13.252-.027,24.036-22.325,24.717-50.4a2.987,2.987,0,0,0-2.994-3.053l-44.11.091a2.555,2.555,0,0,0-2.548,2.619C1197.369,250.22,1208.29,272.709,1221.611,272.682Z" transform="translate(-1183.489 -219.229)" fill="#ffb522"/>
          <g id="그룹_428" data-name="그룹 428" transform="translate(0 6.316)">
            <g id="그룹_426" data-name="그룹 426" transform="translate(51.227 0)">
              <path id="패스_332" data-name="패스 332" d="M1658.572,327.4l0-2.13c-.04-19.619,5.874-28.106,6.125-28.458l.621-.868,15.914-.033a2.082,2.082,0,0,1,2.075,1.876h0c.056.567,1.293,14-6.332,22.631-3.908,4.425-9.382,6.756-16.271,6.928Zm8.993-27.3a30.459,30.459,0,0,0-2.166,5.252,63.273,63.273,0,0,0-2.646,17.688,16.658,16.658,0,0,0,11.085-5.365c4.089-4.619,5.134-11.2,5.35-15.408a2.081,2.081,0,0,0-2.083-2.186Z" transform="translate(-1658.567 -295.913)" fill="#ffb522"/>
            </g>
            <g id="그룹_427" data-name="그룹 427" transform="translate(0 0.115)">
              <path id="패스_333" data-name="패스 333" d="M1059.385,328.687c-6.889-.144-12.373-2.452-16.3-6.862-7.66-8.6-6.479-22.037-6.425-22.6h0a2.082,2.082,0,0,1,2.068-1.884l15.914-.033.625.865c.253.351,6.2,8.813,6.242,28.433l0,2.13Zm-16.516-27.2a2.081,2.081,0,0,0-2.075,2.2c.234,4.205,1.305,10.784,5.414,15.386a16.656,16.656,0,0,0,11.106,5.32,63.26,63.26,0,0,0-2.718-17.677,30.47,30.47,0,0,0-2.187-5.242Z" transform="translate(-1036.565 -297.304)" fill="#ffb522"/>
            </g>
          </g>
          <path id="패스_334" data-name="패스 334" d="M1521.171,219.229l-8.69.018s8.024,44.783-13.032,53.435c13.252-.027,24.036-22.325,24.717-50.4A2.986,2.986,0,0,0,1521.171,219.229Z" transform="translate(-1461.327 -219.229)" fill="#d4d4d4" style="mix-blend-mode: multiply;isolation: isolate"/>
          <path id="패스_335" data-name="패스 335" d="M1241.631,254.423h0a3.344,3.344,0,0,0-3.309,3.783c.8,6.061,2.805,18.167,6.788,26.883a.792.792,0,0,0,1.5-.483c-1.853-9.727-1.764-21.045-1.565-26.658A3.4,3.4,0,0,0,1241.631,254.423Z" transform="translate(-1221.678 -251.524)" fill="#fff"/>
          <path id="패스_336" data-name="패스 336" d="M1393.854,998.629a22.075,22.075,0,0,1-3.975,8.426,1.247,1.247,0,0,0,.969,2.036h0a2.6,2.6,0,0,0,2.552-2.124c.384-2.055.943-5.278,1.268-8.188A.415.415,0,0,0,1393.854,998.629Z" transform="translate(-1360.519 -934.152)" fill="#fff"/>
          <rect id="사각형_172" data-name="사각형 172" width="36.031" height="3.454" rx="1.727" transform="translate(20.154 76.342) rotate(-0.118)" fill="#ffb522"/>
        </g>
        <path id="패스_337" data-name="패스 337" d="M1271.133,1195.427l-42.24.087a1.33,1.33,0,0,1-1.333-1.328l-.012-5.63a1.33,1.33,0,0,1,1.328-1.333l42.239-.087a1.33,1.33,0,0,1,1.333,1.328l.012,5.63A1.33,1.33,0,0,1,1271.133,1195.427Z" transform="translate(-1211.82 -1107.422)" fill="#3d3d3d"/>
      </g>
    </g>
    <path id="패스_580" data-name="패스 580" d="M1838.431,842.016l-4.747-.722a1.684,1.684,0,0,0-1.482.513l-3.286,3.5a1.685,1.685,0,0,1-2.891-.879l-.78-4.737a1.685,1.685,0,0,0-.946-1.251l-4.345-2.043a1.685,1.685,0,0,1-.057-3.021l4.264-2.206a1.685,1.685,0,0,0,.9-1.286l.6-4.764a1.685,1.685,0,0,1,2.856-.988l3.416,3.374a1.685,1.685,0,0,0,1.5.456l4.716-.9a1.685,1.685,0,0,1,1.823,2.41l-2.153,4.291a1.685,1.685,0,0,0,.03,1.568l2.314,4.207A1.685,1.685,0,0,1,1838.431,842.016Z" transform="translate(-1173.315 253.622)" fill="#fff"/>
    <path id="패스_581" data-name="패스 581" d="M1838.431,842.016l-4.747-.722a1.684,1.684,0,0,0-1.482.513l-3.286,3.5a1.685,1.685,0,0,1-2.891-.879l-.78-4.737a1.685,1.685,0,0,0-.946-1.251l-4.345-2.043a1.685,1.685,0,0,1-.057-3.021l4.264-2.206a1.685,1.685,0,0,0,.9-1.286l.6-4.764a1.685,1.685,0,0,1,2.856-.988l3.416,3.374a1.685,1.685,0,0,0,1.5.456l4.716-.9a1.685,1.685,0,0,1,1.823,2.41l-2.153,4.291a1.685,1.685,0,0,0,.03,1.568l2.314,4.207A1.685,1.685,0,0,1,1838.431,842.016Z" transform="translate(-1345.988 202.959)" fill="#fff500"/>
    <path id="패스_579" data-name="패스 579" d="M1852.1,854.935l-8.085-1.229a2.869,2.869,0,0,0-2.523.873l-5.6,5.964a2.869,2.869,0,0,1-4.924-1.5l-1.329-8.069a2.87,2.87,0,0,0-1.611-2.13l-7.4-3.479a2.87,2.87,0,0,1-.1-5.146l7.263-3.758a2.869,2.869,0,0,0,1.529-2.19l1.021-8.114a2.87,2.87,0,0,1,4.864-1.683l5.818,5.746a2.87,2.87,0,0,0,2.555.777l8.032-1.535a2.87,2.87,0,0,1,3.1,4.106l-3.668,7.309a2.87,2.87,0,0,0,.051,2.67l3.942,7.165A2.869,2.869,0,0,1,1852.1,854.935Z" transform="translate(-1048.315 187.549)" fill="#fff500"/>
    <path id="패스_590" data-name="패스 590" d="M1833.787,837.628l-3.613-.549a1.282,1.282,0,0,0-1.128.39l-2.5,2.665a1.282,1.282,0,0,1-2.2-.669l-.594-3.606a1.283,1.283,0,0,0-.72-.952l-3.307-1.555a1.282,1.282,0,0,1-.043-2.3l3.246-1.679a1.282,1.282,0,0,0,.683-.979l.457-3.626a1.283,1.283,0,0,1,2.174-.752l2.6,2.568a1.283,1.283,0,0,0,1.142.347l3.589-.686a1.283,1.283,0,0,1,1.387,1.835l-1.639,3.266a1.283,1.283,0,0,0,.022,1.193l1.762,3.2A1.282,1.282,0,0,1,1833.787,837.628Z" transform="translate(-1124.327 -837.826) rotate(51)" fill="#fff500"/>
    <path id="패스_584" data-name="패스 584" d="M2171.333,288.874l-2.176-6.068a3.066,3.066,0,0,0-2.1-1.929l-6.232-1.647a3.066,3.066,0,0,1-1.092-5.389l5.1-3.944a3.072,3.072,0,0,0,1.186-2.6l-.359-6.436a3.065,3.065,0,0,1,4.787-2.7l5.326,3.63a3.067,3.067,0,0,0,2.835.325l6.01-2.33a3.065,3.065,0,0,1,4.05,3.717l-1.806,6.188a3.069,3.069,0,0,0,.568,2.8l4.075,5a3.066,3.066,0,0,1-2.284,5l-6.445.195a3.065,3.065,0,0,0-2.483,1.4L2176.8,289.5A3.066,3.066,0,0,1,2171.333,288.874Z" transform="translate(-2274.102 767.683)" fill="#fff"/>
    <path id="패스_586" data-name="패스 586" d="M298.589,784.275l-1.7-4.742-4.87-1.287L296,775.164l-.281-5.03,4.163,2.837,4.7-1.821-1.411,4.836,3.183,3.9-5.035.152Z" transform="translate(-172.872 353.809)" fill="#fff"/>
    <path id="패스_585" data-name="패스 585" d="M2427.469,588.25l-6.326-1.774a1.526,1.526,0,0,0-1.388.3l-5.047,4.206a1.523,1.523,0,0,1-2.5-1.108l-.268-6.565a1.521,1.521,0,0,0-.71-1.227l-5.56-3.5a1.523,1.523,0,0,1,.282-2.718l6.161-2.283a1.523,1.523,0,0,0,.948-1.055l1.613-6.37a1.523,1.523,0,0,1,2.671-.571l4.076,5.154a1.525,1.525,0,0,0,1.3.575l6.556-.435a1.524,1.524,0,0,1,1.37,2.365L2427,578.705a1.522,1.522,0,0,0-.147,1.41l2.44,6.1A1.524,1.524,0,0,1,2427.469,588.25Z" transform="translate(-2577.25 534.397)" fill="#fff500"/>
    <path id="패스_587" data-name="패스 587" d="M2419.206,579.714l-4-1.123a.966.966,0,0,0-.879.188l-3.194,2.662a.964.964,0,0,1-1.581-.7l-.17-4.155a.962.962,0,0,0-.449-.777l-3.519-2.216a.964.964,0,0,1,.179-1.72l3.9-1.445a.964.964,0,0,0,.6-.668l1.021-4.031a.964.964,0,0,1,1.691-.362l2.58,3.262a.965.965,0,0,0,.82.364l4.149-.276a.965.965,0,0,1,.867,1.5l-2.305,3.461a.962.962,0,0,0-.093.893l1.544,3.861A.964.964,0,0,1,2419.206,579.714Z" transform="translate(-2757.25 511.002)" fill="#fff"/>
    <path id="패스_589" data-name="패스 589" d="M548.675,299.953l-6.839-1.918a1.641,1.641,0,0,0-1.493.319l-5.457,4.547a1.641,1.641,0,0,1-2.689-1.194l-.289-7.1a1.641,1.641,0,0,0-.765-1.321l-6.01-3.785a1.64,1.64,0,0,1,.3-2.926l6.66-2.468a1.642,1.642,0,0,0,1.021-1.136l1.742-6.886a1.641,1.641,0,0,1,2.877-.615l4.405,5.572a1.64,1.64,0,0,0,1.4.619l7.087-.47a1.641,1.641,0,0,1,1.474,2.546l-3.938,5.911A1.64,1.64,0,0,0,548,291.17l2.638,6.595A1.64,1.64,0,0,1,548.675,299.953Z" transform="translate(-1024.13 723.321)" fill="#fff"/>
    <path id="패스_583" data-name="패스 583" d="M981.427,728.033l-1.868-.524a1.029,1.029,0,0,0-.937.2l-1.49,1.242a1.03,1.03,0,0,1-1.687-.749l-.079-1.938a1.029,1.029,0,0,0-.48-.829l-1.642-1.034a1.029,1.029,0,0,1,.191-1.836l1.819-.674a1.029,1.029,0,0,0,.64-.712l.476-1.881a1.029,1.029,0,0,1,1.805-.386l1.2,1.522a1.03,1.03,0,0,0,.876.389l1.936-.129a1.029,1.029,0,0,1,.925,1.6l-1.075,1.615a1.029,1.029,0,0,0-.1.953l.72,1.8A1.029,1.029,0,0,1,981.427,728.033Z" transform="translate(-794.923 282.003)" fill="#fff"/>
    <path id="패스_588" data-name="패스 588" d="M2201.044,1229.65l-1.463-.411a.793.793,0,0,0-.721.154l-1.168.973a.793.793,0,0,1-1.3-.577l-.062-1.518a.791.791,0,0,0-.369-.639l-1.286-.81a.793.793,0,0,1,.147-1.414l1.425-.528a.794.794,0,0,0,.493-.549l.373-1.473a.792.792,0,0,1,1.39-.3l.943,1.192a.792.792,0,0,0,.674.3l1.516-.1a.793.793,0,0,1,.713,1.23l-.843,1.265a.792.792,0,0,0-.076.734l.564,1.411A.793.793,0,0,1,2201.044,1229.65Z" transform="translate(-1650.393 -88.322)" fill="#fff"/>
    <path id="패스_582" data-name="패스 582" d="M529.26,1172.1l.488-5.532a2.061,2.061,0,0,0-.741-1.77l-4.281-3.538a2.061,2.061,0,0,1,.85-3.6l5.413-1.246a2.062,2.062,0,0,0,1.454-1.251l2.042-5.166a2.061,2.061,0,0,1,3.685-.3l2.858,4.763a2.062,2.062,0,0,0,1.639,1l5.543.346a2.062,2.062,0,0,1,1.427,3.411l-3.646,4.19a2.061,2.061,0,0,0-.442,1.867l1.384,5.379a2.061,2.061,0,0,1-2.8,2.41l-5.111-2.173a2.062,2.062,0,0,0-1.912.157l-4.688,2.979A2.061,2.061,0,0,1,529.26,1172.1Z" transform="translate(-167.687 -49.23)" fill="#fff"/>
  </g>
</svg>
