<svg xmlns="http://www.w3.org/2000/svg" width="2002" height="637.624" viewBox="0 0 2002 637.624">
  <g id="그룹_362" data-name="그룹 362" transform="translate(-95 -62.589)">
    <g id="그룹_337" data-name="그룹 337" transform="translate(95 357.692)">
      <g id="그룹_62" data-name="그룹 62">
        <path id="패스_32" data-name="패스 32" d="M926.124,1103.753c-5.613,17.382-11.6,33.277-21.76,47.317a165.159,165.159,0,0,1-36.774,37.337c-14.36,10.455-30.33,16.833-47.21,22.364-16.711,5.477-33.318,16.536-51.279,16.563-17.33.027-34.018-10.582-51.4-16.2s-33.073-12.371-47.113-22.53c-14.551-10.529-27.812-22-38.163-36.222-10.455-14.362-22.885-28.71-28.416-45.589-5.477-16.713,1.765-35.616,1.737-53.575-.027-17.332-1.654-34.29,3.961-51.673s13.881-32.338,24.04-46.378c10.529-14.551,19.123-31.367,33.342-41.717,14.36-10.455,31.728-17.466,48.606-23,16.713-5.477,34.85-5.616,52.811-5.644,17.33-.027,33.054,7.26,50.438,12.875s36.4,6.143,50.435,16.3c14.551,10.529,21.89,27.864,32.241,42.082,10.453,14.36,20,28.232,25.532,45.111a163.294,163.294,0,0,1,8.176,51.461C935.354,1069.975,931.739,1086.368,926.124,1103.753Z" transform="translate(-601.957 -884.813)" fill="#905b9e"/>
      </g>
      <g id="그룹_68" data-name="그룹 68" transform="translate(123.561 41.051)">
        <g id="그룹_67" data-name="그룹 67" transform="translate(0 0)">
          <g id="그룹_63" data-name="그룹 63">
            <path id="패스_33" data-name="패스 33" d="M698.206,914.29a11.555,11.555,0,0,1,1.848,2.926,11.215,11.215,0,0,1,.254,3.439,12.341,12.341,0,0,1-4.053,8.953c-.914.71-2.134.774-3.167,1.147a6.772,6.772,0,0,1-6.452.371,10.961,10.961,0,0,1-3.253-1.006c-.908-.616-1.3-1.835-2.01-2.75a8.75,8.75,0,0,1-2.523-6.021,10.68,10.68,0,0,1,.553-3.29,9.355,9.355,0,0,1,3.807-5.238,10.865,10.865,0,0,1,2.7-1.945,10.626,10.626,0,0,1,3.312-.514,10.51,10.51,0,0,1,3.285.484,10.28,10.28,0,0,1,2.889,1.56C696.305,913.022,697.5,913.376,698.206,914.29Z" transform="translate(-678.847 -910.359)" fill="#fff"/>
          </g>
          <g id="그룹_64" data-name="그룹 64" transform="translate(31.508 10.177)">
            <path id="패스_34" data-name="패스 34" d="M717.813,920.623a11.544,11.544,0,0,1,1.848,2.926,11.242,11.242,0,0,1,.256,3.439,10.782,10.782,0,0,1-.48,3.319,10.646,10.646,0,0,1-1.4,3.039,10.84,10.84,0,0,1-2.172,2.6c-.914.71-2.134.774-3.167,1.147a6.775,6.775,0,0,1-6.452.371,10.953,10.953,0,0,1-3.253-1.006c-.908-.616-1.3-1.836-2.01-2.75a8.758,8.758,0,0,1-2.523-6.021,10.684,10.684,0,0,1,.553-3.289,9.359,9.359,0,0,1,3.807-5.239,10.85,10.85,0,0,1,2.7-1.944,10.64,10.64,0,0,1,3.312-.514,10.519,10.519,0,0,1,3.284.484,10.276,10.276,0,0,1,2.89,1.56C715.913,919.355,717.1,919.708,717.813,920.623Z" transform="translate(-698.454 -916.691)" fill="#fff"/>
          </g>
          <g id="그룹_65" data-name="그룹 65" transform="translate(33.552 15.711)">
            <path id="패스_35" data-name="패스 35" d="M709.852,922.192a6.083,6.083,0,0,1,.968,1.53,5.919,5.919,0,0,1,.132,1.8,6.092,6.092,0,0,1-.984,3.325,5.712,5.712,0,0,1-1.136,1.358A5.148,5.148,0,0,1,703.8,931a5.776,5.776,0,0,1-1.7-.525c-.474-.323-.68-.961-1.051-1.438a4.663,4.663,0,0,1-1.03-4.871,4.9,4.9,0,0,1,1.991-2.74,3.756,3.756,0,0,1,3.145-1.287,5.565,5.565,0,0,1,1.718.254,5.377,5.377,0,0,1,1.512.816A5.653,5.653,0,0,1,709.852,922.192Z" transform="translate(-699.726 -920.135)" fill="#161615"/>
          </g>
          <g id="그룹_66" data-name="그룹 66" transform="translate(2.044 5.534)">
            <path id="패스_36" data-name="패스 36" d="M690.245,915.859a6.023,6.023,0,0,1,.966,1.53,5.885,5.885,0,0,1,.133,1.8,5.592,5.592,0,0,1-.251,1.736,5.523,5.523,0,0,1-.733,1.589,5.705,5.705,0,0,1-1.136,1.358,5.146,5.146,0,0,1-5.031.794,5.772,5.772,0,0,1-1.7-.525c-.474-.323-.68-.961-1.051-1.438a4.663,4.663,0,0,1-1.03-4.871,4.888,4.888,0,0,1,1.991-2.74,5.68,5.68,0,0,1,1.412-1.018,5.811,5.811,0,0,1,3.45-.016,5.407,5.407,0,0,1,1.512.816A5.65,5.65,0,0,1,690.245,915.859Z" transform="translate(-680.119 -913.802)" fill="#161615"/>
          </g>
        </g>
      </g>
      <g id="그룹_70" data-name="그룹 70" transform="translate(42.267 11.252)" opacity="0.2">
        <g id="그룹_69" data-name="그룹 69" transform="translate(0 0)">
          <path id="패스_37" data-name="패스 37" d="M731.651,892.7c-5.721-1.634-11.832-.7-17.678.415q-12.455,2.369-24.695,5.724a81.117,81.117,0,0,0-16.729,6.113c-6.762,3.59-12.512,8.782-18.233,13.87-6.266,5.576-12.638,11.148-17.632,17.888s-8.57,14.847-8.421,23.234c.04,2.221.415,4.6,1.956,6.2a9.993,9.993,0,0,0,4.039,2.216,84.972,84.972,0,0,0,10.561,2.944,10.378,10.378,0,0,0,8.707-1.1c14.291-7.334,26.1-18.6,38.111-29.26s24.815-21.092,40.051-26.181c2.239-.747,4.588-1.414,6.381-2.945,3.231-2.761,3.76-7.844,1.994-11.708s-4.536-5.67-8.413-7.411" transform="translate(-628.259 -891.815)" fill="#fff"/>
        </g>
      </g>
    </g>
    <g id="그룹_341" data-name="그룹 341" transform="translate(1317.701 215.143)">
      <g id="그룹_62-2" data-name="그룹 62" transform="translate(0 0)">
        <path id="패스_32-2" data-name="패스 32" d="M613.853,1167.815c7.255,22.469,15,43.014,28.128,61.163a213.488,213.488,0,0,0,47.534,48.262c18.562,13.514,39.205,21.759,61.024,28.908,21.6,7.08,43.067,21.375,66.284,21.41,22.4.035,43.972-13.678,66.442-20.936s42.751-15.99,60.9-29.123c18.809-13.609,35.95-28.443,49.33-46.82,13.514-18.564,29.581-37.111,36.731-58.928,7.079-21.6-2.281-46.037-2.245-69.252.035-22.4,2.137-44.323-5.12-66.792s-17.943-41.8-31.075-59.949c-13.61-18.809-24.719-40.545-43.1-53.924-18.562-13.514-41.012-22.577-62.829-29.727-21.6-7.079-45.047-7.259-68.263-7.295-22.4-.035-42.726,9.385-65.2,16.642S705.352,909.4,687.2,922.529c-18.809,13.61-28.3,36.017-41.675,54.4-13.512,18.562-25.852,36.492-33,58.311a211.069,211.069,0,0,0-10.569,66.518C601.922,1124.154,606.6,1145.344,613.853,1167.815Z" transform="translate(-601.957 -884.813)" fill="#905b9e"/>
      </g>
      <g id="그룹_68-2" data-name="그룹 68" transform="translate(202.72 53.063)">
        <g id="그룹_67-2" data-name="그룹 67" transform="translate(0 0)">
          <g id="그룹_63-2" data-name="그룹 63" transform="translate(40.729)">
            <path id="패스_33-2" data-name="패스 33" d="M681.574,915.44a14.938,14.938,0,0,0-2.389,3.783,14.493,14.493,0,0,0-.328,4.445A15.952,15.952,0,0,0,684.1,935.24c1.182.918,2.758,1,4.094,1.483a8.753,8.753,0,0,0,8.34.48c1.383-.4,2.989-.474,4.2-1.3,1.174-.8,1.682-2.373,2.6-3.554a11.311,11.311,0,0,0,3.261-7.783,13.807,13.807,0,0,0-.715-4.252,12.091,12.091,0,0,0-4.921-6.771c-1.18-.916-2.158-2.031-3.492-2.514a13.736,13.736,0,0,0-4.281-.664,13.586,13.586,0,0,0-4.246.625,13.289,13.289,0,0,0-3.735,2.017C684.031,913.8,682.492,914.258,681.574,915.44Z" transform="translate(-678.847 -910.358)" fill="#fff"/>
          </g>
          <g id="그룹_64-2" data-name="그룹 64" transform="translate(0 13.155)">
            <path id="패스_34-2" data-name="패스 34" d="M701.181,921.773a14.922,14.922,0,0,0-2.388,3.782c-.5,1.381-.285,3.006-.331,4.445a13.938,13.938,0,0,0,.621,4.29,13.763,13.763,0,0,0,1.812,3.928,14.011,14.011,0,0,0,2.808,3.355c1.182.918,2.759,1,4.094,1.483a8.757,8.757,0,0,0,8.34.48c1.384-.4,2.989-.474,4.2-1.3,1.174-.8,1.683-2.372,2.6-3.554A11.321,11.321,0,0,0,726.2,930.9a13.807,13.807,0,0,0-.715-4.252,12.1,12.1,0,0,0-4.921-6.772c-1.18-.916-2.158-2.032-3.492-2.513a13.753,13.753,0,0,0-4.281-.665,13.591,13.591,0,0,0-4.245.625,13.277,13.277,0,0,0-3.735,2.017C703.639,920.135,702.1,920.591,701.181,921.773Z" transform="translate(-698.454 -916.691)" fill="#fff"/>
          </g>
          <g id="그룹_65-2" data-name="그룹 65" transform="translate(10.595 20.308)">
            <path id="패스_35-2" data-name="패스 35" d="M701.152,922.794a7.864,7.864,0,0,0-1.251,1.978,7.65,7.65,0,0,0-.17,2.326A7.873,7.873,0,0,0,701,931.4a7.386,7.386,0,0,0,1.468,1.755,6.653,6.653,0,0,0,6.5,1.026,7.466,7.466,0,0,0,2.2-.679c.613-.417.879-1.243,1.359-1.859a6.027,6.027,0,0,0,1.332-6.3,6.33,6.33,0,0,0-2.574-3.542,4.856,4.856,0,0,0-4.065-1.664,7.189,7.189,0,0,0-2.221.329,6.949,6.949,0,0,0-1.954,1.055A7.307,7.307,0,0,0,701.152,922.794Z" transform="translate(-699.726 -920.135)" fill="#161615"/>
          </g>
          <g id="그룹_66-2" data-name="그룹 66" transform="translate(51.323 7.153)">
            <path id="패스_36-2" data-name="패스 36" d="M681.544,916.461a7.792,7.792,0,0,0-1.248,1.977,7.61,7.61,0,0,0-.173,2.327,7.229,7.229,0,0,0,.324,2.243,7.14,7.14,0,0,0,.947,2.054,7.374,7.374,0,0,0,1.469,1.756,6.652,6.652,0,0,0,6.5,1.026,7.462,7.462,0,0,0,2.2-.679c.613-.417.879-1.242,1.359-1.859a6.027,6.027,0,0,0,1.331-6.3,6.317,6.317,0,0,0-2.574-3.542,7.34,7.34,0,0,0-1.826-1.315,7.511,7.511,0,0,0-4.459-.02,6.992,6.992,0,0,0-1.955,1.055A7.3,7.3,0,0,0,681.544,916.461Z" transform="translate(-680.119 -913.802)" fill="#161615"/>
          </g>
        </g>
      </g>
      <g id="그룹_70-2" data-name="그룹 70" transform="translate(230.473 14.544)" opacity="0.2">
        <g id="그룹_69-2" data-name="그룹 69" transform="translate(0 0)">
          <path id="패스_37-2" data-name="패스 37" d="M640.423,892.953c7.395-2.113,15.295-.9,22.851.536q16.1,3.063,31.921,7.4c7.416,2.034,14.831,4.3,21.624,7.9,8.741,4.641,16.173,11.352,23.568,17.928,8.1,7.208,16.335,14.41,22.791,23.122s11.078,19.191,10.884,30.032c-.052,2.871-.536,5.949-2.528,8.018a12.918,12.918,0,0,1-5.22,2.864,109.842,109.842,0,0,1-13.651,3.805,13.416,13.416,0,0,1-11.254-1.42c-18.472-9.481-33.736-24.038-49.263-37.822s-32.077-27.263-51.771-33.842c-2.894-.965-5.93-1.827-8.249-3.807-4.177-3.569-4.861-10.139-2.578-15.134s5.864-7.329,10.874-9.58" transform="translate(-628.259 -891.815)" fill="#fff"/>
        </g>
      </g>
    </g>
    <g id="그룹_338" data-name="그룹 338" transform="translate(475.466 225.533) rotate(-43)">
      <g id="그룹_62-3" data-name="그룹 62" transform="translate(0 0)">
        <path id="패스_32-3" data-name="패스 32" d="M207.016,139.817c-3.585,11.1-7.408,21.251-13.9,30.217a105.477,105.477,0,0,1-23.484,23.844c-9.171,6.677-19.369,10.75-30.149,14.282-10.672,3.5-21.277,10.56-32.747,10.577-11.067.018-21.724-6.758-32.825-10.343s-21.121-7.9-30.087-14.388c-9.293-6.724-17.761-14.052-24.371-23.131C12.779,161.7,4.841,152.541,1.308,141.762c-3.5-10.673,1.127-22.745,1.109-34.214-.018-11.068-1.056-21.9,2.53-33A104.886,104.886,0,0,1,20.3,44.932C27.024,35.639,32.512,24.9,41.592,18.291,50.763,11.614,61.854,7.137,72.633,3.6,83.306.107,94.888.017,106.358,0c11.067-.018,21.109,4.636,32.211,8.222s23.242,3.923,32.209,10.411c9.293,6.724,13.979,17.794,20.59,26.874,6.676,9.17,12.772,18.029,16.3,28.809a104.278,104.278,0,0,1,5.221,32.863C212.911,118.246,210.6,128.715,207.016,139.817Z" fill="#905b9e"/>
      </g>
      <g id="그룹_68-3" data-name="그룹 68" transform="translate(78.908 26.216)">
        <g id="그룹_67-3" data-name="그룹 67" transform="translate(0 0)">
          <g id="그룹_63-3" data-name="그룹 63">
            <path id="패스_33-3" data-name="패스 33" d="M12.363,2.511a7.381,7.381,0,0,1,1.18,1.869,7.161,7.161,0,0,1,.162,2.2A6.852,6.852,0,0,1,13.4,8.7a6.8,6.8,0,0,1-.895,1.941,6.915,6.915,0,0,1-1.388,1.657,6.8,6.8,0,0,1-2.023.733,6.831,6.831,0,0,1-2.026.642,6.85,6.85,0,0,1-2.095-.4A7,7,0,0,1,2.9,12.62c-.58-.393-.831-1.172-1.284-1.756A6.744,6.744,0,0,1,.441,9.111,6.793,6.793,0,0,1,0,7.019a6.82,6.82,0,0,1,.353-2.1,6.638,6.638,0,0,1,.922-1.9A6.6,6.6,0,0,1,2.786,1.573,6.938,6.938,0,0,1,4.511.331,6.789,6.789,0,0,1,6.626,0a6.713,6.713,0,0,1,2.1.309,6.566,6.566,0,0,1,1.845,1A6.832,6.832,0,0,1,12.363,2.511Z" fill="#fff"/>
          </g>
          <g id="그룹_64-3" data-name="그룹 64" transform="translate(20.122 6.499)">
            <path id="패스_34-3" data-name="패스 34" d="M12.363,2.511a7.375,7.375,0,0,1,1.18,1.869,7.182,7.182,0,0,1,.163,2.2A6.882,6.882,0,0,1,13.4,8.695a6.8,6.8,0,0,1-.9,1.941,6.921,6.921,0,0,1-1.387,1.658,6.806,6.806,0,0,1-2.023.733,6.819,6.819,0,0,1-2.026.641,6.838,6.838,0,0,1-2.094-.4A6.992,6.992,0,0,1,2.9,12.62c-.58-.393-.831-1.172-1.284-1.756A6.733,6.733,0,0,1,.441,9.111,6.788,6.788,0,0,1,0,7.019a6.823,6.823,0,0,1,.353-2.1,6.638,6.638,0,0,1,.923-1.9A6.609,6.609,0,0,1,2.786,1.573,6.929,6.929,0,0,1,4.512.331,6.8,6.8,0,0,1,6.627,0a6.721,6.721,0,0,1,2.1.309,6.56,6.56,0,0,1,1.845,1A6.839,6.839,0,0,1,12.363,2.511Z" transform="translate(0 0)" fill="#fff"/>
          </g>
          <g id="그룹_65-3" data-name="그룹 65" transform="translate(21.427 10.033)">
            <path id="패스_35-3" data-name="패스 35" d="M6.467,1.314a3.884,3.884,0,0,1,.618.977A3.78,3.78,0,0,1,7.168,3.44a3.568,3.568,0,0,1-.16,1.108A3.53,3.53,0,0,1,6.54,5.564a3.649,3.649,0,0,1-.725.867,3.56,3.56,0,0,1-1.058.383,3.541,3.541,0,0,1-1.06.335,3.586,3.586,0,0,1-1.1-.211A3.689,3.689,0,0,1,1.515,6.6c-.3-.206-.434-.614-.671-.919a3.534,3.534,0,0,1-.613-.918A3.556,3.556,0,0,1,0,3.672a3.541,3.541,0,0,1,.185-1.1,3.445,3.445,0,0,1,.483-.992A3.452,3.452,0,0,1,1.457.823a3.624,3.624,0,0,1,.9-.65A3.6,3.6,0,0,1,3.466,0a3.549,3.549,0,0,1,1.1.163,3.436,3.436,0,0,1,.965.521A3.613,3.613,0,0,1,6.467,1.314Z" transform="translate(0 0)" fill="#161615"/>
          </g>
          <g id="그룹_66-3" data-name="그룹 66" transform="translate(1.305 3.534)">
            <path id="패스_36-3" data-name="패스 36" d="M6.466,1.314a3.853,3.853,0,0,1,.617.977,3.76,3.76,0,0,1,.085,1.15,3.573,3.573,0,0,1-.16,1.109A3.53,3.53,0,0,1,6.54,5.563a3.643,3.643,0,0,1-.726.867,3.554,3.554,0,0,1-1.058.383,3.537,3.537,0,0,1-1.06.336A3.577,3.577,0,0,1,2.6,6.938,3.686,3.686,0,0,1,1.515,6.6c-.3-.206-.434-.614-.671-.918a3.538,3.538,0,0,1-.613-.918A3.535,3.535,0,0,1,0,3.672a3.531,3.531,0,0,1,.185-1.1,3.443,3.443,0,0,1,.482-.993A3.433,3.433,0,0,1,1.458.823a3.628,3.628,0,0,1,.9-.65A3.575,3.575,0,0,1,3.466,0a3.56,3.56,0,0,1,1.1.162,3.45,3.45,0,0,1,.966.522A3.606,3.606,0,0,1,6.466,1.314Z" transform="translate(0 0)" fill="#161615"/>
          </g>
        </g>
      </g>
      <g id="그룹_70-3" data-name="그룹 70" transform="translate(26.992 7.185)" opacity="0.2">
        <g id="그룹_69-3" data-name="그룹 69" transform="translate(0 0)">
          <path id="패스_37-3" data-name="패스 37" d="M66.027.563C62.374-.481,58.471.117,54.737.828q-7.954,1.513-15.77,3.655a51.8,51.8,0,0,0-10.683,3.9C23.966,10.679,20.294,14,16.64,17.244c-4,3.561-8.071,7.119-11.26,11.423S-.093,38.149,0,43.5a5.759,5.759,0,0,0,1.249,3.961,6.383,6.383,0,0,0,2.579,1.415,54.244,54.244,0,0,0,6.744,1.88,8.505,8.505,0,0,0,3.086.233,8.468,8.468,0,0,0,2.474-.935C25.262,45.376,32.8,38.184,40.474,31.373S56.321,17.9,66.051,14.654a11.8,11.8,0,0,0,4.075-1.881C72.19,11.01,72.527,7.764,71.4,5.3S68.5,1.675,66.027.563" fill="#fff"/>
        </g>
      </g>
    </g>
    <g id="그룹_339" data-name="그룹 339" transform="translate(797.8 647.351) rotate(-137)">
      <g id="그룹_62-4" data-name="그룹 62" transform="translate(0 0)">
        <path id="패스_32-4" data-name="패스 32" d="M106.674,40.667c-1.847-5.72-3.817-10.951-7.161-15.571a54.346,54.346,0,0,0-12.1-12.287c-4.725-3.441-9.981-5.539-15.536-7.36C66.377,3.648,60.912.009,55,0,49.3-.009,43.807,3.482,38.087,5.33a54.3,54.3,0,0,0-15.5,7.414A54.883,54.883,0,0,0,10.025,24.663c-3.44,4.726-7.531,9.448-9.351,15-1.8,5.5.581,11.72.572,17.63-.009,5.7-.544,11.284,1.3,17A54.043,54.043,0,0,0,10.46,89.561c3.465,4.788,6.293,10.322,10.972,13.728,4.726,3.44,10.441,5.748,15.995,7.568,5.5,1.8,11.468,1.848,17.378,1.857,5.7.009,10.877-2.389,16.6-4.237s11.977-2.022,16.6-5.365c4.788-3.465,7.2-9.169,10.61-13.848,3.44-4.725,6.581-9.29,8.4-14.845A53.735,53.735,0,0,0,109.7,57.485,53.694,53.694,0,0,0,106.674,40.667Z" fill="#905b9e"/>
      </g>
      <g id="그룹_68-4" data-name="그룹 68" transform="translate(40.66 88.813)">
        <g id="그룹_67-4" data-name="그룹 67" transform="translate(0 0)">
          <g id="그룹_63-4" data-name="그룹 63" transform="translate(0 3.349)">
            <path id="패스_33-4" data-name="패스 33" d="M6.37,5.75a3.8,3.8,0,0,0,.608-.963,3.688,3.688,0,0,0,.084-1.132A3.532,3.532,0,0,0,6.9,2.563a3.5,3.5,0,0,0-.461-1A3.564,3.564,0,0,0,5.728.709,3.5,3.5,0,0,0,4.686.331,3.524,3.524,0,0,0,3.642,0,3.531,3.531,0,0,0,2.563.209,3.612,3.612,0,0,0,1.493.54c-.3.2-.428.6-.661.9a3.474,3.474,0,0,0-.6.9A3.5,3.5,0,0,0,0,3.426,3.513,3.513,0,0,0,.183,4.509a3.418,3.418,0,0,0,.475.978,3.4,3.4,0,0,0,.777.746,3.575,3.575,0,0,0,.889.64,3.493,3.493,0,0,0,1.09.169A3.453,3.453,0,0,0,4.5,6.883a3.381,3.381,0,0,0,.951-.513A3.52,3.52,0,0,0,6.37,5.75Z" transform="translate(0 0)" fill="#fff"/>
          </g>
          <g id="그룹_64-4" data-name="그룹 64" transform="translate(10.368 0)">
            <path id="패스_34-4" data-name="패스 34" d="M6.371,5.75a3.8,3.8,0,0,0,.608-.963,3.7,3.7,0,0,0,.084-1.132A3.547,3.547,0,0,0,6.9,2.563a3.5,3.5,0,0,0-.461-1A3.563,3.563,0,0,0,5.729.709,3.507,3.507,0,0,0,4.686.331,3.515,3.515,0,0,0,3.643,0,3.523,3.523,0,0,0,2.563.209,3.6,3.6,0,0,0,1.493.54c-.3.2-.428.6-.662.9a3.47,3.47,0,0,0-.6.9A3.5,3.5,0,0,0,0,3.426,3.517,3.517,0,0,0,.183,4.509a3.423,3.423,0,0,0,.475.978,3.407,3.407,0,0,0,.777.746,3.571,3.571,0,0,0,.889.64,3.5,3.5,0,0,0,1.09.169A3.463,3.463,0,0,0,4.5,6.883a3.383,3.383,0,0,0,.951-.514A3.525,3.525,0,0,0,6.371,5.75Z" transform="translate(0)" fill="#fff"/>
          </g>
          <g id="그룹_65-4" data-name="그룹 65" transform="translate(11.041 1.538)">
            <path id="패스_35-4" data-name="패스 35" d="M3.332,3.007a2,2,0,0,0,.318-.5,1.947,1.947,0,0,0,.043-.592,1.839,1.839,0,0,0-.083-.571A1.821,1.821,0,0,0,3.37.817,1.881,1.881,0,0,0,3,.37a1.833,1.833,0,0,0-.545-.2A1.825,1.825,0,0,0,1.9,0a1.848,1.848,0,0,0-.564.109,1.9,1.9,0,0,0-.56.173C.625.389.557.6.435.756a1.819,1.819,0,0,0-.316.473A1.83,1.83,0,0,0,0,1.792a1.825,1.825,0,0,0,.1.566,1.775,1.775,0,0,0,.249.511,1.778,1.778,0,0,0,.407.39,1.869,1.869,0,0,0,.465.335,1.858,1.858,0,0,0,.57.089A1.831,1.831,0,0,0,2.351,3.6a1.77,1.77,0,0,0,.5-.269A1.861,1.861,0,0,0,3.332,3.007Z" transform="translate(0 0)" fill="#161615"/>
          </g>
          <g id="그룹_66-4" data-name="그룹 66" transform="translate(0.673 4.887)">
            <path id="패스_36-4" data-name="패스 36" d="M3.332,3.007a1.989,1.989,0,0,0,.318-.5,1.936,1.936,0,0,0,.044-.592,1.838,1.838,0,0,0-.083-.571A1.815,1.815,0,0,0,3.37.818,1.877,1.877,0,0,0,3,.371a1.833,1.833,0,0,0-.545-.2A1.823,1.823,0,0,0,1.9,0a1.846,1.846,0,0,0-.564.109A1.9,1.9,0,0,0,.78.282C.625.389.557.6.435.756a1.821,1.821,0,0,0-.316.473A1.823,1.823,0,0,0,0,1.792a1.82,1.82,0,0,0,.1.566,1.774,1.774,0,0,0,.249.511,1.764,1.764,0,0,0,.407.39,1.863,1.863,0,0,0,.465.335,1.838,1.838,0,0,0,.57.089A1.827,1.827,0,0,0,2.351,3.6a1.777,1.777,0,0,0,.5-.269A1.859,1.859,0,0,0,3.332,3.007Z" transform="translate(0 0)" fill="#161615"/>
          </g>
        </g>
      </g>
      <g id="그룹_70-4" data-name="그룹 70" transform="translate(13.909 82.701)" opacity="0.2">
        <g id="그룹_69-4" data-name="그룹 69" transform="translate(0 0)">
          <path id="패스_37-4" data-name="패스 37" d="M34.023,26.02a12.674,12.674,0,0,1-5.817-.137q-4.1-.78-8.126-1.884a26.687,26.687,0,0,1-5.5-2.012,31.7,31.7,0,0,1-6-4.564,40.291,40.291,0,0,1-5.8-5.886A12.743,12.743,0,0,1,0,3.892,2.967,2.967,0,0,1,.645,1.851a3.288,3.288,0,0,1,1.329-.729A27.95,27.95,0,0,1,5.449.153a4.381,4.381,0,0,1,1.59-.12A4.364,4.364,0,0,1,8.314.515c4.7,2.414,8.588,6.119,12.541,9.629s8.166,6.941,13.18,8.615a6.078,6.078,0,0,1,2.1.969,3.342,3.342,0,0,1,.656,3.853,4.8,4.8,0,0,1-2.768,2.439" fill="#fff"/>
        </g>
      </g>
    </g>
    <g id="그룹_344" data-name="그룹 344" transform="translate(272.562 155.684) rotate(-43)">
      <g id="그룹_62-5" data-name="그룹 62" transform="translate(0 0)">
        <path id="패스_32-5" data-name="패스 32" d="M61.046,41.23a30.992,30.992,0,0,1-4.1,8.911,31.1,31.1,0,0,1-6.925,7.031,31.18,31.18,0,0,1-8.89,4.212c-3.147,1.031-6.274,3.114-9.657,3.119-3.263.005-6.406-1.993-9.68-3.05a31.076,31.076,0,0,1-8.872-4.243,31.408,31.408,0,0,1-7.187-6.821c-1.969-2.7-4.31-5.407-5.351-8.585C-.646,38.656.718,35.1.713,31.714.708,28.45.4,25.257,1.459,21.983A30.927,30.927,0,0,1,5.986,13.25c1.983-2.74,3.6-5.907,6.279-7.856a33.032,33.032,0,0,1,9.153-4.331C24.566.031,27.981.005,31.363,0c3.263-.005,6.225,1.367,9.5,2.425s6.854,1.157,9.5,3.07c2.74,1.983,4.122,5.247,6.072,7.925a30.724,30.724,0,0,1,4.808,8.5,30.75,30.75,0,0,1,1.54,9.691A30.727,30.727,0,0,1,61.046,41.23Z" fill="#905b9e"/>
      </g>
      <g id="그룹_68-5" data-name="그룹 68" transform="translate(23.269 7.731)">
        <g id="그룹_67-5" data-name="그룹 67" transform="translate(0 0)">
          <g id="그룹_63-5" data-name="그룹 63" transform="translate(0)">
            <path id="패스_33-5" data-name="패스 33" d="M3.646.74a2.176,2.176,0,0,1,.348.551,2.111,2.111,0,0,1,.048.648,2.022,2.022,0,0,1-.09.625,2,2,0,0,1-.264.572,2.039,2.039,0,0,1-.409.489,2.006,2.006,0,0,1-.6.216,2.016,2.016,0,0,1-.6.189,2.021,2.021,0,0,1-.618-.119,2.067,2.067,0,0,1-.613-.189C.683,3.606.609,3.376.476,3.2A1.988,1.988,0,0,1,.13,2.687,2,2,0,0,1,0,2.07a2.01,2.01,0,0,1,.1-.62A1.956,1.956,0,0,1,.377.891,1.948,1.948,0,0,1,.822.464,2.046,2.046,0,0,1,1.33.1,2,2,0,0,1,1.954,0a1.976,1.976,0,0,1,.619.091,1.935,1.935,0,0,1,.544.294A2.014,2.014,0,0,1,3.646.74Z" transform="translate(0 0)" fill="#fff"/>
          </g>
          <g id="그룹_64-5" data-name="그룹 64" transform="translate(5.934 1.916)">
            <path id="패스_34-5" data-name="패스 34" d="M3.646.74a2.174,2.174,0,0,1,.348.551,2.116,2.116,0,0,1,.048.648,2.03,2.03,0,0,1-.09.625,2.005,2.005,0,0,1-.264.572,2.039,2.039,0,0,1-.409.489,2.007,2.007,0,0,1-.6.216,2.012,2.012,0,0,1-.6.189,2.016,2.016,0,0,1-.618-.119,2.063,2.063,0,0,1-.612-.189C.683,3.606.609,3.376.476,3.2A1.986,1.986,0,0,1,.13,2.687,2,2,0,0,1,0,2.07,2.013,2.013,0,0,1,.1,1.45,1.959,1.959,0,0,1,.377.891,1.95,1.95,0,0,1,.822.464,2.044,2.044,0,0,1,1.33.1,2,2,0,0,1,1.954,0a1.981,1.981,0,0,1,.618.091,1.936,1.936,0,0,1,.544.294A2.017,2.017,0,0,1,3.646.74Z" transform="translate(0 0)" fill="#fff"/>
          </g>
          <g id="그룹_65-5" data-name="그룹 65" transform="translate(6.318 2.958)">
            <path id="패스_35-5" data-name="패스 35" d="M1.907.387a1.144,1.144,0,0,1,.182.288,1.114,1.114,0,0,1,.025.339,1.052,1.052,0,0,1-.047.327,1.042,1.042,0,0,1-.138.3,1.076,1.076,0,0,1-.214.256,1.049,1.049,0,0,1-.312.113,1.045,1.045,0,0,1-.313.1,1.058,1.058,0,0,1-.323-.062,1.089,1.089,0,0,1-.32-.1c-.089-.061-.128-.181-.2-.271a1.041,1.041,0,0,1-.181-.271A1.047,1.047,0,0,1,0,1.083,1.045,1.045,0,0,1,.055.759,1.016,1.016,0,0,1,.2.466,1.018,1.018,0,0,1,.43.243,1.069,1.069,0,0,1,.7.051,1.063,1.063,0,0,1,1.022,0a1.048,1.048,0,0,1,.324.048A1.013,1.013,0,0,1,1.63.2,1.065,1.065,0,0,1,1.907.387Z" transform="translate(0 0)" fill="#161615"/>
          </g>
          <g id="그룹_66-5" data-name="그룹 66" transform="translate(0.385 1.042)">
            <path id="패스_36-5" data-name="패스 36" d="M1.907.387a1.138,1.138,0,0,1,.182.288,1.108,1.108,0,0,1,.025.339,1.052,1.052,0,0,1-.047.327,1.039,1.039,0,0,1-.138.3,1.074,1.074,0,0,1-.214.256,1.049,1.049,0,0,1-.312.113,1.043,1.043,0,0,1-.313.1,1.056,1.056,0,0,1-.323-.062,1.085,1.085,0,0,1-.321-.1c-.089-.061-.128-.181-.2-.271a1.042,1.042,0,0,1-.181-.271A1.043,1.043,0,0,1,0,1.083,1.041,1.041,0,0,1,.055.759,1.015,1.015,0,0,1,.2.466,1.01,1.01,0,0,1,.43.243,1.066,1.066,0,0,1,.7.051,1.052,1.052,0,0,1,1.022,0a1.046,1.046,0,0,1,.323.048A1.017,1.017,0,0,1,1.63.2,1.064,1.064,0,0,1,1.907.387Z" transform="translate(0 0)" fill="#161615"/>
          </g>
        </g>
      </g>
      <g id="그룹_70-5" data-name="그룹 70" transform="translate(7.96 2.119)" opacity="0.2">
        <g id="그룹_69-5" data-name="그룹 69" transform="translate(0 0)">
          <path id="패스_37-5" data-name="패스 37" d="M19.47.166a7.253,7.253,0,0,0-3.329.078Q13.8.69,11.491,1.322A15.272,15.272,0,0,0,8.34,2.473,18.141,18.141,0,0,0,4.907,5.085a23.057,23.057,0,0,0-3.32,3.369A7.293,7.293,0,0,0,0,12.829,1.7,1.7,0,0,0,.369,14a1.882,1.882,0,0,0,.761.417,15.994,15.994,0,0,0,1.989.554,2.507,2.507,0,0,0,.91.069,2.5,2.5,0,0,0,.73-.276,36.111,36.111,0,0,0,7.177-5.51,22.579,22.579,0,0,1,7.542-4.93,3.478,3.478,0,0,0,1.2-.555,1.912,1.912,0,0,0,.376-2.2A2.744,2.744,0,0,0,19.47.166" fill="#fff"/>
        </g>
      </g>
    </g>
    <g id="그룹_343" data-name="그룹 343" transform="translate(1994.704 645.776) rotate(-137)">
      <g id="그룹_62-6" data-name="그룹 62" transform="translate(0 0)">
        <path id="패스_32-6" data-name="패스 32" d="M141.956,54.118c-2.458-7.612-5.08-14.572-9.529-20.721a72.321,72.321,0,0,0-16.1-16.35c-6.288-4.579-13.282-7.372-20.674-9.794C88.332,4.855,81.059.012,73.194,0,65.6-.012,58.3,4.634,50.685,7.093S36.2,12.51,30.053,16.959c-6.372,4.61-12.179,9.636-16.712,15.862C8.763,39.11,3.319,45.393.9,52.785c-2.4,7.319.773,15.6.761,23.461-.012,7.59-.724,15.016,1.735,22.628A71.918,71.918,0,0,0,13.92,119.183c4.611,6.372,8.374,13.736,14.6,18.269,6.289,4.578,13.894,7.649,21.285,10.071,7.319,2.4,15.261,2.459,23.126,2.471,7.589.012,14.475-3.179,22.088-5.638s15.938-2.69,22.086-7.139c6.372-4.611,9.586-12.2,14.119-18.428,4.577-6.288,8.758-12.363,11.181-19.755A71.507,71.507,0,0,0,145.987,76.5C146,68.91,144.415,61.731,141.956,54.118Z" fill="#905b9e"/>
      </g>
      <g id="그룹_68-6" data-name="그룹 68" transform="translate(54.109 118.188)">
        <g id="그룹_67-6" data-name="그룹 67" transform="translate(0 0)">
          <g id="그룹_63-6" data-name="그룹 63" transform="translate(0 4.457)">
            <path id="패스_33-6" data-name="패스 33" d="M8.477,7.651A5.059,5.059,0,0,0,9.287,6.37,4.908,4.908,0,0,0,9.4,4.864a4.7,4.7,0,0,0-.21-1.453A4.662,4.662,0,0,0,8.575,2.08,4.743,4.743,0,0,0,7.623.943a4.664,4.664,0,0,0-1.387-.5A4.689,4.689,0,0,0,4.847,0,4.7,4.7,0,0,0,3.411.278a4.806,4.806,0,0,0-1.424.44c-.4.27-.57.8-.88,1.2a4.623,4.623,0,0,0-.8,1.2A4.656,4.656,0,0,0,0,4.56,4.675,4.675,0,0,0,.244,6,4.548,4.548,0,0,0,.876,7.3a4.529,4.529,0,0,0,1.034.993,4.757,4.757,0,0,0,1.183.851,4.648,4.648,0,0,0,1.45.225,4.6,4.6,0,0,0,1.438-.212,4.5,4.5,0,0,0,1.265-.683A4.684,4.684,0,0,0,8.477,7.651Z" transform="translate(0 0)" fill="#fff"/>
          </g>
          <g id="그룹_64-6" data-name="그룹 64" transform="translate(13.798 0)">
            <path id="패스_34-6" data-name="패스 34" d="M8.478,7.651A5.055,5.055,0,0,0,9.287,6.37,4.92,4.92,0,0,0,9.4,4.864a4.721,4.721,0,0,0-.21-1.453A4.663,4.663,0,0,0,8.575,2.08,4.742,4.742,0,0,0,7.623.943a4.666,4.666,0,0,0-1.387-.5A4.678,4.678,0,0,0,4.847,0,4.688,4.688,0,0,0,3.411.278a4.8,4.8,0,0,0-1.424.44c-.4.27-.57.8-.88,1.2a4.618,4.618,0,0,0-.8,1.2A4.657,4.657,0,0,0,0,4.56,4.68,4.68,0,0,0,.243,6,4.555,4.555,0,0,0,.876,7.3a4.534,4.534,0,0,0,1.035.993,4.753,4.753,0,0,0,1.183.851,4.66,4.66,0,0,0,1.45.225,4.608,4.608,0,0,0,1.438-.212,4.5,4.5,0,0,0,1.265-.683A4.691,4.691,0,0,0,8.478,7.651Z" transform="translate(0)" fill="#fff"/>
          </g>
          <g id="그룹_65-6" data-name="그룹 65" transform="translate(14.693 2.047)">
            <path id="패스_35-6" data-name="패스 35" d="M4.434,4a2.66,2.66,0,0,0,.424-.67,2.591,2.591,0,0,0,.058-.788,2.447,2.447,0,0,0-.11-.76,2.423,2.423,0,0,0-.321-.7,2.5,2.5,0,0,0-.5-.595A2.439,2.439,0,0,0,3.262.231,2.429,2.429,0,0,0,2.535,0a2.46,2.46,0,0,0-.751.145,2.532,2.532,0,0,0-.745.23c-.208.142-.3.421-.46.63a2.421,2.421,0,0,0-.42.629A2.435,2.435,0,0,0,0,2.385a2.429,2.429,0,0,0,.127.753,2.362,2.362,0,0,0,.331.681A2.366,2.366,0,0,0,1,4.338a2.487,2.487,0,0,0,.619.446,2.472,2.472,0,0,0,.759.118,2.436,2.436,0,0,0,.752-.111,2.355,2.355,0,0,0,.662-.357A2.476,2.476,0,0,0,4.434,4Z" transform="translate(0 0)" fill="#161615"/>
          </g>
          <g id="그룹_66-6" data-name="그룹 66" transform="translate(0.895 6.503)">
            <path id="패스_36-6" data-name="패스 36" d="M4.434,4a2.647,2.647,0,0,0,.423-.67,2.577,2.577,0,0,0,.058-.788,2.446,2.446,0,0,0-.11-.76,2.415,2.415,0,0,0-.321-.7,2.5,2.5,0,0,0-.5-.595A2.439,2.439,0,0,0,3.262.231,2.426,2.426,0,0,0,2.535,0a2.456,2.456,0,0,0-.751.145,2.524,2.524,0,0,0-.745.23c-.208.141-.3.421-.46.63a2.423,2.423,0,0,0-.42.629A2.426,2.426,0,0,0,0,2.385a2.421,2.421,0,0,0,.127.753,2.361,2.361,0,0,0,.331.681A2.348,2.348,0,0,0,1,4.338a2.479,2.479,0,0,0,.618.446,2.446,2.446,0,0,0,.759.118,2.432,2.432,0,0,0,.752-.111,2.364,2.364,0,0,0,.662-.357A2.474,2.474,0,0,0,4.434,4Z" transform="translate(0 0)" fill="#161615"/>
          </g>
        </g>
      </g>
      <g id="그룹_70-6" data-name="그룹 70" transform="translate(18.509 110.055)" opacity="0.2">
        <g id="그룹_69-6" data-name="그룹 69" transform="translate(0 0)">
          <path id="패스_37-6" data-name="패스 37" d="M45.276,34.626c-2.505.716-5.182.305-7.742-.182q-5.454-1.038-10.814-2.507a35.514,35.514,0,0,1-7.326-2.677,42.185,42.185,0,0,1-7.984-6.074,53.618,53.618,0,0,1-7.721-7.833A16.958,16.958,0,0,1,0,5.18,3.949,3.949,0,0,1,.858,2.463a4.375,4.375,0,0,1,1.769-.97A37.194,37.194,0,0,1,7.252.2,5.83,5.83,0,0,1,9.368.044a5.807,5.807,0,0,1,1.7.641C17.323,3.9,22.493,8.828,27.754,13.5s10.867,9.236,17.539,11.465a8.088,8.088,0,0,1,2.794,1.29,4.447,4.447,0,0,1,.873,5.127,6.382,6.382,0,0,1-3.684,3.246" fill="#fff"/>
        </g>
      </g>
    </g>
    <g id="그룹_342" data-name="그룹 342" transform="translate(1748.617 185.25) rotate(-43)">
      <g id="그룹_62-7" data-name="그룹 62" transform="translate(0 0)">
        <path id="패스_32-7" data-name="패스 32" d="M174.889,118.119c-3.028,9.378-6.259,17.953-11.74,25.528a89.1,89.1,0,0,1-19.84,20.143c-7.747,5.641-16.363,9.082-25.47,12.066-9.016,2.955-17.975,8.921-27.665,8.936-9.349.015-18.353-5.709-27.731-8.738S44.6,169.38,37.025,163.9c-7.851-5.68-15-11.871-20.589-19.542-5.641-7.748-12.347-15.489-15.331-24.6-2.955-9.017.952-19.215.937-28.9-.015-9.35-.892-18.5,2.137-27.878A88.6,88.6,0,0,1,17.15,37.959c5.68-7.85,10.317-16.923,17.988-22.507,7.747-5.64,17.117-9.423,26.223-12.407C70.378.09,80.163.015,89.853,0c9.35-.015,17.833,3.917,27.212,6.946s19.635,3.314,27.21,8.8c7.85,5.68,11.81,15.033,17.394,22.7,5.639,7.747,10.79,15.231,13.774,24.338a88.1,88.1,0,0,1,4.411,27.763C179.869,99.9,177.919,108.74,174.889,118.119Z" fill="#905b9e"/>
      </g>
      <g id="그룹_68-7" data-name="그룹 68" transform="translate(66.662 22.148)">
        <g id="그룹_67-7" data-name="그룹 67" transform="translate(0 0)">
          <g id="그룹_63-7" data-name="그룹 63" transform="translate(0 0)">
            <path id="패스_33-7" data-name="패스 33" d="M10.444,2.121a6.233,6.233,0,0,1,1,1.579,6.047,6.047,0,0,1,.137,1.855,5.791,5.791,0,0,1-.258,1.79,5.743,5.743,0,0,1-.756,1.639,5.843,5.843,0,0,1-1.172,1.4A5.746,5.746,0,0,1,7.683,11a5.777,5.777,0,0,1-1.711.542A5.789,5.789,0,0,1,4.2,11.2a5.921,5.921,0,0,1-1.755-.543c-.49-.332-.7-.99-1.084-1.484A5.7,5.7,0,0,1,.373,7.7,5.736,5.736,0,0,1,0,5.93,5.76,5.76,0,0,1,.3,4.155a5.6,5.6,0,0,1,.779-1.6A5.58,5.58,0,0,1,2.354,1.329,5.86,5.86,0,0,1,3.811.28,5.726,5.726,0,0,1,5.6,0,5.661,5.661,0,0,1,7.37.263,5.542,5.542,0,0,1,8.929,1.1,5.771,5.771,0,0,1,10.444,2.121Z" fill="#fff"/>
          </g>
          <g id="그룹_64-7" data-name="그룹 64" transform="translate(16.999 5.49)">
            <path id="패스_34-7" data-name="패스 34" d="M10.445,2.121a6.228,6.228,0,0,1,1,1.579,6.061,6.061,0,0,1,.138,1.855,5.816,5.816,0,0,1-.259,1.79,5.744,5.744,0,0,1-.756,1.639,5.842,5.842,0,0,1-1.172,1.4A5.749,5.749,0,0,1,7.683,11a5.763,5.763,0,0,1-1.711.542A5.776,5.776,0,0,1,4.2,11.2a5.91,5.91,0,0,1-1.755-.543c-.49-.332-.7-.99-1.085-1.483A5.689,5.689,0,0,1,.373,7.7,5.738,5.738,0,0,1,0,5.93,5.766,5.766,0,0,1,.3,4.155a5.611,5.611,0,0,1,.779-1.6A5.586,5.586,0,0,1,2.354,1.329,5.855,5.855,0,0,1,3.811.28,5.74,5.74,0,0,1,5.6,0,5.677,5.677,0,0,1,7.37.263a5.546,5.546,0,0,1,1.559.842A5.779,5.779,0,0,1,10.445,2.121Z" fill="#fff"/>
          </g>
          <g id="그룹_65-7" data-name="그룹 65" transform="translate(18.102 8.476)">
            <path id="패스_35-7" data-name="패스 35" d="M5.463,1.11a3.277,3.277,0,0,1,.522.826,3.192,3.192,0,0,1,.071.971,3.015,3.015,0,0,1-.135.936,2.985,2.985,0,0,1-.4.857,3.083,3.083,0,0,1-.613.733,3.005,3.005,0,0,1-.894.323,2.993,2.993,0,0,1-.9.283A3.03,3.03,0,0,1,2.2,5.861a3.119,3.119,0,0,1-.918-.283C1.024,5.4.913,5.059.713,4.8A2.983,2.983,0,0,1,.2,4.027,3,3,0,0,1,0,3.1a2.993,2.993,0,0,1,.156-.928,2.91,2.91,0,0,1,.408-.838A2.915,2.915,0,0,1,1.231.7,3.064,3.064,0,0,1,1.993.147,3.046,3.046,0,0,1,2.928,0a3,3,0,0,1,.927.137,2.9,2.9,0,0,1,.816.44A3.051,3.051,0,0,1,5.463,1.11Z" transform="translate(0 0)" fill="#161615"/>
          </g>
          <g id="그룹_66-7" data-name="그룹 66" transform="translate(1.103 2.985)">
            <path id="패스_36-7" data-name="패스 36" d="M5.463,1.11a3.261,3.261,0,0,1,.521.825,3.175,3.175,0,0,1,.072.971,3.014,3.014,0,0,1-.135.937,2.976,2.976,0,0,1-.4.857,3.077,3.077,0,0,1-.613.733,3,3,0,0,1-.894.323,2.989,2.989,0,0,1-.9.283A3.026,3.026,0,0,1,2.2,5.861a3.109,3.109,0,0,1-.918-.284C1.024,5.4.913,5.059.713,4.8A2.985,2.985,0,0,1,.2,4.026,2.989,2.989,0,0,1,0,3.1a2.983,2.983,0,0,1,.156-.928,2.908,2.908,0,0,1,.408-.839A2.892,2.892,0,0,1,1.231.7,3.055,3.055,0,0,1,1.993.147,3.013,3.013,0,0,1,2.928,0a3,3,0,0,1,.927.137,2.913,2.913,0,0,1,.816.44A3.048,3.048,0,0,1,5.463,1.11Z" transform="translate(0 0)" fill="#161615"/>
          </g>
        </g>
      </g>
      <g id="그룹_70-7" data-name="그룹 70" transform="translate(22.803 6.071)" opacity="0.2">
        <g id="그룹_69-7" data-name="그룹 69" transform="translate(0 0)">
          <path id="패스_37-7" data-name="패스 37" d="M55.78.475C52.694-.407,49.4.1,46.243.7Q39.523,1.977,32.92,3.787a43.753,43.753,0,0,0-9.025,3.3c-3.648,1.937-6.75,4.738-9.837,7.483a66.057,66.057,0,0,0-9.513,9.65C1.851,27.855-.078,32.229,0,36.753A4.865,4.865,0,0,0,1.058,40.1a5.39,5.39,0,0,0,2.179,1.2,45.823,45.823,0,0,0,5.7,1.588,7.183,7.183,0,0,0,2.607.2,7.154,7.154,0,0,0,2.09-.79c7.71-3.957,14.081-10.033,20.561-15.786S47.58,15.126,55.8,12.38a9.965,9.965,0,0,0,3.443-1.589,5.479,5.479,0,0,0,1.076-6.317c-.952-2.086-2.447-3.059-4.539-4" fill="#fff"/>
        </g>
      </g>
    </g>
    <g id="그룹_340" data-name="그룹 340" transform="translate(1059.453 357.692) rotate(-160)">
      <g id="그룹_62-8" data-name="그룹 62" transform="translate(0 0)">
        <path id="패스_32-8" data-name="패스 32" d="M157.285,59.962c-2.723-8.434-5.629-16.146-10.558-22.958a80.13,80.13,0,0,0-17.843-18.116c-6.967-5.073-14.716-8.168-22.906-10.852C97.87,5.379,89.812.013,81.1,0c-8.408-.013-16.506,5.134-24.94,7.859S40.11,13.861,33.3,18.79C26.238,23.9,19.8,29.467,14.782,36.365,9.709,43.333,3.678,50.3.994,58.484c-2.657,8.109.856,17.281.843,25.995-.013,8.409-.8,16.637,1.922,25.071a79.684,79.684,0,0,0,11.664,22.5c5.109,7.06,9.279,15.219,16.178,20.241,6.968,5.073,15.394,8.474,23.584,11.158,8.109,2.657,16.909,2.725,25.624,2.738,8.408.013,16.038-3.523,24.473-6.247s17.659-2.981,24.471-7.91c7.06-5.109,10.621-13.519,15.643-20.418,5.072-6.967,9.7-13.7,12.388-21.888a79.229,79.229,0,0,0,3.967-24.969C161.764,76.351,160.01,68.4,157.285,59.962Z" fill="#905b9e"/>
      </g>
      <g id="그룹_68-8" data-name="그룹 68" transform="translate(59.952 130.95)">
        <g id="그룹_67-8" data-name="그룹 67" transform="translate(0 0)">
          <g id="그룹_63-8" data-name="그룹 63" transform="translate(0 4.938)">
            <path id="패스_33-8" data-name="패스 33" d="M9.393,8.478a5.605,5.605,0,0,0,.9-1.42,5.438,5.438,0,0,0,.123-1.669,5.208,5.208,0,0,0-.232-1.61A5.165,5.165,0,0,0,9.5,2.3,5.255,5.255,0,0,0,8.446,1.045,5.168,5.168,0,0,0,6.91.489,5.2,5.2,0,0,0,5.371,0,5.206,5.206,0,0,0,3.779.308,5.325,5.325,0,0,0,2.2.8c-.441.3-.631.891-.975,1.334A5.123,5.123,0,0,0,.335,3.463,5.159,5.159,0,0,0,0,5.052a5.18,5.18,0,0,0,.268,1.6,5.039,5.039,0,0,0,.7,1.441,5.019,5.019,0,0,0,1.146,1.1,5.271,5.271,0,0,0,1.311.943,5.15,5.15,0,0,0,1.607.249,5.092,5.092,0,0,0,1.594-.235,4.985,4.985,0,0,0,1.4-.757A5.19,5.19,0,0,0,9.393,8.478Z" transform="translate(0 0)" fill="#fff"/>
          </g>
          <g id="그룹_64-8" data-name="그룹 64" transform="translate(15.288 0)">
            <path id="패스_34-8" data-name="패스 34" d="M9.393,8.477a5.6,5.6,0,0,0,.9-1.42,5.451,5.451,0,0,0,.124-1.669,5.23,5.23,0,0,0-.233-1.61A5.166,5.166,0,0,0,9.5,2.3,5.254,5.254,0,0,0,8.447,1.045,5.17,5.17,0,0,0,6.91.488,5.183,5.183,0,0,0,5.371,0,5.194,5.194,0,0,0,3.779.308,5.315,5.315,0,0,0,2.2.8c-.441.3-.632.891-.975,1.334a5.116,5.116,0,0,0-.89,1.333A5.16,5.16,0,0,0,0,5.052a5.185,5.185,0,0,0,.268,1.6,5.047,5.047,0,0,0,.7,1.442,5.023,5.023,0,0,0,1.146,1.1,5.266,5.266,0,0,0,1.311.943,5.163,5.163,0,0,0,1.607.25,5.105,5.105,0,0,0,1.593-.235,4.987,4.987,0,0,0,1.4-.757A5.2,5.2,0,0,0,9.393,8.477Z" transform="translate(0)" fill="#fff"/>
          </g>
          <g id="그룹_65-8" data-name="그룹 65" transform="translate(16.279 2.268)">
            <path id="패스_35-8" data-name="패스 35" d="M4.913,4.434a2.947,2.947,0,0,0,.469-.742,2.871,2.871,0,0,0,.064-.873,2.711,2.711,0,0,0-.122-.842,2.684,2.684,0,0,0-.356-.771A2.773,2.773,0,0,0,4.418.546a2.7,2.7,0,0,0-.8-.291A2.692,2.692,0,0,0,2.809,0a2.725,2.725,0,0,0-.832.161,2.805,2.805,0,0,0-.826.255c-.23.157-.33.466-.51.7a2.683,2.683,0,0,0-.466.7A2.7,2.7,0,0,0,0,2.642a2.691,2.691,0,0,0,.14.835,2.617,2.617,0,0,0,.367.754,2.622,2.622,0,0,0,.6.575,2.756,2.756,0,0,0,.685.494,2.739,2.739,0,0,0,.84.131,2.7,2.7,0,0,0,.834-.123,2.61,2.61,0,0,0,.734-.4A2.744,2.744,0,0,0,4.913,4.434Z" fill="#161615"/>
          </g>
          <g id="그룹_66-8" data-name="그룹 66" transform="translate(0.992 7.206)">
            <path id="패스_36-8" data-name="패스 36" d="M4.913,4.434a2.933,2.933,0,0,0,.469-.742,2.855,2.855,0,0,0,.065-.873,2.711,2.711,0,0,0-.122-.842,2.676,2.676,0,0,0-.355-.771A2.768,2.768,0,0,0,4.418.546a2.7,2.7,0,0,0-.8-.291A2.688,2.688,0,0,0,2.808,0a2.722,2.722,0,0,0-.832.161,2.8,2.8,0,0,0-.826.255c-.23.157-.33.466-.51.7a2.684,2.684,0,0,0-.465.7A2.688,2.688,0,0,0,0,2.642a2.683,2.683,0,0,0,.14.835,2.616,2.616,0,0,0,.367.754,2.6,2.6,0,0,0,.6.575,2.747,2.747,0,0,0,.685.494,2.71,2.71,0,0,0,.84.131,2.694,2.694,0,0,0,.833-.123,2.619,2.619,0,0,0,.734-.4A2.741,2.741,0,0,0,4.913,4.434Z" transform="translate(0 0)" fill="#161615"/>
          </g>
        </g>
      </g>
      <g id="그룹_70-8" data-name="그룹 70" transform="translate(20.508 121.939)" opacity="0.2">
        <g id="그룹_69-8" data-name="그룹 69" transform="translate(0 0)">
          <path id="패스_37-8" data-name="패스 37" d="M50.166,38.365c-2.776.793-5.741.338-8.578-.2q-6.043-1.15-11.982-2.777a39.348,39.348,0,0,1-8.117-2.966,46.74,46.74,0,0,1-8.846-6.73,59.408,59.408,0,0,1-8.555-8.679A18.789,18.789,0,0,1,0,5.739a4.375,4.375,0,0,1,.949-3.01,4.848,4.848,0,0,1,1.96-1.075A41.21,41.21,0,0,1,8.035.225,6.459,6.459,0,0,1,10.379.048a6.434,6.434,0,0,1,1.88.71c6.934,3.559,12.663,9.023,18.491,14.2s12.04,10.234,19.433,12.7a8.962,8.962,0,0,1,3.1,1.429,4.927,4.927,0,0,1,.968,5.681,7.071,7.071,0,0,1-4.082,3.6" fill="#fff"/>
        </g>
      </g>
    </g>
  </g>
</svg>
