<svg xmlns="http://www.w3.org/2000/svg" width="2002" height="687.607" viewBox="0 0 2002 687.607">
  <g id="그룹_364" data-name="그룹 364" transform="translate(0 -96.549)">
    <g id="그룹_353" data-name="그룹 353" transform="translate(-446.029 -651.805) rotate(20)">
      <g id="그룹_72" data-name="그룹 72" transform="translate(845.197 711.361)">
        <path id="패스_38" data-name="패스 38" d="M853.933,718.321c-19.707,15.486-.37,23.84,2.882,48.691s-2.565,25.614.686,50.465,7.949,24.239,11.2,49.092,3.6,24.806,6.851,49.659,12.369,23.663,15.621,48.518-23.444,43.695.367,51.529c25.773,8.48,23.774-15.166,45.1-31.934s17.566-21.558,38.9-38.326,24.393-12.874,45.724-29.643,14.654-25.262,35.985-42.031,22.811-14.892,44.145-31.663,48.24-1.553,44.725-28.461c-3.352-25.659-24.719-2.558-49.3-10.642s-21.473-17.538-46.054-25.623-27.559.964-52.142-7.12-22.13-15.542-46.713-23.626-26.687-2.356-48.775-15.845C879.578,716.975,874.281,702.329,853.933,718.321Z" transform="translate(-845.197 -711.361)" fill="#69a71b"/>
      </g>
      <g id="그룹_74" data-name="그룹 74" transform="translate(879.893 733.266)" opacity="0.2">
        <g id="그룹_73" data-name="그룹 73">
          <path id="패스_39" data-name="패스 39" d="M941.551,749.248a16.119,16.119,0,0,0-4.008-1.384c-2.433-.6-4.874-1.158-7.317-1.708-4.887-1.1-9.782-2.157-14.639-3.386a105.637,105.637,0,0,1-22.573-8.049c-5.4-2.783-10.537-6.3-16.431-7.787-2.7-.683-6.432-.328-7.1,2.377a5.394,5.394,0,0,0,.911,3.808c4.057,7.232,11.361,12.133,19.029,15.289s15.854,4.813,23.791,7.217c11.264,3.415,22.18,8.377,33.872,9.737a5.887,5.887,0,0,0,2.886-.169c1.991-.8,2.595-3.507,1.817-5.507a11.069,11.069,0,0,0-3.79-4.432c-1.684-1.327-3-3.153-4.576-4.64A9.021,9.021,0,0,0,941.551,749.248Z" transform="translate(-869.386 -726.632)" fill="#fff"/>
        </g>
      </g>
      <g id="그룹_80" data-name="그룹 80" transform="translate(911.986 773.965)">
        <g id="그룹_79" data-name="그룹 79" transform="translate(0)">
          <g id="그룹_75" data-name="그룹 75" transform="translate(23.13)">
            <path id="패스_40" data-name="패스 40" d="M908.51,761.719a10.239,10.239,0,0,0-.625,3.025,10.03,10.03,0,0,0,.867,2.953,9.61,9.61,0,0,0,1.443,2.622,9.455,9.455,0,0,0,2.125,2.1,9.655,9.655,0,0,0,2.631,1.486,73.6,73.6,0,0,0,5.973-.192,9.58,9.58,0,0,0,2.542-1.559,9.858,9.858,0,0,0,2.4-1.862c.565-.8.511-1.943.816-2.929a9.4,9.4,0,0,0,.67-2.872,8.018,8.018,0,0,0-1.948-5.528,8.368,8.368,0,0,0-4.825-3.18,9.69,9.69,0,0,0-2.869-.776,9.924,9.924,0,0,0-5.521,2.047,9.174,9.174,0,0,0-1.925,2.21A9.545,9.545,0,0,0,908.51,761.719Z" transform="translate(-907.885 -755.006)" fill="#fff"/>
          </g>
          <g id="그룹_76" data-name="그룹 76" transform="translate(0 18.399)">
            <path id="패스_41" data-name="패스 41" d="M892.385,774.546a10.306,10.306,0,0,0-.625,3.025,10.071,10.071,0,0,0,.868,2.954,9.6,9.6,0,0,0,1.443,2.622,9.456,9.456,0,0,0,2.126,2.1,9.609,9.609,0,0,0,2.631,1.486,73.582,73.582,0,0,0,5.971-.192,9.569,9.569,0,0,0,2.542-1.559,9.851,9.851,0,0,0,2.4-1.862c.565-.8.51-1.943.816-2.929a7.956,7.956,0,0,0-1.28-8.4,8.369,8.369,0,0,0-4.825-3.18,9.736,9.736,0,0,0-2.869-.776,9.926,9.926,0,0,0-5.521,2.047,9.164,9.164,0,0,0-1.924,2.211A9.6,9.6,0,0,0,892.385,774.546Z" transform="translate(-891.76 -767.833)" fill="#fff"/>
          </g>
          <g id="그룹_77" data-name="그룹 77" transform="translate(7.455 22.401)">
            <path id="패스_42" data-name="패스 42" d="M897.284,774.133a5.448,5.448,0,0,0-.327,1.584,5.252,5.252,0,0,0,.455,1.543,4.749,4.749,0,0,0,7.694,2.331,5.127,5.127,0,0,0,1.256-.974,5.386,5.386,0,0,0,.428-1.532,4.916,4.916,0,0,0,.35-1.5,4.2,4.2,0,0,0-1.019-2.892,4.377,4.377,0,0,0-2.525-1.662,5.017,5.017,0,0,0-1.5-.406,5.188,5.188,0,0,0-2.887,1.07,4.791,4.791,0,0,0-1.007,1.156A5.051,5.051,0,0,0,897.284,774.133Z" transform="translate(-896.957 -770.623)" fill="#161615"/>
          </g>
          <g id="그룹_78" data-name="그룹 78" transform="translate(30.584 4.001)">
            <path id="패스_43" data-name="패스 43" d="M913.409,761.306a5.354,5.354,0,0,0-.327,1.582,5.294,5.294,0,0,0,.453,1.544,5.031,5.031,0,0,0,.756,1.373,4.97,4.97,0,0,0,1.11,1.1,5.071,5.071,0,0,0,1.377.778,39.473,39.473,0,0,0,3.124-.1,5.037,5.037,0,0,0,1.328-.815,5.138,5.138,0,0,0,1.256-.974,5.435,5.435,0,0,0,.427-1.532,4.1,4.1,0,0,0,.113-3.047,5.035,5.035,0,0,0-.782-1.347,4.39,4.39,0,0,0-2.524-1.664,5.125,5.125,0,0,0-1.5-.406,4.982,4.982,0,0,0-1.532.32,4.914,4.914,0,0,0-1.355.752,4.785,4.785,0,0,0-1.007,1.156A5.028,5.028,0,0,0,913.409,761.306Z" transform="translate(-913.082 -757.795)" fill="#161615"/>
          </g>
        </g>
      </g>
    </g>
    <g id="그룹_358" data-name="그룹 358" transform="translate(1649.557 652.74) rotate(160)">
      <g id="그룹_72-2" data-name="그룹 72" transform="translate(0 0)">
        <path id="패스_38-2" data-name="패스 38" d="M11.143,382.326c-25.138-19.753-.472-30.409,3.676-62.107s-3.272-32.672.874-64.37,10.14-30.917,14.287-62.619,4.593-31.642,8.738-63.342S54.5,99.7,58.644,68s-29.9-55.734.468-65.728C91.987-8.544,89.437,21.617,116.643,43.005s22.406,27.5,49.615,48.886,31.115,16.421,58.323,37.811,18.692,32.223,45.9,53.612,29.1,19,56.309,40.387,61.532,1.982,57.048,36.3c-4.276,32.729-31.53,3.263-62.885,13.574s-27.39,22.371-58.744,32.683-35.153-1.23-66.509,9.082-28.228,19.825-59.584,30.136-34.04,3.006-62.215,20.212C43.855,384.042,37.1,402.725,11.143,382.326Z" transform="translate(0 0)" fill="#69a71b"/>
      </g>
      <g id="그룹_74-2" data-name="그룹 74" transform="translate(44.257 313.74)" opacity="0.2">
        <g id="그룹_73-2" data-name="그룹 73" transform="translate(0 0)">
          <path id="패스_39-2" data-name="패스 39" d="M92.049,20.675a20.56,20.56,0,0,1-5.112,1.765c-3.1.763-6.217,1.477-9.333,2.179-6.234,1.4-12.478,2.752-18.673,4.32-9.889,2.5-19.7,5.584-28.793,10.266C23.246,42.755,16.7,47.239,9.18,49.139c-3.445.871-8.2.419-9.062-3.032-.412-1.656.327-3.368,1.162-4.858,5.174-9.225,14.491-15.477,24.272-19.5S45.774,15.609,55.9,12.542C70.265,8.186,84.189,1.857,99.1.122a7.509,7.509,0,0,1,3.681.216c2.539,1.021,3.31,4.474,2.318,7.024-.924,2.38-2.88,4.115-4.834,5.654-2.148,1.693-3.826,4.022-5.836,5.919A11.507,11.507,0,0,1,92.049,20.675Z" transform="translate(0 0)" fill="#fff"/>
        </g>
      </g>
      <g id="그룹_80-2" data-name="그룹 80" transform="translate(85.193 263.608)">
        <g id="그룹_79-2" data-name="그룹 79" transform="translate(0 0)">
          <g id="그룹_75-2" data-name="그룹 75" transform="translate(29.503 23.469)">
            <path id="패스_40-2" data-name="패스 40" d="M.8,15.709A13.06,13.06,0,0,1,0,11.85,12.793,12.793,0,0,1,1.107,8.083,12.257,12.257,0,0,1,2.948,4.739a12.06,12.06,0,0,1,2.71-2.677A12.316,12.316,0,0,1,9.013.166C10.272-.225,11.6.2,12.848.212a12.15,12.15,0,0,1,3.784.2A12.22,12.22,0,0,1,19.874,2.4c1.016.76,2.317,1.318,3.063,2.375.721,1.02.652,2.479,1.041,3.736a11.99,11.99,0,0,1,.855,3.663,12.134,12.134,0,0,1-.576,3.765,12.22,12.22,0,0,1-1.908,3.286,11.808,11.808,0,0,1-2.73,2.585,11.767,11.767,0,0,1-3.425,1.471,12.36,12.36,0,0,1-3.659.99A12.133,12.133,0,0,1,8.8,23.494a12.032,12.032,0,0,1-3.306-1.834,11.7,11.7,0,0,1-2.455-2.82C2.315,17.821,1.188,16.968.8,15.709Z" transform="translate(0 0)" fill="#fff"/>
          </g>
          <g id="그룹_76-2" data-name="그룹 76" transform="translate(0 0)">
            <path id="패스_41-2" data-name="패스 41" d="M.8,15.709A13.146,13.146,0,0,1,0,11.85,12.847,12.847,0,0,1,1.107,8.083,12.239,12.239,0,0,1,2.948,4.739,12.06,12.06,0,0,1,5.66,2.062,12.257,12.257,0,0,1,9.015.166C10.272-.225,11.6.2,12.848.212a12.147,12.147,0,0,1,3.783.2A12.205,12.205,0,0,1,19.874,2.4c1.016.757,2.316,1.317,3.065,2.375.721,1.02.65,2.479,1.041,3.736a12.106,12.106,0,0,1,.854,3.663,12.177,12.177,0,0,1-.578,3.766,12.163,12.163,0,0,1-1.908,3.286,11.8,11.8,0,0,1-2.73,2.585,11.774,11.774,0,0,1-3.425,1.471,12.419,12.419,0,0,1-3.659.99A12.144,12.144,0,0,1,8.8,23.494a12.043,12.043,0,0,1-3.306-1.833,11.688,11.688,0,0,1-2.454-2.82C2.317,17.82,1.19,16.968.8,15.709Z" transform="translate(0 0)" fill="#fff"/>
          </g>
          <g id="그룹_77-2" data-name="그룹 77" transform="translate(9.509 6.474)">
            <path id="패스_42-2" data-name="패스 42" d="M.417,8.217A6.949,6.949,0,0,1,0,6.2,6.7,6.7,0,0,1,.58,4.228a6.364,6.364,0,0,1,.963-1.751,6.3,6.3,0,0,1,1.418-1.4A6.418,6.418,0,0,1,4.715.086,6.415,6.415,0,0,1,6.72.11,6.361,6.361,0,0,1,8.7.216a6.4,6.4,0,0,1,1.694,1.039A6.539,6.539,0,0,1,12,2.5a6.871,6.871,0,0,1,.546,1.954,6.27,6.27,0,0,1,.447,1.915,6.347,6.347,0,0,1-.3,1.971,6.373,6.373,0,0,1-1,1.718,6.167,6.167,0,0,1-1.429,1.352,6.11,6.11,0,0,1-1.791.768,6.4,6.4,0,0,1-1.914.518A6.286,6.286,0,0,1,4.6,12.287a6.265,6.265,0,0,1-1.729-.959A6.111,6.111,0,0,1,1.588,9.854,6.442,6.442,0,0,1,.417,8.217Z" transform="translate(0 0)" fill="#161615"/>
          </g>
          <g id="그룹_78-2" data-name="그룹 78" transform="translate(39.012 29.942)">
            <path id="패스_43-2" data-name="패스 43" d="M.418,8.217A6.83,6.83,0,0,1,0,6.2a6.753,6.753,0,0,1,.578-1.97,6.417,6.417,0,0,1,.964-1.751,6.339,6.339,0,0,1,1.416-1.4A6.469,6.469,0,0,1,4.715.086,6.351,6.351,0,0,1,6.721.112a6.3,6.3,0,0,1,1.98.1,6.425,6.425,0,0,1,1.694,1.039A6.554,6.554,0,0,1,12,2.5a6.933,6.933,0,0,1,.545,1.954,6.32,6.32,0,0,1,.447,1.916,6.337,6.337,0,0,1-.3,1.971,6.422,6.422,0,0,1-1,1.718,6.2,6.2,0,0,1-1.429,1.352,6.173,6.173,0,0,1-1.791.77,6.537,6.537,0,0,1-1.914.518A6.355,6.355,0,0,1,4.6,12.288a6.268,6.268,0,0,1-1.729-.959A6.1,6.1,0,0,1,1.588,9.855,6.414,6.414,0,0,1,.418,8.217Z" transform="translate(0 0)" fill="#161615"/>
          </g>
        </g>
      </g>
    </g>
    <g id="그룹_354" data-name="그룹 354" transform="translate(354.171 309.772) rotate(-93)">
      <g id="그룹_72-3" data-name="그룹 72" transform="translate(0 0)">
        <path id="패스_38-3" data-name="패스 38" d="M5.878,4.683C-7.383,15.1,5.629,20.725,7.818,37.447s-1.726,17.236.461,33.958,5.349,16.31,7.537,33.034,2.423,16.692,4.61,33.416,8.323,15.923,10.511,32.648-15.775,29.4.247,34.674c17.343,5.706,16-10.205,30.35-21.488s11.82-14.506,26.174-25.789,16.414-8.663,30.768-19.947,9.86-17,24.214-28.282,15.35-10.021,29.705-21.306,32.461-1.045,30.1-19.152c-2.256-17.266-16.634-1.721-33.174-7.161s-14.449-11.8-30.99-17.241-18.545.649-35.086-4.791-14.891-10.458-31.433-15.9S53.849,22.535,38.986,13.458C23.135,3.778,19.571-6.078,5.878,4.683Z" fill="#69a71b"/>
      </g>
      <g id="그룹_74-3" data-name="그룹 74" transform="translate(23.347 14.74)" opacity="0.2">
        <g id="그룹_73-3" data-name="그룹 73" transform="translate(0 0)">
          <path id="패스_39-3" data-name="패스 39" d="M48.56,15.218a10.845,10.845,0,0,0-2.7-.931c-1.637-.4-3.28-.779-4.923-1.15-3.289-.74-6.583-1.452-9.851-2.279A71.088,71.088,0,0,1,15.9,5.443C12.263,3.57,8.809,1.2,4.843.2,3.025-.257.515-.019.062,1.8A3.63,3.63,0,0,0,.675,4.365c2.73,4.866,7.645,8.164,12.8,10.288s10.668,3.238,16.009,4.856c7.58,2.3,14.925,5.637,22.792,6.552a3.964,3.964,0,0,0,1.942-.114c1.34-.539,1.746-2.36,1.223-3.705a7.449,7.449,0,0,0-2.55-2.983c-1.133-.893-2.018-2.122-3.079-3.123A6.07,6.07,0,0,0,48.56,15.218Z" fill="#fff"/>
        </g>
      </g>
      <g id="그룹_80-3" data-name="그룹 80" transform="translate(44.943 42.127)">
        <g id="그룹_79-3" data-name="그룹 79" transform="translate(0 0)">
          <g id="그룹_75-3" data-name="그룹 75" transform="translate(15.564 0)">
            <path id="패스_40-3" data-name="패스 40" d="M.421,4.518A6.891,6.891,0,0,0,0,6.553,6.744,6.744,0,0,0,.584,8.54,6.461,6.461,0,0,0,1.555,10.3a6.361,6.361,0,0,0,1.429,1.412,6.5,6.5,0,0,0,1.77,1,6.379,6.379,0,0,0,2.023-.024,6.409,6.409,0,0,0,2-.105,6.446,6.446,0,0,0,1.71-1.049A6.634,6.634,0,0,0,12.1,10.285a6.944,6.944,0,0,0,.549-1.971A6.325,6.325,0,0,0,13.1,6.382,6.406,6.406,0,0,0,12.8,4.4a6.449,6.449,0,0,0-1.007-1.734A6.226,6.226,0,0,0,10.349,1.3,6.206,6.206,0,0,0,8.542.523,6.521,6.521,0,0,0,6.612,0,6.4,6.4,0,0,0,4.641.41,6.347,6.347,0,0,0,2.9,1.378,6.176,6.176,0,0,0,1.6,2.865,6.423,6.423,0,0,0,.421,4.518Z" transform="translate(0)" fill="#fff"/>
          </g>
          <g id="그룹_76-3" data-name="그룹 76" transform="translate(0 12.381)">
            <path id="패스_41-3" data-name="패스 41" d="M.421,4.517A6.932,6.932,0,0,0,0,6.553,6.772,6.772,0,0,0,.584,8.541,6.463,6.463,0,0,0,1.555,10.3a6.364,6.364,0,0,0,1.43,1.412,6.466,6.466,0,0,0,1.77,1,6.375,6.375,0,0,0,2.022-.024,6.41,6.41,0,0,0,2-.105,6.438,6.438,0,0,0,1.71-1.049A6.627,6.627,0,0,0,12.1,10.285a6.975,6.975,0,0,0,.549-1.971A6.388,6.388,0,0,0,13.1,6.382,6.424,6.424,0,0,0,12.8,4.4a6.42,6.42,0,0,0-1.007-1.733A6.224,6.224,0,0,0,10.349,1.3,6.211,6.211,0,0,0,8.542.522,6.552,6.552,0,0,0,6.612,0,6.409,6.409,0,0,0,4.641.41,6.355,6.355,0,0,0,2.9,1.378,6.168,6.168,0,0,0,1.6,2.865,6.461,6.461,0,0,0,.421,4.517Z" transform="translate(0 0)" fill="#fff"/>
          </g>
          <g id="그룹_77-3" data-name="그룹 77" transform="translate(5.016 15.074)">
            <path id="패스_42-3" data-name="패스 42" d="M.22,2.362A3.667,3.667,0,0,0,0,3.428,3.536,3.536,0,0,0,.306,4.466a3.359,3.359,0,0,0,.508.924,3.326,3.326,0,0,0,.748.738,3.386,3.386,0,0,0,.926.523,3.383,3.383,0,0,0,1.058-.012A3.358,3.358,0,0,0,4.59,6.583a3.374,3.374,0,0,0,.894-.548,3.446,3.446,0,0,0,.845-.655,3.624,3.624,0,0,0,.288-1.031,3.307,3.307,0,0,0,.235-1.01A3.344,3.344,0,0,0,6.693,2.3a3.365,3.365,0,0,0-.526-.906A3.252,3.252,0,0,0,5.413.679,3.223,3.223,0,0,0,4.468.273,3.379,3.379,0,0,0,3.458,0,3.32,3.32,0,0,0,2.428.215,3.3,3.3,0,0,0,1.515.72,3.219,3.219,0,0,0,.838,1.5,3.4,3.4,0,0,0,.22,2.362Z" transform="translate(0 0)" fill="#161615"/>
          </g>
          <g id="그룹_78-3" data-name="그룹 78" transform="translate(20.58 2.692)">
            <path id="패스_43-3" data-name="패스 43" d="M.22,2.363A3.6,3.6,0,0,0,0,3.428,3.556,3.556,0,0,0,.305,4.467a3.385,3.385,0,0,0,.509.924,3.344,3.344,0,0,0,.747.738,3.406,3.406,0,0,0,.927.523,3.352,3.352,0,0,0,1.058-.014A3.323,3.323,0,0,0,4.59,6.584a3.393,3.393,0,0,0,.894-.548,3.462,3.462,0,0,0,.845-.655,3.66,3.66,0,0,0,.288-1.031,3.336,3.336,0,0,0,.235-1.011A3.343,3.343,0,0,0,6.693,2.3a3.387,3.387,0,0,0-.526-.906A3.271,3.271,0,0,0,5.413.68,3.259,3.259,0,0,0,4.468.273,3.452,3.452,0,0,0,3.459,0,3.349,3.349,0,0,0,2.428.215a3.31,3.31,0,0,0-.912.506A3.223,3.223,0,0,0,.838,1.5,3.387,3.387,0,0,0,.22,2.363Z" transform="translate(0)" fill="#161615"/>
          </g>
        </g>
      </g>
    </g>
    <g id="그룹_357" data-name="그룹 357" transform="translate(1355.168 255.328) rotate(124)">
      <g id="그룹_72-4" data-name="그룹 72" transform="translate(0 0)">
        <path id="패스_38-4" data-name="패스 38" d="M4.143,142.154c-9.346-7.344-.175-11.306,1.367-23.092s-1.216-12.148.325-23.934,3.77-11.5,5.312-23.283S12.855,60.08,14.4,48.294s5.866-11.223,7.408-23.01S10.686,4.561,21.979.845C34.2-3.177,33.254,8.037,43.369,15.99S51.7,26.214,61.817,34.166,73.386,40.272,83.5,48.225s6.95,11.981,17.066,19.934,10.818,7.063,20.936,15.017,22.878.737,21.211,13.5c-1.59,12.169-11.723,1.213-23.381,5.047s-10.184,8.318-21.842,12.152-13.07-.457-24.729,3.377-10.5,7.371-22.154,11.205-12.657,1.118-23.132,7.515C16.306,142.792,13.794,149.738,4.143,142.154Z" transform="translate(0 0)" fill="#69a71b"/>
      </g>
      <g id="그룹_74-4" data-name="그룹 74" transform="translate(16.455 116.653)" opacity="0.2">
        <g id="그룹_73-4" data-name="그룹 73" transform="translate(0 0)">
          <path id="패스_39-4" data-name="패스 39" d="M34.225,7.687a7.643,7.643,0,0,1-1.9.656c-1.154.284-2.312.549-3.47.81-2.318.522-4.64,1.023-6.943,1.606a50.1,50.1,0,0,0-10.705,3.817c-2.563,1.32-5,2.987-7.793,3.693-1.281.324-3.05.156-3.369-1.127a2.558,2.558,0,0,1,.432-1.806C2.4,11.907,5.864,9.583,9.5,8.086S17.019,5.8,20.783,4.663C26.125,3.044,31.3.691,36.848.045a2.793,2.793,0,0,1,1.369.08,2.035,2.035,0,0,1,.862,2.612,5.25,5.25,0,0,1-1.8,2.1c-.8.629-1.422,1.5-2.17,2.2A4.278,4.278,0,0,1,34.225,7.687Z" transform="translate(0 0)" fill="#fff"/>
        </g>
      </g>
      <g id="그룹_80-4" data-name="그룹 80" transform="translate(31.676 98.013)">
        <g id="그룹_79-4" data-name="그룹 79" transform="translate(0 0)">
          <g id="그룹_75-4" data-name="그룹 75" transform="translate(10.97 8.726)">
            <path id="패스_40-4" data-name="패스 40" d="M.3,5.841A4.856,4.856,0,0,1,0,4.406a4.755,4.755,0,0,1,.411-1.4A4.554,4.554,0,0,1,1.1,1.762,4.483,4.483,0,0,1,2.1.767a4.579,4.579,0,0,1,1.248-.7A4.5,4.5,0,0,1,4.777.079,4.517,4.517,0,0,1,6.184.153,4.544,4.544,0,0,1,7.389.892a4.673,4.673,0,0,1,1.139.883,4.892,4.892,0,0,1,.387,1.389,4.459,4.459,0,0,1,.318,1.362,4.513,4.513,0,0,1-.214,1.4,4.543,4.543,0,0,1-.71,1.222,4.391,4.391,0,0,1-1.015.961,4.374,4.374,0,0,1-1.274.547,4.6,4.6,0,0,1-1.36.368,4.509,4.509,0,0,1-1.389-.289,4.474,4.474,0,0,1-1.229-.682,4.35,4.35,0,0,1-.913-1.048A4.526,4.526,0,0,1,.3,5.841Z" transform="translate(0 0)" fill="#fff"/>
          </g>
          <g id="그룹_76-4" data-name="그룹 76" transform="translate(0 0)">
            <path id="패스_41-4" data-name="패스 41" d="M.3,5.841A4.888,4.888,0,0,1,0,4.406a4.775,4.775,0,0,1,.412-1.4A4.553,4.553,0,0,1,1.1,1.762,4.486,4.486,0,0,1,2.1.767a4.557,4.557,0,0,1,1.248-.7A4.492,4.492,0,0,1,4.777.079,4.517,4.517,0,0,1,6.184.153,4.537,4.537,0,0,1,7.389.893a4.672,4.672,0,0,1,1.139.883,4.916,4.916,0,0,1,.387,1.389,4.5,4.5,0,0,1,.318,1.362,4.529,4.529,0,0,1-.215,1.4,4.526,4.526,0,0,1-.71,1.222,4.387,4.387,0,0,1-1.015.961,4.378,4.378,0,0,1-1.273.547,4.618,4.618,0,0,1-1.361.368,4.517,4.517,0,0,1-1.389-.289,4.479,4.479,0,0,1-1.229-.682,4.348,4.348,0,0,1-.912-1.048A4.554,4.554,0,0,1,.3,5.841Z" transform="translate(0 0)" fill="#fff"/>
          </g>
          <g id="그룹_77-4" data-name="그룹 77" transform="translate(3.535 2.407)">
            <path id="패스_42-4" data-name="패스 42" d="M.155,3.055A2.583,2.583,0,0,1,0,2.3a2.49,2.49,0,0,1,.216-.732A2.366,2.366,0,0,1,.574.921,2.343,2.343,0,0,1,1.1.4,2.387,2.387,0,0,1,1.753.032,2.384,2.384,0,0,1,2.5.041,2.366,2.366,0,0,1,3.235.08a2.38,2.38,0,0,1,.63.386,2.431,2.431,0,0,1,.6.462,2.554,2.554,0,0,1,.2.727,2.333,2.333,0,0,1,.166.712,2.358,2.358,0,0,1-.112.733,2.369,2.369,0,0,1-.371.639,2.292,2.292,0,0,1-.531.5,2.271,2.271,0,0,1-.666.286,2.381,2.381,0,0,1-.711.193,2.339,2.339,0,0,1-.727-.151,2.328,2.328,0,0,1-.643-.357A2.271,2.271,0,0,1,.59,3.664,2.394,2.394,0,0,1,.155,3.055Z" transform="translate(0 0)" fill="#161615"/>
          </g>
          <g id="그룹_78-4" data-name="그룹 78" transform="translate(14.505 11.133)">
            <path id="패스_43-4" data-name="패스 43" d="M.155,3.055A2.538,2.538,0,0,1,0,2.3a2.508,2.508,0,0,1,.215-.732A2.387,2.387,0,0,1,.574.921,2.358,2.358,0,0,1,1.1.4,2.4,2.4,0,0,1,1.753.032,2.361,2.361,0,0,1,2.5.042,2.34,2.34,0,0,1,3.235.08a2.391,2.391,0,0,1,.63.386,2.439,2.439,0,0,1,.6.462,2.576,2.576,0,0,1,.2.726,2.35,2.35,0,0,1,.166.712,2.354,2.354,0,0,1-.112.733,2.388,2.388,0,0,1-.371.639,2.305,2.305,0,0,1-.531.5,2.3,2.3,0,0,1-.666.286,2.431,2.431,0,0,1-.712.193,2.36,2.36,0,0,1-.727-.152,2.333,2.333,0,0,1-.643-.356A2.272,2.272,0,0,1,.59,3.664,2.385,2.385,0,0,1,.155,3.055Z" transform="translate(0 0)" fill="#161615"/>
          </g>
        </g>
      </g>
    </g>
    <g id="그룹_355" data-name="그룹 355" transform="translate(915.949 -915.833) rotate(53)">
      <g id="그룹_72-5" data-name="그룹 72" transform="translate(845.197 711.361)">
        <path id="패스_38-5" data-name="패스 38" d="M852.069,716.836c-15.5,12.182-.291,18.754,2.267,38.3s-2.018,20.15.539,39.7,6.254,19.068,8.811,38.619,2.832,19.515,5.389,39.065,9.73,18.615,12.288,38.168-18.443,34.373.289,40.536c20.275,6.671,18.7-11.93,35.481-25.121s13.818-16.959,30.6-30.15,19.189-10.127,35.97-23.319,11.528-19.873,28.308-33.064,17.945-11.715,34.727-24.908,37.949-1.222,35.183-22.389c-2.637-20.185-19.446-2.012-38.783-8.372s-16.892-13.8-36.229-20.156-21.68.758-41.018-5.6-17.409-12.226-36.747-18.586-20.994-1.854-38.37-12.465C872.244,715.778,868.077,704.256,852.069,716.836Z" transform="translate(-845.197 -711.361)" fill="#69a71b"/>
      </g>
      <g id="그룹_74-5" data-name="그룹 74" transform="translate(872.491 728.593)" opacity="0.2">
        <g id="그룹_73-5" data-name="그룹 73">
          <path id="패스_39-5" data-name="패스 39" d="M926.155,744.423A12.677,12.677,0,0,0,923,743.335c-1.914-.471-3.834-.911-5.756-1.344-3.844-.865-7.7-1.7-11.516-2.664a83.106,83.106,0,0,1-17.757-6.332c-4.251-2.189-8.289-4.955-12.926-6.126-2.125-.537-5.06-.258-5.589,1.87a4.244,4.244,0,0,0,.716,3c3.191,5.689,8.937,9.545,14.969,12.027s12.472,3.786,18.715,5.677c8.861,2.687,17.448,6.59,26.646,7.66a4.633,4.633,0,0,0,2.27-.133c1.566-.63,2.041-2.759,1.43-4.332a8.708,8.708,0,0,0-2.981-3.487c-1.325-1.044-2.359-2.48-3.6-3.651A7.094,7.094,0,0,0,926.155,744.423Z" transform="translate(-869.386 -726.632)" fill="#fff"/>
        </g>
      </g>
      <g id="그룹_80-5" data-name="그룹 80" transform="translate(897.738 760.61)">
        <g id="그룹_79-5" data-name="그룹 79" transform="translate(0)">
          <g id="그룹_75-5" data-name="그룹 75" transform="translate(18.195)">
            <path id="패스_40-5" data-name="패스 40" d="M908.377,760.287a8.057,8.057,0,0,0-.492,2.38,7.886,7.886,0,0,0,.682,2.323,7.551,7.551,0,0,0,1.135,2.063,7.437,7.437,0,0,0,1.671,1.651,7.594,7.594,0,0,0,2.069,1.169,57.9,57.9,0,0,0,4.7-.151,7.538,7.538,0,0,0,2-1.226,7.754,7.754,0,0,0,1.889-1.465,8.112,8.112,0,0,0,.642-2.3,7.394,7.394,0,0,0,.527-2.259,6.309,6.309,0,0,0-1.532-4.349,6.583,6.583,0,0,0-3.8-2.5,7.623,7.623,0,0,0-2.257-.611,7.806,7.806,0,0,0-4.343,1.61,7.216,7.216,0,0,0-1.514,1.739A7.507,7.507,0,0,0,908.377,760.287Z" transform="translate(-907.885 -755.006)" fill="#fff"/>
          </g>
          <g id="그룹_76-5" data-name="그룹 76" transform="translate(0 14.474)">
            <path id="패스_41-5" data-name="패스 41" d="M892.252,773.114a8.107,8.107,0,0,0-.492,2.38,7.923,7.923,0,0,0,.683,2.324,7.55,7.55,0,0,0,1.135,2.063,7.442,7.442,0,0,0,1.672,1.651,7.559,7.559,0,0,0,2.069,1.169,57.893,57.893,0,0,0,4.7-.151,7.53,7.53,0,0,0,2-1.226,7.75,7.75,0,0,0,1.89-1.465,8.158,8.158,0,0,0,.642-2.3,6.259,6.259,0,0,0-1.007-6.608,6.584,6.584,0,0,0-3.8-2.5,7.659,7.659,0,0,0-2.257-.611,7.81,7.81,0,0,0-4.343,1.61,7.212,7.212,0,0,0-1.513,1.739A7.554,7.554,0,0,0,892.252,773.114Z" transform="translate(-891.76 -767.833)" fill="#fff"/>
          </g>
          <g id="그룹_77-5" data-name="그룹 77" transform="translate(5.864 17.622)">
            <path id="패스_42-5" data-name="패스 42" d="M897.214,773.384a4.286,4.286,0,0,0-.257,1.246,4.129,4.129,0,0,0,.358,1.214,3.736,3.736,0,0,0,6.053,1.833,4.032,4.032,0,0,0,.988-.766,4.238,4.238,0,0,0,.337-1.205,3.871,3.871,0,0,0,.275-1.181,3.3,3.3,0,0,0-.8-2.275,3.443,3.443,0,0,0-1.986-1.308,3.948,3.948,0,0,0-1.18-.319,4.08,4.08,0,0,0-2.271.842,3.766,3.766,0,0,0-.792.909A3.975,3.975,0,0,0,897.214,773.384Z" transform="translate(-896.957 -770.623)" fill="#161615"/>
          </g>
          <g id="그룹_78-5" data-name="그룹 78" transform="translate(24.06 3.147)">
            <path id="패스_43-5" data-name="패스 43" d="M913.339,760.557a4.208,4.208,0,0,0-.257,1.245,4.16,4.16,0,0,0,.357,1.215,3.958,3.958,0,0,0,.595,1.08,3.91,3.91,0,0,0,.874.863,3.984,3.984,0,0,0,1.083.612,31.124,31.124,0,0,0,2.458-.08,3.965,3.965,0,0,0,1.045-.641,4.045,4.045,0,0,0,.988-.766,4.273,4.273,0,0,0,.336-1.2,3.225,3.225,0,0,0,.089-2.4,3.961,3.961,0,0,0-.615-1.06,3.453,3.453,0,0,0-1.986-1.309,4.035,4.035,0,0,0-1.18-.319,3.917,3.917,0,0,0-1.205.252,3.867,3.867,0,0,0-1.066.591,3.767,3.767,0,0,0-.792.909A3.957,3.957,0,0,0,913.339,760.557Z" transform="translate(-913.082 -757.795)" fill="#161615"/>
          </g>
        </g>
      </g>
    </g>
    <g id="그룹_359" data-name="그룹 359" transform="matrix(-0.602, 0.799, -0.799, -0.602, 1898.065, 204.165)">
      <g id="그룹_72-6" data-name="그룹 72" transform="translate(0 0)">
        <path id="패스_38-6" data-name="패스 38" d="M5.093,174.76c-11.49-9.029-.216-13.9,1.68-28.389s-1.5-14.934.4-29.423,4.635-14.132,6.531-28.623S15.8,73.861,17.7,59.371s7.212-13.8,9.108-28.288S13.137,5.607,27.02,1.039c15.027-4.944,13.861,8.842,26.3,18.619S63.559,32.227,76,42s14.222,7.506,26.659,17.283,8.544,14.729,20.981,24.506,13.3,8.683,25.738,18.461,28.126.906,26.076,16.594c-1.954,14.96-14.412,1.491-28.744,6.2s-12.52,10.226-26.852,14.939-16.068-.562-30.4,4.151-12.9,9.062-27.236,13.775-15.56,1.374-28.438,9.239C20.046,175.544,16.957,184.084,5.093,174.76Z" transform="translate(0 0)" fill="#69a71b"/>
      </g>
      <g id="그룹_74-6" data-name="그룹 74" transform="translate(20.23 143.409)" opacity="0.2">
        <g id="그룹_73-6" data-name="그룹 73" transform="translate(0 0)">
          <path id="패스_39-6" data-name="패스 39" d="M42.075,9.45a9.4,9.4,0,0,1-2.337.807c-1.418.349-2.842.675-4.266,1-2.849.641-5.7,1.258-8.536,1.974a61.6,61.6,0,0,0-13.161,4.693c-3.15,1.622-6.144,3.672-9.58,4.54-1.575.4-3.75.191-4.142-1.386a3.145,3.145,0,0,1,.531-2.22C2.95,14.638,7.208,11.78,11.679,9.94S20.923,7.135,25.55,5.733C32.118,3.742,38.482.849,45.3.056a3.434,3.434,0,0,1,1.683.1,2.5,2.5,0,0,1,1.06,3.211,6.454,6.454,0,0,1-2.21,2.584c-.982.774-1.749,1.838-2.668,2.706A5.258,5.258,0,0,1,42.075,9.45Z" transform="translate(0 0)" fill="#fff"/>
        </g>
      </g>
      <g id="그룹_80-6" data-name="그룹 80" transform="translate(38.942 120.494)">
        <g id="그룹_79-6" data-name="그룹 79" transform="translate(0 0)">
          <g id="그룹_75-6" data-name="그룹 75" transform="translate(13.486 10.728)">
            <path id="패스_40-6" data-name="패스 40" d="M.365,7.181A5.972,5.972,0,0,1,0,5.417,5.845,5.845,0,0,1,.506,3.695a5.6,5.6,0,0,1,.841-1.529A5.512,5.512,0,0,1,2.586.943,5.629,5.629,0,0,1,4.12.076,5.531,5.531,0,0,1,5.873.1,5.553,5.553,0,0,1,7.6.188,5.587,5.587,0,0,1,9.084,1.1a5.747,5.747,0,0,1,1.4,1.086,6.012,6.012,0,0,1,.476,1.708,5.48,5.48,0,0,1,.391,1.674,5.547,5.547,0,0,1-.264,1.721,5.585,5.585,0,0,1-.872,1.5A5.4,5.4,0,0,1,8.967,9.97a5.379,5.379,0,0,1-1.566.672,5.649,5.649,0,0,1-1.672.453,5.544,5.544,0,0,1-1.708-.355A5.5,5.5,0,0,1,2.51,9.9,5.348,5.348,0,0,1,1.388,8.612,5.564,5.564,0,0,1,.365,7.181Z" transform="translate(0 0)" fill="#fff"/>
          </g>
          <g id="그룹_76-6" data-name="그룹 76" transform="translate(0 0)">
            <path id="패스_41-6" data-name="패스 41" d="M.365,7.181A6.008,6.008,0,0,1,0,5.417,5.872,5.872,0,0,1,.506,3.695a5.6,5.6,0,0,1,.841-1.529A5.516,5.516,0,0,1,2.587.943,5.6,5.6,0,0,1,4.121.076,5.52,5.52,0,0,1,5.873.1,5.553,5.553,0,0,1,7.6.188,5.581,5.581,0,0,1,9.084,1.1a5.744,5.744,0,0,1,1.4,1.086,6.046,6.046,0,0,1,.476,1.708,5.539,5.539,0,0,1,.39,1.674,5.569,5.569,0,0,1-.264,1.721,5.566,5.566,0,0,1-.872,1.5A5.4,5.4,0,0,1,8.967,9.97a5.381,5.381,0,0,1-1.566.672,5.676,5.676,0,0,1-1.673.453,5.552,5.552,0,0,1-1.708-.355A5.5,5.5,0,0,1,2.51,9.9,5.346,5.346,0,0,1,1.389,8.612,5.6,5.6,0,0,1,.365,7.181Z" transform="translate(0 0)" fill="#fff"/>
          </g>
          <g id="그룹_77-6" data-name="그룹 77" transform="translate(4.346 2.959)">
            <path id="패스_42-6" data-name="패스 42" d="M.191,3.756A3.177,3.177,0,0,1,0,2.832a3.06,3.06,0,0,1,.265-.9,2.906,2.906,0,0,1,.44-.8,2.879,2.879,0,0,1,.648-.64,2.932,2.932,0,0,1,.8-.453A2.932,2.932,0,0,1,3.072.05,2.908,2.908,0,0,1,3.977.1a2.925,2.925,0,0,1,.774.475,2.989,2.989,0,0,1,.732.568,3.141,3.141,0,0,1,.25.893,2.869,2.869,0,0,1,.2.876,2.9,2.9,0,0,1-.138.9,2.911,2.911,0,0,1-.456.785,2.818,2.818,0,0,1-.653.618,2.791,2.791,0,0,1-.819.351A2.926,2.926,0,0,1,3,5.8,2.875,2.875,0,0,1,2.1,5.617a2.862,2.862,0,0,1-.79-.438A2.791,2.791,0,0,1,.726,4.5,2.946,2.946,0,0,1,.191,3.756Z" transform="translate(0 0)" fill="#161615"/>
          </g>
          <g id="그룹_78-6" data-name="그룹 78" transform="translate(17.832 13.686)">
            <path id="패스_43-6" data-name="패스 43" d="M.191,3.756A3.119,3.119,0,0,1,0,2.833a3.083,3.083,0,0,1,.264-.9,2.933,2.933,0,0,1,.441-.8,2.9,2.9,0,0,1,.647-.64,2.953,2.953,0,0,1,.8-.453,2.9,2.9,0,0,1,.916.012,2.88,2.88,0,0,1,.9.047,2.939,2.939,0,0,1,.775.475,3,3,0,0,1,.732.568,3.167,3.167,0,0,1,.249.893,2.889,2.889,0,0,1,.2.876,2.9,2.9,0,0,1-.138.9,2.936,2.936,0,0,1-.456.785,2.833,2.833,0,0,1-.653.618,2.822,2.822,0,0,1-.819.352A2.991,2.991,0,0,1,3,5.8,2.9,2.9,0,0,1,2.1,5.617a2.866,2.866,0,0,1-.79-.438A2.792,2.792,0,0,1,.726,4.5,2.933,2.933,0,0,1,.191,3.756Z" transform="translate(0 0)" fill="#161615"/>
          </g>
        </g>
      </g>
    </g>
    <g id="그룹_356" data-name="그룹 356" transform="translate(1813.082 682.195) rotate(142)">
      <g id="그룹_72-7" data-name="그룹 72" transform="translate(845.197 711.361)">
        <path id="패스_38-7" data-name="패스 38" d="M849.077,714.452c-8.753,6.878-.164,10.589,1.28,21.627s-1.139,11.377.3,22.415,3.531,10.766,4.975,21.806,1.6,11.018,3.043,22.057,5.494,10.511,6.938,21.551-10.413,19.408.163,22.888c11.448,3.767,10.56-6.736,20.034-14.184s7.8-9.575,17.277-17.023,10.835-5.718,20.31-13.167,6.509-11.221,15.984-18.669,10.132-6.615,19.608-14.064,21.427-.69,19.866-12.642c-1.489-11.4-10.979-1.136-21.9-4.727s-9.538-7.79-20.456-11.381-12.241.428-23.16-3.163-9.83-6.9-20.749-10.494-11.854-1.047-21.665-7.038C860.468,713.855,858.115,707.349,849.077,714.452Z" transform="translate(-845.197 -711.361)" fill="#69a71b"/>
      </g>
      <g id="그룹_74-7" data-name="그룹 74" transform="translate(860.608 721.091)" opacity="0.2">
        <g id="그룹_73-7" data-name="그룹 73">
          <path id="패스_39-7" data-name="패스 39" d="M901.44,736.678a7.161,7.161,0,0,0-1.78-.615c-1.081-.266-2.165-.514-3.25-.759-2.171-.489-4.345-.958-6.5-1.5a46.927,46.927,0,0,1-10.026-3.575c-2.4-1.236-4.68-2.8-7.3-3.459-1.2-.3-2.857-.146-3.156,1.056a2.4,2.4,0,0,0,.4,1.692c1.8,3.212,5.046,5.389,8.452,6.791s7.042,2.138,10.567,3.205c5,1.517,9.852,3.721,15.045,4.325a2.617,2.617,0,0,0,1.282-.075,1.906,1.906,0,0,0,.807-2.446,4.917,4.917,0,0,0-1.683-1.969c-.748-.589-1.332-1.4-2.032-2.061A4.009,4.009,0,0,0,901.44,736.678Z" transform="translate(-869.386 -726.632)" fill="#fff"/>
        </g>
      </g>
      <g id="그룹_80-7" data-name="그룹 80" transform="translate(874.863 739.168)">
        <g id="그룹_79-7" data-name="그룹 79" transform="translate(0)">
          <g id="그룹_75-7" data-name="그룹 75" transform="translate(10.274)">
            <path id="패스_40-7" data-name="패스 40" d="M908.163,757.988a4.55,4.55,0,0,0-.278,1.344,4.451,4.451,0,0,0,.385,1.312,4.262,4.262,0,0,0,.641,1.165,4.2,4.2,0,0,0,.943.932,4.29,4.29,0,0,0,1.169.66,32.731,32.731,0,0,0,2.653-.086,4.257,4.257,0,0,0,1.129-.692,4.381,4.381,0,0,0,1.067-.827,4.581,4.581,0,0,0,.363-1.3,4.181,4.181,0,0,0,.3-1.275,3.562,3.562,0,0,0-.865-2.456,3.716,3.716,0,0,0-2.143-1.412,4.3,4.3,0,0,0-1.274-.345,4.408,4.408,0,0,0-2.452.909,4.073,4.073,0,0,0-.855.982A4.236,4.236,0,0,0,908.163,757.988Z" transform="translate(-907.885 -755.006)" fill="#fff"/>
          </g>
          <g id="그룹_76-7" data-name="그룹 76" transform="translate(0 8.172)">
            <path id="패스_41-7" data-name="패스 41" d="M892.037,770.815a4.578,4.578,0,0,0-.278,1.344,4.474,4.474,0,0,0,.385,1.312,4.265,4.265,0,0,0,.641,1.165,4.2,4.2,0,0,0,.944.932,4.271,4.271,0,0,0,1.168.66,32.651,32.651,0,0,0,2.652-.086,4.251,4.251,0,0,0,1.129-.692,4.375,4.375,0,0,0,1.067-.827,4.6,4.6,0,0,0,.363-1.3,3.534,3.534,0,0,0-.569-3.731,3.716,3.716,0,0,0-2.143-1.412,4.324,4.324,0,0,0-1.274-.345,4.41,4.41,0,0,0-2.452.909,4.073,4.073,0,0,0-.854.982A4.268,4.268,0,0,0,892.037,770.815Z" transform="translate(-891.76 -767.833)" fill="#fff"/>
          </g>
          <g id="그룹_77-7" data-name="그룹 77" transform="translate(3.311 9.95)">
            <path id="패스_42-7" data-name="패스 42" d="M897.1,772.182a2.421,2.421,0,0,0-.145.7,2.33,2.33,0,0,0,.2.686,2.412,2.412,0,0,0,.829,1.1,2.011,2.011,0,0,0,2.589-.062,2.276,2.276,0,0,0,.558-.433,2.392,2.392,0,0,0,.19-.68,2.187,2.187,0,0,0,.155-.667,1.865,1.865,0,0,0-.452-1.284,1.944,1.944,0,0,0-1.121-.738,2.231,2.231,0,0,0-.666-.18,2.3,2.3,0,0,0-1.283.475,2.125,2.125,0,0,0-.447.513A2.245,2.245,0,0,0,897.1,772.182Z" transform="translate(-896.957 -770.623)" fill="#161615"/>
          </g>
          <g id="그룹_78-7" data-name="그룹 78" transform="translate(13.585 1.777)">
            <path id="패스_43-7" data-name="패스 43" d="M913.227,759.355a1.478,1.478,0,0,0,.056,1.389,2.237,2.237,0,0,0,.336.61,2.207,2.207,0,0,0,.493.487,2.252,2.252,0,0,0,.612.345,17.53,17.53,0,0,0,1.388-.045,2.237,2.237,0,0,0,.59-.362,2.282,2.282,0,0,0,.558-.433,2.416,2.416,0,0,0,.19-.68,1.822,1.822,0,0,0,.05-1.353,2.235,2.235,0,0,0-.347-.6,1.95,1.95,0,0,0-1.121-.739,2.277,2.277,0,0,0-.667-.18,2.213,2.213,0,0,0-.68.142,2.185,2.185,0,0,0-.6.334,2.126,2.126,0,0,0-.447.514A2.231,2.231,0,0,0,913.227,759.355Z" transform="translate(-913.082 -757.795)" fill="#161615"/>
          </g>
        </g>
      </g>
    </g>
    <g id="그룹_360" data-name="그룹 360" transform="translate(1041.421 1295.007) rotate(-83)">
      <g id="그룹_72-8" data-name="그룹 72" transform="translate(845.197 711.361)">
        <path id="패스_38-8" data-name="패스 38" d="M849.077,714.452c-8.753,6.878-.164,10.589,1.28,21.627s-1.139,11.377.3,22.415,3.531,10.766,4.975,21.806,1.6,11.018,3.043,22.057,5.494,10.511,6.938,21.551-10.413,19.408.163,22.888c11.448,3.767,10.56-6.736,20.034-14.184s7.8-9.575,17.277-17.023,10.835-5.718,20.31-13.167,6.509-11.221,15.984-18.669,10.132-6.615,19.608-14.064,21.427-.69,19.866-12.642c-1.489-11.4-10.979-1.136-21.9-4.727s-9.538-7.79-20.456-11.381-12.241.428-23.16-3.163-9.83-6.9-20.749-10.494-11.854-1.047-21.665-7.038C860.468,713.855,858.115,707.349,849.077,714.452Z" transform="translate(-845.197 -711.361)" fill="#69a71b"/>
      </g>
      <g id="그룹_74-8" data-name="그룹 74" transform="translate(860.608 721.091)" opacity="0.2">
        <g id="그룹_73-8" data-name="그룹 73">
          <path id="패스_39-8" data-name="패스 39" d="M901.44,736.678a7.161,7.161,0,0,0-1.78-.615c-1.081-.266-2.165-.514-3.25-.759-2.171-.489-4.345-.958-6.5-1.5a46.927,46.927,0,0,1-10.026-3.575c-2.4-1.236-4.68-2.8-7.3-3.459-1.2-.3-2.857-.146-3.156,1.056a2.4,2.4,0,0,0,.4,1.692c1.8,3.212,5.046,5.389,8.452,6.791s7.042,2.138,10.567,3.205c5,1.517,9.852,3.721,15.045,4.325a2.617,2.617,0,0,0,1.282-.075,1.906,1.906,0,0,0,.807-2.446,4.917,4.917,0,0,0-1.683-1.969c-.748-.589-1.332-1.4-2.032-2.061A4.009,4.009,0,0,0,901.44,736.678Z" transform="translate(-869.386 -726.632)" fill="#fff"/>
        </g>
      </g>
      <g id="그룹_80-8" data-name="그룹 80" transform="translate(874.863 739.168)">
        <g id="그룹_79-8" data-name="그룹 79" transform="translate(0)">
          <g id="그룹_75-8" data-name="그룹 75" transform="translate(10.274)">
            <path id="패스_40-8" data-name="패스 40" d="M908.163,757.988a4.55,4.55,0,0,0-.278,1.344,4.451,4.451,0,0,0,.385,1.312,4.262,4.262,0,0,0,.641,1.165,4.2,4.2,0,0,0,.943.932,4.29,4.29,0,0,0,1.169.66,32.731,32.731,0,0,0,2.653-.086,4.257,4.257,0,0,0,1.129-.692,4.381,4.381,0,0,0,1.067-.827,4.581,4.581,0,0,0,.363-1.3,4.181,4.181,0,0,0,.3-1.275,3.562,3.562,0,0,0-.865-2.456,3.716,3.716,0,0,0-2.143-1.412,4.3,4.3,0,0,0-1.274-.345,4.408,4.408,0,0,0-2.452.909,4.073,4.073,0,0,0-.855.982A4.236,4.236,0,0,0,908.163,757.988Z" transform="translate(-907.885 -755.006)" fill="#fff"/>
          </g>
          <g id="그룹_76-8" data-name="그룹 76" transform="translate(0 8.172)">
            <path id="패스_41-8" data-name="패스 41" d="M892.037,770.815a4.578,4.578,0,0,0-.278,1.344,4.474,4.474,0,0,0,.385,1.312,4.265,4.265,0,0,0,.641,1.165,4.2,4.2,0,0,0,.944.932,4.271,4.271,0,0,0,1.168.66,32.651,32.651,0,0,0,2.652-.086,4.251,4.251,0,0,0,1.129-.692,4.375,4.375,0,0,0,1.067-.827,4.6,4.6,0,0,0,.363-1.3,3.534,3.534,0,0,0-.569-3.731,3.716,3.716,0,0,0-2.143-1.412,4.324,4.324,0,0,0-1.274-.345,4.41,4.41,0,0,0-2.452.909,4.073,4.073,0,0,0-.854.982A4.268,4.268,0,0,0,892.037,770.815Z" transform="translate(-891.76 -767.833)" fill="#fff"/>
          </g>
          <g id="그룹_77-8" data-name="그룹 77" transform="translate(3.311 9.95)">
            <path id="패스_42-8" data-name="패스 42" d="M897.1,772.182a2.421,2.421,0,0,0-.145.7,2.33,2.33,0,0,0,.2.686,2.412,2.412,0,0,0,.829,1.1,2.011,2.011,0,0,0,2.589-.062,2.276,2.276,0,0,0,.558-.433,2.392,2.392,0,0,0,.19-.68,2.187,2.187,0,0,0,.155-.667,1.865,1.865,0,0,0-.452-1.284,1.944,1.944,0,0,0-1.121-.738,2.231,2.231,0,0,0-.666-.18,2.3,2.3,0,0,0-1.283.475,2.125,2.125,0,0,0-.447.513A2.245,2.245,0,0,0,897.1,772.182Z" transform="translate(-896.957 -770.623)" fill="#161615"/>
          </g>
          <g id="그룹_78-8" data-name="그룹 78" transform="translate(13.585 1.777)">
            <path id="패스_43-8" data-name="패스 43" d="M913.227,759.355a1.478,1.478,0,0,0,.056,1.389,2.237,2.237,0,0,0,.336.61,2.207,2.207,0,0,0,.493.487,2.252,2.252,0,0,0,.612.345,17.53,17.53,0,0,0,1.388-.045,2.237,2.237,0,0,0,.59-.362,2.282,2.282,0,0,0,.558-.433,2.416,2.416,0,0,0,.19-.68,1.822,1.822,0,0,0,.05-1.353,2.235,2.235,0,0,0-.347-.6,1.95,1.95,0,0,0-1.121-.739,2.277,2.277,0,0,0-.667-.18,2.213,2.213,0,0,0-.68.142,2.185,2.185,0,0,0-.6.334,2.126,2.126,0,0,0-.447.514A2.231,2.231,0,0,0,913.227,759.355Z" transform="translate(-913.082 -757.795)" fill="#161615"/>
          </g>
        </g>
      </g>
    </g>
  </g>
</svg>
