<svg xmlns="http://www.w3.org/2000/svg" width="2001.826" height="675.352" viewBox="0 0 2001.826 675.352">
  <g id="그룹_163" data-name="그룹 163" transform="translate(112.482 49.124)">
    <g id="그룹_156" data-name="그룹 156" transform="translate(183.498 -537.492)">
      <g id="그룹_56" data-name="그룹 56" transform="translate(183.869 683.575)">
        <g id="그룹_49" data-name="그룹 49" transform="translate(0 0)">
          <path id="패스_24" data-name="패스 24" d="M318.659,923.985c4.457-3.34,8.694-6.426,11.829-10.932a52.232,52.232,0,0,0,7.479-14.625c1.612-5.294,2.976-10.762,2.891-16.45-.081-5.487-2.866-10.513-4.7-16.015s-3.511-10.521-6.733-14.964a52.641,52.641,0,0,0-11.449-11.854,83.07,83.07,0,0,0-7.726-5.159,53.292,53.292,0,0,0,5.021-15.431,54.906,54.906,0,0,0,.562-16.75c-.766-5.525-.624-11.859-3.077-17-2.366-4.964-6.622-9.492-10.565-13.708s-9.927-5.417-14.676-8.061l-1.408-.784a97.329,97.329,0,0,0,3.32-10.646c1.5-5.552-.6-11.412-.843-16.9-.252-5.685-.422-11.041-2.346-16.282a54.3,54.3,0,0,0-7.726-14.737c-3.4-4.408-7.077-8.708-11.727-11.911-4.487-3.092-10.085-3.634-15.547-5.256s-10.446-3.095-15.815-2.932a49.43,49.43,0,0,0-15.889,2.842c-5.153,1.9-10.223,3.961-14.529,7.4A51.644,51.644,0,0,0,194.18,706.21c-2.956,4.534-3.9,9.932-5.4,15.484s-5.14,10.718-4.9,16.2c.252,5.684,3.666,10.889,5.59,16.13,1.943,5.294,3.691,10.7,7.125,15.148,3.4,4.409,8.59,6.713,13.24,9.917,2.526,1.739,4.844,4.008,7.362,5.949a50.075,50.075,0,0,0-4.515,13.616c-.94,5.526-1.705,11.061-.932,16.642a54.787,54.787,0,0,0,5.1,15.981c2.367,4.964,6.455,8.607,10.4,12.822s6.506,10.108,11.256,12.751a16.492,16.492,0,0,0,2.647,1.165,31.921,31.921,0,0,0-3.369,7.246c-1.612,5.294-.488,10.944-.4,16.631.082,5.489-1.566,11.341.264,16.843s5.333,10.193,8.555,14.635a58.373,58.373,0,0,0,26.437,19.667c5.209,1.729,10.76,4.653,16.328,4.657,5.373,0,11.139-1.931,16.5-3.713S314.359,927.206,318.659,923.985Z" transform="translate(-183.869 -683.575)" fill="#4fb2ab"/>
        </g>
        <g id="그룹_55" data-name="그룹 55" transform="translate(25.291 14.865)">
          <g id="그룹_54" data-name="그룹 54">
            <g id="그룹_50" data-name="그룹 50" transform="translate(0 4.863)">
              <path id="패스_25" data-name="패스 25" d="M218.7,703.035a8,8,0,0,1,2.126,1.111,7.8,7.8,0,0,1,1.349,1.973,7.47,7.47,0,0,1,.868,2.156,7.386,7.386,0,0,1,.217,2.309,7.5,7.5,0,0,1-.4,2.312,57.766,57.766,0,0,1-3.051,3.5,7.429,7.429,0,0,1-2.187.76,7.608,7.608,0,0,1-2.3.53,8.03,8.03,0,0,1-2.161-.948,6.179,6.179,0,0,1-4.422-4.9,7.212,7.212,0,0,1-.167-2.284,7.14,7.14,0,0,1,.627-2.18,7.492,7.492,0,0,1,.943-2.106,7.361,7.361,0,0,1,1.806-1.461,7.288,7.288,0,0,1,2.138-.853,7.129,7.129,0,0,1,2.275-.071A7.45,7.45,0,0,1,218.7,703.035Z" transform="translate(-208.549 -702.828)" fill="#fff"/>
            </g>
            <g id="그룹_51" data-name="그룹 51" transform="translate(22.427)">
              <path id="패스_26" data-name="패스 26" d="M240.584,698.289a7.989,7.989,0,0,1,2.126,1.111,7.8,7.8,0,0,1,1.35,1.973,7.457,7.457,0,0,1,.867,2.156,7.355,7.355,0,0,1,.217,2.309,7.478,7.478,0,0,1-.4,2.312,6.808,6.808,0,0,1-5.236,4.257,7.624,7.624,0,0,1-2.3.53,7.994,7.994,0,0,1-2.162-.949,6.177,6.177,0,0,1-4.421-4.895,6.5,6.5,0,0,1,.459-4.465,7.5,7.5,0,0,1,.943-2.1,7.714,7.714,0,0,1,3.943-2.314,7.113,7.113,0,0,1,2.275-.071A7.438,7.438,0,0,1,240.584,698.289Z" transform="translate(-230.435 -698.082)" fill="#fff"/>
            </g>
            <g id="그룹_52" data-name="그룹 52" transform="translate(24.232 4.794)">
              <path id="패스_27" data-name="패스 27" d="M237.5,702.869a4.16,4.16,0,0,1,1.113.581,4.055,4.055,0,0,1,.705,1.032,4.216,4.216,0,0,1,.568,2.335,3.931,3.931,0,0,1-.209,1.209,3.56,3.56,0,0,1-2.739,2.226,3.974,3.974,0,0,1-1.2.278,4.2,4.2,0,0,1-1.13-.5,3.178,3.178,0,0,1-1.888-1.429,3.892,3.892,0,0,1-.425-1.132,3.781,3.781,0,0,1-.087-1.194,3.708,3.708,0,0,1,.328-1.141,3.944,3.944,0,0,1,.493-1.1,4.031,4.031,0,0,1,2.063-1.21,3.752,3.752,0,0,1,1.19-.037A3.886,3.886,0,0,1,237.5,702.869Z" transform="translate(-232.196 -702.76)" fill="#161615"/>
            </g>
            <g id="그룹_53" data-name="그룹 53" transform="translate(1.805 9.657)">
              <path id="패스_28" data-name="패스 28" d="M215.619,707.615a4.148,4.148,0,0,1,1.112.581,4.03,4.03,0,0,1,.706,1.032,3.925,3.925,0,0,1,.454,1.127,3.874,3.874,0,0,1,.114,1.208,3.964,3.964,0,0,1-.209,1.209A3.561,3.561,0,0,1,215.057,715a3.993,3.993,0,0,1-1.2.278,4.2,4.2,0,0,1-1.13-.5,3.233,3.233,0,0,1-2.313-2.561,3.405,3.405,0,0,1,.24-2.335,3.946,3.946,0,0,1,.494-1.1,4.025,4.025,0,0,1,2.062-1.21,3.75,3.75,0,0,1,1.19-.037A3.891,3.891,0,0,1,215.619,707.615Z" transform="translate(-210.31 -707.506)" fill="#161615"/>
            </g>
          </g>
        </g>
      </g>
      <g id="그룹_60" data-name="그룹 60" transform="translate(190.149 708.956)" opacity="0.2">
        <g id="그룹_57" data-name="그룹 57" transform="translate(53.962 149.557)">
          <path id="패스_29" data-name="패스 29" d="M248.807,895.405c1.625.72,3.53-.256,4.753-1.548,2.98-3.151,3.529-7.88,3.288-12.211s-1.111-8.7-.362-12.967c.377-2.144,1.154-4.2,1.465-6.358a7.853,7.853,0,0,0-1.319-6.194c-2.607-3.091-8.007-1.985-10.553,1.156s-2.987,7.447-3.191,11.485q-.323,6.414-.2,12.842c.1,4.862,1.851,11.457,6.115,13.8" transform="translate(-242.657 -854.292)" fill="#fff"/>
        </g>
        <g id="그룹_58" data-name="그룹 58" transform="translate(26.504 73.136)">
          <path id="패스_30" data-name="패스 30" d="M219.868,819.748c1.5.963,3.528.292,4.935-.8,7.764-6,4.811-18.357,7.918-26.547,1.446-3.81,3.034-8.771-1.006-11.586a7.113,7.113,0,0,0-8.652.841c-3,2.71-4.1,6.9-4.927,10.854a88.318,88.318,0,0,0-2.265,15.791c-.1,4.042.576,8.8,4,11.442" transform="translate(-215.862 -779.715)" fill="#fff"/>
        </g>
        <g id="그룹_59" data-name="그룹 59">
          <path id="패스_31" data-name="패스 31" d="M194.452,748.414c9.716,6.262,10.456-21.144,11.643-24.826.72-2.237,1.869-4.327,2.463-6.6s.543-4.9-.938-6.727c-2.376-2.927-7.332-2.255-10.051.357s-3.785,6.454-4.769,10.094c-2,7.414-5.9,21.887,1.651,27.7" transform="translate(-189.998 -708.343)" fill="#fff"/>
        </g>
      </g>
    </g>
    <g id="그룹_159" data-name="그룹 159" transform="translate(733.351 -49.124)">
      <g id="그룹_56-2" data-name="그룹 56" transform="translate(0)">
        <g id="그룹_49-2" data-name="그룹 49" transform="translate(0 0)">
          <path id="패스_24-2" data-name="패스 24" d="M206.072,923.985c-4.457-3.34-8.694-6.426-11.829-10.932a52.232,52.232,0,0,1-7.479-14.625c-1.612-5.294-2.976-10.762-2.891-16.45.081-5.487,2.866-10.513,4.7-16.015S192.079,855.442,195.3,851a52.641,52.641,0,0,1,11.449-11.854,83.07,83.07,0,0,1,7.726-5.159,53.292,53.292,0,0,1-5.021-15.431,54.906,54.906,0,0,1-.562-16.75c.766-5.525.624-11.859,3.077-17,2.366-4.964,6.622-9.492,10.565-13.708s9.927-5.417,14.676-8.061l1.408-.784A97.329,97.329,0,0,1,235.3,751.6c-1.5-5.552.6-11.412.843-16.9.252-5.685.422-11.041,2.346-16.282a54.3,54.3,0,0,1,7.726-14.737c3.4-4.408,7.077-8.708,11.727-11.911,4.487-3.092,10.085-3.634,15.547-5.256s10.446-3.095,15.815-2.932a49.43,49.43,0,0,1,15.889,2.842c5.153,1.9,10.223,3.961,14.529,7.4a51.644,51.644,0,0,1,10.827,12.383c2.956,4.534,3.9,9.932,5.4,15.484s5.14,10.718,4.9,16.2c-.252,5.684-3.666,10.889-5.59,16.13-1.943,5.294-3.691,10.7-7.125,15.148-3.4,4.409-8.59,6.713-13.24,9.917-2.526,1.739-4.844,4.008-7.362,5.949a50.076,50.076,0,0,1,4.515,13.616c.94,5.526,1.705,11.061.932,16.642a54.788,54.788,0,0,1-5.1,15.981c-2.367,4.964-6.455,8.607-10.4,12.822s-6.506,10.108-11.256,12.751a16.494,16.494,0,0,1-2.647,1.165,31.92,31.92,0,0,1,3.369,7.246c1.612,5.294.488,10.944.4,16.631-.082,5.489,1.566,11.341-.264,16.843s-5.333,10.193-8.555,14.635a58.373,58.373,0,0,1-26.437,19.667c-5.209,1.729-10.76,4.653-16.328,4.657-5.373,0-11.139-1.931-16.5-3.713S210.372,927.206,206.072,923.985Z" transform="translate(-183.869 -683.575)" fill="#4fb2ab"/>
        </g>
        <g id="그룹_55-2" data-name="그룹 55" transform="translate(94.55 14.865)">
          <g id="그룹_54-2" data-name="그룹 54">
            <g id="그룹_50-2" data-name="그룹 50" transform="translate(22.426 4.863)">
              <path id="패스_25-2" data-name="패스 25" d="M213.125,703.035A8,8,0,0,0,211,704.146a7.8,7.8,0,0,0-1.349,1.973,7.47,7.47,0,0,0-.868,2.156,7.386,7.386,0,0,0-.217,2.309,7.5,7.5,0,0,0,.4,2.312,57.766,57.766,0,0,0,3.051,3.5,7.429,7.429,0,0,0,2.187.76,7.608,7.608,0,0,0,2.3.53,8.03,8.03,0,0,0,2.161-.948,6.179,6.179,0,0,0,4.422-4.9,7.212,7.212,0,0,0,.167-2.284,7.14,7.14,0,0,0-.627-2.18,7.492,7.492,0,0,0-.943-2.106,7.361,7.361,0,0,0-1.806-1.461,7.288,7.288,0,0,0-2.138-.853,7.129,7.129,0,0,0-2.275-.071A7.45,7.45,0,0,0,213.125,703.035Z" transform="translate(-208.549 -702.828)" fill="#fff"/>
            </g>
            <g id="그룹_51-2" data-name="그룹 51" transform="translate(0)">
              <path id="패스_26-2" data-name="패스 26" d="M235.011,698.289a7.989,7.989,0,0,0-2.126,1.111,7.8,7.8,0,0,0-1.35,1.973,7.457,7.457,0,0,0-.867,2.156,7.355,7.355,0,0,0-.217,2.309,7.478,7.478,0,0,0,.4,2.312,6.808,6.808,0,0,0,5.236,4.257,7.624,7.624,0,0,0,2.3.53,7.994,7.994,0,0,0,2.162-.949,6.177,6.177,0,0,0,4.421-4.895,6.5,6.5,0,0,0-.459-4.465,7.5,7.5,0,0,0-.943-2.1,7.714,7.714,0,0,0-3.943-2.314,7.113,7.113,0,0,0-2.275-.071A7.438,7.438,0,0,0,235.011,698.289Z" transform="translate(-230.435 -698.082)" fill="#fff"/>
            </g>
            <g id="그룹_52-2" data-name="그룹 52" transform="translate(5.219 4.794)">
              <path id="패스_27-2" data-name="패스 27" d="M234.59,702.869a4.16,4.16,0,0,0-1.113.581,4.055,4.055,0,0,0-.705,1.032,4.216,4.216,0,0,0-.568,2.335,3.931,3.931,0,0,0,.209,1.209,3.56,3.56,0,0,0,2.739,2.226,3.974,3.974,0,0,0,1.2.278,4.2,4.2,0,0,0,1.13-.5,3.178,3.178,0,0,0,1.888-1.429,3.892,3.892,0,0,0,.425-1.132,3.781,3.781,0,0,0,.087-1.194,3.708,3.708,0,0,0-.328-1.141,3.944,3.944,0,0,0-.493-1.1,4.031,4.031,0,0,0-2.063-1.21,3.752,3.752,0,0,0-1.19-.037A3.886,3.886,0,0,0,234.59,702.869Z" transform="translate(-232.196 -702.76)" fill="#161615"/>
            </g>
            <g id="그룹_53-2" data-name="그룹 53" transform="translate(27.645 9.657)">
              <path id="패스_28-2" data-name="패스 28" d="M212.7,707.615a4.148,4.148,0,0,0-1.112.581,4.03,4.03,0,0,0-.706,1.032,3.925,3.925,0,0,0-.454,1.127,3.874,3.874,0,0,0-.114,1.208,3.964,3.964,0,0,0,.209,1.209A3.561,3.561,0,0,0,213.267,715a3.993,3.993,0,0,0,1.2.278,4.2,4.2,0,0,0,1.13-.5,3.233,3.233,0,0,0,2.313-2.561,3.405,3.405,0,0,0-.24-2.335,3.946,3.946,0,0,0-.494-1.1,4.025,4.025,0,0,0-2.062-1.21,3.75,3.75,0,0,0-1.19-.037A3.891,3.891,0,0,0,212.7,707.615Z" transform="translate(-210.31 -707.506)" fill="#161615"/>
            </g>
          </g>
        </g>
      </g>
      <g id="그룹_60-2" data-name="그룹 60" transform="translate(81.334 25.381)" opacity="0.2">
        <g id="그룹_57-2" data-name="그룹 57" transform="translate(0 149.557)">
          <path id="패스_29-2" data-name="패스 29" d="M251.925,895.405c-1.625.72-3.53-.256-4.753-1.548-2.98-3.151-3.529-7.88-3.288-12.211s1.111-8.7.362-12.967c-.377-2.144-1.154-4.2-1.465-6.358a7.853,7.853,0,0,1,1.319-6.194c2.607-3.091,8.007-1.985,10.553,1.156s2.987,7.447,3.191,11.485q.323,6.414.2,12.842c-.1,4.862-1.851,11.457-6.115,13.8" transform="translate(-242.657 -854.292)" fill="#fff"/>
        </g>
        <g id="그룹_58-2" data-name="그룹 58" transform="translate(24.456 73.136)">
          <path id="패스_30-2" data-name="패스 30" d="M230.276,819.748c-1.5.963-3.528.292-4.935-.8-7.764-6-4.811-18.357-7.918-26.547-1.446-3.81-3.034-8.771,1.006-11.586a7.113,7.113,0,0,1,8.652.841c3,2.71,4.1,6.9,4.927,10.854a88.316,88.316,0,0,1,2.265,15.791c.1,4.042-.576,8.8-4,11.442" transform="translate(-215.862 -779.715)" fill="#fff"/>
        </g>
        <g id="그룹_59-2" data-name="그룹 59" transform="translate(50.464)">
          <path id="패스_31-2" data-name="패스 31" d="M204.459,748.414c-9.716,6.262-10.456-21.144-11.643-24.826-.72-2.237-1.869-4.327-2.463-6.6s-.543-4.9.938-6.727c2.376-2.927,7.332-2.255,10.051.357s3.785,6.454,4.769,10.094c2,7.414,5.9,21.887-1.651,27.7" transform="translate(-189.998 -708.343)" fill="#fff"/>
        </g>
      </g>
    </g>
    <g id="그룹_162" data-name="그룹 162" transform="translate(1732.351 184.935)">
      <g id="그룹_56-3" data-name="그룹 56" transform="translate(0)">
        <g id="그룹_49-3" data-name="그룹 49" transform="translate(0 0)">
          <path id="패스_24-3" data-name="패스 24" d="M206.072,923.985c-4.457-3.34-8.694-6.426-11.829-10.932a52.232,52.232,0,0,1-7.479-14.625c-1.612-5.294-2.976-10.762-2.891-16.45.081-5.487,2.866-10.513,4.7-16.015S192.079,855.442,195.3,851a52.641,52.641,0,0,1,11.449-11.854,83.07,83.07,0,0,1,7.726-5.159,53.292,53.292,0,0,1-5.021-15.431,54.906,54.906,0,0,1-.562-16.75c.766-5.525.624-11.859,3.077-17,2.366-4.964,6.622-9.492,10.565-13.708s9.927-5.417,14.676-8.061l1.408-.784A97.329,97.329,0,0,1,235.3,751.6c-1.5-5.552.6-11.412.843-16.9.252-5.685.422-11.041,2.346-16.282a54.3,54.3,0,0,1,7.726-14.737c3.4-4.408,7.077-8.708,11.727-11.911,4.487-3.092,10.085-3.634,15.547-5.256s10.446-3.095,15.815-2.932a49.43,49.43,0,0,1,15.889,2.842c5.153,1.9,10.223,3.961,14.529,7.4a51.644,51.644,0,0,1,10.827,12.383c2.956,4.534,3.9,9.932,5.4,15.484s5.14,10.718,4.9,16.2c-.252,5.684-3.666,10.889-5.59,16.13-1.943,5.294-3.691,10.7-7.125,15.148-3.4,4.409-8.59,6.713-13.24,9.917-2.526,1.739-4.844,4.008-7.362,5.949a50.076,50.076,0,0,1,4.515,13.616c.94,5.526,1.705,11.061.932,16.642a54.788,54.788,0,0,1-5.1,15.981c-2.367,4.964-6.455,8.607-10.4,12.822s-6.506,10.108-11.256,12.751a16.494,16.494,0,0,1-2.647,1.165,31.92,31.92,0,0,1,3.369,7.246c1.612,5.294.488,10.944.4,16.631-.082,5.489,1.566,11.341-.264,16.843s-5.333,10.193-8.555,14.635a58.373,58.373,0,0,1-26.437,19.667c-5.209,1.729-10.76,4.653-16.328,4.657-5.373,0-11.139-1.931-16.5-3.713S210.372,927.206,206.072,923.985Z" transform="translate(-183.869 -683.575)" fill="#4fb2ab"/>
        </g>
        <g id="그룹_55-3" data-name="그룹 55" transform="translate(94.55 14.865)">
          <g id="그룹_54-3" data-name="그룹 54">
            <g id="그룹_50-3" data-name="그룹 50" transform="translate(22.426 4.863)">
              <path id="패스_25-3" data-name="패스 25" d="M213.125,703.035A8,8,0,0,0,211,704.146a7.8,7.8,0,0,0-1.349,1.973,7.47,7.47,0,0,0-.868,2.156,7.386,7.386,0,0,0-.217,2.309,7.5,7.5,0,0,0,.4,2.312,57.766,57.766,0,0,0,3.051,3.5,7.429,7.429,0,0,0,2.187.76,7.608,7.608,0,0,0,2.3.53,8.03,8.03,0,0,0,2.161-.948,6.179,6.179,0,0,0,4.422-4.9,7.212,7.212,0,0,0,.167-2.284,7.14,7.14,0,0,0-.627-2.18,7.492,7.492,0,0,0-.943-2.106,7.361,7.361,0,0,0-1.806-1.461,7.288,7.288,0,0,0-2.138-.853,7.129,7.129,0,0,0-2.275-.071A7.45,7.45,0,0,0,213.125,703.035Z" transform="translate(-208.549 -702.828)" fill="#fff"/>
            </g>
            <g id="그룹_51-3" data-name="그룹 51" transform="translate(0)">
              <path id="패스_26-3" data-name="패스 26" d="M235.011,698.289a7.989,7.989,0,0,0-2.126,1.111,7.8,7.8,0,0,0-1.35,1.973,7.457,7.457,0,0,0-.867,2.156,7.355,7.355,0,0,0-.217,2.309,7.478,7.478,0,0,0,.4,2.312,6.808,6.808,0,0,0,5.236,4.257,7.624,7.624,0,0,0,2.3.53,7.994,7.994,0,0,0,2.162-.949,6.177,6.177,0,0,0,4.421-4.895,6.5,6.5,0,0,0-.459-4.465,7.5,7.5,0,0,0-.943-2.1,7.714,7.714,0,0,0-3.943-2.314,7.113,7.113,0,0,0-2.275-.071A7.438,7.438,0,0,0,235.011,698.289Z" transform="translate(-230.435 -698.082)" fill="#fff"/>
            </g>
            <g id="그룹_52-3" data-name="그룹 52" transform="translate(5.219 4.794)">
              <path id="패스_27-3" data-name="패스 27" d="M234.59,702.869a4.16,4.16,0,0,0-1.113.581,4.055,4.055,0,0,0-.705,1.032,4.216,4.216,0,0,0-.568,2.335,3.931,3.931,0,0,0,.209,1.209,3.56,3.56,0,0,0,2.739,2.226,3.974,3.974,0,0,0,1.2.278,4.2,4.2,0,0,0,1.13-.5,3.178,3.178,0,0,0,1.888-1.429,3.892,3.892,0,0,0,.425-1.132,3.781,3.781,0,0,0,.087-1.194,3.708,3.708,0,0,0-.328-1.141,3.944,3.944,0,0,0-.493-1.1,4.031,4.031,0,0,0-2.063-1.21,3.752,3.752,0,0,0-1.19-.037A3.886,3.886,0,0,0,234.59,702.869Z" transform="translate(-232.196 -702.76)" fill="#161615"/>
            </g>
            <g id="그룹_53-3" data-name="그룹 53" transform="translate(27.645 9.657)">
              <path id="패스_28-3" data-name="패스 28" d="M212.7,707.615a4.148,4.148,0,0,0-1.112.581,4.03,4.03,0,0,0-.706,1.032,3.925,3.925,0,0,0-.454,1.127,3.874,3.874,0,0,0-.114,1.208,3.964,3.964,0,0,0,.209,1.209A3.561,3.561,0,0,0,213.267,715a3.993,3.993,0,0,0,1.2.278,4.2,4.2,0,0,0,1.13-.5,3.233,3.233,0,0,0,2.313-2.561,3.405,3.405,0,0,0-.24-2.335,3.946,3.946,0,0,0-.494-1.1,4.025,4.025,0,0,0-2.062-1.21,3.75,3.75,0,0,0-1.19-.037A3.891,3.891,0,0,0,212.7,707.615Z" transform="translate(-210.31 -707.506)" fill="#161615"/>
            </g>
          </g>
        </g>
      </g>
      <g id="그룹_60-3" data-name="그룹 60" transform="translate(81.334 25.381)" opacity="0.2">
        <g id="그룹_57-3" data-name="그룹 57" transform="translate(0 149.557)">
          <path id="패스_29-3" data-name="패스 29" d="M251.925,895.405c-1.625.72-3.53-.256-4.753-1.548-2.98-3.151-3.529-7.88-3.288-12.211s1.111-8.7.362-12.967c-.377-2.144-1.154-4.2-1.465-6.358a7.853,7.853,0,0,1,1.319-6.194c2.607-3.091,8.007-1.985,10.553,1.156s2.987,7.447,3.191,11.485q.323,6.414.2,12.842c-.1,4.862-1.851,11.457-6.115,13.8" transform="translate(-242.657 -854.292)" fill="#fff"/>
        </g>
        <g id="그룹_58-3" data-name="그룹 58" transform="translate(24.456 73.136)">
          <path id="패스_30-3" data-name="패스 30" d="M230.276,819.748c-1.5.963-3.528.292-4.935-.8-7.764-6-4.811-18.357-7.918-26.547-1.446-3.81-3.034-8.771,1.006-11.586a7.113,7.113,0,0,1,8.652.841c3,2.71,4.1,6.9,4.927,10.854a88.316,88.316,0,0,1,2.265,15.791c.1,4.042-.576,8.8-4,11.442" transform="translate(-215.862 -779.715)" fill="#fff"/>
        </g>
        <g id="그룹_59-3" data-name="그룹 59" transform="translate(50.464)">
          <path id="패스_31-3" data-name="패스 31" d="M204.459,748.414c-9.716,6.262-10.456-21.144-11.643-24.826-.72-2.237-1.869-4.327-2.463-6.6s-.543-4.9.938-6.727c2.376-2.927,7.332-2.255,10.051.357s3.785,6.454,4.769,10.094c2,7.414,5.9,21.887-1.651,27.7" transform="translate(-189.998 -708.343)" fill="#fff"/>
        </g>
      </g>
    </g>
    <g id="그룹_157" data-name="그룹 157" transform="translate(1838.817 -394.388) rotate(60)">
      <g id="그룹_56-4" data-name="그룹 56" transform="translate(183.869 683.575)">
        <g id="그룹_49-4" data-name="그룹 49" transform="translate(0 0)">
          <path id="패스_24-4" data-name="패스 24" d="M450.143,1158.5c8.8-6.6,17.174-12.695,23.369-21.6,6.255-8.99,11.561-18.329,14.775-28.891,3.184-10.458,5.879-21.259,5.711-32.5-.16-10.84-5.662-20.768-9.277-31.638s-6.935-20.784-13.3-29.561c-6.6-9.1-13.806-16.95-22.618-23.417a164.094,164.094,0,0,0-15.263-10.193,105.278,105.278,0,0,0,9.919-30.484c1.858-10.917,2.638-22.065,1.109-33.09-1.514-10.915-1.233-23.428-6.079-33.592-4.674-9.805-13.081-18.751-20.871-27.079s-19.61-10.7-28.992-15.924q-1.4-.777-2.781-1.548A192.265,192.265,0,0,0,392.4,817.96c2.968-10.968-1.184-22.543-1.666-33.379-.5-11.231-.834-21.81-4.634-32.164-3.838-10.458-8.482-20.314-15.263-29.112-6.717-8.709-13.98-17.2-23.166-23.531-8.865-6.107-19.923-7.178-30.713-10.383s-20.636-6.113-31.241-5.791c-10.99.332-21.31,1.9-31.389,5.615-10.18,3.755-20.195,7.824-28.7,14.614-8.423,6.721-15.336,15.178-21.389,24.462-5.84,8.957-7.7,19.62-10.674,30.589s-10.154,21.172-9.672,32.008c.5,11.229,7.243,21.511,11.043,31.865,3.838,10.458,7.292,21.129,14.075,29.925,6.715,8.711,16.97,13.261,26.156,19.591,4.99,3.436,9.569,7.917,14.543,11.751a98.92,98.92,0,0,0-8.919,26.9c-1.856,10.917-3.369,21.85-1.84,32.875,1.514,10.915,5.237,21.405,10.083,31.569,4.676,9.806,12.751,17,20.541,25.33s12.852,19.968,22.235,25.189a32.57,32.57,0,0,0,5.229,2.3,63.064,63.064,0,0,0-6.656,14.314c-3.184,10.458-.964,21.62-.8,32.855.162,10.842-3.093,22.4.522,33.273s10.534,20.136,16.9,28.912a106.279,106.279,0,0,0,23.377,23.233c8.9,6.531,18.454,12.166,28.849,15.618,10.289,3.415,21.255,9.193,32.255,9.2,10.614.006,22-3.814,32.592-7.336S441.648,1164.862,450.143,1158.5Z" transform="translate(-183.869 -683.575)" fill="#4fb2ab"/>
        </g>
        <g id="그룹_55-4" data-name="그룹 55" transform="translate(49.961 29.366)">
          <g id="그룹_54-4" data-name="그룹 54">
            <g id="그룹_50-4" data-name="그룹 50" transform="translate(0 9.607)">
              <path id="패스_25-4" data-name="패스 25" d="M228.6,703.238a15.8,15.8,0,0,1,4.2,2.194c1.192,1,1.858,2.6,2.664,3.9a14.758,14.758,0,0,1,1.715,4.259,14.591,14.591,0,0,1,.429,4.561,14.818,14.818,0,0,1-.79,4.567c-.593,1.468-1.994,2.385-2.962,3.535-1,1.194-1.771,2.565-3.065,3.373a14.677,14.677,0,0,1-4.32,1.5c-1.478.37-2.988,1.156-4.543,1.046-1.5-.105-2.8-1.279-4.269-1.873a12.206,12.206,0,0,1-8.735-9.672,14.246,14.246,0,0,1-.33-4.512,14.1,14.1,0,0,1,1.239-4.306c.593-1.47.9-3.01,1.862-4.16a15.244,15.244,0,0,1,7.79-4.571,14.08,14.08,0,0,1,4.494-.14C225.479,703.043,227.13,702.645,228.6,703.238Z" transform="translate(-208.549 -702.828)" fill="#fff"/>
            </g>
            <g id="그룹_51-4" data-name="그룹 51" transform="translate(44.304)">
              <path id="패스_26-4" data-name="패스 26" d="M250.484,698.491a15.783,15.783,0,0,1,4.2,2.195c1.194,1,1.858,2.6,2.666,3.9a14.731,14.731,0,0,1,1.713,4.259,14.53,14.53,0,0,1,.429,4.561,14.773,14.773,0,0,1-.789,4.567c-.593,1.467-1.994,2.385-2.96,3.534-1,1.192-1.773,2.565-3.067,3.373a14.645,14.645,0,0,1-4.318,1.5c-1.48.37-2.99,1.156-4.543,1.047-1.5-.105-2.8-1.28-4.271-1.875a12.2,12.2,0,0,1-8.733-9.67,12.836,12.836,0,0,1,.907-8.82c.593-1.468.9-3.008,1.862-4.158a15.24,15.24,0,0,1,7.79-4.571,14.052,14.052,0,0,1,4.494-.14C247.365,698.3,249.017,697.9,250.484,698.491Z" transform="translate(-230.435 -698.082)" fill="#fff"/>
            </g>
            <g id="그룹_52-4" data-name="그룹 52" transform="translate(47.869 9.47)">
              <path id="패스_27-4" data-name="패스 27" d="M242.682,702.975a8.214,8.214,0,0,1,2.2,1.148,8.011,8.011,0,0,1,1.393,2.039,8.328,8.328,0,0,1,1.121,4.613,7.765,7.765,0,0,1-.413,2.389,7.033,7.033,0,0,1-5.411,4.4,7.849,7.849,0,0,1-2.377.549,8.3,8.3,0,0,1-2.233-.982,6.279,6.279,0,0,1-3.729-2.822,7.688,7.688,0,0,1-.84-2.237,7.47,7.47,0,0,1-.172-2.358,7.324,7.324,0,0,1,.648-2.253,7.792,7.792,0,0,1,.974-2.176,7.964,7.964,0,0,1,4.075-2.391,7.414,7.414,0,0,1,2.35-.073A7.674,7.674,0,0,1,242.682,702.975Z" transform="translate(-232.196 -702.76)" fill="#161615"/>
            </g>
            <g id="그룹_53-4" data-name="그룹 53" transform="translate(3.566 19.078)">
              <path id="패스_28-4" data-name="패스 28" d="M220.8,707.721a8.2,8.2,0,0,1,2.2,1.148,7.961,7.961,0,0,1,1.395,2.038,7.754,7.754,0,0,1,.9,2.227,7.652,7.652,0,0,1,.225,2.387,7.83,7.83,0,0,1-.413,2.389,7.034,7.034,0,0,1-5.411,4.4,7.889,7.889,0,0,1-2.377.548,8.3,8.3,0,0,1-2.233-.98,6.386,6.386,0,0,1-4.569-5.059,6.727,6.727,0,0,1,.474-4.613,7.793,7.793,0,0,1,.976-2.176,7.95,7.95,0,0,1,4.073-2.391,7.406,7.406,0,0,1,2.35-.073A7.688,7.688,0,0,1,220.8,707.721Z" transform="translate(-210.31 -707.506)" fill="#161615"/>
            </g>
          </g>
        </g>
      </g>
      <g id="그룹_60-4" data-name="그룹 60" transform="translate(196.276 733.714)" opacity="0.2">
        <g id="그룹_57-4" data-name="그룹 57" transform="translate(106.6 295.447)">
          <path id="패스_29-4" data-name="패스 29" d="M254.807,935.51c3.211,1.423,6.974-.506,9.389-3.059,5.887-6.225,6.972-15.567,6.5-24.122s-2.194-17.179-.715-25.616c.745-4.235,2.279-8.305,2.895-12.561s.164-8.949-2.605-12.237c-5.15-6.105-15.818-3.921-20.846,2.284s-5.9,14.71-6.3,22.688q-.638,12.671-.389,25.369c.19,9.605,3.656,22.634,12.079,27.253" transform="translate(-242.657 -854.292)" fill="#fff"/>
        </g>
        <g id="그룹_58-4" data-name="그룹 58" transform="translate(52.359 144.478)">
          <path id="패스_30-4" data-name="패스 30" d="M223.775,858.8c2.954,1.9,6.97.577,9.749-1.571,15.338-11.86,9.5-36.264,15.642-52.442,2.856-7.526,5.994-17.326-1.988-22.889-5.237-3.65-12.516-2.47-17.091,1.662-5.927,5.354-8.1,13.623-9.733,21.442-2.142,10.285-4.217,20.658-4.474,31.195-.192,7.986,1.138,17.393,7.895,22.6" transform="translate(-215.862 -779.715)" fill="#fff"/>
        </g>
        <g id="그룹_59-4" data-name="그룹 59">
          <path id="패스_31-4" data-name="패스 31" d="M198.8,787.5c19.195,12.37,20.656-41.77,23-49.043,1.423-4.419,3.692-8.548,4.867-13.04s1.073-9.682-1.852-13.288c-4.694-5.783-14.484-4.455-19.855.7s-7.478,12.749-9.421,19.94c-3.958,14.646-11.648,43.238,3.261,54.728" transform="translate(-189.998 -708.344)" fill="#fff"/>
        </g>
      </g>
    </g>
    <g id="그룹_160" data-name="그룹 160" transform="translate(477.344 357.642) rotate(120)">
      <g id="그룹_56-5" data-name="그룹 56" transform="translate(0 0)">
        <g id="그룹_49-5" data-name="그룹 49">
          <path id="패스_24-5" data-name="패스 24" d="M266.274,27.091c8.8,6.6,17.174,12.695,23.369,21.6,6.255,8.99,11.561,18.329,14.775,28.891,3.184,10.458,5.879,21.259,5.711,32.5-.16,10.84-5.662,20.768-9.277,31.638s-6.935,20.784-13.3,29.561c-6.6,9.1-13.806,16.95-22.618,23.417a164.094,164.094,0,0,1-15.263,10.193,105.278,105.278,0,0,1,9.919,30.484c1.858,10.917,2.638,22.065,1.109,33.09-1.514,10.915-1.233,23.428-6.079,33.592-4.674,9.805-13.081,18.751-20.871,27.079s-19.61,10.7-28.992,15.924q-1.4.777-2.781,1.548a192.265,192.265,0,0,1,6.559,21.031c2.968,10.968-1.184,22.543-1.666,33.379-.5,11.231-.834,21.81-4.634,32.164-3.838,10.458-8.482,20.314-15.263,29.112-6.717,8.709-13.98,17.2-23.166,23.531-8.865,6.107-19.923,7.178-30.713,10.383s-20.636,6.113-31.241,5.791c-10.99-.332-21.31-1.9-31.389-5.615-10.18-3.755-20.195-7.824-28.7-14.614-8.423-6.721-15.336-15.178-21.389-24.462-5.84-8.957-7.7-19.62-10.674-30.589S-.459,405.538.023,394.7c.5-11.229,7.243-21.511,11.043-31.865,3.838-10.458,7.292-21.129,14.075-29.925C31.855,324.2,42.111,319.65,51.3,313.32c4.99-3.436,9.569-7.917,14.543-11.751a98.92,98.92,0,0,1-8.919-26.9c-1.856-10.917-3.369-21.85-1.84-32.875,1.514-10.915,5.237-21.405,10.083-31.569,4.676-9.806,12.751-17,20.541-25.33s12.852-19.968,22.235-25.189a32.57,32.57,0,0,1,5.229-2.3,63.064,63.064,0,0,1-6.656-14.314c-3.184-10.458-.964-21.62-.8-32.855.162-10.842-3.093-22.4.522-33.273s10.534-20.136,16.9-28.912a106.279,106.279,0,0,1,23.377-23.233c8.9-6.531,18.454-12.166,28.849-15.618C185.653,5.786,196.619.008,207.619,0c10.614-.006,22,3.814,32.592,7.336S257.78,20.728,266.274,27.091Z" transform="translate(0 0)" fill="#4fb2ab"/>
        </g>
        <g id="그룹_55-5" data-name="그룹 55" transform="translate(49.961 433.688)">
          <g id="그룹_54-5" data-name="그룹 54">
            <g id="그룹_50-5" data-name="그룹 50" transform="translate(0 0)">
              <path id="패스_25-5" data-name="패스 25" d="M20.051,28.944a15.8,15.8,0,0,0,4.2-2.194c1.192-1,1.858-2.6,2.664-3.9a14.758,14.758,0,0,0,1.715-4.259,14.591,14.591,0,0,0,.429-4.561,14.818,14.818,0,0,0-.79-4.567C27.677,8,26.276,7.081,25.308,5.932c-1-1.194-1.771-2.565-3.065-3.373a14.677,14.677,0,0,0-4.32-1.5C16.446.686,14.936-.1,13.381.01c-1.5.105-2.8,1.279-4.269,1.873A14.516,14.516,0,0,0,5.051,3.877a14.6,14.6,0,0,0-3.067,3.4A14.657,14.657,0,0,0,.377,11.555a14.246,14.246,0,0,0-.33,4.512,14.1,14.1,0,0,0,1.239,4.306c.593,1.47.9,3.01,1.862,4.16A14.54,14.54,0,0,0,6.715,27.42,14.4,14.4,0,0,0,10.938,29.1a14.08,14.08,0,0,0,4.494.14C16.93,29.138,18.582,29.537,20.051,28.944Z" fill="#fff"/>
            </g>
            <g id="그룹_51-5" data-name="그룹 51" transform="translate(44.304 9.607)">
              <path id="패스_26-5" data-name="패스 26" d="M20.05,28.944a15.783,15.783,0,0,0,4.2-2.195c1.194-1,1.858-2.6,2.666-3.9a14.731,14.731,0,0,0,1.713-4.259,14.53,14.53,0,0,0,.429-4.561,14.773,14.773,0,0,0-.789-4.567C27.675,8,26.274,7.081,25.309,5.932c-1-1.192-1.773-2.565-3.067-3.373a14.645,14.645,0,0,0-4.318-1.5C16.444.687,14.934-.1,13.381.01c-1.5.105-2.8,1.28-4.271,1.875A14.485,14.485,0,0,0,5.049,3.877a14.533,14.533,0,0,0-3.065,3.4A14.562,14.562,0,0,0,.377,11.555a14.188,14.188,0,0,0-.33,4.512,14.129,14.129,0,0,0,1.237,4.308c.593,1.468.9,3.008,1.862,4.158A14.537,14.537,0,0,0,6.713,27.42,14.436,14.436,0,0,0,10.936,29.1a14.052,14.052,0,0,0,4.494.14C16.93,29.138,18.582,29.537,20.05,28.944Z" transform="translate(0 0)" fill="#fff"/>
            </g>
            <g id="그룹_52-5" data-name="그룹 52" transform="translate(47.869 14.137)">
              <path id="패스_27-5" data-name="패스 27" d="M10.486,15.139a8.214,8.214,0,0,0,2.2-1.148,8.011,8.011,0,0,0,1.393-2.039,7.642,7.642,0,0,0,.9-2.226A7.6,7.6,0,0,0,15.2,7.34a7.765,7.765,0,0,0-.413-2.389A7.633,7.633,0,0,0,13.237,3.1a7.709,7.709,0,0,0-1.6-1.763A7.669,7.669,0,0,0,9.375.554,7.849,7.849,0,0,0,7,.005,8.3,8.3,0,0,0,4.765.987,7.571,7.571,0,0,0,2.642,2.028,7.61,7.61,0,0,0,1.036,3.809,7.688,7.688,0,0,0,.2,6.046,7.47,7.47,0,0,0,.024,8.4a7.324,7.324,0,0,0,.648,2.253,7.792,7.792,0,0,0,.974,2.176,7.67,7.67,0,0,0,1.866,1.51,7.619,7.619,0,0,0,2.209.88,7.414,7.414,0,0,0,2.35.073A7.674,7.674,0,0,0,10.486,15.139Z" transform="translate(0 0)" fill="#161615"/>
            </g>
            <g id="그룹_53-5" data-name="그룹 53" transform="translate(3.566 4.529)">
              <path id="패스_28-5" data-name="패스 28" d="M10.487,15.139a8.2,8.2,0,0,0,2.2-1.148,7.961,7.961,0,0,0,1.395-2.038,7.754,7.754,0,0,0,.9-2.227A7.652,7.652,0,0,0,15.2,7.34a7.83,7.83,0,0,0-.413-2.389A7.7,7.7,0,0,0,13.238,3.1a7.709,7.709,0,0,0-1.6-1.763A7.683,7.683,0,0,0,9.376.554,7.889,7.889,0,0,0,7,.005a8.3,8.3,0,0,0-2.233.98A7.646,7.646,0,0,0,2.641,2.028a7.6,7.6,0,0,0-1.6,1.781A7.62,7.62,0,0,0,.2,6.044,7.369,7.369,0,0,0,.026,8.4a7.378,7.378,0,0,0,.646,2.253,7.793,7.793,0,0,0,.976,2.176A7.95,7.95,0,0,0,5.72,15.224a7.406,7.406,0,0,0,2.35.073A7.688,7.688,0,0,0,10.487,15.139Z" fill="#161615"/>
            </g>
          </g>
        </g>
      </g>
      <g id="그룹_60-5" data-name="그룹 60" transform="translate(12.407 74.728)" opacity="0.2">
        <g id="그룹_57-5" data-name="그룹 57" transform="translate(106.6 0)">
          <path id="패스_29-5" data-name="패스 29" d="M12.149.483C15.36-.94,19.123.989,21.538,3.542c5.887,6.225,6.972,15.567,6.5,24.122s-2.194,17.179-.715,25.616c.745,4.235,2.279,8.305,2.895,12.561s.164,8.949-2.605,12.237C22.459,84.183,11.791,82,6.762,75.794s-5.9-14.71-6.3-22.688Q-.179,40.434.07,27.737C.26,18.131,3.726,5.1,12.149.483" fill="#fff"/>
        </g>
        <g id="그룹_58-5" data-name="그룹 58" transform="translate(52.359 152.669)">
          <path id="패스_30-5" data-name="패스 30" d="M7.912.916c2.954-1.9,6.97-.577,9.749,1.571C33,14.347,27.166,38.751,33.3,54.929c2.856,7.526,5.994,17.326-1.988,22.889-5.237,3.65-12.516,2.47-17.091-1.662C8.3,70.8,6.121,62.532,4.491,54.714,2.349,44.429.274,34.056.017,23.519-.175,15.534,1.155,6.126,7.912.916" transform="translate(0 0)" fill="#fff"/>
        </g>
        <g id="그룹_59-5" data-name="그룹 59" transform="translate(0 296.16)">
          <path id="패스_31-5" data-name="패스 31" d="M8.8,1.83c19.195-12.37,20.656,41.77,23,49.043,1.423,4.419,3.692,8.548,4.867,13.04S37.738,73.6,34.813,77.2c-4.694,5.783-14.484,4.455-19.855-.7S7.48,63.748,5.537,56.557C1.58,41.911-6.111,13.32,8.8,1.83" transform="translate(0 0)" fill="#fff"/>
        </g>
      </g>
    </g>
    <g id="그룹_158" data-name="그룹 158" transform="translate(1680.495 202.363) rotate(120)">
      <g id="그룹_56-6" data-name="그룹 56" transform="translate(0 0)">
        <g id="그룹_49-6" data-name="그룹 49">
          <path id="패스_24-6" data-name="패스 24" d="M79.9,8.129c2.642,1.98,5.154,3.809,7.012,6.48a30.963,30.963,0,0,1,4.434,8.669,31.878,31.878,0,0,1,1.714,9.751c-.048,3.253-1.7,6.232-2.784,9.494S88.2,48.76,86.285,51.394A31.2,31.2,0,0,1,79.5,58.421a49.24,49.24,0,0,1-4.58,3.058,31.591,31.591,0,0,1,2.976,9.147,32.547,32.547,0,0,1,.333,9.929c-.454,3.275-.37,7.03-1.824,10.08-1.4,2.942-3.925,5.627-6.263,8.126s-5.884,3.211-8.7,4.778l-.835.465a57.694,57.694,0,0,1,1.968,6.311c.891,3.291-.355,6.765-.5,10.016-.149,3.37-.25,6.545-1.39,9.652a33.668,33.668,0,0,1-11.532,15.8c-2.66,1.833-5.978,2.154-9.216,3.116s-6.192,1.834-9.375,1.738a29.3,29.3,0,0,1-9.419-1.685,30.152,30.152,0,0,1-8.612-4.385,30.615,30.615,0,0,1-6.418-7.34c-1.752-2.688-2.312-5.887-3.2-9.179s-3.047-6.353-2.9-9.6c.149-3.369,2.173-6.455,3.314-9.562,1.152-3.138,2.188-6.34,4.224-8.98,2.015-2.614,5.092-3.979,7.849-5.879,1.5-1.031,2.871-2.376,4.364-3.526A29.683,29.683,0,0,1,17.08,82.42a32.222,32.222,0,0,1-.552-9.865,32.476,32.476,0,0,1,3.026-9.473c1.4-2.942,3.826-5.1,6.164-7.6s3.857-5.992,6.672-7.558a9.774,9.774,0,0,1,1.569-.691,18.924,18.924,0,0,1-2-4.3c-.955-3.138-.289-6.487-.239-9.859.049-3.253-.928-6.723.157-9.984s3.161-6.042,5.072-8.676a31.891,31.891,0,0,1,7.015-6.972,31.684,31.684,0,0,1,8.657-4.686C55.709,1.736,59,0,62.3,0c3.185,0,6.6,1.144,9.78,2.2S77.352,6.22,79.9,8.129Z" transform="translate(0 0)" fill="#4fb2ab"/>
        </g>
        <g id="그룹_55-6" data-name="그룹 55" transform="translate(14.992 130.137)">
          <g id="그룹_54-6" data-name="그룹 54" transform="translate(0 0)">
            <g id="그룹_50-6" data-name="그룹 50">
              <path id="패스_25-6" data-name="패스 25" d="M6.017,8.685a4.74,4.74,0,0,0,1.26-.658,4.622,4.622,0,0,0,.8-1.169,4.428,4.428,0,0,0,.515-1.278A4.378,4.378,0,0,0,8.72,4.211a4.447,4.447,0,0,0-.237-1.37A4.356,4.356,0,0,0,7.594,1.78,4.38,4.38,0,0,0,6.675.768a4.4,4.4,0,0,0-1.3-.451A4.511,4.511,0,0,0,4.015,0,4.761,4.761,0,0,0,2.734.565a4.356,4.356,0,0,0-1.219.6A4.38,4.38,0,0,0,.6,2.184,4.4,4.4,0,0,0,.113,3.467a4.275,4.275,0,0,0-.1,1.354A4.232,4.232,0,0,0,.386,6.113,4.441,4.441,0,0,0,.945,7.362a4.363,4.363,0,0,0,1.07.866,4.32,4.32,0,0,0,1.267.505,4.225,4.225,0,0,0,1.349.042A4.416,4.416,0,0,0,6.017,8.685Z" transform="translate(0 0)" fill="#fff"/>
            </g>
            <g id="그룹_51-6" data-name="그룹 51" transform="translate(13.294 2.883)">
              <path id="패스_26-6" data-name="패스 26" d="M6.016,8.685a4.736,4.736,0,0,0,1.26-.659,4.623,4.623,0,0,0,.8-1.169,4.42,4.42,0,0,0,.514-1.278,4.36,4.36,0,0,0,.129-1.369,4.433,4.433,0,0,0-.237-1.37A4.37,4.37,0,0,0,7.594,1.78,4.406,4.406,0,0,0,6.674.768a4.395,4.395,0,0,0-1.3-.451A4.519,4.519,0,0,0,4.015,0,4.739,4.739,0,0,0,2.734.566a4.346,4.346,0,0,0-1.219.6A4.361,4.361,0,0,0,.6,2.185,4.37,4.37,0,0,0,.113,3.467a4.258,4.258,0,0,0-.1,1.354A4.24,4.24,0,0,0,.385,6.114,4.444,4.444,0,0,0,.944,7.362a4.362,4.362,0,0,0,1.07.866,4.332,4.332,0,0,0,1.267.505,4.217,4.217,0,0,0,1.349.042A4.41,4.41,0,0,0,6.016,8.685Z" transform="translate(0 0)" fill="#fff"/>
            </g>
            <g id="그룹_52-6" data-name="그룹 52" transform="translate(14.364 4.242)">
              <path id="패스_27-6" data-name="패스 27" d="M3.147,4.543a2.465,2.465,0,0,0,.66-.344,2.4,2.4,0,0,0,.418-.612,2.293,2.293,0,0,0,.269-.668A2.28,2.28,0,0,0,4.561,2.2a2.33,2.33,0,0,0-.124-.717A2.291,2.291,0,0,0,3.972.931,2.313,2.313,0,0,0,3.491.4,2.3,2.3,0,0,0,2.813.166,2.355,2.355,0,0,0,2.1,0,2.491,2.491,0,0,0,1.43.3,2.272,2.272,0,0,0,.793.609a2.283,2.283,0,0,0-.482.535,2.307,2.307,0,0,0-.252.671,2.241,2.241,0,0,0-.052.708A2.2,2.2,0,0,0,.2,3.2a2.338,2.338,0,0,0,.292.653,2.3,2.3,0,0,0,.56.453,2.286,2.286,0,0,0,.663.264,2.225,2.225,0,0,0,.705.022A2.3,2.3,0,0,0,3.147,4.543Z" transform="translate(0 0)" fill="#161615"/>
            </g>
            <g id="그룹_53-6" data-name="그룹 53" transform="translate(1.07 1.359)">
              <path id="패스_28-6" data-name="패스 28" d="M3.147,4.543A2.46,2.46,0,0,0,3.806,4.2a2.389,2.389,0,0,0,.419-.612,2.327,2.327,0,0,0,.269-.668A2.3,2.3,0,0,0,4.561,2.2a2.35,2.35,0,0,0-.124-.717A2.309,2.309,0,0,0,3.972.931,2.313,2.313,0,0,0,3.491.4,2.305,2.305,0,0,0,2.813.166,2.367,2.367,0,0,0,2.1,0,2.491,2.491,0,0,0,1.43.3,2.294,2.294,0,0,0,.792.608a2.28,2.28,0,0,0-.481.535,2.287,2.287,0,0,0-.252.671,2.211,2.211,0,0,0-.052.708A2.214,2.214,0,0,0,.2,3.2a2.338,2.338,0,0,0,.293.653,2.386,2.386,0,0,0,1.222.717,2.222,2.222,0,0,0,.705.022A2.307,2.307,0,0,0,3.147,4.543Z" transform="translate(0 0)" fill="#161615"/>
            </g>
          </g>
        </g>
      </g>
      <g id="그룹_60-6" data-name="그룹 60" transform="translate(3.723 22.424)" opacity="0.2">
        <g id="그룹_57-6" data-name="그룹 57" transform="translate(31.988 0)">
          <path id="패스_29-6" data-name="패스 29" d="M3.646.145a2.646,2.646,0,0,1,2.817.918C8.229,2.931,8.555,5.734,8.412,8.3s-.658,5.155-.214,7.687c.224,1.271.684,2.492.869,3.769a4.655,4.655,0,0,1-.782,3.672c-1.545,1.832-4.747,1.177-6.255-.685S.258,18.329.138,15.935q-.191-3.8-.117-7.612C.078,5.441,1.118,1.531,3.646.145" transform="translate(0 0)" fill="#fff"/>
        </g>
        <g id="그룹_58-6" data-name="그룹 58" transform="translate(15.711 45.812)">
          <path id="패스_30-6" data-name="패스 30" d="M2.374.275A2.646,2.646,0,0,1,5.3.746C9.9,4.305,8.152,11.628,9.993,16.483c.857,2.258,1.8,5.2-.6,6.868a4.216,4.216,0,0,1-5.129-.5c-1.779-1.607-2.432-4.088-2.921-6.434A52.353,52.353,0,0,1,.005,7.058C-.053,4.661.347,1.838,2.374.275" transform="translate(0 0)" fill="#fff"/>
        </g>
        <g id="그룹_59-6" data-name="그룹 59" transform="translate(0 88.869)">
          <path id="패스_31-6" data-name="패스 31" d="M2.64.549c5.76-3.712,6.2,12.534,6.9,14.716.427,1.326,1.108,2.565,1.46,3.913a4.539,4.539,0,0,1-.556,3.987C9.038,24.9,6.1,24.5,4.489,22.955s-2.244-3.826-2.827-5.983C.474,12.576-1.834,4,2.64.549" transform="translate(0 0)" fill="#fff"/>
        </g>
      </g>
    </g>
    <g id="그룹_161" data-name="그룹 161" transform="matrix(0.259, -0.966, 0.966, 0.259, 554.183, 229.641)">
      <g id="그룹_56-7" data-name="그룹 56" transform="translate(0 0)">
        <g id="그룹_49-7" data-name="그룹 49">
          <path id="패스_24-7" data-name="패스 24" d="M39.738,4.043a14.642,14.642,0,0,1,3.487,3.223,15.4,15.4,0,0,1,2.205,4.312,15.854,15.854,0,0,1,.852,4.85c-.024,1.618-.845,3.1-1.385,4.721a15.619,15.619,0,0,1-1.985,4.412,15.519,15.519,0,0,1-3.375,3.495,24.489,24.489,0,0,1-2.278,1.521,15.711,15.711,0,0,1,1.48,4.549,16.187,16.187,0,0,1,.166,4.938c-.226,1.629-.184,3.5-.907,5.013a17.347,17.347,0,0,1-3.115,4.041c-1.162,1.243-2.926,1.6-4.327,2.376l-.415.231a28.694,28.694,0,0,1,.979,3.139c.443,1.637-.177,3.364-.249,4.981a15.577,15.577,0,0,1-.692,4.8A16.744,16.744,0,0,1,24.445,72.5c-1.323.911-2.973,1.071-4.583,1.549a14.7,14.7,0,0,1-4.662.864,14.572,14.572,0,0,1-4.684-.838A15,15,0,0,1,6.232,71.9,15.226,15.226,0,0,1,3.04,68.245,15.567,15.567,0,0,1,1.447,63.68C1,62.044-.068,60.521,0,58.9c.074-1.676,1.081-3.21,1.648-4.755a16.225,16.225,0,0,1,2.1-4.466c1-1.3,2.532-1.979,3.9-2.924C8.4,46.246,9.083,45.577,9.826,45a14.762,14.762,0,0,1-1.331-4.014,16.025,16.025,0,0,1-.275-4.906,16.152,16.152,0,0,1,1.5-4.711,15.887,15.887,0,0,1,3.065-3.78c1.162-1.243,1.918-2.98,3.318-3.759a4.861,4.861,0,0,1,.78-.343,9.411,9.411,0,0,1-.993-2.136c-.475-1.561-.144-3.226-.119-4.9.024-1.618-.462-3.343.078-4.966a16.356,16.356,0,0,1,2.522-4.315A15.861,15.861,0,0,1,21.865,3.7a15.758,15.758,0,0,1,4.305-2.331C27.706.863,29.343,0,30.984,0a16.2,16.2,0,0,1,4.864,1.095C37.428,1.621,38.47,3.093,39.738,4.043Z" transform="translate(0 0)" fill="#4fb2ab"/>
        </g>
        <g id="그룹_55-7" data-name="그룹 55" transform="translate(7.456 64.722)">
          <g id="그룹_54-7" data-name="그룹 54" transform="translate(0 0)">
            <g id="그룹_50-7" data-name="그룹 50">
              <path id="패스_25-7" data-name="패스 25" d="M2.992,4.319a2.357,2.357,0,0,0,.627-.327,2.3,2.3,0,0,0,.4-.582,2.2,2.2,0,0,0,.256-.636,2.178,2.178,0,0,0,.064-.681,2.211,2.211,0,0,0-.118-.682A2.167,2.167,0,0,0,3.777.885a2.179,2.179,0,0,0-.457-.5A2.19,2.19,0,0,0,2.675.158,2.243,2.243,0,0,0,2,0,2.368,2.368,0,0,0,1.36.281a2.166,2.166,0,0,0-.606.3A2.178,2.178,0,0,0,.3,1.086a2.187,2.187,0,0,0-.24.638A2.126,2.126,0,0,0,.007,2.4a2.1,2.1,0,0,0,.185.643,2.209,2.209,0,0,0,.278.621A2.17,2.17,0,0,0,1,4.092a2.148,2.148,0,0,0,.63.251,2.1,2.1,0,0,0,.671.021A2.2,2.2,0,0,0,2.992,4.319Z" transform="translate(0 0)" fill="#fff"/>
            </g>
            <g id="그룹_51-7" data-name="그룹 51" transform="translate(6.612 1.434)">
              <path id="패스_26-7" data-name="패스 26" d="M2.992,4.32a2.355,2.355,0,0,0,.627-.328,2.3,2.3,0,0,0,.4-.582,2.2,2.2,0,0,0,.256-.636,2.168,2.168,0,0,0,.064-.681,2.2,2.2,0,0,0-.118-.682A2.173,2.173,0,0,0,3.777.885a2.191,2.191,0,0,0-.458-.5A2.186,2.186,0,0,0,2.675.158,2.248,2.248,0,0,0,2,0a2.357,2.357,0,0,0-.637.28,2.162,2.162,0,0,0-.606.3A2.169,2.169,0,0,0,.3,1.086a2.173,2.173,0,0,0-.24.638A2.117,2.117,0,0,0,.007,2.4a2.109,2.109,0,0,0,.185.643,2.21,2.21,0,0,0,.278.62A2.169,2.169,0,0,0,1,4.092a2.154,2.154,0,0,0,.63.251,2.1,2.1,0,0,0,.671.021A2.193,2.193,0,0,0,2.992,4.32Z" transform="translate(0 0)" fill="#fff"/>
            </g>
            <g id="그룹_52-7" data-name="그룹 52" transform="translate(7.144 2.11)">
              <path id="패스_27-7" data-name="패스 27" d="M1.565,2.259a1.226,1.226,0,0,0,.328-.171,1.2,1.2,0,0,0,.208-.3,1.14,1.14,0,0,0,.134-.332A1.134,1.134,0,0,0,2.268,1.1,1.159,1.159,0,0,0,2.207.739,1.139,1.139,0,0,0,1.975.463,1.15,1.15,0,0,0,1.736.2,1.144,1.144,0,0,0,1.4.083,1.171,1.171,0,0,0,1.044,0,1.239,1.239,0,0,0,.711.147,1.13,1.13,0,0,0,.394.3a1.136,1.136,0,0,0-.24.266A1.147,1.147,0,0,0,.029.9,1.115,1.115,0,0,0,0,1.254a1.093,1.093,0,0,0,.1.336,1.163,1.163,0,0,0,.145.325,1.145,1.145,0,0,0,.279.225,1.137,1.137,0,0,0,.33.131,1.106,1.106,0,0,0,.351.011A1.145,1.145,0,0,0,1.565,2.259Z" transform="translate(0 0)" fill="#161615"/>
            </g>
            <g id="그룹_53-7" data-name="그룹 53" transform="translate(0.532 0.676)">
              <path id="패스_28-7" data-name="패스 28" d="M1.565,2.259a1.223,1.223,0,0,0,.328-.171,1.188,1.188,0,0,0,.208-.3,1.157,1.157,0,0,0,.134-.332A1.142,1.142,0,0,0,2.268,1.1,1.169,1.169,0,0,0,2.207.739,1.149,1.149,0,0,0,1.976.463,1.15,1.15,0,0,0,1.736.2,1.147,1.147,0,0,0,1.4.083,1.177,1.177,0,0,0,1.045,0,1.239,1.239,0,0,0,.711.147,1.141,1.141,0,0,0,.394.3,1.134,1.134,0,0,0,.155.568,1.137,1.137,0,0,0,.029.9,1.1,1.1,0,0,0,0,1.254a1.1,1.1,0,0,0,.1.336,1.163,1.163,0,0,0,.146.325,1.186,1.186,0,0,0,.608.357,1.105,1.105,0,0,0,.351.011A1.147,1.147,0,0,0,1.565,2.259Z" transform="translate(0 0)" fill="#161615"/>
            </g>
          </g>
        </g>
      </g>
      <g id="그룹_60-7" data-name="그룹 60" transform="translate(1.852 11.152)" opacity="0.2">
        <g id="그룹_57-7" data-name="그룹 57" transform="translate(15.909 0)">
          <path id="패스_29-7" data-name="패스 29" d="M1.813.072a1.316,1.316,0,0,1,1.4.457,4.787,4.787,0,0,1,.969,3.6,16.792,16.792,0,0,0-.107,3.823c.111.632.34,1.239.432,1.875a2.315,2.315,0,0,1-.389,1.826c-.769.911-2.361.585-3.111-.341A5.728,5.728,0,0,1,.068,7.925Q-.027,6.034.01,4.139C.039,2.706.556.762,1.813.072" transform="translate(0 0)" fill="#fff"/>
        </g>
        <g id="그룹_58-7" data-name="그룹 58" transform="translate(7.814 22.784)">
          <path id="패스_30-7" data-name="패스 30" d="M1.181.137A1.316,1.316,0,0,1,2.636.371C4.925,2.141,4.054,5.783,4.97,8.2c.426,1.123.895,2.586-.3,3.416a2.1,2.1,0,0,1-2.551-.248A5.729,5.729,0,0,1,.67,8.165,26.037,26.037,0,0,1,0,3.51,4.023,4.023,0,0,1,1.181.137" transform="translate(0 0)" fill="#fff"/>
        </g>
        <g id="그룹_59-7" data-name="그룹 59" transform="translate(0 44.198)">
          <path id="패스_31-7" data-name="패스 31" d="M1.313.273C4.178-1.573,4.4,6.507,4.745,7.592c.212.659.551,1.276.726,1.946A2.257,2.257,0,0,1,5.2,11.521a2.1,2.1,0,0,1-2.963-.105A6.21,6.21,0,0,1,.826,8.44C.236,6.255-.912,1.988,1.313.273" transform="translate(0 0)" fill="#fff"/>
        </g>
      </g>
    </g>
  </g>
</svg>
