<svg xmlns="http://www.w3.org/2000/svg" xmlns:xlink="http://www.w3.org/1999/xlink" viewBox="0 0 96.27 134.36"><defs><style>.cls-1{fill:#fff;}.cls-2{fill:#b2b2b2;}.cls-3{fill:#1865aa;}.cls-4{fill:url(#linear-gradient);}.cls-5{fill:#dadada;}.cls-6{fill:#ed6e2c;}.cls-7{fill:#fce1da;}.cls-8{fill:#1d9abe;}.cls-9{fill:#b3b3b3;}.cls-10{fill:#878787;}.cls-11{fill:#57b680;}.cls-12{fill:#459066;}</style><linearGradient id="linear-gradient" x1="22.69" y1="29.35" x2="73.58" y2="80.24" gradientUnits="userSpaceOnUse"><stop offset="0" stop-color="#bb6ca9"/><stop offset="0.17" stop-color="#bc6aa6"/><stop offset="0.31" stop-color="#bf659b"/><stop offset="0.45" stop-color="#c55d8a"/><stop offset="0.57" stop-color="#cd5171"/><stop offset="0.7" stop-color="#d74252"/><stop offset="0.81" stop-color="#e3312d"/><stop offset="1" stop-color="#fdc800"/></linearGradient></defs><g id="레이어_2" data-name="레이어 2"><g id="Layer_1" data-name="Layer 1"><path class="cls-1" d="M4.68,94.44S2.79,82.54,11.4,76.28s4.92,10.4,4.92,10.4Z"/><path class="cls-2" d="M4.21,95.51l-.15-1C4,94,2.22,82.19,11,75.77c2.11-1.54,3.79-1.92,5-1.13,3.07,2,1.15,11.14.92,12.17l-.06.25Zm10.41-20a5.77,5.77,0,0,0-2.85,1.29C5,81.71,5,90.41,5.19,93.35l10.57-7c.76-3.61,1.3-9.48-.43-10.61A1.25,1.25,0,0,0,14.62,75.49Z"/><path class="cls-1" d="M91.89,93.2c0-6.29-1.77-13.92-9.06-17.83s1.32,17,1.32,17Z"/><path class="cls-2" d="M92.52,93.89,83.72,93l-.15-.35c-1-2.56-6.18-15.49-3.49-17.92.7-.63,1.73-.6,3,.11C90.84,79,92.49,87.09,92.51,93.2Zm-7.93-2.08,6.66.69c-.14-5.67-1.83-12.89-8.72-16.57-.45-.25-1.26-.61-1.61-.29C79.45,77,82.14,85.77,84.59,91.81Z"/><path class="cls-3" d="M41.82,110.25s-5.34,17.11-10.15,20.83-13.88,4.07-17.38-1.83,4.47-14.36,6-16.55,6.79-11.15,6.79-11.15l12.46-3.06Z"/><path class="cls-2" d="M23.27,134.36a13.86,13.86,0,0,1-2.59-.24,9.82,9.82,0,0,1-6.88-4.59c-3.22-5.44,2.41-12.55,5.12-16,.39-.5.71-.9.91-1.19,1.5-2.14,6.71-11,6.76-11.12l.12-.2L40,97.8l2.42,12.48,0,.14c-.22.71-5.45,17.32-10.35,21.1A14.58,14.58,0,0,1,23.27,134.36ZM27.44,102c-.81,1.38-5.27,9-6.69,11-.21.3-.54.72-.95,1.24-2.55,3.22-7.85,9.92-5,14.69a8.85,8.85,0,0,0,6.12,4,13.59,13.59,0,0,0,10.43-2.38c4.4-3.4,9.4-18.8,9.92-20.41l-2.14-11Z"/><path class="cls-3" d="M53.75,110.27s5.59,12.74,8.43,17.12,10.64,5.46,14.87,4.36c4.88-1.27,8.06-6.06,3.91-11.31s-10.72-14.22-10.72-14.22L56.9,102.5Z"/><path class="cls-2" d="M73.57,132.71c-4.34,0-9.58-1.52-11.86-5-2.83-4.36-8.25-16.68-8.47-17.2l-.1-.22,3.42-8.45,14,3.91.12.16c.06.09,6.6,9,10.7,14.2,2.4,3,2.26,5.57,1.72,7.18a8.2,8.2,0,0,1-5.93,5A14.78,14.78,0,0,1,73.57,132.71Zm-19.2-22.45c.75,1.7,5.7,12.84,8.29,16.82s10.21,5.17,14.25,4.12a7.06,7.06,0,0,0,5.14-4.29c.64-1.92.11-4-1.53-6.12C76.7,116,70.8,107.94,69.9,106.71l-12.67-3.53Z"/><path class="cls-1" d="M48.14,83.17c15.23,0,47.51-4,47.51-36.42C95.65,12.32,66.08,5,48.14,5S.63,12.32.63,46.75C.63,79.12,32.9,83.17,48.14,83.17Z"/><path class="cls-2" d="M48.14,83.8C33.66,83.8,0,80.19,0,46.75,0,15.51,24.87,4.38,48.14,4.38S96.27,15.51,96.27,46.75C96.27,80.19,62.61,83.8,48.14,83.8Zm0-78.17c-11,0-46.89,3-46.89,41.12,0,32.31,32.79,35.8,46.89,35.8S95,79.06,95,46.75C95,8.6,59.13,5.63,48.14,5.63Z"/><path class="cls-4" d="M48.14,25.78c-23,0-40.28,10-40.28,30.29,0,22.62,26.79,25.51,40.28,25.51s40.28-2.89,40.28-25.51C88.42,35.75,71.15,25.78,48.14,25.78Z"/><path class="cls-1" d="M85.59,58.39c0-19.27-16.46-24.73-19-25.32a12.73,12.73,0,0,0-7.75.92,25.93,25.93,0,0,1-21.31,0,12.7,12.7,0,0,0-7.74-.92c-2.6.59-19.06,6-19.06,25.32S37.24,81.06,48.1,81.08h.07C59,81.06,85.59,77.61,85.59,58.39Z"/><path class="cls-5" d="M62.53,56.46c0,4.58,4.22,8.3,9.44,8.3S81.4,61,81.4,56.46s-4.22-8.3-9.43-8.3S62.53,51.88,62.53,56.46Z"/><path class="cls-5" d="M33.74,56.46c0,4.58-4.22,8.3-9.43,8.3s-9.44-3.72-9.44-8.3,4.22-8.3,9.44-8.3S33.74,51.88,33.74,56.46Z"/><path class="cls-3" d="M31.53,56.46c0,3.51-3.24,6.35-7.22,6.35S17.09,60,17.09,56.46s3.23-6.35,7.22-6.35S31.53,53,31.53,56.46Z"/><path class="cls-3" d="M64.75,56.46C64.75,60,68,62.81,72,62.81s7.22-2.84,7.22-6.35S76,50.11,72,50.11,64.75,53,64.75,56.46Z"/><path class="cls-1" d="M24.67,53.84a2.17,2.17,0,0,1-2.29,2,2,2,0,1,1,0-4A2.17,2.17,0,0,1,24.67,53.84Z"/><path class="cls-1" d="M28.08,59a.76.76,0,1,1-.75-.66A.72.72,0,0,1,28.08,59Z"/><path class="cls-1" d="M72.42,53.84a2.3,2.3,0,1,1-2.28-2A2.16,2.16,0,0,1,72.42,53.84Z"/><path class="cls-1" d="M75.83,59a.75.75,0,1,1-.74-.66A.71.71,0,0,1,75.83,59Z"/><path class="cls-6" d="M18.39,8.88A23.17,23.17,0,0,0,17.3,5.25c-1-2.63-2.53-4.92-4.09-4.59-2,.41-2.59,3-2.32,6.74,0,.53.1,1.07.17,1.64a19.65,19.65,0,0,0,2.15,7.22,21.24,21.24,0,0,0,2.84,4.43,2.08,2.08,0,0,0,2.85.39h0a2.09,2.09,0,0,0,.85-1.89C19.51,16.85,19,11.61,18.39,8.88Z"/><path class="cls-2" d="M17.67,22.1a2.69,2.69,0,0,1-2.11-1,22.06,22.06,0,0,1-2.92-4.57,20,20,0,0,1-2.2-7.39c-.07-.58-.13-1.14-.17-1.67C9.94,3,10.89.5,13.08,0s4,2.92,4.8,5A22.8,22.8,0,0,1,19,8.76h0c.57,2.78,1.15,8.18,1.37,10.37a2.71,2.71,0,0,1-2.7,3ZM13.5,1.25l-.16,0c-1.48.31-2.1,2.36-1.82,6.09,0,.51.09,1,.16,1.6a19,19,0,0,0,2.07,7,20.83,20.83,0,0,0,2.79,4.37,1.45,1.45,0,0,0,2,.27,1.43,1.43,0,0,0,.59-1.32c-.21-2.17-.79-7.52-1.35-10.24a22.18,22.18,0,0,0-1.05-3.53C15.7,2.87,14.46,1.25,13.5,1.25Z"/><path class="cls-7" d="M14.7,8.42c1.45-.39,3-2.07,2.6-3.17-1-2.63-2.53-4.92-4.09-4.59-2,.41-2.59,3-2.32,6.74C11,8.63,13.25,8.8,14.7,8.42Z"/><path class="cls-2" d="M13.23,9.23A4.06,4.06,0,0,1,11,8.68a1.66,1.66,0,0,1-.75-1.21C9.94,3,10.89.5,13.08,0s4,2.92,4.8,5a2.06,2.06,0,0,1-.17,1.71A4.92,4.92,0,0,1,14.86,9h0A6.43,6.43,0,0,1,13.23,9.23Zm.27-8-.16,0c-1.48.31-2.1,2.36-1.82,6.09a.42.42,0,0,0,.21.28,4,4,0,0,0,2.81.17,3.66,3.66,0,0,0,2.05-1.65.9.9,0,0,0,.13-.69C15.7,2.87,14.46,1.25,13.5,1.25Z"/><path class="cls-8" d="M77.89,8.88A22.07,22.07,0,0,1,79,5.25C80,2.62,81.5.33,83.06.66c2,.41,2.59,3,2.32,6.74,0,.53-.1,1.07-.17,1.64a19.65,19.65,0,0,1-2.15,7.22,21.24,21.24,0,0,1-2.84,4.43,2.08,2.08,0,0,1-2.85.39h0a2.09,2.09,0,0,1-.85-1.89C76.76,16.85,77.32,11.61,77.89,8.88Z"/><path class="cls-2" d="M78.6,22.1a2.71,2.71,0,0,1-2.7-3c.28-2.73.82-7.69,1.37-10.37h0A23.82,23.82,0,0,1,78.39,5C79.2,3,80.91-.43,83.19,0S86.33,3,86,7.45c0,.53-.09,1.09-.17,1.67a20.47,20.47,0,0,1-2.23,7.47,22.26,22.26,0,0,1-2.89,4.49A2.69,2.69,0,0,1,78.6,22.1ZM82.77,1.25c-1,0-2.19,1.62-3.22,4.23A22.18,22.18,0,0,0,78.5,9h0c-.56,2.72-1.13,8.07-1.35,10.24a1.45,1.45,0,0,0,2.58,1.05A21,21,0,0,0,82.49,16a19.47,19.47,0,0,0,2.1-7c.07-.55.13-1.09.16-1.6.28-3.73-.33-5.78-1.82-6.09Z"/><path class="cls-7" d="M81.58,8.42C80.13,8,78.55,6.35,79,5.25,80,2.62,81.5.33,83.06.66c2,.41,2.59,3,2.32,6.74C85.25,8.63,83,8.8,81.58,8.42Z"/><path class="cls-2" d="M83,9.23A6.43,6.43,0,0,1,81.41,9h0a4.92,4.92,0,0,1-2.85-2.29A2,2,0,0,1,78.39,5C79.2,3,80.91-.43,83.19,0S86.33,3,86,7.45a1.66,1.66,0,0,1-.75,1.23A4.06,4.06,0,0,1,83,9.23Zm-1.3-1.42a4,4,0,0,0,2.8-.17c.17-.12.21-.22.21-.3.28-3.71-.33-5.76-1.82-6.07-1-.21-2.29,1.45-3.38,4.21a.93.93,0,0,0,.13.68,3.65,3.65,0,0,0,2.06,1.65Z"/><path class="cls-3" d="M48.52,74.74h-.06a12.39,12.39,0,0,1-9.59-4.48.74.74,0,0,1,.16-1,.75.75,0,0,1,1,.15,11.08,11.08,0,0,0,16.86,0,.74.74,0,0,1,1.19.88,12.39,12.39,0,0,1-9.59,4.48Z"/><path class="cls-1" d="M10.61,79.19l3-5.6S35.05,68.34,47.45,82v6Z"/><path class="cls-9" d="M47.18,83.83C40.09,76.06,30.32,74.31,23,74.31h0a44.16,44.16,0,0,0-10.37,1.16h0a.13.13,0,0,1-.16-.1h0a.13.13,0,0,1,.09-.16h0A45,45,0,0,1,23,74h0c7.39,0,17.25,1.76,24.41,9.62h0a.12.12,0,0,1,0,.18h0a.12.12,0,0,1-.08,0h0a.12.12,0,0,1-.1,0Z"/><path class="cls-9" d="M47,84.71c-7-7.53-16.59-9.27-24-9.27h0a46.79,46.79,0,0,0-11,1.25h0a.13.13,0,0,1-.16-.09h0a.13.13,0,0,1,.09-.16h0a47,47,0,0,1,11-1.26h0c7.44,0,17.16,1.74,24.19,9.35h0a.13.13,0,0,1,0,.18h0a.12.12,0,0,1-.09,0h0a.18.18,0,0,1-.1,0Z"/><path class="cls-10" d="M47.3,88.61,10.45,79.86l.16-.67.6.32-.6-.32-.16.67a.65.65,0,0,1-.46-.39h0a.67.67,0,0,1,0-.6h0l3-5.6a.66.66,0,0,1,.44-.34h0a44.76,44.76,0,0,1,9.81-1h0c7.37,0,17.48,1.7,24.69,9.62h0a.72.72,0,0,1,.18.46h0v6a.7.7,0,0,1-.26.54h0a.66.66,0,0,1-.43.15h0l-.15,0Zm-.53-1.53V82.26c-6.8-7.35-16.37-9-23.5-9h0a45.37,45.37,0,0,0-9.2.91h0l-2.44,4.54,35.14,8.35Z"/><path class="cls-11" d="M8.86,78.14l5.25,32.42a42.67,42.67,0,0,1,30.46.7l.63-26.12S37.56,73.24,8.86,78.14Z"/><path class="cls-12" d="M44.31,111.89a42.38,42.38,0,0,0-16-3.1h0A42.55,42.55,0,0,0,18.21,110h0a28.19,28.19,0,0,0-3.83,1.18h0a.67.67,0,0,1-.6,0h0a.71.71,0,0,1-.34-.49h0L8.19,78.25a.68.68,0,0,1,.55-.78h0a77.94,77.94,0,0,1,13.05-1.19h0c18.37,0,23.9,8.33,24,8.49h0a.68.68,0,0,1,.11.39h0l-.63,26.11a.7.7,0,0,1-.31.56h0a.7.7,0,0,1-.37.11h0a.75.75,0,0,1-.26,0Zm-.4-1.62.6-24.92-.11-.14h0a9.53,9.53,0,0,0-.79-.86h0A17.15,17.15,0,0,0,40,81.64h0c-3.47-2-9.19-4-18.17-4h0A75.46,75.46,0,0,0,9.64,78.7h0l5,30.92a42.18,42.18,0,0,1,13.7-2.2h0a43.63,43.63,0,0,1,15.56,2.85Z"/><path class="cls-1" d="M84.65,79.19l-3-5.6S60.21,68.34,47.81,82v6Z"/><path class="cls-9" d="M47.9,83.84a.13.13,0,0,1,0-.19h0c7.16-7.85,17-9.6,24.41-9.6h0a45.41,45.41,0,0,1,10.44,1.16h0a.13.13,0,0,1,.09.16h0a.13.13,0,0,1-.16.1h0A44.81,44.81,0,0,0,72.3,74.31h0c-7.36,0-17.13,1.75-24.22,9.52h0a.12.12,0,0,1-.09,0h0a.13.13,0,0,1-.09,0Z"/><path class="cls-9" d="M48.07,84.72a.15.15,0,0,1,0-.19h0c7-7.61,16.75-9.35,24.19-9.35h0a47,47,0,0,1,11,1.26h0a.13.13,0,0,1,.09.16h0a.13.13,0,0,1-.16.09h0a47.44,47.44,0,0,0-11-1.25h0c-7.4,0-17,1.73-24,9.27h0a.13.13,0,0,1-.1,0h0a.16.16,0,0,1-.09,0Z"/><path class="cls-10" d="M47.39,88.48a.68.68,0,0,1-.27-.54h0V82a.72.72,0,0,1,.18-.46h0C54.51,73.6,64.62,71.92,72,71.91h0a45.52,45.52,0,0,1,9.81,1h0a.66.66,0,0,1,.44.34h0l3,5.6-.6.32.6-.32a.67.67,0,0,1,0,.6h0a.63.63,0,0,1-.46.38h0L48,88.61l-.16,0h0a.66.66,0,0,1-.42-.15Zm1.1-1.4,35.14-8.35-2.44-4.54c-.41-.09-1.25-.26-2.41-.42h0A46.76,46.76,0,0,0,72,73.28h0c-7.13,0-16.7,1.63-23.5,9h0v4.82Z"/><path class="cls-11" d="M86.75,78.14,81.5,110.56a42.67,42.67,0,0,0-30.46.7l.35-26.47S58.05,73.24,86.75,78.14Z"/><path class="cls-12" d="M50.66,111.82a.7.7,0,0,1-.3-.57h0l.35-26.47.09-.33c.08-.18,4.92-8.22,22.82-8.2h0a78.3,78.3,0,0,1,13.25,1.22h0l-.12.67.12-.67a.67.67,0,0,1,.55.78h0l-5.25,32.42a.71.71,0,0,1-.34.49h0a.67.67,0,0,1-.6,0h0A30.94,30.94,0,0,0,77.4,110h0a43.15,43.15,0,0,0-10.14-1.2h0a42.34,42.34,0,0,0-16,3.1h0a.75.75,0,0,1-.26,0h0a.66.66,0,0,1-.38-.12Zm1.08-1.57a43.82,43.82,0,0,1,15.52-2.83h0a42.18,42.18,0,0,1,13.7,2.2h0L86,78.7a76.75,76.75,0,0,0-12.35-1.09h0c-15.31,0-20.44,5.91-21.45,7.25h0l-.1.14h0l-.33,25.25Z"/><path class="cls-12" d="M44.54,84.75s3.79,1.94,6.78-.18l-.7,26.73s-3.52,2-6,0Z"/><path class="cls-12" d="M44.13,111.79a.74.74,0,0,1-.25-.53h0l0-26.51a.66.66,0,0,1,.33-.58h0a.65.65,0,0,1,.66,0h0a5.79,5.79,0,0,0,.93.36h0a7.63,7.63,0,0,0,2.28.38h0A5,5,0,0,0,50.93,84h0a.67.67,0,0,1,.72,0h0a.71.71,0,0,1,.36.62h0l-.71,26.73a.68.68,0,0,1-.34.57h0a8,8,0,0,1-3.66,1h0a4.9,4.9,0,0,1-3.15-1.08Zm3.17-.28a6.11,6.11,0,0,0,2.09-.41h0c.23-.08.41-.16.56-.22h0l.66-25.13a6.62,6.62,0,0,1-2.55.49h0a9.17,9.17,0,0,1-2.84-.48h0l0,25.15a3.64,3.64,0,0,0,2,.6Z"/><path class="cls-8" d="M20,92.67c.78,4.68-2,9-6.21,9.74s-8.25-2.53-9-7.21,2-9,6.21-9.74S19.27,88,20,92.67Z"/><path class="cls-2" d="M12.67,103.15a8,8,0,0,1-5-1.83A9.93,9.93,0,0,1,5.5,88.48a7.83,7.83,0,0,1,11.72-1.94,9.67,9.67,0,0,1,3.46,6c.84,5-2.19,9.73-6.74,10.49A7.77,7.77,0,0,1,12.67,103.15ZM12.17,86a6.09,6.09,0,0,0-1,.09,6.62,6.62,0,0,0-4.54,3.08,8.65,8.65,0,0,0,1.85,11.13,6.68,6.68,0,0,0,5.29,1.46c3.84-.64,6.39-4.68,5.67-9a8.36,8.36,0,0,0-3-5.22A6.77,6.77,0,0,0,12.17,86Z"/><path class="cls-8" d="M76.53,92.67c-.77,4.68,2,9,6.22,9.74s8.25-2.53,9-7.21-2-9-6.21-9.74S77.31,88,76.53,92.67Z"/><path class="cls-2" d="M83.91,103.15a7.77,7.77,0,0,1-1.27-.1c-4.55-.76-7.58-5.46-6.75-10.49a9.73,9.73,0,0,1,3.47-6,7.83,7.83,0,0,1,11.72,1.94A9.93,9.93,0,0,1,89,101.32,8,8,0,0,1,83.91,103.15ZM84.41,86a6.8,6.8,0,0,0-4.25,1.54,8.4,8.4,0,0,0-3,5.22c-.71,4.32,1.84,8.36,5.68,9a6.67,6.67,0,0,0,5.29-1.46A8.65,8.65,0,0,0,90,89.18a6.67,6.67,0,0,0-4.54-3.08A6.18,6.18,0,0,0,84.41,86Z"/></g></g></svg>