<svg xmlns="http://www.w3.org/2000/svg" viewBox="0 0 484.84 49.92"><defs><style>.cls-1{fill:#d92724;}.cls-2{fill:#e35442;}.cls-3{fill:#bd262f;}</style></defs><g id="레이어_2" data-name="레이어 2"><g id="_C__2" data-name="©©C©₩[_2"><path class="cls-1" d="M0,0V16.13C0,34.79,18.09,49.92,40.4,49.92S80.81,34.79,80.81,16.13V0Z"/><path class="cls-2" d="M2.08,18.64a26.58,26.58,0,0,0,2.63,4.72A29.64,29.64,0,0,0,8.26,27.5,40.24,40.24,0,0,0,17.39,34a57.07,57.07,0,0,0,10.78,4.35,53.68,53.68,0,0,0,5.73,1.38,42.54,42.54,0,0,0,5.8.72,40.62,40.62,0,0,0,11.52-1.21,59.47,59.47,0,0,0,11.09-3.8,42,42,0,0,0,9.65-6,20.5,20.5,0,0,0,6.29-8.7c-.11,3.55-1.89,7.06-4.44,10a35.58,35.58,0,0,1-9.47,7.47A52,52,0,0,1,52.59,43a41.77,41.77,0,0,1-13.22,1.61A49.9,49.9,0,0,1,26.51,42.1a50.27,50.27,0,0,1-11.39-5.38,34.08,34.08,0,0,1-8.85-8A20.53,20.53,0,0,1,2.08,18.64Z"/><path class="cls-3" d="M1.28,16.3a24.27,24.27,0,0,0,6,9.15,38.42,38.42,0,0,0,9.43,6.68,58.06,58.06,0,0,0,11.23,4.34,54.71,54.71,0,0,0,12.05,2,41.7,41.7,0,0,0,12-1.44,61.09,61.09,0,0,0,11.37-4.11,42.25,42.25,0,0,0,9.79-6.35,19.35,19.35,0,0,0,6.06-9c-.35,3.56-2.35,7-5,9.78a38.63,38.63,0,0,1-9.68,7.18,56.43,56.43,0,0,1-11.72,4.67,49,49,0,0,1-6.35,1.32,35.53,35.53,0,0,1-6.62.36A55.27,55.27,0,0,1,27,38.62,54.44,54.44,0,0,1,15.45,33.7a35.4,35.4,0,0,1-9.32-7.52A20.9,20.9,0,0,1,1.28,16.3Z"/><path class="cls-2" d="M2.35,11.83A27,27,0,0,0,9.17,20a46,46,0,0,0,9.35,5.9,63.1,63.1,0,0,0,10.66,4A51.08,51.08,0,0,0,40.4,31.77a38.55,38.55,0,0,0,11.08-1.49,56.16,56.16,0,0,0,10.58-4.07,47.82,47.82,0,0,0,9.3-6A28.45,28.45,0,0,0,78.25,12a21.16,21.16,0,0,1-5.07,9.47,39.5,39.5,0,0,1-9,7.41A50.36,50.36,0,0,1,53,34a39.51,39.51,0,0,1-12.84,2A49.08,49.08,0,0,1,27.6,33.67a53.51,53.51,0,0,1-11.23-5,37.13,37.13,0,0,1-9.1-7.34A19.83,19.83,0,0,1,2.35,11.83Z"/><path class="cls-3" d="M1.55,9.49a30.58,30.58,0,0,0,7,8.34,39.16,39.16,0,0,0,4.55,3.34,50.94,50.94,0,0,0,5,2.81,59.19,59.19,0,0,0,11,4,50.8,50.8,0,0,0,11.73,1.75,42.13,42.13,0,0,0,11.64-1.69,58.18,58.18,0,0,0,10.89-4.29,44.67,44.67,0,0,0,9.39-6.36A24.66,24.66,0,0,0,79.2,8.8a21.13,21.13,0,0,1-5.37,9.36,40,40,0,0,1-9.23,7.15,52.84,52.84,0,0,1-11.21,4.86,46.09,46.09,0,0,1-6.14,1.44,37.87,37.87,0,0,1-6.43.53,54,54,0,0,1-23.88-6.55,46.16,46.16,0,0,1-5-3.18,39.32,39.32,0,0,1-4.41-3.78A25,25,0,0,1,1.55,9.49Z"/><path class="cls-2" d="M4.49,7.73A28.6,28.6,0,0,0,12.32,14a58.68,58.68,0,0,0,9.4,4.25A71.15,71.15,0,0,0,31.79,21,51.73,51.73,0,0,0,42.1,22.09a55,55,0,0,0,20.23-4.2,38.42,38.42,0,0,0,16-11.77,23.41,23.41,0,0,1-5.49,8.23,36,36,0,0,1-8.68,6.28,48.66,48.66,0,0,1-10.51,4,49.37,49.37,0,0,1-11.51,1.58,42.58,42.58,0,0,1-5.88-.32,51,51,0,0,1-5.7-1,56.4,56.4,0,0,1-10.65-3.64,42.71,42.71,0,0,1-9.25-5.65A25.13,25.13,0,0,1,7,12,15.17,15.17,0,0,1,4.49,7.73Z"/><path class="cls-3" d="M1.92,4.33A43.07,43.07,0,0,0,18.8,15.86a59.23,59.23,0,0,0,10.29,2.93A69.25,69.25,0,0,0,39.87,20a60.3,60.3,0,0,0,10.83-.51,58.75,58.75,0,0,0,10.5-2.36c6.74-2.21,12.94-5.86,17.15-11a25,25,0,0,1-6.75,7.53,38.71,38.71,0,0,1-9.54,5.21,57.06,57.06,0,0,1-22.32,3.55A67.8,67.8,0,0,1,28.44,21a54.81,54.81,0,0,1-10.65-3.46A40.17,40.17,0,0,1,8.6,11.91,30.77,30.77,0,0,1,1.92,4.33Z"/><path class="cls-2" d="M11.7,5.54C14.14,6.4,16.54,7.1,19,7.72s4.88,1.17,7.32,1.63A80.49,80.49,0,0,0,41,10.86,95.06,95.06,0,0,0,55.8,9.63c2.46-.39,4.9-.88,7.31-1.51A47.8,47.8,0,0,0,70.23,5.7c-.43.41-.87.83-1.35,1.21s-1,.76-1.51,1.1a17.24,17.24,0,0,1-1.6,1c-.55.33-1.11.62-1.69.9a43.78,43.78,0,0,1-7.29,2.8A59.91,59.91,0,0,1,41,15a50.67,50.67,0,0,1-15.87-2.45,48.66,48.66,0,0,1-7.19-2.9c-1.13-.59-2.25-1.2-3.3-1.89A21.83,21.83,0,0,1,11.7,5.54Z"/><path class="cls-3" d="M8.09,3.31A33.14,33.14,0,0,0,15.64,6a79.19,79.19,0,0,0,8,1.49c2.7.35,5.41.68,8.14.87s5.46.38,8.19.47,5.47.12,8.2.07,5.45-.21,8.16-.45a59,59,0,0,0,8-1.28A27.18,27.18,0,0,0,68.13,6a14.62,14.62,0,0,0,3.43-1.88,9.68,9.68,0,0,1-1.38,1.33,13.71,13.71,0,0,1-1.66,1.11,22.56,22.56,0,0,1-3.73,1.71,46.47,46.47,0,0,1-8.13,2,88.41,88.41,0,0,1-16.81.93c-2.8-.1-5.6-.3-8.39-.58s-5.55-.71-8.28-1.29a56.9,56.9,0,0,1-8-2.22A24.15,24.15,0,0,1,8.09,3.31Z"/><path class="cls-1" d="M80.81,0V16.13c0,18.66,18.09,33.79,40.4,33.79s40.4-15.13,40.4-33.79V0Z"/><path class="cls-2" d="M82.89,18.64a26.58,26.58,0,0,0,2.63,4.72,29,29,0,0,0,3.55,4.14A40.24,40.24,0,0,0,98.2,34,56.8,56.8,0,0,0,109,38.38a53.1,53.1,0,0,0,5.73,1.38,42.35,42.35,0,0,0,5.8.72A40.62,40.62,0,0,0,132,39.27a59.13,59.13,0,0,0,11.08-3.8,41.55,41.55,0,0,0,9.65-6,20.44,20.44,0,0,0,6.3-8.7c-.11,3.55-1.89,7.06-4.44,10a35.74,35.74,0,0,1-9.47,7.47A52.2,52.2,0,0,1,133.4,43a41.77,41.77,0,0,1-13.22,1.61,50.06,50.06,0,0,1-12.87-2.54,50.4,50.4,0,0,1-11.38-5.38,33.92,33.92,0,0,1-8.85-8A20.43,20.43,0,0,1,82.89,18.64Z"/><path class="cls-3" d="M82.09,16.3a24.27,24.27,0,0,0,6,9.15,38.23,38.23,0,0,0,9.43,6.68,57.81,57.81,0,0,0,11.23,4.34,54.72,54.72,0,0,0,12,2,41.73,41.73,0,0,0,12-1.44,61.35,61.35,0,0,0,11.37-4.11A42.25,42.25,0,0,0,154,26.59a19.42,19.42,0,0,0,6.06-9c-.35,3.56-2.35,7-5,9.78a38.51,38.51,0,0,1-9.69,7.18,56.12,56.12,0,0,1-11.71,4.67,49.3,49.3,0,0,1-6.35,1.32,35.6,35.6,0,0,1-6.63.36,55.28,55.28,0,0,1-12.77-2.24A54.22,54.22,0,0,1,96.26,33.7a35.24,35.24,0,0,1-9.32-7.52A20.81,20.81,0,0,1,82.09,16.3Z"/><path class="cls-2" d="M83.16,11.83A27,27,0,0,0,90,20a46.3,46.3,0,0,0,9.36,5.9,62.78,62.78,0,0,0,10.66,4,51,51,0,0,0,11.22,1.86,38.6,38.6,0,0,0,11.08-1.49,55.81,55.81,0,0,0,10.57-4.07,47.6,47.6,0,0,0,9.31-6A28.61,28.61,0,0,0,159.06,12,21.26,21.26,0,0,1,154,21.49a39.5,39.5,0,0,1-9,7.41A50.36,50.36,0,0,1,133.84,34a39.51,39.51,0,0,1-12.84,2,49.16,49.16,0,0,1-12.6-2.26,53.2,53.2,0,0,1-11.22-5,37.37,37.37,0,0,1-9.11-7.34A19.81,19.81,0,0,1,83.16,11.83Z"/><path class="cls-3" d="M82.36,9.49a30.58,30.58,0,0,0,7,8.34,39.16,39.16,0,0,0,4.55,3.34,50.94,50.94,0,0,0,5,2.81,59.19,59.19,0,0,0,11,4,50.8,50.8,0,0,0,11.73,1.75,42.13,42.13,0,0,0,11.64-1.69,58.45,58.45,0,0,0,10.89-4.29,44.35,44.35,0,0,0,9.38-6.36A24.57,24.57,0,0,0,160,8.8a21.05,21.05,0,0,1-5.38,9.36,40,40,0,0,1-9.22,7.15,53.29,53.29,0,0,1-11.21,4.86,46.09,46.09,0,0,1-6.14,1.44,38,38,0,0,1-6.43.53,54,54,0,0,1-23.88-6.55,46.29,46.29,0,0,1-5-3.18,39.21,39.21,0,0,1-4.4-3.78A25,25,0,0,1,82.36,9.49Z"/><path class="cls-2" d="M85.29,7.73A28.9,28.9,0,0,0,93.12,14a59.49,59.49,0,0,0,9.4,4.25A71.65,71.65,0,0,0,112.6,21a51.66,51.66,0,0,0,10.31,1.08,54.9,54.9,0,0,0,20.22-4.2,38.3,38.3,0,0,0,16-11.77,23.38,23.38,0,0,1-5.48,8.23A36,36,0,0,1,145,20.63a48.66,48.66,0,0,1-10.51,4A49.37,49.37,0,0,1,123,26.24a42.64,42.64,0,0,1-5.89-.32,50.85,50.85,0,0,1-5.69-1,56.4,56.4,0,0,1-10.65-3.64,43,43,0,0,1-9.26-5.65A25.55,25.55,0,0,1,87.79,12,15.46,15.46,0,0,1,85.29,7.73Z"/><path class="cls-3" d="M82.73,4.33A43,43,0,0,0,99.6,15.86a59.59,59.59,0,0,0,10.3,2.93A69.25,69.25,0,0,0,120.68,20a60.34,60.34,0,0,0,10.83-.51A58.64,58.64,0,0,0,142,17.17c6.75-2.21,12.95-5.86,17.15-11a25,25,0,0,1-6.74,7.53,38.71,38.71,0,0,1-9.54,5.21,57.06,57.06,0,0,1-22.32,3.55A67.8,67.8,0,0,1,109.25,21,54.59,54.59,0,0,1,98.6,17.53a40.17,40.17,0,0,1-9.19-5.62A30.57,30.57,0,0,1,82.73,4.33Z"/><path class="cls-2" d="M92.51,5.54c2.43.86,4.84,1.56,7.28,2.18s4.87,1.17,7.32,1.63a80.49,80.49,0,0,0,14.65,1.51A94.93,94.93,0,0,0,136.6,9.63c2.46-.39,4.91-.88,7.32-1.51A47.29,47.29,0,0,0,151,5.7c-.43.41-.87.83-1.34,1.21s-1,.76-1.51,1.1-1.05.7-1.6,1-1.12.62-1.69.9a44.47,44.47,0,0,1-7.29,2.8A59.91,59.91,0,0,1,121.81,15a50.67,50.67,0,0,1-15.87-2.45,48.22,48.22,0,0,1-7.19-2.9,36.68,36.68,0,0,1-3.3-1.89A21.83,21.83,0,0,1,92.51,5.54Z"/><path class="cls-3" d="M88.9,3.31A33,33,0,0,0,96.45,6a79.19,79.19,0,0,0,8,1.49c2.7.35,5.41.68,8.14.87s5.45.38,8.19.47,5.47.12,8.2.07,5.45-.21,8.16-.45a59.25,59.25,0,0,0,8-1.28A27.6,27.6,0,0,0,148.94,6a14.55,14.55,0,0,0,3.42-1.88A9.11,9.11,0,0,1,151,5.44a13.71,13.71,0,0,1-1.66,1.11,23,23,0,0,1-3.73,1.71,46.69,46.69,0,0,1-8.13,2,88.47,88.47,0,0,1-16.82.93c-2.8-.1-5.59-.3-8.38-.58s-5.56-.71-8.28-1.29a57.41,57.41,0,0,1-8-2.22A24.1,24.1,0,0,1,88.9,3.31Z"/><path class="cls-1" d="M161.61,0V16.13c0,18.66,18.09,33.79,40.41,33.79s40.4-15.13,40.4-33.79V0Z"/><path class="cls-2" d="M163.7,18.64a26.58,26.58,0,0,0,2.63,4.72,28.36,28.36,0,0,0,3.55,4.14A40,40,0,0,0,179,34a57.16,57.16,0,0,0,10.79,4.35,53.5,53.5,0,0,0,5.72,1.38,42.74,42.74,0,0,0,5.8.72,40.65,40.65,0,0,0,11.53-1.21,59.62,59.62,0,0,0,11.08-3.8,41.55,41.55,0,0,0,9.65-6,20.44,20.44,0,0,0,6.3-8.7c-.11,3.55-1.9,7.06-4.44,10A35.9,35.9,0,0,1,226,38.24,52.4,52.4,0,0,1,214.21,43,41.8,41.8,0,0,1,201,44.64a50.06,50.06,0,0,1-12.87-2.54,50.68,50.68,0,0,1-11.39-5.38,34,34,0,0,1-8.84-8A20.43,20.43,0,0,1,163.7,18.64Z"/><path class="cls-3" d="M162.9,16.3a24,24,0,0,0,6,9.15,38.36,38.36,0,0,0,9.42,6.68,57.9,57.9,0,0,0,11.24,4.34,54.62,54.62,0,0,0,12,2,41.77,41.77,0,0,0,12-1.44A61.61,61.61,0,0,0,225,32.94a42.19,42.19,0,0,0,9.78-6.35,19.27,19.27,0,0,0,6.06-9c-.34,3.56-2.35,7-5,9.78a38.51,38.51,0,0,1-9.69,7.18,56.34,56.34,0,0,1-11.71,4.67,49.3,49.3,0,0,1-6.35,1.32,35.64,35.64,0,0,1-6.63.36,55.36,55.36,0,0,1-12.78-2.24,54.35,54.35,0,0,1-11.57-4.92,35.45,35.45,0,0,1-9.33-7.52A20.79,20.79,0,0,1,162.9,16.3Z"/><path class="cls-2" d="M164,11.83A26.85,26.85,0,0,0,170.78,20a46,46,0,0,0,9.36,5.9,63,63,0,0,0,10.65,4A51.18,51.18,0,0,0,202,31.77a38.62,38.62,0,0,0,11.09-1.49,56.07,56.07,0,0,0,10.57-4.07,47.89,47.89,0,0,0,9.31-6A28.77,28.77,0,0,0,239.87,12a21.26,21.26,0,0,1-5.07,9.47,39.72,39.72,0,0,1-9,7.41A50.23,50.23,0,0,1,214.64,34a39.45,39.45,0,0,1-12.83,2,49.08,49.08,0,0,1-12.6-2.26,53.2,53.2,0,0,1-11.22-5,37.37,37.37,0,0,1-9.11-7.34A19.81,19.81,0,0,1,164,11.83Z"/><path class="cls-3" d="M163.17,9.49a30.4,30.4,0,0,0,7,8.34,39.91,39.91,0,0,0,4.54,3.34,51.11,51.11,0,0,0,5,2.81,58.93,58.93,0,0,0,11,4,50.63,50.63,0,0,0,11.72,1.75,42,42,0,0,0,11.64-1.69A58.27,58.27,0,0,0,225,23.79a44.6,44.6,0,0,0,9.38-6.36,24.54,24.54,0,0,0,6.4-8.63,21,21,0,0,1-5.37,9.36,40,40,0,0,1-9.22,7.15A53.29,53.29,0,0,1,215,30.17a46.09,46.09,0,0,1-6.14,1.44,38,38,0,0,1-6.43.53,54,54,0,0,1-23.89-6.55,47.13,47.13,0,0,1-5-3.18,38.34,38.34,0,0,1-4.4-3.78A25,25,0,0,1,163.17,9.49Z"/><path class="cls-2" d="M166.1,7.73A28.75,28.75,0,0,0,173.93,14a59.08,59.08,0,0,0,9.4,4.25A70.91,70.91,0,0,0,193.41,21a51.58,51.58,0,0,0,10.31,1.08,55,55,0,0,0,20.22-4.2A38.36,38.36,0,0,0,240,6.12a23.27,23.27,0,0,1-5.49,8.23,35.94,35.94,0,0,1-8.67,6.28,49.06,49.06,0,0,1-10.51,4,49.37,49.37,0,0,1-11.51,1.58,42.64,42.64,0,0,1-5.89-.32,50.85,50.85,0,0,1-5.69-1,56.4,56.4,0,0,1-10.65-3.64,42.78,42.78,0,0,1-9.26-5.65A24.57,24.57,0,0,1,168.6,12,15.21,15.21,0,0,1,166.1,7.73Z"/><path class="cls-3" d="M163.54,4.33a43,43,0,0,0,16.87,11.53,59.59,59.59,0,0,0,10.3,2.93A69.25,69.25,0,0,0,201.49,20a60.38,60.38,0,0,0,10.83-.51,58.84,58.84,0,0,0,10.49-2.36c6.75-2.21,12.94-5.86,17.15-11a25,25,0,0,1-6.74,7.53,38.59,38.59,0,0,1-9.55,5.21,57.06,57.06,0,0,1-22.32,3.55A67.55,67.55,0,0,1,190.06,21a54.37,54.37,0,0,1-10.65-3.46,40.24,40.24,0,0,1-9.2-5.62A30.52,30.52,0,0,1,163.54,4.33Z"/><path class="cls-2" d="M173.32,5.54c2.43.86,4.84,1.56,7.28,2.18s4.87,1.17,7.32,1.63a80.4,80.4,0,0,0,14.65,1.51,95,95,0,0,0,14.84-1.23c2.46-.39,4.9-.88,7.32-1.51a47.68,47.68,0,0,0,7.11-2.42c-.43.41-.87.83-1.35,1.21s-1,.76-1.5,1.1a18.84,18.84,0,0,1-1.61,1c-.54.33-1.11.62-1.69.9a44,44,0,0,1-7.28,2.8A60,60,0,0,1,202.62,15a50.62,50.62,0,0,1-15.87-2.45,48.22,48.22,0,0,1-7.19-2.9,36.68,36.68,0,0,1-3.3-1.89A21.22,21.22,0,0,1,173.32,5.54Z"/><path class="cls-3" d="M169.71,3.31A33,33,0,0,0,177.26,6a78.67,78.67,0,0,0,8,1.49c2.7.35,5.4.68,8.13.87s5.46.38,8.2.47,5.47.12,8.2.07,5.45-.21,8.16-.45a58.85,58.85,0,0,0,8-1.28A27.31,27.31,0,0,0,229.75,6a14.55,14.55,0,0,0,3.42-1.88,10.16,10.16,0,0,1-1.37,1.33,14.54,14.54,0,0,1-1.66,1.11,22.67,22.67,0,0,1-3.74,1.71,46.25,46.25,0,0,1-8.13,2,88.32,88.32,0,0,1-16.81.93c-2.8-.1-5.59-.3-8.38-.58s-5.56-.71-8.29-1.29a57.27,57.27,0,0,1-8-2.22A24.1,24.1,0,0,1,169.71,3.31Z"/><path class="cls-1" d="M242.42,0V16.13c0,18.66,18.09,33.79,40.41,33.79s40.4-15.13,40.4-33.79V0Z"/><path class="cls-2" d="M244.5,18.64a27.22,27.22,0,0,0,2.63,4.72,29.64,29.64,0,0,0,3.55,4.14A40.24,40.24,0,0,0,259.81,34a57.34,57.34,0,0,0,10.78,4.35,53.68,53.68,0,0,0,5.73,1.38,42.74,42.74,0,0,0,5.8.72,40.58,40.58,0,0,0,11.52-1.21,59.47,59.47,0,0,0,11.09-3.8,41.55,41.55,0,0,0,9.65-6,20.34,20.34,0,0,0,6.29-8.7c-.1,3.55-1.89,7.06-4.44,10a35.58,35.58,0,0,1-9.47,7.47A52.13,52.13,0,0,1,295,43a41.8,41.8,0,0,1-13.22,1.61,50.06,50.06,0,0,1-12.87-2.54,50.27,50.27,0,0,1-11.39-5.38,34.08,34.08,0,0,1-8.85-8A20.53,20.53,0,0,1,244.5,18.64Z"/><path class="cls-3" d="M243.71,16.3a24.13,24.13,0,0,0,6,9.15,38.42,38.42,0,0,0,9.43,6.68,58.06,58.06,0,0,0,11.23,4.34,54.71,54.71,0,0,0,12.05,2,41.7,41.7,0,0,0,12-1.44,61.09,61.09,0,0,0,11.37-4.11,42.25,42.25,0,0,0,9.79-6.35,19.27,19.27,0,0,0,6.06-9c-.34,3.56-2.35,7-5,9.78a38.45,38.45,0,0,1-9.68,7.18,56.34,56.34,0,0,1-11.71,4.67,49.45,49.45,0,0,1-6.36,1.32,35.49,35.49,0,0,1-6.62.36,55.27,55.27,0,0,1-12.78-2.24,54.44,54.44,0,0,1-11.58-4.92,35.56,35.56,0,0,1-9.32-7.52A20.79,20.79,0,0,1,243.71,16.3Z"/><path class="cls-2" d="M244.77,11.83A27,27,0,0,0,251.59,20a46,46,0,0,0,9.36,5.9,62.67,62.67,0,0,0,10.65,4,51.08,51.08,0,0,0,11.22,1.86,38.51,38.51,0,0,0,11.08-1.49,56.16,56.16,0,0,0,10.58-4.07,47.82,47.82,0,0,0,9.3-6A28.45,28.45,0,0,0,320.67,12a21.06,21.06,0,0,1-5.07,9.47,39.28,39.28,0,0,1-9,7.41A49.94,49.94,0,0,1,295.45,34a39.49,39.49,0,0,1-12.83,2A49.08,49.08,0,0,1,270,33.67a53.51,53.51,0,0,1-11.23-5,37.13,37.13,0,0,1-9.1-7.34A19.92,19.92,0,0,1,244.77,11.83Z"/><path class="cls-3" d="M244,9.49a30.54,30.54,0,0,0,7,8.34,40,40,0,0,0,4.55,3.34,50.94,50.94,0,0,0,5,2.81,59.45,59.45,0,0,0,11,4,50.8,50.8,0,0,0,11.73,1.75,42.07,42.07,0,0,0,11.64-1.69,58.27,58.27,0,0,0,10.9-4.29,44.86,44.86,0,0,0,9.38-6.36,24.54,24.54,0,0,0,6.4-8.63,21,21,0,0,1-5.37,9.36A40.17,40.17,0,0,1,307,25.31a53.14,53.14,0,0,1-11.22,4.86,45.94,45.94,0,0,1-6.13,1.44,38,38,0,0,1-6.43.53,54,54,0,0,1-23.89-6.55,46.16,46.16,0,0,1-5-3.18,38.34,38.34,0,0,1-4.4-3.78A24.86,24.86,0,0,1,244,9.49Z"/><path class="cls-2" d="M246.91,7.73A28.75,28.75,0,0,0,254.74,14a59.08,59.08,0,0,0,9.4,4.25A71.15,71.15,0,0,0,274.21,21a51.76,51.76,0,0,0,10.32,1.08,55,55,0,0,0,20.22-4.2,38.36,38.36,0,0,0,16-11.77,23.27,23.27,0,0,1-5.49,8.23,36,36,0,0,1-8.68,6.28,48.78,48.78,0,0,1-10.5,4,49.46,49.46,0,0,1-11.52,1.58,42.58,42.58,0,0,1-5.88-.32,50.45,50.45,0,0,1-5.69-1,56.26,56.26,0,0,1-10.66-3.64,43,43,0,0,1-9.25-5.65A24.57,24.57,0,0,1,249.41,12,15,15,0,0,1,246.91,7.73Z"/><path class="cls-3" d="M244.35,4.33a43,43,0,0,0,16.87,11.53,59.48,59.48,0,0,0,10.29,2.93A69.51,69.51,0,0,0,282.3,20a60.23,60.23,0,0,0,10.82-.51,58.75,58.75,0,0,0,10.5-2.36c6.75-2.21,12.94-5.86,17.15-11A25,25,0,0,1,314,13.65a38.77,38.77,0,0,1-9.55,5.21,57.06,57.06,0,0,1-22.32,3.55A67.8,67.8,0,0,1,270.86,21a54.81,54.81,0,0,1-10.65-3.46A40.39,40.39,0,0,1,251,11.91,30.52,30.52,0,0,1,244.35,4.33Z"/><path class="cls-2" d="M254.12,5.54c2.44.86,4.84,1.56,7.28,2.18s4.88,1.17,7.32,1.63a80.51,80.51,0,0,0,14.66,1.51,95,95,0,0,0,14.84-1.23c2.46-.39,4.9-.88,7.31-1.51a47.41,47.41,0,0,0,7.12-2.42c-.43.41-.87.83-1.35,1.21s-1,.76-1.5,1.1a18.84,18.84,0,0,1-1.61,1c-.55.33-1.11.62-1.69.9a43.78,43.78,0,0,1-7.29,2.8A59.84,59.84,0,0,1,283.42,15a50.56,50.56,0,0,1-15.86-2.45,48.34,48.34,0,0,1-7.2-2.9,37.94,37.94,0,0,1-3.29-1.89A21.32,21.32,0,0,1,254.12,5.54Z"/><path class="cls-3" d="M250.51,3.31A33,33,0,0,0,258.07,6a78.48,78.48,0,0,0,8,1.49c2.7.35,5.41.68,8.14.87s5.46.38,8.2.47,5.46.12,8.19.07,5.46-.21,8.16-.45a59,59,0,0,0,8-1.28A26.77,26.77,0,0,0,310.55,6,14.62,14.62,0,0,0,314,4.11a9.68,9.68,0,0,1-1.38,1.33A14.41,14.41,0,0,1,311,6.55a23.05,23.05,0,0,1-3.74,1.71,46.47,46.47,0,0,1-8.13,2,88.36,88.36,0,0,1-16.81.93c-2.8-.1-5.6-.3-8.38-.58s-5.56-.71-8.29-1.29a57.27,57.27,0,0,1-8-2.22A24.28,24.28,0,0,1,250.51,3.31Z"/><path class="cls-1" d="M323.23,0V16.13c0,18.66,18.09,33.79,40.4,33.79S404,34.79,404,16.13V0Z"/><path class="cls-2" d="M325.31,18.64a26.58,26.58,0,0,0,2.63,4.72,29.64,29.64,0,0,0,3.55,4.14A40.24,40.24,0,0,0,340.62,34a57.07,57.07,0,0,0,10.78,4.35,53.68,53.68,0,0,0,5.73,1.38,42.35,42.35,0,0,0,5.8.72,40.62,40.62,0,0,0,11.52-1.21,59.47,59.47,0,0,0,11.09-3.8,41.7,41.7,0,0,0,9.64-6,20.44,20.44,0,0,0,6.3-8.7c-.11,3.55-1.89,7.06-4.44,10a35.74,35.74,0,0,1-9.47,7.47A52,52,0,0,1,375.82,43a41.77,41.77,0,0,1-13.22,1.61,49.9,49.9,0,0,1-12.86-2.54,50.27,50.27,0,0,1-11.39-5.38,34.08,34.08,0,0,1-8.85-8A20.43,20.43,0,0,1,325.31,18.64Z"/><path class="cls-3" d="M324.51,16.3a24.27,24.27,0,0,0,6,9.15,38.42,38.42,0,0,0,9.43,6.68,58.06,58.06,0,0,0,11.23,4.34,54.71,54.71,0,0,0,12.05,2,41.7,41.7,0,0,0,12-1.44,61.09,61.09,0,0,0,11.37-4.11,42.25,42.25,0,0,0,9.79-6.35,19.35,19.35,0,0,0,6.06-9c-.35,3.56-2.35,7-5,9.78a38.63,38.63,0,0,1-9.68,7.18A56.43,56.43,0,0,1,376,39.18a49,49,0,0,1-6.35,1.32,35.53,35.53,0,0,1-6.62.36,55.27,55.27,0,0,1-12.78-2.24,54.44,54.44,0,0,1-11.58-4.92,35.4,35.4,0,0,1-9.32-7.52A20.9,20.9,0,0,1,324.51,16.3Z"/><path class="cls-2" d="M325.58,11.83A27.14,27.14,0,0,0,332.39,20a46.3,46.3,0,0,0,9.36,5.9,63.1,63.1,0,0,0,10.66,4,51.08,51.08,0,0,0,11.22,1.86,38.6,38.6,0,0,0,11.08-1.49,56.16,56.16,0,0,0,10.58-4.07,47.82,47.82,0,0,0,9.3-6A28.45,28.45,0,0,0,401.48,12a21.16,21.16,0,0,1-5.07,9.47,39.5,39.5,0,0,1-9,7.41A50.36,50.36,0,0,1,376.26,34a39.51,39.51,0,0,1-12.84,2,49.08,49.08,0,0,1-12.59-2.26,53.28,53.28,0,0,1-11.23-5,37.13,37.13,0,0,1-9.1-7.34A19.83,19.83,0,0,1,325.58,11.83Z"/><path class="cls-3" d="M324.78,9.49a30.58,30.58,0,0,0,7,8.34,39.16,39.16,0,0,0,4.55,3.34,50.94,50.94,0,0,0,5,2.81,59.19,59.19,0,0,0,11,4,50.8,50.8,0,0,0,11.73,1.75,42.13,42.13,0,0,0,11.64-1.69,58.18,58.18,0,0,0,10.89-4.29A44.67,44.67,0,0,0,396,17.43a24.66,24.66,0,0,0,6.4-8.63,21.13,21.13,0,0,1-5.37,9.36,40.23,40.23,0,0,1-9.23,7.15,52.84,52.84,0,0,1-11.21,4.86,46.09,46.09,0,0,1-6.14,1.44,37.87,37.87,0,0,1-6.43.53,54,54,0,0,1-23.88-6.55,46.16,46.16,0,0,1-5-3.18,39.32,39.32,0,0,1-4.41-3.78A25,25,0,0,1,324.78,9.49Z"/><path class="cls-2" d="M327.72,7.73A28.6,28.6,0,0,0,335.55,14a58.68,58.68,0,0,0,9.4,4.25A71.15,71.15,0,0,0,355,21a51.73,51.73,0,0,0,10.31,1.08,55,55,0,0,0,20.23-4.2,38.42,38.42,0,0,0,16-11.77,23.41,23.41,0,0,1-5.49,8.23,36,36,0,0,1-8.68,6.28,48.66,48.66,0,0,1-10.51,4,49.37,49.37,0,0,1-11.51,1.58,42.58,42.58,0,0,1-5.88-.32,50.63,50.63,0,0,1-5.7-1,56.4,56.4,0,0,1-10.65-3.64,42.71,42.71,0,0,1-9.25-5.65,25.13,25.13,0,0,1-3.7-3.66A15.17,15.17,0,0,1,327.72,7.73Z"/><path class="cls-3" d="M325.15,4.33A43.07,43.07,0,0,0,342,15.86a59.23,59.23,0,0,0,10.29,2.93A69.25,69.25,0,0,0,363.1,20a60.3,60.3,0,0,0,10.83-.51,58.75,58.75,0,0,0,10.5-2.36c6.74-2.21,12.94-5.86,17.15-11a25,25,0,0,1-6.75,7.53,38.71,38.71,0,0,1-9.54,5.21A57.06,57.06,0,0,1,363,22.41,67.8,67.8,0,0,1,351.67,21,54.59,54.59,0,0,1,341,17.53a40.17,40.17,0,0,1-9.19-5.62A30.57,30.57,0,0,1,325.15,4.33Z"/><path class="cls-2" d="M334.93,5.54c2.44.86,4.84,1.56,7.28,2.18s4.88,1.17,7.32,1.63a80.49,80.49,0,0,0,14.65,1.51A94.83,94.83,0,0,0,379,9.63c2.47-.39,4.91-.88,7.32-1.51a47.8,47.8,0,0,0,7.12-2.42c-.43.41-.87.83-1.35,1.21s-1,.76-1.51,1.1A17.24,17.24,0,0,1,389,9c-.55.33-1.11.62-1.69.9a43.78,43.78,0,0,1-7.29,2.8A59.91,59.91,0,0,1,364.23,15a50.67,50.67,0,0,1-15.87-2.45,48.66,48.66,0,0,1-7.19-2.9c-1.13-.59-2.25-1.2-3.3-1.89A21.83,21.83,0,0,1,334.93,5.54Z"/><path class="cls-3" d="M331.32,3.31A33.14,33.14,0,0,0,338.87,6a79.19,79.19,0,0,0,8,1.49c2.7.35,5.41.68,8.14.87s5.46.38,8.19.47,5.47.12,8.2.07,5.45-.21,8.16-.45a59.25,59.25,0,0,0,8-1.28A27.18,27.18,0,0,0,391.36,6a14.82,14.82,0,0,0,3.43-1.88,9.68,9.68,0,0,1-1.38,1.33,13.71,13.71,0,0,1-1.66,1.11A22.56,22.56,0,0,1,388,8.26a46.47,46.47,0,0,1-8.13,2,88.41,88.41,0,0,1-16.81.93c-2.8-.1-5.6-.3-8.39-.58s-5.55-.71-8.28-1.29a56.9,56.9,0,0,1-8-2.22A24.15,24.15,0,0,1,331.32,3.31Z"/><path class="cls-1" d="M404,0V16.13c0,18.66,18.09,33.79,40.4,33.79s40.4-15.13,40.4-33.79V0Z"/><path class="cls-2" d="M406.12,18.64a26.58,26.58,0,0,0,2.63,4.72,29,29,0,0,0,3.55,4.14A40.24,40.24,0,0,0,421.43,34a56.8,56.8,0,0,0,10.78,4.35,53.1,53.1,0,0,0,5.73,1.38,42.35,42.35,0,0,0,5.8.72,40.62,40.62,0,0,0,11.52-1.21,59.37,59.37,0,0,0,11.08-3.8,41.55,41.55,0,0,0,9.65-6,20.44,20.44,0,0,0,6.3-8.7c-.11,3.55-1.89,7.06-4.44,10a35.74,35.74,0,0,1-9.47,7.47A52.2,52.2,0,0,1,456.63,43a41.77,41.77,0,0,1-13.22,1.61,50.06,50.06,0,0,1-12.87-2.54,50.4,50.4,0,0,1-11.38-5.38,33.92,33.92,0,0,1-8.85-8A20.43,20.43,0,0,1,406.12,18.64Z"/><path class="cls-3" d="M405.32,16.3a24.27,24.27,0,0,0,6,9.15,38.23,38.23,0,0,0,9.43,6.68A57.81,57.81,0,0,0,432,36.47a54.72,54.72,0,0,0,12,2,41.73,41.73,0,0,0,12-1.44,61.35,61.35,0,0,0,11.37-4.11,42.25,42.25,0,0,0,9.79-6.35,19.42,19.42,0,0,0,6.06-9c-.35,3.56-2.35,7-5,9.78a38.51,38.51,0,0,1-9.69,7.18,56.12,56.12,0,0,1-11.71,4.67,49.3,49.3,0,0,1-6.35,1.32,35.6,35.6,0,0,1-6.63.36,55.28,55.28,0,0,1-12.77-2.24,54.22,54.22,0,0,1-11.58-4.92,35.24,35.24,0,0,1-9.32-7.52A20.81,20.81,0,0,1,405.32,16.3Z"/><path class="cls-2" d="M406.39,11.83A27,27,0,0,0,413.2,20a46.3,46.3,0,0,0,9.36,5.9,62.78,62.78,0,0,0,10.66,4,51,51,0,0,0,11.22,1.86,38.6,38.6,0,0,0,11.08-1.49,56.07,56.07,0,0,0,10.57-4.07,47.6,47.6,0,0,0,9.31-6A28.61,28.61,0,0,0,482.29,12a21.26,21.26,0,0,1-5.07,9.47,39.72,39.72,0,0,1-9,7.41A50.36,50.36,0,0,1,457.07,34a39.51,39.51,0,0,1-12.84,2,49.16,49.16,0,0,1-12.6-2.26,53.2,53.2,0,0,1-11.22-5,37.37,37.37,0,0,1-9.11-7.34A19.81,19.81,0,0,1,406.39,11.83Z"/><path class="cls-3" d="M405.59,9.49a30.58,30.58,0,0,0,7,8.34,39.16,39.16,0,0,0,4.55,3.34,50.94,50.94,0,0,0,5,2.81,59.19,59.19,0,0,0,11,4,50.79,50.79,0,0,0,11.72,1.75,42.14,42.14,0,0,0,11.65-1.69,58.45,58.45,0,0,0,10.89-4.29,44.35,44.35,0,0,0,9.38-6.36,24.57,24.57,0,0,0,6.41-8.63,21.05,21.05,0,0,1-5.38,9.36,40,40,0,0,1-9.22,7.15,53.29,53.29,0,0,1-11.21,4.86,46.09,46.09,0,0,1-6.14,1.44,38,38,0,0,1-6.43.53A54,54,0,0,1,421,25.59a46.29,46.29,0,0,1-5.05-3.18,39.21,39.21,0,0,1-4.4-3.78A25,25,0,0,1,405.59,9.49Z"/><path class="cls-2" d="M408.52,7.73A28.9,28.9,0,0,0,416.35,14a59.49,59.49,0,0,0,9.4,4.25A71.65,71.65,0,0,0,435.83,21a51.66,51.66,0,0,0,10.31,1.08,54.9,54.9,0,0,0,20.22-4.2,38.3,38.3,0,0,0,16-11.77,23.38,23.38,0,0,1-5.48,8.23,36,36,0,0,1-8.68,6.28,48.66,48.66,0,0,1-10.51,4,49.37,49.37,0,0,1-11.51,1.58,42.64,42.64,0,0,1-5.89-.32,50.85,50.85,0,0,1-5.69-1A56.4,56.4,0,0,1,424,21.28a42.78,42.78,0,0,1-9.26-5.65A25.05,25.05,0,0,1,411,12,15.46,15.46,0,0,1,408.52,7.73Z"/><path class="cls-3" d="M406,4.33a43,43,0,0,0,16.87,11.53,59.59,59.59,0,0,0,10.3,2.93A69.25,69.25,0,0,0,443.91,20a60.34,60.34,0,0,0,10.83-.51,58.64,58.64,0,0,0,10.49-2.36c6.75-2.21,12.95-5.86,17.15-11a25,25,0,0,1-6.74,7.53,38.71,38.71,0,0,1-9.54,5.21,57.08,57.08,0,0,1-22.33,3.55A67.82,67.82,0,0,1,432.48,21a54.59,54.59,0,0,1-10.65-3.46,40.17,40.17,0,0,1-9.19-5.62A30.57,30.57,0,0,1,406,4.33Z"/><path class="cls-2" d="M415.74,5.54c2.43.86,4.84,1.56,7.28,2.18s4.87,1.17,7.32,1.63A80.49,80.49,0,0,0,445,10.86a94.93,94.93,0,0,0,14.84-1.23c2.46-.39,4.91-.88,7.32-1.51a47.68,47.68,0,0,0,7.11-2.42c-.43.41-.87.83-1.35,1.21s-1,.76-1.5,1.1-1.05.7-1.6,1-1.12.62-1.69.9a44.47,44.47,0,0,1-7.29,2.8A59.91,59.91,0,0,1,445,15a50.67,50.67,0,0,1-15.87-2.45A48.22,48.22,0,0,1,422,9.66a36.68,36.68,0,0,1-3.3-1.89A21.83,21.83,0,0,1,415.74,5.54Z"/><path class="cls-3" d="M412.13,3.31A33,33,0,0,0,419.68,6a79.19,79.19,0,0,0,8,1.49c2.7.35,5.41.68,8.14.87s5.45.38,8.19.47,5.47.12,8.2.07,5.45-.21,8.16-.45a59.25,59.25,0,0,0,8-1.28A27.6,27.6,0,0,0,472.17,6a14.55,14.55,0,0,0,3.42-1.88,9.11,9.11,0,0,1-1.37,1.33,13.71,13.71,0,0,1-1.66,1.11,23,23,0,0,1-3.73,1.71,46.69,46.69,0,0,1-8.13,2,88.47,88.47,0,0,1-16.82.93c-2.8-.1-5.59-.3-8.38-.58s-5.56-.71-8.28-1.29a57.41,57.41,0,0,1-8-2.22A24.1,24.1,0,0,1,412.13,3.31Z"/></g></g></svg>