<svg xmlns="http://www.w3.org/2000/svg" viewBox="0 0 151.58 352.21"><defs><style>.cls-1{fill:#d92724;}.cls-2{fill:#e35442;}.cls-3{fill:#bd262f;}</style></defs><g id="레이어_2" data-name="레이어 2"><g id="_C__2" data-name="©©C©₩[_2"><path class="cls-1" d="M151.58,0H0V165.66H28.42C94.74,148.69,151.58,60.29,151.58,0Z"/><path class="cls-2" d="M133.16,18.55a184.16,184.16,0,0,1-8.3,39.61,146.11,146.11,0,0,1-18.22,37,162.23,162.23,0,0,1-28.15,31.18,213.63,213.63,0,0,1-34.68,24.37c10.61-9.16,21.1-18.24,30.81-27.94A220.44,220.44,0,0,0,100.73,91.7a197.2,197.2,0,0,0,19-35.19C124.88,44.19,129,31.41,133.16,18.55Z"/><path class="cls-2" d="M106.13,16.72a182.68,182.68,0,0,1-6,39.83A155,155,0,0,1,84.58,94.44,150.85,150.85,0,0,1,59,127.34a167.69,167.69,0,0,1-33.65,25.45A327.53,327.53,0,0,0,54.86,124,201,201,0,0,0,78.4,91.39,214.75,214.75,0,0,0,94.86,55.17C99.27,42.62,102.72,29.73,106.13,16.72Z"/><path class="cls-2" d="M80.7,14.12a150.73,150.73,0,0,1-2.55,37.21,150.57,150.57,0,0,1-11.64,36A156.47,156.47,0,0,1,46.09,119.7a168.79,168.79,0,0,1-27.63,27.11c8.17-9.85,16.07-19.7,23.14-30A229.36,229.36,0,0,0,60.1,84.69,223.73,223.73,0,0,0,72.83,50.25C76.13,38.44,78.52,26.37,80.7,14.12Z"/><path class="cls-2" d="M49,14.05a186.48,186.48,0,0,1,.39,32.66A183.59,183.59,0,0,1,44,79.12a173.16,173.16,0,0,1-11.27,31.1,168.91,168.91,0,0,1-17.25,28.51c4.53-10,9-20,12.86-30.12a289.68,289.68,0,0,0,9.82-30.79q4-15.61,6.52-31.58C46.36,35.59,47.58,24.87,49,14.05Z"/><path class="cls-2" d="M21.45,18.89A93.07,93.07,0,0,1,28,46.08a130,130,0,0,1-.55,28,163.93,163.93,0,0,1-5.89,27.35,166.62,166.62,0,0,1-10.35,26.07c1.85-9.12,4-18.08,5.76-27.07s3.39-18,4.52-27a224.22,224.22,0,0,0,1.81-27.14A199.45,199.45,0,0,0,21.45,18.89Z"/><path class="cls-3" d="M134.41,8.44a97.79,97.79,0,0,1-4.33,22.7A189.6,189.6,0,0,1,121.84,53c-3.13,7.14-6.71,14.11-10.48,21s-8,13.54-12.3,20.11-9,13-14,19.16A219.71,219.71,0,0,1,69.12,131a138.64,138.64,0,0,1-18.46,15.63c-1.65,1.17-3.43,2.21-5.14,3.31-.89.51-1.8,1-2.69,1.49a29.47,29.47,0,0,1-2.74,1.41,50.5,50.5,0,0,1-11.67,4,66,66,0,0,0,21-11.65A155.29,155.29,0,0,0,66.8,129.09a289.37,289.37,0,0,0,28.86-37Q102.2,82.41,108,72.31c3.92-6.71,7.53-13.56,11-20.49s6.55-14,9.22-21.22A119.36,119.36,0,0,0,134.41,8.44Z"/><path class="cls-3" d="M107.37,7.61a126.62,126.62,0,0,1-3.59,23.24,221,221,0,0,1-6.84,22.66,267.65,267.65,0,0,1-20,43.25C68.88,110.57,59.57,123.89,48,135.52A101.16,101.16,0,0,1,28.7,151a67.18,67.18,0,0,1-11.33,5.46,50.14,50.14,0,0,1-12.32,2.79,54.55,54.55,0,0,0,11.88-3.73,70.45,70.45,0,0,0,10.66-6,107.72,107.72,0,0,0,18.1-15.88,180.68,180.68,0,0,0,15-18.58q6.88-9.7,12.77-20c4-6.82,7.64-13.81,11.06-20.9S91.06,59.83,94,52.55s5.59-14.66,7.87-22.14A162.4,162.4,0,0,0,107.37,7.61Z"/><path class="cls-3" d="M81.68,6.83a193.78,193.78,0,0,1-7.21,39.82c-1.8,6.54-4,13-6.27,19.39s-5,12.7-7.73,18.94-5.88,12.36-9.18,18.39S44.44,115.31,40.53,121a167.59,167.59,0,0,1-12.68,16.52A109.77,109.77,0,0,1,12.63,152c10-9.77,18-20.93,25.22-32.48,3.55-5.81,6.94-11.69,10-17.71S54,89.72,56.78,83.55s5.41-12.38,7.85-18.66,4.71-12.64,6.84-19A310.69,310.69,0,0,0,81.68,6.83Z"/><path class="cls-3" d="M50.11,5.07a342.06,342.06,0,0,1-4.43,37.45c-1,6.21-2.25,12.4-3.54,18.57-.62,3.09-1.37,6.15-2.08,9.22L39,74.92l-1.16,4.59c-.8,3.06-1.6,6.11-2.49,9.15s-1.69,6.09-2.68,9.1c-1.91,6-3.89,12.06-6.18,18s-4.72,11.82-7.55,17.55l-2.14,4.28-2.38,4.19c-1.5,2.82-3.46,5.42-5.23,8.09l2.18-4.25c.36-.71.76-1.4,1.08-2.12l1-2.17,2-4.32,1.75-4.39c1.23-2.9,2.25-5.89,3.33-8.84s2-6,3.06-8.92c1.92-6,3.82-12,5.5-18,.9-3,1.7-6,2.54-9.06s1.62-6.07,2.39-9.11l1.2-4.55,1.13-4.57q1.13-4.57,2.19-9.16c1.5-6.09,2.79-12.23,4.18-18.35C45.29,29.75,47.75,17.44,50.11,5.07Z"/><path class="cls-3" d="M19.79,6.05a195.34,195.34,0,0,1,3.57,35.78c.11,3,.05,6,0,9l-.09,4.5L23,59.83c-.13,3-.33,6-.62,9s-.48,6-.85,9q-1.05,9-2.55,17.84c-1.07,5.92-2.21,11.83-3.63,17.68A202.64,202.64,0,0,1,4.21,147.71c3.29-11.58,5.89-23.24,8.1-35,.3-1.46.54-2.93.79-4.4l.77-4.41c.53-2.93.93-5.88,1.39-8.83.88-5.89,1.7-11.79,2.32-17.71.4-3,.65-5.91.94-8.87.14-1.48.31-3,.42-4.45l.32-4.45.36-4.44.23-4.46c.14-3,.35-5.94.4-8.91C20.65,29.91,20.53,18,19.79,6.05Z"/><path class="cls-3" d="M7.47,171l3,179.51a18.81,18.81,0,0,1,2-.12,15.19,15.19,0,0,1,2.33.16L9.84,171Z"/><path class="cls-2" d="M9.84,171l4.94,179.55a19.53,19.53,0,0,1,3.53,1L11.73,171.05Z"/><path class="cls-1" d="M11.73,171.05,18.31,351.6a12.63,12.63,0,0,0,4.21.61,20.25,20.25,0,0,0,3.13-.24c-.94-21.68-5.79-133.79-7.48-180.91Z"/><path class="cls-1" d="M0,171V351.93c1.5.67,4.14-.14,7.17-.8L6,171Z"/><path class="cls-2" d="M6,171l1.17,180.1a30.9,30.9,0,0,1,3.29-.58L7.47,171Z"/><path class="cls-2" d="M18.17,171.06c1.69,47.12,6.54,159.23,7.48,180.91a30.88,30.88,0,0,0,4-1c-.94-18.89-6.57-132-9.86-179.9Z"/><path class="cls-1" d="M37.08,202.38c-1-11.19-6.15-31.29-8.52-31.29H24.25c6.13,51.43,12.29,161.75,13.3,180.4,1.9.29,3.52.19,4.1-1.45C42.79,346.8,43,338.18,43,334.42,43,296.81,40.93,243.21,37.08,202.38Z"/><path class="cls-2" d="M22.24,171.07C26.61,224.91,32.83,331,34,350.78c1.19.21,2.43.52,3.57.7-1-18.65-7.17-129-13.3-180.4Z"/><path class="cls-3" d="M19.81,171.07c3.29,47.91,8.92,161,9.86,179.9a8.32,8.32,0,0,1,2.33-.4,11.81,11.81,0,0,1,2,.21C32.83,331,26.61,224.91,22.24,171.07Z"/><path class="cls-3" d="M0,160.24V174c7.61,0,27.68.35,30.16-.93,1.38-.71,4.68-8.42,4.68-10.89,0-2-4-1.44-7.78-1.59C23.57,160.39,5.36,160.1,0,160.24Z"/></g></g></svg>