<svg xmlns="http://www.w3.org/2000/svg" viewBox="0 0 151.58 352.21"><defs><style>.cls-1{fill:#d92724;}.cls-2{fill:#e35442;}.cls-3{fill:#bd262f;}</style></defs><g id="레이어_2" data-name="레이어 2"><g id="_C__2" data-name="©©C©₩[_2"><path class="cls-1" d="M0,0H151.58V165.66H123.16C56.84,148.69,0,60.29,0,0Z"/><path class="cls-2" d="M18.42,18.55a183.56,183.56,0,0,0,8.3,39.61,146.11,146.11,0,0,0,18.22,37,162.17,162.17,0,0,0,28.14,31.18,213.72,213.72,0,0,0,34.69,24.37c-10.61-9.16-21.1-18.24-30.81-27.94A219.76,219.76,0,0,1,50.85,91.7a196.56,196.56,0,0,1-19-35.19C26.7,44.19,22.62,31.41,18.42,18.55Z"/><path class="cls-2" d="M45.45,16.72a182.08,182.08,0,0,0,6,39.83A155,155,0,0,0,67,94.44a150.85,150.85,0,0,0,25.62,32.9,167.4,167.4,0,0,0,33.65,25.45A327.53,327.53,0,0,1,96.72,124a201.72,201.72,0,0,1-23.55-32.6A216.34,216.34,0,0,1,56.71,55.17C52.31,42.62,48.85,29.73,45.45,16.72Z"/><path class="cls-2" d="M70.88,14.12a150.73,150.73,0,0,0,2.55,37.21,150.57,150.57,0,0,0,11.64,36,156.05,156.05,0,0,0,20.42,32.42,168.79,168.79,0,0,0,27.63,27.11C125,137,117,127.11,110,116.81a229.36,229.36,0,0,1-18.5-32.12A223.73,223.73,0,0,1,78.75,50.25C75.44,38.44,73.06,26.37,70.88,14.12Z"/><path class="cls-2" d="M102.63,14.05a186.48,186.48,0,0,0-.39,32.66,183.59,183.59,0,0,0,5.35,32.41,173.16,173.16,0,0,0,11.27,31.1,169.51,169.51,0,0,0,17.24,28.51c-4.52-10-9-20-12.85-30.12a289.68,289.68,0,0,1-9.82-30.79q-4-15.61-6.52-31.58C105.22,35.59,104,24.87,102.63,14.05Z"/><path class="cls-2" d="M130.13,18.89a92.44,92.44,0,0,0-6.52,27.19,129.39,129.39,0,0,0,.55,28,163.93,163.93,0,0,0,5.89,27.35,166.62,166.62,0,0,0,10.35,26.07c-1.86-9.12-4-18.08-5.76-27.07s-3.39-18-4.52-27a226.28,226.28,0,0,1-1.82-27.14A201.05,201.05,0,0,1,130.13,18.89Z"/><path class="cls-3" d="M17.17,8.44a97.79,97.79,0,0,0,4.33,22.7A191.41,191.41,0,0,0,29.73,53c3.14,7.14,6.72,14.11,10.49,21s8,13.54,12.3,20.11,9,13,14,19.16A219.71,219.71,0,0,0,82.46,131a139.18,139.18,0,0,0,18.45,15.63c1.66,1.17,3.44,2.21,5.15,3.31.89.51,1.79,1,2.69,1.49a29.47,29.47,0,0,0,2.74,1.41,50.34,50.34,0,0,0,11.67,4,66,66,0,0,1-21-11.65,155.29,155.29,0,0,1-17.35-16.14,288.48,288.48,0,0,1-28.86-37q-6.54-9.69-12.36-19.79c-3.92-6.71-7.53-13.56-11-20.49S26,37.82,23.37,30.6A119.36,119.36,0,0,1,17.17,8.44Z"/><path class="cls-3" d="M44.21,7.61A126.62,126.62,0,0,0,47.8,30.85a223.45,223.45,0,0,0,6.83,22.66,268.56,268.56,0,0,0,20,43.25c8.06,13.81,17.37,27.13,28.92,38.76A101.16,101.16,0,0,0,122.88,151a67.18,67.18,0,0,0,11.33,5.46,50.14,50.14,0,0,0,12.32,2.79,54.38,54.38,0,0,1-11.88-3.73,70,70,0,0,1-10.66-6,107.72,107.72,0,0,1-18.1-15.88,180.68,180.68,0,0,1-15-18.58q-6.9-9.7-12.77-20c-4-6.82-7.64-13.81-11.06-20.9s-6.58-14.28-9.53-21.56S52,37.89,49.69,30.41A163.78,163.78,0,0,1,44.21,7.61Z"/><path class="cls-3" d="M69.89,6.83a194.47,194.47,0,0,0,7.22,39.82c1.8,6.54,4,13,6.27,19.39s5,12.7,7.73,18.94,5.88,12.36,9.17,18.39,6.86,11.94,10.77,17.64a167.59,167.59,0,0,0,12.68,16.52A109.21,109.21,0,0,0,139,152c-10-9.77-18-20.93-25.22-32.48-3.55-5.81-7-11.69-10-17.71S97.55,89.72,94.8,83.55,89.39,71.17,87,64.89s-4.71-12.64-6.85-19A312.42,312.42,0,0,1,69.89,6.83Z"/><path class="cls-3" d="M101.47,5.07a342.06,342.06,0,0,0,4.43,37.45c1,6.21,2.25,12.4,3.54,18.57.61,3.09,1.37,6.15,2.08,9.22l1.08,4.61,1.17,4.59c.8,3.06,1.6,6.11,2.49,9.15s1.69,6.09,2.68,9.1c1.91,6,3.89,12.06,6.18,18s4.72,11.82,7.54,17.55l2.15,4.28,2.38,4.19c1.5,2.82,3.46,5.42,5.23,8.09l-2.18-4.25c-.36-.71-.76-1.4-1.09-2.12l-1-2.17-2-4.32-1.75-4.39c-1.24-2.9-2.26-5.89-3.33-8.84s-2-6-3.06-8.92c-1.92-6-3.82-12-5.5-18-.9-3-1.71-6-2.55-9.06s-1.61-6.07-2.38-9.11l-1.21-4.55-1.12-4.57q-1.12-4.57-2.19-9.16c-1.5-6.09-2.79-12.23-4.18-18.35C106.29,29.75,103.83,17.44,101.47,5.07Z"/><path class="cls-3" d="M131.79,6.05a195.34,195.34,0,0,0-3.57,35.78c-.11,3-.05,6,0,9l.1,4.5.22,4.5q.19,4.5.61,9c.27,3,.49,6,.86,9q1,9,2.55,17.84c1.07,5.92,2.2,11.83,3.63,17.68a202.64,202.64,0,0,0,11.17,34.41c-3.29-11.58-5.9-23.24-8.11-35-.29-1.46-.53-2.93-.78-4.4l-.78-4.41c-.52-2.93-.92-5.88-1.39-8.83-.87-5.89-1.69-11.79-2.31-17.71-.4-3-.65-5.91-.95-8.87-.13-1.48-.3-3-.41-4.45l-.32-4.45L132,55.18l-.23-4.46c-.14-3-.35-5.94-.4-8.91C130.93,29.91,131.05,18,131.79,6.05Z"/><path class="cls-3" d="M144.11,171l-3,179.51a18.81,18.81,0,0,0-2-.12,15.19,15.19,0,0,0-2.33.16L141.74,171Z"/><path class="cls-2" d="M141.74,171,136.8,350.59a19.9,19.9,0,0,0-3.54,1l6.59-180.55Z"/><path class="cls-1" d="M139.85,171.05,133.26,351.6a12.52,12.52,0,0,1-4.2.61,20.15,20.15,0,0,1-3.13-.24c.94-21.68,5.79-133.79,7.48-180.91Z"/><path class="cls-1" d="M151.58,171V351.93c-1.5.67-4.14-.14-7.17-.8L145.58,171Z"/><path class="cls-2" d="M145.58,171l-1.17,180.1a30.9,30.9,0,0,0-3.29-.58l3-179.51Z"/><path class="cls-2" d="M133.41,171.06c-1.69,47.12-6.54,159.23-7.48,180.91a30.88,30.88,0,0,1-4-1c.94-18.89,6.57-132,9.86-179.9Z"/><path class="cls-1" d="M114.5,202.38c1-11.19,6.15-31.29,8.52-31.29h4.31C121.2,222.51,115,332.83,114,351.48c-1.89.29-3.51.19-4.09-1.45-1.14-3.23-1.31-11.85-1.31-15.61C108.62,296.81,110.65,243.21,114.5,202.38Z"/><path class="cls-2" d="M129.33,171.07C125,224.91,118.74,331,117.6,350.78c-1.19.21-2.43.52-3.58.7,1-18.65,7.18-129,13.31-180.4Z"/><path class="cls-3" d="M131.77,171.07c-3.29,47.91-8.92,161-9.86,179.9a8.32,8.32,0,0,0-2.33-.4,11.81,11.81,0,0,0-2,.21C118.74,331,125,224.91,129.33,171.07Z"/><path class="cls-3" d="M151.58,160.24V174c-7.61,0-27.68.35-30.16-.93-1.38-.71-4.68-8.42-4.68-10.89,0-2,4-1.44,7.78-1.59C128,160.39,146.22,160.1,151.58,160.24Z"/></g></g></svg>