<svg xmlns="http://www.w3.org/2000/svg" viewBox="0 0 146.61 343.72"><defs><style>.cls-1{fill:#d92724;}.cls-2{fill:#bd262f;}.cls-3{fill:#e35442;}</style></defs><g id="레이어_2" data-name="레이어 2"><g id="_C__2" data-name="©©C©₩[_2"><path class="cls-1" d="M134.16,0l7.1,343a9.19,9.19,0,0,0,3.7.72,10.47,10.47,0,0,0,1.65-.14V0Z"/><path class="cls-2" d="M40.89,0l-.62,339.49a8.78,8.78,0,0,1,5.55-1.78A9.11,9.11,0,0,1,52,340L45.7,0Z"/><path class="cls-3" d="M45.7,0,52,340c1.44,1.16,2.71,2.48,4.67,3.2L51.54,0Z"/><path class="cls-1" d="M51.54,0l5.14,343.17a9.36,9.36,0,0,0,3.3.55,8.87,8.87,0,0,0,5.81-2L63.41,0Z"/><path class="cls-1" d="M18.15,0l8.27,342.16a8.8,8.8,0,0,0,5.24,1.56,9.09,9.09,0,0,0,4-.86L38.23,0Z"/><path class="cls-3" d="M63.41,0l2.38,341.75c1.51-1.15,2.77-2.52,4.68-3.33L71.56,0Z"/><path class="cls-3" d="M15.51,0,21.8,338.7c1.79.94,3,2.36,4.62,3.46L18.15,0Z"/><path class="cls-3" d="M8.05,0,5.5,343.49A10.13,10.13,0,0,0,10.08,341L10.71,0Z"/><path class="cls-1" d="M0,0V343.16a9.55,9.55,0,0,0,3.34.56,10.08,10.08,0,0,0,2.16-.23L8.05,0Z"/><path class="cls-2" d="M10.71,0l-.63,341c1.89-1.59,3.65-3.29,7.42-3.29a8.9,8.9,0,0,1,4.3,1L15.51,0Z"/><path class="cls-3" d="M38.23,0,35.69,342.86c1.81-.88,3-2.25,4.58-3.37L40.89,0Z"/><path class="cls-1" d="M105.82,0l7,343a9.86,9.86,0,0,0,7.47.07l.77-343Z"/><path class="cls-3" d="M121.05,0l-.77,343c2.59-1.09,4-3.22,6.43-4.43L125.56,0Z"/><path class="cls-3" d="M101.65,0l4.88,338.58c2.42,1.18,3.79,3.25,6.28,4.37L105.82,0Z"/><path class="cls-2" d="M125.56,0l1.15,338.59a9.7,9.7,0,0,1,9.91,1.1L130.31,0Z"/><path class="cls-3" d="M130.31,0l6.31,339.69c1.5,1.15,2.75,2.5,4.64,3.31L134.16,0Z"/><path class="cls-2" d="M71.56,0,70.47,338.42a9.89,9.89,0,0,1,7.8.19L75.77,0Z"/><path class="cls-3" d="M75.77,0l2.5,338.61c2.3,1.14,3.65,3.09,6,4.22L78.46,0Z"/><path class="cls-2" d="M98.85,0,96.47,339.83a8.91,8.91,0,0,1,6-2.12,9.08,9.08,0,0,1,4.06.87L101.65,0Z"/><path class="cls-1" d="M78.46,0l5.77,342.83a9,9,0,0,0,4.08.89,9.28,9.28,0,0,0,3.54-.65L94.39,0Z"/><path class="cls-3" d="M94.39,0,91.85,343.07c1.9-.77,3.15-2.1,4.62-3.24L98.85,0Z"/></g></g></svg>