<svg xmlns="http://www.w3.org/2000/svg" xmlns:xlink="http://www.w3.org/1999/xlink" width="260.919" height="90.474" viewBox="0 0 260.919 90.474">
  <defs>
    <filter id="패스_174" x="94.657" y="30.813" width="87.605" height="59.661" filterUnits="userSpaceOnUse">
      <feOffset dy="3" input="SourceAlpha"/>
      <feGaussianBlur stdDeviation="3" result="blur"/>
      <feFlood flood-opacity="0.161"/>
      <feComposite operator="in" in2="blur"/>
      <feComposite in="SourceGraphic"/>
    </filter>
  </defs>
  <g id="그룹_317" data-name="그룹 317" transform="translate(2874.459 -654.526)">
    <g id="그룹_316" data-name="그룹 316">
      <circle id="타원_40" data-name="타원 40" cx="3.622" cy="3.622" r="3.622" transform="translate(-2649.146 668.093)" fill="#e64c29" opacity="0.7"/>
      <circle id="타원_41" data-name="타원 41" cx="2.559" cy="2.559" r="2.559" transform="translate(-2809.587 716.996)" fill="#4fb2ab" opacity="0.7"/>
      <circle id="타원_42" data-name="타원 42" cx="3.355" cy="3.355" r="3.355" transform="translate(-2789.25 659.749)" fill="#905b9e" opacity="0.7"/>
      <circle id="타원_43" data-name="타원 43" cx="3.382" cy="3.382" r="3.382" transform="translate(-2840.01 685.111)" fill="#e64c29" opacity="0.7"/>
      <circle id="타원_44" data-name="타원 44" cx="2.025" cy="2.025" r="2.025" transform="translate(-2617.591 700.869)" fill="#4fb2ab" opacity="0.7"/>
      <circle id="타원_45" data-name="타원 45" cx="1.678" cy="1.678" r="1.678" transform="translate(-2700.188 654.526)" fill="#69a71b" opacity="0.7"/>
      <circle id="타원_46" data-name="타원 46" cx="2.997" cy="2.997" r="2.997" transform="translate(-2685.612 672.779)" fill="#ec898e" opacity="0.7"/>
      <circle id="타원_47" data-name="타원 47" cx="2.373" cy="2.373" r="2.373" transform="translate(-2802.55 688.096)" fill="#ec898e" opacity="0.7"/>
      <circle id="타원_48" data-name="타원 48" cx="1.633" cy="1.633" r="1.633" transform="translate(-2834.544 666.46)" fill="#ec898e" opacity="0.7"/>
      <circle id="타원_49" data-name="타원 49" cx="1.473" cy="1.473" r="1.473" transform="translate(-2874.459 684.396)" fill="#ec898e" opacity="0.7"/>
      <circle id="타원_50" data-name="타원 50" cx="2.025" cy="2.025" r="2.025" transform="translate(-2863.793 710.523)" fill="#69a71b" opacity="0.7"/>
      <circle id="타원_51" data-name="타원 51" cx="3.588" cy="3.588" r="3.588" transform="translate(-2660.339 719.554)" fill="#69a71b" opacity="0.7"/>
    </g>
    <g id="그룹_193" data-name="그룹 193" transform="translate(-3713.58 -885.474)">
      <g id="그룹_192" data-name="그룹 192" transform="translate(942.778 1552.384)">
        <g transform="matrix(1, 0, 0, 1, -103.66, -12.38)" filter="url(#패스_174)">
          <path id="패스_174-2" data-name="패스 174" d="M725.964,3460.036v36.446c0,.044,0,.089,0,.135,0,.021,0,.042,0,.063s0,.04,0,.061,0,.017,0,.025,0,.027-.006.04c0,.032-.008.063-.013.1s-.011.061-.017.091a.365.365,0,0,1-.011.044.1.1,0,0,1-.006.034.311.311,0,0,1-.011.044c-.006.028-.015.055-.021.081a.035.035,0,0,1,0,.015c-.015.046-.027.093-.044.137a.008.008,0,0,1,0,.006c-.008.023-.017.047-.025.068s-.017.04-.023.059a.1.1,0,0,0-.006.017c-.025.057-.051.116-.08.171-.009.017-.019.038-.03.057l-.032.055c-.01.017-.019.036-.032.053-.021.036-.044.072-.068.105s-.03.042-.042.063c-.036.046-.07.093-.108.137s-.055.065-.083.095-.057.062-.086.091c-.013.015-.027.028-.042.042a.289.289,0,0,1-.04.036c-.015.015-.032.03-.049.044l-.015.013c-.04.036-.082.07-.125.1a.059.059,0,0,0-.013.01c-.034.023-.068.049-.1.072-.013.008-.023.017-.034.023s-.038.025-.057.036a.363.363,0,0,1-.047.028c-.017.01-.034.021-.051.029a2.376,2.376,0,0,1-.372.171c-.008,0-.015.006-.023.009l-.027.008c-.03.011-.059.021-.091.03-.053.017-.106.029-.158.042l-.082.019a.494.494,0,0,1-.053.008l-.065.013s-.006,0-.009,0l-.053.006-.025,0-.046.006-.027,0-.1.006c-.046,0-.093,0-.139,0h-64.39c-.046,0-.093,0-.139,0l-.1-.006a.9.9,0,0,1-.108-.013.568.568,0,0,1-.061-.008c-.051-.006-.1-.017-.15-.027a.332.332,0,0,1-.042-.011c-.053-.013-.106-.025-.158-.042-.032-.011-.061-.019-.091-.03a2.833,2.833,0,0,1-.41-.18l-.1-.057c-.036-.021-.072-.044-.106-.068a2.629,2.629,0,0,1-.555-.5,1.753,1.753,0,0,1-.108-.14,2.5,2.5,0,0,1-.289-.519c-.017-.042-.034-.089-.051-.133s-.03-.091-.044-.137-.025-.093-.036-.139-.019-.087-.028-.131c0-.006,0-.015,0-.021-.006-.042-.013-.087-.017-.129a.016.016,0,0,1,0-.011c0-.034-.006-.065-.008-.1-.006-.065-.009-.131-.009-.2v-36.446a2.6,2.6,0,0,1,.95-2.012.119.119,0,0,1,.017-.013l.135-.1a2.588,2.588,0,0,1,1.505-.479h64.39a1.794,1.794,0,0,1,.186.008.1.1,0,0,1,.034,0c.059,0,.12.011.177.019l.04.006c.051.009.1.019.15.032a.211.211,0,0,1,.038.008c.061.015.12.032.179.051s.112.038.165.059a2.141,2.141,0,0,1,.222.1,1.223,1.223,0,0,1,.118.063,1.716,1.716,0,0,1,.194.126s0,0,0,0l.135.1a.1.1,0,0,1,.017.013,1.3,1.3,0,0,1,.1.086c.025.021.049.044.072.068a2.267,2.267,0,0,1,.2.224c.029.036.057.072.082.108a2.439,2.439,0,0,1,.277.485c.021.046.04.1.059.144,0,0,0,0,0,.006a2.423,2.423,0,0,1,.074.238c.011.041.019.079.027.119s.013.061.017.093.011.063.015.1a1.029,1.029,0,0,1,.013.114.732.732,0,0,1,.006.1C725.962,3459.945,725.964,3459.991,725.964,3460.036Z" transform="translate(-552.7 -3420.62)" fill="#d8d8d8"/>
        </g>
        <path id="패스_175" data-name="패스 175" d="M726.641,3328.749H657.349a2.609,2.609,0,0,1,.794-1.121.106.106,0,0,1,.017-.012l.135-.1,32.1-24.369a2.638,2.638,0,0,1,3.195,0l32.1,24.369s0,0,0,0l.135.1a.093.093,0,0,1,.017.012,1.263,1.263,0,0,1,.1.087c.025.021.049.044.072.067a2.324,2.324,0,0,1,.2.224q.044.054.082.108a2.459,2.459,0,0,1,.277.485c.021.047.04.1.059.144C726.639,3328.745,726.641,3328.747,726.641,3328.749Z" transform="translate(-657.193 -3302.604)" fill="#d8d8d8"/>
      </g>
      <path id="패스_176" data-name="패스 176" d="M739.8,3263.779v43.82H676.643v-51.555a7.979,7.979,0,0,1,7.979-7.979h38.495Z" transform="translate(269.335 -1704.286)" fill="#ffe415"/>
      <path id="패스_177" data-name="패스 177" d="M971.184,3248.065v7.735a7.979,7.979,0,0,0,7.979,7.979h8.7Z" transform="translate(21.268 -1704.286)" fill="#f8f7f7"/>
      <rect id="사각형_44" data-name="사각형 44" width="30.359" height="1.649" rx="0.825" transform="translate(951.89 1552.446)" fill="#fff"/>
      <rect id="사각형_54" data-name="사각형 54" width="30.359" height="1.649" rx="0.825" transform="translate(970.433 1571.446)" fill="#fff"/>
      <path id="사각형_45" data-name="사각형 45" d="M.825,0H10.865a.825.825,0,0,1,.825.825v0a.825.825,0,0,1-.825.825H.825A.825.825,0,0,1,0,.825v0A.825.825,0,0,1,.825,0Z" transform="translate(951.89 1555.969)" fill="#fff"/>
      <path id="사각형_53" data-name="사각형 53" d="M.825,0H10.865a.825.825,0,0,1,.825.825v0a.825.825,0,0,1-.825.825H.825A.825.825,0,0,1,0,.825v0A.825.825,0,0,1,.825,0Z" transform="translate(970.433 1574.969)" fill="#fff"/>
      <path id="사각형_46" data-name="사각형 46" d="M.825,0H10.865a.825.825,0,0,1,.825.825v0a.825.825,0,0,1-.825.825H.825A.825.825,0,0,1,0,.825v0A.825.825,0,0,1,.825,0Z" transform="translate(965.479 1555.969)" fill="#fff"/>
      <path id="사각형_52" data-name="사각형 52" d="M.825,0H10.865a.825.825,0,0,1,.825.825v0a.825.825,0,0,1-.825.825H.825A.825.825,0,0,1,0,.825v0A.825.825,0,0,1,.825,0Z" transform="translate(984.022 1574.969)" fill="#fff"/>
      <path id="사각형_47" data-name="사각형 47" d="M.825,0h28.71a.825.825,0,0,1,.825.825v0a.825.825,0,0,1-.825.825H.825A.825.825,0,0,1,0,.825v0A.825.825,0,0,1,.825,0Z" transform="translate(951.89 1559.493)" fill="#fff"/>
      <path id="사각형_51" data-name="사각형 51" d="M.825,0h28.71a.825.825,0,0,1,.825.825v0a.825.825,0,0,1-.825.825H.825A.825.825,0,0,1,0,.825v0A.825.825,0,0,1,.825,0Z" transform="translate(970.433 1578.493)" fill="#fff"/>
      <path id="사각형_48" data-name="사각형 48" d="M.825,0H20.682a.825.825,0,0,1,.825.825v0a.825.825,0,0,1-.825.825H.825A.825.825,0,0,1,0,.825v0A.825.825,0,0,1,.825,0Z" transform="translate(951.89 1566.391)" fill="#fff"/>
      <rect id="사각형_49" data-name="사각형 49" width="17.48" height="1.649" rx="0.825" transform="translate(951.89 1563.017)" fill="#fff"/>
      <rect id="사각형_50" data-name="사각형 50" width="6.287" height="1.649" rx="0.825" transform="translate(970.882 1563.017)" fill="#fff"/>
      <path id="패스_178" data-name="패스 178" d="M656.359,3473.954l31.795,15.034.809.5,1.841,1.136a1.7,1.7,0,0,1,.359.3v0a1.668,1.668,0,0,1,0,2.234v0a1.7,1.7,0,0,1-.359.3l-31.693,19.555h-.144a2.546,2.546,0,0,1-.756-.112l-.1-.031a2.587,2.587,0,0,1-1.075-.712q-.041-.044-.082-.1a2.412,2.412,0,0,1-.217-.306c-.023-.036-.042-.072-.063-.108s-.04-.076-.057-.114a2.6,2.6,0,0,1-.258-1.13Z" transform="translate(286.419 -1894.534)" fill="#fff"/>
      <path id="패스_179" data-name="패스 179" d="M909.44,3473.954V3510.4c0,.044,0,.089,0,.135,0,.021,0,.042,0,.063s0,.04,0,.061,0,.017,0,.025,0,.028-.006.04c0,.032-.008.063-.013.1s-.011.061-.017.091c0,0,0,.01,0,.015a.185.185,0,0,1-.008.03.1.1,0,0,1-.006.034.335.335,0,0,1-.011.044c-.006.027-.013.053-.021.08a.037.037,0,0,1,0,.015c-.013.047-.027.093-.044.137a.008.008,0,0,1,0,.006c-.008.023-.015.044-.025.068s-.015.038-.023.059l-.006.017c-.025.057-.051.116-.08.171-.008.017-.019.038-.03.057l-.032.055c-.01.017-.019.036-.032.053-.021.036-.044.072-.068.105s-.029.042-.042.063c-.036.049-.072.093-.108.137s-.055.066-.082.1-.057.061-.086.091c-.013.015-.027.028-.042.042a.312.312,0,0,1-.04.036c-.015.015-.032.03-.049.045l-.015.012c-.04.036-.082.07-.125.1a.06.06,0,0,0-.013.01c-.034.023-.068.049-.1.072l-.034.023c-.019.013-.038.025-.057.036a.331.331,0,0,1-.047.027.543.543,0,0,1-.051.03,2.359,2.359,0,0,1-.372.171l-.023.009-.027.008c-.03.01-.059.021-.091.03-.053.017-.106.03-.158.042l-.082.019a.435.435,0,0,1-.053.008l-.065.013h-.006l-.055.009-.025,0-.046.006-.027,0-.1.006c-.046,0-.093,0-.139,0h-.144L875,3493.452a1.644,1.644,0,0,1-.357-.3v0a1.663,1.663,0,0,1,0-2.234v0a1.644,1.644,0,0,1,.357-.3l1.839-1.136.809-.5Z" transform="translate(102.943 -1894.534)" fill="#fff"/>
      <path id="패스_180" data-name="패스 180" d="M725.964,3582.8v.379a2.667,2.667,0,0,1-2.607,2.722h-64.39a2.667,2.667,0,0,1-2.607-2.722v-.379l33.119-21.79a3.043,3.043,0,0,1,3.366,0Z" transform="translate(286.419 -1967.424)" fill="#e5daaa" opacity="0.7"/>
      <path id="패스_181" data-name="패스 181" d="M725.964,3588.62v.363a2.608,2.608,0,0,1-2.607,2.607h-64.39a2.608,2.608,0,0,1-2.607-2.607v-.363l33.119-20.875a3.154,3.154,0,0,1,3.366,0Z" transform="translate(286.419 -1973.117)" fill="#fff"/>
    </g>
  </g>
</svg>
