<svg xmlns="http://www.w3.org/2000/svg" viewBox="0 0 329.08 66.71"><defs><style>.cls-1{fill:#575756;}.cls-2{fill:#003763;}.cls-3{fill:#e4022d;}</style></defs><g id="레이어_2" data-name="레이어 2"><g id="Layer_1" data-name="Layer 1"><polygon class="cls-1" points="92.01 63.01 89.13 56.79 89.13 63.01 87.86 63.01 87.86 55.38 89.74 55.38 92.62 61.62 92.62 55.38 93.89 55.38 93.89 63.01 92.01 63.01"/><path class="cls-1" d="M97.73,59.47H99a.88.88,0,0,0-.42-.8,2.22,2.22,0,0,0-1.2-.27h0a4.11,4.11,0,0,0-1.57.35l-.32-1a5.07,5.07,0,0,1,1.9-.38h0a3.61,3.61,0,0,1,2.11.53,1.93,1.93,0,0,1,.74,1.69V63H99.08v-.6a2.43,2.43,0,0,1-.86.54,2.84,2.84,0,0,1-1,.19,2.37,2.37,0,0,1-1.6-.52A1.64,1.64,0,0,1,95,61.34,1.68,1.68,0,0,1,95.74,60a3.5,3.5,0,0,1,2-.48m-.34,2.68a2.09,2.09,0,0,0,1-.23,1.84,1.84,0,0,0,.68-.54v-.93H97.92a2.54,2.54,0,0,0-1.31.24.78.78,0,0,0-.37.65.7.7,0,0,0,.31.58,1.35,1.35,0,0,0,.84.23"/><path class="cls-1" d="M103.31,55.76v1.76h1.19v1h-1.19v2.79a.62.62,0,0,0,.19.54A.85.85,0,0,0,104,62h.46v1h-.76a1.77,1.77,0,0,1-1.29-.4,1.55,1.55,0,0,1-.4-1.17V58.53h-1v-1h1V55.76Z"/><path class="cls-1" d="M107,55.81a.78.78,0,0,1-.23.55.81.81,0,0,1-.57.23.79.79,0,0,1-.56-.23.79.79,0,0,1,.56-1.34.77.77,0,0,1,.57.23.79.79,0,0,1,.23.56m-1.41,1.71h1.25V63h-1.25Z"/><path class="cls-1" d="M110.86,63.14a2.85,2.85,0,0,1-2.06-.83,2.75,2.75,0,0,1-.85-2,2.79,2.79,0,0,1,.85-2.05,2.85,2.85,0,0,1,2.06-.83,2.81,2.81,0,0,1,2,.83,2.75,2.75,0,0,1,.85,2.05,2.72,2.72,0,0,1-.85,2,2.81,2.81,0,0,1-2,.83m0-1a1.52,1.52,0,0,0,1.16-.52,1.84,1.84,0,0,0,.49-1.32A1.88,1.88,0,0,0,112,59a1.53,1.53,0,0,0-1.16-.53,1.54,1.54,0,0,0-1.16.53,1.92,1.92,0,0,0-.49,1.32,1.89,1.89,0,0,0,.49,1.32,1.53,1.53,0,0,0,1.16.52"/><path class="cls-1" d="M116.07,60.25V63h-1.24V57.52H116v.74a1.68,1.68,0,0,1,.64-.63,1.76,1.76,0,0,1,.9-.24,2,2,0,0,1,1.56.66,2.59,2.59,0,0,1,.58,1.77V63h-1.25V60.14a2.37,2.37,0,0,0-.28-1.3,1,1,0,0,0-.88-.42,1,1,0,0,0-.59.2,1.25,1.25,0,0,0-.45.56,2.65,2.65,0,0,0-.18,1.07"/><path class="cls-1" d="M123.51,59.47h1.29a.9.9,0,0,0-.41-.8,2.24,2.24,0,0,0-1.21-.27h0a4.16,4.16,0,0,0-1.58.35l-.32-1a5.16,5.16,0,0,1,1.91-.38h0a3.63,3.63,0,0,1,2.12.53,2,2,0,0,1,.74,1.69V63h-1.18v-.6A2.52,2.52,0,0,1,124,63a2.9,2.9,0,0,1-1,.19,2.34,2.34,0,0,1-1.59-.52,1.61,1.61,0,0,1-.61-1.28,1.65,1.65,0,0,1,.76-1.39,3.48,3.48,0,0,1,2-.48m-.34,2.68a2,2,0,0,0,1-.23,1.76,1.76,0,0,0,.68-.54v-.93h-1.1a2.61,2.61,0,0,0-1.32.24.8.8,0,0,0-.36.65.68.68,0,0,0,.31.58,1.31,1.31,0,0,0,.84.23"/><rect class="cls-1" x="127.48" y="54.87" width="1.24" height="8.14"/><polygon class="cls-1" points="138.06 63.01 133.51 63.01 133.51 55.38 134.79 55.38 134.79 61.94 138.06 61.94 138.06 63.01"/><path class="cls-1" d="M140.42,55.81a.75.75,0,0,1-.24.55.8.8,0,0,1-1.12,0,.76.76,0,0,1,0-1.11.8.8,0,0,1,1.12,0,.76.76,0,0,1,.24.56M139,57.52h1.25V63H139Z"/><path class="cls-1" d="M144.7,57.39a2.47,2.47,0,0,1,1.94.86,3.1,3.1,0,0,1,0,4,2.46,2.46,0,0,1-1.94.85,2.18,2.18,0,0,1-1.73-.82V63h-1.19V54.87H143v3.31a2.2,2.2,0,0,1,1.69-.79M143,60.62a1.78,1.78,0,0,0,.46,1,1.44,1.44,0,0,0,1.1.46,1.37,1.37,0,0,0,1.13-.52,2,2,0,0,0,.42-1.32,2.08,2.08,0,0,0-.42-1.32,1.38,1.38,0,0,0-1.13-.53,1.44,1.44,0,0,0-1.1.46,1.78,1.78,0,0,0-.46,1,4.09,4.09,0,0,0,0,.7"/><path class="cls-1" d="M148.44,63V57.52h1.17v.82a2.12,2.12,0,0,1,1.78-.91h.08v1.12h-.13a1.63,1.63,0,0,0-1.23.47,2,2,0,0,0-.43,1.44V63Z"/><path class="cls-1" d="M154.67,59.47H156a.9.9,0,0,0-.41-.8,2.24,2.24,0,0,0-1.21-.27h0a4.16,4.16,0,0,0-1.58.35l-.32-1a5.16,5.16,0,0,1,1.91-.38h0a3.63,3.63,0,0,1,2.12.53,2,2,0,0,1,.74,1.69V63H156v-.6a2.52,2.52,0,0,1-.86.54,2.9,2.9,0,0,1-1,.19,2.34,2.34,0,0,1-1.59-.52,1.61,1.61,0,0,1-.61-1.28,1.65,1.65,0,0,1,.76-1.39,3.48,3.48,0,0,1,2-.48m-.34,2.68a2,2,0,0,0,.95-.23,1.76,1.76,0,0,0,.68-.54v-.93h-1.1a2.61,2.61,0,0,0-1.32.24.8.8,0,0,0-.36.65.68.68,0,0,0,.31.58,1.31,1.31,0,0,0,.84.23"/><path class="cls-1" d="M158.64,63V57.52h1.17v.82a2.07,2.07,0,0,1,.67-.62,2.11,2.11,0,0,1,1.11-.29h.09v1.12h-.14a1.65,1.65,0,0,0-1.23.47,2,2,0,0,0-.43,1.44V63Z"/><polygon class="cls-1" points="164.29 62.8 162.13 57.52 163.43 57.52 164.91 61.27 166.39 57.52 167.67 57.52 164.62 65.14 163.35 65.14 164.29 62.8"/><path class="cls-1" d="M171.69,56.43a1.49,1.49,0,0,1,.43-1.17,1.88,1.88,0,0,1,1.32-.4h.6v1h-.36a.87.87,0,0,0-.54.15.63.63,0,0,0-.19.54v1H174v1H173V63h-1.26V58.53h-.94v-1h.94Z"/><path class="cls-1" d="M177.39,63.14a2.83,2.83,0,0,1-2-.83,2.72,2.72,0,0,1-.85-2,2.75,2.75,0,0,1,.85-2.05,3,3,0,0,1,4.11,0,2.78,2.78,0,0,1,.84,2.05,2.75,2.75,0,0,1-.84,2,2.84,2.84,0,0,1-2.06.83m0-1a1.55,1.55,0,0,0,1.17-.52,1.88,1.88,0,0,0,.48-1.32,1.92,1.92,0,0,0-.48-1.32,1.56,1.56,0,0,0-1.17-.53,1.52,1.52,0,0,0-1.15.53,1.88,1.88,0,0,0-.49,1.32,1.84,1.84,0,0,0,.49,1.32,1.51,1.51,0,0,0,1.15.52"/><path class="cls-1" d="M181.36,63V57.52h1.18v.82a2,2,0,0,1,.66-.62,2.14,2.14,0,0,1,1.11-.29h.09v1.12h-.13A1.66,1.66,0,0,0,183,59a2,2,0,0,0-.43,1.44V63Z"/><path class="cls-1" d="M192.09,62.07a3.48,3.48,0,0,0,2.18-.77l.52.93a4.23,4.23,0,0,1-5.5-.22,3.95,3.95,0,0,1,2.8-6.76,3.77,3.77,0,0,1,2.66.91l-.51.94a3.37,3.37,0,0,0-2.15-.78,2.5,2.5,0,0,0-1.87.81,3.09,3.09,0,0,0,0,4.13,2.5,2.5,0,0,0,1.87.81"/><path class="cls-1" d="M197.05,63h-1.24V54.87h1.24v3.31a1.66,1.66,0,0,1,.61-.56,1.75,1.75,0,0,1,.88-.23,2,2,0,0,1,1.56.66,2.59,2.59,0,0,1,.58,1.77V63h-1.24V60.14a2.36,2.36,0,0,0-.29-1.3,1,1,0,0,0-.88-.42,1,1,0,0,0-.59.2,1.32,1.32,0,0,0-.45.56,2.65,2.65,0,0,0-.18,1.07Z"/><path class="cls-1" d="M203.57,55.81a.78.78,0,0,1-.23.55.81.81,0,0,1-1.13,0,.76.76,0,0,1,0-1.11.81.81,0,0,1,1.13,0,.79.79,0,0,1,.23.56m-1.41,1.71h1.25V63h-1.25Z"/><rect class="cls-1" x="204.93" y="54.87" width="1.24" height="8.14"/><path class="cls-1" d="M210,57.39a2.17,2.17,0,0,1,1.68.79V54.87h1.25V63h-1.21v-.69a2.14,2.14,0,0,1-1.72.82,2.47,2.47,0,0,1-1.95-.85,3.13,3.13,0,0,1,0-4,2.48,2.48,0,0,1,1.95-.86m1.67,3.23a4.09,4.09,0,0,0,0-.7,1.78,1.78,0,0,0-.46-1,1.45,1.45,0,0,0-1.09-.46,1.39,1.39,0,0,0-1.14.53,2.14,2.14,0,0,0-.41,1.32,2.1,2.1,0,0,0,.41,1.32,1.38,1.38,0,0,0,1.14.52,1.45,1.45,0,0,0,1.09-.46,1.78,1.78,0,0,0,.46-1"/><path class="cls-1" d="M214.31,63V57.52h1.17v.82a1.89,1.89,0,0,1,.67-.62,2.07,2.07,0,0,1,1.1-.29h.09v1.12h-.13A1.67,1.67,0,0,0,216,59a2.1,2.1,0,0,0-.42,1.44V63Z"/><path class="cls-1" d="M219,60.82a1.48,1.48,0,0,0,.47.82,2,2,0,0,0,1.39.48,2.58,2.58,0,0,0,1.7-.67l.37.92a3.11,3.11,0,0,1-2.1.77,3.24,3.24,0,0,1-2.27-.79,2.64,2.64,0,0,1-.87-2.07,2.86,2.86,0,0,1,.78-2.07,2.62,2.62,0,0,1,2-.82,2.7,2.7,0,0,1,2,.81,2.78,2.78,0,0,1,.78,2,3,3,0,0,1-.06.61Zm0-1h3.05a1.55,1.55,0,0,0-.45-1,1.45,1.45,0,0,0-1.08-.44,1.44,1.44,0,0,0-1.12.48,1.84,1.84,0,0,0-.4.94"/><path class="cls-1" d="M225.61,60.25V63h-1.23V57.52h1.19v.74a1.68,1.68,0,0,1,.64-.63,1.72,1.72,0,0,1,.89-.24,2,2,0,0,1,1.56.66,2.54,2.54,0,0,1,.59,1.77V63H228V60.14a2.37,2.37,0,0,0-.28-1.3,1,1,0,0,0-.88-.42,1,1,0,0,0-.59.2,1.25,1.25,0,0,0-.45.56,2.63,2.63,0,0,0-.19,1.07"/><path class="cls-1" d="M236.23,59.47h1.29a.87.87,0,0,0-.41-.8,2.24,2.24,0,0,0-1.21-.27h0a4.16,4.16,0,0,0-1.58.35l-.31-1a5.07,5.07,0,0,1,1.9-.38h0a3.63,3.63,0,0,1,2.12.53,2,2,0,0,1,.74,1.69V63h-1.18v-.6a2.43,2.43,0,0,1-.86.54,2.9,2.9,0,0,1-1,.19,2.36,2.36,0,0,1-1.59-.52,1.64,1.64,0,0,1-.61-1.28,1.68,1.68,0,0,1,.76-1.39,3.5,3.5,0,0,1,2-.48m-.34,2.68a2.12,2.12,0,0,0,1-.23,1.72,1.72,0,0,0,.67-.54v-.93h-1.1a2.61,2.61,0,0,0-1.32.24.8.8,0,0,0-.36.65.68.68,0,0,0,.31.58,1.33,1.33,0,0,0,.84.23"/><path class="cls-1" d="M241.44,60.25V63h-1.23V57.52h1.19v.74a1.66,1.66,0,0,1,.63-.63,1.78,1.78,0,0,1,.9-.24,2,2,0,0,1,1.56.66,2.59,2.59,0,0,1,.59,1.77V63h-1.25V60.14a2.46,2.46,0,0,0-.28-1.3,1,1,0,0,0-.88-.42,1.08,1.08,0,0,0-.6.2,1.3,1.3,0,0,0-.44.56,2.47,2.47,0,0,0-.19,1.07"/><path class="cls-1" d="M248.83,57.39a2.17,2.17,0,0,1,1.68.79V54.87h1.25V63h-1.21v-.69a2.14,2.14,0,0,1-1.72.82,2.47,2.47,0,0,1-2-.85,3.13,3.13,0,0,1,0-4,2.48,2.48,0,0,1,2-.86m1.67,3.23a4.09,4.09,0,0,0,0-.7,1.78,1.78,0,0,0-.46-1,1.45,1.45,0,0,0-1.09-.46,1.39,1.39,0,0,0-1.14.53,2.14,2.14,0,0,0-.41,1.32,2.1,2.1,0,0,0,.41,1.32,1.38,1.38,0,0,0,1.14.52,1.45,1.45,0,0,0,1.09-.46,1.78,1.78,0,0,0,.46-1"/><polygon class="cls-1" points="258.76 58.83 260.78 55.38 262.16 55.38 259.4 60.04 259.4 63.01 258.12 63.01 258.12 60.04 255.37 55.38 256.74 55.38 258.76 58.83"/><path class="cls-1" d="M264.45,63.14a2.83,2.83,0,0,1-2.05-.83,2.72,2.72,0,0,1-.85-2,2.75,2.75,0,0,1,.85-2.05,3,3,0,0,1,4.11,0,2.78,2.78,0,0,1,.84,2.05,2.75,2.75,0,0,1-.84,2,2.84,2.84,0,0,1-2.06.83m0-1a1.55,1.55,0,0,0,1.17-.52,1.88,1.88,0,0,0,.48-1.32,1.92,1.92,0,0,0-.48-1.32,1.56,1.56,0,0,0-1.17-.53,1.52,1.52,0,0,0-1.15.53,1.88,1.88,0,0,0-.49,1.32,1.84,1.84,0,0,0,.49,1.32,1.51,1.51,0,0,0,1.15.52"/><path class="cls-1" d="M272.05,60.28V57.52h1.25V63h-1.2v-.72a1.49,1.49,0,0,1-.61.61,2,2,0,0,1-.93.24,2,2,0,0,1-1.55-.66,2.57,2.57,0,0,1-.59-1.77V57.52h1.24V60.4a2.32,2.32,0,0,0,.29,1.29,1,1,0,0,0,.88.42,1,1,0,0,0,.59-.2,1.31,1.31,0,0,0,.45-.54,2.75,2.75,0,0,0,.18-1.09"/><path class="cls-1" d="M276,60.25V63h-1.24V57.52h1.19v.74a1.68,1.68,0,0,1,.64-.63,1.76,1.76,0,0,1,.9-.24,2,2,0,0,1,1.56.66,2.59,2.59,0,0,1,.58,1.77V63h-1.25V60.14a2.37,2.37,0,0,0-.28-1.3,1,1,0,0,0-.88-.42,1,1,0,0,0-.59.2,1.32,1.32,0,0,0-.45.56,2.65,2.65,0,0,0-.18,1.07"/><path class="cls-1" d="M283.3,65.2a3.61,3.61,0,0,1-2.16-.64l.38-1a2.91,2.91,0,0,0,1.78.61,1.81,1.81,0,0,0,1.31-.47,1.45,1.45,0,0,0,.48-1.06v-.33a2.14,2.14,0,0,1-1.72.82,2.44,2.44,0,0,1-1.95-.85,3.1,3.1,0,0,1,0-4,2.45,2.45,0,0,1,1.95-.86,2.15,2.15,0,0,1,1.67.79v-.66h1.25v4.56a3.18,3.18,0,0,1-.78,2.34,3,3,0,0,1-2.21.78M285,60.63a4.33,4.33,0,0,0,0-.72,1.72,1.72,0,0,0-.46-1,1.41,1.41,0,0,0-1.08-.46,1.35,1.35,0,0,0-1.14.54,2.3,2.3,0,0,0,0,2.65,1.37,1.37,0,0,0,1.14.52,1.41,1.41,0,0,0,1.08-.46,1.72,1.72,0,0,0,.46-1"/><path class="cls-1" d="M294.53,55.38,297.2,63h-1.3l-.77-2.25H292.2L291.43,63h-1.31l2.67-7.63Zm-2,4.32h2.21l-1.09-3.21Z"/><path class="cls-1" d="M300.18,57.39a2.13,2.13,0,0,1,1.67.79V54.87h1.25V63h-1.2v-.69a2.14,2.14,0,0,1-1.72.82,2.47,2.47,0,0,1-1.95-.85,3.13,3.13,0,0,1,0-4,2.48,2.48,0,0,1,1.95-.86m1.66,3.23a2.73,2.73,0,0,0,0-.7,1.66,1.66,0,0,0-.46-1,1.41,1.41,0,0,0-1.08-.46,1.39,1.39,0,0,0-1.14.53,2.08,2.08,0,0,0-.42,1.32,2,2,0,0,0,.42,1.32,1.38,1.38,0,0,0,1.14.52,1.41,1.41,0,0,0,1.08-.46,1.66,1.66,0,0,0,.46-1"/><path class="cls-1" d="M308.16,60.28V57.52h1.25V63h-1.2v-.72a1.49,1.49,0,0,1-.61.61,2,2,0,0,1-.93.24,2,2,0,0,1-1.55-.66,2.57,2.57,0,0,1-.59-1.77V57.52h1.24V60.4a2.32,2.32,0,0,0,.29,1.29,1,1,0,0,0,.88.42,1,1,0,0,0,.59-.2,1.31,1.31,0,0,0,.45-.54,2.75,2.75,0,0,0,.18-1.09"/><rect class="cls-1" x="310.85" y="54.87" width="1.24" height="8.14"/><path class="cls-1" d="M315.16,55.76v1.76h1.2v1h-1.2v2.79a.65.65,0,0,0,.19.54.88.88,0,0,0,.55.15h.46v1h-.76a1.77,1.77,0,0,1-1.29-.4,1.55,1.55,0,0,1-.41-1.17V58.53H313v-1h.94V55.76Z"/><path class="cls-1" d="M316.89,62l.78-.8a2.79,2.79,0,0,0,.72.7,1.61,1.61,0,0,0,.82.23,1.31,1.31,0,0,0,.71-.17.51.51,0,0,0,.29-.45.5.5,0,0,0-.28-.45,7,7,0,0,0-.66-.3c-.3-.09-.61-.2-.92-.32a2,2,0,0,1-.93-.59,1.24,1.24,0,0,1-.3-.82,1.38,1.38,0,0,1,.64-1.15,2.4,2.4,0,0,1,1.5-.48,2.45,2.45,0,0,1,1.5.44,1.75,1.75,0,0,1,.47.57l-.77.74a1.48,1.48,0,0,0-.36-.42,1.28,1.28,0,0,0-.91-.32.92.92,0,0,0-.55.16.44.44,0,0,0-.24.37.47.47,0,0,0,.27.41,3.07,3.07,0,0,0,.77.32l.43.13a2.89,2.89,0,0,1,1.21.68,1.38,1.38,0,0,1,.41,1,1.44,1.44,0,0,1-.66,1.18,2.67,2.67,0,0,1-1.67.5,2.9,2.9,0,0,1-1.51-.39,2.3,2.3,0,0,1-.76-.76"/><path class="cls-2" d="M51.5,31.83a12,12,0,0,0-17.11,3.59,12,12,0,0,1-21.76-3.31h0a.27.27,0,0,0,0-.12.83.83,0,0,0,0-.15,15.53,15.53,0,0,1-.61-4.78c0-10.79,11.07-22.8,27-22.8C55.27,4.26,64.61,16.68,67,23.59c0-.12-.07-.24-.11-.37A34.38,34.38,0,0,0,0,34.37c0,17,12.24,31.5,29.22,31.5,13.54,0,22.64-7.59,26.81-18.05a13.25,13.25,0,0,0-4.53-16"/><path class="cls-3" d="M67.23,24.26c-2-6.74-11.41-20-28.28-20-15.94,0-27,12-27,22.79a15.56,15.56,0,0,0,.61,4.79,10.49,10.49,0,0,1-.31-2.46c0-11.23,11.25-19,22.81-19A28.35,28.35,0,0,1,63.39,38.71a31.23,31.23,0,0,1-17.32,28h0A34.39,34.39,0,0,0,68.74,34.37a33.91,33.91,0,0,0-1.51-10.11"/><path class="cls-1" d="M95.52,39.08V36H87.13V33.69h19.44V36h-8.4v3.08H105v7.39h-2.63V41.39H88.45V39.08ZM105,25.69V32h-2.63V28H88.64V25.69Z"/><path class="cls-1" d="M121.49,36.68H110.07V30.21h8.55V28.1h-8.55V25.86h11.18v6.49h-8.58v2.14h8.82Zm-10.23,1.11h2.58v1.75h11.42V37.79h2.57V46H111.26Zm14,3.89H113.84v2.14h11.42Zm-.05-16.42h2.62V37.07h-2.62Z"/><path class="cls-1" d="M144,34.13a5.72,5.72,0,0,1-.52,2.42,6.58,6.58,0,0,1-1.39,2A6.94,6.94,0,0,1,140,39.9a6.38,6.38,0,0,1-2.51.49A6.47,6.47,0,0,1,135,39.9a6.89,6.89,0,0,1-2.05-1.35,6.61,6.61,0,0,1-1.4-2,5.91,5.91,0,0,1,0-4.85,6.61,6.61,0,0,1,1.4-2A6.89,6.89,0,0,1,135,28.35a6.47,6.47,0,0,1,2.52-.49,6.38,6.38,0,0,1,2.51.49,6.94,6.94,0,0,1,2.06,1.35,6.58,6.58,0,0,1,1.39,2A5.74,5.74,0,0,1,144,34.13Zm-2.59,0a4,4,0,0,0-.31-1.54,3.71,3.71,0,0,0-2.06-2.1,4,4,0,0,0-3,0,3.87,3.87,0,0,0-1.25.84,4.35,4.35,0,0,0-.82,1.26,4.08,4.08,0,0,0,0,3.07,4.35,4.35,0,0,0,.82,1.26,3.72,3.72,0,0,0,1.25.84,4,4,0,0,0,3,0,3.93,3.93,0,0,0,1.25-.84,4.13,4.13,0,0,0,.81-1.26A4,4,0,0,0,141.37,34.13Zm6-8.87H150V46.42h-2.62V35.29h-2.8V33h2.8Z"/><path class="cls-1" d="M165.81,37.62H154.39v-7H163V28.12h-8.57V25.86h11.17v7H157v2.58h8.8ZM155,46V39.54h2.62v4.13h14.72V46Zm14.53-6.9V25.26h2.62V39.11Z"/><path class="cls-1" d="M188.28,34.13a5.72,5.72,0,0,1-.52,2.42,6.44,6.44,0,0,1-1.4,2,6.89,6.89,0,0,1-2.05,1.35,6.7,6.7,0,0,1-5,0,6.77,6.77,0,0,1-2.05-1.35,6.44,6.44,0,0,1-1.4-2,5.91,5.91,0,0,1,0-4.85,6.44,6.44,0,0,1,1.4-2,6.77,6.77,0,0,1,2.05-1.35,6.7,6.7,0,0,1,5,0,6.89,6.89,0,0,1,2.05,1.35,6.44,6.44,0,0,1,1.4,2A5.74,5.74,0,0,1,188.28,34.13Zm-2.6,0a4,4,0,0,0-.3-1.54,4.15,4.15,0,0,0-.82-1.26,3.91,3.91,0,0,0-5.53,0,4,4,0,0,0-.82,1.26,4.08,4.08,0,0,0,0,3.07,4,4,0,0,0,.82,1.26,3.72,3.72,0,0,0,1.25.84,4,4,0,0,0,3,0,3.72,3.72,0,0,0,1.25-.84,4.15,4.15,0,0,0,.82-1.26A4,4,0,0,0,185.68,34.13Zm6-8.87h2.63V46.42h-2.63Z"/><path class="cls-1" d="M197.78,29.29V27.08h5V25h2.79v2.07h4.72v2.21h-5.11l5.3,5.39-1.75,1.63-4.57-4.74-4.49,5.13L197.83,35l5.3-5.73Zm16.89,12.63a4.69,4.69,0,0,1-.44,2,5.61,5.61,0,0,1-1.16,1.64,6,6,0,0,1-1.77,1.12,5.63,5.63,0,0,1-2.12.41,5.73,5.73,0,0,1-3.91-1.53,5.46,5.46,0,0,1-1.17-1.64,4.69,4.69,0,0,1-.44-2,4.75,4.75,0,0,1,.44-2,5.38,5.38,0,0,1,1.17-1.65,5.81,5.81,0,0,1,3.91-1.54,5.45,5.45,0,0,1,2.12.42,5.79,5.79,0,0,1,1.77,1.12,5.53,5.53,0,0,1,1.16,1.65A4.75,4.75,0,0,1,214.67,41.92Zm-2.58,0a2.78,2.78,0,0,0-.87-2,2.83,2.83,0,0,0-2.07-.87,2.78,2.78,0,0,0-2.05.87,2.9,2.9,0,0,0,2.05,4.94,2.85,2.85,0,0,0,2.07-.85A2.76,2.76,0,0,0,212.09,41.9Zm1.75-4.81V32.28h-3.69V30h3.69V25.26h2.63V37.09Z"/><path class="cls-1" d="M228.47,42.53V36.46h2.65v6.07h8.41v2.33H220.09V42.53Zm1.34-12.9-7.05,8.82-2-1.53,9.09-11.35,9.08,11.35-2,1.53Z"/><path class="cls-1" d="M254.44,37H243.12V25.74h2.62v8.94h8.7Zm-10.81,9V38.94h2.62v4.73H261V46Zm14.53-7.2V33.37H252.4v-2h5.76V29.82H252.4V27.74h5.76V25.26h2.62V38.81Z"/><path class="cls-1" d="M266,37.28V26.35h16.33v2.31H268.58V35h13.76v2.3h-6.9v5.25h8.4v2.33H264.4V42.53h8.39V37.28Z"/><path class="cls-1" d="M293,25.4l6.92,17.11-2.33,1L293,31.91,288.43,43.7l-2.38-1.05Zm9.5,9.45h-4.16V32.52h4.16V25.26h2.62V46.42h-2.62Z"/><path class="cls-1" d="M322.11,35.63v2.31H308.38V35.63h4.3V30.89h2.6v4.74Zm-3.77-2V28h-9V25.69h11.61v7.92Zm-8.45,12.44V39.71h2.62v4h14.24v2.3Zm16.47-6.9h-2.62V25.26h2.62v5.68h2.72v2.41h-2.72Z"/><path class="cls-1" d="M101.23,10.78v1.69h-6.1v2.41H93.18V12.47H87V10.78ZM88.1,9.19v-6h12v6ZM90,13.72v2.87h10.24v1.7H88.1V13.72Zm8.14-8.83H90V7.53h8.17Z"/><path class="cls-1" d="M111.82,10a3.17,3.17,0,0,1-.29,1.36,3.61,3.61,0,0,1-.81,1.12,3.9,3.9,0,0,1-1.73.91v2h4.06V17H103v-1.7h4.08v-2a3.83,3.83,0,0,1-1.73-.91,3.61,3.61,0,0,1-.81-1.12,3.17,3.17,0,0,1-.29-1.36,3.12,3.12,0,0,1,.29-1.35,3.66,3.66,0,0,1,.81-1.13,3.85,3.85,0,0,1,1.21-.75A4.31,4.31,0,0,1,108,6.5a4.22,4.22,0,0,1,1.48.26,3.79,3.79,0,0,1,1.22.75,3.66,3.66,0,0,1,.81,1.13A3.12,3.12,0,0,1,111.82,10ZM107,4.57V2.91h2.09V4.57h3.66V6.23H103.3V4.57ZM110,10a1.81,1.81,0,0,0-.56-1.32A1.88,1.88,0,0,0,108,8.12a1.83,1.83,0,0,0-1.35.55,1.86,1.86,0,0,0,0,2.64,1.84,1.84,0,0,0,1.35.56,1.89,1.89,0,0,0,1.37-.56A1.81,1.81,0,0,0,110,10Zm6.23,8.56h-1.93V3h1.93V9.55h2v1.82h-2Z"/><path class="cls-1" d="M119.12,6.32V4.66h3.07V3h2V4.66h2.94V6.32h-3.35l3.57,9.61-1.66.64L123.2,9.64l-2.49,7.06L119,16.06l3.59-9.74ZM128.48,3h1.8V18.46h-1.8v-7.7h-2.1V9h2.1Zm3.09,0h1.85V18.55h-1.85Z"/><path class="cls-1" d="M150,10.58v1.7h-3.17v1.46h2v4.85H147V15.41H136.72V13.74h2.22V12.28h-3.18v-1.7ZM147,6.3a3.36,3.36,0,0,1-.33,1.47A4,4,0,0,1,145.77,9a4.42,4.42,0,0,1-1.3.82,4.28,4.28,0,0,1-3.15,0A4.42,4.42,0,0,1,140,9a4,4,0,0,1-.88-1.21,3.44,3.44,0,0,1,0-2.94A4,4,0,0,1,140,3.62a4.42,4.42,0,0,1,1.3-.82,4.28,4.28,0,0,1,3.15,0,4.42,4.42,0,0,1,1.3.82,4,4,0,0,1,.88,1.21A3.36,3.36,0,0,1,147,6.3Zm-1.93,0a2,2,0,0,0-.63-1.51,2.21,2.21,0,0,0-3,0,2,2,0,0,0-.63,1.51,2,2,0,0,0,.63,1.51,2.21,2.21,0,0,0,3,0A2,2,0,0,0,145.05,6.3Zm-.1,7.44V12.28h-4.11v1.46Z"/><path class="cls-1" d="M161.86,10.63v1.7H151.78v-1.7h3.16V7.16h1.9v3.47Zm-2.77-1.48V5h-6.62V3.34H161V9.15Zm-6.21,9.14V13.63h1.93v3h10.45v1.7ZM165,13.22h-1.93V3H165V7.19h2V9h-2Z"/><path class="cls-1" d="M178.12,9.64v1.65H168.05V9.64h3.15V6.8h1.91V9.64Zm-2.76-1.32V5h-6.62V3.32h8.53v5ZM180,15.56a3.31,3.31,0,0,1-.32,1.42,3.78,3.78,0,0,1-.86,1.18,4.3,4.3,0,0,1-1.26.8,4.23,4.23,0,0,1-3.08,0,4.3,4.3,0,0,1-1.26-.8,3.78,3.78,0,0,1-.86-1.18,3.31,3.31,0,0,1-.32-1.42,3.36,3.36,0,0,1,.32-1.43A4,4,0,0,1,173.2,13a4.27,4.27,0,0,1,1.26-.79,4.23,4.23,0,0,1,3.08,0,4.27,4.27,0,0,1,1.26.79,4,4,0,0,1,.86,1.18A3.36,3.36,0,0,1,180,15.56Zm-1.93,0a2,2,0,0,0-.6-1.44,2,2,0,0,0-1.45-.6,2,2,0,0,0-1.44.6,1.94,1.94,0,0,0-.61,1.44,1.91,1.91,0,0,0,.61,1.43,2,2,0,0,0,1.44.6,2,2,0,0,0,1.45-.6A1.94,1.94,0,0,0,178.05,15.56Zm3.19-4h-1.92V3h1.92V6.35h2V8.08h-2Z"/><path class="cls-1" d="M184.56,12.85h14.27v1.71h-6.17v4h-1.94v-4h-6.16Zm3.05-7.6h8.17v-2h1.91v7.47h-12V3.29h1.91Zm8.17,1.67h-8.17V9.06h8.17Z"/></g></g></svg>