<svg xmlns="http://www.w3.org/2000/svg" viewBox="0 0 1619.56 164.45"><defs><style>.cls-1{fill:#6ab42d;}.cls-2{fill:#458a33;}.cls-3{fill:#1c1c1b;}.cls-4{fill:#fff;}.cls-5{fill:#ec6539;}.cls-6{fill:#a86fad;}.cls-7{fill:#5cbeb9;}.cls-8{fill:#f19da0;}</style></defs><g id="레이어_2" data-name="레이어 2"><g id="Layer_1" data-name="Layer 1"><path class="cls-1" d="M300.68,41c-1.42-1.33-2.61-2.93-4.08-4.24s-3.05-2.48-4.57-3.7-3.27-2.16-4.9-3.23A45.26,45.26,0,0,0,282,27.05c-1.77-.86-3.25-2.44-5.13-3a31,31,0,0,0-6-.69,34,34,0,0,0-6-.12,40.16,40.16,0,0,0-5.79,1.44,31.27,31.27,0,0,0-5.49,1.82c-1.78.8-3.84,1.38-5.36,2.65.85,1.55,1.61,3.36,2.51,4.9s2.35,2.76,3.34,4.23a43.89,43.89,0,0,0,3.19,4.27,29.88,29.88,0,0,0,3.71,3.83,25.38,25.38,0,0,0,5.08,2.86,29.65,29.65,0,0,0,5.49,1.88c1.91.47,3.77,1.43,5.7,1.56s3.95-.67,5.84-.86a22.29,22.29,0,0,0,5-1.19c1.65-.57,3.58-.6,5-1.59a32.24,32.24,0,0,0,4.27-3.73A22.84,22.84,0,0,0,301.26,41"/><path class="cls-2" d="M307.81,63.37c-1.13,2.28-3.06,2.53-5.16,1.1-2.41-1.65-.85-2.75-1.59-5.58s-1-2.75-1.75-5.58-.85-2.8-1.59-5.62-1.93-3-.63-5.59c1.13-2.27,2.42-2.91,4.52-1.48,2.41,1.65.66,2.85,1.4,5.67s1.22,2.7,2,5.53.1,3,1.44,5.57C307.88,60.25,309.1,60.75,307.81,63.37Z"/><path class="cls-2" d="M297.38,43.33a32.06,32.06,0,0,1-1.13-5.84,36,36,0,0,1,.34-6,38.53,38.53,0,0,1,1.2-5.82,37.44,37.44,0,0,1,1.92-5.61,32.63,32.63,0,0,1,3-5.11,27.89,27.89,0,0,1,3.54-4.79,30.94,30.94,0,0,1,4.44-2.88,42.45,42.45,0,0,1,4.56-2.58c1.56-.79,3-1.79,4.65-2.47s3.37-1.65,5-2.28a22.4,22.4,0,0,1,1.84,4.92,24.21,24.21,0,0,1,1,4.92c.1,1.67-.56,3.31-.75,5s.34,3.49-.1,5.07a34.34,34.34,0,0,1-2.4,5.27,34.18,34.18,0,0,1-2.61,5.16c-1.11,1.57-3,2.47-4.36,3.81s-2.29,3.25-3.85,4.33-3.63,1.37-5.37,2.14-3.36,2.08-5.22,2.49-3.85,0-5.78,0"/><path class="cls-3" d="M184.38,98.1c-1.27-3.78-2.41-7.36-4.78-10.5a37.15,37.15,0,0,0-8.28-8.37,38.39,38.39,0,0,0-10.56-5.67c-3.76-1.18-7.81-.42-12-.42s-8,0-11.72,1.21a37.8,37.8,0,0,0-10.67,5.1,60.67,60.67,0,0,0-5.27,4.09,38.24,38.24,0,0,0-9.38-6.88,39.41,39.41,0,0,0-11.3-4.16c-3.94-.72-8.22-2.24-12.29-1.74s-8,2.36-11.73,4.09S70.48,80.38,67.61,83l-.85.78a71.29,71.29,0,0,0-6.51-4.66C56.8,76.86,52.33,77,48.54,75.9s-7.63-2.2-11.63-2.07a39.19,39.19,0,0,0-11.8,1.93A38.94,38.94,0,0,0,14.34,81c-3.12,2.35-4.76,6-7.1,9.38s-4.47,6.4-5.57,10.08A35.32,35.32,0,0,0,0,111.93a36.27,36.27,0,0,0,1.76,11.54,36.83,36.83,0,0,0,6,10.14c2.43,3,5.89,4.88,9.34,7.16s6.14,5.9,9.94,7,8.25,0,12.26-.17,8.13-.09,11.94-1.42,6.52-4.33,9.75-6.76c1.76-1.33,3.83-2.39,5.72-3.66A36.39,36.39,0,0,0,75,141.86a39.25,39.25,0,0,0,11.14,4.38,39.54,39.54,0,0,0,12,.13c3.92-.49,7.33-2.45,11.09-4.18s8.36-2.14,11.24-4.77a11.94,11.94,0,0,0,1.39-1.54,22.22,22.22,0,0,0,4.18,3.92c3.25,2.29,7.35,2.8,11.25,4s7.38,3.62,11.54,3.62,8.16-1.33,11.91-2.52a41.89,41.89,0,0,0,19.39-13.53c2.35-3.15,5.6-6.26,6.86-10s1.2-8,1.2-12S185.61,101.74,184.38,98.1Z"/><path class="cls-3" d="M237.92,109.14a32.19,32.19,0,0,1-6.35,21,35.51,35.51,0,0,1-8.13,7.62c-3,2.2-5.69,5.53-9.34,6.71s-7.62.08-11.52.08a36,36,0,0,1-21.21-6.32c-3.07-2.23-6.54-4.32-8.78-7.38s-2-7.33-3.16-11-2.59-6.84-2.59-10.73a35,35,0,0,1,1.84-11c1.19-3.64,1.83-7.61,4-10.64a37.41,37.41,0,0,1,8.38-7.84c3-2.21,6.72-3.42,10.37-4.6s7.2-.69,11.11-.69,7.8-1.14,11.33,0,6.28,4.21,9.32,6.42a34.79,34.79,0,0,1,8.16,7.47,33.12,33.12,0,0,1,6.53,20.85Z"/><path class="cls-4" d="M32.12,96.79a21.39,21.39,0,0,0-4.29,4.36L23,97.4a33,33,0,0,1,2.82-3.46A15.08,15.08,0,0,1,29,91.38a14.59,14.59,0,0,1,3.7-1.58,17.51,17.51,0,0,1,4.62-.56,15.94,15.94,0,0,1,5.26.83,11.16,11.16,0,0,1,4,2.37,10.77,10.77,0,0,1,2.58,3.66,12,12,0,0,1,.91,4.72,12.86,12.86,0,0,1-.61,4.13,13,13,0,0,1-1.85,3.53A24.64,24.64,0,0,1,44.46,112c-1.27,1.17-2.76,2.46-4.45,3.86l-8,6.61H50.47v6h-28v-5.34L35.8,111.76c1.33-1.1,2.45-2.1,3.38-3a18.85,18.85,0,0,0,2.24-2.56,9.12,9.12,0,0,0,1.24-2.36,7.72,7.72,0,0,0,.39-2.48,5.55,5.55,0,0,0-1.8-4.43,6.51,6.51,0,0,0-4.45-1.57A7.93,7.93,0,0,0,32.12,96.79Z"/><path class="cls-4" d="M110.4,116.84A19.63,19.63,0,0,1,107,123.2a16.23,16.23,0,0,1-5.34,4.28,16.17,16.17,0,0,1-13.86,0,16,16,0,0,1-5.32-4.24,19.49,19.49,0,0,1-3.4-6.34,25,25,0,0,1-1.19-7.78,24.69,24.69,0,0,1,1.22-7.8A19.79,19.79,0,0,1,82.51,95a16.4,16.4,0,0,1,5.34-4.27,16.22,16.22,0,0,1,13.86,0A16.12,16.12,0,0,1,107,94.92a19.39,19.39,0,0,1,3.4,6.34,25,25,0,0,1,1.19,7.77A24.71,24.71,0,0,1,110.4,116.84Zm-6.5-13.1a14.39,14.39,0,0,0-2-4.41,10.31,10.31,0,0,0-3.13-3,8.21,8.21,0,0,0-8.16,0,9.84,9.84,0,0,0-3.07,2.93,14.2,14.2,0,0,0-2,4.38,21.59,21.59,0,0,0,0,10.83,14.78,14.78,0,0,0,2,4.42,9.81,9.81,0,0,0,3.13,3,7.9,7.9,0,0,0,4.1,1.08,7.73,7.73,0,0,0,4.06-1.08,9.71,9.71,0,0,0,3.08-2.95,14.88,14.88,0,0,0,2-4.38,20.17,20.17,0,0,0,.69-5.38A20.48,20.48,0,0,0,103.9,103.74Z"/><path class="cls-4" d="M147.62,96.79a21.91,21.91,0,0,0-4.29,4.36l-4.81-3.75a33,33,0,0,1,2.82-3.46,15.08,15.08,0,0,1,3.13-2.56,14.51,14.51,0,0,1,3.71-1.58,17.4,17.4,0,0,1,4.62-.56,16,16,0,0,1,5.26.83,11.33,11.33,0,0,1,4,2.37,10.88,10.88,0,0,1,2.57,3.66,11.82,11.82,0,0,1,.91,4.72,12.2,12.2,0,0,1-2.46,7.66A24.52,24.52,0,0,1,160,112c-1.28,1.17-2.76,2.46-4.46,3.86l-8,6.61H166v6H138v-5.34l13.33-11.29q2-1.65,3.38-3a18.85,18.85,0,0,0,2.24-2.56,9.17,9.17,0,0,0,1.25-2.36,8,8,0,0,0,.38-2.48,5.58,5.58,0,0,0-1.79-4.43,6.53,6.53,0,0,0-4.46-1.57A7.93,7.93,0,0,0,147.62,96.79Z"/><path class="cls-4" d="M202.05,89.52h4.76v38.87h-6.75v-32l-7,1.93-1.44-5.52Z"/><path class="cls-5" d="M361.79,61.28c-1.48,1.43-.28,2.08-.28,4.15s.18,2.06.18,4.12.05,2.07.05,4.13-.24,2.07-.24,4.14,2.08,3,.61,4.44-2.38,0-4.47,0-2.08-.12-4.17-.12-2.09-.54-4.17-.54-2.78-1.19-4.33.21,0,2.06,0,3.95.46,1.89.46,3.78-1.63,2.4-.23,3.67,2-.09,4.07-.09h4.17c2.09,0,2.09.39,4.17.39s2.47-1.44,3.93,0,.08,1.87.08,4-.16,2.12-.16,4.24.76,2.12.76,4.23-.56,2.12-.56,4.24.05,2.12.05,4.24.48,2.11.48,4.23,0,2.12,0,4.24-.75,2.12-.75,4.24-1.2,2.77.31,4.26,2.14.19,4.27.19,2.14.24,4.27.24,2.9,1.21,4.44-.27,0-2.23,0-4.3-.29-2.06-.29-4.12.43-2.06.43-4.13-.14-2.06-.14-4.12.27-2.06.27-4.12-.2-2.06-.2-4.12-.56-2.07-.56-4.13-.13-2.06-.13-4.12.32-2.07.32-4.13-.31-2.06-.31-4.13.18-2.06.18-4.12.69-2.07.69-4.13-.29-2.07-.29-4.13.13-2.06.13-4.13-.73-2.06-.73-4.12.9-2.07.9-4.14,1-2.64-.5-4.08-2.08.15-4.21.15-2.26.61-4.35.16S363.33,59.8,361.79,61.28Z"/><path class="cls-5" d="M332.19,67.36c-.94-.85-2.48-1-3.53-1.69s-1.81-1.88-3-2.48A32.54,32.54,0,0,0,322.05,62a33.05,33.05,0,0,0-3.61-1.6,31.78,31.78,0,0,0-3.92-.47,34.31,34.31,0,0,0-3.92-.59s0,.58,0,.58a36.31,36.31,0,0,0-4-.06,32,32,0,0,0-3.93.9A31.12,31.12,0,0,0,298.8,62a32.75,32.75,0,0,0-3.17,2.09,31,31,0,0,0-3.33,1.76,30.4,30.4,0,0,0-3.22,2.06,29.19,29.19,0,0,0-2.29,3,31,31,0,0,0-2.18,3,29.53,29.53,0,0,0-1.39,3.47c-.54,1.18-1.5,2.23-1.86,3.5a28.91,28.91,0,0,0-.91,3.86,30.31,30.31,0,0,0-.26,4,29.82,29.82,0,0,0,.55,4,28.69,28.69,0,0,0,.94,3.92,28,28,0,0,0,1.16,3.88,30.62,30.62,0,0,0,2,3.28,28.87,28.87,0,0,0,2.24,3.08,28.86,28.86,0,0,0,2.43,3c.92.86,2.36,1.08,3.39,1.82a29.24,29.24,0,0,0,3.08,2.09,30.88,30.88,0,0,0,3.35,1.69c1.21.48,2.28,1.4,3.53,1.71a34.64,34.64,0,0,0,7.77.72,33.08,33.08,0,0,0,4-.69,30.65,30.65,0,0,0,4-.55,29.43,29.43,0,0,0,3.81-1.29,32.5,32.5,0,0,0,3.48-1.61,33,33,0,0,0,3.48-1.71,31.15,31.15,0,0,0,3.1-2.35,28.86,28.86,0,0,0,2.49-2.92,29.79,29.79,0,0,0,2.35-3c.66-1.07.59-2.54,1.12-3.71s1.51-2.21,1.87-3.49a26.1,26.1,0,0,0,.76-3.88,29.48,29.48,0,0,0-.21-3.95,29.39,29.39,0,0,0-.3-4c-.18-1.38.27-2.86-.1-4.15a24.54,24.54,0,0,0-1.75-3.74A29,29,0,0,0,337,73.4a30.43,30.43,0,0,0-2.1-3.24A30.91,30.91,0,0,0,332.19,67.36Zm-21.58,38c-1.14,0-2.37.67-3.46.43s-2-1.17-3.06-1.62a19.19,19.19,0,0,1-3.1-1.21,17.57,17.57,0,0,1-2.25-2.46,17.29,17.29,0,0,1-2.26-2.35,17.74,17.74,0,0,1-1.26-3c-.46-1-1.34-1.9-1.57-3a17.31,17.31,0,0,1,0-3.37,16.37,16.37,0,0,1,.26-3.43,16.8,16.8,0,0,1,1.12-3.24,21.2,21.2,0,0,1,1.22-3.27,19.64,19.64,0,0,1,2.39-2.52,18.57,18.57,0,0,1,2.83-1.84,18,18,0,0,1,2.68-2,15.17,15.17,0,0,1,3.13-1,15,15,0,0,1,3.28-.75c1.18,0,2.26.67,3.37.92a14.34,14.34,0,0,1,3.13,1.26,19.39,19.39,0,0,1,2.83,1.75,14.91,14.91,0,0,1,4.85,4.68,19,19,0,0,1,1.29,3.14,18.74,18.74,0,0,1,1.12,3.08,16.64,16.64,0,0,1,.37,3.27,16.85,16.85,0,0,1-.57,3.36c-.24,1.14.1,2.48-.38,3.52a20,20,0,0,1-1.79,2.87,18.28,18.28,0,0,1-2.23,2.5c-.78.78-1.95,1-2.86,1.65A17.41,17.41,0,0,1,317,104.3a16.56,16.56,0,0,1-3.09,1A16.92,16.92,0,0,1,310.61,105.34Z"/><path class="cls-6" d="M415.39,119.56c-1.41,0-2.73.26-3.9.18-1.47-.1-2.65-.93-3.74-1.15-1.94-.4-3.62-.81-4.77-2s-1.53-2.82-1.93-4.76c-.22-1.08-1.07-2.26-1.17-3.73-.07-1.17.12-2.48.12-3.89,0-2-.33-2-.33-4.1s.79-2.05.79-4.1-.8-2-.8-4.11.7-2,.7-4.11-1.85-2.82-.4-4.27,2.23.62,4.28.62,2.06-.61,4.11-.61,2.06.19,4.11.19,2.06-.42,4.11-.42,2.06-.08,4.12-.08,2.05.77,4.11.77,2.06-.19,4.11-.19S431,84,433,84s2.06-.13,4.11-.13,2.06-.32,4.12-.32,2.06.17,4.11.17,2.06,0,4.12,0,2.06.06,4.11.06,2.07-.56,4.13-.56,3.09,2.26,4.42.69c1.6-1.9-.31-2.74-.27-5.22s1.49-2.9-.08-4.82c-1.31-1.6-1.88.12-3.94.12s-2.06.08-4.12.08-2.06-.27-4.12-.27-2.06-.27-4.12-.27-2.06,0-4.12,0-2.06.31-4.12.31-2.06.1-4.12.1-2.06.28-4.13.28-2.06-.39-4.12-.39-2.06-.29-4.13-.29-2.06.39-4.12.39-2.06-.56-4.12-.56-2.06.12-4.13.12-2.06.36-4.13.36-2.76,1.47-4.22,0,.5-2.16.5-4.24-.59-2.07-.59-4.15-1.61-3-.14-4.47,2.41.18,4.5.18,2.1-.24,4.19-.24,2.09,0,4.19,0,2.09.39,4.18.39,2.09-.13,4.18-.13,2.09.35,4.19.35,2.09-.26,4.18-.26,2.09-.31,4.18-.31,2.1.36,4.19.36,2.09-.23,4.18-.23,2.1.42,4.19.42h8.38c2.09,0,2.09-.35,4.19-.35s2.09-.2,4.18-.2,2.1.18,4.19.18,2.1.08,4.2.08,2.91-1.65,4.37-.14-.49,2.35-.49,4.52-.15,2.18-.15,4.36.88,2.17.88,4.35-.6,2.17-.6,4.35.44,2.17.44,4.35-.47,2.18-.47,4.35.24,2.18.24,4.36,1.21,2.54-.27,4.13-1.79.47-3.83.47-2-.37-4.06-.37-2,.1-4.07.1-2-.07-4.06-.07-2,.49-4.07.49-2-.32-4.07-.32-2-.48-4.07-.48-2,.35-4.07.35-2,0-4.07,0-2,.38-4.08.38-2-.56-4.07-.56-2-.13-4.07-.13h-4.07c-2,0-2,.27-4.08.27s-2.64-1.29-4.09.14-.28,2-.28,4,.18,2,.18,4a12.5,12.5,0,0,0,.24,2.77,1.59,1.59,0,0,0,1.6,1.08c2.12,0,2.12-.74,4.23-.74s2.12.14,4.24.14,2.11.12,4.23.12,2.12.54,4.24.54,2.11-.15,4.23-.15,2.12-.1,4.24-.1,2.12-.45,4.24-.45,2.12.18,4.24.18,2.12-.06,4.24-.06h4.23c2.12,0,2.12.39,4.24.39s2.12.15,4.24.15,2.12-.18,4.25-.18,2.46-1.36,4,.08.66,1.72.66,3.68-.56,2-.56,3.93,1.52,2.55.07,3.88-2.09.45-4.23.45-2.15,0-4.29,0-2.15-.75-4.29-.75-2.15.29-4.3.29-2.14-.18-4.29-.18-2.14-.24-4.29-.24-2.14.21-4.29.21-2.15,0-4.3,0-2.14.3-4.29.3-2.15-.43-4.29-.43-2.15.14-4.3.14S426.14,119,424,119s-2.15.17-4.3.2S417.54,119.56,415.39,119.56Zm85.85,31.92c1.43,1.35.32,2,.32,4s-.68,2-.68,3.93,1.79,2.64.37,4-2.13-.4-4.19-.4-2.07.7-4.13.7-2.07-.24-4.13-.24-2.07.34-4.13.34-2.07-.8-4.13-.8-2.07.8-4.13.8-2.07-.69-4.13-.69-2.06.46-4.13.46-2.06-.69-4.12-.69-2.07.61-4.13.61-2.07-.19-4.13-.19-2.07.42-4.13.42-2.07.07-4.13.07-2.07-.76-4.14-.76-2.06.19-4.13.19-2.06-.2-4.13-.2-2.07.13-4.13.13-2.07.32-4.13.32-2.07-.17-4.14-.17-2.07,0-4.14,0-2.07-.06-4.14-.06c-1.76,0-3.52.39-5.11.08s-2.7-1.64-3.94-2.49a8.64,8.64,0,0,1-3.23-3.21,13.57,13.57,0,0,1-1.33-6c0-2.17,0-2.17,0-4.33s-.08-2.16-.08-4.32.26-2.16.26-4.32.28-2.17.28-4.33.05-2.17.05-4.33-1.84-2.87-.29-4.38,2.27-.12,4.5-.12,2.23-.29,4.46-.29,2.93-1.17,4.51.41-.27,2.28-.27,4.52.38,2.24.38,4.47S414,136.76,414,139s.13,2.24.13,4.48.35,2.24.35,4.48a3.62,3.62,0,0,0,.8,2.75A3.88,3.88,0,0,0,418,152c2.08,0,2.08-.6,4.16-.6s2.07-.26,4.15-.26,2.08.3,4.16.3,2.08-.23,4.16-.23,2.08.05,4.16.05,2.07.38,4.15.38,2.08-.12,4.15-.12,2.08.34,4.16.34,2.08-.25,4.16-.25,2.08-.31,4.16-.31,2.07.35,4.15.35,2.08-.22,4.16-.22,2.08.42,4.16.42h8.32c2.08,0,2.08-.35,4.16-.35s2.08-.2,4.16-.2,2.08.17,4.16.17,2.13.53,4.16.09C499.21,151,499.72,150.05,501.24,151.48Zm0-15.78c-1.8,1.56-2.44.32-4.82.32s-2.38-.68-4.77-.68-3,1.93-4.83.37c-1.56-1.35.4-2.13.4-4.19s-.7-2.07-.7-4.13.23-2.06.23-4.13-.33-2.06-.33-4.12.8-2.06.8-4.12-.8-2.07-.8-4.13.69-2.06.69-4.12-.47-2.07-.47-4.13.7-2.06.7-4.13-.62-2.06-.62-4.12.2-2.07.2-4.13-.42-2.07-.42-4.13-.08-2.07-.08-4.13.77-2.06.77-4.13-.19-2.06-.19-4.13.2-2.06.2-4.13-.13-2.07-.13-4.13-1.84-2.88-.28-4.24c1.8-1.56,2.48.13,4.86.13s2.38,0,4.77,0,2.88-1.53,4.68,0c1.56,1.35.52,2,.52,4s-.83,2.06-.83,4.12.44,2.07.44,4.13.19,2.06.19,4.13,0,2.06,0,4.12.09,2.06.09,4.12-.27,2.06-.27,4.13-.28,2.06-.28,4.12,0,2.07,0,4.13.3,2.06.3,4.13.11,2.06.11,4.13.28,2.06.28,4.13-.39,2.06-.39,4.12-.29,2.07-.29,4.13.38,2.07.38,4.13-.56,2.07-.56,4.13-.33,2.19.13,4.2C501.42,133.77,502.8,134.35,501.24,135.7Z"/><path class="cls-7" d="M558,59a34.3,34.3,0,0,1,4.26.78c1.42.17,3-.4,4.39-.05s2.58,1.38,3.94,1.89,2.92.51,4.18,1.16a33.3,33.3,0,0,1,3.55,2.44,33.24,33.24,0,0,1,3.49,2.52,32.67,32.67,0,0,1,2.66,3.4,30.92,30.92,0,0,1,2.78,3.25A36.31,36.31,0,0,1,589,78.24a29.64,29.64,0,0,1,1.82,4.12,30,30,0,0,1,1,4.41,33,33,0,0,1,.33,4.5,32.07,32.07,0,0,1-.51,4.32,28.34,28.34,0,0,1-.94,4.22,28.68,28.68,0,0,1-1.63,4,31.74,31.74,0,0,1-2.12,3.62,31.49,31.49,0,0,1-2.15,3.65,32.53,32.53,0,0,1-2.89,3.1,36.19,36.19,0,0,1-3.26,2.82,33.34,33.34,0,0,1-3.64,2.3,37.06,37.06,0,0,1-4,1.64,36.25,36.25,0,0,1-8.62,1.89,37.25,37.25,0,0,1-4.4.58,35.32,35.32,0,0,1-4.27-.29,34.85,34.85,0,0,1-8.29-2.09,33.12,33.12,0,0,1-3.74-1.81,31.68,31.68,0,0,1-3.67-2,48.68,48.68,0,0,1-6.23-5.64,33,33,0,0,1-2.15-3.65,34.3,34.3,0,0,1-2.25-3.58c-.62-1.34-.49-3-.9-4.39a30.11,30.11,0,0,1-1.28-4.24,35.13,35.13,0,0,1,.14-4.44c0-1.47-.61-3-.43-4.36A31.29,31.29,0,0,1,526,82.67a28.63,28.63,0,0,1,1.13-4.23c.55-1.27,1.89-2.13,2.58-3.29s.83-2.77,1.68-3.84,2.28-1.63,3.27-2.59a32.12,32.12,0,0,1,2.89-3c1.11-.82,2.64-1,3.87-1.67s2.18-1.81,3.49-2.34a36,36,0,0,1,4.3-1.24,38.86,38.86,0,0,1,4.3-1.31A44.51,44.51,0,0,1,558,59Zm0,51.79a20.05,20.05,0,0,0,3.86.13c1.23-.26,2.19-1.44,3.37-1.94s2.58-.53,3.62-1.22,1.62-2,2.53-2.87a18.42,18.42,0,0,0,2.62-2.68,20.3,20.3,0,0,0,1.69-3.36,17.79,17.79,0,0,0,1.65-3.58,20,20,0,0,0,.1-4,18.07,18.07,0,0,0-.06-3.82A21.22,21.22,0,0,0,576,83.87a23.28,23.28,0,0,0-1.81-3.47,21.67,21.67,0,0,0-2.4-3.09,21.65,21.65,0,0,0-2.75-2.83,23.3,23.3,0,0,0-3.32-2.15A17,17,0,0,0,562,70.8a17.2,17.2,0,0,0-4-.61,16.71,16.71,0,0,0-3.79.84,16.33,16.33,0,0,0-3.56,1.37,22.35,22.35,0,0,0-3.27,2.17,23.28,23.28,0,0,0-2.92,2.62,23.42,23.42,0,0,0-2.66,3,23.12,23.12,0,0,0-2.09,3.45,19.06,19.06,0,0,0-1.37,3.7,17.9,17.9,0,0,0-.11,3.94,18.76,18.76,0,0,0,.35,3.85,18.35,18.35,0,0,0,1.21,3.67A23.15,23.15,0,0,0,544.1,105a20.82,20.82,0,0,0,3.13,2.18,21.92,21.92,0,0,0,3.31,1.8,19.87,19.87,0,0,0,3.7,1A19.12,19.12,0,0,0,558,110.75Zm64.58-49.11c1.53,1.4-.48,2.17-.48,4.24S623,68,623,70s-.64,2.07-.64,4.14.64,2.06.64,4.13-.27,2.07-.27,4.14.16,2.07.16,4.14-.48,2.07-.48,4.14.3,2.06.3,4.13-.35,2.07-.35,4.14.23,2.07.23,4.14,0,2.07,0,4.14,0,2.07,0,4.14-.23,2.07-.23,4.15,0,2.07,0,4.14-.13,2.07-.13,4.14-.15,2.07-.15,4.14.39,2.07.39,4.14,0,2.08,0,4.15,1.61,2.84.08,4.23c-1.68,1.54-2.35,0-4.62,0s-2.27-.2-4.55-.2-2.7,1.42-4.38-.11c-1.53-1.39.2-1.89.2-4s-.32-2.07-.32-4.14,0-2.07,0-4.14v-4.14c0-2.06,0-2.06,0-4.13s0-2.07,0-4.14-.28-2.07-.28-4.14,0-2.07,0-4.13-.21-2.07-.21-4.14.35-2.07.35-4.14-.3-2.07-.3-4.14.68-2.07.68-4.15-.4-2.07-.4-4.14.43-2.07.43-4.14-.7-2.07-.7-4.14.24-2.07.24-4.14-.34-2.07-.34-4.14.8-2.08.8-4.15-2.18-3.1-.65-4.5c1.68-1.53,2.59.58,4.86.58a14.22,14.22,0,0,0,4.5-.46C620.31,61,620.91,60.11,622.59,61.64Z"/><path class="cls-8" d="M709.64,108.88c-1.49,1.44-2.06-.35-4.13-.35s-2.08.29-4.15.29-2.08-.39-4.15-.39-2.08.22-4.15.22-2.08.64-4.15.64-2.08-.73-4.16-.73-2.07.6-4.15.6-2.08-.71-4.15-.71-2.08.47-4.16.47-2.07.39-4.15.39-2.08-.6-4.15-.6-2.08.39-4.16.39-2.08-.21-4.16-.21-2.08-.25-4.16-.25a5.75,5.75,0,0,1-4.52-1.72c-1.23-1.33-1.64-3.15-1.64-5.45,0-2-.54-2-.54-4s.71-2,.71-4-.39-2-.39-4,.13-2,.13-4,.28-2,.28-4-.06-2-.06-4,0-2,0-4-.13-2-.13-4-.36-2-.36-4-1.33-2.69.17-4c1.71-1.5,2.29-.16,4.56-.16s2.27,0,4.55,0,2.64-1.17,4.27.41.73,1.92.73,4.12-.64,2.2-.64,4.4.64,2.2.64,4.4S659,77,659,79.21s.16,2.2.16,4.4-.48,2.21-.48,4.41.3,2.2.3,4.41-1.83,2.95-.3,4.54,2.25-.18,4.37-.18,2.12,0,4.23,0,2.12,0,4.24,0,2.12.22,4.24.22,2.11,0,4.23,0,2.12.13,4.24.13,2.12.14,4.24.14,2.12-.39,4.24-.39,2.12,0,4.24,0,2.11-.12,4.23-.12h4.25c2.12,0,2.65-1.28,4.2.18s-.2,2-.2,4-.54,2.13-.11,4.1S711.09,107.48,709.64,108.88Zm-51.11,54.43a10,10,0,0,1-4-1.12A9.42,9.42,0,0,1,651,160a10.7,10.7,0,0,1-1.93-4.24,14.81,14.81,0,0,1-.86-4.59c0-2.25-.64-2.25-.64-4.5s.73-2.25.73-4.5-.6-2.25-.6-4.51-.93-2.55.6-4.2,1.75-.33,3.83-.33,2.07-.4,4.15-.4,2.07.6,4.15.6,2.07-.39,4.14-.39,2.08.21,4.15.21,2.08.26,4.15.26,2.08-.27,4.15-.27,2.08.21,4.15.21,2.08-.53,4.16-.53,2.07.7,4.15.7,2.08-.39,4.15-.39,2.08.14,4.16.14,2.07.28,4.15.28,2.08-.07,4.15-.07l4.16,0c2.08,0,2.08-.13,4.16-.13s2.42,1,4-.32c1.29-1,.09-1.51.09-3.16s1.22-2.16-.09-3.18c-1.66-1.3-2,0-4.11,0s-2.11-.52-4.22-.52-2.11.85-4.22.85-2.11-.64-4.22-.64-2.11.64-4.22.64-2.11-.27-4.22-.27-2.11.16-4.22.16-2.11-.48-4.22-.48-2.11.3-4.22.3-2.12-.35-4.23-.35-2.11.23-4.22.23-2.11,0-4.23,0-2.11,0-4.22,0-2.11-.23-4.22-.23-2.11,0-4.23,0-2.11-.13-4.23-.13-2.39,1.41-3.94,0-.26-1.65-.26-3.61,0-2,0-3.93-1.53-2.68-.08-4,2.21,0,4.34,0,2.14.2,4.27.2,2.14.17,4.27.17,2.14.12,4.27.12,2.14-.32,4.27-.32,2.14,0,4.27,0h4.27c2.13,0,2.13,0,4.27,0s2.13,0,4.26,0,2.14-.28,4.27-.28,2.14,0,4.27,0,2.14-.2,4.27-.2,2.14.34,4.28.34,2.13-.3,4.27-.3,2.14.69,4.27.69,2.14-.4,4.27-.4,2.14.42,4.28.42,2.13-.7,4.27-.7,2.14.24,4.28.24,3.09-1.71,4.61-.2-.66,2.46-.66,4.6.8,2.14.8,4.28-.7,2.13-.7,4.27.47,2.13.47,4.27-.7,2.14-.7,4.28.62,2.14.62,4.28,1.31,2.72-.18,4.26-2.06.4-4.14.4-2.08.08-4.16.08-2.08-.77-4.16-.77-2.07.19-4.15.19-2.08-.2-4.16-.2-2.08.14-4.15.14-2.08.31-4.16.31-2.08-.16-4.16-.16-2.08,0-4.16,0-2.08-.06-4.16-.06-2.08.56-4.16.56-2.08-.82-4.17-.82-2.08.43-4.16.43-2.08.2-4.16.2-2.08,0-4.16,0-2.08.08-4.17.08-2.51-1.61-4.11-.29c-1.33,1.1-.25,1.66-.25,3.38s-1.3,2.56,0,3.63c1.67,1.35,2.3-.25,4.44-.25s2.14-.1,4.28-.1,2.14-.28,4.28-.28,2.14.39,4.28.39,2.14.29,4.28.29,2.15-.39,4.29-.39,2.14.56,4.28.56,2.14-.12,4.28-.12,2.14-.36,4.29-.36,2.14-.05,4.28-.05,2.15.54,4.29.54,2.14-.6,4.29-.6,2.14-.26,4.28-.26,2.14.3,4.29.3,2.14-.23,4.28-.23,2.15.05,4.3.05,2.67-1.08,4.25.37.11,1.92.11,3.88-.34,2-.34,3.93,1.69,2.58.26,3.92-2.09.3-4.2.3-2.1-.35-4.2-.35-2.11.22-4.21.22-2.1-.41-4.21-.41h-8.41c-2.1,0-2.1.36-4.2.36s-2.11.19-4.21.19-2.1-.17-4.21-.17-2.1-.09-4.21-.09-2.1.22-4.21.22-2.1-.56-4.21-.56-2.1-.15-4.21-.15-2.1.88-4.21.88-2.1-.59-4.2-.59-2.11.43-4.22.43-2.1-.46-4.21-.46S660.64,163.31,658.53,163.31ZM719.34,61.49c1.68-1.53,2.26.34,4.53.34s2.27-.29,4.55-.29,2.52-1.2,4.25.28c1.48,1.27.06,1.6.06,3.56s.64,2,.64,3.9-.73,2-.73,3.91-.85,2.33.52,3.72,1.72.63,3.64.63,1.92-.47,3.84-.47,1.92-.39,3.84-.39,2.39-.84,3.72.54.34,1.89.34,3.89-.21,2-.21,4,1.21,2.4-.18,3.85-1.74.19-3.66.19-1.92-.21-3.84-.21-1.92.53-3.84.53-2.83-2-4.12-.58c-1.43,1.59.3,2.39.3,4.53s-.14,2.15-.14,4.29-.28,2.14-.28,4.29.07,2.15.07,4.29,1.68,2.6.12,4.08-2.07,0-4.34,0-2.27.35-4.55.35-2.87,1.36-4.56-.16c-1.52-1.37-.16-2.06-.16-4.11s.05-2,.05-4.09.52-2.05.52-4.09-.85-2-.85-4.1.64-2,.64-4.09-.64-2.05-.64-4.1.27-2,.27-4.09-.16-2-.16-4.09.48-2.05.48-4.1-.3-2-.3-4.09.79-2.14.35-4.15S717.81,62.86,719.34,61.49Z"/><path class="cls-7" d="M857,122.64c1.45,1.56,2.33-.39,4.46-.39s2.13.23,4.26.23,2.14.25,4.27.25,2.13-.48,4.27-.48,2.13-.13,4.26-.13,2.14.51,4.27.51,2.13-.51,4.26-.51,2.14-.1,4.28-.1,2.42-.71,4,.73.72,1.67.72,3.63,0,2,0,3.93,1.24,2.88-.2,4.22-2.37-.12-4.48-.12-2.1-.37-4.2-.37-2.11-.26-4.21-.26-2.1.62-4.21.62-2.1-.51-4.21-.51-2.1.19-4.2.19-2.11.61-4.21.61-2.11-.7-4.21-.7-2.11-.17-4.21-.17-2.1.52-4.2.52-2.11-.32-4.21-.32-2.1.06-4.21.06-2.1.36-4.21.36h-4.2c-2.11,0-2.11-.12-4.21-.12s-2.11.19-4.21.19-2.11,0-4.22,0-2.1.16-4.21.16-2.1-.74-4.21-.74-2.1.78-4.21.78-2.1-.71-4.21-.71-2.11.7-4.22.7-2.66,1-4.2-.44-.3-1.95-.3-3.91.15-2,.15-3.93-1.08-2.34.38-3.66c1.63-1.46,1.94-.59,4.13-.59s2.19-.14,4.38-.14,2.19.66,4.39.66,2.19.1,4.38.1,2.19-.26,4.38-.26,2.19-.38,4.38-.38,2.2.65,4.39.65,2.19-.21,4.38-.21,2.2-.22,4.39-.22,2.9,1.72,4.41.13.36-2.31.36-4.61-.44-2.3-.44-4.61.43-2.3.43-4.6,1.23-3-.29-4.68c-1.33-1.52-2.1,0-4.12,0s-2,.37-4,.37-2-.19-4-.19-2,.11-4,.11-2-.36-4-.36-2-.06-4.06-.06-2,.63-4,.63c-1.4,0-2.66-.76-3.81-.82-1.46-.08-2.82.54-3.88.37a9,9,0,0,1-4.47-2.17,6.65,6.65,0,0,1-1.87-4,19.42,19.42,0,0,1-.89-3.21c-.06-1,.14-2.11.14-3.31,0-2.08.16-2.08.16-4.17s.2-2.08.2-4.16S800,81,800,78.87s0-2.08,0-4.16.09-2.09.09-4.17-.09-2.09-.09-4.17-2.06-3-.59-4.43,2.34.63,4.43.63S805.93,62,808,62s2.09-.08,4.17-.08,2.09.76,4.17.76h4.17c2.08,0,2.08-.54,4.16-.54s2.09.31,4.17.31S830.94,62,833,62s2.09.32,4.17.32,2.08-.29,4.16-.29,2.09.35,4.17.35,2.08-.14,4.17-.14,2.08.34,4.17.34,2.08-.29,4.16-.29,2.09.39,4.17.39,2.09-.22,4.17-.22,2.09-.64,4.17-.64,2.09.73,4.17.73,2.09-.6,4.17-.6,2.09.71,4.17.71,2.09-.47,4.18-.47,2.09-.39,4.17-.39,2.54-.88,4.06.55.34,1.83.34,3.8-.22,2-.22,3.93,1.25,2.39-.17,3.75-1.88.2-3.94.2-2.05-.21-4.11-.21-2.05.53-4.11.53-2.06-.71-4.11-.71-2.06.4-4.11.4-2.06-.14-4.11-.14-2.06-.28-4.11-.28-2,.06-4.11.06-2.05,0-4.11,0-2.05.14-4.11.14-2.06.35-4.11.35S848.3,74,846.25,74s-2.06.15-4.12.15-2,0-4.11,0-2.06-.52-4.12-.52-2,.84-4.11.84-2-.63-4.11-.63-2.06.63-4.12.63-2.06-.26-4.12-.26-2.38-1.35-3.88.06-.37,1.7-.37,3.65.29,2,.29,3.9-.35,2-.35,3.9.24,2,.24,3.91a4.38,4.38,0,0,0,.35,2c.22.4,1,.53,2.38.53,2.09,0,2.09.22,4.18.22s2.09,0,4.18,0,2.1.13,4.19.13,2.09.14,4.18.14,2.09-.39,4.18-.39,2.09,0,4.17,0,2.09-.12,4.18-.12h4.18c2.09,0,2.09.2,4.19.2s2.09.17,4.18.17,2.09.12,4.18.12,2.09-.32,4.18-.32,2.09,0,4.19,0h4.18c2.09,0,2.09,0,4.18,0s2.09,0,4.19,0,2.09-.27,4.18-.27,2.1,0,4.19,0,3-1.52,4.48-.09-.21,2.27-.21,4.23.3,2,.3,3.93.86,2.38-.59,3.71-1.92.31-4.05.31-2.14-.42-4.27-.42-2.13.7-4.26.7-2.14-.24-4.27-.24-2.13.34-4.27.34-2.13-.8-4.26-.8-2.14.8-4.27.8-2.14-.69-4.27-.69-2.65-1.18-4.1.39-.63,2.13-.63,4.43.61,2.3.61,4.6.32,2.36-.19,4.6C856.56,120.33,855.4,121,857,122.64Z"/><path class="cls-5" d="M964.84,65.5c0,1.62,0,3.15.11,4.63s.08,3.17.32,4.63a37,37,0,0,0,1.16,4.48c.36,1.21.77,2.36,1.2,3.47A36.12,36.12,0,0,0,969.18,86c.58,1.12.7,2.49,1.37,3.47A32.88,32.88,0,0,0,973.73,93,25.77,25.77,0,0,0,977.38,96c1.13.88,2.32,1.58,3.45,2.31s2.17,1.86,3.37,2.47,2.33,1,3.43,1.43,2.21,1.29,3.34,1.67c2.21.76,4,1.24,5.47,1.85.62,2-.19,2.06-.19,4.18s.21,2.12.21,4.24,1.15,2.35.38,4.32c-1.57-.23-3.23-.92-4.72-1.26s-3.11-.42-4.56-.88-2.79-1.4-4.21-2-2.66-.89-3.88-1.5-2.44-1.38-3.61-2.06-2.46-1.34-3.58-2.12-2.16-1.28-3.11-2-1.76-1.77-2.65-2.6-1.83-1.68-2.65-2.58a44.89,44.89,0,0,1-3.06-3.69A33.7,33.7,0,0,1,958.15,94a41.36,41.36,0,0,1-2.62,3.88c-.95,1.24-2.47,2.08-3.6,3.33-.82.9-1.48,1.95-2.39,2.8s-2,1.39-3,2.18-1.83,1.58-2.85,2.31-2.09,1.75-3.29,2.46-2.45,1.17-3.7,1.8-2.24,1.61-3.53,2.16-2.9.92-4.37,1.39-3,.61-4.46,1-3.08,1-4.62,1.18c-.76-2-.14-2.19-.14-4.3s.51-2.13.51-4.25-1.13-2.31-.5-4.34c1.46-.47,3.22-1.32,4.93-2,1.48-.54,3.35-.35,5-1,1.23-.49,2.07-1.83,3.25-2.48A33.47,33.47,0,0,0,936.15,98a38.61,38.61,0,0,0,3.13-2.42,26.83,26.83,0,0,0,3.36-3.23,34.34,34.34,0,0,0,3-3.66,41.86,41.86,0,0,0,2.43-4.08c.51-1.12.39-2.57.78-3.85a35.91,35.91,0,0,0,1.44-3.62c.24-1.22.25-2.54.4-3.87s-.35-2.56-.28-3.89.79-2.51.79-3.84c0-2.31-1.57-2.68.05-4.34s2-.39,4.25-.39,2.27.32,4.55.32S962.45,60,964.5,61,964.84,63.19,964.84,65.5Zm41.68-4.83c1.73-1.48,2.45,0,4.72,0s2.27.22,4.55.22,2.94-1.62,4.64-.1c1.52,1.36.06,2.14.06,4.18s.06,2,.06,4.08-.59,2-.59,4.09.32,2,.32,4.08.31,2,.31,4.08.12,2,.12,4.08-.46,2-.46,4.09.16,2,.16,4.08-.35,2-.35,4.08.07,2,.07,4.08-.17,2-.17,4.09.21,2,.21,4.08.39,2,.39,4.09-.57,2-.57,4.09.33,2,.33,4.08-.43,2-.43,4.09.26,2,.26,4.08-.12,2.05-.12,4.1,1.72,2.61.2,4c-1.69,1.52-2.17.18-4.44.18s-2.27-.23-4.55-.23-2.81,1.63-4.48.09,0-2,0-4.12-.33-2.09-.33-4.19,0-2.1,0-4.19.62-2.1.62-4.19-.27-2.1-.27-4.2.31-2.09.31-4.19-.12-2.1-.12-4.2-.27-2.09-.27-4.19.2-2.1.2-4.19-.47-2.1-.47-4.2.23-2.1.23-4.2,1.68-2.94.17-4.4-2.38.4-4.56.4-2.19.13-4.37.13-2.18-.51-4.37-.51-2.19.52-4.37.52-3,1.44-4.67,0c-1.46-1.31.7-2.28.7-4.24s-.86-2-.86-3.94-1.32-3,.14-4.27c1.62-1.46,2.49,0,4.68,0s2.18.23,4.36.23,2.19.37,4.37.37,2.19.26,4.38.26,2.63.86,4.27-.59c1.45-1.28.46-1.81.46-3.75s-.2-1.93-.2-3.87a10.55,10.55,0,0,0-.59-3.77C1005.74,62.72,1005.05,61.93,1006.52,60.67Z"/><path class="cls-1" d="M1112.07,117.76c-1.4,1.48-2.12-.39-4.15-.39s-2,.71-4.07.71-2-.66-4.06-.66-2,.36-4.07.36-2-.53-4.06-.53-2,.14-4.07.14-2,.39-4.07.39-2-.16-4.07-.16-2-.32-4.06-.32-2,0-4.07,0-2,0-4.07,0-2,.22-4.07.22-2-.12-4.07-.12-2,.18-4.07.18-2-.24-4.07-.24-2,.22-4.07.22-2,.54-4.08.54-2.87,1.32-4.28-.15,0-2.33,0-4.47.12-2.14.12-4.29-1.64-3-.19-4.55,2.28,0,4.27,0,2-.23,4-.23,2,.82,4,.82,2-.52,4-.52,2,.51,4,.51,2.85,1.34,4.25-.08-.54-2.28-.54-4.29,0-2,0-4,.22-2,.22-4-.14-2-.14-4-1.51-2.86,0-4.15c1.86-1.55,2.52-.1,5-.1s2.43.6,4.86.6,3-1.89,4.82-.34c1.54,1.29.29,2,.29,4s.12,2,.12,4-.46,2-.46,4,.16,2,.16,4-1.74,2.86-.27,4.23,2.37,0,4.55,0,2.17.17,4.35.17,2.17-.21,4.35-.21,2.18-.39,4.35-.39,2.18.57,4.35.57,2.18-.32,4.36-.32,2.18.42,4.36.42,2.67-1.83,4.22-.31-.16,2-.16,4.15-.31,2.22.15,4.31C1112.33,115.7,1113.54,116.21,1112.07,117.76Zm-15.79-44c-1.54-1.48-2.06-.4-4.21-.4s-2.14.72-4.28.72-2.15-.66-4.29-.66-2.14.35-4.29.35-2.14-.52-4.28-.52-2.15.13-4.29.13-2.15.4-4.29.4-2.15-.16-4.29-.16-2.15-.32-4.29-.32-2.14,0-4.29,0-2.14,0-4.29,0-2.15.22-4.29.22-2.48,1.43-4.06,0-.07-1.72-.07-3.7.24-2,.24-4-1.7-2.45-.28-3.84,1.91-.48,4-.47,2,.07,4.08.07,2,.06,4.08.06,2,.13,4.08.13,2-.29,4.08-.29,2,.18,4.08.18,2-.23,4.08-.23,2,.83,4.08.84,2-.52,4.08-.52,2,.52,4.08.52,2,0,4.09.05,2-.65,4.08-.64,2,0,4.08,0,2,.22,4.09.22,2-.13,4.08-.13,2,0,4.09,0,2.79-1.43,4.24,0-.53,2.18-.53,4.2.32,2,.32,4,.31,2,.31,4,.12,2,.12,4-.45,2-.45,4,.16,2,.16,4-.36,2-.36,4,.08,2,.08,4.06,1.47,2.42,0,3.77c-1.69,1.51-2,.12-4.29.12s-2.28.39-4.55.39-2.63,1-4.32-.49c-1.52-1.37-.22-1.79-.22-3.84s.43-2.06.43-4.11-.25-2-.25-4.1.11-2.05.11-4.1-.57-2.07-.15-4.08S1097.77,75.22,1096.28,73.79Zm-41,74.09c0,.89-.27,1.62-.14,1.75s.91-.42,1.88-.42c2.14,0,2.14.66,4.29.66s2.14-.35,4.28-.35,2.15.52,4.29.52,2.14-.13,4.28-.13,2.15-.4,4.29-.4,2.14.16,4.28.16,2.14.32,4.28.32,2.15,0,4.29,0,2.14.05,4.28.05,2.15-.22,4.29-.22,2.14.13,4.29.13,2.14-.19,4.28-.19,2.15.24,4.29.24,2.15-.22,4.29-.22,2.14-.54,4.29-.54,2.14.07,4.29.07,2.14,0,4.29,0,2.14.12,4.29.12,3.06-1.69,4.58-.18,0,2.43,0,4.56.23,2.15.23,4.29.77,2.5-.72,4-1.82.42-3.91.42-2.08-.52-4.16-.52-2.08,0-4.16,0-2.09.65-4.17.65-2.08-.05-4.16-.05-2.08-.22-4.17-.22-2.08.14-4.15.14-2.09,0-4.17,0-2.08.06-4.16.06-2.08-.6-4.17-.6-2.08.32-4.16.32-2.08.32-4.16.32-2.09.12-4.17.12-2.08-.46-4.17-.46-2.08.16-4.16.16-2.09-.35-4.17-.35-2.08.07-4.17.07-2.08-.17-4.16-.17-2.09.21-4.18.21-2.09.39-4.17.39c-1.35,0-2.55-.61-3.68-.69a33.59,33.59,0,0,1-3.67-.15,8.44,8.44,0,0,1-4.14-2.36,6.88,6.88,0,0,1-2.3-3.63,21.37,21.37,0,0,1-.36-3.1c-.08-1-.27-2-.27-3.14,0-2.05-.22-2.05-.22-4.11s.23-2.05.23-4.1-.07-2.05-.07-4.1,0-2.06,0-4.11-.34-2.05-.34-4.11-1.44-2.94.13-4.27c1.85-1.56,2.56.58,5,.58s2.43-.27,4.86-.27,2.77-1.48,4.54.19,0,2,0,4.24.27,2.29.27,4.58-.2,2.29-.2,4.58.43,2.29.47,4.59S1055.28,145.59,1055.28,147.88Zm92.41-73.32c1.4,1.38-.39,2-.39,4s.71,2,.71,3.93.82,2.36-.58,3.74-1.8.28-3.78.28-2-.53-4-.53-2.78-1.18-4.19.23.31,2.21.31,4.2-.16,2-.16,4-.32,2-.32,4,0,2,0,4,0,2,0,4,.22,2,.22,4-.12,2-.12,4,.18,2,.18,4-.24,2-.24,4,.22,2,.22,4,1.93,2.94.42,4.26c-1.7,1.5-2.5,0-4.77,0s-2.27-.05-4.55-.05-2.93,1.37-4.62-.15c-1.52-1.37-.32-2.12-.32-4.17s.16-2,.16-4.09-.23-2-.23-4.08.82-2,.82-4.09-.52-2-.52-4.09.52-2,.52-4.08,0-2,0-4.09-.65-2.05-.65-4.09,0-2,0-4.09.21-2,.21-4.09-.13-2-.13-4.09,0-2.05,0-4.09-.06-2-.06-4.09.59-2,.59-4.09-.32-2-.32-4.1-.31-2-.31-4.09-1.52-3,0-4.38c1.69-1.51,2.52.38,4.79.41s2.27-.15,4.55-.12,2.75-1.3,4.35.32,0,2.07,0,4.34-.17,2.28-.17,4.55-1.24,2.94.25,4.66c1.31,1.49,2.11-.34,4.1-.34s2.11,1,4,.57C1145.83,74.51,1146.28,73.17,1147.69,74.56Z"/><path class="cls-1" d="M1566,45.09c1.69-1,3.59-1.59,5.33-2.51s3.42-1.94,5.19-2.76,3.51-1.86,5.34-2.52a46.81,46.81,0,0,1,5.65-1.79c1.92-.42,4,.21,5.94.11a31.13,31.13,0,0,1,5.94-.13,34.73,34.73,0,0,1,5.78,1.47,39.71,39.71,0,0,1,5.71,1.87,32.42,32.42,0,0,1,5,3.16c1.54,1.19,2.48,2.89,3.66,4.48-1.2,1.3-2.46,2.37-3.7,3.66s-2.1,3-3.41,4.16a45.67,45.67,0,0,1-4.23,3.32,29.77,29.77,0,0,1-4.72,2.53,25.06,25.06,0,0,1-5.51,2,30.47,30.47,0,0,1-5.86.64c-2,0-3.86-.84-5.76-1.17s-4.06-.09-5.86-.72a23.65,23.65,0,0,1-4.86-2.21c-1.47-.94-2.31-2.69-3.49-4a31.79,31.79,0,0,1-3.53-4.33,21.48,21.48,0,0,1-2.08-5.14"/><path class="cls-2" d="M1554.69,65.5c.56,2.48,1.81,3.43,4.19,2.54,2.73-1,1.3-2.66,2.68-5.23s1.14-2.71,2.53-5.28,1.28-2.62,2.67-5.2,4.26-2.16,3.62-5c-.56-2.48-2.52-3.21-4.9-2.32-2.73,1-1.46,2.53-2.85,5.1s-.94,2.81-2.33,5.38-1,2.92-2.82,5.2S1554.05,62.65,1554.69,65.5Z"/><path class="cls-2" d="M1569.15,48.73a33.82,33.82,0,0,0,1.92-5.62,37.45,37.45,0,0,0,1.38-5.76,39.23,39.23,0,0,0,.41-5.93,38.59,38.59,0,0,0-.66-5.91,33.9,33.9,0,0,0-1.42-5.78,27.07,27.07,0,0,0-3-5.13,32.36,32.36,0,0,0-2.85-4.47,44.48,44.48,0,0,0-3.8-3.72c-1.33-1.14-2.93-2-4.35-3S1554,1.68,1552.51.68a18.33,18.33,0,0,0-2.93,3.72,24.12,24.12,0,0,0-1.8,4.64c-.49,1.59-1.44,3.12-1.65,4.78s.58,3.38.63,5a32.5,32.5,0,0,0,.28,5.69,32.7,32.7,0,0,0,2,5.35c.72,1.79.81,3.89,1.8,5.51s2.86,2.66,4.12,4.08,2.17,3.29,3.67,4.45,3.53,1.57,5.24,2.42,3.26,2.15,5.13,2.62"/><path class="cls-8" d="M1189.74,83.12c1.59-1.4,2.39.27,4.51.27s2.12.4,4.24.4h4.25c2.12,0,2.12-.54,4.24-.54s2.12.34,4.24.34,2.12-.49,4.24-.49,2.12.71,4.24.71,2.13-.63,4.25-.63,2.12.32,4.24.32,2.12-.25,4.24-.25,2.13.28,4.25.28,2.12-.54,4.24-.54,2.13.87,4.25.87,2.12,0,4.25,0,2.12-.3,4.24-.3,2.13-.38,4.25-.38,2.12.38,4.25.38,2.12-.55,4.25-.55,2.7,1.91,4.15.35,0-2.19,0-4.47,1.39-2.61-.17-4.28-1.82-.29-3.95-.29-2.13.43-4.26.43S1260,74,1257.87,74s-2.13.71-4.26.71-2.14-.16-4.27-.16-2.13-.33-4.26-.33-2.13.11-4.26.11-2.13.22-4.26.22-2.14-.67-4.27-.67-2.13.2-4.26.2-2.14.51-4.27.51-2.13-.45-4.27-.45-2.13.13-4.26.13-2.14.37-4.27.37-2.14-.73-4.27-.73-2.13.55-4.27.55-2.13-.54-4.26-.54-2.14.37-4.28.37-2.64,1.39-4.24,0c-1.42-1.26.36-1.86.36-3.75s0-1.9,0-3.8-1.66-2.4-.24-3.67c1.59-1.42,2-.11,4.15-.11s2.13.2,4.27.2,2.14-.35,4.27-.35,2.14.42,4.28.42,2.13-.26,4.27-.26,2.14.11,4.27.11,2.14-.46,4.28-.46,2.13,0,4.27,0,2.13.76,4.27.76,2.13-.53,4.27-.53,2.14.43,4.27.43,2.14-.72,4.28-.72,2.13.66,4.27.66,2.13-.35,4.27-.35,2.14.52,4.28.52,2.14-.13,4.27-.13,2.14-.4,4.28-.4,2.14.17,4.27.17,2.14.31,4.28.31l4.28,0c2.14,0,2.14.05,4.28.05s2.59-1.78,4.12-.29-.19,1.92-.19,4,.18,2.08.18,4.16-.24,2.08-.24,4.17.22,2.08.22,4.16.54,2.08.54,4.16-.07,2.08-.07,4.17-.05,2.08-.05,4.16-.12,2.08-.12,4.17,1.67,3,.17,4.46-2.44-.06-4.6-.06-2.16.23-4.33.23-2.73,1-4-.68c-1.72-2.26,1.29-3.09-.42-5.38-1.26-1.7-2-.45-4.11-.45s-2.12,0-4.24,0-2.12.65-4.25.65-2.12,0-4.24,0-2.12-.22-4.24-.22-2.12.14-4.24.14-2.12,0-4.25,0-2.12.06-4.24.06-2.12-.59-4.24-.59-2.12.32-4.24.32-2.13.31-4.25.31-2.12.12-4.25.12-2.12-.46-4.24-.46-2.13.16-4.25.16-2.12-.35-4.24-.35-2.13.07-4.25.07-2.12-.17-4.25-.17-2.12.21-4.25.21-2.81,1.74-4.41.34c-1.4-1.24.5-2,.5-3.92a10.33,10.33,0,0,0-.33-3.76C1189.48,85.06,1188.33,84.37,1189.74,83.12Zm-.42,20.68c1.5-1.46,2.37.25,4.45.25s2.09.4,4.17.4h4.17c2.08,0,2.08-.53,4.17-.53s2.08.33,4.16.33,2.09-.49,4.17-.49,2.09.71,4.17.71,2.08-.63,4.17-.63,2.08.33,4.17.33,2.08-.25,4.16-.25,2.08.27,4.17.27,2.08-.54,4.16-.54,2.09.87,4.17.87,2.09,0,4.17,0,2.08-.3,4.17-.3,2.08-.38,4.17-.38,2.08.38,4.17.38,2.09-.55,4.17-.55,2.09.31,4.17.31H1273c2.09,0,2.09-.28,4.17-.28s2.09.43,4.18.43,3-1.77,4.48-.31-.6,2.34-.6,4.37.71,2,.71,4.06,1.22,2.82-.24,4.24-2.26-.25-4.34-.25-2.08.11-4.17.11-2.08.22-4.16.22-2.09-.67-4.17-.67-2.08.19-4.17.19-2.08.52-4.17.52-2.08-.45-4.17-.45-2.08.13-4.16.13-2.09.36-4.17.36-2.08-.72-4.16-.72-2.09.54-4.17.54-2.08-.53-4.17-.53-2.08.37-4.17.37-2.08,0-4.16,0-2.09-.35-4.17-.35-2.09,0-4.17,0-2.09.18-4.17.18-2.09.16-4.18.16-2.08-.2-4.17-.2-2.08.35-4.17.35-2.08-.41-4.17-.41-2.09.25-4.18.25-2.58,1.39-4.08-.06-.41-1.93-.41-4,.47-2,0-4C1188.71,106,1187.87,105.22,1189.32,103.8Zm94.73,48.07c1.43,1.35-.24,2.26-.24,4.22s-.4,2-.4,3.93,1.53,2.31.11,3.66-1.8.44-3.86.44-2.06-.34-4.12-.34-2.06.5-4.11.5-2.06-.72-4.12-.72-2.06.64-4.12.64-2.06-.33-4.12-.33-2,.25-4.11.25-2.06-.27-4.12-.27-2.06.53-4.11.53-2.06-.87-4.12-.87-2.06,0-4.12,0-2.06.3-4.12.3-2.06.38-4.12.38-2.06-.37-4.12-.37-2.06.55-4.12.55-2.06-.31-4.12-.31h-4.12c-2.06,0-2.06.28-4.12.28s-2.06-.42-4.13-.42-2.06.43-4.13.43c-1.48,0-2.73-1-4-1.5s-2.81-.78-3.81-1.86a11.29,11.29,0,0,1-2.27-4.33,17.08,17.08,0,0,1-.33-4.8c0-2.15-.11-2.15-.11-4.3s-.22-2.15-.22-4.3.67-2.15.67-4.3-.2-2.15-.2-4.31-.51-2.15-.51-4.31-1.17-2.71.4-4.19,2.16-.09,4.44-.09,2.27-.36,4.55-.36,2.63-1,4.28.61.42,1.9.42,4.07-.53,2.17-.53,4.35.37,2.17.37,4.34,0,2.18,0,4.35-.35,2.18-.35,4.35-1.37,3,.13,4.61,2.35-.07,4.43-.07,2.08-.16,4.17-.16,2.08.2,4.16.2,2.09-.35,4.17-.35,2.08.42,4.17.42,2.08-.26,4.16-.26,2.08.1,4.17.1,2.08-.45,4.16-.45,2.09,0,4.17,0,2.08.76,4.17.76,2.08-.53,4.16-.53,2.09.43,4.17.43,2.09-.72,4.17-.72,2.09.66,4.17.66,2.09-.35,4.17-.35,2.09.52,4.17.52,2.09-.13,4.17-.13a11.89,11.89,0,0,0,4.16-.39C1281.89,151.52,1282.53,150.44,1284.05,151.87Z"/><path class="cls-7" d="M1336.23,75c-1.44-1.32-.52-1.84-.52-3.8s-.06-2-.06-3.93-.79-2.41.63-3.77,1.91.14,4,.14,2.07-.71,4.14-.71,2.06.25,4.13.25,2.07.57,4.14.57,2.07-.65,4.14-.65,2.07.29,4.14.29,2.07.07,4.14.07,2.07.07,4.14.07,2.07.27,4.14.27,2.08-.61,4.15-.61,2.07-.28,4.14-.28,2.07.89,4.14.89,2.07-.82,4.14-.82,2.08.56,4.15.56,2.77-1.76,4.28-.34-.09,2.1-.09,4.06.3,2,.3,3.93,1.35,2.87-.13,4.17c-1.7,1.48-2.46.21-4.71.21s-2.25-.61-4.5-.61-2.25.5-4.5.5-2.25-.37-4.51-.37-2.36-.7-4.4.26c-1,.45-.13.83-.13,1.89,0,1.57.39,3,.51,4.4a35.62,35.62,0,0,0,.61,4.35,23.79,23.79,0,0,0,1.1,4.24,21.63,21.63,0,0,0,2.44,4.25,17.65,17.65,0,0,0,3.15,3.79,24.64,24.64,0,0,0,4.44,2.25,27.19,27.19,0,0,0,4.59,1.78c1.21.36,2.35,1.1,3.65,1.43s2.48.66,3.78,1,2.86.41,4.17.66c.58,1.74-.09,2-.09,3.78s.15,1.84.15,3.68,0,1.84,0,3.68.34,2-.37,3.69a41.09,41.09,0,0,1-4.85-.86c-1.53-.25-3.09-.6-4.76-1-1.18-.31-2.49-.14-3.63-.53s-2.17-1.12-3.29-1.59-2.43-.53-3.52-1.07-1.78-1.74-2.8-2.36-2.36-.76-3.33-1.46-1.7-1.71-2.61-2.49a23.69,23.69,0,0,1-3.55-3.43,20,20,0,0,1-2.27-4.5,15.82,15.82,0,0,1-1.78,4.66c-.89,1.24-2.62,1.83-3.93,2.92-.94.79-1.86,1.54-2.88,2.25s-1.86,1.58-3,2.2-2,1.51-3.11,2-2.48.7-3.66,1.17-2.22,1.41-3.43,1.8-2.55.45-3.78.76c-1.71.42-3.32.78-4.82,1.05a50.81,50.81,0,0,1-5.28.63c-.71-1.69.38-2,.36-3.84s-.45-1.83-.47-3.67.72-1.84.7-3.68-1.29-2-.72-3.8c1.29-.2,2.89-.53,4.11-.76s2.59-.19,3.8-.47,2.47-.72,3.66-1.07a24.87,24.87,0,0,0,4.54-2c1.51-.78,3.28-1.15,4.55-2.21a20.26,20.26,0,0,0,3.31-3.91c.94-1.33,1.29-3,2-4.67a22.06,22.06,0,0,0,1.72-4.11,35.77,35.77,0,0,0,.51-4.43c.12-1.4-.18-2.89-.18-4.46,0-1.06,1.46-2,.51-2.46-1.92-.95-2.31.5-4.45.5s-2.14-.53-4.28-.53-2.14.37-4.28.37-2.14,0-4.28,0-2.26-.74-4.36-.33S1337.82,76.41,1336.23,75ZM1428.32,152c1.44,1.4.53,1.89.53,3.9s.06,2,.06,4,.79,2.44-.64,3.85-1.87-.14-3.9-.14-2,.71-4.07.71-2-.25-4.07-.25-2-.57-4.08-.57-2,.65-4.07.65-2-.29-4.06-.29-2-.07-4.07-.07-2-.07-4.07-.07-2-.27-4.07-.27-2,.61-4.07.61-2,.29-4.08.29-2-.9-4.07-.9-2,.82-4.07.82-2-.56-4.08-.56-2,.39-4.07.39-2-.15-4.07-.15-2,.3-4.08.3l-4.08,0c-2,0-2,.13-4.08.13-1.53,0-2.86-.86-4.11-1.38a9.85,9.85,0,0,1-3.77-2.08,11.29,11.29,0,0,1-2-4.42,16.36,16.36,0,0,1-.92-4.75c0-2,.28-2,.28-4s-.34-2-.34-3.95v-4c0-2,.15-2,.15-3.95s-.09-2-.09-3.95-1.21-2.63.28-3.92c1.72-1.5,2.25-.49,4.52-.49h4.55c2.27,0,2.86-1.06,4.57.43,1.5,1.31,0,2,0,4s.37,2,.37,4-.11,2-.11,4,.15,2,.15,4,0,2,0,4-1.81,2.58-.38,4,2,.39,4.1.39h4.13c2.06,0,2.06-.54,4.12-.54s2.07.33,4.13.33,2.06-.49,4.12-.49,2.06.71,4.13.71,2.06-.63,4.12-.63,2.07.33,4.13.33,2.06-.25,4.12-.25,2.07.27,4.13.27,2.07-.54,4.13-.54,2.07.88,4.13.88,2.07,0,4.13,0,2.06-.3,4.13-.3,2.06-.38,4.13-.38,2.06.37,4.13.37a13.86,13.86,0,0,0,4-.54C1426.32,151.05,1426.84,150.58,1428.32,152Zm12.73-69.13c1.54,1.28.51,1.88.51,3.89s.06,2,.06,4,.93,2.56-.62,3.84c-1.86,1.55-2.27-.12-4.7-.12s-2.43.7-4.86.7-2.89-1.83-4.75-.28c-1.56,1.29-.53,1.89-.53,3.91s.66,2,.66,4-.29,2-.29,4-.07,2-.07,4-.08,2-.08,4-.26,2-.26,4,.61,2,.61,4,.28,2,.28,4,.78,2.35-.73,3.69c-1.7,1.51-2,.7-4.24.7s-2.28-.56-4.55-.56-3,1.86-4.67.34c-1.51-1.35.08-2.16.08-4.19s-.3-2-.3-4.06,0-2,0-4-.14-2-.14-4.06.61-2,.61-4-.5-2-.5-4.06.37-2,.37-4.06-.28-2-.28-4,.28-2,.28-4.06-.34-2-.34-4.06V86.48c0-2,.15-2,.15-4.06s-.09-2-.09-4.06.3-2,.3-4.06-.5-2-.5-4.06,0-2,0-4.07-1.08-2.74.44-4.09c1.69-1.52,2.29,0,4.57,0s2.27-.37,4.55-.37,3-1.36,4.71.17c1.53,1.39.23,2.25.23,4.31s0,2.07,0,4.13-.37,2.07-.37,4.13-.4,2.07-.4,4.14-1.45,3.08.12,4.42c1.85,1.58,2.67-.45,5.1-.45s2.5.77,4.89.33S1439.17,81.35,1441.05,82.89Z"/><path class="cls-6" d="M1533.25,114a60.58,60.58,0,0,1-6.5-.17c-1.56-.14-3.11-1-4.84-1.39a48.48,48.48,0,0,1-4.75-1.45c-1.22-.41-2.69-.27-3.9-.83s-2-1.77-3.17-2.45-2.49-.91-3.59-1.69a22.24,22.24,0,0,1-3.23-3,25.09,25.09,0,0,1-2.9-3.32,25.87,25.87,0,0,1-2-3.65,23.12,23.12,0,0,1-2.45,3.66,22.73,22.73,0,0,1-3,3.43,33.57,33.57,0,0,1-3,3.2,31.67,31.67,0,0,1-3.61,2.43,37.63,37.63,0,0,1-3.92,1.44c-1.28.57-2.36,1.6-3.67,2s-2.57.32-3.73.62-2.43.87-3.6,1.07a55.75,55.75,0,0,1-6,1.06,38.07,38.07,0,0,1-3.86-.13,17.7,17.7,0,0,1-.31-4.3c0-2.14,0-2.14,0-4.29s-.77-2.46,0-4.44a53.65,53.65,0,0,0,5.58-.26,43.81,43.81,0,0,0,5.2-.52,27.06,27.06,0,0,0,4.46-1.76,24.38,24.38,0,0,0,4.33-2.08,21.58,21.58,0,0,0,3.36-3.26,23.77,23.77,0,0,0,2.61-3.84,21,21,0,0,0,1.62-3.09,24.32,24.32,0,0,0,1.4-3.24,29.74,29.74,0,0,0,.41-3.41c-2.16-.6-2.21-.3-4.45-.3s-2.24.12-4.48.12-2.24.2-4.48.2-2.24-.44-4.47-.44-2.25.07-4.49.07-2.63,1.53-4.32,0c-1.47-1.29-.26-1.76-.26-3.73s-.32-2-.32-3.93-1.06-2.63.42-3.92c1.68-1.48,2.23-.18,4.47-.18s2.24.34,4.48.34,2.24-.58,4.48-.58,2.24-.06,4.48-.06,2.24.7,4.48.7,3.13,1.58,4.7,0-.61-2.49-.61-4.78-1.37-3.11.29-4.68,2.51.53,4.92.53,2.41-.65,4.81-.65,3-1.38,4.78.27-.09,2.25-.09,4.53-1.6,3.06,0,4.71,2.34.32,4.54.32,2.19-.61,4.39-.61,2.19-.28,4.39-.28,2.19.89,4.39.89,2.2-.81,4.39-.81,2.63-1,4.27.5c1.46,1.31.32,1.81.32,3.78s-.15,2-.15,3.93,1.64,2.84.19,4.18-2.36.06-4.49.06-2.12.14-4.25.14-2.13-.62-4.26-.62-2.13.51-4.26.51-2.13-.37-4.26-.37-2.18-.46-4.18.27a19.09,19.09,0,0,0,.68,4,19,19,0,0,0,2,3.82,18.68,18.68,0,0,0,2.49,3.44,21.76,21.76,0,0,0,3.06,3,26.34,26.34,0,0,0,3.47,2.12,28.79,28.79,0,0,0,3.59,2,38.11,38.11,0,0,0,4,.73,39.73,39.73,0,0,0,4,.76c1.31.18,2.64.75,4,.83.66,2,0,2.13,0,4.25a21.07,21.07,0,0,0,.37,4.19C1533.58,111.78,1533.8,111.93,1533.25,114Zm26.66-51.84c1.51,1.36.09,2.28.09,4.31s-.59,2-.59,4.08-.08,2-.08,4.08.67,2,.67,4.07-.69,2-.69,4.08.52,2,.52,4.07-.16,2-.16,4.08.2,2,.2,4.07.11,2,.11,4.08-.53,2-.53,4.08-.19,2-.19,4.07.44,2,.44,4.08,0,2,0,4.08-.5,2-.5,4.08.58,2,.58,4.08-.44,2-.44,4.08.28,2,.28,4.08.32,2,.32,4.08,1.34,2.83-.18,4.2c-1.69,1.51-2.37.34-4.64.34h-4.55c-2.28,0-3.14,1.39-4.83-.13-1.52-1.36.15-2.35.15-4.39s.38-2,.38-4.07-.24-2-.24-4.08.3-2,.3-4.08-.25-2-.25-4.07-.24-2-.24-4.07.07-2,.07-4.08.34-2,.34-4.07-.34-2-.34-4.08.31-2,.31-4.08-.12-2-.12-4.07-.2-2-.2-4.08.44-2,.44-4.08-.08-2-.08-4.08,0-2,0-4.08-.36-2-.36-4.08-.31-2-.31-4.08.42-2,.42-4.09-1.64-2.84-.13-4.21c1.69-1.52,2.39.29,4.66.29a13.18,13.18,0,0,0,4.46-.56C1557.52,61.4,1558.21,60.61,1559.91,62.13Z"/></g></g></svg>