<svg xmlns="http://www.w3.org/2000/svg" xmlns:xlink="http://www.w3.org/1999/xlink" viewBox="0 0 359.66 359.17"><defs><style>.cls-1{fill:url(#linear-gradient);}.cls-2{fill:url(#linear-gradient-2);}.cls-3{fill:url(#linear-gradient-3);}.cls-4{fill:url(#linear-gradient-4);}.cls-5{fill:url(#linear-gradient-5);}.cls-6{fill:url(#linear-gradient-6);}.cls-7{fill:url(#linear-gradient-7);}.cls-8{fill:url(#linear-gradient-8);}.cls-9{fill:url(#linear-gradient-9);}.cls-10{fill:url(#linear-gradient-10);}.cls-11{fill:url(#linear-gradient-11);}.cls-12{fill:url(#linear-gradient-12);}.cls-13{fill:url(#linear-gradient-13);}.cls-14{fill:url(#linear-gradient-14);}.cls-15{fill:url(#linear-gradient-15);}.cls-16{fill:url(#linear-gradient-16);}.cls-17{fill:url(#linear-gradient-17);}.cls-18{fill:url(#linear-gradient-18);}.cls-19{fill:url(#linear-gradient-19);}.cls-20{fill:url(#linear-gradient-20);}.cls-21{fill:url(#linear-gradient-21);}.cls-22{fill:url(#linear-gradient-22);}.cls-23{fill:url(#linear-gradient-23);}.cls-24{fill:url(#linear-gradient-24);}.cls-25{fill:url(#linear-gradient-25);}.cls-26{fill:url(#linear-gradient-26);}.cls-27{fill:url(#linear-gradient-27);}.cls-28{fill:url(#linear-gradient-28);}.cls-29{fill:url(#linear-gradient-29);}.cls-30{fill:url(#linear-gradient-30);}.cls-31{fill:#6b4a00;}</style><linearGradient id="linear-gradient" y1="179.34" x2="358.68" y2="179.34" gradientUnits="userSpaceOnUse"><stop offset="0" stop-color="#724c00"/><stop offset="0.26" stop-color="#d3a84c"/><stop offset="0.45" stop-color="#fffae3"/><stop offset="0.51" stop-color="#f7e6bb"/><stop offset="0.63" stop-color="#e6be69"/><stop offset="0.82" stop-color="#b77711"/><stop offset="1" stop-color="#845a0f"/><stop offset="1" stop-color="#956d13"/></linearGradient><linearGradient id="linear-gradient-2" x1="53.31" y1="305.36" x2="301.07" y2="57.61" gradientUnits="userSpaceOnUse"><stop offset="0" stop-color="#b58f3e"/><stop offset="0" stop-color="#956d13"/><stop offset="0.23" stop-color="#fff1d4"/><stop offset="0.41" stop-color="#e6be69"/><stop offset="0.59" stop-color="#ffec94"/><stop offset="0.77" stop-color="#d3a84c"/><stop offset="1" stop-color="#a47a1e"/></linearGradient><linearGradient id="linear-gradient-3" x1="70.18" y1="306.08" x2="78.19" y2="298.06" gradientUnits="userSpaceOnUse"><stop offset="0" stop-color="#492001"/><stop offset="1" stop-color="#281201"/></linearGradient><linearGradient id="linear-gradient-4" x1="166.02" y1="341.16" x2="166.96" y2="340.21" xlink:href="#linear-gradient-3"/><linearGradient id="linear-gradient-5" x1="216.65" y1="337.57" x2="217.69" y2="336.53" xlink:href="#linear-gradient-3"/><linearGradient id="linear-gradient-6" x1="115.36" y1="330.41" x2="118.95" y2="326.82" xlink:href="#linear-gradient-3"/><linearGradient id="linear-gradient-7" x1="34.41" y1="270.35" x2="48.3" y2="256.45" xlink:href="#linear-gradient-3"/><linearGradient id="linear-gradient-8" x1="153.05" y1="31.75" x2="179.18" y2="5.61" xlink:href="#linear-gradient-3"/><linearGradient id="linear-gradient-9" x1="299.12" y1="77.46" x2="305.7" y2="70.88" xlink:href="#linear-gradient-3"/><linearGradient id="linear-gradient-10" x1="328.18" y1="118.44" x2="330.39" y2="116.23" xlink:href="#linear-gradient-3"/><linearGradient id="linear-gradient-11" x1="207.08" y1="32" x2="226.3" y2="12.79" xlink:href="#linear-gradient-3"/><linearGradient id="linear-gradient-12" x1="257.32" y1="47.62" x2="269.69" y2="35.26" xlink:href="#linear-gradient-3"/><linearGradient id="linear-gradient-13" x1="-10.28" y1="205.46" x2="154.74" y2="40.44" xlink:href="#linear-gradient-3"/><linearGradient id="linear-gradient-14" x1="128.14" y1="356.24" x2="147.39" y2="336.99" xlink:href="#linear-gradient-3"/><linearGradient id="linear-gradient-15" x1="84.92" y1="333.7" x2="97.35" y2="321.28" xlink:href="#linear-gradient-3"/><linearGradient id="linear-gradient-16" x1="49.19" y1="298.04" x2="55.8" y2="291.43" xlink:href="#linear-gradient-3"/><linearGradient id="linear-gradient-17" x1="175.11" y1="363.53" x2="201.29" y2="337.35" xlink:href="#linear-gradient-3"/><linearGradient id="linear-gradient-18" x1="197.64" y1="331.39" x2="377.09" y2="151.93" xlink:href="#linear-gradient-3"/><linearGradient id="linear-gradient-19" x1="197.92" y1="9.13" x2="198.88" y2="8.16" xlink:href="#linear-gradient-3"/><linearGradient id="linear-gradient-20" x1="24.34" y1="252.57" x2="26.67" y2="250.24" xlink:href="#linear-gradient-3"/><linearGradient id="linear-gradient-21" x1="245.82" y1="22.51" x2="249.42" y2="18.92" xlink:href="#linear-gradient-3"/><linearGradient id="linear-gradient-22" x1="286.46" y1="51.27" x2="294.47" y2="43.26" xlink:href="#linear-gradient-3"/><linearGradient id="linear-gradient-23" x1="146.53" y1="13.07" x2="147.66" y2="11.94" xlink:href="#linear-gradient-3"/><linearGradient id="linear-gradient-24" x1="316.19" y1="92.92" x2="330.07" y2="79.04" xlink:href="#linear-gradient-3"/><linearGradient id="linear-gradient-25" x1="222.55" y1="314.95" x2="139.25" y2="52.95" xlink:href="#linear-gradient-3"/><linearGradient id="linear-gradient-26" x1="268.67" y1="268.94" x2="90.54" y2="90.81" xlink:href="#linear-gradient-3"/><linearGradient id="linear-gradient-27" x1="108.97" y1="308.71" x2="250.65" y2="50.27" xlink:href="#linear-gradient-3"/><linearGradient id="linear-gradient-28" x1="222.28" y1="314.41" x2="138.98" y2="52.41" gradientUnits="userSpaceOnUse"><stop offset="0" stop-color="#a47a1e"/><stop offset="0.23" stop-color="#d3a84c"/><stop offset="0.41" stop-color="#ffec94"/><stop offset="0.59" stop-color="#e6be69"/><stop offset="0.77" stop-color="#ffd87c"/><stop offset="1" stop-color="#956d13"/><stop offset="1" stop-color="#b58f3e"/></linearGradient><linearGradient id="linear-gradient-29" x1="268.4" y1="268.4" x2="90.27" y2="90.27" xlink:href="#linear-gradient-28"/><linearGradient id="linear-gradient-30" x1="108.7" y1="308.18" x2="250.38" y2="49.74" gradientUnits="userSpaceOnUse"><stop offset="0" stop-color="#b58f3e"/><stop offset="0" stop-color="#956d13"/><stop offset="0.23" stop-color="#ffd87c"/><stop offset="0.41" stop-color="#e6be69"/><stop offset="0.59" stop-color="#ffec94"/><stop offset="0.77" stop-color="#d3a84c"/><stop offset="1" stop-color="#a47a1e"/></linearGradient></defs><g id="레이어_2" data-name="레이어 2"><g id="Layer_1" data-name="Layer 1"><path class="cls-1" d="M346.28,201.46c16.53-9.51,16.53-34.73,0-44.25a5.5,5.5,0,0,1-1.33-8.42c12.77-14.15,5-38.14-13.67-42.08a5.51,5.51,0,0,1-3.88-7.6c7.78-17.41-7-37.81-26-35.8a5.5,5.5,0,0,1-6-6c2-19-18.39-33.78-35.8-26A5.5,5.5,0,0,1,252,27.4C248,8.75,224,1,209.89,13.73a5.51,5.51,0,0,1-8.43-1.34c-9.51-16.52-34.73-16.52-44.25,0a5.5,5.5,0,0,1-8.42,1.34C134.64,1,110.65,8.75,106.71,27.4a5.5,5.5,0,0,1-7.6,3.87c-17.41-7.77-37.81,7.05-35.8,26a5.5,5.5,0,0,1-6,6c-19-2-33.78,18.39-26,35.8a5.5,5.5,0,0,1-3.87,7.6C8.75,110.65,1,134.64,13.73,148.79a5.5,5.5,0,0,1-1.34,8.42c-16.52,9.52-16.52,34.74,0,44.25a5.51,5.51,0,0,1,1.34,8.43C1,224,8.75,248,27.4,252a5.5,5.5,0,0,1,3.87,7.6c-7.77,17.4,7.05,37.81,26,35.8a5.5,5.5,0,0,1,6,6c-2,19,18.39,33.78,35.8,26a5.51,5.51,0,0,1,7.6,3.88c3.94,18.65,27.93,26.44,42.08,13.67a5.49,5.49,0,0,1,8.42,1.33c9.52,16.53,34.74,16.53,44.25,0a5.5,5.5,0,0,1,8.43-1.33c14.15,12.77,38.14,5,42.08-13.67a5.51,5.51,0,0,1,7.6-3.88c17.41,7.78,37.81-7,35.8-26a5.49,5.49,0,0,1,6-6c19,2,33.78-18.4,26-35.8a5.51,5.51,0,0,1,3.88-7.6C349.93,248,357.72,224,345,209.89A5.51,5.51,0,0,1,346.28,201.46Z"/><path class="cls-2" d="M179.34,10.68a14.52,14.52,0,0,1,12.87,7A16.17,16.17,0,0,0,217,21.65a13.83,13.83,0,0,1,9.38-3.52c6.3,0,13.51,3.94,15.1,11.48a16.26,16.26,0,0,0,15.83,12.82A16,16,0,0,0,263.92,41a13.56,13.56,0,0,1,5.52-1.18,16,16,0,0,1,11.61,5.37,14.17,14.17,0,0,1,3.7,10.94,16.16,16.16,0,0,0,17.77,17.78,14.64,14.64,0,0,1,1.47-.08,14.86,14.86,0,0,1,12.3,7.08c1.34,2.07,4.16,7.56,1.36,13.82a16.19,16.19,0,0,0,11.42,22.41A15.28,15.28,0,0,1,337,141.64,16.18,16.18,0,0,0,341,166.47a15.28,15.28,0,0,1,0,25.74A16.18,16.18,0,0,0,337,217a15.28,15.28,0,0,1-7.95,24.48,16.18,16.18,0,0,0-11.42,22.4c2.8,6.26,0,11.75-1.36,13.82a14.82,14.82,0,0,1-12.3,7.08,14.6,14.6,0,0,1-1.47-.07,16.16,16.16,0,0,0-17.77,17.77,14.19,14.19,0,0,1-3.7,11,16,16,0,0,1-11.61,5.37,13.41,13.41,0,0,1-5.52-1.19,16,16,0,0,0-6.57-1.4,16.25,16.25,0,0,0-15.83,12.82c-1.59,7.53-8.8,11.48-15.1,11.48A13.8,13.8,0,0,1,217,337,16.18,16.18,0,0,0,192.21,341a15.28,15.28,0,0,1-25.74,0A16.19,16.19,0,0,0,141.63,337a13.77,13.77,0,0,1-9.38,3.53c-6.29,0-13.5-3.94-15.09-11.48a16.25,16.25,0,0,0-15.84-12.82,16.06,16.06,0,0,0-6.57,1.4,13.33,13.33,0,0,1-5.51,1.19,16,16,0,0,1-11.61-5.37,14.15,14.15,0,0,1-3.7-11,16.09,16.09,0,0,0-17.78-17.77,14.46,14.46,0,0,1-1.47.07,14.82,14.82,0,0,1-12.29-7.08c-1.34-2.07-4.16-7.56-1.37-13.82a16.17,16.17,0,0,0-11.41-22.4,15.28,15.28,0,0,1-8-24.48,16.17,16.17,0,0,0-3.93-24.83,15.28,15.28,0,0,1,0-25.74,16.17,16.17,0,0,0,3.93-24.83,15.28,15.28,0,0,1,8-24.48A16.18,16.18,0,0,0,41,94.75c-2.79-6.26,0-11.75,1.37-13.82a14.83,14.83,0,0,1,12.29-7.08,14.48,14.48,0,0,1,1.47.08A16.19,16.19,0,0,0,73.93,56.15a14.13,14.13,0,0,1,3.7-10.94,15.92,15.92,0,0,1,11.61-5.37A13.48,13.48,0,0,1,94.75,41a16.07,16.07,0,0,0,6.57,1.41,16.26,16.26,0,0,0,15.84-12.82c1.59-7.54,8.8-11.48,15.09-11.48a13.8,13.8,0,0,1,9.38,3.52,16.18,16.18,0,0,0,24.84-3.93,14.52,14.52,0,0,1,12.87-7Zm0-10.68a25.2,25.2,0,0,0-22.13,12.39,5.5,5.5,0,0,1-8.42,1.34,24.43,24.43,0,0,0-16.54-6.28c-11.52,0-22.93,7.59-25.54,20a5.52,5.52,0,0,1-5.39,4.35,5.44,5.44,0,0,1-2.21-.48,24.07,24.07,0,0,0-9.87-2.11c-14.36,0-27.57,12.69-25.93,28.12a5.5,5.5,0,0,1-5.45,6.06l-.58,0a25.31,25.31,0,0,0-2.6-.14C37,63.17,23.85,82.5,31.27,99.11a5.5,5.5,0,0,1-3.87,7.6C8.75,110.65,1,134.64,13.73,148.79a5.5,5.5,0,0,1-1.34,8.42c-16.52,9.52-16.52,34.74,0,44.25a5.51,5.51,0,0,1,1.34,8.43C1,224,8.75,248,27.4,252a5.5,5.5,0,0,1,3.87,7.6C23.86,276.17,37,295.5,54.68,295.5a25.43,25.43,0,0,0,2.6-.13,3.86,3.86,0,0,1,.58,0,5.51,5.51,0,0,1,5.45,6.07c-1.64,15.42,11.57,28.12,25.93,28.12a24.08,24.08,0,0,0,9.87-2.12,5.42,5.42,0,0,1,2.21-.47,5.51,5.51,0,0,1,5.39,4.35c2.61,12.36,14,20,25.54,20A24.44,24.44,0,0,0,148.79,345a5.5,5.5,0,0,1,8.42,1.33,25.94,25.94,0,0,0,44.25,0,5.51,5.51,0,0,1,8.43-1.33,24.42,24.42,0,0,0,16.53,6.28c11.52,0,22.94-7.59,25.55-20a5.5,5.5,0,0,1,7.6-3.88,24,24,0,0,0,9.87,2.12c14.36,0,27.57-12.7,25.93-28.12a5.5,5.5,0,0,1,5.44-6.07,3.9,3.9,0,0,1,.59,0,25.24,25.24,0,0,0,2.59.13c17.69,0,30.83-19.33,23.41-35.93a5.51,5.51,0,0,1,3.88-7.6C349.93,248,357.72,224,345,209.89a5.51,5.51,0,0,1,1.33-8.43c16.53-9.51,16.53-34.73,0-44.25a5.5,5.5,0,0,1-1.33-8.42c12.77-14.15,5-38.14-13.67-42.08a5.51,5.51,0,0,1-3.88-7.6c7.42-16.6-5.73-35.94-23.41-35.94a25.27,25.27,0,0,0-2.59.14,5.83,5.83,0,0,1-.59,0,5.5,5.5,0,0,1-5.44-6.06C297,41.85,283.8,29.16,269.44,29.16a24,24,0,0,0-9.87,2.11A5.47,5.47,0,0,1,252,27.4c-2.61-12.36-14-19.95-25.55-19.95a24.4,24.4,0,0,0-16.53,6.28,5.51,5.51,0,0,1-8.43-1.34A25.18,25.18,0,0,0,179.34,0Z"/><path class="cls-3" d="M83.18,317.5A16.77,16.77,0,0,1,78.61,314,14.18,14.18,0,0,1,74.91,303a16.15,16.15,0,0,0-9.59-16.51,16.1,16.1,0,0,1,8.61,16,14.15,14.15,0,0,0,3.7,11A16.6,16.6,0,0,0,83.18,317.5Z"/><path class="cls-4" d="M172.74,346.6a13.7,13.7,0,0,1-5.29-5.15,16.11,16.11,0,0,0-7.28-6.61,16,16,0,0,1,6.3,6.12A13.73,13.73,0,0,0,172.74,346.6Z"/><path class="cls-5" d="M220.45,339.26a13.45,13.45,0,0,1-2.43-1.75,16.16,16.16,0,0,0-4.12-2.69A16.14,16.14,0,0,1,217,337,13.34,13.34,0,0,0,220.45,339.26Z"/><path class="cls-6" d="M125.43,339a14,14,0,0,1-7.29-9.47,16.23,16.23,0,0,0-9.23-11.39,16.19,16.19,0,0,1,8.25,10.9A14.14,14.14,0,0,0,125.43,339Z"/><path class="cls-7" d="M49.07,283.59a15.92,15.92,0,0,1-5.7-5.36c-1.34-2.07-4.16-7.56-1.36-13.82a16.17,16.17,0,0,0-8.21-21.35A16.13,16.13,0,0,1,41,263.92c-2.79,6.26,0,11.75,1.37,13.82A15.86,15.86,0,0,0,49.07,283.59Z"/><path class="cls-8" d="M153.43,26.3a16.2,16.2,0,0,0,14-8.09,14.52,14.52,0,0,1,12.87-7,16,16,0,0,1,6.6,1.39,15.68,15.68,0,0,0-7.58-1.88,14.52,14.52,0,0,0-12.87,7,16.21,16.21,0,0,1-14,8.09,16.08,16.08,0,0,1-6.69-1.47A16,16,0,0,0,153.43,26.3Z"/><path class="cls-9" d="M301.8,74.51a16.32,16.32,0,0,0,1.71-.09,14.48,14.48,0,0,1,1.47-.08,13.61,13.61,0,0,1,5.61,1.24,13.69,13.69,0,0,0-6.6-1.73,14.64,14.64,0,0,0-1.47.08,16,16,0,0,1-8.18-1.28A16,16,0,0,0,301.8,74.51Z"/><path class="cls-10" d="M325.86,116.11a16.44,16.44,0,0,0,4.19,1.54,12.82,12.82,0,0,1,2.69.87,13.06,13.06,0,0,0-3.67-1.36A16.52,16.52,0,0,1,325.86,116.11Z"/><path class="cls-11" d="M207.21,26.3A16.08,16.08,0,0,0,218,22.14a13.84,13.84,0,0,1,9.39-3.52,16.62,16.62,0,0,1,6.82,1.51,16.71,16.71,0,0,0-7.81-2A13.83,13.83,0,0,0,217,21.65a16.11,16.11,0,0,1-10.81,4.16,16.25,16.25,0,0,1-6.74-1.48A16.25,16.25,0,0,0,207.21,26.3Z"/><path class="cls-12" d="M258.34,42.92a16.07,16.07,0,0,0,6.57-1.41,13.51,13.51,0,0,1,5.51-1.18,15,15,0,0,1,6.06,1.34,15.16,15.16,0,0,0-7-1.83A13.56,13.56,0,0,0,263.92,41a16,16,0,0,1-13.17,0A16.07,16.07,0,0,0,258.34,42.92Z"/><path class="cls-13" d="M26.92,240.65a15.07,15.07,0,0,1-7-8.7,14.52,14.52,0,0,1,2.72-14.42A16.18,16.18,0,0,0,18.7,192.7a15.28,15.28,0,0,1,0-25.74,16.18,16.18,0,0,0,3.94-24.83,15.28,15.28,0,0,1,8-24.48A16.19,16.19,0,0,0,42,95.24c-2.8-6.26,0-11.75,1.36-13.82a14.84,14.84,0,0,1,12.3-7.08,14.28,14.28,0,0,1,1.46.08,16.51,16.51,0,0,0,1.72.09A16.18,16.18,0,0,0,74.91,56.64a14.17,14.17,0,0,1,3.7-10.94,16,16,0,0,1,11.61-5.37,13.56,13.56,0,0,1,5.52,1.18,16,16,0,0,0,6.57,1.41A16.25,16.25,0,0,0,118.14,30.1c1.59-7.54,8.8-11.48,15.1-11.48a14.45,14.45,0,0,1,6,1.28,14.2,14.2,0,0,0-7-1.77c-6.29,0-13.5,3.94-15.09,11.48a16.26,16.26,0,0,1-15.84,12.82A16.07,16.07,0,0,1,94.75,41a13.48,13.48,0,0,0-5.51-1.18,15.92,15.92,0,0,0-11.61,5.37,14.13,14.13,0,0,0-3.7,10.94A16.17,16.17,0,0,1,56.15,73.93a14.48,14.48,0,0,0-1.47-.08,14.83,14.83,0,0,0-12.29,7.08C41.05,83,38.23,88.49,41,94.75a16.18,16.18,0,0,1-11.41,22.41,15.28,15.28,0,0,0-8,24.48,16.17,16.17,0,0,1-3.93,24.83,15.28,15.28,0,0,0,0,25.74A16.17,16.17,0,0,1,21.65,217a14.57,14.57,0,0,0-2.72,14.42A14.91,14.91,0,0,0,26.92,240.65Z"/><path class="cls-14" d="M152.45,343.55a5.42,5.42,0,0,0-3.66,1.4,24.44,24.44,0,0,1-16.54,6.28,27.22,27.22,0,0,1-11.76-2.73,27.11,27.11,0,0,0,12.75,3.22,24.42,24.42,0,0,0,16.53-6.28,5.48,5.48,0,0,1,5.61-1A5.46,5.46,0,0,0,152.45,343.55Z"/><path class="cls-15" d="M101.32,326.93a5.42,5.42,0,0,0-2.21.47,24.08,24.08,0,0,1-9.87,2.12,25.61,25.61,0,0,1-11-2.53,25.81,25.81,0,0,0,12,3,24.19,24.19,0,0,0,9.87-2.11,5.31,5.31,0,0,1,4.13-.12A5.46,5.46,0,0,0,101.32,326.93Z"/><path class="cls-16" d="M57.86,295.33a3.86,3.86,0,0,0-.58,0,25.43,25.43,0,0,1-2.6.13,24.21,24.21,0,0,1-10.33-2.33A24.21,24.21,0,0,0,55.67,296a25.24,25.24,0,0,0,2.59-.13,5.83,5.83,0,0,1,.59,0,5.53,5.53,0,0,1,1.91.35A5.42,5.42,0,0,0,57.86,295.33Z"/><path class="cls-17" d="M206.23,343.55a5.49,5.49,0,0,0-4.77,2.73,25.17,25.17,0,0,1-22.12,12.4,26.65,26.65,0,0,1-11.6-2.64,26.59,26.59,0,0,0,12.58,3.13,25.19,25.19,0,0,0,22.13-12.4,5.52,5.52,0,0,1,6.67-2.39A5.41,5.41,0,0,0,206.23,343.55Z"/><path class="cls-18" d="M347.27,202c16.52-9.51,16.52-34.73,0-44.25a5.5,5.5,0,0,1-1.34-8.42c11.42-12.65,6.4-33.15-8.12-40.17,13.76,7.45,18.3,27.32,7.14,39.68a5.5,5.5,0,0,0,1.33,8.42c16.53,9.52,16.53,34.74,0,44.25a5.51,5.51,0,0,0-1.33,8.43c12.77,14.15,5,38.14-13.67,42.08a5.51,5.51,0,0,0-3.88,7.6c7.42,16.6-5.72,35.93-23.41,35.93a25.24,25.24,0,0,1-2.59-.13,3.9,3.9,0,0,0-.59,0,5.5,5.5,0,0,0-5.44,6.07c1.64,15.42-11.57,28.12-25.93,28.12a24,24,0,0,1-9.87-2.12,5.5,5.5,0,0,0-7.6,3.88c-2.61,12.36-14,20-25.55,20A25,25,0,0,1,216,349a24.86,24.86,0,0,0,11.41,2.75c11.52,0,22.93-7.59,25.54-20a5.52,5.52,0,0,1,5.39-4.35,5.28,5.28,0,0,1,2.21.48,24.23,24.23,0,0,0,9.87,2.11c14.36,0,27.57-12.69,25.93-28.12a5.5,5.5,0,0,1,5.45-6.06l.58,0a25.29,25.29,0,0,0,2.6.13c17.68,0,30.82-19.33,23.41-35.93a5.5,5.5,0,0,1,3.87-7.6c18.65-3.94,26.45-27.93,13.67-42.08A5.51,5.51,0,0,1,347.27,202Z"/><path class="cls-19" d="M201.46,12.39a5.44,5.44,0,0,0,2.82,2.38,5.35,5.35,0,0,1-1.83-1.89,24.18,24.18,0,0,0-10.53-9.75A24.14,24.14,0,0,1,201.46,12.39Z"/><path class="cls-20" d="M27.4,252a24.4,24.4,0,0,1-5.55-1.91,24.13,24.13,0,0,0,6.53,2.4,5.22,5.22,0,0,1,.82.25A5.43,5.43,0,0,0,27.4,252Z"/><path class="cls-21" d="M252,27.4a5.46,5.46,0,0,0,3.47,4,5.44,5.44,0,0,1-2.49-3.5,24.8,24.8,0,0,0-13.78-17.22A24.74,24.74,0,0,1,252,27.4Z"/><path class="cls-22" d="M295.37,57.28A5.49,5.49,0,0,0,298.9,63a5.47,5.47,0,0,1-2.55-5.21c1.2-11.31-5.58-21.15-15-25.59C290.25,36.83,296.53,46.37,295.37,57.28Z"/><path class="cls-23" d="M148.79,13.73a5.66,5.66,0,0,0,1.75,1.06,7,7,0,0,1-.77-.57,23.83,23.83,0,0,0-6.11-4A23.82,23.82,0,0,1,148.79,13.73Z"/><path class="cls-24" d="M327.4,99.11a5.51,5.51,0,0,0,3.06,7.35,5.5,5.5,0,0,1-2.07-6.86c5.87-13.14-1.14-28-13.08-33.6C326.64,72,333.11,86.34,327.4,99.11Z"/><path class="cls-25" d="M179.6,327.25c-81.26,0-147.37-66.12-147.37-147.38S98.34,32.5,179.6,32.5,327,98.61,327,179.87,260.87,327.25,179.6,327.25Zm0-288.35c-77.72,0-141,63.24-141,141s63.24,141,141,141,141-63.24,141-141S257.34,38.9,179.6,38.9Z"/><path class="cls-26" d="M179.6,305.89a126,126,0,1,1,126-126A126.16,126.16,0,0,1,179.6,305.89Zm0-245.63A119.61,119.61,0,1,0,299.21,179.87,119.74,119.74,0,0,0,179.6,60.26Z"/><path class="cls-27" d="M122.07,304.46h0Zm-1.42-3.86a2.91,2.91,0,0,1,3.86-1.42h0a2.92,2.92,0,0,1,1.43,3.86h0a2.9,2.9,0,0,1-3.86,1.42h0A2.92,2.92,0,0,1,120.65,300.6Zm-11.28-2.82a2.89,2.89,0,0,1-1-4h0a2.9,2.9,0,0,1,4-1h0a2.89,2.89,0,0,1,1,4h0a2.9,2.9,0,0,1-3.71,1.16h0Zm24.22,8.33a2.91,2.91,0,0,1,3.69-1.82h0a2.92,2.92,0,0,1,1.81,3.7h0a2.92,2.92,0,0,1-3.69,1.81h0a1.39,1.39,0,0,1-.28-.12h0A2.91,2.91,0,0,1,133.59,306.11Zm-36.16-16.3a2.9,2.9,0,0,1-.59-4.07h0a2.88,2.88,0,0,1,4.06-.59h0a2.9,2.9,0,0,1,.59,4.07h0a2.89,2.89,0,0,1-3.54.89h0A2.43,2.43,0,0,1,97.43,289.81ZM147,310.25a2.91,2.91,0,0,1,3.48-2.2h0a2.92,2.92,0,0,1,2.19,3.49h0a2.91,2.91,0,0,1-3.48,2.18h0a3.29,3.29,0,0,1-.58-.19h0A2.9,2.9,0,0,1,147,310.25ZM86.38,280.62a2.92,2.92,0,0,1-.17-4.11h0a2.93,2.93,0,0,1,4.11-.16h0a2.91,2.91,0,0,1,.17,4.11h0a2.92,2.92,0,0,1-3.36.67h0A3.32,3.32,0,0,1,86.38,280.62Zm74.45,32.32a2.89,2.89,0,0,1,3.22-2.54h0a2.91,2.91,0,0,1,2.54,3.24h0a2.91,2.91,0,0,1-3.22,2.55h0a3.27,3.27,0,0,1-.87-.25h0A2.91,2.91,0,0,1,160.83,312.94ZM76.36,270.33a2.92,2.92,0,0,1,.27-4.1h0a2.91,2.91,0,0,1,4.11.27h0a2.92,2.92,0,0,1-.27,4.1h0a2.91,2.91,0,0,1-3.14.44h0A2.76,2.76,0,0,1,76.36,270.33Zm98.47,43.84a2.9,2.9,0,0,1,2.95-2.86h0a2.89,2.89,0,0,1,2.86,2.95h0a2.91,2.91,0,0,1-2.94,2.87h0a3.1,3.1,0,0,1-1.18-.28h0A2.92,2.92,0,0,1,174.83,314.17ZM67.48,259a2.91,2.91,0,0,1,.71-4h0a2.9,2.9,0,0,1,4,.7h0a2.91,2.91,0,0,1-.7,4.06h0a2.92,2.92,0,0,1-2.9.26h0A2.88,2.88,0,0,1,67.48,259Zm121.4,54.9a2.91,2.91,0,0,1,2.64-3.16h0a2.9,2.9,0,0,1,3.15,2.62h0a2.9,2.9,0,0,1-2.63,3.17h0a2.85,2.85,0,0,1-1.48-.25h0A2.92,2.92,0,0,1,188.88,313.93Zm-129-67.05a2.9,2.9,0,0,1,1.11-4h0a2.89,2.89,0,0,1,4,1.12h0a2.91,2.91,0,0,1-1.11,4h0a2.9,2.9,0,0,1-2.64.1h0A2.91,2.91,0,0,1,59.84,246.88Zm143,65.33a2.91,2.91,0,0,1,2.28-3.42h0a2.91,2.91,0,0,1,3.42,2.29h0a2.9,2.9,0,0,1-2.28,3.42h0a2.93,2.93,0,0,1-1.79-.21h0A2.93,2.93,0,0,1,202.84,312.21ZM53.5,234A2.91,2.91,0,0,1,55,230.17h0a2.9,2.9,0,0,1,3.82,1.52h0a2.91,2.91,0,0,1-1.52,3.82h0a2.92,2.92,0,0,1-2.37,0h0A2.89,2.89,0,0,1,53.5,234Zm163,75.06a2.9,2.9,0,0,1,1.91-3.64h0a2.92,2.92,0,0,1,3.64,1.93h0a2.9,2.9,0,0,1-1.91,3.63h0a2.88,2.88,0,0,1-2.09-.14h0A2.87,2.87,0,0,1,216.54,309.05Zm-168-88.53a2.92,2.92,0,0,1,1.92-3.65h0a2.91,2.91,0,0,1,3.63,1.92h0a2.9,2.9,0,0,1-1.91,3.64h0a2.91,2.91,0,0,1-2.08-.14h0A2.87,2.87,0,0,1,48.53,220.52Zm181.31,84a2.9,2.9,0,0,1,1.52-3.82h0a2.92,2.92,0,0,1,3.82,1.53h0a2.9,2.9,0,0,1-1.52,3.82h0a2.92,2.92,0,0,1-2.37,0h0A2.82,2.82,0,0,1,229.84,304.49ZM45,206.6h0a2.89,2.89,0,0,1,2.27-3.42h0a2.91,2.91,0,0,1,3.43,2.29h0a2.91,2.91,0,0,1-2.29,3.41h0a2.9,2.9,0,0,1-1.78-.21h0A2.89,2.89,0,0,1,45,206.6Zm197.59,92a2.89,2.89,0,0,1,1.12-3.95h0a2.89,2.89,0,0,1,3.95,1.12h0a2.9,2.9,0,0,1-1.12,3.95h0a2.9,2.9,0,0,1-2.64.1h0A2.91,2.91,0,0,1,242.59,298.56ZM42.92,192.39a2.93,2.93,0,0,1,2.63-3.17h0a2.92,2.92,0,0,1,3.17,2.63h0A2.93,2.93,0,0,1,46.09,195h0a2.92,2.92,0,0,1-1.48-.26h0A2.94,2.94,0,0,1,42.92,192.39Zm211.73,98.95a2.93,2.93,0,0,1,.71-4.06h0a2.9,2.9,0,0,1,4,.71h0a2.9,2.9,0,0,1-.69,4.05h0a2.92,2.92,0,0,1-2.9.26h0A3.13,3.13,0,0,1,254.65,291.34ZM42.35,178.05h0a2.92,2.92,0,0,1,2.95-2.88h0a2.9,2.9,0,0,1,2.86,3h0A2.9,2.9,0,0,1,45.22,181h0a3,3,0,0,1-1.18-.27h0A2.9,2.9,0,0,1,42.35,178.05ZM265.9,282.89a2.9,2.9,0,0,1,.27-4.1h0a2.92,2.92,0,0,1,4.11.27h0a2.9,2.9,0,0,1-.28,4.1h0a2.9,2.9,0,0,1-3.13.46h0A2.73,2.73,0,0,1,265.9,282.89ZM43.29,163.71a2.92,2.92,0,0,1,3.23-2.55h0a2.91,2.91,0,0,1,2.55,3.23h0a2.91,2.91,0,0,1-3.24,2.55h0a2.64,2.64,0,0,1-.87-.25h0A2.9,2.9,0,0,1,43.29,163.71Zm232.9,109.61a2.93,2.93,0,0,1-.16-4.11h0a2.9,2.9,0,0,1,4.11-.17h0a2.91,2.91,0,0,1,.17,4.11h0a2.89,2.89,0,0,1-3.36.67h0A3,3,0,0,1,276.19,273.32ZM45.74,149.55a2.9,2.9,0,0,1,3.48-2.18h0a2.89,2.89,0,0,1,2.19,3.47h0A2.9,2.9,0,0,1,47.92,153h0a2.42,2.42,0,0,1-.57-.2h0A2.9,2.9,0,0,1,45.74,149.55ZM285.43,262.71a2.92,2.92,0,0,1-.59-4.08h0a2.92,2.92,0,0,1,4.07-.59h0a2.94,2.94,0,0,1,.59,4.08h0a2.93,2.93,0,0,1-3.56.89h0A2.62,2.62,0,0,1,285.43,262.71Zm-235.78-127a2.91,2.91,0,0,1,3.7-1.81h0a2.9,2.9,0,0,1,1.8,3.69h0a2.89,2.89,0,0,1-3.68,1.81h0l-.28-.11h0A2.92,2.92,0,0,1,49.65,135.74ZM293.49,251.19a2.92,2.92,0,0,1-1-4h0a2.91,2.91,0,0,1,4-1h0a2.91,2.91,0,0,1,1,4h0a2.91,2.91,0,0,1-3.71,1.16h0ZM55,122.41A2.91,2.91,0,0,1,58.84,121h0a2.9,2.9,0,0,1,1.42,3.86h0a2.91,2.91,0,0,1-3.86,1.42h0A2.92,2.92,0,0,1,55,122.41ZM298.88,235l.06-.12h0a.91.91,0,0,1,.07-.14h0a2.91,2.91,0,0,1,3.85-1.44h0a2.93,2.93,0,0,1,1.43,3.87h0l-.07.13h0a.59.59,0,0,1-.06.14h0a2.91,2.91,0,0,1-3.86,1.42h0A2.92,2.92,0,0,1,298.88,235ZM62.67,113.69a2.92,2.92,0,0,1-1-4h0a2.9,2.9,0,0,1,4-1h0a2.92,2.92,0,0,1,1,4h0a2.93,2.93,0,0,1-3.73,1.16h0ZM304.09,222a2.93,2.93,0,0,1,3.7-1.82h0a2.92,2.92,0,0,1,1.82,3.69h0a2.91,2.91,0,0,1-3.7,1.81h0l-.28-.1h0A2.93,2.93,0,0,1,304.09,222ZM70.22,101.82a2.9,2.9,0,0,1-.59-4.07h0a2.91,2.91,0,0,1,4.07-.59h0a2.92,2.92,0,0,1,.59,4.07h0a2.92,2.92,0,0,1-3.56.9h0A2.67,2.67,0,0,1,70.22,101.82ZM307.83,208.75a2.9,2.9,0,0,1,3.47-2.19h0a2.9,2.9,0,0,1,2.2,3.48h0a2.9,2.9,0,0,1-3.47,2.2h0a4.38,4.38,0,0,1-.58-.2h0A2.92,2.92,0,0,1,307.83,208.75ZM79,90.81a2.92,2.92,0,0,1-.17-4.11h0a2.9,2.9,0,0,1,4.11-.15h0a2.89,2.89,0,0,1,.17,4.09h0a2.91,2.91,0,0,1-3.36.67h0A2.73,2.73,0,0,1,79,90.81Zm231.19,104.4h0a2.9,2.9,0,0,1,3.23-2.55h0a2.9,2.9,0,0,1,2.54,3.23h0a2.89,2.89,0,0,1-3.22,2.54h0a2.94,2.94,0,0,1-.89-.25h0A2.91,2.91,0,0,1,310.16,195.21ZM88.83,80.79a2.89,2.89,0,0,1,.27-4.11h0a2.91,2.91,0,0,1,4.1.27h0a2.9,2.9,0,0,1-.28,4.1h0a2.89,2.89,0,0,1-3.13.45h0A2.89,2.89,0,0,1,88.83,80.79ZM311,181.48a2.91,2.91,0,0,1,2.94-2.87h0a2.91,2.91,0,0,1,2.88,2.94h0a2.92,2.92,0,0,1-2.94,2.88h0a3,3,0,0,1-1.19-.27h0A2.92,2.92,0,0,1,311,181.48ZM99.68,71.84a2.89,2.89,0,0,1,.7-4h0a2.89,2.89,0,0,1,4.05.69h0a2.91,2.91,0,0,1-.7,4.06h0a2.91,2.91,0,0,1-2.9.26h0A3,3,0,0,1,99.68,71.84Zm210.8,95.91a2.93,2.93,0,0,1,2.62-3.18h0a2.92,2.92,0,0,1,3.17,2.63h0a2.92,2.92,0,0,1-2.62,3.18h0a3,3,0,0,1-1.5-.26h0A2.93,2.93,0,0,1,310.48,167.75ZM111.42,64.1a2.9,2.9,0,0,1,1.11-4h0a2.91,2.91,0,0,1,4,1.11h0a2.92,2.92,0,0,1-1.12,4h0a2.9,2.9,0,0,1-2.64.1h0A2.91,2.91,0,0,1,111.42,64.1Zm197.07,90a2.9,2.9,0,0,1,2.27-3.42h0a2.92,2.92,0,0,1,3.43,2.28h0a2.91,2.91,0,0,1-2.29,3.42h0a2.9,2.9,0,0,1-1.78-.21h0A2.91,2.91,0,0,1,308.49,154.14ZM123.89,57.61a2.89,2.89,0,0,1,1.53-3.81h0a2.9,2.9,0,0,1,3.82,1.52h0a2.92,2.92,0,0,1-1.52,3.82h0a2.9,2.9,0,0,1-2.38,0h0A2.85,2.85,0,0,1,123.89,57.61Zm181.19,83.2a2.93,2.93,0,0,1,1.91-3.64h0a2.9,2.9,0,0,1,3.64,1.92h0a2.9,2.9,0,0,1-1.9,3.64h0a2.94,2.94,0,0,1-2.09-.14h0A2.92,2.92,0,0,1,305.08,140.81ZM137,52.47a2.91,2.91,0,0,1,1.92-3.65h0a2.91,2.91,0,0,1,3.63,1.91h0a2.91,2.91,0,0,1-1.91,3.64h0a2.88,2.88,0,0,1-2.09-.13h0A2.91,2.91,0,0,1,137,52.47Zm163.34,75.44a2.9,2.9,0,0,1,1.52-3.82h0a2.91,2.91,0,0,1,3.82,1.53h0a2.91,2.91,0,0,1-1.52,3.81h0a2.94,2.94,0,0,1-2.38,0h0A2.91,2.91,0,0,1,300.32,127.91ZM150.52,48.7a2.91,2.91,0,0,1,2.29-3.42h0a2.9,2.9,0,0,1,3.42,2.28h0A2.91,2.91,0,0,1,153.94,51h0a2.77,2.77,0,0,1-1.78-.21h0A2.88,2.88,0,0,1,150.52,48.7Zm143.7,66.87a2.92,2.92,0,0,1,1.13-3.95h0a2.89,2.89,0,0,1,3.95,1.11h0a2.92,2.92,0,0,1-1.11,4h0a3,3,0,0,1-2.65.1h0A3,3,0,0,1,294.22,115.57ZM164.39,46.36A2.9,2.9,0,0,1,167,43.2h0a2.91,2.91,0,0,1,3.16,2.62h0A2.91,2.91,0,0,1,167.56,49h0a2.89,2.89,0,0,1-1.5-.26h0A2.9,2.9,0,0,1,164.39,46.36Zm122.5,57.58a2.9,2.9,0,0,1,.7-4h0a2.9,2.9,0,0,1,4,.7h0a2.9,2.9,0,0,1-.69,4h0a2.91,2.91,0,0,1-2.9.26h0A3,3,0,0,1,286.89,103.94ZM178.41,45.49a2.92,2.92,0,0,1,2.94-2.87h0a2.92,2.92,0,0,1,2.88,3h0a2.9,2.9,0,0,1-2.94,2.87h0a2.92,2.92,0,0,1-1.18-.27h0A2.91,2.91,0,0,1,178.41,45.49Zm100,47.65a2.91,2.91,0,0,1,.26-4.11h0a2.93,2.93,0,0,1,4.11.27h0a2.92,2.92,0,0,1-.28,4.11h0a2.91,2.91,0,0,1-3.13.46h0A2.82,2.82,0,0,1,278.38,93.14Zm-85.91-47a2.91,2.91,0,0,1,3.23-2.55h0a2.91,2.91,0,0,1,2.54,3.23h0A2.9,2.9,0,0,1,195,49.32h0a2.61,2.61,0,0,1-.88-.24h0A2.89,2.89,0,0,1,192.47,46.1Zm76.31,37.19a2.89,2.89,0,0,1-.16-4.11h0a2.91,2.91,0,0,1,4.1-.17h0a2.91,2.91,0,0,1,.16,4.12h0a2.9,2.9,0,0,1-3.36.66h0A2.76,2.76,0,0,1,268.78,83.29ZM206.37,48.18a2.91,2.91,0,0,1,3.48-2.2h0A2.93,2.93,0,0,1,212,49.47h0a2.89,2.89,0,0,1-3.47,2.19h0a3.41,3.41,0,0,1-.59-.2h0A2.9,2.9,0,0,1,206.37,48.18Zm51.82,26.33a2.92,2.92,0,0,1-.6-4.07h0a2.93,2.93,0,0,1,4.07-.6h0a2.91,2.91,0,0,1,.6,4.07h0a2.91,2.91,0,0,1-3.55.91h0A4,4,0,0,1,258.19,74.51ZM220,51.7a2.92,2.92,0,0,1,3.7-1.8h0a2.92,2.92,0,0,1,1.82,3.69h0a2.92,2.92,0,0,1-3.7,1.81h0a1.81,1.81,0,0,1-.28-.12h0A2.92,2.92,0,0,1,220,51.7Zm26.77,15.19a2.91,2.91,0,0,1-1-4h0a2.92,2.92,0,0,1,4-1h0a2.91,2.91,0,0,1,1,4h0A2.92,2.92,0,0,1,247,67h0Zm-13.6-10.25A2.89,2.89,0,0,1,237,55.22h0a2.92,2.92,0,0,1,1.42,3.86h0a2.91,2.91,0,0,1-3.86,1.42h0A2.91,2.91,0,0,1,233.14,56.64Z"/><path class="cls-28" d="M179.34,326.71C98.08,326.71,32,260.6,32,179.34S98.08,32,179.34,32,326.71,98.07,326.71,179.34,260.6,326.71,179.34,326.71Zm0-288.34c-77.73,0-141,63.24-141,141s63.24,141,141,141,141-63.23,141-141S257.07,38.37,179.34,38.37Z"/><path class="cls-29" d="M179.34,305.35a126,126,0,1,1,126-126A126.16,126.16,0,0,1,179.34,305.35Zm0-245.62A119.61,119.61,0,1,0,299,179.34,119.75,119.75,0,0,0,179.34,59.73Z"/><path class="cls-30" d="M121.8,303.92h0Zm-1.42-3.86a2.91,2.91,0,0,1,3.86-1.41h0a2.91,2.91,0,0,1,1.43,3.86h0a2.91,2.91,0,0,1-3.86,1.42h0A2.93,2.93,0,0,1,120.38,300.06Zm-11.27-2.81a2.91,2.91,0,0,1-1-4h0a2.9,2.9,0,0,1,4-1h0a2.9,2.9,0,0,1,1,4h0a2.89,2.89,0,0,1-3.71,1.15h0Zm24.22,8.33a2.9,2.9,0,0,1,3.68-1.82h0a2.91,2.91,0,0,1,1.82,3.69h0a2.93,2.93,0,0,1-3.7,1.82h0l-.28-.12h0A2.9,2.9,0,0,1,133.33,305.58ZM97.16,289.27a2.88,2.88,0,0,1-.59-4.06h0a2.88,2.88,0,0,1,4.06-.59h0a2.9,2.9,0,0,1,.6,4.06h0a2.92,2.92,0,0,1-3.55.9h0A2.75,2.75,0,0,1,97.16,289.27Zm49.6,20.44a2.91,2.91,0,0,1,3.48-2.19h0a2.91,2.91,0,0,1,2.19,3.48h0a2.9,2.9,0,0,1-3.48,2.18h0a2.19,2.19,0,0,1-.58-.19h0A2.91,2.91,0,0,1,146.76,309.71ZM86.11,280.09A2.92,2.92,0,0,1,86,276h0a2.91,2.91,0,0,1,4.11-.16h0a2.92,2.92,0,0,1,.16,4.11h0a2.9,2.9,0,0,1-3.36.66h0A3,3,0,0,1,86.11,280.09Zm74.45,32.31a2.89,2.89,0,0,1,3.22-2.53h0a2.92,2.92,0,0,1,2.54,3.24h0a2.91,2.91,0,0,1-3.23,2.54h0a3,3,0,0,1-.87-.25h0A2.9,2.9,0,0,1,160.56,312.4ZM76.1,269.8a2.91,2.91,0,0,1,.27-4.11h0a2.92,2.92,0,0,1,4.1.27h0a2.9,2.9,0,0,1-.27,4.1h0a2.91,2.91,0,0,1-3.14.45h0A2.89,2.89,0,0,1,76.1,269.8Zm98.46,43.84a2.91,2.91,0,0,1,2.95-2.87h0a2.9,2.9,0,0,1,2.86,3h0a2.9,2.9,0,0,1-2.94,2.87h0a3.13,3.13,0,0,1-1.18-.27h0A2.93,2.93,0,0,1,174.56,313.64ZM67.21,258.5a2.92,2.92,0,0,1,.71-4.05h0a2.91,2.91,0,0,1,4,.7h0a2.93,2.93,0,0,1-.7,4.06h0a2.94,2.94,0,0,1-2.9.26h0A2.85,2.85,0,0,1,67.21,258.5Zm121.4,54.89a2.92,2.92,0,0,1,2.64-3.16h0a2.93,2.93,0,0,1,3.16,2.63h0a2.92,2.92,0,0,1-2.63,3.17h0a2.89,2.89,0,0,1-1.49-.26h0A2.93,2.93,0,0,1,188.61,313.39Zm-129-67a2.91,2.91,0,0,1,1.11-4h0a2.89,2.89,0,0,1,4,1.12h0a2.91,2.91,0,0,1-1.12,4h0a2.93,2.93,0,0,1-2.64.09h0A2.86,2.86,0,0,1,59.57,246.34Zm143,65.34a2.89,2.89,0,0,1,2.27-3.42h0a2.92,2.92,0,0,1,3.43,2.29h0A2.91,2.91,0,0,1,206,314h0a2.82,2.82,0,0,1-1.78-.21h0A2.87,2.87,0,0,1,202.58,311.68ZM53.23,233.46a2.9,2.9,0,0,1,1.52-3.82h0a2.9,2.9,0,0,1,3.82,1.52h0A2.9,2.9,0,0,1,57.05,235h0a3,3,0,0,1-2.37,0h0A3,3,0,0,1,53.23,233.46Zm163,75.06a2.91,2.91,0,0,1,1.92-3.64h0a2.91,2.91,0,0,1,3.63,1.92h0a2.89,2.89,0,0,1-1.91,3.63h0a2.89,2.89,0,0,1-2.09-.13h0A2.87,2.87,0,0,1,216.27,308.52ZM48.26,220a2.91,2.91,0,0,1,1.92-3.64h0a2.9,2.9,0,0,1,3.63,1.92h0a2.89,2.89,0,0,1-1.91,3.64h0a2.88,2.88,0,0,1-2.07-.14h0A3,3,0,0,1,48.26,220Zm181.31,84a2.91,2.91,0,0,1,1.52-3.82h0a2.91,2.91,0,0,1,3.81,1.53h0a2.91,2.91,0,0,1-1.52,3.82h0a3,3,0,0,1-2.37,0h0A2.93,2.93,0,0,1,229.57,304ZM44.73,206.06h0A2.91,2.91,0,0,1,47,202.64h0a2.9,2.9,0,0,1,3.42,2.29h0a2.93,2.93,0,0,1-2.28,3.42h0a2.93,2.93,0,0,1-1.79-.21h0A2.9,2.9,0,0,1,44.73,206.06Zm197.59,92a2.91,2.91,0,0,1,1.12-3.95h0a2.89,2.89,0,0,1,3.95,1.13h0a2.9,2.9,0,0,1-1.12,3.95h0a2.91,2.91,0,0,1-2.63.1h0A2.9,2.9,0,0,1,242.32,298ZM42.65,191.85a2.92,2.92,0,0,1,2.63-3.16h0a2.91,2.91,0,0,1,3.17,2.63h0a2.91,2.91,0,0,1-2.63,3.16h0a2.74,2.74,0,0,1-1.48-.26h0A2.92,2.92,0,0,1,42.65,191.85Zm211.73,99a2.92,2.92,0,0,1,.71-4.05h0a2.91,2.91,0,0,1,4,.7h0a2.9,2.9,0,0,1-.7,4.05h0a2.89,2.89,0,0,1-2.9.26h0A3,3,0,0,1,254.38,290.8ZM42.09,177.51h0A2.92,2.92,0,0,1,45,174.63h0a2.91,2.91,0,0,1,2.86,3h0A2.89,2.89,0,0,1,45,180.45h0a2.79,2.79,0,0,1-1.18-.26h0A2.92,2.92,0,0,1,42.09,177.51ZM265.63,282.36a2.91,2.91,0,0,1,.27-4.1h0a2.92,2.92,0,0,1,4.12.27h0a2.91,2.91,0,0,1-.29,4.1h0a2.91,2.91,0,0,1-3.13.46h0A3,3,0,0,1,265.63,282.36ZM43,163.17a2.89,2.89,0,0,1,3.22-2.54h0a2.92,2.92,0,0,1,2.56,3.23h0a2.92,2.92,0,0,1-3.24,2.55h0a3.19,3.19,0,0,1-.88-.25h0A2.91,2.91,0,0,1,43,163.17Zm232.9,109.61a2.92,2.92,0,0,1-.16-4.11h0a2.91,2.91,0,0,1,4.11-.16h0a2.92,2.92,0,0,1,.16,4.11h0a2.92,2.92,0,0,1-3.36.67h0A3.32,3.32,0,0,1,275.93,272.78ZM45.47,149A2.89,2.89,0,0,1,49,146.84h0a2.89,2.89,0,0,1,2.19,3.47h0a2.91,2.91,0,0,1-3.49,2.19h0a2.59,2.59,0,0,1-.57-.2h0A2.91,2.91,0,0,1,45.47,149ZM285.16,262.18a2.91,2.91,0,0,1-.58-4.08h0a2.89,2.89,0,0,1,4.06-.59h0a2.93,2.93,0,0,1,.59,4.08h0a2.92,2.92,0,0,1-3.55.89h0A3.88,3.88,0,0,1,285.16,262.18Zm-235.77-127a2.9,2.9,0,0,1,3.69-1.82h0a2.92,2.92,0,0,1,1.81,3.7h0a2.89,2.89,0,0,1-3.68,1.8h0l-.29-.1h0A2.91,2.91,0,0,1,49.39,135.21ZM293.22,250.66a2.94,2.94,0,0,1-1-4h0a2.91,2.91,0,0,1,4-1h0a2.91,2.91,0,0,1,1,4h0a2.9,2.9,0,0,1-3.71,1.15h0ZM54.72,121.88a2.9,2.9,0,0,1,3.86-1.42h0A2.92,2.92,0,0,1,60,124.32h0a2.91,2.91,0,0,1-3.86,1.41h0A2.89,2.89,0,0,1,54.72,121.88ZM298.62,234.5l.05-.12h0l.07-.15h0a2.92,2.92,0,0,1,3.85-1.43h0a2.91,2.91,0,0,1,1.43,3.86h0l-.06.14h0l-.07.14h0a2.9,2.9,0,0,1-3.85,1.41h0A2.89,2.89,0,0,1,298.62,234.5ZM62.4,113.16a2.93,2.93,0,0,1-1-4h0a2.91,2.91,0,0,1,4-1h0a2.9,2.9,0,0,1,1,4h0a2.92,2.92,0,0,1-3.73,1.16h0ZM303.83,221.45a2.91,2.91,0,0,1,3.69-1.81h0a2.91,2.91,0,0,1,1.82,3.69h0a2.9,2.9,0,0,1-3.69,1.81h0a2.12,2.12,0,0,1-.29-.11h0A2.91,2.91,0,0,1,303.83,221.45ZM70,101.28a2.9,2.9,0,0,1-.59-4.06h0a2.91,2.91,0,0,1,4.07-.59h0a2.9,2.9,0,0,1,.59,4.06h0a2.92,2.92,0,0,1-3.56.91h0A2.72,2.72,0,0,1,70,101.28ZM307.57,208.22A2.89,2.89,0,0,1,311,206h0a2.92,2.92,0,0,1,2.2,3.48h0a2.91,2.91,0,0,1-3.48,2.19h0a2.56,2.56,0,0,1-.57-.2h0A2.88,2.88,0,0,1,307.57,208.22ZM78.7,90.27a2.91,2.91,0,0,1-.16-4.11h0a2.89,2.89,0,0,1,4.1-.15h0a2.91,2.91,0,0,1,.17,4.1h0a2.93,2.93,0,0,1-3.36.67h0A3,3,0,0,1,78.7,90.27Zm231.19,104.4h0a2.9,2.9,0,0,1,3.23-2.54h0a2.91,2.91,0,0,1,2.55,3.23h0a2.91,2.91,0,0,1-3.23,2.54h0a3.19,3.19,0,0,1-.88-.25h0A2.92,2.92,0,0,1,309.89,194.67ZM88.56,80.25a2.88,2.88,0,0,1,.27-4.1h0a2.9,2.9,0,0,1,4.1.27h0a2.9,2.9,0,0,1-.28,4.1h0a2.89,2.89,0,0,1-3.13.45h0A2.92,2.92,0,0,1,88.56,80.25ZM310.77,181a2.9,2.9,0,0,1,2.94-2.87h0A2.91,2.91,0,0,1,316.6,181h0a2.91,2.91,0,0,1-3,2.88h0a2.91,2.91,0,0,1-1.18-.26h0A2.92,2.92,0,0,1,310.77,181ZM99.41,71.3a2.91,2.91,0,0,1,.71-4h0a2.89,2.89,0,0,1,4,.69h0a2.91,2.91,0,0,1-.69,4.06h0a2.89,2.89,0,0,1-2.9.26h0A2.83,2.83,0,0,1,99.41,71.3Zm210.81,95.91a2.91,2.91,0,0,1,2.62-3.17h0a2.91,2.91,0,0,1,3.16,2.63h0a2.92,2.92,0,0,1-2.62,3.17h0a2.87,2.87,0,0,1-1.49-.25h0A2.89,2.89,0,0,1,310.22,167.21ZM111.15,63.56a2.9,2.9,0,0,1,1.12-4h0a2.89,2.89,0,0,1,4,1.11h0a2.92,2.92,0,0,1-1.11,4h0a3,3,0,0,1-2.65.09h0A2.86,2.86,0,0,1,111.15,63.56Zm197.07,90a2.92,2.92,0,0,1,2.27-3.42h0a2.94,2.94,0,0,1,3.44,2.28h0a2.93,2.93,0,0,1-2.29,3.43h0a2.93,2.93,0,0,1-1.79-.21h0A2.93,2.93,0,0,1,308.22,153.6ZM123.62,57.08a2.92,2.92,0,0,1,1.53-3.82h0A2.9,2.9,0,0,1,129,54.79h0a2.92,2.92,0,0,1-1.52,3.82h0a2.94,2.94,0,0,1-2.38,0h0A2.93,2.93,0,0,1,123.62,57.08Zm181.19,83.2a2.92,2.92,0,0,1,1.91-3.64h0a2.9,2.9,0,0,1,3.64,1.91h0a2.91,2.91,0,0,1-1.9,3.65h0a2.94,2.94,0,0,1-2.09-.15h0A2.93,2.93,0,0,1,304.81,140.28ZM136.71,51.93a2.9,2.9,0,0,1,1.92-3.64h0a2.91,2.91,0,0,1,3.64,1.91h0a2.92,2.92,0,0,1-1.92,3.64h0a2.84,2.84,0,0,1-2.09-.14h0A2.94,2.94,0,0,1,136.71,51.93Zm163.34,75.45a2.9,2.9,0,0,1,1.52-3.82h0a2.9,2.9,0,0,1,3.82,1.52h0a2.91,2.91,0,0,1-1.52,3.82h0a2.9,2.9,0,0,1-2.38,0h0A2.85,2.85,0,0,1,300.05,127.38ZM150.26,48.16a2.9,2.9,0,0,1,2.28-3.41h0A2.9,2.9,0,0,1,156,47h0a2.91,2.91,0,0,1-2.28,3.42h0a2.86,2.86,0,0,1-1.79-.21h0A2.91,2.91,0,0,1,150.26,48.16ZM294,115a2.9,2.9,0,0,1,1.12-4h0a2.91,2.91,0,0,1,4,1.11h0a2.93,2.93,0,0,1-1.12,4h0a2.92,2.92,0,0,1-2.65.09h0A3,3,0,0,1,294,115ZM164.12,45.83a2.91,2.91,0,0,1,2.63-3.16h0a2.89,2.89,0,0,1,3.16,2.62h0a2.91,2.91,0,0,1-2.62,3.17h0a3,3,0,0,1-1.5-.26h0A2.92,2.92,0,0,1,164.12,45.83Zm122.5,57.58a2.9,2.9,0,0,1,.7-4h0a2.91,2.91,0,0,1,4.05.69h0a2.89,2.89,0,0,1-.7,4h0a2.89,2.89,0,0,1-2.9.26h0A3,3,0,0,1,286.62,103.41ZM178.15,45a2.89,2.89,0,0,1,2.94-2.87h0A2.91,2.91,0,0,1,184,45h0A2.9,2.9,0,0,1,181,47.9h0a2.92,2.92,0,0,1-1.19-.26h0A2.93,2.93,0,0,1,178.15,45Zm100,47.65a2.9,2.9,0,0,1,.26-4.11h0a2.9,2.9,0,0,1,4.1.27h0a2.91,2.91,0,0,1-.27,4.1h0a2.91,2.91,0,0,1-3.14.46h0A2.76,2.76,0,0,1,278.12,92.61Zm-85.92-47A2.91,2.91,0,0,1,195.43,43h0A2.89,2.89,0,0,1,198,46.24h0a2.89,2.89,0,0,1-3.22,2.55h0a2.85,2.85,0,0,1-.89-.24h0A2.9,2.9,0,0,1,192.2,45.56Zm76.31,37.2a2.89,2.89,0,0,1-.16-4.11h0a2.91,2.91,0,0,1,4.1-.17h0a2.9,2.9,0,0,1,.16,4.11h0a2.89,2.89,0,0,1-3.35.67h0A3.07,3.07,0,0,1,268.51,82.76ZM206.1,47.65a2.92,2.92,0,0,1,3.48-2.2h0a2.92,2.92,0,0,1,2.19,3.49h0a2.88,2.88,0,0,1-3.47,2.18h0a2.72,2.72,0,0,1-.59-.19h0A2.91,2.91,0,0,1,206.1,47.65ZM257.93,74a2.92,2.92,0,0,1-.61-4.07h0a2.92,2.92,0,0,1,4.07-.6h0a2.91,2.91,0,0,1,.61,4.07h0a2.92,2.92,0,0,1-3.56.9h0A2.62,2.62,0,0,1,257.93,74ZM219.71,51.17a2.91,2.91,0,0,1,3.69-1.8h0a2.9,2.9,0,0,1,1.82,3.68h0a2.92,2.92,0,0,1-3.7,1.82h0l-.28-.12h0A2.91,2.91,0,0,1,219.71,51.17Zm26.76,15.18a2.91,2.91,0,0,1-1-4h0a2.91,2.91,0,0,1,4-1h0a2.9,2.9,0,0,1,1,4h0a2.91,2.91,0,0,1-3.73,1.15h0A2.34,2.34,0,0,1,246.47,66.35ZM232.88,56.11a2.9,2.9,0,0,1,3.85-1.43h0a2.91,2.91,0,0,1,1.41,3.86h0A2.91,2.91,0,0,1,234.3,60h0A2.9,2.9,0,0,1,232.88,56.11Z"/><path class="cls-31" d="M150.43,158.54a4.73,4.73,0,0,0-.26-1.61,3.14,3.14,0,0,0-1-1.33,8,8,0,0,0-2-1.13,26.14,26.14,0,0,0-3.26-1l1.16-2.78q3.23.39,6.84,1.13t6.26,1.39a9,9,0,0,0-.32,1.52c-.09.62-.16,1.25-.23,1.87s-.1,1.17-.12,1.65,0,.73,0,.77v16c.39,0,.85-.09,1.39-.13l1.61-.1c.54,0,1.06-.05,1.55-.09s.94-.07,1.33-.07V156.09a3.83,3.83,0,0,0-1.52-3.1,15.73,15.73,0,0,0-5.71-2.26l1.22-2.84c1,.13,2.19.31,3.46.55l3.81.71c1.26.23,2.48.47,3.64.71l3,.61A12.16,12.16,0,0,0,171,152c-.07.64-.13,1.27-.2,1.87s-.12,1.15-.16,1.65-.06.76-.06.8v35.44c0,1.34,0,2.85-.1,4.55s-.15,3.43-.26,5.17-.24,3.41-.39,5-.29,2.93-.42,4l-5.61.78c0-.82-.1-1.82-.16-3s-.12-2.46-.16-3.81-.08-2.72-.1-4.1,0-2.69,0-3.94V178.74c-.78,0-1.75.09-2.91.13l-3,.13v10.46c0,1.33,0,2.86-.1,4.58s-.15,3.46-.25,5.2-.24,3.41-.39,5-.31,2.93-.48,4l-5.49.71q0-1.22-.06-3c-.05-1.18-.09-2.44-.13-3.77s-.08-2.69-.1-4.07,0-2.69,0-3.94V186.1q-4.14,1.62-8.94,3.13a87.15,87.15,0,0,1-10,2.49c-2.49.47-4.27.21-5.32-.78a6,6,0,0,1-1.58-4.58V169.19a7.06,7.06,0,0,0-.23-1.9,3.43,3.43,0,0,0-.84-1.46,5.21,5.21,0,0,0-1.81-1.13,28.79,28.79,0,0,0-3.13-1l1.49-2.77a57.59,57.59,0,0,0,7.48.68q3.81.09,7.49-.1c2.46-.13,4.8-.33,7-.61s4.3-.62,6.2-1l-1.23,5.74c-3-.17-5.68-.24-8.13-.19s-4.8.17-7,.38V185a3.6,3.6,0,0,0,.16,1.32c.11.24.21.33.29.29a81.79,81.79,0,0,0,9.07-1.58q4.62-1.06,9-2.36Z"/><path class="cls-31" d="M201.68,167.51q3.3,2.58,7.13,5.39t8.1,5.46l-5.35,4.9q-2.91-3.22-6.07-6.39t-6.33-6.13a54.88,54.88,0,0,1-8.78,8.1c-3.22,2.39-6.67,4.72-10.32,7L178,183.46a61.1,61.1,0,0,0,6.52-5,58,58,0,0,0,6-6.07,49.88,49.88,0,0,0,4.78-6.61,29.8,29.8,0,0,0,3-6.62q.31-1.29,0-1.65l-.29-.29a5.72,5.72,0,0,0-1.52-1c-.71-.35-1.5-.69-2.36-1l1.75-2.52c.86.22,1.81.49,2.87.81l3.19,1c1.08.32,2.14.66,3.2,1s2,.65,2.87.9a47.72,47.72,0,0,1-2.84,6A40.13,40.13,0,0,1,201.68,167.51Zm15.75,20.34a15.05,15.05,0,0,1,4.58,1.42,13.47,13.47,0,0,1,3.56,2.51,11,11,0,0,1,2.29,3.33,9.88,9.88,0,0,1,.8,4,9.36,9.36,0,0,1-1.09,4.45,11.59,11.59,0,0,1-3.07,3.62,14.86,14.86,0,0,1-4.65,2.42,19.7,19.7,0,0,1-11.58,0,14.53,14.53,0,0,1-4.59-2.42,11.23,11.23,0,0,1-3-3.62,9.58,9.58,0,0,1-1.07-4.45,9.94,9.94,0,0,1,.88-4.13,10.65,10.65,0,0,1,2.42-3.42,13,13,0,0,1,3.71-2.46,16.84,16.84,0,0,1,4.68-1.29,1.75,1.75,0,0,0-.71-1.19,7.62,7.62,0,0,0-2.07-.87l1.42-2.39c.52.08,1.14.2,1.88.35l2.29.45c.79.15,1.57.33,2.32.52s1.39.36,1.91.48A18.32,18.32,0,0,0,217.43,187.85Zm3.62,10.78a7.93,7.93,0,0,0-.55-3A7.52,7.52,0,0,0,219,193.3a6.9,6.9,0,0,0-2.19-1.58,6.27,6.27,0,0,0-2.68-.58,6.47,6.47,0,0,0-2.71.58,7.56,7.56,0,0,0-2.29,1.58,7.25,7.25,0,0,0-1.58,2.36,7.39,7.39,0,0,0-.59,3,7.55,7.55,0,0,0,.59,3,7.72,7.72,0,0,0,1.58,2.39,6.92,6.92,0,0,0,5,2.13,6.73,6.73,0,0,0,2.68-.55,6.33,6.33,0,0,0,2.19-1.58,7.85,7.85,0,0,0,2-5.42Zm7.55-22c0,.78,0,1.7-.13,2.78s-.18,2.14-.29,3.19-.22,2.06-.32,3-.21,1.67-.29,2.19l-5.75.91a14.43,14.43,0,0,1-.19-1.81c0-.73-.1-1.5-.16-2.29s-.11-1.59-.13-2.36,0-1.46,0-2.07V156.09a3.57,3.57,0,0,0-1.8-3.07,21.43,21.43,0,0,0-6.2-2.29l1.42-2.84c1.08.13,2.29.3,3.65.51s2.72.46,4.1.71,2.68.5,3.9.71,2.25.39,3.07.52a8.87,8.87,0,0,0-.33,1.55l-.25,1.94c-.09.64-.15,1.21-.2,1.71s-.06.76-.06.8v11l3.1-.32,3.39-.42c1.14-.15,2.22-.3,3.26-.46l2.71-.42-.65,5.81c-.64,0-1.44-.07-2.39-.09s-2,0-3,0H228.6Z"/></g></g></svg>