<svg xmlns="http://www.w3.org/2000/svg" xmlns:xlink="http://www.w3.org/1999/xlink" width="637.922" height="637.067" viewBox="0 0 637.922 637.067">
  <defs>
    <linearGradient id="linear-gradient" y1="0.5" x2="1" y2="0.5" gradientUnits="objectBoundingBox">
      <stop offset="0" stop-color="#724c00"/>
      <stop offset="0.26" stop-color="#d3a84c"/>
      <stop offset="0.45" stop-color="#fffae3"/>
      <stop offset="0.51" stop-color="#f7e6bb"/>
      <stop offset="0.63" stop-color="#e6be69"/>
      <stop offset="0.82" stop-color="#b77711"/>
      <stop offset="1" stop-color="#845a0f"/>
      <stop offset="1" stop-color="#956d13"/>
    </linearGradient>
    <linearGradient id="linear-gradient-2" x1="0.149" y1="0.851" x2="0.839" y2="0.161" gradientUnits="objectBoundingBox">
      <stop offset="0" stop-color="#b58f3e"/>
      <stop offset="0" stop-color="#956d13"/>
      <stop offset="0.23" stop-color="#fff1d4"/>
      <stop offset="0.41" stop-color="#e6be69"/>
      <stop offset="0.59" stop-color="#ffec94"/>
      <stop offset="0.77" stop-color="#d3a84c"/>
      <stop offset="1" stop-color="#a47a1e"/>
    </linearGradient>
    <linearGradient id="linear-gradient-3" x1="0.272" y1="0.632" x2="0.721" y2="0.373" gradientUnits="objectBoundingBox">
      <stop offset="0" stop-color="#492001"/>
      <stop offset="1" stop-color="#281201"/>
    </linearGradient>
    <linearGradient id="linear-gradient-4" x1="0.465" y1="0.537" x2="0.54" y2="0.457" xlink:href="#linear-gradient-3"/>
    <linearGradient id="linear-gradient-5" x1="0.42" y1="0.619" x2="0.579" y2="0.385" xlink:href="#linear-gradient-3"/>
    <linearGradient id="linear-gradient-6" x1="0.39" y1="0.588" x2="0.608" y2="0.416" xlink:href="#linear-gradient-3"/>
    <linearGradient id="linear-gradient-7" x1="0.04" y1="0.673" x2="0.95" y2="0.33" xlink:href="#linear-gradient-3"/>
    <linearGradient id="linear-gradient-8" x1="0.177" y1="1.35" x2="0.812" y2="-0.327" xlink:href="#linear-gradient-3"/>
    <linearGradient id="linear-gradient-9" x1="0.294" y1="1.642" x2="0.699" y2="-0.604" xlink:href="#linear-gradient-3"/>
    <linearGradient id="linear-gradient-10" x1="0.337" y1="0.967" x2="0.658" y2="0.05" xlink:href="#linear-gradient-3"/>
    <linearGradient id="linear-gradient-11" x1="0.22" y1="1.698" x2="0.772" y2="-0.653" xlink:href="#linear-gradient-3"/>
    <linearGradient id="linear-gradient-12" x1="0.255" y1="2.526" x2="0.736" y2="-1.487" xlink:href="#linear-gradient-3"/>
    <linearGradient id="linear-gradient-13" x1="-0.162" y1="0.842" x2="1.121" y2="0.1" xlink:href="#linear-gradient-3"/>
    <linearGradient id="linear-gradient-14" x1="0.219" y1="1.553" x2="0.771" y2="-0.803" xlink:href="#linear-gradient-3"/>
    <linearGradient id="linear-gradient-15" x1="0.257" y1="2.212" x2="0.735" y2="-1.846" xlink:href="#linear-gradient-3"/>
    <linearGradient id="linear-gradient-16" x1="0.295" y1="1.589" x2="0.698" y2="-0.55" xlink:href="#linear-gradient-3"/>
    <linearGradient id="linear-gradient-17" x1="0.178" y1="1.279" x2="0.811" y2="-0.397" xlink:href="#linear-gradient-3"/>
    <linearGradient id="linear-gradient-18" x1="-0.128" y1="0.916" x2="1.121" y2="0.176" xlink:href="#linear-gradient-3"/>
    <linearGradient id="linear-gradient-19" x1="0.485" y1="0.515" x2="0.563" y2="0.432" xlink:href="#linear-gradient-3"/>
    <linearGradient id="linear-gradient-20" x1="0.339" y1="0.936" x2="0.656" y2="0.057" xlink:href="#linear-gradient-3"/>
    <linearGradient id="linear-gradient-21" x1="0.407" y1="0.571" x2="0.628" y2="0.398" xlink:href="#linear-gradient-3"/>
    <linearGradient id="linear-gradient-22" x1="0.291" y1="0.619" x2="0.748" y2="0.359" xlink:href="#linear-gradient-3"/>
    <linearGradient id="linear-gradient-23" x1="0.417" y1="0.624" x2="0.581" y2="0.376" xlink:href="#linear-gradient-3"/>
    <linearGradient id="linear-gradient-24" x1="0.058" y1="0.665" x2="0.972" y2="0.322" xlink:href="#linear-gradient-3"/>
    <linearGradient id="linear-gradient-25" x1="0.646" y1="0.958" x2="0.363" y2="0.069" xlink:href="#linear-gradient-3"/>
    <linearGradient id="linear-gradient-26" x1="0.853" y1="0.853" x2="0.147" y2="0.147" xlink:href="#linear-gradient-3"/>
    <linearGradient id="linear-gradient-27" x1="0.243" y1="0.969" x2="0.759" y2="0.028" xlink:href="#linear-gradient-3"/>
    <linearGradient id="linear-gradient-28" x1="0.646" y1="0.958" x2="0.363" y2="0.069" gradientUnits="objectBoundingBox">
      <stop offset="0" stop-color="#a47a1e"/>
      <stop offset="0.23" stop-color="#d3a84c"/>
      <stop offset="0.41" stop-color="#ffec94"/>
      <stop offset="0.59" stop-color="#e6be69"/>
      <stop offset="0.77" stop-color="#ffd87c"/>
      <stop offset="1" stop-color="#956d13"/>
      <stop offset="1" stop-color="#b58f3e"/>
    </linearGradient>
    <linearGradient id="linear-gradient-29" x1="0.853" y1="0.853" x2="0.147" y2="0.147" xlink:href="#linear-gradient-28"/>
    <linearGradient id="linear-gradient-30" x1="0.243" y1="0.969" x2="0.759" y2="0.028" gradientUnits="objectBoundingBox">
      <stop offset="0" stop-color="#b58f3e"/>
      <stop offset="0" stop-color="#956d13"/>
      <stop offset="0.23" stop-color="#ffd87c"/>
      <stop offset="0.41" stop-color="#e6be69"/>
      <stop offset="0.59" stop-color="#ffec94"/>
      <stop offset="0.77" stop-color="#d3a84c"/>
      <stop offset="1" stop-color="#a47a1e"/>
    </linearGradient>
  </defs>
  <g id="그룹_555" data-name="그룹 555" transform="translate(13605 -4288.111)">
    <g id="그룹_554" data-name="그룹 554" transform="translate(0.136)">
      <path id="패스_514" data-name="패스 514" d="M614.19,357.326c29.319-16.868,29.319-61.6,0-78.485a9.755,9.755,0,0,1-2.359-14.934c22.65-25.1,8.868-67.648-24.246-74.636a9.773,9.773,0,0,1-6.882-13.48c13.8-30.88-12.416-67.063-46.116-63.5a9.755,9.755,0,0,1-10.642-10.642c3.547-33.7-32.618-59.915-63.5-46.116a9.755,9.755,0,0,1-13.48-6.935C439.873,15.52,397.3,1.774,372.278,24.353a9.773,9.773,0,0,1-14.952-2.377c-16.868-29.3-61.6-29.3-78.485,0a9.755,9.755,0,0,1-14.934,2.377C238.808,1.774,196.258,15.52,189.27,48.6a9.755,9.755,0,0,1-13.48,6.864c-30.88-13.781-67.063,12.5-63.5,46.116a9.755,9.755,0,0,1-10.642,10.642c-33.7-3.547-59.915,32.618-46.116,63.5A9.755,9.755,0,0,1,48.67,189.2c-33.15,7.059-46.9,49.61-24.317,74.707a9.755,9.755,0,0,1-2.377,14.934c-29.3,16.885-29.3,61.618,0,78.485a9.773,9.773,0,0,1,2.377,14.952C1.774,397.3,15.52,439.873,48.6,446.967a9.755,9.755,0,0,1,6.864,13.48c-13.782,30.862,12.5,67.063,46.116,63.5a9.755,9.755,0,0,1,10.642,10.642c-3.547,33.7,32.618,59.915,63.5,46.116a9.773,9.773,0,0,1,13.48,6.882c6.988,33.079,49.539,46.9,74.636,24.246a9.737,9.737,0,0,1,14.934,2.359c16.885,29.319,61.618,29.319,78.485,0a9.755,9.755,0,0,1,14.952-2.359c25.1,22.65,67.648,8.868,74.636-24.246a9.773,9.773,0,0,1,13.48-6.882c30.88,13.8,67.063-12.416,63.5-46.116a9.737,9.737,0,0,1,10.642-10.642c33.7,3.547,59.915-32.636,46.116-63.5a9.773,9.773,0,0,1,6.882-13.48c33.2-7.095,47.02-49.663,24.459-74.69a9.773,9.773,0,0,1,2.27-14.952Z" transform="translate(-13605.136 4288.118)" fill="url(#linear-gradient)"/>
      <path id="패스_515" data-name="패스 515" d="M318.092,18.946a25.754,25.754,0,0,1,22.827,12.416,28.68,28.68,0,0,0,43.97,7.041,24.53,24.53,0,0,1,16.637-6.243c11.174,0,23.962,6.988,26.783,20.362A28.84,28.84,0,0,0,456.386,75.26a28.375,28.375,0,0,0,11.721-2.535,24.051,24.051,0,0,1,9.793-2.094,28.379,28.379,0,0,1,20.592,9.525,25.133,25.133,0,0,1,6.563,19.4A28.663,28.663,0,0,0,536.574,131.1a25.959,25.959,0,0,1,2.607-.142A26.357,26.357,0,0,1,561,143.512c2.377,3.671,7.379,13.409,2.412,24.512a28.716,28.716,0,0,0,20.255,39.748,27.1,27.1,0,0,1,14.065,43.455,28.7,28.7,0,0,0,7.095,44.041,27.1,27.1,0,0,1,0,45.654,28.7,28.7,0,0,0-7.095,43.97,27.1,27.1,0,0,1-14.1,43.42,28.7,28.7,0,0,0-20.255,39.73c4.966,11.1,0,20.841-2.412,24.512a26.286,26.286,0,0,1-21.816,12.558,25.911,25.911,0,0,1-2.607-.124,28.663,28.663,0,0,0-31.518,31.518,25.169,25.169,0,0,1-6.563,19.51,28.379,28.379,0,0,1-20.592,9.525,23.781,23.781,0,0,1-9.786-2.109,28.378,28.378,0,0,0-11.657-2.485,28.822,28.822,0,0,0-28.077,22.739c-2.82,13.356-15.608,20.362-26.783,20.362a24.477,24.477,0,0,1-16.673-6.314,28.7,28.7,0,0,0-43.969,7.095,27.1,27.1,0,0,1-45.655,0,28.716,28.716,0,0,0-44.058-7.095,24.424,24.424,0,0,1-16.637,6.261c-11.156,0-23.945-6.988-26.765-20.362a28.822,28.822,0,0,0-28.1-22.739,28.486,28.486,0,0,0-11.653,2.483,23.643,23.643,0,0,1-9.773,2.111,28.379,28.379,0,0,1-20.592-9.525,25.1,25.1,0,0,1-6.563-19.51,28.539,28.539,0,0,0-31.536-31.518,25.632,25.632,0,0,1-2.607.124,26.286,26.286,0,0,1-21.8-12.558c-2.377-3.671-7.379-13.409-2.43-24.512a28.68,28.68,0,0,0-20.238-39.73,27.1,27.1,0,0,1-14.189-43.42,28.68,28.68,0,0,0-6.971-44.04,27.1,27.1,0,0,1,0-45.655A28.68,28.68,0,0,0,38.329,251.1a27.1,27.1,0,0,1,14.189-43.42,28.7,28.7,0,0,0,20.2-39.624c-4.949-11.1,0-20.841,2.43-24.512a26.3,26.3,0,0,1,21.8-12.558,25.681,25.681,0,0,1,2.607.142A28.716,28.716,0,0,0,131.128,99.6a25.062,25.062,0,0,1,6.563-19.4,28.237,28.237,0,0,1,20.592-9.525,23.909,23.909,0,0,1,9.773,2.057,28.5,28.5,0,0,0,11.653,2.5,28.84,28.84,0,0,0,28.1-22.739c2.82-13.374,15.608-20.362,26.765-20.362a24.477,24.477,0,0,1,16.637,6.243A28.7,28.7,0,0,0,295.265,31.4a25.754,25.754,0,0,1,22.827-12.416Zm0-18.943A44.7,44.7,0,0,0,278.84,21.979a9.755,9.755,0,0,1-14.934,2.377,43.331,43.331,0,0,0-29.337-11.139c-20.433,0-40.671,13.462-45.3,35.474a9.791,9.791,0,0,1-9.56,7.716,9.649,9.649,0,0,1-3.92-.851,42.693,42.693,0,0,0-17.506-3.742c-25.47,0-48.9,22.508-45.992,49.876a9.755,9.755,0,0,1-9.667,10.749H101.6a44.884,44.884,0,0,0-4.612-.248c-31.359-.142-54.683,34.143-41.522,63.6a9.755,9.755,0,0,1-6.864,13.48c-33.079,6.988-46.825,49.539-24.246,74.636a9.755,9.755,0,0,1-2.377,14.934c-29.3,16.885-29.3,61.618,0,78.485a9.773,9.773,0,0,1,2.377,14.952C1.774,397.308,15.52,439.876,48.6,446.971a9.755,9.755,0,0,1,6.864,13.48c-13.143,29.39,10.163,63.675,41.522,63.675a45.1,45.1,0,0,0,4.612-.231,6.858,6.858,0,0,1,1.029,0,9.773,9.773,0,0,1,9.667,10.766c-2.909,27.35,20.521,49.876,45.992,49.876a42.711,42.711,0,0,0,17.506-3.76,9.613,9.613,0,0,1,3.92-.834,9.773,9.773,0,0,1,9.56,7.716c4.629,21.923,24.832,35.474,45.3,35.474a43.349,43.349,0,0,0,29.337-11.21,9.755,9.755,0,0,1,14.934,2.359,46.009,46.009,0,0,0,78.485,0,9.773,9.773,0,0,1,14.952-2.359A43.313,43.313,0,0,0,401.6,623.062c20.433,0,40.688-13.462,45.318-35.474a9.755,9.755,0,0,1,13.48-6.882,42.567,42.567,0,0,0,17.506,3.76c25.47,0,48.9-22.526,45.992-49.876a9.755,9.755,0,0,1,9.649-10.766,6.907,6.907,0,0,1,1.046,0,44.777,44.777,0,0,0,4.594.231c31.376,0,54.683-34.285,41.522-63.728a9.773,9.773,0,0,1,6.882-13.48c33.079-6.971,46.9-49.539,24.335-74.565a9.773,9.773,0,0,1,2.359-14.952c29.319-16.868,29.319-61.6,0-78.485a9.755,9.755,0,0,1-2.359-14.934c22.65-25.1,8.868-67.648-24.246-74.636a9.773,9.773,0,0,1-6.882-13.48c13.161-29.443-10.163-63.746-41.522-63.746a44.819,44.819,0,0,0-4.594.248,10.343,10.343,0,0,1-1.047,0,9.755,9.755,0,0,1-9.649-10.749c2.8-27.315-20.61-49.823-46.08-49.823a42.568,42.568,0,0,0-17.506,3.742A9.7,9.7,0,0,1,446.968,48.6c-4.629-21.923-24.832-35.385-45.318-35.385a43.278,43.278,0,0,0-29.319,11.139,9.773,9.773,0,0,1-14.952-2.377A44.661,44.661,0,0,0,318.092,0Z" transform="translate(-13605.136 4288.115)" fill="url(#linear-gradient-2)"/>
      <path id="패스_516" data-name="패스 516" d="M97,341.492a29.744,29.744,0,0,1-8.106-6.208,25.151,25.151,0,0,1-6.563-19.51A28.645,28.645,0,0,0,65.32,286.49a28.556,28.556,0,0,1,15.271,28.379,25.1,25.1,0,0,0,6.563,19.511A29.442,29.442,0,0,0,97,341.492Z" transform="translate(-13554.599 4509.77)" fill="url(#linear-gradient-3)"/>
      <path id="패스_517" data-name="패스 517" d="M182.465,355.7a24.3,24.3,0,0,1-9.383-9.134A28.574,28.574,0,0,0,160.17,334.84a28.379,28.379,0,0,1,11.174,10.855A24.352,24.352,0,0,0,182.465,355.7Z" transform="translate(-13481.215 4547.177)" fill="url(#linear-gradient-4)"/>
      <path id="패스_518" data-name="패스 518" d="M225.518,342.7a23.849,23.849,0,0,1-4.31-3.1,28.66,28.66,0,0,0-7.308-4.771,28.624,28.624,0,0,1,5.5,3.867,23.656,23.656,0,0,0,6.119,4.009Z" transform="translate(-13439.646 4547.162)" fill="url(#linear-gradient-5)"/>
      <path id="패스_519" data-name="패스 519" d="M138.211,355.139a24.831,24.831,0,0,1-12.93-16.8,28.787,28.787,0,0,0-16.371-20.2,28.715,28.715,0,0,1,14.633,19.333,25.08,25.08,0,0,0,14.668,17.666Z" transform="translate(-13520.874 4534.257)" fill="url(#linear-gradient-6)"/>
      <path id="패스_520" data-name="패스 520" d="M60.884,314.947a28.238,28.238,0,0,1-10.11-9.507c-2.377-3.672-7.379-13.409-2.412-24.512A28.68,28.68,0,0,0,33.8,243.06a28.61,28.61,0,0,1,12.771,37c-4.949,11.1,0,20.841,2.43,24.512a28.13,28.13,0,0,0,11.884,10.376Z" transform="translate(-13578.985 4476.169)" fill="url(#linear-gradient-7)"/>
      <path id="패스_521" data-name="패스 521" d="M159.364,38.359A28.734,28.734,0,0,0,184.2,24.01a25.754,25.754,0,0,1,22.827-12.416,28.378,28.378,0,0,1,11.706,2.465,27.811,27.811,0,0,0-13.444-3.335,25.754,25.754,0,0,0-22.827,12.416A28.751,28.751,0,0,1,157.626,37.49a28.521,28.521,0,0,1-11.866-2.607A28.379,28.379,0,0,0,159.364,38.359Z" transform="translate(-13492.364 4296.407)" fill="url(#linear-gradient-8)"/>
      <path id="패스_522" data-name="패스 522" d="M307.572,75.949a28.935,28.935,0,0,0,3.03-.159,25.683,25.683,0,0,1,2.61-.142,24.141,24.141,0,0,1,9.95,2.2,24.282,24.282,0,0,0-11.706-3.068,25.958,25.958,0,0,0-2.607.142,28.379,28.379,0,0,1-14.509-2.27A28.379,28.379,0,0,0,307.572,75.949Z" transform="translate(-13377.41 4344.326)" fill="url(#linear-gradient-9)"/>
      <path id="패스_523" data-name="패스 523" d="M325.86,116.11a29.16,29.16,0,0,0,7.432,2.731,22.742,22.742,0,0,1,4.771,1.543,23.162,23.162,0,0,0-6.509-2.412,29.3,29.3,0,0,1-5.694-1.862Z" transform="translate(-13353.024 4377.95)" fill="url(#linear-gradient-10)"/>
      <path id="패스_524" data-name="패스 524" d="M213.214,32.622a28.518,28.518,0,0,0,19.135-7.375A24.548,24.548,0,0,1,249.007,19a29.478,29.478,0,0,1,12.1,2.678,29.638,29.638,0,0,0-13.852-3.547,24.53,24.53,0,0,0-16.673,6.243A28.574,28.574,0,0,1,211.4,31.753a28.822,28.822,0,0,1-11.955-2.625A28.822,28.822,0,0,0,213.214,32.622Z" transform="translate(-13450.825 4302.144)" fill="url(#linear-gradient-11)"/>
      <path id="패스_525" data-name="패스 525" d="M264.212,45.3a28.5,28.5,0,0,0,11.653-2.5,23.963,23.963,0,0,1,9.773-2.093,26.6,26.6,0,0,1,10.748,2.377,26.889,26.889,0,0,0-12.416-3.246,24.051,24.051,0,0,0-9.862,2.057,28.379,28.379,0,0,1-23.359,0A28.5,28.5,0,0,0,264.212,45.3Z" transform="translate(-13411.135 4318.941)" fill="url(#linear-gradient-12)"/>
      <path id="패스_526" data-name="패스 526" d="M39.534,412.81a26.729,26.729,0,0,1-12.416-15.431A25.754,25.754,0,0,1,31.942,371.8a28.7,28.7,0,0,0-6.988-44.04,27.1,27.1,0,0,1,0-45.655,28.7,28.7,0,0,0,6.988-44.04,27.1,27.1,0,0,1,14.189-43.42A28.716,28.716,0,0,0,66.281,154.9c-4.966-11.1,0-20.841,2.412-24.512a26.321,26.321,0,0,1,21.816-12.558,25.338,25.338,0,0,1,2.59.142,29.292,29.292,0,0,0,3.051.16,28.7,28.7,0,0,0,28.5-31.7,25.133,25.133,0,0,1,6.563-19.4,28.379,28.379,0,0,1,20.592-9.525A24.051,24.051,0,0,1,161.6,59.6a28.379,28.379,0,0,0,11.653,2.5,28.822,28.822,0,0,0,28.077-22.739C204.149,25.988,216.937,19,228.111,19a25.63,25.63,0,0,1,10.642,2.27,25.186,25.186,0,0,0-12.416-3.139c-11.156,0-23.945,6.988-26.765,20.362a28.84,28.84,0,0,1-28.1,22.739,28.5,28.5,0,0,1-11.635-2.536,23.909,23.909,0,0,0-9.773-2.093,28.237,28.237,0,0,0-20.592,9.525,25.062,25.062,0,0,0-6.563,19.4A28.68,28.68,0,0,1,91.378,117.1a25.677,25.677,0,0,0-2.607-.142,26.3,26.3,0,0,0-21.8,12.558c-2.377,3.672-7.379,13.409-2.465,24.512a28.7,28.7,0,0,1-20.238,39.748A27.1,27.1,0,0,0,30.08,237.2a28.68,28.68,0,0,1-6.971,44.04,27.1,27.1,0,0,0,0,45.655,28.68,28.68,0,0,1,7.077,43.97,25.842,25.842,0,0,0-4.824,25.576A26.446,26.446,0,0,0,39.534,412.81Z" transform="translate(-13596.922 4302.145)" fill="url(#linear-gradient-13)"/>
      <path id="패스_527" data-name="패스 527" d="M177.177,343.55a9.613,9.613,0,0,0-6.492,2.483,43.35,43.35,0,0,1-29.337,11.139,48.28,48.28,0,0,1-20.858-4.842,48.084,48.084,0,0,0,22.614,5.711A43.313,43.313,0,0,0,172.423,346.9a9.72,9.72,0,0,1,9.95-1.774,9.684,9.684,0,0,0-5.2-1.578Z" transform="translate(-13511.915 4553.916)" fill="url(#linear-gradient-14)"/>
      <path id="패스_528" data-name="패스 528" d="M119.177,326.93a9.615,9.615,0,0,0-3.92.834,42.71,42.71,0,0,1-17.506,3.76,45.424,45.424,0,0,1-19.51-4.487,45.778,45.778,0,0,0,21.284,5.321,42.907,42.907,0,0,0,17.506-3.742,9.418,9.418,0,0,1,7.325-.213,9.685,9.685,0,0,0-5.179-1.472Z" transform="translate(-13544.603 4541.058)" fill="url(#linear-gradient-15)"/>
      <path id="패스_529" data-name="패스 529" d="M68.312,297.032a6.841,6.841,0,0,0-1.029,0,45.138,45.138,0,0,1-4.612.231A42.94,42.94,0,0,1,44.35,293.13a42.941,42.941,0,0,0,20.078,5.09,44.792,44.792,0,0,0,4.594-.231,10.354,10.354,0,0,1,1.046,0,9.809,9.809,0,0,1,3.388.621,9.614,9.614,0,0,0-5.144-1.579Z" transform="translate(-13570.823 4514.907)" fill="url(#linear-gradient-16)"/>
      <path id="패스_530" data-name="패스 530" d="M236.009,343.55a9.737,9.737,0,0,0-8.46,4.842,44.644,44.644,0,0,1-39.234,21.994A47.27,47.27,0,0,1,167.74,365.7a47.162,47.162,0,0,0,22.313,5.552A44.679,44.679,0,0,0,229.3,349.261a9.791,9.791,0,0,1,11.83-4.239,9.6,9.6,0,0,0-5.126-1.472Z" transform="translate(-13475.358 4553.916)" fill="url(#linear-gradient-17)"/>
      <path id="패스_531" data-name="패스 531" d="M448.831,273.828c29.3-16.868,29.3-61.6,0-78.485a9.755,9.755,0,0,1-2.377-14.934c20.255-22.437,11.352-58.8-14.4-71.249,24.406,13.214,32.458,48.457,12.664,70.38a9.755,9.755,0,0,0,2.359,14.934c29.319,16.885,29.319,61.618,0,78.485a9.773,9.773,0,0,0-2.359,14.952c22.65,25.1,8.868,67.648-24.246,74.636a9.773,9.773,0,0,0-6.882,13.48c13.161,29.443-10.145,63.728-41.522,63.728a44.773,44.773,0,0,1-4.594-.231,6.9,6.9,0,0,0-1.047,0,9.755,9.755,0,0,0-9.649,10.766c2.909,27.35-20.521,49.876-45.991,49.876a42.567,42.567,0,0,1-17.506-3.76,9.755,9.755,0,0,0-13.48,6.882c-4.629,21.923-24.832,35.474-45.318,35.474A44.341,44.341,0,0,1,216,534.56a44.092,44.092,0,0,0,20.238,4.878c20.433,0,40.67-13.462,45.3-35.473a9.791,9.791,0,0,1,9.56-7.716,9.366,9.366,0,0,1,3.92.851,42.975,42.975,0,0,0,17.506,3.742c25.47,0,48.9-22.508,45.991-49.876a9.755,9.755,0,0,1,9.667-10.748h1.029a44.878,44.878,0,0,0,4.612.231c31.359,0,54.665-34.285,41.522-63.728a9.755,9.755,0,0,1,6.864-13.48c33.079-6.988,46.914-49.539,24.246-74.637a9.773,9.773,0,0,1,2.377-14.775Z" transform="translate(-13438.021 4372.573)" fill="url(#linear-gradient-18)"/>
      <path id="패스_532" data-name="패스 532" d="M208.841,19.554a9.649,9.649,0,0,0,5,4.221,9.49,9.49,0,0,1-3.246-3.352A42.888,42.888,0,0,0,191.92,3.13a42.817,42.817,0,0,1,16.921,16.424Z" transform="translate(-13456.65 4290.54)" fill="url(#linear-gradient-19)"/>
      <path id="패스_533" data-name="패스 533" d="M31.694,253.478a43.281,43.281,0,0,1-9.844-3.388,42.8,42.8,0,0,0,11.582,4.257,9.263,9.263,0,0,1,1.454.443,9.632,9.632,0,0,0-3.193-1.312Z" transform="translate(-13588.23 4481.608)" fill="url(#linear-gradient-20)"/>
      <path id="패스_534" data-name="패스 534" d="M261.9,40.336a9.684,9.684,0,0,0,6.155,7.095,9.649,9.649,0,0,1-4.417-6.208A43.987,43.987,0,0,0,239.2,10.68a43.881,43.881,0,0,1,22.7,29.656Z" transform="translate(-13420.071 4296.381)" fill="url(#linear-gradient-21)"/>
      <path id="패스_535" data-name="패스 535" d="M306.217,76.684a9.738,9.738,0,0,0,6.261,10.145,9.7,9.7,0,0,1-4.523-9.241c2.129-20.06-9.9-37.513-26.605-45.388C297.136,40.412,308.274,57.333,306.217,76.684Z" transform="translate(-13387.461 4313.031)" fill="url(#linear-gradient-22)"/>
      <path id="패스_536" data-name="패스 536" d="M152.759,16.446a10.037,10.037,0,0,0,3.1,1.88,12.413,12.413,0,0,1-1.366-1.011A42.267,42.267,0,0,0,143.66,10.22a42.249,42.249,0,0,1,9.1,6.226Z" transform="translate(-13493.988 4296.025)" fill="url(#linear-gradient-23)"/>
      <path id="패스_537" data-name="패스 537" d="M336.754,124.727a9.773,9.773,0,0,0,5.427,13.037A9.755,9.755,0,0,1,338.51,125.6c10.411-23.306-2.022-49.663-23.2-59.6C335.406,76.642,346.881,102.077,336.754,124.727Z" transform="translate(-13361.187 4339.181)" fill="url(#linear-gradient-24)"/>
      <path id="패스_538" data-name="패스 538" d="M293.617,555.292c-144.129,0-261.387-117.276-261.387-261.405S149.488,32.5,293.617,32.5,555.058,149.758,555.058,293.887,437.764,555.292,293.617,555.292Zm0-511.441c-137.85,0-250.089,112.168-250.089,250.089S155.7,544.029,293.617,544.029,543.706,431.862,543.706,293.94,431.5,43.852,293.617,43.852Z" transform="translate(-13580.2 4313.263)" fill="url(#linear-gradient-25)"/>
      <path id="패스_539" data-name="패스 539" d="M277.084,500.857C153.657,500.857,53.6,400.8,53.6,277.374S153.657,53.89,277.084,53.89,500.568,153.947,500.568,277.374C500.411,400.736,400.446,500.7,277.084,500.857Zm0-435.669c-117.167,0-212.15,94.983-212.15,212.15s94.983,212.15,212.15,212.15,212.15-94.983,212.15-212.15c-.127-117.115-95.035-212.023-212.15-212.15Z" transform="translate(-13563.666 4329.812)" fill="url(#linear-gradient-26)"/>
      <path id="패스_540" data-name="패스 540" d="M183.748,507.04Zm-2.519-6.846a5.161,5.161,0,0,1,6.846-2.519h0a5.179,5.179,0,0,1,2.536,6.846h0a5.144,5.144,0,0,1-6.846,2.519h0a5.179,5.179,0,0,1-2.536-6.846Zm-20.007-5a5.126,5.126,0,0,1-1.774-7.095h0a5.144,5.144,0,0,1,7.095-1.774h0a5.126,5.126,0,0,1,1.774,7.095h0a5.144,5.144,0,0,1-6.58,2.057h0Zm42.959,14.775a5.161,5.161,0,0,1,6.545-3.228h0a5.179,5.179,0,0,1,3.21,6.563h0a5.179,5.179,0,0,1-6.545,3.21h0a2.466,2.466,0,0,1-.5-.213h0A5.162,5.162,0,0,1,204.181,509.967Zm-64.136-28.911A5.144,5.144,0,0,1,139,473.837h0a5.108,5.108,0,0,1,7.2-1.046h0a5.144,5.144,0,0,1,1.046,7.219h0a5.126,5.126,0,0,1-6.279,1.579h0a4.313,4.313,0,0,1-.922-.532Zm87.921,36.254a5.161,5.161,0,0,1,6.172-3.9h0a5.179,5.179,0,0,1,3.884,6.19h0a5.161,5.161,0,0,1-6.172,3.867h0a5.828,5.828,0,0,1-1.029-.337h0A5.144,5.144,0,0,1,227.966,517.31ZM120.445,464.756a5.179,5.179,0,0,1-.3-7.29h0a5.2,5.2,0,0,1,7.29-.284h0a5.161,5.161,0,0,1,.3,7.29h0a5.179,5.179,0,0,1-5.96,1.188h0A5.888,5.888,0,0,1,120.445,464.756ZM252.5,522.081a5.126,5.126,0,0,1,5.711-4.505h0a5.161,5.161,0,0,1,4.505,5.747h0A5.161,5.161,0,0,1,257,527.846h0a5.8,5.8,0,0,1-1.543-.443h0A5.161,5.161,0,0,1,252.5,522.081ZM102.673,446.5a5.179,5.179,0,0,1,.479-7.272h0a5.161,5.161,0,0,1,7.29.479h0a5.179,5.179,0,0,1-.479,7.272h0a5.162,5.162,0,0,1-5.569.78h0a4.9,4.9,0,0,1-1.72-1.259Zm174.654,77.758a5.144,5.144,0,0,1,5.232-5.073h0a5.126,5.126,0,0,1,5.073,5.232h0a5.162,5.162,0,0,1-5.215,5.09h0a5.5,5.5,0,0,1-2.093-.5h0A5.179,5.179,0,0,1,277.328,524.263Zm-190.4-97.854a5.161,5.161,0,0,1,1.259-7.095h0a5.144,5.144,0,0,1,7.095,1.242h0a5.161,5.161,0,0,1-1.242,7.2h0a5.179,5.179,0,0,1-5.144.461h0A5.108,5.108,0,0,1,86.923,426.409Zm215.325,97.375a5.161,5.161,0,0,1,4.682-5.6h0a5.144,5.144,0,0,1,5.587,4.647h0a5.144,5.144,0,0,1-4.665,5.623h0a5.055,5.055,0,0,1-2.625-.443h0a5.179,5.179,0,0,1-2.98-4.168ZM73.443,404.859a5.144,5.144,0,0,1,1.969-7.095h0a5.126,5.126,0,0,1,7.095,1.987h0a5.161,5.161,0,0,1-1.969,7.095h0a5.144,5.144,0,0,1-4.683.177h0a5.161,5.161,0,0,1-2.483-2.111ZM327.079,520.733a5.161,5.161,0,0,1,4.044-6.066h0a5.161,5.161,0,0,1,6.066,4.062h0a5.144,5.144,0,0,1-4.044,6.066h0a5.2,5.2,0,0,1-3.175-.372h0a5.2,5.2,0,0,1-2.962-3.636ZM62.127,382.067a5.161,5.161,0,0,1,2.661-6.793h0a5.144,5.144,0,0,1,6.775,2.7h0a5.161,5.161,0,0,1-2.7,6.775h0a5.179,5.179,0,0,1-4.2,0h0A5.126,5.126,0,0,1,62.127,382.067ZM351.237,515.2a5.144,5.144,0,0,1,3.388-6.456h0a5.179,5.179,0,0,1,6.456,3.423h0a5.143,5.143,0,0,1-3.388,6.438h0a5.108,5.108,0,0,1-3.707-.248h0a5.09,5.09,0,0,1-2.678-3.175ZM53.258,358.176a5.179,5.179,0,0,1,3.405-6.474h0a5.161,5.161,0,0,1,6.438,3.405h0a5.144,5.144,0,0,1-3.388,6.456h0a5.162,5.162,0,0,1-3.689-.248h0a5.09,5.09,0,0,1-2.714-3.157ZM374.845,507.165a5.144,5.144,0,0,1,2.7-6.776h0a5.179,5.179,0,0,1,6.775,2.714h0a5.144,5.144,0,0,1-2.7,6.776h0a5.179,5.179,0,0,1-4.2,0h0a5,5,0,0,1-2.519-2.785ZM47.051,333.468h0a5.126,5.126,0,0,1,4.026-6.066h0a5.161,5.161,0,0,1,6.084,4.062h0a5.161,5.161,0,0,1-4.062,6.048h0a5.144,5.144,0,0,1-3.157-.372h0a5.126,5.126,0,0,1-2.891-3.671ZM397.512,496.647a5.126,5.126,0,0,1,1.987-7.006h0a5.126,5.126,0,0,1,7.006,1.987h0a5.144,5.144,0,0,1-1.987,7.006h0a5.144,5.144,0,0,1-4.683.177h0a5.162,5.162,0,0,1-2.324-2.235ZM43.361,308.264a5.2,5.2,0,0,1,4.665-5.623h0a5.179,5.179,0,0,1,5.623,4.665h0a5.2,5.2,0,0,1-4.665,5.587h0a5.179,5.179,0,0,1-2.625-.461h0A5.215,5.215,0,0,1,43.361,308.264ZM418.9,483.77a5.2,5.2,0,0,1,1.259-7.2h0a5.144,5.144,0,0,1,7.095,1.259h0a5.144,5.144,0,0,1-1.224,7.183h0a5.179,5.179,0,0,1-5.144.461h0a5.553,5.553,0,0,1-1.987-1.7ZM42.35,282.83h0a5.179,5.179,0,0,1,5.232-5.108h0a5.144,5.144,0,0,1,5.073,5.321h0a5.144,5.144,0,0,1-5.215,5.02h0a5.321,5.321,0,0,1-2.093-.479h0A5.144,5.144,0,0,1,42.35,282.83ZM438.857,468.782a5.144,5.144,0,0,1,.479-7.272h0a5.179,5.179,0,0,1,7.29.479h0a5.144,5.144,0,0,1-.5,7.272h0a5.144,5.144,0,0,1-5.552.816h0A4.842,4.842,0,0,1,438.857,468.782ZM44.018,257.4a5.179,5.179,0,0,1,5.729-4.523h0a5.161,5.161,0,0,1,4.523,5.729h0a5.161,5.161,0,0,1-5.747,4.523h0a4.682,4.682,0,0,1-1.543-.443h0a5.144,5.144,0,0,1-2.962-5.286Zm413.09,194.413a5.2,5.2,0,0,1-.284-7.29h0a5.144,5.144,0,0,1,7.29-.3h0a5.161,5.161,0,0,1,.3,7.29h0a5.126,5.126,0,0,1-5.96,1.188h0A5.323,5.323,0,0,1,457.108,451.808ZM48.363,232.28a5.144,5.144,0,0,1,6.172-3.867h0a5.126,5.126,0,0,1,3.884,6.155h0a5.144,5.144,0,0,1-6.19,3.831h0a4.293,4.293,0,0,1-1.011-.355h0a5.144,5.144,0,0,1-2.856-5.764ZM473.5,432.989a5.179,5.179,0,0,1-1.046-7.236h0a5.179,5.179,0,0,1,7.219-1.047h0a5.215,5.215,0,0,1,1.047,7.237h0a5.2,5.2,0,0,1-6.314,1.579h0A4.648,4.648,0,0,1,473.5,432.989ZM55.3,207.732a5.161,5.161,0,0,1,6.563-3.21h0a5.144,5.144,0,0,1,3.193,6.545h0a5.126,5.126,0,0,1-6.527,3.21h0l-.5-.2h0a5.179,5.179,0,0,1-2.731-6.3ZM487.793,412.557a5.179,5.179,0,0,1-1.774-7.095h0a5.161,5.161,0,0,1,7.095-1.774h0a5.161,5.161,0,0,1,1.774,7.095h0a5.161,5.161,0,0,1-6.58,2.057h0ZM64.787,184.142a5.161,5.161,0,0,1,6.811-2.5h0a5.144,5.144,0,0,1,2.519,6.846h0a5.161,5.161,0,0,1-6.846,2.519h0a5.179,5.179,0,0,1-2.483-6.864Zm432.565,199.7.106-.213h0a1.614,1.614,0,0,1,.124-.248h0a5.161,5.161,0,0,1,6.829-2.554h0a5.2,5.2,0,0,1,2.536,6.864h0l-.124.231h0a1.046,1.046,0,0,1-.106.248h0a5.161,5.161,0,0,1-6.846,2.519h0a5.179,5.179,0,0,1-2.519-6.846ZM78.391,168.676a5.179,5.179,0,0,1-1.774-7.095h0a5.144,5.144,0,0,1,7.095-1.774h0a5.179,5.179,0,0,1,1.774,7.095h0a5.2,5.2,0,0,1-6.616,2.057h0Zm428.2,192.107a5.2,5.2,0,0,1,6.563-3.228h0a5.179,5.179,0,0,1,3.228,6.545h0a5.161,5.161,0,0,1-6.563,3.21h0l-.5-.177h0a5.2,5.2,0,0,1-2.732-6.35ZM91.783,147.622a5.144,5.144,0,0,1-1.046-7.219h0a5.161,5.161,0,0,1,7.219-1.046h0A5.179,5.179,0,0,1,99,146.575h0a5.179,5.179,0,0,1-6.314,1.6h0A4.735,4.735,0,0,1,91.783,147.622Zm421.444,189.66a5.144,5.144,0,0,1,6.155-3.884h0a5.144,5.144,0,0,1,3.9,6.172h0a5.144,5.144,0,0,1-6.155,3.9h0a7.766,7.766,0,0,1-1.029-.355h0a5.179,5.179,0,0,1-2.873-5.835ZM107.356,128.094a5.179,5.179,0,0,1-.3-7.29h0a5.144,5.144,0,0,1,7.29-.266h0a5.126,5.126,0,0,1,.3,7.254h0a5.161,5.161,0,0,1-5.96,1.188h0A4.843,4.843,0,0,1,107.356,128.094ZM517.413,313.266h0a5.144,5.144,0,0,1,5.729-4.523h0a5.144,5.144,0,0,1,4.505,5.729h0a5.126,5.126,0,0,1-5.711,4.505h0a5.217,5.217,0,0,1-1.579-.443h0a5.162,5.162,0,0,1-3-5.268ZM124.791,110.321a5.126,5.126,0,0,1,.479-7.29h0a5.161,5.161,0,0,1,7.272.479h0a5.144,5.144,0,0,1-.5,7.272h0a5.126,5.126,0,0,1-5.552.8h0A5.127,5.127,0,0,1,124.791,110.321ZM518.85,288.913a5.161,5.161,0,0,1,5.215-5.09h0a5.161,5.161,0,0,1,5.108,5.215h0a5.179,5.179,0,0,1-5.215,5.108h0a5.321,5.321,0,0,1-2.111-.479h0a5.179,5.179,0,0,1-3-4.753ZM144.035,94.447a5.126,5.126,0,0,1,1.242-7.095h0a5.126,5.126,0,0,1,7.183,1.224h0a5.161,5.161,0,0,1-1.242,7.2h0a5.161,5.161,0,0,1-5.144.461h0A5.321,5.321,0,0,1,144.035,94.447ZM517.927,264.561a5.2,5.2,0,0,1,4.647-5.64h0a5.179,5.179,0,0,1,5.623,4.665h0a5.179,5.179,0,0,1-4.647,5.64h0a5.32,5.32,0,0,1-2.661-.461h0a5.2,5.2,0,0,1-2.962-4.2ZM164.858,80.719a5.144,5.144,0,0,1,1.969-7.095h0a5.161,5.161,0,0,1,7.095,1.969h0a5.179,5.179,0,0,1-1.987,7.095h0a5.144,5.144,0,0,1-4.682.177h0a5.161,5.161,0,0,1-2.394-2.146ZM514.4,240.35a5.144,5.144,0,0,1,4.026-6.066h0a5.179,5.179,0,0,1,6.084,4.044h0a5.161,5.161,0,0,1-4.062,6.066h0a5.144,5.144,0,0,1-3.157-.373h0a5.161,5.161,0,0,1-2.891-3.6ZM186.976,69.208a5.126,5.126,0,0,1,2.714-6.758h0a5.144,5.144,0,0,1,6.775,2.7h0a5.179,5.179,0,0,1-2.7,6.775h0a5.144,5.144,0,0,1-4.221,0h0A5.055,5.055,0,0,1,186.976,69.208ZM508.35,216.778a5.2,5.2,0,0,1,3.388-6.456h0a5.144,5.144,0,0,1,6.456,3.405h0a5.144,5.144,0,0,1-3.37,6.456h0a5.215,5.215,0,0,1-3.707-.248h0a5.179,5.179,0,0,1-2.767-3.157ZM210.229,60.091a5.161,5.161,0,0,1,3.405-6.474h0A5.161,5.161,0,0,1,220.073,57h0a5.161,5.161,0,0,1-3.388,6.456h0a5.108,5.108,0,0,1-3.707-.231h0A5.161,5.161,0,0,1,210.229,60.091ZM499.942,193.9a5.144,5.144,0,0,1,2.7-6.775h0a5.161,5.161,0,0,1,6.775,2.714h0a5.161,5.161,0,0,1-2.7,6.758h0a5.215,5.215,0,0,1-4.221,0h0a5.161,5.161,0,0,1-2.59-2.7ZM234.209,53.4a5.161,5.161,0,0,1,4.062-6.066h0a5.144,5.144,0,0,1,6.066,4.044h0a5.161,5.161,0,0,1-4.062,6.1h0a4.913,4.913,0,0,1-3.157-.372h0A5.108,5.108,0,0,1,234.209,53.4ZM489.087,172.01a5.179,5.179,0,0,1,2-7.006h0a5.126,5.126,0,0,1,7.006,1.969h0a5.179,5.179,0,0,1-1.969,7.095h0a5.321,5.321,0,0,1-4.7.177h0a5.321,5.321,0,0,1-2.341-2.235ZM258.81,49.254a5.144,5.144,0,0,1,4.629-5.6h0a5.161,5.161,0,0,1,5.6,4.647h0a5.161,5.161,0,0,1-4.612,5.64h0a5.126,5.126,0,0,1-2.661-.461h0A5.144,5.144,0,0,1,258.81,49.254ZM476.086,151.382a5.144,5.144,0,0,1,1.242-7.095h0a5.144,5.144,0,0,1,7.095,1.242h0a5.144,5.144,0,0,1-1.224,7.095h0a5.161,5.161,0,0,1-5.144.461h0A5.321,5.321,0,0,1,476.086,151.382ZM283.677,47.711a5.179,5.179,0,0,1,5.215-5.09h0A5.179,5.179,0,0,1,294,47.941h0a5.144,5.144,0,0,1-5.215,5.09h0a5.179,5.179,0,0,1-2.093-.479h0A5.162,5.162,0,0,1,283.677,47.711Zm177.368,84.516a5.161,5.161,0,0,1,.461-7.29h0a5.2,5.2,0,0,1,7.29.479h0a5.179,5.179,0,0,1-.5,7.29h0a5.162,5.162,0,0,1-5.552.816h0a5,5,0,0,1-1.756-1.295ZM308.668,48.863a5.161,5.161,0,0,1,5.729-4.523h0a5.161,5.161,0,0,1,4.505,5.729h0a5.144,5.144,0,0,1-5.8,4.434h0a4.63,4.63,0,0,1-1.561-.426h0a5.126,5.126,0,0,1-2.927-5.286Zm135.35,65.963a5.126,5.126,0,0,1-.284-7.29h0a5.161,5.161,0,0,1,7.272-.3h0a5.161,5.161,0,0,1,.284,7.308h0a5.144,5.144,0,0,1-5.96,1.171h0a4.9,4.9,0,0,1-1.366-.958ZM333.269,52.482a5.161,5.161,0,0,1,6.172-3.9h0a5.2,5.2,0,0,1,3.813,6.19h0a5.126,5.126,0,0,1-6.155,3.884h0a6.047,6.047,0,0,1-1.046-.355h0A5.144,5.144,0,0,1,333.269,52.482Zm91.912,46.7a5.179,5.179,0,0,1-1.064-7.219h0a5.2,5.2,0,0,1,7.219-1.064h0a5.161,5.161,0,0,1,1.064,7.219h0a5.161,5.161,0,0,1-6.3,1.614h0A7.1,7.1,0,0,1,425.182,99.183ZM357.445,58.725a5.179,5.179,0,0,1,6.563-3.193h0a5.179,5.179,0,0,1,3.228,6.545h0a5.179,5.179,0,0,1-6.563,3.21h0a3.21,3.21,0,0,1-.5-.213h0a5.179,5.179,0,0,1-2.732-6.35Zm47.481,26.942a5.161,5.161,0,0,1-1.774-7.095h0a5.179,5.179,0,0,1,7.095-1.774h0a5.161,5.161,0,0,1,1.774,7.095h0a5.179,5.179,0,0,1-6.687,1.969h0ZM380.8,67.487a5.126,5.126,0,0,1,6.793-2.519h0a5.179,5.179,0,0,1,2.519,6.846h0a5.161,5.161,0,0,1-6.846,2.519h0a5.161,5.161,0,0,1-2.519-6.846Z" transform="translate(-13572.37 4321.092)" fill="url(#linear-gradient-27)"/>
      <path id="패스_541" data-name="패스 541" d="M293.334,554.721C149.2,554.721,32,437.463,32,293.334S149.2,32,293.334,32,554.721,149.187,554.721,293.334,437.463,554.721,293.334,554.721Zm0-511.423C155.466,43.3,43.245,155.466,43.245,293.387S155.413,543.476,293.334,543.476s250.089-112.15,250.089-250.089S431.2,43.3,293.334,43.3Z" transform="translate(-13580.378 4312.876)" fill="url(#linear-gradient-28)"/>
      <path id="패스_542" data-name="패스 542" d="M276.824,500.317C153.4,500.317,53.34,400.26,53.34,276.834S153.4,53.35,276.824,53.35,500.308,153.407,500.308,276.834C500.151,400.2,400.186,500.161,276.824,500.318Zm0-435.651C159.668,64.715,64.73,159.719,64.763,276.875s95.024,212.107,212.18,212.091c117.126,0,212.1-94.965,212.12-212.12C488.942,159.689,393.98,64.754,276.824,64.666Z" transform="translate(-13563.867 4329.394)" fill="url(#linear-gradient-29)"/>
      <path id="패스_543" data-name="패스 543" d="M183.47,506.462Zm-2.519-6.846a5.161,5.161,0,0,1,6.846-2.5h0a5.161,5.161,0,0,1,2.536,6.846h0a5.161,5.161,0,0,1-6.846,2.519h0a5.2,5.2,0,0,1-2.536-6.864Zm-19.989-4.984a5.161,5.161,0,0,1-1.774-7.095h0a5.144,5.144,0,0,1,7.095-1.774h0a5.144,5.144,0,0,1,1.774,7.095h0a5.126,5.126,0,0,1-6.58,2.04h0Zm42.959,14.775a5.144,5.144,0,0,1,6.527-3.228h0a5.161,5.161,0,0,1,3.228,6.545h0a5.2,5.2,0,0,1-6.563,3.228h0l-.5-.213h0a5.144,5.144,0,0,1-2.7-6.332Zm-64.154-28.929a5.108,5.108,0,0,1-1.046-7.2h0a5.108,5.108,0,0,1,7.2-1.046h0a5.144,5.144,0,0,1,1.064,7.2h0a5.179,5.179,0,0,1-6.3,1.6h0A4.875,4.875,0,0,1,139.767,480.478Zm87.975,36.254a5.161,5.161,0,0,1,6.172-3.884h0a5.161,5.161,0,0,1,3.884,6.172h0a5.144,5.144,0,0,1-6.172,3.867h0a3.886,3.886,0,0,1-1.029-.337h0a5.161,5.161,0,0,1-2.856-5.818ZM120.167,464.2a5.179,5.179,0,0,1-.2-7.254h0a5.161,5.161,0,0,1,7.29-.284h0a5.179,5.179,0,0,1,.284,7.29h0a5.144,5.144,0,0,1-5.96,1.171h0a5.319,5.319,0,0,1-1.419-.922ZM252.218,521.5a5.126,5.126,0,0,1,5.711-4.487h0a5.179,5.179,0,0,1,4.505,5.747h0a5.161,5.161,0,0,1-5.729,4.505h0a5.32,5.32,0,0,1-1.543-.443h0a5.144,5.144,0,0,1-2.944-5.321ZM102.413,445.944a5.161,5.161,0,0,1,.479-7.29h0a5.179,5.179,0,0,1,7.272.479h0a5.144,5.144,0,0,1-.479,7.272h0a5.161,5.161,0,0,1-5.569.8h0a5.127,5.127,0,0,1-1.7-1.259ZM277.05,523.7a5.162,5.162,0,0,1,5.232-5.091h0a5.144,5.144,0,0,1,5.073,5.321h0a5.144,5.144,0,0,1-5.215,5.09h0a5.551,5.551,0,0,1-2.093-.479h0A5.2,5.2,0,0,1,277.05,523.7Zm-190.4-97.8a5.179,5.179,0,0,1,1.259-7.183h0A5.161,5.161,0,0,1,95,419.96h0a5.2,5.2,0,0,1-1.242,7.2h0a5.215,5.215,0,0,1-5.144.461h0a5.055,5.055,0,0,1-1.969-1.721ZM301.97,523.259a5.179,5.179,0,0,1,4.683-5.6h0a5.2,5.2,0,0,1,5.6,4.665h0a5.179,5.179,0,0,1-4.665,5.623h0a5.126,5.126,0,0,1-2.643-.461h0A5.2,5.2,0,0,1,301.97,523.259ZM73.165,404.422a5.161,5.161,0,0,1,1.969-7.095h0a5.126,5.126,0,0,1,7.095,1.987h0a5.161,5.161,0,0,1-1.987,7.095h0a5.2,5.2,0,0,1-4.683.16h0a5.073,5.073,0,0,1-2.465-2.235ZM326.8,520.314a5.126,5.126,0,0,1,4.026-6.066h0a5.179,5.179,0,0,1,6.084,4.062h0a5.161,5.161,0,0,1-4.1,6.03h0a5,5,0,0,1-3.157-.372h0a5.091,5.091,0,0,1-2.909-3.743ZM61.849,381.489a5.144,5.144,0,0,1,2.7-6.776h0a5.144,5.144,0,0,1,6.775,2.7h0a5.144,5.144,0,0,1-2.7,6.811h0a5.321,5.321,0,0,1-4.2,0h0a5.321,5.321,0,0,1-2.572-2.731Zm289.11,133.132a5.161,5.161,0,0,1,3.405-6.456h0a5.161,5.161,0,0,1,6.438,3.406h0a5.126,5.126,0,0,1-3.388,6.438h0a5.126,5.126,0,0,1-3.707-.231h0a5.091,5.091,0,0,1-2.678-3.157ZM53.034,357.615a5.161,5.161,0,0,1,3.405-6.456h0a5.144,5.144,0,0,1,6.438,3.405h0a5.126,5.126,0,0,1-3.388,6.456h0a5.108,5.108,0,0,1-3.672-.248h0a5.321,5.321,0,0,1-2.785-3.157ZM374.62,506.6a5.161,5.161,0,0,1,2.7-6.775h0a5.161,5.161,0,0,1,6.758,2.714h0a5.161,5.161,0,0,1-2.7,6.775h0a5.321,5.321,0,0,1-4.2,0h0a5.2,5.2,0,0,1-2.554-2.714ZM46.773,332.89h0a5.161,5.161,0,0,1,4.026-6.066h0a5.144,5.144,0,0,1,6.066,4.062h0a5.2,5.2,0,0,1-4.044,6.066h0a5.2,5.2,0,0,1-3.175-.372h0A5.144,5.144,0,0,1,46.773,332.89ZM397.234,496.068a5.162,5.162,0,0,1,1.987-7.006h0a5.126,5.126,0,0,1,7.006,2h0a5.144,5.144,0,0,1-1.987,7.006h0a5.162,5.162,0,0,1-4.665.177h0a5.143,5.143,0,0,1-2.341-2.288ZM43.083,307.686a5.179,5.179,0,0,1,4.665-5.6h0a5.161,5.161,0,0,1,5.623,4.665h0a5.161,5.161,0,0,1-4.665,5.6h0a4.86,4.86,0,0,1-2.625-.461h0a5.179,5.179,0,0,1-3-4.2ZM418.625,483.28a5.179,5.179,0,0,1,1.259-7.183h0a5.161,5.161,0,0,1,7.095,1.242h0a5.144,5.144,0,0,1-1.242,7.183h0a5.126,5.126,0,0,1-5.144.461h0a5.321,5.321,0,0,1-1.969-1.792ZM42.09,282.251h0a5.179,5.179,0,0,1,5.161-5.108h0a5.161,5.161,0,0,1,5.073,5.321h0a5.126,5.126,0,0,1-5.073,5h0A4.948,4.948,0,0,1,45.158,287h0a5.179,5.179,0,0,1-3.068-4.753Zm396.489,185.97a5.161,5.161,0,0,1,.479-7.272h0a5.179,5.179,0,0,1,7.308.479h0a5.161,5.161,0,0,1-.514,7.272h0a5.162,5.162,0,0,1-5.552.816h0a5.319,5.319,0,0,1-1.72-1.295ZM43.7,256.817a5.126,5.126,0,0,1,5.711-4.505h0a5.179,5.179,0,0,1,4.541,5.729h0a5.179,5.179,0,0,1-5.747,4.523h0a5.657,5.657,0,0,1-1.561-.443h0A5.162,5.162,0,0,1,43.7,256.817ZM456.794,451.23a5.179,5.179,0,0,1-.284-7.29h0a5.161,5.161,0,0,1,7.29-.284h0a5.179,5.179,0,0,1,.284,7.29h0a5.179,5.179,0,0,1-5.96,1.188h0a5.885,5.885,0,0,1-1.277-.9ZM48.085,231.684a5.126,5.126,0,0,1,6.261-3.831h0a5.126,5.126,0,0,1,3.884,6.155h0a5.161,5.161,0,0,1-6.19,3.884h0a4.591,4.591,0,0,1-1.011-.355h0a5.161,5.161,0,0,1-2.944-5.853ZM473.219,432.429a5.161,5.161,0,0,1-1.029-7.237h0a5.126,5.126,0,0,1,7.2-1.046h0a5.2,5.2,0,0,1,1.046,7.237h0a5.179,5.179,0,0,1-6.3,1.579h0a6.872,6.872,0,0,1-.922-.532ZM55.038,207.171a5.144,5.144,0,0,1,6.545-3.228h0a5.179,5.179,0,0,1,3.21,6.563h0a5.126,5.126,0,0,1-6.527,3.193h0l-.514-.177h0a5.161,5.161,0,0,1-2.714-6.3ZM487.515,412a5.215,5.215,0,0,1-1.774-7.095h0a5.161,5.161,0,0,1,7.095-1.774h0a5.161,5.161,0,0,1,1.774,7.095h0a5.144,5.144,0,0,1-6.58,2.04h0ZM64.492,183.581a5.144,5.144,0,0,1,6.846-2.519h0a5.179,5.179,0,0,1,2.519,6.846h0a5.161,5.161,0,0,1-6.846,2.5h0a5.126,5.126,0,0,1-2.519-6.829Zm432.6,199.752.089-.213h0l.124-.266h0a5.179,5.179,0,0,1,6.829-2.536h0a5.161,5.161,0,0,1,2.536,6.846h0l-.106.248h0l-.124.248h0a5.144,5.144,0,0,1-6.829,2.5h0a5.126,5.126,0,0,1-2.519-6.829ZM78.113,168.115a5.2,5.2,0,0,1-1.774-7.095h0a5.161,5.161,0,0,1,7.095-1.774h0a5.144,5.144,0,0,1,1.774,7.095h0a5.179,5.179,0,0,1-6.616,2.057h0Zm428.22,192.072a5.161,5.161,0,0,1,6.545-3.21h0a5.161,5.161,0,0,1,3.228,6.545h0a5.144,5.144,0,0,1-6.545,3.21h0a3.76,3.76,0,0,1-.514-.2h0a5.161,5.161,0,0,1-2.714-6.35ZM91.593,147.044a5.144,5.144,0,0,1-1.046-7.2h0a5.161,5.161,0,0,1,7.219-1.046h0a5.144,5.144,0,0,1,1.046,7.2h0a5.179,5.179,0,0,1-6.314,1.614h0a4.823,4.823,0,0,1-.9-.568ZM512.967,336.721a5.126,5.126,0,0,1,6.084-3.938h0a5.179,5.179,0,0,1,3.9,6.172h0a5.162,5.162,0,0,1-6.172,3.884h0a4.537,4.537,0,0,1-1.011-.355h0a5.108,5.108,0,0,1-2.8-5.764ZM107.024,127.515a5.161,5.161,0,0,1-.284-7.29h0a5.126,5.126,0,0,1,7.272-.266h0a5.161,5.161,0,0,1,.3,7.272h0a5.2,5.2,0,0,1-5.96,1.188h0a5.32,5.32,0,0,1-1.33-.9ZM517.082,312.688h0a5.144,5.144,0,0,1,5.729-4.505h0a5.161,5.161,0,0,1,4.523,5.729h0a5.161,5.161,0,0,1-5.729,4.505h0a5.658,5.658,0,0,1-1.561-.443h0a5.179,5.179,0,0,1-2.962-5.285ZM124.513,109.743a5.108,5.108,0,0,1,.479-7.272h0a5.144,5.144,0,0,1,7.272.479h0a5.144,5.144,0,0,1-.5,7.272h0a5.126,5.126,0,0,1-5.552.8h0a5.179,5.179,0,0,1-1.7-1.277Zm394.13,178.7a5.144,5.144,0,0,1,5.215-5.09h0a5.161,5.161,0,0,1,5.126,5.09h0a5.162,5.162,0,0,1-5.321,5.108h0a5.161,5.161,0,0,1-2.093-.461h0A5.179,5.179,0,0,1,518.643,288.441ZM143.757,93.869a5.161,5.161,0,0,1,1.259-7.095h0A5.126,5.126,0,0,1,152.111,88h0a5.161,5.161,0,0,1-1.224,7.2h0a5.126,5.126,0,0,1-5.144.461h0A5.02,5.02,0,0,1,143.757,93.869Zm373.91,170.114a5.161,5.161,0,0,1,4.647-5.623h0a5.161,5.161,0,0,1,5.6,4.665h0a5.179,5.179,0,0,1-4.647,5.623h0a5.091,5.091,0,0,1-2.643-.443h0a5.126,5.126,0,0,1-2.962-4.221ZM164.58,80.14a5.144,5.144,0,0,1,1.987-7.095h0a5.126,5.126,0,0,1,7.095,1.969h0a5.179,5.179,0,0,1-1.969,7.095h0a5.321,5.321,0,0,1-4.7.16h0a5.072,5.072,0,0,1-2.412-2.128ZM514.12,239.772a5.179,5.179,0,0,1,4.026-6.066h0a5.215,5.215,0,0,1,6.1,4.044h0a5.2,5.2,0,0,1-4.062,6.084h0a5.2,5.2,0,0,1-3.175-.372h0a5.2,5.2,0,0,1-2.891-3.618ZM186.7,68.647a5.179,5.179,0,0,1,2.714-6.775h0a5.144,5.144,0,0,1,6.829,2.714h0a5.179,5.179,0,0,1-2.7,6.775h0a5.215,5.215,0,0,1-4.221,0h0a5.2,5.2,0,0,1-2.625-2.714Zm321.373,147.57a5.179,5.179,0,0,1,3.388-6.456h0a5.144,5.144,0,0,1,6.456,3.388h0a5.161,5.161,0,0,1-3.37,6.474h0a5.214,5.214,0,0,1-3.707-.266h0a5.2,5.2,0,0,1-2.767-3.139ZM209.916,59.512a5.144,5.144,0,0,1,3.405-6.456h0a5.161,5.161,0,0,1,6.456,3.388h0a5.179,5.179,0,0,1-3.405,6.456h0a5.037,5.037,0,0,1-3.707-.248h0A5.215,5.215,0,0,1,209.916,59.512ZM499.629,193.337a5.144,5.144,0,0,1,2.7-6.775h0a5.144,5.144,0,0,1,6.775,2.7h0a5.161,5.161,0,0,1-2.7,6.775h0a5.144,5.144,0,0,1-4.221,0h0A5.055,5.055,0,0,1,499.629,193.337ZM233.949,52.826a5.144,5.144,0,0,1,4.044-6.048h0a5.144,5.144,0,0,1,6.137,3.991h0a5.161,5.161,0,0,1-4.044,6.066h0a5.073,5.073,0,0,1-3.175-.372h0a5.161,5.161,0,0,1-2.962-3.636ZM488.9,171.378a5.143,5.143,0,0,1,1.987-7.095h0a5.162,5.162,0,0,1,7.095,1.969h0a5.2,5.2,0,0,1-1.987,7.095h0a5.179,5.179,0,0,1-4.7.16h0a5.321,5.321,0,0,1-2.394-2.128ZM258.532,48.693a5.161,5.161,0,0,1,4.665-5.6h0a5.126,5.126,0,0,1,5.6,4.647h0a5.161,5.161,0,0,1-4.647,5.623h0a5.321,5.321,0,0,1-2.661-.461h0A5.179,5.179,0,0,1,258.532,48.693ZM475.808,150.821a5.144,5.144,0,0,1,1.242-7.095h0a5.161,5.161,0,0,1,7.183,1.224h0a5.126,5.126,0,0,1-1.242,7.095h0a5.126,5.126,0,0,1-5.144.461h0A5.321,5.321,0,0,1,475.808,150.821ZM283.417,47.221a5.126,5.126,0,0,1,5.215-5.09h0a5.162,5.162,0,0,1,5.161,5.091h0a5.144,5.144,0,0,1-5.321,5.144h0a5.179,5.179,0,0,1-2.111-.461h0A5.2,5.2,0,0,1,283.417,47.221Zm177.368,84.516a5.144,5.144,0,0,1,.461-7.29h0a5.144,5.144,0,0,1,7.272.479h0a5.161,5.161,0,0,1-.479,7.272h0a5.161,5.161,0,0,1-5.569.816h0a4.9,4.9,0,0,1-1.738-1.348ZM308.39,48.374a5.161,5.161,0,0,1,5.676-4.7h0a5.126,5.126,0,0,1,4.558,5.747h0a5.126,5.126,0,0,1-5.711,4.523h0a5.054,5.054,0,0,1-1.579-.426h0a5.144,5.144,0,0,1-3-5.3Zm135.35,65.981a5.126,5.126,0,0,1-.284-7.29h0a5.161,5.161,0,0,1,7.272-.3h0a5.143,5.143,0,0,1,.284,7.29h0a5.126,5.126,0,0,1-5.942,1.188h0a5.445,5.445,0,0,1-1.383-1.046ZM332.991,51.921a5.179,5.179,0,0,1,6.172-3.9h0a5.179,5.179,0,0,1,3.884,6.19h0a5.108,5.108,0,0,1-6.155,3.867h0a4.824,4.824,0,0,1-1.046-.337h0a5.161,5.161,0,0,1-2.856-5.818Zm91.93,46.736a5.179,5.179,0,0,1-1.082-7.219h0a5.179,5.179,0,0,1,7.219-1.064h0a5.161,5.161,0,0,1,1.082,7.219h0a5.179,5.179,0,0,1-6.314,1.6h0A4.646,4.646,0,0,1,424.921,98.658Zm-67.79-40.493a5.161,5.161,0,0,1,6.545-3.193h0A5.144,5.144,0,0,1,366.9,61.5h0a5.179,5.179,0,0,1-6.563,3.228h0l-.5-.213h0a5.161,5.161,0,0,1-2.714-6.35ZM404.6,85.089a5.161,5.161,0,0,1-1.774-7.095h0a5.161,5.161,0,0,1,7.095-1.774h0a5.144,5.144,0,0,1,1.774,7.095h0a5.162,5.162,0,0,1-6.616,2.04h0A4.144,4.144,0,0,1,404.6,85.089Zm-24.1-18.162a5.144,5.144,0,0,1,6.829-2.536h0a5.161,5.161,0,0,1,2.5,6.846h0a5.161,5.161,0,0,1-6.811,2.59h0a5.144,5.144,0,0,1-2.519-6.9Z" transform="translate(-13572.571 4320.713)" fill="url(#linear-gradient-30)"/>
    </g>
    <path id="패스_591" data-name="패스 591" d="M53-66.709q6.328,4.614,13.579,9.031t16.875,9.031L72.378-38.76Q66.05-44.033,59.854-49.768T47.2-61.04a120.6,120.6,0,0,1-20.1,15.82A164.6,164.6,0,0,1,5.8-33.882L1.714-39.155a113.483,113.483,0,0,0,15.952-9.558A116.278,116.278,0,0,0,31.838-60.645a106.841,106.841,0,0,0,11.6-13.513,72.271,72.271,0,0,0,8.108-14.3q-3.691.132-8.5.4t-8.5.4a38.109,38.109,0,0,0-3.889.264q-2.439.264-5.273.593t-5.669.725q-2.834.4-5.076.791L6.592-97.69q1.582.264,4.482.659t6.2.725q3.3.33,6.46.593t5.405.264q4.746,0,9.756-.2t9.954-.593q4.944-.4,9.426-1.121t8.306-1.648l4.878,4.482a73.08,73.08,0,0,1-7.712,14.832A88.267,88.267,0,0,1,53-66.709ZM79.365-30.85a31.476,31.476,0,0,1,9.229,2.9,27.615,27.615,0,0,1,7.251,5.142,23.121,23.121,0,0,1,4.746,6.79A19.3,19.3,0,0,1,102.3-7.91a19.1,19.1,0,0,1-2.241,9.1,23.576,23.576,0,0,1-6.2,7.383,29.68,29.68,0,0,1-9.36,4.944,37.311,37.311,0,0,1-11.733,1.78,38.828,38.828,0,0,1-12.063-1.78,29.56,29.56,0,0,1-9.426-4.944,22.786,22.786,0,0,1-6.13-7.383,19.561,19.561,0,0,1-2.175-9.1,20.208,20.208,0,0,1,1.714-8.24,21.56,21.56,0,0,1,4.878-6.921,28.761,28.761,0,0,1,7.581-5.142,31.347,31.347,0,0,1,9.69-2.769,3.117,3.117,0,0,0-1.384-2.439,16.831,16.831,0,0,0-4.285-1.78l2.9-4.878q1.45.264,3.691.725t4.68.923q2.439.461,4.812,1.055l3.955.989A40.441,40.441,0,0,0,79.365-30.85ZM86.748-8.833A15.235,15.235,0,0,0,85.562-14.9a16.461,16.461,0,0,0-3.1-4.812,14.259,14.259,0,0,0-4.482-3.23,12.6,12.6,0,0,0-5.339-1.187,13.653,13.653,0,0,0-5.669,1.187,14.821,14.821,0,0,0-4.614,3.23A15.784,15.784,0,0,0,59.194-14.9a15.235,15.235,0,0,0-1.187,6.064,15.579,15.579,0,0,0,1.187,6.2,16.659,16.659,0,0,0,3.164,4.878,13.5,13.5,0,0,0,4.614,3.23,14.341,14.341,0,0,0,5.669,1.121,13.227,13.227,0,0,0,5.339-1.121,13.677,13.677,0,0,0,4.548-3.23,15.639,15.639,0,0,0,3.1-4.878A16.382,16.382,0,0,0,86.748-8.833Zm15.82-46.011q0,2.373-.2,5.6t-.461,6.526q-.264,3.3-.593,6.2a36.686,36.686,0,0,1-.725,4.482L88.857-30.19q-.264-1.45-.461-3.691t-.33-4.68Q87.935-41,87.8-43.374t-.132-4.219v-48.12a7.3,7.3,0,0,0-3.625-6.262q-3.625-2.439-12.327-4.68l2.241-5.8q3.3.4,7.581,1.055t8.438,1.45q4.153.791,7.91,1.45t6.13,1.055q-.264,1.187-.527,3.164t-.461,3.955q-.2,1.978-.33,3.494t-.132,1.648v23.2q2.769-.264,6.2-.659t6.921-.857q3.494-.461,6.724-.923t5.867-.857l-1.582,12.129q-1.978-.132-4.944-.2t-6.262-.066h-12.92ZM223.989-68.818a144.079,144.079,0,0,0-21.357,2.637l-1.978-3.955L199.6-61.963h1.582l-.791,9.756q-7.91-.527-13.513-.593t-9.756.066q-4.153.132-7.317.4t-6.064.4q0,.659-.066,1.582t-.066,1.978V-30.19q0,3.428,1.846,3.164a194.869,194.869,0,0,0,22.148-3.1q11.865-2.307,25.049-6.13V-29.4q-12,4.219-24.324,7.515a203.611,203.611,0,0,1-24.719,5.01q-8.174,1.055-11.536-2.043t-3.362-9.426v-17.93a22.218,22.218,0,0,0-.264-3.823,4.5,4.5,0,0,0-1.252-2.439,8.884,8.884,0,0,0-2.9-1.78q-1.912-.791-5.208-1.846l2.637-5.273a202.12,202.12,0,0,0,24.653,1.45q10.547-.132,19.248-.791l1.187-22.939a39.861,39.861,0,0,0-4.087-.066q-2.373.066-5.076.264t-5.471.461q-2.769.264-5.142.4-1.45.132-3.757.264t-5.076.461q-2.769.33-5.735.659t-5.867.857l-7.251-12.261q2.373.4,5.405.857t6,.791q2.966.33,5.8.527t4.812.2q3.56,0,8.438-.066t10.547-.33q5.669-.264,11.865-.593t12.129-.989a26.205,26.205,0,0,0-.725,2.7l-.659,3.032q-.33,1.516-.527,2.834t-.33,1.978l-.527,4.087q3.823.659,6.724.923a34.847,34.847,0,0,0,5.142.132q3.032-.132,5.867-.264t4.68-.264V-95.186a6.974,6.974,0,0,0-3.691-6.13q-3.691-2.307-12.92-4.548l2.769-6.46q3.823.4,8.042,1.055t8.24,1.384q4.021.725,7.778,1.516t6.526,1.318q-.264,1.45-.593,3.23t-.527,3.494q-.2,1.714-.33,3.1t-.132,2.043v72.378q0,3.955-.2,9.229t-.527,10.613q-.33,5.339-.857,10.217t-1.055,8.042l-11.206,1.45q-.264-2.5-.527-6.2t-.461-7.778q-.2-4.087-.264-8.24t-.066-7.712V-40.342a144.079,144.079,0,0,0-21.357,2.637L196.3-50.1q5.8,1.055,9.954,1.45a52.923,52.923,0,0,0,7.185.264q3.032-.132,5.867-.264t4.68-.264Z" transform="translate(-13415 4655)" fill="#6b4a00"/>
  </g>
</svg>
