<svg xmlns="http://www.w3.org/2000/svg" xmlns:xlink="http://www.w3.org/1999/xlink" width="637.922" height="637.066" viewBox="0 0 637.922 637.066">
  <defs>
    <linearGradient id="linear-gradient" y1="0.5" x2="1" y2="0.5" gradientUnits="objectBoundingBox">
      <stop offset="0" stop-color="#724c00"/>
      <stop offset="0.26" stop-color="#d3a84c"/>
      <stop offset="0.45" stop-color="#fffae3"/>
      <stop offset="0.51" stop-color="#f7e6bb"/>
      <stop offset="0.63" stop-color="#e6be69"/>
      <stop offset="0.82" stop-color="#b77711"/>
      <stop offset="1" stop-color="#845a0f"/>
      <stop offset="1" stop-color="#956d13"/>
    </linearGradient>
    <linearGradient id="linear-gradient-2" x1="0.149" y1="0.851" x2="0.839" y2="0.161" gradientUnits="objectBoundingBox">
      <stop offset="0" stop-color="#b58f3e"/>
      <stop offset="0" stop-color="#956d13"/>
      <stop offset="0.23" stop-color="#fff1d4"/>
      <stop offset="0.41" stop-color="#e6be69"/>
      <stop offset="0.59" stop-color="#ffec94"/>
      <stop offset="0.77" stop-color="#d3a84c"/>
      <stop offset="1" stop-color="#a47a1e"/>
    </linearGradient>
    <linearGradient id="linear-gradient-3" x1="0.272" y1="0.632" x2="0.721" y2="0.373" gradientUnits="objectBoundingBox">
      <stop offset="0" stop-color="#492001"/>
      <stop offset="1" stop-color="#281201"/>
    </linearGradient>
    <linearGradient id="linear-gradient-4" x1="0.465" y1="0.537" x2="0.54" y2="0.457" xlink:href="#linear-gradient-3"/>
    <linearGradient id="linear-gradient-5" x1="0.42" y1="0.619" x2="0.579" y2="0.385" xlink:href="#linear-gradient-3"/>
    <linearGradient id="linear-gradient-6" x1="0.39" y1="0.588" x2="0.608" y2="0.416" xlink:href="#linear-gradient-3"/>
    <linearGradient id="linear-gradient-7" x1="0.04" y1="0.673" x2="0.95" y2="0.33" xlink:href="#linear-gradient-3"/>
    <linearGradient id="linear-gradient-8" x1="0.177" y1="1.35" x2="0.812" y2="-0.327" xlink:href="#linear-gradient-3"/>
    <linearGradient id="linear-gradient-9" x1="0.294" y1="1.642" x2="0.699" y2="-0.604" xlink:href="#linear-gradient-3"/>
    <linearGradient id="linear-gradient-10" x1="0.337" y1="0.967" x2="0.658" y2="0.05" xlink:href="#linear-gradient-3"/>
    <linearGradient id="linear-gradient-11" x1="0.22" y1="1.698" x2="0.772" y2="-0.653" xlink:href="#linear-gradient-3"/>
    <linearGradient id="linear-gradient-12" x1="0.255" y1="2.526" x2="0.736" y2="-1.487" xlink:href="#linear-gradient-3"/>
    <linearGradient id="linear-gradient-13" x1="-0.162" y1="0.842" x2="1.121" y2="0.1" xlink:href="#linear-gradient-3"/>
    <linearGradient id="linear-gradient-14" x1="0.219" y1="1.553" x2="0.771" y2="-0.803" xlink:href="#linear-gradient-3"/>
    <linearGradient id="linear-gradient-15" x1="0.257" y1="2.212" x2="0.735" y2="-1.846" xlink:href="#linear-gradient-3"/>
    <linearGradient id="linear-gradient-16" x1="0.295" y1="1.589" x2="0.698" y2="-0.55" xlink:href="#linear-gradient-3"/>
    <linearGradient id="linear-gradient-17" x1="0.178" y1="1.279" x2="0.811" y2="-0.397" xlink:href="#linear-gradient-3"/>
    <linearGradient id="linear-gradient-18" x1="-0.128" y1="0.916" x2="1.121" y2="0.176" xlink:href="#linear-gradient-3"/>
    <linearGradient id="linear-gradient-19" x1="0.485" y1="0.515" x2="0.563" y2="0.432" xlink:href="#linear-gradient-3"/>
    <linearGradient id="linear-gradient-20" x1="0.339" y1="0.936" x2="0.656" y2="0.057" xlink:href="#linear-gradient-3"/>
    <linearGradient id="linear-gradient-21" x1="0.407" y1="0.571" x2="0.628" y2="0.398" xlink:href="#linear-gradient-3"/>
    <linearGradient id="linear-gradient-22" x1="0.291" y1="0.619" x2="0.748" y2="0.359" xlink:href="#linear-gradient-3"/>
    <linearGradient id="linear-gradient-23" x1="0.417" y1="0.624" x2="0.581" y2="0.376" xlink:href="#linear-gradient-3"/>
    <linearGradient id="linear-gradient-24" x1="0.058" y1="0.665" x2="0.972" y2="0.322" xlink:href="#linear-gradient-3"/>
    <linearGradient id="linear-gradient-25" x1="0.646" y1="0.958" x2="0.363" y2="0.069" xlink:href="#linear-gradient-3"/>
    <linearGradient id="linear-gradient-26" x1="0.853" y1="0.853" x2="0.147" y2="0.147" xlink:href="#linear-gradient-3"/>
    <linearGradient id="linear-gradient-27" x1="0.243" y1="0.969" x2="0.759" y2="0.028" xlink:href="#linear-gradient-3"/>
    <linearGradient id="linear-gradient-28" x1="0.646" y1="0.958" x2="0.363" y2="0.069" gradientUnits="objectBoundingBox">
      <stop offset="0" stop-color="#a47a1e"/>
      <stop offset="0.23" stop-color="#d3a84c"/>
      <stop offset="0.41" stop-color="#ffec94"/>
      <stop offset="0.59" stop-color="#e6be69"/>
      <stop offset="0.77" stop-color="#ffd87c"/>
      <stop offset="1" stop-color="#956d13"/>
      <stop offset="1" stop-color="#b58f3e"/>
    </linearGradient>
    <linearGradient id="linear-gradient-29" x1="0.853" y1="0.853" x2="0.147" y2="0.147" xlink:href="#linear-gradient-28"/>
    <linearGradient id="linear-gradient-30" x1="0.243" y1="0.969" x2="0.759" y2="0.028" gradientUnits="objectBoundingBox">
      <stop offset="0" stop-color="#b58f3e"/>
      <stop offset="0" stop-color="#956d13"/>
      <stop offset="0.23" stop-color="#ffd87c"/>
      <stop offset="0.41" stop-color="#e6be69"/>
      <stop offset="0.59" stop-color="#ffec94"/>
      <stop offset="0.77" stop-color="#d3a84c"/>
      <stop offset="1" stop-color="#a47a1e"/>
    </linearGradient>
  </defs>
  <g id="그룹_552" data-name="그룹 552" transform="translate(15272.864 -4288.111)">
    <path id="패스_546" data-name="패스 546" d="M614.19,357.326c29.319-16.868,29.319-61.6,0-78.485a9.755,9.755,0,0,1-2.359-14.934c22.65-25.1,8.868-67.648-24.246-74.637a9.773,9.773,0,0,1-6.882-13.48c13.8-30.88-12.416-67.063-46.116-63.5a9.755,9.755,0,0,1-10.642-10.642c3.547-33.7-32.618-59.915-63.5-46.116a9.755,9.755,0,0,1-13.48-6.935C439.873,15.52,397.3,1.774,372.278,24.353a9.773,9.773,0,0,1-14.952-2.377c-16.868-29.3-61.6-29.3-78.485,0a9.755,9.755,0,0,1-14.934,2.377C238.808,1.774,196.258,15.52,189.27,48.6a9.755,9.755,0,0,1-13.48,6.864c-30.88-13.781-67.063,12.5-63.5,46.116a9.755,9.755,0,0,1-10.642,10.642c-33.7-3.547-59.915,32.618-46.116,63.5A9.755,9.755,0,0,1,48.67,189.2c-33.15,7.059-46.9,49.61-24.317,74.707a9.755,9.755,0,0,1-2.377,14.934c-29.3,16.885-29.3,61.618,0,78.485a9.773,9.773,0,0,1,2.377,14.952C1.774,397.3,15.52,439.873,48.6,446.967a9.755,9.755,0,0,1,6.864,13.48c-13.782,30.862,12.5,67.063,46.116,63.5a9.755,9.755,0,0,1,10.642,10.642c-3.547,33.7,32.618,59.915,63.5,46.116a9.773,9.773,0,0,1,13.48,6.882c6.988,33.079,49.539,46.9,74.636,24.246a9.738,9.738,0,0,1,14.934,2.359c16.885,29.319,61.618,29.319,78.485,0a9.755,9.755,0,0,1,14.952-2.359c25.1,22.65,67.648,8.868,74.636-24.246a9.773,9.773,0,0,1,13.48-6.882c30.88,13.8,67.063-12.416,63.5-46.116a9.737,9.737,0,0,1,10.642-10.642c33.7,3.547,59.915-32.636,46.116-63.5a9.773,9.773,0,0,1,6.882-13.48c33.2-7.095,47.02-49.663,24.459-74.69a9.773,9.773,0,0,1,2.27-14.952Z" transform="translate(-15272.864 4288.118)" fill="url(#linear-gradient)"/>
    <path id="패스_547" data-name="패스 547" d="M318.092,18.946a25.754,25.754,0,0,1,22.827,12.416,28.68,28.68,0,0,0,43.97,7.042,24.53,24.53,0,0,1,16.637-6.243c11.174,0,23.962,6.988,26.783,20.362a28.84,28.84,0,0,0,28.077,22.739,28.375,28.375,0,0,0,11.721-2.535,24.051,24.051,0,0,1,9.793-2.094,28.379,28.379,0,0,1,20.592,9.525,25.133,25.133,0,0,1,6.563,19.4A28.663,28.663,0,0,0,536.574,131.1a25.965,25.965,0,0,1,2.607-.142A26.357,26.357,0,0,1,561,143.512c2.377,3.671,7.379,13.409,2.412,24.512a28.716,28.716,0,0,0,20.256,39.748,27.1,27.1,0,0,1,14.065,43.455,28.7,28.7,0,0,0,7.095,44.041,27.1,27.1,0,0,1,0,45.655,28.7,28.7,0,0,0-7.095,43.97,27.1,27.1,0,0,1-14.1,43.42,28.7,28.7,0,0,0-20.255,39.73c4.966,11.1,0,20.841-2.412,24.512a26.286,26.286,0,0,1-21.816,12.558,25.893,25.893,0,0,1-2.607-.124,28.663,28.663,0,0,0-31.518,31.518,25.168,25.168,0,0,1-6.563,19.51,28.379,28.379,0,0,1-20.592,9.525,23.781,23.781,0,0,1-9.786-2.109,28.378,28.378,0,0,0-11.657-2.485,28.822,28.822,0,0,0-28.077,22.739c-2.82,13.356-15.608,20.362-26.783,20.362a24.477,24.477,0,0,1-16.673-6.314,28.7,28.7,0,0,0-43.97,7.095,27.1,27.1,0,0,1-45.655,0,28.716,28.716,0,0,0-44.058-7.095,24.424,24.424,0,0,1-16.637,6.261c-11.156,0-23.945-6.988-26.765-20.362a28.822,28.822,0,0,0-28.1-22.739,28.486,28.486,0,0,0-11.653,2.483,23.644,23.644,0,0,1-9.773,2.111,28.379,28.379,0,0,1-20.592-9.525,25.1,25.1,0,0,1-6.563-19.51,28.539,28.539,0,0,0-31.536-31.518,25.65,25.65,0,0,1-2.607.124,26.286,26.286,0,0,1-21.8-12.558c-2.377-3.672-7.379-13.409-2.43-24.512a28.68,28.68,0,0,0-20.238-39.73,27.1,27.1,0,0,1-14.189-43.42,28.68,28.68,0,0,0-6.971-44.04,27.1,27.1,0,0,1,0-45.655A28.68,28.68,0,0,0,38.329,251.1a27.1,27.1,0,0,1,14.189-43.42,28.7,28.7,0,0,0,20.2-39.624c-4.949-11.1,0-20.841,2.43-24.512a26.3,26.3,0,0,1,21.8-12.558,25.681,25.681,0,0,1,2.607.142A28.716,28.716,0,0,0,131.128,99.6a25.062,25.062,0,0,1,6.563-19.4,28.237,28.237,0,0,1,20.592-9.525,23.909,23.909,0,0,1,9.773,2.057,28.5,28.5,0,0,0,11.653,2.5,28.84,28.84,0,0,0,28.1-22.739c2.82-13.374,15.608-20.362,26.765-20.362a24.477,24.477,0,0,1,16.637,6.243A28.7,28.7,0,0,0,295.265,31.4a25.754,25.754,0,0,1,22.827-12.416Zm0-18.943A44.7,44.7,0,0,0,278.84,21.979a9.755,9.755,0,0,1-14.934,2.377,43.331,43.331,0,0,0-29.337-11.139c-20.433,0-40.671,13.462-45.3,35.474a9.791,9.791,0,0,1-9.56,7.716,9.649,9.649,0,0,1-3.92-.851,42.693,42.693,0,0,0-17.506-3.742c-25.47,0-48.9,22.508-45.992,49.876a9.755,9.755,0,0,1-9.667,10.749H101.6a44.884,44.884,0,0,0-4.612-.248c-31.359-.142-54.683,34.143-41.522,63.6a9.755,9.755,0,0,1-6.864,13.48c-33.079,6.988-46.825,49.539-24.246,74.636a9.755,9.755,0,0,1-2.377,14.934c-29.3,16.885-29.3,61.618,0,78.485a9.773,9.773,0,0,1,2.377,14.952C1.774,397.308,15.52,439.876,48.6,446.971a9.755,9.755,0,0,1,6.864,13.48c-13.143,29.39,10.163,63.675,41.522,63.675a45.1,45.1,0,0,0,4.612-.231,6.858,6.858,0,0,1,1.029,0,9.773,9.773,0,0,1,9.667,10.766c-2.909,27.35,20.521,49.876,45.992,49.876a42.711,42.711,0,0,0,17.506-3.76,9.613,9.613,0,0,1,3.92-.834,9.773,9.773,0,0,1,9.56,7.716c4.629,21.923,24.832,35.474,45.3,35.474a43.349,43.349,0,0,0,29.337-11.21,9.755,9.755,0,0,1,14.934,2.359,46.009,46.009,0,0,0,78.485,0,9.773,9.773,0,0,1,14.952-2.359A43.313,43.313,0,0,0,401.6,623.062c20.433,0,40.688-13.462,45.318-35.474a9.755,9.755,0,0,1,13.48-6.882,42.568,42.568,0,0,0,17.506,3.76c25.47,0,48.9-22.526,45.992-49.876a9.755,9.755,0,0,1,9.649-10.766,6.907,6.907,0,0,1,1.046,0,44.777,44.777,0,0,0,4.594.231c31.376,0,54.683-34.285,41.522-63.728a9.773,9.773,0,0,1,6.882-13.48c33.079-6.971,46.9-49.539,24.335-74.566a9.773,9.773,0,0,1,2.359-14.952c29.319-16.868,29.319-61.6,0-78.485a9.755,9.755,0,0,1-2.359-14.934c22.65-25.1,8.868-67.648-24.246-74.636a9.773,9.773,0,0,1-6.882-13.48c13.161-29.443-10.163-63.746-41.522-63.746a44.825,44.825,0,0,0-4.594.248,10.335,10.335,0,0,1-1.047,0,9.755,9.755,0,0,1-9.649-10.748c2.8-27.315-20.61-49.823-46.08-49.823a42.568,42.568,0,0,0-17.506,3.742A9.7,9.7,0,0,1,446.968,48.6c-4.629-21.923-24.832-35.385-45.318-35.385a43.278,43.278,0,0,0-29.319,11.139,9.773,9.773,0,0,1-14.952-2.377A44.661,44.661,0,0,0,318.092,0Z" transform="translate(-15272.864 4288.115)" fill="url(#linear-gradient-2)"/>
    <path id="패스_548" data-name="패스 548" d="M97,341.492a29.744,29.744,0,0,1-8.106-6.208,25.151,25.151,0,0,1-6.563-19.51A28.645,28.645,0,0,0,65.32,286.49a28.556,28.556,0,0,1,15.271,28.379,25.1,25.1,0,0,0,6.563,19.511A29.443,29.443,0,0,0,97,341.492Z" transform="translate(-15222.327 4509.77)" fill="url(#linear-gradient-3)"/>
    <path id="패스_549" data-name="패스 549" d="M182.465,355.7a24.3,24.3,0,0,1-9.383-9.134A28.574,28.574,0,0,0,160.17,334.84,28.378,28.378,0,0,1,171.344,345.7,24.353,24.353,0,0,0,182.465,355.7Z" transform="translate(-15148.943 4547.177)" fill="url(#linear-gradient-4)"/>
    <path id="패스_550" data-name="패스 550" d="M225.518,342.7a23.853,23.853,0,0,1-4.31-3.1,28.661,28.661,0,0,0-7.308-4.771,28.623,28.623,0,0,1,5.5,3.867,23.658,23.658,0,0,0,6.119,4.009Z" transform="translate(-15107.374 4547.162)" fill="url(#linear-gradient-5)"/>
    <path id="패스_551" data-name="패스 551" d="M138.211,355.139a24.831,24.831,0,0,1-12.93-16.8,28.787,28.787,0,0,0-16.371-20.2,28.716,28.716,0,0,1,14.633,19.333,25.08,25.08,0,0,0,14.668,17.666Z" transform="translate(-15188.603 4534.257)" fill="url(#linear-gradient-6)"/>
    <path id="패스_552" data-name="패스 552" d="M60.884,314.947a28.237,28.237,0,0,1-10.11-9.507c-2.377-3.672-7.379-13.409-2.412-24.512A28.68,28.68,0,0,0,33.8,243.06a28.61,28.61,0,0,1,12.771,37c-4.949,11.1,0,20.841,2.43,24.512a28.13,28.13,0,0,0,11.884,10.376Z" transform="translate(-15246.714 4476.169)" fill="url(#linear-gradient-7)"/>
    <path id="패스_553" data-name="패스 553" d="M159.364,38.359A28.734,28.734,0,0,0,184.2,24.01a25.754,25.754,0,0,1,22.827-12.416,28.379,28.379,0,0,1,11.706,2.465,27.811,27.811,0,0,0-13.444-3.335,25.754,25.754,0,0,0-22.827,12.416A28.751,28.751,0,0,1,157.626,37.49a28.521,28.521,0,0,1-11.866-2.607A28.379,28.379,0,0,0,159.364,38.359Z" transform="translate(-15160.093 4296.407)" fill="url(#linear-gradient-8)"/>
    <path id="패스_554" data-name="패스 554" d="M307.572,75.949a28.938,28.938,0,0,0,3.03-.159,25.681,25.681,0,0,1,2.61-.142,24.141,24.141,0,0,1,9.95,2.2,24.282,24.282,0,0,0-11.706-3.068,25.957,25.957,0,0,0-2.607.142,28.379,28.379,0,0,1-14.509-2.27A28.379,28.379,0,0,0,307.572,75.949Z" transform="translate(-15045.139 4344.326)" fill="url(#linear-gradient-9)"/>
    <path id="패스_555" data-name="패스 555" d="M325.86,116.11a29.161,29.161,0,0,0,7.432,2.731,22.74,22.74,0,0,1,4.771,1.543,23.163,23.163,0,0,0-6.509-2.412,29.3,29.3,0,0,1-5.694-1.862Z" transform="translate(-15020.752 4377.95)" fill="url(#linear-gradient-10)"/>
    <path id="패스_556" data-name="패스 556" d="M213.214,32.622a28.518,28.518,0,0,0,19.135-7.375A24.548,24.548,0,0,1,249.007,19a29.478,29.478,0,0,1,12.1,2.678,29.638,29.638,0,0,0-13.852-3.547,24.53,24.53,0,0,0-16.673,6.243A28.574,28.574,0,0,1,211.4,31.753a28.822,28.822,0,0,1-11.955-2.625A28.822,28.822,0,0,0,213.214,32.622Z" transform="translate(-15118.554 4302.144)" fill="url(#linear-gradient-11)"/>
    <path id="패스_557" data-name="패스 557" d="M264.212,45.3a28.5,28.5,0,0,0,11.653-2.5,23.963,23.963,0,0,1,9.773-2.093,26.605,26.605,0,0,1,10.749,2.377,26.89,26.89,0,0,0-12.416-3.246,24.051,24.051,0,0,0-9.862,2.057,28.379,28.379,0,0,1-23.359,0A28.5,28.5,0,0,0,264.212,45.3Z" transform="translate(-15078.863 4318.941)" fill="url(#linear-gradient-12)"/>
    <path id="패스_558" data-name="패스 558" d="M39.534,412.81a26.729,26.729,0,0,1-12.416-15.431A25.754,25.754,0,0,1,31.942,371.8a28.7,28.7,0,0,0-6.988-44.04,27.1,27.1,0,0,1,0-45.655,28.7,28.7,0,0,0,6.988-44.04,27.1,27.1,0,0,1,14.189-43.42A28.716,28.716,0,0,0,66.281,154.9c-4.966-11.1,0-20.841,2.412-24.512a26.321,26.321,0,0,1,21.816-12.558,25.338,25.338,0,0,1,2.59.142,29.292,29.292,0,0,0,3.051.16,28.7,28.7,0,0,0,28.5-31.7,25.133,25.133,0,0,1,6.563-19.4,28.379,28.379,0,0,1,20.592-9.525A24.051,24.051,0,0,1,161.6,59.6a28.379,28.379,0,0,0,11.653,2.5,28.822,28.822,0,0,0,28.077-22.739C204.149,25.988,216.937,19,228.111,19a25.63,25.63,0,0,1,10.642,2.27,25.186,25.186,0,0,0-12.416-3.139c-11.156,0-23.945,6.988-26.765,20.362a28.84,28.84,0,0,1-28.1,22.739,28.5,28.5,0,0,1-11.635-2.536,23.909,23.909,0,0,0-9.773-2.093,28.237,28.237,0,0,0-20.592,9.525,25.062,25.062,0,0,0-6.563,19.4A28.68,28.68,0,0,1,91.378,117.1a25.677,25.677,0,0,0-2.607-.142,26.3,26.3,0,0,0-21.8,12.558c-2.377,3.672-7.379,13.409-2.465,24.512a28.7,28.7,0,0,1-20.238,39.748A27.1,27.1,0,0,0,30.08,237.2a28.68,28.68,0,0,1-6.971,44.04,27.1,27.1,0,0,0,0,45.655,28.68,28.68,0,0,1,7.077,43.97,25.842,25.842,0,0,0-4.824,25.576A26.445,26.445,0,0,0,39.534,412.81Z" transform="translate(-15264.65 4302.145)" fill="url(#linear-gradient-13)"/>
    <path id="패스_559" data-name="패스 559" d="M177.177,343.55a9.613,9.613,0,0,0-6.492,2.483,43.349,43.349,0,0,1-29.337,11.139,48.279,48.279,0,0,1-20.858-4.842,48.083,48.083,0,0,0,22.614,5.711A43.313,43.313,0,0,0,172.423,346.9a9.72,9.72,0,0,1,9.95-1.774,9.685,9.685,0,0,0-5.2-1.578Z" transform="translate(-15179.644 4553.916)" fill="url(#linear-gradient-14)"/>
    <path id="패스_560" data-name="패스 560" d="M119.177,326.93a9.615,9.615,0,0,0-3.92.834,42.71,42.71,0,0,1-17.506,3.76,45.424,45.424,0,0,1-19.511-4.487,45.779,45.779,0,0,0,21.284,5.321,42.907,42.907,0,0,0,17.506-3.742,9.418,9.418,0,0,1,7.325-.213,9.685,9.685,0,0,0-5.179-1.472Z" transform="translate(-15212.331 4541.058)" fill="url(#linear-gradient-15)"/>
    <path id="패스_561" data-name="패스 561" d="M68.312,297.032a6.841,6.841,0,0,0-1.029,0,45.155,45.155,0,0,1-4.612.231A42.94,42.94,0,0,1,44.35,293.13a42.941,42.941,0,0,0,20.078,5.09,44.792,44.792,0,0,0,4.594-.231,10.354,10.354,0,0,1,1.046,0,9.808,9.808,0,0,1,3.388.621,9.613,9.613,0,0,0-5.144-1.579Z" transform="translate(-15238.552 4514.907)" fill="url(#linear-gradient-16)"/>
    <path id="패스_562" data-name="패스 562" d="M236.009,343.55a9.738,9.738,0,0,0-8.461,4.842,44.644,44.644,0,0,1-39.234,21.994A47.27,47.27,0,0,1,167.74,365.7a47.16,47.16,0,0,0,22.313,5.552A44.679,44.679,0,0,0,229.3,349.261a9.791,9.791,0,0,1,11.83-4.239,9.6,9.6,0,0,0-5.126-1.472Z" transform="translate(-15143.087 4553.916)" fill="url(#linear-gradient-17)"/>
    <path id="패스_563" data-name="패스 563" d="M448.831,273.828c29.3-16.868,29.3-61.6,0-78.485a9.755,9.755,0,0,1-2.377-14.934c20.255-22.437,11.352-58.8-14.4-71.249,24.406,13.214,32.458,48.457,12.664,70.38a9.755,9.755,0,0,0,2.359,14.934c29.319,16.885,29.319,61.618,0,78.485a9.773,9.773,0,0,0-2.359,14.952c22.65,25.1,8.868,67.648-24.246,74.636a9.773,9.773,0,0,0-6.882,13.48c13.161,29.443-10.145,63.728-41.522,63.728a44.782,44.782,0,0,1-4.594-.231,6.909,6.909,0,0,0-1.047,0,9.755,9.755,0,0,0-9.649,10.766c2.909,27.35-20.521,49.876-45.992,49.876a42.568,42.568,0,0,1-17.506-3.76,9.755,9.755,0,0,0-13.48,6.882c-4.629,21.923-24.832,35.474-45.318,35.474A44.342,44.342,0,0,1,216,534.56a44.093,44.093,0,0,0,20.238,4.878c20.433,0,40.671-13.462,45.3-35.474a9.791,9.791,0,0,1,9.56-7.716,9.365,9.365,0,0,1,3.92.851,42.975,42.975,0,0,0,17.506,3.742c25.47,0,48.9-22.508,45.991-49.876a9.755,9.755,0,0,1,9.667-10.748h1.029a44.887,44.887,0,0,0,4.612.231c31.359,0,54.665-34.285,41.522-63.728a9.755,9.755,0,0,1,6.864-13.48c33.079-6.988,46.914-49.539,24.246-74.637a9.773,9.773,0,0,1,2.377-14.775Z" transform="translate(-15105.749 4372.573)" fill="url(#linear-gradient-18)"/>
    <path id="패스_564" data-name="패스 564" d="M208.841,19.554a9.649,9.649,0,0,0,5,4.221,9.489,9.489,0,0,1-3.246-3.352A42.888,42.888,0,0,0,191.92,3.13a42.817,42.817,0,0,1,16.921,16.424Z" transform="translate(-15124.379 4290.54)" fill="url(#linear-gradient-19)"/>
    <path id="패스_565" data-name="패스 565" d="M31.694,253.478a43.279,43.279,0,0,1-9.844-3.388,42.8,42.8,0,0,0,11.582,4.257,9.263,9.263,0,0,1,1.454.443,9.633,9.633,0,0,0-3.193-1.312Z" transform="translate(-15255.959 4481.608)" fill="url(#linear-gradient-20)"/>
    <path id="패스_566" data-name="패스 566" d="M261.9,40.336a9.684,9.684,0,0,0,6.155,7.095,9.649,9.649,0,0,1-4.417-6.208A43.987,43.987,0,0,0,239.2,10.68a43.881,43.881,0,0,1,22.7,29.656Z" transform="translate(-15087.8 4296.381)" fill="url(#linear-gradient-21)"/>
    <path id="패스_567" data-name="패스 567" d="M306.217,76.684a9.738,9.738,0,0,0,6.261,10.145,9.7,9.7,0,0,1-4.523-9.241c2.128-20.06-9.9-37.513-26.605-45.388C297.136,40.412,308.274,57.333,306.217,76.684Z" transform="translate(-15055.189 4313.031)" fill="url(#linear-gradient-22)"/>
    <path id="패스_568" data-name="패스 568" d="M152.759,16.446a10.038,10.038,0,0,0,3.1,1.88,12.417,12.417,0,0,1-1.366-1.011A42.267,42.267,0,0,0,143.66,10.22a42.249,42.249,0,0,1,9.1,6.226Z" transform="translate(-15161.717 4296.025)" fill="url(#linear-gradient-23)"/>
    <path id="패스_569" data-name="패스 569" d="M336.754,124.727a9.773,9.773,0,0,0,5.427,13.037A9.755,9.755,0,0,1,338.51,125.6c10.411-23.306-2.022-49.663-23.2-59.6C335.406,76.642,346.881,102.077,336.754,124.727Z" transform="translate(-15028.915 4339.181)" fill="url(#linear-gradient-24)"/>
    <path id="패스_570" data-name="패스 570" d="M293.617,555.292c-144.129,0-261.387-117.276-261.387-261.405S149.488,32.5,293.617,32.5,555.058,149.758,555.058,293.887,437.764,555.292,293.617,555.292Zm0-511.441c-137.85,0-250.089,112.168-250.089,250.089S155.7,544.03,293.617,544.03,543.707,431.862,543.707,293.941,431.5,43.852,293.617,43.852Z" transform="translate(-15247.929 4313.263)" fill="url(#linear-gradient-25)"/>
    <path id="패스_571" data-name="패스 571" d="M277.084,500.858C153.657,500.858,53.6,400.8,53.6,277.374S153.657,53.89,277.084,53.89,500.568,153.947,500.568,277.374C500.411,400.736,400.446,500.7,277.084,500.858Zm0-435.669c-117.167,0-212.15,94.983-212.15,212.15s94.983,212.15,212.15,212.15,212.15-94.983,212.15-212.15c-.127-117.115-95.036-212.023-212.15-212.15Z" transform="translate(-15231.395 4329.812)" fill="url(#linear-gradient-26)"/>
    <path id="패스_572" data-name="패스 572" d="M183.748,507.041Zm-2.519-6.846a5.161,5.161,0,0,1,6.846-2.519h0a5.179,5.179,0,0,1,2.536,6.846h0a5.144,5.144,0,0,1-6.846,2.519h0A5.179,5.179,0,0,1,181.23,500.194Zm-20.007-5a5.126,5.126,0,0,1-1.774-7.095h0a5.144,5.144,0,0,1,7.095-1.774h0a5.126,5.126,0,0,1,1.774,7.095h0a5.144,5.144,0,0,1-6.58,2.057h0Zm42.959,14.775a5.161,5.161,0,0,1,6.545-3.228h0a5.179,5.179,0,0,1,3.21,6.563h0a5.179,5.179,0,0,1-6.545,3.21h0a2.466,2.466,0,0,1-.5-.213h0A5.161,5.161,0,0,1,204.181,509.967Zm-64.136-28.911A5.144,5.144,0,0,1,139,473.837h0a5.108,5.108,0,0,1,7.2-1.046h0a5.144,5.144,0,0,1,1.046,7.219h0a5.126,5.126,0,0,1-6.279,1.579h0a4.313,4.313,0,0,1-.922-.532Zm87.921,36.254a5.161,5.161,0,0,1,6.172-3.9h0a5.179,5.179,0,0,1,3.884,6.19h0a5.161,5.161,0,0,1-6.172,3.867h0a5.828,5.828,0,0,1-1.029-.337h0A5.144,5.144,0,0,1,227.966,517.31ZM120.445,464.756a5.179,5.179,0,0,1-.3-7.29h0a5.2,5.2,0,0,1,7.29-.284h0a5.161,5.161,0,0,1,.3,7.29h0a5.179,5.179,0,0,1-5.96,1.188h0A5.888,5.888,0,0,1,120.445,464.756ZM252.5,522.081a5.126,5.126,0,0,1,5.711-4.505h0a5.161,5.161,0,0,1,4.505,5.747h0A5.161,5.161,0,0,1,257,527.846h0a5.8,5.8,0,0,1-1.543-.443h0a5.161,5.161,0,0,1-2.962-5.321ZM102.673,446.5a5.179,5.179,0,0,1,.479-7.272h0a5.161,5.161,0,0,1,7.29.479h0a5.179,5.179,0,0,1-.479,7.272h0a5.162,5.162,0,0,1-5.569.78h0a4.9,4.9,0,0,1-1.72-1.259Zm174.654,77.758a5.143,5.143,0,0,1,5.232-5.073h0a5.126,5.126,0,0,1,5.073,5.232h0a5.162,5.162,0,0,1-5.215,5.09h0a5.5,5.5,0,0,1-2.093-.5h0a5.179,5.179,0,0,1-3-4.753Zm-190.4-97.854a5.161,5.161,0,0,1,1.259-7.095h0a5.144,5.144,0,0,1,7.095,1.242h0a5.161,5.161,0,0,1-1.242,7.2h0a5.179,5.179,0,0,1-5.144.461h0A5.108,5.108,0,0,1,86.923,426.409Zm215.325,97.375a5.161,5.161,0,0,1,4.682-5.6h0a5.144,5.144,0,0,1,5.587,4.647h0a5.144,5.144,0,0,1-4.665,5.623h0a5.055,5.055,0,0,1-2.625-.443h0a5.179,5.179,0,0,1-2.98-4.168ZM73.443,404.859a5.144,5.144,0,0,1,1.969-7.095h0a5.126,5.126,0,0,1,7.095,1.986h0a5.161,5.161,0,0,1-1.969,7.095h0a5.144,5.144,0,0,1-4.683.177h0a5.161,5.161,0,0,1-2.483-2.111ZM327.079,520.733a5.161,5.161,0,0,1,4.044-6.066h0a5.161,5.161,0,0,1,6.066,4.062h0a5.144,5.144,0,0,1-4.044,6.066h0a5.2,5.2,0,0,1-3.175-.372h0a5.2,5.2,0,0,1-2.962-3.636ZM62.127,382.067a5.161,5.161,0,0,1,2.661-6.793h0a5.144,5.144,0,0,1,6.775,2.7h0a5.161,5.161,0,0,1-2.7,6.775h0a5.179,5.179,0,0,1-4.2,0h0A5.126,5.126,0,0,1,62.127,382.067ZM351.237,515.2a5.144,5.144,0,0,1,3.388-6.456h0a5.179,5.179,0,0,1,6.456,3.423h0a5.144,5.144,0,0,1-3.388,6.438h0a5.108,5.108,0,0,1-3.707-.248h0a5.09,5.09,0,0,1-2.678-3.175ZM53.258,358.176a5.179,5.179,0,0,1,3.405-6.474h0a5.161,5.161,0,0,1,6.438,3.406h0a5.144,5.144,0,0,1-3.388,6.456h0a5.161,5.161,0,0,1-3.689-.248h0a5.09,5.09,0,0,1-2.714-3.157ZM374.845,507.165a5.144,5.144,0,0,1,2.7-6.776h0a5.179,5.179,0,0,1,6.775,2.714h0a5.144,5.144,0,0,1-2.7,6.776h0a5.179,5.179,0,0,1-4.2,0h0a5,5,0,0,1-2.519-2.785ZM47.051,333.468h0a5.126,5.126,0,0,1,4.026-6.066h0a5.161,5.161,0,0,1,6.084,4.062h0a5.161,5.161,0,0,1-4.062,6.048h0a5.144,5.144,0,0,1-3.157-.372h0a5.126,5.126,0,0,1-2.891-3.671ZM397.512,496.647a5.126,5.126,0,0,1,1.987-7.006h0a5.126,5.126,0,0,1,7.006,1.986h0a5.144,5.144,0,0,1-1.987,7.006h0a5.144,5.144,0,0,1-4.683.177h0a5.162,5.162,0,0,1-2.324-2.235ZM43.361,308.264a5.2,5.2,0,0,1,4.665-5.623h0a5.179,5.179,0,0,1,5.623,4.665h0a5.2,5.2,0,0,1-4.665,5.587h0a5.179,5.179,0,0,1-2.625-.461h0A5.215,5.215,0,0,1,43.361,308.264ZM418.9,483.77a5.2,5.2,0,0,1,1.259-7.2h0a5.144,5.144,0,0,1,7.095,1.259h0a5.144,5.144,0,0,1-1.224,7.183h0a5.179,5.179,0,0,1-5.144.461h0a5.553,5.553,0,0,1-1.987-1.7ZM42.35,282.83h0a5.179,5.179,0,0,1,5.232-5.108h0a5.144,5.144,0,0,1,5.073,5.321h0a5.144,5.144,0,0,1-5.215,5.02h0a5.321,5.321,0,0,1-2.093-.479h0A5.144,5.144,0,0,1,42.35,282.83ZM438.857,468.782a5.144,5.144,0,0,1,.479-7.272h0a5.179,5.179,0,0,1,7.29.479h0a5.144,5.144,0,0,1-.5,7.272h0a5.144,5.144,0,0,1-5.552.816h0A4.842,4.842,0,0,1,438.857,468.782ZM44.018,257.4a5.179,5.179,0,0,1,5.729-4.523h0a5.161,5.161,0,0,1,4.523,5.729h0a5.161,5.161,0,0,1-5.747,4.523h0a4.682,4.682,0,0,1-1.543-.443h0a5.144,5.144,0,0,1-2.962-5.286Zm413.09,194.413a5.2,5.2,0,0,1-.284-7.29h0a5.144,5.144,0,0,1,7.29-.3h0a5.161,5.161,0,0,1,.3,7.29h0a5.126,5.126,0,0,1-5.96,1.188h0A5.321,5.321,0,0,1,457.108,451.808ZM48.363,232.28a5.144,5.144,0,0,1,6.172-3.867h0a5.126,5.126,0,0,1,3.884,6.155h0a5.144,5.144,0,0,1-6.19,3.831h0a4.293,4.293,0,0,1-1.011-.355h0a5.144,5.144,0,0,1-2.856-5.764ZM473.5,432.989a5.179,5.179,0,0,1-1.046-7.237h0a5.179,5.179,0,0,1,7.219-1.046h0a5.215,5.215,0,0,1,1.046,7.237h0a5.2,5.2,0,0,1-6.314,1.579h0A4.646,4.646,0,0,1,473.5,432.989ZM55.3,207.732a5.161,5.161,0,0,1,6.563-3.21h0a5.144,5.144,0,0,1,3.193,6.545h0a5.126,5.126,0,0,1-6.527,3.21h0l-.5-.2h0a5.179,5.179,0,0,1-2.731-6.3ZM487.793,412.557a5.179,5.179,0,0,1-1.774-7.095h0a5.161,5.161,0,0,1,7.095-1.774h0a5.161,5.161,0,0,1,1.774,7.095h0a5.161,5.161,0,0,1-6.58,2.057h0ZM64.787,184.142a5.161,5.161,0,0,1,6.811-2.5h0a5.144,5.144,0,0,1,2.519,6.846h0a5.161,5.161,0,0,1-6.846,2.519h0a5.179,5.179,0,0,1-2.483-6.864Zm432.565,199.7.106-.213h0a1.61,1.61,0,0,1,.124-.248h0a5.161,5.161,0,0,1,6.829-2.554h0a5.2,5.2,0,0,1,2.536,6.864h0l-.124.231h0a1.044,1.044,0,0,1-.106.248h0a5.161,5.161,0,0,1-6.846,2.519h0a5.179,5.179,0,0,1-2.519-6.846ZM78.391,168.676a5.179,5.179,0,0,1-1.774-7.095h0a5.144,5.144,0,0,1,7.095-1.774h0a5.179,5.179,0,0,1,1.774,7.095h0a5.2,5.2,0,0,1-6.616,2.057h0Zm428.2,192.107a5.2,5.2,0,0,1,6.563-3.228h0a5.179,5.179,0,0,1,3.228,6.545h0a5.161,5.161,0,0,1-6.563,3.21h0l-.5-.177h0a5.2,5.2,0,0,1-2.732-6.35ZM91.783,147.622a5.144,5.144,0,0,1-1.046-7.219h0a5.161,5.161,0,0,1,7.219-1.046h0A5.179,5.179,0,0,1,99,146.576h0a5.179,5.179,0,0,1-6.314,1.6h0A4.735,4.735,0,0,1,91.783,147.622Zm421.444,189.66a5.144,5.144,0,0,1,6.155-3.884h0a5.144,5.144,0,0,1,3.9,6.172h0a5.144,5.144,0,0,1-6.155,3.9h0a7.759,7.759,0,0,1-1.029-.355h0a5.179,5.179,0,0,1-2.873-5.835ZM107.356,128.094a5.179,5.179,0,0,1-.3-7.29h0a5.144,5.144,0,0,1,7.29-.266h0a5.126,5.126,0,0,1,.3,7.254h0a5.161,5.161,0,0,1-5.96,1.188h0A4.843,4.843,0,0,1,107.356,128.094ZM517.413,313.266h0a5.143,5.143,0,0,1,5.729-4.523h0a5.144,5.144,0,0,1,4.505,5.729h0a5.126,5.126,0,0,1-5.711,4.505h0a5.218,5.218,0,0,1-1.579-.443h0a5.161,5.161,0,0,1-3-5.268ZM124.791,110.321a5.126,5.126,0,0,1,.479-7.29h0a5.161,5.161,0,0,1,7.272.479h0a5.144,5.144,0,0,1-.5,7.272h0a5.126,5.126,0,0,1-5.552.8h0A5.126,5.126,0,0,1,124.791,110.321ZM518.85,288.913a5.161,5.161,0,0,1,5.215-5.09h0a5.161,5.161,0,0,1,5.108,5.215h0a5.179,5.179,0,0,1-5.215,5.108h0a5.32,5.32,0,0,1-2.111-.479h0a5.179,5.179,0,0,1-3-4.753ZM144.035,94.447a5.126,5.126,0,0,1,1.242-7.095h0a5.126,5.126,0,0,1,7.183,1.224h0a5.161,5.161,0,0,1-1.242,7.2h0a5.161,5.161,0,0,1-5.144.461h0a5.321,5.321,0,0,1-2.04-1.791ZM517.927,264.561a5.2,5.2,0,0,1,4.647-5.64h0a5.179,5.179,0,0,1,5.623,4.665h0a5.179,5.179,0,0,1-4.647,5.64h0a5.321,5.321,0,0,1-2.661-.461h0a5.2,5.2,0,0,1-2.962-4.2ZM164.858,80.719a5.144,5.144,0,0,1,1.969-7.095h0a5.161,5.161,0,0,1,7.095,1.969h0a5.179,5.179,0,0,1-1.987,7.095h0a5.144,5.144,0,0,1-4.683.177h0a5.162,5.162,0,0,1-2.394-2.146ZM514.4,240.35a5.144,5.144,0,0,1,4.026-6.066h0a5.179,5.179,0,0,1,6.084,4.044h0a5.161,5.161,0,0,1-4.062,6.066h0a5.144,5.144,0,0,1-3.157-.373h0a5.162,5.162,0,0,1-2.891-3.6ZM186.976,69.208a5.126,5.126,0,0,1,2.714-6.758h0a5.144,5.144,0,0,1,6.775,2.7h0a5.179,5.179,0,0,1-2.7,6.775h0a5.144,5.144,0,0,1-4.221,0h0a5.055,5.055,0,0,1-2.572-2.714ZM508.35,216.778a5.2,5.2,0,0,1,3.388-6.456h0a5.143,5.143,0,0,1,6.456,3.405h0a5.144,5.144,0,0,1-3.37,6.456h0a5.214,5.214,0,0,1-3.707-.248h0a5.179,5.179,0,0,1-2.767-3.157ZM210.229,60.091a5.161,5.161,0,0,1,3.405-6.474h0A5.161,5.161,0,0,1,220.073,57h0a5.161,5.161,0,0,1-3.388,6.456h0a5.108,5.108,0,0,1-3.707-.231h0A5.161,5.161,0,0,1,210.229,60.091ZM499.942,193.9a5.144,5.144,0,0,1,2.7-6.775h0a5.161,5.161,0,0,1,6.776,2.714h0a5.161,5.161,0,0,1-2.7,6.758h0a5.214,5.214,0,0,1-4.221,0h0a5.161,5.161,0,0,1-2.59-2.7ZM234.209,53.4a5.161,5.161,0,0,1,4.062-6.066h0a5.144,5.144,0,0,1,6.066,4.044h0a5.161,5.161,0,0,1-4.062,6.1h0a4.913,4.913,0,0,1-3.157-.372h0A5.108,5.108,0,0,1,234.209,53.4ZM489.087,172.01a5.179,5.179,0,0,1,2-7.006h0a5.126,5.126,0,0,1,7.006,1.969h0a5.179,5.179,0,0,1-1.969,7.095h0a5.321,5.321,0,0,1-4.7.177h0a5.321,5.321,0,0,1-2.341-2.235ZM258.81,49.254a5.144,5.144,0,0,1,4.629-5.6h0a5.161,5.161,0,0,1,5.6,4.647h0a5.161,5.161,0,0,1-4.612,5.64h0a5.126,5.126,0,0,1-2.661-.461h0A5.144,5.144,0,0,1,258.81,49.254ZM476.086,151.382a5.144,5.144,0,0,1,1.242-7.095h0a5.144,5.144,0,0,1,7.095,1.242h0a5.144,5.144,0,0,1-1.224,7.095h0a5.161,5.161,0,0,1-5.144.461h0A5.321,5.321,0,0,1,476.086,151.382ZM283.677,47.711a5.179,5.179,0,0,1,5.215-5.09h0A5.179,5.179,0,0,1,294,47.941h0a5.144,5.144,0,0,1-5.215,5.09h0a5.179,5.179,0,0,1-2.093-.479h0A5.161,5.161,0,0,1,283.677,47.711Zm177.368,84.516a5.161,5.161,0,0,1,.461-7.29h0a5.2,5.2,0,0,1,7.29.479h0a5.179,5.179,0,0,1-.5,7.29h0a5.161,5.161,0,0,1-5.552.816h0a5,5,0,0,1-1.756-1.295ZM308.669,48.863a5.161,5.161,0,0,1,5.729-4.523h0A5.161,5.161,0,0,1,318.9,50.07h0a5.144,5.144,0,0,1-5.8,4.434h0a4.63,4.63,0,0,1-1.561-.426h0a5.126,5.126,0,0,1-2.927-5.286Zm135.35,65.963a5.126,5.126,0,0,1-.284-7.29h0a5.161,5.161,0,0,1,7.272-.3h0a5.161,5.161,0,0,1,.284,7.308h0a5.144,5.144,0,0,1-5.96,1.171h0a4.9,4.9,0,0,1-1.366-.958ZM333.27,52.482a5.161,5.161,0,0,1,6.172-3.9h0a5.2,5.2,0,0,1,3.813,6.19h0a5.126,5.126,0,0,1-6.155,3.884h0a6.046,6.046,0,0,1-1.046-.355h0A5.144,5.144,0,0,1,333.27,52.482Zm91.912,46.7a5.179,5.179,0,0,1-1.064-7.219h0a5.2,5.2,0,0,1,7.219-1.064h0a5.161,5.161,0,0,1,1.064,7.219h0a5.161,5.161,0,0,1-6.3,1.614h0A7.1,7.1,0,0,1,425.182,99.183ZM357.445,58.725a5.179,5.179,0,0,1,6.563-3.193h0a5.179,5.179,0,0,1,3.228,6.545h0a5.179,5.179,0,0,1-6.563,3.21h0a3.21,3.21,0,0,1-.5-.213h0a5.179,5.179,0,0,1-2.731-6.35Zm47.482,26.942a5.161,5.161,0,0,1-1.774-7.095h0a5.179,5.179,0,0,1,7.095-1.774h0a5.161,5.161,0,0,1,1.774,7.095h0a5.179,5.179,0,0,1-6.687,1.969h0ZM380.8,67.487a5.126,5.126,0,0,1,6.793-2.519h0a5.179,5.179,0,0,1,2.519,6.846h0a5.161,5.161,0,0,1-6.846,2.519h0a5.161,5.161,0,0,1-2.519-6.846Z" transform="translate(-15240.099 4321.092)" fill="url(#linear-gradient-27)"/>
    <path id="패스_573" data-name="패스 573" d="M293.334,554.721C149.2,554.721,32,437.463,32,293.334S149.2,32,293.334,32,554.722,149.187,554.722,293.334,437.464,554.721,293.334,554.721Zm0-511.423C155.466,43.3,43.245,155.466,43.245,293.387S155.413,543.476,293.334,543.476s250.089-112.15,250.089-250.089S431.2,43.3,293.334,43.3Z" transform="translate(-15248.106 4312.876)" fill="url(#linear-gradient-28)"/>
    <path id="패스_574" data-name="패스 574" d="M276.824,500.318C153.4,500.318,53.34,400.26,53.34,276.834S153.4,53.35,276.824,53.35,500.308,153.407,500.308,276.834C500.151,400.2,400.186,500.161,276.824,500.318Zm0-435.651C159.668,64.715,64.73,159.72,64.763,276.875s95.024,212.107,212.18,212.091c117.126,0,212.1-94.965,212.121-212.12-.121-117.157-95.082-212.092-212.239-212.18Z" transform="translate(-15231.596 4329.394)" fill="url(#linear-gradient-29)"/>
    <path id="패스_575" data-name="패스 575" d="M183.47,506.462Zm-2.519-6.846a5.161,5.161,0,0,1,6.846-2.5h0a5.161,5.161,0,0,1,2.536,6.846h0a5.162,5.162,0,0,1-6.846,2.519h0a5.2,5.2,0,0,1-2.536-6.864Zm-19.989-4.984a5.161,5.161,0,0,1-1.774-7.095h0a5.144,5.144,0,0,1,7.095-1.774h0a5.144,5.144,0,0,1,1.774,7.095h0a5.126,5.126,0,0,1-6.58,2.04h0Zm42.959,14.775a5.144,5.144,0,0,1,6.527-3.228h0a5.161,5.161,0,0,1,3.228,6.545h0a5.2,5.2,0,0,1-6.563,3.228h0l-.5-.213h0a5.144,5.144,0,0,1-2.7-6.332Zm-64.154-28.929a5.108,5.108,0,0,1-1.046-7.2h0a5.108,5.108,0,0,1,7.2-1.046h0a5.144,5.144,0,0,1,1.064,7.2h0a5.179,5.179,0,0,1-6.3,1.6h0A4.875,4.875,0,0,1,139.767,480.478Zm87.975,36.254a5.161,5.161,0,0,1,6.172-3.884h0a5.161,5.161,0,0,1,3.884,6.172h0a5.144,5.144,0,0,1-6.172,3.867h0a3.881,3.881,0,0,1-1.029-.337h0a5.161,5.161,0,0,1-2.856-5.818ZM120.167,464.2a5.179,5.179,0,0,1-.2-7.254h0a5.161,5.161,0,0,1,7.29-.284h0a5.179,5.179,0,0,1,.284,7.29h0a5.144,5.144,0,0,1-5.96,1.171h0a5.321,5.321,0,0,1-1.419-.922ZM252.218,521.5a5.126,5.126,0,0,1,5.711-4.487h0a5.179,5.179,0,0,1,4.505,5.747h0a5.161,5.161,0,0,1-5.729,4.505h0a5.322,5.322,0,0,1-1.543-.443h0a5.144,5.144,0,0,1-2.944-5.321ZM102.413,445.944a5.161,5.161,0,0,1,.479-7.29h0a5.179,5.179,0,0,1,7.272.479h0a5.144,5.144,0,0,1-.479,7.272h0a5.162,5.162,0,0,1-5.569.8h0a5.126,5.126,0,0,1-1.7-1.259ZM277.05,523.7a5.161,5.161,0,0,1,5.232-5.091h0a5.144,5.144,0,0,1,5.073,5.321h0a5.144,5.144,0,0,1-5.215,5.09h0a5.551,5.551,0,0,1-2.093-.479h0A5.2,5.2,0,0,1,277.05,523.7Zm-190.4-97.8a5.179,5.179,0,0,1,1.259-7.183h0A5.161,5.161,0,0,1,95,419.96h0a5.2,5.2,0,0,1-1.242,7.2h0a5.215,5.215,0,0,1-5.144.461h0a5.055,5.055,0,0,1-1.969-1.721ZM301.97,523.259a5.179,5.179,0,0,1,4.683-5.6h0a5.2,5.2,0,0,1,5.6,4.665h0a5.179,5.179,0,0,1-4.665,5.623h0a5.126,5.126,0,0,1-2.643-.461h0A5.2,5.2,0,0,1,301.97,523.259ZM73.165,404.422a5.161,5.161,0,0,1,1.969-7.095h0a5.126,5.126,0,0,1,7.095,1.987h0a5.161,5.161,0,0,1-1.987,7.095h0a5.2,5.2,0,0,1-4.683.16h0a5.073,5.073,0,0,1-2.465-2.235ZM326.8,520.315a5.126,5.126,0,0,1,4.026-6.066h0a5.179,5.179,0,0,1,6.084,4.062h0a5.161,5.161,0,0,1-4.1,6.03h0a5,5,0,0,1-3.157-.372h0a5.09,5.09,0,0,1-2.909-3.743ZM61.849,381.489a5.144,5.144,0,0,1,2.7-6.775h0a5.144,5.144,0,0,1,6.775,2.7h0a5.144,5.144,0,0,1-2.7,6.811h0a5.321,5.321,0,0,1-4.2,0h0a5.321,5.321,0,0,1-2.572-2.731Zm289.11,133.132a5.161,5.161,0,0,1,3.405-6.456h0a5.161,5.161,0,0,1,6.438,3.406h0a5.126,5.126,0,0,1-3.388,6.438h0a5.125,5.125,0,0,1-3.707-.231h0a5.09,5.09,0,0,1-2.678-3.157ZM53.034,357.615a5.161,5.161,0,0,1,3.405-6.456h0a5.144,5.144,0,0,1,6.438,3.405h0a5.126,5.126,0,0,1-3.388,6.456h0a5.108,5.108,0,0,1-3.672-.248h0a5.321,5.321,0,0,1-2.785-3.157ZM374.62,506.6a5.161,5.161,0,0,1,2.7-6.775h0a5.161,5.161,0,0,1,6.758,2.714h0a5.161,5.161,0,0,1-2.7,6.776h0a5.321,5.321,0,0,1-4.2,0h0a5.2,5.2,0,0,1-2.554-2.714ZM46.773,332.89h0a5.161,5.161,0,0,1,4.026-6.066h0a5.144,5.144,0,0,1,6.066,4.062h0a5.2,5.2,0,0,1-4.044,6.066h0a5.2,5.2,0,0,1-3.175-.372h0A5.144,5.144,0,0,1,46.773,332.89ZM397.234,496.068a5.162,5.162,0,0,1,1.987-7.006h0a5.126,5.126,0,0,1,7.006,2h0a5.144,5.144,0,0,1-1.987,7.006h0a5.162,5.162,0,0,1-4.665.177h0a5.144,5.144,0,0,1-2.341-2.288ZM43.083,307.686a5.179,5.179,0,0,1,4.665-5.6h0a5.161,5.161,0,0,1,5.623,4.665h0a5.161,5.161,0,0,1-4.665,5.6h0a4.86,4.86,0,0,1-2.625-.461h0a5.179,5.179,0,0,1-3-4.2ZM418.625,483.28a5.179,5.179,0,0,1,1.259-7.183h0a5.161,5.161,0,0,1,7.095,1.242h0a5.144,5.144,0,0,1-1.242,7.183h0a5.126,5.126,0,0,1-5.144.461h0a5.321,5.321,0,0,1-1.969-1.791ZM42.09,282.251h0a5.179,5.179,0,0,1,5.161-5.108h0a5.161,5.161,0,0,1,5.073,5.321h0a5.126,5.126,0,0,1-5.073,5h0A4.949,4.949,0,0,1,45.158,287h0a5.179,5.179,0,0,1-3.068-4.753Zm396.489,185.97a5.161,5.161,0,0,1,.479-7.272h0a5.179,5.179,0,0,1,7.308.479h0a5.161,5.161,0,0,1-.514,7.272h0a5.161,5.161,0,0,1-5.552.816h0a5.319,5.319,0,0,1-1.72-1.295ZM43.7,256.817a5.126,5.126,0,0,1,5.711-4.505h0a5.179,5.179,0,0,1,4.541,5.729h0a5.179,5.179,0,0,1-5.747,4.523h0a5.658,5.658,0,0,1-1.561-.443h0A5.161,5.161,0,0,1,43.7,256.817ZM456.794,451.23a5.179,5.179,0,0,1-.284-7.29h0a5.161,5.161,0,0,1,7.29-.284h0a5.179,5.179,0,0,1,.284,7.29h0a5.179,5.179,0,0,1-5.96,1.188h0a5.888,5.888,0,0,1-1.277-.9ZM48.085,231.684a5.126,5.126,0,0,1,6.261-3.831h0a5.126,5.126,0,0,1,3.884,6.155h0a5.161,5.161,0,0,1-6.19,3.884h0a4.589,4.589,0,0,1-1.011-.355h0a5.161,5.161,0,0,1-2.944-5.853ZM473.219,432.429a5.161,5.161,0,0,1-1.029-7.237h0a5.126,5.126,0,0,1,7.2-1.046h0a5.2,5.2,0,0,1,1.046,7.237h0a5.179,5.179,0,0,1-6.3,1.579h0a6.874,6.874,0,0,1-.922-.532ZM55.038,207.171a5.144,5.144,0,0,1,6.545-3.228h0a5.179,5.179,0,0,1,3.21,6.563h0a5.126,5.126,0,0,1-6.527,3.193h0l-.514-.177h0a5.161,5.161,0,0,1-2.714-6.3ZM487.515,412a5.214,5.214,0,0,1-1.774-7.095h0a5.161,5.161,0,0,1,7.095-1.774h0a5.161,5.161,0,0,1,1.774,7.095h0a5.144,5.144,0,0,1-6.58,2.04h0ZM64.492,183.581a5.144,5.144,0,0,1,6.846-2.519h0a5.179,5.179,0,0,1,2.519,6.846h0a5.161,5.161,0,0,1-6.846,2.5h0a5.126,5.126,0,0,1-2.519-6.829Zm432.6,199.752.089-.213h0l.124-.266h0a5.179,5.179,0,0,1,6.829-2.536h0a5.161,5.161,0,0,1,2.536,6.846h0l-.106.248h0l-.124.248h0a5.144,5.144,0,0,1-6.829,2.5h0a5.126,5.126,0,0,1-2.519-6.829ZM78.113,168.115a5.2,5.2,0,0,1-1.774-7.095h0a5.161,5.161,0,0,1,7.095-1.774h0a5.144,5.144,0,0,1,1.774,7.095h0a5.179,5.179,0,0,1-6.616,2.058h0Zm428.22,192.072a5.161,5.161,0,0,1,6.545-3.21h0a5.161,5.161,0,0,1,3.228,6.545h0a5.144,5.144,0,0,1-6.545,3.21h0a3.754,3.754,0,0,1-.514-.2h0a5.161,5.161,0,0,1-2.714-6.35ZM91.593,147.044a5.144,5.144,0,0,1-1.046-7.2h0a5.161,5.161,0,0,1,7.219-1.046h0a5.144,5.144,0,0,1,1.046,7.2h0a5.179,5.179,0,0,1-6.314,1.614h0a4.822,4.822,0,0,1-.9-.568ZM512.967,336.721a5.126,5.126,0,0,1,6.084-3.938h0a5.179,5.179,0,0,1,3.9,6.172h0a5.161,5.161,0,0,1-6.172,3.884h0a4.543,4.543,0,0,1-1.011-.355h0a5.108,5.108,0,0,1-2.8-5.765ZM107.024,127.515a5.161,5.161,0,0,1-.284-7.29h0a5.126,5.126,0,0,1,7.272-.266h0a5.161,5.161,0,0,1,.3,7.272h0a5.2,5.2,0,0,1-5.96,1.188h0a5.321,5.321,0,0,1-1.33-.9ZM517.082,312.688h0a5.144,5.144,0,0,1,5.729-4.505h0a5.161,5.161,0,0,1,4.523,5.729h0a5.161,5.161,0,0,1-5.729,4.505h0a5.657,5.657,0,0,1-1.561-.443h0a5.179,5.179,0,0,1-2.962-5.285ZM124.513,109.743a5.108,5.108,0,0,1,.479-7.272h0a5.144,5.144,0,0,1,7.272.479h0a5.144,5.144,0,0,1-.5,7.272h0a5.126,5.126,0,0,1-5.552.8h0a5.179,5.179,0,0,1-1.7-1.277Zm394.13,178.7a5.144,5.144,0,0,1,5.215-5.09h0a5.161,5.161,0,0,1,5.126,5.09h0a5.161,5.161,0,0,1-5.321,5.108h0a5.162,5.162,0,0,1-2.093-.461h0A5.179,5.179,0,0,1,518.643,288.441ZM143.757,93.869a5.161,5.161,0,0,1,1.259-7.095h0A5.126,5.126,0,0,1,152.111,88h0a5.161,5.161,0,0,1-1.224,7.2h0a5.126,5.126,0,0,1-5.144.461h0A5.02,5.02,0,0,1,143.757,93.869Zm373.91,170.114a5.161,5.161,0,0,1,4.647-5.623h0a5.161,5.161,0,0,1,5.6,4.665h0a5.179,5.179,0,0,1-4.647,5.623h0a5.09,5.09,0,0,1-2.643-.443h0a5.126,5.126,0,0,1-2.962-4.221ZM164.58,80.14a5.144,5.144,0,0,1,1.986-7.095h0a5.126,5.126,0,0,1,7.095,1.969h0a5.179,5.179,0,0,1-1.969,7.095h0a5.321,5.321,0,0,1-4.7.16h0a5.073,5.073,0,0,1-2.412-2.128ZM514.12,239.772a5.179,5.179,0,0,1,4.026-6.066h0a5.215,5.215,0,0,1,6.1,4.044h0a5.2,5.2,0,0,1-4.062,6.084h0a5.2,5.2,0,0,1-3.175-.373h0a5.2,5.2,0,0,1-2.891-3.618ZM186.7,68.647a5.179,5.179,0,0,1,2.714-6.775h0a5.144,5.144,0,0,1,6.829,2.714h0a5.179,5.179,0,0,1-2.7,6.775h0a5.215,5.215,0,0,1-4.221,0h0a5.2,5.2,0,0,1-2.625-2.714Zm321.373,147.57a5.179,5.179,0,0,1,3.388-6.456h0a5.144,5.144,0,0,1,6.456,3.388h0a5.161,5.161,0,0,1-3.37,6.474h0a5.215,5.215,0,0,1-3.707-.266h0a5.2,5.2,0,0,1-2.767-3.139ZM209.916,59.512a5.144,5.144,0,0,1,3.405-6.456h0a5.161,5.161,0,0,1,6.456,3.388h0a5.179,5.179,0,0,1-3.405,6.456h0a5.037,5.037,0,0,1-3.707-.248h0A5.215,5.215,0,0,1,209.916,59.512ZM499.629,193.337a5.144,5.144,0,0,1,2.7-6.775h0a5.144,5.144,0,0,1,6.775,2.7h0a5.161,5.161,0,0,1-2.7,6.775h0a5.144,5.144,0,0,1-4.221,0h0A5.055,5.055,0,0,1,499.629,193.337ZM233.949,52.826a5.144,5.144,0,0,1,4.044-6.048h0a5.144,5.144,0,0,1,6.137,3.991h0a5.161,5.161,0,0,1-4.044,6.066h0a5.073,5.073,0,0,1-3.175-.372h0a5.161,5.161,0,0,1-2.962-3.636ZM488.9,171.378a5.144,5.144,0,0,1,1.987-7.095h0a5.162,5.162,0,0,1,7.095,1.969h0a5.2,5.2,0,0,1-1.987,7.095h0a5.179,5.179,0,0,1-4.7.16h0a5.321,5.321,0,0,1-2.395-2.128ZM258.532,48.693a5.161,5.161,0,0,1,4.665-5.6h0a5.126,5.126,0,0,1,5.6,4.647h0a5.161,5.161,0,0,1-4.647,5.623h0a5.321,5.321,0,0,1-2.661-.461h0a5.179,5.179,0,0,1-2.962-4.2ZM475.808,150.822a5.144,5.144,0,0,1,1.242-7.095h0a5.161,5.161,0,0,1,7.183,1.224h0a5.126,5.126,0,0,1-1.242,7.095h0a5.126,5.126,0,0,1-5.144.461h0A5.321,5.321,0,0,1,475.808,150.822ZM283.417,47.221a5.126,5.126,0,0,1,5.215-5.09h0a5.162,5.162,0,0,1,5.161,5.091h0a5.144,5.144,0,0,1-5.321,5.144h0a5.18,5.18,0,0,1-2.111-.461h0A5.2,5.2,0,0,1,283.417,47.221Zm177.368,84.516a5.144,5.144,0,0,1,.461-7.29h0a5.144,5.144,0,0,1,7.272.479h0a5.161,5.161,0,0,1-.479,7.272h0a5.161,5.161,0,0,1-5.569.816h0a4.9,4.9,0,0,1-1.738-1.348ZM308.391,48.374a5.161,5.161,0,0,1,5.676-4.7h0a5.126,5.126,0,0,1,4.558,5.747h0a5.126,5.126,0,0,1-5.711,4.523h0a5.054,5.054,0,0,1-1.579-.426h0a5.144,5.144,0,0,1-3-5.3Zm135.35,65.981a5.126,5.126,0,0,1-.284-7.29h0a5.161,5.161,0,0,1,7.272-.3h0a5.144,5.144,0,0,1,.284,7.29h0a5.126,5.126,0,0,1-5.942,1.188h0a5.445,5.445,0,0,1-1.383-1.046ZM332.992,51.921a5.179,5.179,0,0,1,6.172-3.9h0a5.179,5.179,0,0,1,3.884,6.19h0a5.108,5.108,0,0,1-6.155,3.867h0a4.822,4.822,0,0,1-1.047-.337h0a5.161,5.161,0,0,1-2.856-5.818Zm91.93,46.736a5.179,5.179,0,0,1-1.082-7.219h0a5.179,5.179,0,0,1,7.219-1.064h0a5.161,5.161,0,0,1,1.082,7.219h0a5.179,5.179,0,0,1-6.314,1.6h0A4.646,4.646,0,0,1,424.921,98.658Zm-67.79-40.493a5.161,5.161,0,0,1,6.545-3.193h0A5.144,5.144,0,0,1,366.9,61.5h0a5.179,5.179,0,0,1-6.563,3.228h0l-.5-.213h0a5.161,5.161,0,0,1-2.714-6.35ZM404.6,85.089a5.161,5.161,0,0,1-1.774-7.095h0a5.161,5.161,0,0,1,7.095-1.774h0a5.144,5.144,0,0,1,1.774,7.095h0a5.162,5.162,0,0,1-6.616,2.04h0A4.143,4.143,0,0,1,404.6,85.089Zm-24.1-18.162a5.144,5.144,0,0,1,6.829-2.536h0a5.161,5.161,0,0,1,2.5,6.846h0a5.161,5.161,0,0,1-6.811,2.59h0a5.144,5.144,0,0,1-2.519-6.9Z" transform="translate(-15240.3 4320.713)" fill="url(#linear-gradient-30)"/>
    <g id="그룹_548" data-name="그룹 548" transform="translate(-28.414 -9.788)">
      <path id="패스_576" data-name="패스 576" d="M146.444,234.953c6.081-.729,11.975-1.541,17.661-2.5s11.059-1.9,16.078-2.874V165.018a7.414,7.414,0,0,0-3.895-6.394,46.965,46.965,0,0,0-12.912-4.769l2.832-5.915c2.083.271,4.624.625,7.456,1.062s5.644.958,8.476,1.479,5.519,1.041,8.122,1.479,4.79.812,6.581,1.083c-.167.812-.354,1.874-.541,3.228s-.333,2.687-.458,4.04-.25,2.52-.333,3.561-.146,1.583-.146,1.666v73.809q0,4.165-.187,9.622c-.146,3.624-.333,7.289-.541,10.955s-.5,7.164-.812,10.413-.6,5.977-.875,7.935L181.266,279.9c-.1-1.437-.208-3.395-.354-5.852s-.25-5.123-.333-8-.167-5.79-.271-8.747-.125-5.727-.125-8.331V237.015c-5.29,1.062-10.767,2.083-16.411,3.207s-11.246,2.083-16.807,2.895-10.871,1.624-15.995,2.291-9.726,1.146-13.85,1.416l-3.895.333c-1.791.125-3.749.312-5.852.542s-4.165.5-6.248.791l-5.311.875L87.88,236.2a50.743,50.743,0,0,0,5.519.667c2.228.187,4.5.333,6.789.479s4.436.25,6.456.333,3.561.125,4.623.125c3.5-.167,6.956-.375,10.413-.6l10.226-.6v-9.393a18.412,18.412,0,0,0-.271-3.478,4.436,4.436,0,0,0-1.333-2.416,9.351,9.351,0,0,0-3.1-1.708,38.238,38.238,0,0,0-5.373-1.4l2.416-5.706,5.248.6,6.373.729c2.208.271,4.394.562,6.6.875s4.165.667,5.831,1.021a20.978,20.978,0,0,0-.666,3.02c-.167,1.208-.354,2.4-.542,3.561s-.312,2.208-.4,3.166-.125,1.541-.125,1.812Zm-.958-38.05a118.7,118.7,0,0,0,15.745,8.143q8.06,3.395,15.578,6.248l-10.746,10.08q-6.248-4.707-13.183-9.622l-13.787-9.539a135.622,135.622,0,0,1-20.431,13.371,169.36,169.36,0,0,1-21.514,9.539l-4.04-4.582a147.034,147.034,0,0,0,29.157-17.869,99.238,99.238,0,0,0,21.43-22.909c-2.582,0-5.311.25-8.122.479s-5.54.375-8.143.458a30.981,30.981,0,0,0-4.02.208c-1.687.208-3.52.312-5.457.541l-5.706.667-4.978.6-8.247-11.746c1.083.187,2.6.375,4.582.6s4.04.437,6.248.6,4.374.312,6.519.416,3.895.125,5.248.125c6.727,0,13.475-.146,20.306-.729a145.784,145.784,0,0,0,18.286-2.624l5.1,4.832a95.509,95.509,0,0,1-8.935,12.1A91.633,91.633,0,0,1,145.4,196.9Zm7.81-31.24H142.612l-5.248.146H133.2a26.6,26.6,0,0,0-2.832.125l-4.165.333-4.5.417-3.895.333-6.248-11.288a27.073,27.073,0,0,0,4.165.729c1.874.229,3.832.458,5.852.666s3.936.4,5.769.479,3.166.125,3.978.125,2.562,0,4.5-.187,4.02-.312,6.248-.541,4.644-.5,7.06-.812l6.852-.875Z" transform="translate(-15204.873 4402.577)" fill="#6b4a00"/>
      <path id="패스_577" data-name="패스 577" d="M222.13,246.956c0,2.416,0,5-.208,7.727s-.292,5.436-.458,8.122-.437,5.29-.75,7.81-.6,4.707-.875,6.581l-12.1,2.083c-.187-1.52-.312-3.457-.4-5.79s-.167-4.79-.208-7.393,0-5.165,0-7.727V226.5c-3.416,0-6.727,0-9.955.146l-9,.271c-2.791,0-5.269.208-7.477.333l-5.311.333c-1.687,0-3.541.229-5.5.4l-5.852.541-5.706.6-5.123.6-5.436-13.308c1.979.271,4.165.5,6.519.687s4.79.375,7.268.6l7.248.6c2.374.167,4.519.312,6.394.4h8.331c3.416,0,7.123,0,11.163-.125l12.5-.271,12.5-.333,11.1-.354c3.353,0,6.1-.167,8.331-.271,2.957,0,6.04-.25,9.268-.521s6.435-.562,9.6-.875l9.226-.937c2.957-.312,5.644-.666,8.06-1.021l-1.874,12.642-6.394-.271-8-.208-8.872-.187c-3.041-.1-6.061-.146-9.018-.146h-8.331c-3.166,0-6.789.146-10.809.417Zm-2.416-89.408a39.343,39.343,0,0,1,10.6,3.228,30.616,30.616,0,0,1,8.331,5.582,25.679,25.679,0,0,1,5.373,7.331,19.556,19.556,0,0,1,1.937,8.6,20.826,20.826,0,0,1-2.541,10.143,25.451,25.451,0,0,1-7.06,8.06,33.323,33.323,0,0,1-10.83,5.311,47.273,47.273,0,0,1-13.7,1.9,43.735,43.735,0,0,1-13.183-1.9,32.655,32.655,0,0,1-10.413-5.311,24.992,24.992,0,0,1-6.935-8.06,21.243,21.243,0,0,1-2.478-10.142,19.973,19.973,0,0,1,2.083-8.955,25.117,25.117,0,0,1,5.769-7.581,31.949,31.949,0,0,1,8.81-5.581,38.925,38.925,0,0,1,11.08-2.895,4.165,4.165,0,0,0-1.958-2.291,20.141,20.141,0,0,0-4.165-1.6l2.562-5.1c1.062.167,2.437.417,4.165.729l5.1,1c1.749.375,3.478.708,5.165,1.021s3.145.562,4.311.729c-.271,1-.562,1.958-.875,2.895s-.791,1.916-1.145,2.895Zm10.413,24.2a15.641,15.641,0,0,0-1.479-6.664,17.993,17.993,0,0,0-3.957-5.5,18.452,18.452,0,0,0-5.727-3.707,16.893,16.893,0,0,0-6.581-1.333,17.391,17.391,0,0,0-6.727,1.333,17.826,17.826,0,0,0-5.644,3.707,17.639,17.639,0,0,0-3.832,5.5,16.223,16.223,0,0,0-1.416,6.664,17.162,17.162,0,0,0,1.416,7.06,17.411,17.411,0,0,0,3.77,5.436,15.871,15.871,0,0,0,5.581,3.5,19.2,19.2,0,0,0,6.852,1.208,18.931,18.931,0,0,0,6.727-1.208,16.932,16.932,0,0,0,5.644-3.5,17.744,17.744,0,0,0,3.895-5.436,16.535,16.535,0,0,0,1.541-7.06Z" transform="translate(-15140.022 4402.945)" fill="#6b4a00"/>
      <path id="패스_578" data-name="패스 578" d="M284.941,246.225c0,2.416,0,5-.208,7.727s-.292,5.457-.479,8.143-.417,5.29-.729,7.789-.6,4.707-.875,6.6l-12.1,2.083c-.187-1.52-.312-3.436-.4-5.769s-.167-4.79-.208-7.393,0-5.186,0-7.727V223.733c-3.415,0-6.727,0-9.955.125l-9.018.271c-2.77,0-5.248.208-7.456.333l-5.311.333c-1.708.187-3.541.375-5.5.541l-5.852.6c-1.937.229-3.832.437-5.727.6l-5.1.541-5.436-13.329c1.958.271,4.165.521,6.519.75s4.79.417,7.268.6,4.873.333,7.248.458l6.394.354c2.083,0,4.915.125,8.331.125h11.163c4.02,0,8.226-.146,12.5-.271s8.539-.25,12.5-.333,7.727-.208,11.08-.333l8.331-.333c2.957-.1,6.061-.271,9.289-.541s6.435-.562,9.6-.875,6.248-.646,9.226-1.021,5.644-.708,8.06-1.062l-1.874,12.642c-1.812,0-3.936-.187-6.394-.271s-5.144-.187-8-.271l-8.872-.271c-3.061,0-6.06-.146-9.018-.146H295.6c-3.186,0-6.789.146-10.809.417Zm-5.519-75.683q11.434,5.894,24.325,11.08t24.888,9.08L317.867,201.74,308,196.013l-11.309-6.519c-3.895-2.228-7.81-4.457-11.746-6.644L273.632,176.6a112.069,112.069,0,0,1-23.388,17.744,182.5,182.5,0,0,1-26.491,12.5l-3.978-5.581a134.161,134.161,0,0,0,29.7-17.682,86.928,86.928,0,0,0,19.91-21.451,3.686,3.686,0,0,0,.541-2.208,2.52,2.52,0,0,0-.541-1.416c-.458-.271-1.083-.666-1.9-1.208a23.84,23.84,0,0,0-2.6-1.541L262.26,154.4a10.2,10.2,0,0,0-1.749-.729l4.29-4.853c1.708.541,3.686,1.125,5.915,1.749s4.54,1.27,6.873,1.958l6.852,2.083c2.228.687,4.165,1.333,5.769,1.958a81.066,81.066,0,0,1-4.978,7.331,74.678,74.678,0,0,1-5.811,6.644Z" transform="translate(-15072.021 4403.529)" fill="#6b4a00"/>
    </g>
  </g>
</svg>
