<svg xmlns="http://www.w3.org/2000/svg" viewBox="0 0 832.35 307.35"><defs><style>.cls-1{fill:#6ab42d;}.cls-2{fill:#458a33;}.cls-3{fill:#1c1c1b;}.cls-4{fill:#fff;}.cls-5{fill:#ec6539;}.cls-6{fill:#a86fad;}.cls-7{fill:#5cbeb9;}.cls-8{fill:#f19da0;}</style></defs><g id="레이어_2" data-name="레이어 2"><g id="Layer_1" data-name="Layer 1"><path class="cls-1" d="M290.29,41c-1.42-1.33-2.61-2.93-4.08-4.24s-3-2.48-4.57-3.7-3.27-2.16-4.89-3.23a45.39,45.39,0,0,0-5.1-2.82c-1.76-.86-3.25-2.44-5.13-3a30.89,30.89,0,0,0-6-.69,34.16,34.16,0,0,0-6-.12,40.16,40.16,0,0,0-5.79,1.44,31.27,31.27,0,0,0-5.49,1.82c-1.78.8-3.84,1.38-5.36,2.65.85,1.55,1.61,3.36,2.51,4.9s2.35,2.76,3.35,4.23A42.24,42.24,0,0,0,247,42.56a29.88,29.88,0,0,0,3.71,3.83,25.38,25.38,0,0,0,5.08,2.86,29.5,29.5,0,0,0,5.5,1.88c1.9.47,3.76,1.43,5.69,1.56s3.95-.67,5.84-.86a22.29,22.29,0,0,0,5-1.19c1.65-.57,3.59-.6,5-1.59a33,33,0,0,0,4.28-3.73A23.15,23.15,0,0,0,290.87,41"/><path class="cls-2" d="M297.42,63.37c-1.13,2.28-3.06,2.53-5.16,1.1-2.41-1.65-.85-2.75-1.59-5.58s-1-2.75-1.75-5.58-.85-2.8-1.59-5.62-1.93-3-.63-5.59c1.13-2.27,2.43-2.91,4.52-1.48,2.41,1.65.66,2.85,1.4,5.67s1.22,2.7,2,5.53.11,3,1.44,5.57C297.49,60.25,298.71,60.75,297.42,63.37Z"/><path class="cls-2" d="M287,43.33a32.06,32.06,0,0,1-1.13-5.84,37.12,37.12,0,0,1,.34-6,39.8,39.8,0,0,1,1.2-5.82,37.44,37.44,0,0,1,1.92-5.61,32.63,32.63,0,0,1,3-5.11,27.89,27.89,0,0,1,3.54-4.79,30.94,30.94,0,0,1,4.44-2.88,43.44,43.44,0,0,1,4.56-2.58c1.56-.79,3-1.79,4.65-2.47s3.37-1.65,5-2.28a21.43,21.43,0,0,1,1.84,4.92,24.21,24.21,0,0,1,1,4.92c.1,1.67-.56,3.31-.74,5s.33,3.49-.11,5.07a33.41,33.41,0,0,1-2.4,5.27,34.18,34.18,0,0,1-2.61,5.16c-1.11,1.57-3,2.47-4.36,3.81s-2.29,3.25-3.85,4.33-3.63,1.37-5.37,2.14-3.35,2.08-5.22,2.49-3.85,0-5.78,0"/><path class="cls-3" d="M184.38,86c-1.27-3.78-2.41-7.35-4.78-10.5a37.36,37.36,0,0,0-8.28-8.37,38.39,38.39,0,0,0-10.56-5.67C157,60.27,153,61,148.78,61s-8,0-11.72,1.21a37.55,37.55,0,0,0-10.67,5.11,58.68,58.68,0,0,0-5.27,4.08,38.24,38.24,0,0,0-9.38-6.88,39.71,39.71,0,0,0-11.3-4.16c-3.94-.72-8.22-2.24-12.29-1.73s-8,2.36-11.73,4.08-5.94,5.53-8.81,8.16l-.85.78A69.31,69.31,0,0,0,60.25,67c-3.45-2.27-7.92-2.17-11.71-3.24s-7.63-2.2-11.63-2.07a39.19,39.19,0,0,0-11.8,1.93,39.22,39.22,0,0,0-10.77,5.28c-3.12,2.36-4.76,6-7.1,9.38s-4.47,6.4-5.57,10.08A35.32,35.32,0,0,0,0,99.82a36.27,36.27,0,0,0,1.76,11.54,36.83,36.83,0,0,0,6,10.14c2.43,3,5.89,4.89,9.34,7.16s6.14,5.9,9.94,7,8.25,0,12.26-.16,8.13-.1,11.94-1.43,6.52-4.33,9.75-6.76c1.76-1.33,3.83-2.39,5.72-3.66A36.09,36.09,0,0,0,75,129.75a39.25,39.25,0,0,0,11.14,4.38,39.54,39.54,0,0,0,12,.13c3.92-.49,7.33-2.45,11.09-4.17s8.36-2.15,11.24-4.78a12.55,12.55,0,0,0,1.39-1.53,22.89,22.89,0,0,0,4.18,3.92c3.25,2.28,7.35,2.79,11.25,4s7.38,3.62,11.54,3.62,8.16-1.33,11.91-2.52a41.89,41.89,0,0,0,19.39-13.53c2.35-3.14,5.6-6.26,6.86-10s1.2-8,1.2-12S185.61,89.63,184.38,86Z"/><path class="cls-3" d="M237.92,97a35,35,0,0,1-1.32,11,32,32,0,0,1-13.16,17.6c-3,2.2-5.69,5.53-9.34,6.71s-7.62.08-11.52.08a36,36,0,0,1-21.21-6.32c-3.07-2.23-6.54-4.32-8.78-7.38s-2-7.33-3.16-11-2.59-6.84-2.59-10.73a35,35,0,0,1,1.84-11c1.19-3.64,1.83-7.61,4-10.64a37.64,37.64,0,0,1,8.38-7.84c3-2.2,6.72-3.42,10.37-4.6s7.2-.69,11.11-.69,7.8-1.14,11.33,0,6.28,4.21,9.32,6.42a34.79,34.79,0,0,1,8.16,7.47A33.12,33.12,0,0,1,237.92,97Z"/><path class="cls-4" d="M32.12,84.68A21.39,21.39,0,0,0,27.83,89L23,85.29a34,34,0,0,1,2.82-3.46A15.08,15.08,0,0,1,29,79.27a14.59,14.59,0,0,1,3.7-1.58,17.51,17.51,0,0,1,4.62-.56,15.94,15.94,0,0,1,5.26.83,11.16,11.16,0,0,1,4,2.37A10.71,10.71,0,0,1,49.17,84a11.92,11.92,0,0,1,.91,4.71,12.86,12.86,0,0,1-.61,4.13,13,13,0,0,1-1.85,3.53,24.64,24.64,0,0,1-3.16,3.48c-1.27,1.17-2.76,2.46-4.45,3.86l-8,6.61H50.47v6h-28v-5.34L35.8,99.65c1.33-1.1,2.45-2.1,3.38-3a18.27,18.27,0,0,0,2.24-2.56,9.12,9.12,0,0,0,1.24-2.36,7.72,7.72,0,0,0,.39-2.48,5.56,5.56,0,0,0-1.8-4.43,6.51,6.51,0,0,0-4.45-1.57A7.93,7.93,0,0,0,32.12,84.68Z"/><path class="cls-4" d="M110.4,104.73a19.63,19.63,0,0,1-3.43,6.36,16.1,16.1,0,0,1-5.34,4.28,15.2,15.2,0,0,1-6.94,1.57,15.4,15.4,0,0,1-6.92-1.54,16.12,16.12,0,0,1-5.32-4.25,19.39,19.39,0,0,1-3.4-6.34A25,25,0,0,1,77.86,97a24.71,24.71,0,0,1,1.22-7.81,19.63,19.63,0,0,1,3.43-6.36,16.3,16.3,0,0,1,5.34-4.28,15.21,15.21,0,0,1,7-1.57,15.38,15.38,0,0,1,6.91,1.54A16.12,16.12,0,0,1,107,82.81a19.39,19.39,0,0,1,3.4,6.34,25,25,0,0,1,1.19,7.77A24.71,24.71,0,0,1,110.4,104.73Zm-6.5-13.1a14.39,14.39,0,0,0-2-4.41,10.31,10.31,0,0,0-3.13-3,8.18,8.18,0,0,0-8.16,0,9.69,9.69,0,0,0-3.07,2.92,14.2,14.2,0,0,0-2,4.38,21.63,21.63,0,0,0,0,10.84,14.83,14.83,0,0,0,2,4.41,9.81,9.81,0,0,0,3.13,3,7.9,7.9,0,0,0,4.1,1.08,7.73,7.73,0,0,0,4.06-1.08,9.71,9.71,0,0,0,3.08-2.95,14.88,14.88,0,0,0,2-4.38,20.15,20.15,0,0,0,.69-5.37A20.51,20.51,0,0,0,103.9,91.63Z"/><path class="cls-4" d="M147.62,84.68A21.91,21.91,0,0,0,143.33,89l-4.81-3.75a34,34,0,0,1,2.82-3.46,15.08,15.08,0,0,1,3.13-2.56,14.51,14.51,0,0,1,3.71-1.58,17.4,17.4,0,0,1,4.62-.56,16,16,0,0,1,5.26.83,11.33,11.33,0,0,1,4,2.37A10.82,10.82,0,0,1,164.67,84a11.74,11.74,0,0,1,.91,4.71,12.2,12.2,0,0,1-2.46,7.66A24.52,24.52,0,0,1,160,99.85c-1.28,1.17-2.76,2.46-4.46,3.86l-8,6.61H166v6H138v-5.34L151.3,99.65q2-1.65,3.38-3a18.27,18.27,0,0,0,2.24-2.56,9.17,9.17,0,0,0,1.25-2.36,8,8,0,0,0,.38-2.48,5.59,5.59,0,0,0-1.79-4.43,6.53,6.53,0,0,0-4.46-1.57A7.93,7.93,0,0,0,147.62,84.68Z"/><path class="cls-4" d="M202.05,77.41h4.76v38.87h-6.75v-32l-7,1.93-1.44-5.51Z"/><path class="cls-1" d="M778.78,185.07c1.7-.95,3.59-1.58,5.33-2.51s3.42-1.93,5.2-2.75,3.5-1.87,5.33-2.53a46.89,46.89,0,0,1,5.66-1.78c1.92-.42,4,.2,5.94.11a32,32,0,0,1,5.94-.14A34.9,34.9,0,0,1,818,177a39.4,39.4,0,0,1,5.72,1.86,32.9,32.9,0,0,1,5,3.16c1.54,1.2,2.47,2.89,3.65,4.48-1.2,1.31-2.46,2.38-3.69,3.67s-2.1,3-3.42,4.16a41.59,41.59,0,0,1-4.23,3.31,29.4,29.4,0,0,1-4.72,2.54,25.71,25.71,0,0,1-5.51,2,29.61,29.61,0,0,1-5.86.63c-2,0-3.85-.84-5.76-1.17s-4-.08-5.85-.71a23.94,23.94,0,0,1-4.86-2.21c-1.47-.94-2.31-2.7-3.49-4a30.93,30.93,0,0,1-3.53-4.33,21.08,21.08,0,0,1-2.08-5.14"/><path class="cls-2" d="M767.48,205.49c.56,2.48,1.82,3.43,4.19,2.54,2.74-1,1.3-2.67,2.69-5.23s1.13-2.71,2.52-5.28,1.29-2.63,2.67-5.2,4.27-2.16,3.63-5c-.56-2.47-2.52-3.21-4.9-2.31-2.73,1-1.46,2.53-2.85,5.09s-.95,2.81-2.34,5.38-1,2.92-2.82,5.21S766.84,202.64,767.48,205.49Z"/><path class="cls-2" d="M781.94,188.71a32,32,0,0,0,1.92-5.61,35.52,35.52,0,0,0,1.38-5.76,39.42,39.42,0,0,0,.42-5.93,38.6,38.6,0,0,0-.67-5.91,33.9,33.9,0,0,0-1.42-5.78,27.47,27.47,0,0,0-3-5.14,32.86,32.86,0,0,0-2.85-4.46A42.92,42.92,0,0,0,774,146.4c-1.34-1.14-2.94-2-4.35-3s-2.85-1.71-4.29-2.71a18.18,18.18,0,0,0-2.94,3.72,24.76,24.76,0,0,0-1.79,4.64c-.5,1.59-1.44,3.12-1.65,4.77s.57,3.39.63,5a32.62,32.62,0,0,0,.27,5.7,33.22,33.22,0,0,0,2,5.34c.71,1.79.8,3.9,1.8,5.52s2.85,2.66,4.12,4.07,2.16,3.3,3.67,4.46,3.52,1.57,5.23,2.41,3.27,2.16,5.13,2.63"/><path class="cls-5" d="M351.4,57.63c-1.48,1.43-.28,2.08-.28,4.14s.18,2.07.18,4.13.05,2.07.05,4.13-.24,2.07-.24,4.14,2.08,3,.61,4.44-2.38,0-4.47,0-2.08-.12-4.17-.12-2.08-.54-4.17-.54-2.78-1.19-4.33.21c-1.4,1.26,0,2,0,3.94s.45,1.89.45,3.79-1.63,2.4-.23,3.67c1.55,1.4,2-.1,4.07-.1s2.08,0,4.17,0,2.09.39,4.17.39,2.47-1.44,3.93,0,.08,1.88.08,4-.16,2.11-.16,4.23.77,2.12.77,4.24-.56,2.12-.56,4.24,0,2.11,0,4.23.48,2.12.48,4.24,0,2.12,0,4.24-.75,2.12-.75,4.24-1.2,2.76.31,4.26,2.14.19,4.27.19,2.14.24,4.27.24,2.9,1.21,4.44-.27,0-2.24,0-4.3-.3-2.06-.3-4.13.43-2.06.43-4.12-.14-2.06-.14-4.12.27-2.06.27-4.12-.2-2.07-.2-4.13-.56-2.06-.56-4.12-.13-2.06-.13-4.13.32-2.06.32-4.12-.31-2.07-.31-4.13.18-2.06.18-4.13.7-2.06.7-4.13-.3-2.06-.3-4.12.13-2.07.13-4.13-.73-2.06-.73-4.13.9-2.07.9-4.13,1-2.64-.5-4.08-2.08.15-4.21.15-2.26.61-4.35.16S352.94,56.14,351.4,57.63Z"/><path class="cls-5" d="M321.81,63.71c-.95-.86-2.49-1-3.54-1.7s-1.81-1.88-2.95-2.47a30.61,30.61,0,0,0-3.66-1.16,31.31,31.31,0,0,0-3.61-1.61,31.78,31.78,0,0,0-3.92-.46,32.23,32.23,0,0,0-3.92-.59s0,.57,0,.57a36.27,36.27,0,0,0-4,0,34,34,0,0,0-3.93.89,31.16,31.16,0,0,0-3.83,1.25,30.91,30.91,0,0,0-3.17,2.08,31.68,31.68,0,0,0-3.32,1.76,31.13,31.13,0,0,0-3.23,2.06,27.86,27.86,0,0,0-2.28,3,27.47,27.47,0,0,0-2.19,3,30.09,30.09,0,0,0-1.39,3.46c-.54,1.19-1.5,2.23-1.85,3.5a27.61,27.61,0,0,0-.92,3.87,30.28,30.28,0,0,0-.26,4,29.39,29.39,0,0,0,.55,4,26.69,26.69,0,0,0,.95,3.92,26.32,26.32,0,0,0,1.15,3.88,31.79,31.79,0,0,0,2,3.29,31,31,0,0,0,2.24,3.08,29,29,0,0,0,2.44,3c.91.86,2.35,1.08,3.38,1.81a28.45,28.45,0,0,0,3.09,2.1,31.65,31.65,0,0,0,3.34,1.69c1.21.47,2.29,1.39,3.53,1.71a34.64,34.64,0,0,0,7.77.72,33.08,33.08,0,0,0,4-.69,32.47,32.47,0,0,0,4-.55,31.81,31.81,0,0,0,3.82-1.3,30.51,30.51,0,0,0,3.47-1.61,31.14,31.14,0,0,0,3.48-1.7,31.24,31.24,0,0,0,3.1-2.36,28.74,28.74,0,0,0,2.49-2.91,29.91,29.91,0,0,0,2.35-3c.67-1.07.59-2.54,1.12-3.7s1.51-2.22,1.88-3.49a27.57,27.57,0,0,0,.75-3.89,29.57,29.57,0,0,0-.21-4,29.24,29.24,0,0,0-.3-4c-.18-1.39.27-2.87-.1-4.16a26.49,26.49,0,0,0-1.74-3.74,30.51,30.51,0,0,0-1.72-3.43,29.58,29.58,0,0,0-2.1-3.25A30.74,30.74,0,0,0,321.81,63.71Zm-21.59,38c-1.14,0-2.37.68-3.46.44s-2-1.17-3.06-1.62a19.22,19.22,0,0,1-3.1-1.22,17,17,0,0,1-2.25-2.45,17.29,17.29,0,0,1-2.26-2.35,18.71,18.71,0,0,1-1.26-3c-.46-1-1.34-1.89-1.57-3a17.41,17.41,0,0,1,0-3.38,16.23,16.23,0,0,1,.26-3.42,16.9,16.9,0,0,1,1.12-3.25,22.15,22.15,0,0,1,1.22-3.26,19.72,19.72,0,0,1,2.39-2.53,20.21,20.21,0,0,1,2.83-1.84,20.07,20.07,0,0,1,2.68-2,15.79,15.79,0,0,1,3.13-1,15.12,15.12,0,0,1,3.28-.75c1.18,0,2.26.68,3.37.93a13.86,13.86,0,0,1,3.13,1.26,32.69,32.69,0,0,1,5.51,3.8,18.08,18.08,0,0,1,2.17,2.62,19.33,19.33,0,0,1,1.29,3.14,19.18,19.18,0,0,1,1.12,3.09,16.54,16.54,0,0,1,.37,3.26,16.37,16.37,0,0,1-.57,3.37c-.24,1.14.1,2.47-.38,3.52a19.92,19.92,0,0,1-1.79,2.86,18.36,18.36,0,0,1-2.23,2.51c-.78.77-1.95,1-2.86,1.64a16,16,0,0,1-2.77,1.64,16.6,16.6,0,0,1-3.09,1.06A16.93,16.93,0,0,1,300.22,101.68Z"/><path class="cls-6" d="M405,115.91c-1.41,0-2.73.26-3.9.18-1.46-.1-2.65-.94-3.74-1.16-1.94-.39-3.61-.8-4.77-2s-1.53-2.82-1.92-4.77c-.23-1.08-1.08-2.26-1.17-3.72-.08-1.17.11-2.48.11-3.89,0-2-.33-2-.33-4.1s.8-2,.8-4.11-.81-2-.81-4.1.7-2.05.7-4.11-1.85-2.83-.4-4.28,2.23.63,4.28.63,2.06-.62,4.11-.62,2.06.19,4.11.19,2.06-.41,4.11-.41,2.06-.08,4.12-.08,2.05.76,4.11.76,2.06-.18,4.11-.18,2.06.2,4.12.2,2.06-.14,4.11-.14,2.06-.31,4.12-.31,2.06.16,4.11.16,2.06,0,4.12,0,2.06.06,4.12.06,2.06-.56,4.12-.56,3.09,2.26,4.42.68c1.6-1.9-.31-2.73-.27-5.22s1.49-2.89-.08-4.81c-1.3-1.6-1.88.11-3.94.11s-2.06.09-4.11.09-2.06-.27-4.13-.27-2.06-.28-4.11-.28-2.07,0-4.13,0-2.06.3-4.12.3-2.06.11-4.12.11-2.06.28-4.13.28-2.06-.39-4.12-.39-2.06-.29-4.12-.29-2.07.38-4.13.38-2.06-.56-4.12-.56-2.06.13-4.13.13-2.06.35-4.13.35-2.76,1.48-4.22,0,.5-2.17.5-4.24-.59-2.08-.59-4.15-1.61-3-.14-4.47,2.41.17,4.51.17,2.09-.23,4.18-.23,2.09,0,4.19,0,2.09.39,4.18.39,2.09-.12,4.18-.12,2.09.34,4.19.34,2.09-.25,4.18-.25,2.09-.31,4.19-.31,2.09.35,4.18.35,2.09-.22,4.19-.22,2.09.41,4.18.41h8.38c2.09,0,2.09-.36,4.19-.36s2.09-.19,4.18-.19,2.1.17,4.19.17,2.1.09,4.2.09,2.91-1.65,4.37-.14-.49,2.34-.49,4.52-.15,2.17-.15,4.35.88,2.18.88,4.35-.59,2.18-.59,4.35.43,2.18.43,4.36-.46,2.17-.46,4.35.23,2.18.23,4.36,1.21,2.54-.27,4.13-1.79.47-3.82.47-2-.37-4.07-.37-2,.09-4.07.09-2-.06-4.06-.06-2,.48-4.07.48-2-.31-4.07-.31-2-.48-4.07-.48-2,.34-4.07.34-2,0-4.07,0-2,.37-4.08.37-2-.55-4.07-.55-2-.14-4.07-.14H412.2c-2,0-2,.28-4.08.28s-2.63-1.29-4.09.13-.28,2-.28,4,.18,2,.18,4a12.57,12.57,0,0,0,.24,2.77,1.6,1.6,0,0,0,1.6,1.08c2.12,0,2.12-.75,4.23-.75s2.12.15,4.24.15,2.11.12,4.23.12,2.12.54,4.24.54,2.12-.15,4.23-.15,2.12-.1,4.24-.1,2.12-.46,4.24-.46,2.12.18,4.24.18,2.12,0,4.24,0h4.23c2.12,0,2.12.39,4.24.39s2.12.15,4.24.15,2.12-.18,4.25-.18,2.46-1.37,4,.07.66,1.72.66,3.69-.56,2-.56,3.93,1.52,2.54.07,3.87-2.09.46-4.23.46-2.15,0-4.29,0-2.15-.75-4.29-.75-2.15.3-4.29.3-2.15-.18-4.29-.18-2.15-.24-4.3-.24-2.14.2-4.29.2-2.15.06-4.29.06-2.15.29-4.3.29-2.14-.42-4.29-.42-2.15.14-4.29.14-2.15-.27-4.3-.27-2.15.17-4.3.2S407.15,115.91,405,115.91Zm85.85,31.92c1.43,1.34.32,2,.32,4s-.68,2-.68,3.93,1.79,2.64.37,4-2.13-.4-4.19-.4-2.07.69-4.13.69-2.07-.23-4.13-.23-2.07.33-4.13.33-2.07-.79-4.13-.79-2.07.8-4.13.8-2.06-.7-4.13-.7-2.06.47-4.12.47-2.07-.7-4.13-.7-2.07.62-4.13.62-2.07-.19-4.13-.19-2.07.41-4.13.41-2.07.08-4.13.08-2.07-.76-4.13-.76-2.07.18-4.14.18-2.06-.2-4.13-.2-2.06.14-4.13.14-2.07.31-4.13.31-2.07-.16-4.14-.16-2.07,0-4.14,0-2.07-.06-4.14-.06c-1.76,0-3.52.4-5.11.09s-2.7-1.64-3.94-2.49a8.64,8.64,0,0,1-3.23-3.21,13.62,13.62,0,0,1-1.33-6.05c0-2.16,0-2.16,0-4.32s-.08-2.16-.08-4.32.26-2.17.26-4.33.28-2.16.28-4.32.05-2.17.05-4.34-1.84-2.86-.29-4.37,2.27-.13,4.5-.13,2.23-.28,4.46-.28,2.93-1.17,4.51.41-.27,2.28-.27,4.52.38,2.23.38,4.47-.56,2.24-.56,4.47.13,2.24.13,4.48.35,2.25.35,4.49a3.59,3.59,0,0,0,.81,2.75,3.86,3.86,0,0,0,2.69,1.24c2.08,0,2.08-.6,4.16-.6s2.08-.27,4.15-.27,2.08.31,4.16.31,2.08-.24,4.16-.24,2.08.05,4.16.05,2.07.39,4.15.39,2.08-.13,4.16-.13,2.07.35,4.15.35,2.08-.26,4.16-.26,2.08-.3,4.16-.3,2.08.35,4.15.35,2.08-.22,4.16-.22,2.08.41,4.16.41H470c2.08,0,2.08-.36,4.16-.36s2.08-.19,4.16-.19,2.08.17,4.16.17,2.13.52,4.16.08C488.82,147.38,489.33,146.4,490.85,147.83Zm0-15.78c-1.8,1.56-2.44.32-4.82.32s-2.38-.69-4.77-.69-3,1.94-4.83.38c-1.56-1.35.4-2.13.4-4.2s-.7-2.06-.7-4.12.23-2.07.23-4.13-.33-2.06-.33-4.13.8-2.06.8-4.12-.8-2.06-.8-4.12.69-2.06.69-4.13-.46-2.06-.46-4.12.69-2.07.69-4.13-.61-2.06-.61-4.13.19-2.06.19-4.13-.42-2.06-.42-4.13-.08-2.06-.08-4.12.77-2.07.77-4.13-.19-2.07-.19-4.13.2-2.07.2-4.13-.13-2.07-.13-4.14-1.84-2.88-.27-4.23c1.8-1.57,2.47.13,4.85.13s2.38,0,4.77,0,2.88-1.54,4.69,0c1.56,1.35.51,2,.51,4s-.82,2.07-.82,4.13.43,2.06.43,4.13.2,2.06.2,4.12,0,2.06,0,4.12.09,2.07.09,4.13-.27,2.06-.27,4.12-.28,2.07-.28,4.13,0,2.06,0,4.13.3,2.06.3,4.12.11,2.07.11,4.13.28,2.07.28,4.13-.39,2.07-.39,4.13-.29,2.06-.29,4.13.38,2.06.38,4.13-.56,2.06-.56,4.13-.33,2.18.14,4.2C491,130.12,492.41,130.69,490.85,132.05Z"/><path class="cls-7" d="M547.61,55.31a36.22,36.22,0,0,1,4.26.77c1.42.18,3-.39,4.39,0s2.58,1.38,3.94,1.89,2.93.51,4.18,1.16a36.13,36.13,0,0,1,3.56,2.44,35.9,35.9,0,0,1,3.48,2.53,32.54,32.54,0,0,1,2.66,3.39,31.79,31.79,0,0,1,2.78,3.25,33.81,33.81,0,0,1,1.78,3.9,26.9,26.9,0,0,1,1.82,4.11,30.62,30.62,0,0,1,1,4.41,33.22,33.22,0,0,1,.34,4.51,30.71,30.71,0,0,1-.52,4.32,29.63,29.63,0,0,1-.93,4.22,30.64,30.64,0,0,1-1.63,4,31.94,31.94,0,0,1-2.13,3.63,30.92,30.92,0,0,1-2.15,3.65,39.86,39.86,0,0,1-6.15,5.92,34.93,34.93,0,0,1-3.64,2.3,36.9,36.9,0,0,1-4,1.64,33.42,33.42,0,0,1-4.27,1.2,33,33,0,0,1-4.36.69,37.36,37.36,0,0,1-4.39.58,35.35,35.35,0,0,1-4.28-.29,34.72,34.72,0,0,1-4.21-.79,32.78,32.78,0,0,1-4.08-1.3,33.12,33.12,0,0,1-3.74-1.81,33.12,33.12,0,0,1-3.66-2,32.92,32.92,0,0,1-3.23-2.67,33.87,33.87,0,0,1-3-3,34.47,34.47,0,0,1-2.15-3.64,35.38,35.38,0,0,1-2.25-3.58c-.62-1.34-.49-3-.9-4.4a30.11,30.11,0,0,1-1.28-4.24,35,35,0,0,1,.14-4.43c0-1.48-.61-3-.43-4.36A30.92,30.92,0,0,1,515.6,79a29.21,29.21,0,0,1,1.13-4.23c.55-1.27,1.89-2.13,2.58-3.3s.83-2.76,1.68-3.84,2.29-1.62,3.28-2.58A32.14,32.14,0,0,1,527.15,62c1.11-.82,2.64-1,3.87-1.66s2.18-1.81,3.49-2.35a38,38,0,0,1,4.3-1.24,36.38,36.38,0,0,1,4.31-1.3A44.21,44.21,0,0,1,547.61,55.31Zm0,51.78c1.28,0,2.62.39,3.86.13s2.19-1.43,3.38-1.94,2.57-.53,3.62-1.22,1.62-2,2.53-2.86a19,19,0,0,0,2.61-2.69,19.83,19.83,0,0,0,1.69-3.35A17.87,17.87,0,0,0,567,91.57a19.89,19.89,0,0,0,.1-3.95A18.07,18.07,0,0,0,567,83.8a20.9,20.9,0,0,0-1.35-3.58,22,22,0,0,0-4.21-6.57,22.22,22.22,0,0,0-2.75-2.82,22.46,22.46,0,0,0-3.32-2.15,16.66,16.66,0,0,0-3.73-1.53,17.37,17.37,0,0,0-4-.62,16.5,16.5,0,0,0-3.79.85,16.69,16.69,0,0,0-3.57,1.36A23,23,0,0,0,537,70.92a23.2,23.2,0,0,0-2.92,2.62,22.76,22.76,0,0,0-2.66,3A23.54,23.54,0,0,0,529.32,80,19.39,19.39,0,0,0,528,83.68a17.87,17.87,0,0,0-.11,3.94,18,18,0,0,0,.36,3.84,17.71,17.71,0,0,0,1.2,3.67,20,20,0,0,0,1.9,3.28,19.71,19.71,0,0,0,2.41,2.91,20.82,20.82,0,0,0,3.13,2.18,21.07,21.07,0,0,0,3.31,1.8,56.93,56.93,0,0,0,7.47,1.79ZM612.2,58c1.53,1.39-.47,2.16-.47,4.23s.84,2.07.84,4.14-.64,2.07-.64,4.14.64,2.07.64,4.14-.27,2.07-.27,4.14.16,2.07.16,4.13S612,85,612,87.05s.3,2.07.3,4.14-.35,2.07-.35,4.14.23,2.07.23,4.14,0,2.07,0,4.14,0,2.07,0,4.14-.23,2.07-.23,4.14,0,2.07,0,4.14-.13,2.07-.13,4.14-.15,2.08-.15,4.15.4,2.07.4,4.14,0,2.07,0,4.15,1.62,2.83.08,4.23-2.35,0-4.62,0-2.27-.21-4.55-.21-2.7,1.43-4.38-.1c-1.53-1.39.2-1.89.2-4s-.32-2.07-.32-4.14,0-2.07,0-4.14V120.2c0-2.07,0-2.07,0-4.14s0-2.07,0-4.13-.28-2.07-.28-4.14,0-2.07,0-4.14-.21-2.07-.21-4.14.35-2.07.35-4.14-.3-2.07-.3-4.14.68-2.07.68-4.14-.39-2.07-.39-4.14.42-2.07.42-4.14-.7-2.07-.7-4.14.24-2.07.24-4.15-.34-2.07-.34-4.14.8-2.07.8-4.15-2.18-3.09-.65-4.49c1.68-1.53,2.59.57,4.86.57a14.19,14.19,0,0,0,4.5-.46C609.92,57.33,610.52,56.46,612.2,58Z"/><path class="cls-8" d="M699.25,105.22c-1.48,1.45-2.06-.34-4.13-.34s-2.07.29-4.15.29-2.07-.39-4.15-.39-2.08.22-4.15.22-2.08.64-4.15.64-2.08-.73-4.15-.73-2.08.6-4.16.6-2.07-.72-4.15-.72-2.08.47-4.16.47-2.07.4-4.15.4-2.07-.6-4.15-.6-2.08.39-4.16.39-2.08-.21-4.16-.21-2.08-.26-4.16-.26a5.71,5.71,0,0,1-4.52-1.72c-1.23-1.32-1.64-3.15-1.64-5.44,0-2-.53-2-.53-4s.7-2,.7-4-.39-2-.39-4,.14-2,.14-4,.28-2,.28-4-.07-2-.07-4,0-2,0-4-.13-2-.13-4-.36-2-.36-4-1.33-2.69.17-4c1.71-1.49,2.29-.15,4.56-.15s2.27,0,4.55,0,2.64-1.18,4.27.4.73,1.92.73,4.12-.64,2.2-.64,4.41.64,2.2.64,4.4-.27,2.2-.27,4.4.16,2.2.16,4.4-.48,2.2-.48,4.4.3,2.21.3,4.41-1.83,3-.3,4.54,2.25-.17,4.37-.17,2.12,0,4.24,0,2.11,0,4.23,0,2.12.23,4.24.23,2.12,0,4.24,0,2.11.13,4.23.13,2.12.15,4.24.15,2.12-.4,4.24-.4,2.12,0,4.24,0,2.12-.12,4.24-.12,2.12,0,4.24,0,2.65-1.27,4.2.18-.19,2-.19,4-.55,2.13-.12,4.09S700.7,103.82,699.25,105.22Zm-51.11,54.43a10,10,0,0,1-4-1.11,9.51,9.51,0,0,1-3.52-2.22,10.78,10.78,0,0,1-1.94-4.24,14.81,14.81,0,0,1-.86-4.59c0-2.25-.64-2.25-.64-4.5s.73-2.25.73-4.5-.59-2.26-.59-4.51-.94-2.55.59-4.21,1.75-.33,3.83-.33,2.07-.39,4.15-.39,2.07.6,4.15.6,2.07-.39,4.14-.39,2.08.21,4.15.21,2.08.25,4.15.25,2.08-.27,4.16-.27,2.07.21,4.15.21,2.07-.53,4.15-.53,2.07.71,4.15.71,2.08-.39,4.15-.39,2.08.13,4.16.13,2.08.28,4.15.28,2.08-.06,4.15-.06,2.08,0,4.16,0,2.08-.13,4.16-.13,2.42,1,4-.32c1.29-1,.09-1.51.09-3.17S709.34,124,708,123c-1.66-1.31-2,0-4.11,0s-2.11-.52-4.22-.52-2.11.84-4.22.84-2.11-.63-4.22-.63-2.11.64-4.22.64-2.11-.27-4.22-.27-2.11.16-4.22.16-2.11-.49-4.22-.49-2.11.3-4.22.3-2.11-.35-4.23-.35-2.11.24-4.22.24-2.11,0-4.22,0-2.12,0-4.23,0-2.11-.22-4.22-.22-2.11,0-4.22,0-2.12-.13-4.24-.13-2.39,1.41-3.94,0-.25-1.65-.25-3.61,0-2,0-3.94-1.53-2.68-.08-4,2.21,0,4.34,0,2.14.2,4.27.2,2.14.17,4.27.17,2.14.13,4.27.13,2.14-.32,4.27-.32,2.14,0,4.27,0h4.27c2.13,0,2.13,0,4.27,0s2.13,0,4.26,0,2.14-.28,4.28-.28,2.13,0,4.26,0,2.14-.21,4.28-.21,2.13.35,4.27.35,2.13-.3,4.27-.3,2.14.68,4.27.68,2.14-.4,4.28-.4,2.13.43,4.27.43,2.13-.7,4.27-.7,2.14.23,4.28.23,3.09-1.71,4.61-.19-.66,2.46-.66,4.6.8,2.13.8,4.27-.7,2.14-.7,4.27.47,2.14.47,4.28-.7,2.13-.7,4.27.62,2.14.62,4.28,1.31,2.73-.18,4.26-2.06.41-4.14.41-2.08.07-4.16.07-2.07-.76-4.15-.76-2.08.19-4.16.19-2.08-.2-4.16-.2-2.07.13-4.15.13-2.08.32-4.16.32-2.08-.17-4.16-.17-2.08,0-4.16,0-2.08-.06-4.16-.06-2.08.56-4.16.56-2.08-.83-4.16-.83-2.08.44-4.16.44-2.09.19-4.17.19-2.08,0-4.16,0-2.08.09-4.17.09-2.5-1.62-4.11-.29c-1.33,1.1-.25,1.66-.25,3.38s-1.3,2.55,0,3.63c1.67,1.34,2.3-.25,4.44-.25s2.14-.11,4.28-.11,2.14-.28,4.29-.28,2.13.39,4.27.39,2.14.29,4.29.29,2.14-.38,4.28-.38,2.14.56,4.28.56,2.14-.13,4.28-.13,2.15-.35,4.29-.35,2.14-.06,4.28-.06,2.15.55,4.29.55,2.14-.6,4.29-.6,2.14-.27,4.28-.27,2.14.31,4.29.31,2.14-.24,4.28-.24,2.15.05,4.3.05,2.67-1.07,4.25.38.11,1.92.11,3.88-.34,2-.34,3.93,1.69,2.57.26,3.92-2.09.3-4.2.3-2.1-.35-4.2-.35-2.11.22-4.21.22-2.1-.42-4.21-.42h-8.41c-2.1,0-2.1.35-4.2.35s-2.11.2-4.21.2-2.1-.17-4.21-.17-2.1-.09-4.2-.09-2.11.22-4.21.22-2.11-.56-4.21-.56-2.11-.15-4.21-.15-2.11.87-4.21.87-2.11-.59-4.21-.59-2.11.44-4.21.44-2.11-.46-4.22-.47S650.25,159.65,648.14,159.65ZM709,57.83c1.68-1.52,2.26.34,4.53.34s2.27-.28,4.55-.28,2.52-1.2,4.25.28c1.48,1.27.06,1.6.06,3.55s.64,2,.64,3.91-.73,2-.73,3.91-.85,2.32.52,3.72,1.73.63,3.64.63,1.92-.47,3.84-.47,1.92-.4,3.85-.4,2.38-.84,3.71.55.35,1.88.35,3.89-.22,2-.22,4,1.21,2.39-.18,3.85-1.74.19-3.66.19-1.92-.21-3.83-.21-1.93.53-3.85.53-2.83-2-4.12-.59c-1.43,1.6.3,2.39.3,4.54s-.13,2.14-.13,4.29-.28,2.14-.28,4.28.06,2.15.06,4.3,1.68,2.6.12,4.07-2.07,0-4.34,0-2.27.36-4.55.36-2.87,1.35-4.56-.17c-1.52-1.36-.16-2.06-.16-4.1s0-2.05,0-4.1.52-2,.52-4.09-.85-2-.85-4.09.64-2,.64-4.1-.64-2-.64-4.09.27-2.05.27-4.09-.16-2-.16-4.1.48-2,.48-4.09-.3-2.05-.3-4.1.79-2.14.35-4.14C708.64,59.73,707.42,59.21,709,57.83Z"/><path class="cls-8" d="M72,265.53c1.45,1.56,2.33-.38,4.46-.38s2.13.22,4.27.22,2.13.26,4.26.26,2.14-.48,4.27-.48,2.13-.13,4.27-.13,2.13.51,4.26.51S100,265,102.1,265s2.14-.09,4.27-.09,2.43-.72,4,.73.73,1.66.73,3.62,0,2,0,3.94,1.24,2.88-.19,4.22-2.38-.13-4.48-.13-2.11-.37-4.21-.37-2.1-.26-4.21-.26-2.1.63-4.2.63-2.11-.52-4.21-.52-2.11.2-4.21.2-2.11.6-4.21.6-2.1-.69-4.21-.69-2.1-.17-4.21-.17-2.1.52-4.2.52-2.1-.32-4.21-.32-2.1.05-4.2.05-2.11.36-4.21.36H51.74c-2.11,0-2.11-.12-4.21-.12s-2.11.19-4.21.19-2.11,0-4.21,0-2.11.17-4.21.17-2.11-.75-4.21-.75-2.11.78-4.21.78-2.11-.71-4.22-.71-2.11.71-4.22.71-2.65,1-4.2-.45-.29-1.94-.29-3.91.14-2,.14-3.93-1.08-2.34.39-3.65c1.63-1.46,1.94-.59,4.13-.59s2.19-.14,4.38-.14,2.19.66,4.38.66,2.19.09,4.38.09,2.19-.26,4.39-.26,2.19-.38,4.38-.38,2.19.66,4.38.66,2.19-.22,4.38-.22,2.2-.21,4.4-.21,2.89,1.72,4.41.13.35-2.32.35-4.62-.43-2.3-.43-4.6.42-2.3.42-4.61,1.24-2.94-.28-4.67c-1.34-1.52-2.11,0-4.13,0s-2,.38-4,.38-2-.19-4-.19-2,.11-4.05.11-2-.37-4-.37-2-.06-4-.06-2,.63-4.06.63c-1.4,0-2.66-.76-3.81-.82-1.46-.07-2.81.55-3.88.37a9,9,0,0,1-4.47-2.16,6.74,6.74,0,0,1-1.87-4,18.79,18.79,0,0,1-.88-3.21c-.06-1,.14-2.11.14-3.32,0-2.08.15-2.08.15-4.16s.2-2.09.2-4.17.2-2.08.2-4.16,0-2.09,0-4.17.09-2.08.09-4.17-.09-2.08-.09-4.17-2.06-2.95-.58-4.43,2.34.63,4.42.63,2.08-.6,4.17-.6,2.08-.08,4.17-.08,2.08.75,4.16.75h4.17c2.08,0,2.08-.54,4.17-.54s2.08.32,4.17.32,2.08-.44,4.16-.44,2.09.32,4.17.32,2.08-.28,4.17-.28,2.08.35,4.16.35,2.09-.15,4.17-.15,2.08.34,4.17.34,2.08-.29,4.17-.29,2.08.4,4.17.4,2.08-.23,4.17-.23,2.08-.63,4.17-.63,2.08.72,4.17.72,2.08-.59,4.17-.59,2.08.71,4.17.71,2.08-.47,4.17-.47,2.09-.4,4.18-.4,2.53-.87,4,.56.34,1.83.34,3.79-.21,2-.21,3.93,1.24,2.39-.18,3.75-1.88.2-3.93.2-2.06-.21-4.12-.21-2,.53-4.11.53-2-.7-4.11-.7-2,.39-4.11.39-2-.14-4.11-.14-2-.28-4.11-.28-2.05.07-4.11.07-2.05,0-4.11,0-2.05.13-4.11.13-2.05.36-4.11.36-2.05-.16-4.11-.16-2.06.15-4.11.15-2.06-.05-4.12-.05-2.05-.52-4.11-.52-2.06.85-4.11.85-2.06-.64-4.12-.64-2.06.64-4.11.64-2.06-.27-4.12-.27-2.39-1.35-3.89.07-.37,1.69-.37,3.64.3,1.95.3,3.9-.35,2-.35,3.91.23,1.95.23,3.9a4.43,4.43,0,0,0,.35,2c.22.4,1,.52,2.39.52,2.09,0,2.09.22,4.18.22s2.09,0,4.18,0,2.09.13,4.18.13,2.09.15,4.18.15,2.09-.4,4.18-.4,2.09,0,4.18,0,2.09-.12,4.18-.12l4.18,0c2.09,0,2.09.2,4.18.2s2.09.17,4.18.17,2.09.13,4.18.13,2.09-.32,4.19-.32,2.09,0,4.18,0h4.18c2.09,0,2.09,0,4.19,0s2.09.05,4.18.05,2.09-.28,4.18-.28,2.1,0,4.19,0,3-1.53,4.48-.1-.21,2.27-.21,4.24.3,2,.3,3.93.86,2.37-.58,3.7-1.93.32-4.06.32-2.13-.43-4.27-.43-2.13.7-4.26.7-2.13-.23-4.27-.23-2.13.33-4.26.33-2.14-.8-4.27-.8-2.13.81-4.27.81-2.13-.7-4.27-.7-2.64-1.17-4.1.39-.63,2.14-.63,4.44.61,2.3.61,4.6.33,2.35-.19,4.6C71.64,263.22,70.48,263.84,72,265.53Z"/><path class="cls-5" d="M179.91,208.4c0,1.61,0,3.15.11,4.63s.08,3.16.32,4.62a37,37,0,0,0,1.16,4.48c.36,1.22.77,2.36,1.2,3.47a32.64,32.64,0,0,0,1.56,3.31c.57,1.13.69,2.49,1.37,3.48a32.7,32.7,0,0,0,3.17,3.52,27.9,27.9,0,0,0,3.65,3c1.14.88,2.32,1.57,3.45,2.3s2.17,1.86,3.38,2.48,2.32,1,3.43,1.43,2.2,1.28,3.34,1.67c2.2.75,4,1.23,5.46,1.85.62,2-.18,2.06-.18,4.17s.21,2.12.21,4.24,1.14,2.35.37,4.33c-1.56-.23-3.23-.93-4.71-1.26s-3.11-.43-4.57-.89-2.79-1.39-4.2-2-2.67-.9-3.89-1.5-2.43-1.38-3.61-2.07-2.46-1.33-3.58-2.11-2.16-1.29-3.1-2.05-1.77-1.76-2.66-2.59-1.83-1.68-2.65-2.58c-1.13-1.25-2.15-2.47-3.06-3.7a32.79,32.79,0,0,1-2.66-3.74,43.23,43.23,0,0,1-2.61,3.88c-1,1.25-2.47,2.09-3.61,3.34-.82.9-1.47,1.94-2.39,2.8s-2,1.39-3,2.17-1.83,1.59-2.85,2.31-2.09,1.75-3.29,2.47-2.44,1.17-3.69,1.8-2.25,1.61-3.54,2.16-2.89.92-4.36,1.39-2.95.61-4.47.95-3.08,1-4.62,1.19c-.75-2-.14-2.19-.14-4.31s.51-2.12.51-4.24-1.13-2.32-.5-4.34c1.47-.47,3.23-1.33,4.93-2,1.48-.55,3.35-.36,5-1,1.23-.48,2.07-1.83,3.26-2.48a33.23,33.23,0,0,0,3.33-2.12,36.62,36.62,0,0,0,3.13-2.43,26.74,26.74,0,0,0,3.36-3.22,33.15,33.15,0,0,0,3-3.66,44.39,44.39,0,0,0,2.43-4.08c.51-1.13.39-2.57.78-3.85a33.06,33.06,0,0,0,1.44-3.63c.24-1.21.25-2.53.41-3.86s-.36-2.56-.29-3.89.8-2.51.8-3.84c0-2.32-1.58-2.69.05-4.34s2-.4,4.24-.4,2.28.32,4.55.32,2.43-1,4.48-.07S179.91,206.08,179.91,208.4Zm41.69-4.84c1.73-1.47,2.44,0,4.71,0s2.28.21,4.55.21,2.95-1.62,4.64-.1c1.52,1.37.06,2.14.06,4.19s.07,2,.07,4.08-.6,2-.6,4.08.32,2,.32,4.09.31,2,.31,4.08.12,2,.12,4.08-.46,2-.46,4.08.17,2,.17,4.08-.36,2-.36,4.09.08,2,.08,4.08-.17,2-.17,4.08.21,2.05.21,4.09.38,2,.38,4.09-.57,2-.57,4.08.33,2,.33,4.09-.42,2-.42,4.08.25,2,.25,4.09-.11,2.05-.11,4.09,1.72,2.61.2,4c-1.69,1.52-2.17.18-4.45.18s-2.27-.22-4.54-.22-2.82,1.63-4.49.09,0-2,0-4.12-.34-2.1-.34-4.2.05-2.09.05-4.19.62-2.09.62-4.19-.26-2.1-.26-4.19.31-2.1.31-4.2-.12-2.09-.12-4.19-.28-2.1-.28-4.19.2-2.1.2-4.2-.47-2.09-.47-4.19.23-2.1.23-4.2,1.68-2.95.17-4.4-2.38.4-4.56.4-2.18.13-4.37.13-2.18-.51-4.37-.51-2.18.51-4.37.51-3,1.45-4.67,0c-1.46-1.31.7-2.29.7-4.25s-.86-2-.86-3.93-1.32-3,.14-4.28c1.63-1.46,2.5,0,4.68,0s2.18.23,4.37.23,2.18.37,4.37.37,2.18.26,4.37.26,2.63.87,4.27-.58c1.45-1.29.46-1.82.46-3.75s-.19-1.94-.19-3.87a10.35,10.35,0,0,0-.6-3.77C220.81,205.61,220.12,204.82,221.6,203.56Z"/><path class="cls-7" d="M327.14,260.66c-1.4,1.47-2.11-.4-4.15-.4s-2,.72-4.06.72-2-.66-4.07-.66-2,.35-4.07.35-2-.52-4.06-.52-2,.13-4.07.13-2,.39-4.06.39-2-.16-4.07-.16-2-.32-4.07-.32-2,0-4.07,0-2,0-4.07,0-2,.22-4.07.22-2-.13-4.07-.13-2,.19-4.07.19-2-.24-4.07-.24-2,.22-4.07.22-2,.54-4.08.54-2.87,1.32-4.27-.16,0-2.33,0-4.47.12-2.14.12-4.28-1.64-3-.19-4.56,2.28,0,4.27,0,2-.24,4-.24,2,.82,4,.82,2-.52,4-.52,2,.52,4,.52,2.85,1.33,4.25-.08-.53-2.29-.53-4.3,0-2,0-4,.22-2,.22-4-.14-2-.14-4-1.51-2.86,0-4.15c1.87-1.55,2.52-.09,4.95-.09s2.43.59,4.86.59,2.95-1.88,4.82-.33c1.55,1.28.29,2,.29,4s.12,2,.12,4-.46,2-.46,4,.17,2,.17,4-1.75,2.87-.27,4.24,2.36,0,4.54,0,2.18.17,4.35.17,2.18-.21,4.35-.21,2.18-.39,4.36-.39,2.17.57,4.35.57,2.17-.33,4.35-.33,2.18.43,4.36.43,2.67-1.84,4.23-.31-.17,2-.17,4.14-.31,2.23.15,4.32C327.41,258.6,328.61,259.1,327.14,260.66Zm-15.78-44c-1.55-1.49-2.07-.4-4.21-.4s-2.15.71-4.29.71-2.14-.65-4.29-.65-2.14.35-4.28.35-2.15-.53-4.29-.53-2.14.14-4.29.14-2.14.39-4.29.39-2.14-.16-4.29-.16-2.14-.32-4.29-.32-2.14,0-4.28,0-2.15,0-4.29,0-2.15.22-4.3.22-2.48,1.42-4.06,0-.06-1.73-.06-3.71.24-2,.24-4-1.71-2.45-.28-3.83,1.9-.48,3.94-.48,2,.07,4.08.08,2,0,4.08.06,2,.12,4.08.12,2-.28,4.08-.28,2,.17,4.08.18,2-.23,4.08-.23,2,.83,4.08.83,2-.52,4.08-.51,2,.51,4.09.52,2,0,4.08,0,2-.64,4.08-.64,2,0,4.09,0,2,.22,4.08.23,2-.13,4.08-.13H321c2,0,2.79-1.43,4.25,0s-.54,2.17-.54,4.2.32,2,.32,4,.32,2,.32,4.05.12,2,.12,4-.46,2-.46,4.05.16,2,.16,4-.35,2-.35,4,.07,2,.07,4.05,1.47,2.43,0,3.78c-1.7,1.51-2,.11-4.3.11s-2.28.39-4.55.39-2.63,1-4.32-.48c-1.52-1.38-.21-1.8-.21-3.85s.42-2,.42-4.1-.25-2-.25-4.11.11-2.05.11-4.1-.57-2.07-.15-4.08S312.84,218.11,311.36,216.69Zm-41,74.09c0,.88-.27,1.62-.14,1.75s.91-.42,1.89-.42c2.14,0,2.14.65,4.28.65s2.14-.35,4.29-.35,2.14.53,4.28.53,2.14-.14,4.29-.14,2.14-.39,4.28-.39,2.14.16,4.28.16,2.15.32,4.29.32,2.14,0,4.28,0,2.14,0,4.29,0,2.14-.23,4.28-.23,2.15.13,4.29.13,2.14-.18,4.29-.18,2.14.24,4.29.24,2.14-.22,4.28-.22,2.15-.54,4.29-.54,2.15.06,4.29.06,2.14.06,4.29.06,2.15.12,4.29.12,3.06-1.7,4.58-.18-.05,2.42-.05,4.56.23,2.14.23,4.28.78,2.5-.72,4-1.82.41-3.9.41-2.08-.51-4.17-.51-2.08,0-4.16,0-2.08.65-4.16.65-2.09,0-4.17,0-2.08-.22-4.16-.22-2.08.13-4.16.13-2.08,0-4.17,0-2.08.07-4.16.07-2.08-.6-4.16-.6-2.08.32-4.17.32-2.08.31-4.16.31-2.08.12-4.17.12-2.08-.46-4.16-.46-2.09.17-4.17.17-2.08-.36-4.17-.36-2.08.08-4.16.08-2.09-.17-4.17-.17-2.09.21-4.18.21-2.08.39-4.17.39c-1.34,0-2.55-.61-3.67-.69a33.68,33.68,0,0,1-3.68-.15,8.44,8.44,0,0,1-4.14-2.36,7,7,0,0,1-2.3-3.63,21.37,21.37,0,0,1-.36-3.1c-.08-1-.26-2-.26-3.15,0-2.05-.23-2.05-.23-4.1s.23-2,.23-4.1-.07-2.06-.07-4.11,0-2.05,0-4.1-.33-2.06-.33-4.11-1.45-2.94.12-4.27c1.85-1.57,2.56.57,5,.57s2.42-.27,4.85-.27,2.78-1.48,4.55.19,0,2,0,4.24.28,2.29.28,4.58-.21,2.3-.21,4.59.44,2.29.47,4.58S270.35,288.49,270.35,290.78Zm92.42-73.32c1.39,1.38-.4,2-.4,4s.71,2,.71,3.93.82,2.36-.57,3.75-1.81.27-3.79.27-2-.52-4-.52-2.78-1.19-4.18.22.3,2.21.3,4.21-.16,2-.16,4-.32,2-.32,4,0,2,0,4,0,2,0,4,.22,2,.22,4-.13,2-.13,4,.18,2,.18,4-.24,2-.24,4,.22,2,.22,4,1.93,2.94.43,4.27c-1.71,1.5-2.5,0-4.78,0s-2.27-.06-4.54-.06-2.93,1.38-4.62-.14c-1.52-1.37-.33-2.13-.33-4.17s.17-2,.17-4.09-.24-2-.24-4.09.83-2,.83-4.08-.53-2-.53-4.09.52-2,.52-4.09,0-2,0-4.09-.64-2-.64-4.08,0-2,0-4.09.22-2,.22-4.1-.14-2-.14-4.09,0-2,0-4.09-.06-2-.06-4.09.6-2,.6-4.09-.32-2-.32-4.09-.32-2.05-.32-4.1-1.52-3,0-4.38c1.7-1.51,2.52.39,4.79.41s2.28-.14,4.55-.12,2.75-1.29,4.35.32,0,2.08,0,4.35-.17,2.27-.17,4.55-1.25,2.94.25,4.65c1.3,1.5,2.1-.33,4.09-.33s2.11,1,4.05.56C360.9,217.4,361.35,216.06,362.77,217.46Z"/><path class="cls-1" d="M401,226c1.59-1.41,2.39.27,4.51.27s2.12.4,4.24.4H414c2.12,0,2.12-.54,4.24-.54s2.12.33,4.24.33,2.12-.49,4.24-.49,2.12.71,4.25.71,2.12-.63,4.24-.63,2.12.33,4.24.33,2.12-.25,4.24-.25,2.13.27,4.25.27,2.12-.54,4.25-.54,2.12.88,4.24.88,2.13,0,4.25,0,2.12-.3,4.24-.3,2.13-.38,4.25-.38,2.12.37,4.25.37,2.12-.55,4.25-.55,2.7,1.91,4.15.36,0-2.19,0-4.48,1.39-2.61-.17-4.28-1.82-.29-3.95-.29-2.13.44-4.26.44-2.14-.73-4.27-.73-2.13.71-4.26.71-2.14-.17-4.27-.17-2.13-.32-4.26-.32-2.13.11-4.26.11-2.13.22-4.26.22-2.14-.67-4.27-.67-2.13.19-4.26.19-2.14.52-4.27.52-2.13-.45-4.27-.45-2.13.13-4.26.13-2.14.36-4.27.36-2.13-.72-4.27-.72-2.13.54-4.26.54-2.14-.53-4.27-.53-2.14.37-4.28.37-2.64,1.39-4.24,0c-1.42-1.26.36-1.86.36-3.76s0-1.9,0-3.8-1.66-2.4-.24-3.66c1.59-1.42,2-.11,4.15-.11s2.14.2,4.27.2,2.14-.36,4.27-.36,2.14.42,4.28.42,2.13-.26,4.27-.26,2.14.11,4.27.11,2.14-.46,4.28-.46,2.13,0,4.27,0,2.13.76,4.27.76,2.13-.53,4.27-.53,2.14.43,4.27.43,2.14-.71,4.28-.71,2.13.65,4.27.65,2.14-.35,4.27-.35,2.14.53,4.28.53,2.14-.14,4.27-.14,2.14-.39,4.28-.39,2.14.16,4.28.16,2.13.32,4.27.32l4.28,0c2.14,0,2.14.05,4.28.05s2.59-1.78,4.12-.29-.19,1.91-.19,4,.18,2.09.18,4.17-.24,2.08-.24,4.16.22,2.08.22,4.16.54,2.09.54,4.17-.07,2.08-.07,4.16-.05,2.08-.05,4.16S495,237,495,239.11s1.67,3,.17,4.45-2.44-.06-4.6-.06-2.16.24-4.33.24-2.73,1-4-.68c-1.72-2.27,1.29-3.1-.42-5.38-1.26-1.7-2-.45-4.11-.45s-2.12,0-4.24,0-2.12.65-4.25.65-2.12,0-4.24,0-2.12-.22-4.24-.22-2.12.14-4.24.14-2.12,0-4.24,0-2.13.06-4.25.06-2.12-.6-4.24-.6-2.12.32-4.24.32-2.13.31-4.25.31-2.12.12-4.25.12-2.12-.45-4.24-.45-2.13.16-4.25.16-2.12-.36-4.24-.36-2.13.08-4.25.08-2.12-.17-4.25-.17-2.12.21-4.25.21-2.81,1.74-4.4.33c-1.41-1.24.49-2,.49-3.92a10.33,10.33,0,0,0-.33-3.76C400.74,228,399.59,227.26,401,226Zm-.41,20.67c1.49-1.45,2.36.26,4.45.26s2.08.4,4.16.4h4.17c2.08,0,2.08-.54,4.17-.54s2.08.33,4.16.33,2.09-.49,4.17-.49,2.09.72,4.17.72,2.09-.64,4.17-.64,2.08.33,4.17.33,2.08-.25,4.16-.25,2.08.27,4.17.27,2.08-.53,4.16-.53,2.09.87,4.17.87,2.09,0,4.17,0,2.08-.3,4.17-.3,2.08-.38,4.17-.38,2.09.37,4.17.37,2.09-.55,4.17-.55,2.09.31,4.17.31h4.17c2.09,0,2.09-.27,4.17-.27s2.09.42,4.18.42,3-1.76,4.48-.31-.6,2.34-.6,4.37.71,2,.71,4.07,1.22,2.82-.24,4.24-2.25-.26-4.34-.26-2.08.12-4.16.12-2.09.21-4.17.21-2.09-.67-4.17-.67-2.08.2-4.17.2-2.08.51-4.17.51-2.08-.44-4.16-.44-2.09.12-4.17.12-2.09.37-4.17.37-2.08-.73-4.16-.73-2.09.55-4.17.55-2.08-.53-4.17-.53-2.08.36-4.17.36-2.08,0-4.16,0-2.09-.34-4.17-.34-2.09,0-4.17,0-2.09.18-4.17.18-2.09.15-4.17.15-2.09-.2-4.17-.2-2.09.36-4.17.36-2.09-.42-4.18-.42-2.09.26-4.17.26-2.59,1.39-4.09-.07-.41-1.93-.41-4,.47-2,0-4C400,248.86,399.13,248.11,400.59,246.69Zm94.72,48.08c1.43,1.34-.24,2.26-.24,4.22s-.4,2-.4,3.93,1.53,2.3.11,3.66-1.8.43-3.86.43-2.06-.33-4.12-.33-2.06.49-4.11.49-2.06-.71-4.12-.71-2.06.63-4.12.63-2.06-.33-4.12-.33-2.05.25-4.11.25-2.06-.27-4.12-.27-2.06.54-4.11.54-2.06-.87-4.12-.87-2.06,0-4.12,0-2.06.3-4.12.3-2.06.39-4.12.39-2.06-.38-4.12-.38-2.06.55-4.12.55-2.06-.31-4.12-.31H425c-2.06,0-2.06.28-4.12.28s-2.06-.43-4.13-.43-2.06.44-4.12.44c-1.49,0-2.74-1-4-1.5s-2.81-.79-3.81-1.87a11.15,11.15,0,0,1-2.27-4.33,17,17,0,0,1-.33-4.79c0-2.15-.11-2.15-.11-4.3s-.22-2.16-.22-4.31.67-2.15.67-4.3-.19-2.15-.19-4.3-.52-2.16-.52-4.31-1.17-2.72.4-4.2,2.16-.08,4.44-.08,2.27-.37,4.55-.37,2.63-.95,4.28.62.42,1.89.42,4.07-.53,2.17-.53,4.34.37,2.17.37,4.35,0,2.17,0,4.34-.35,2.18-.35,4.36-1.37,3,.13,4.6,2.35-.07,4.43-.07,2.08-.15,4.17-.15,2.08.2,4.17.2,2.08-.36,4.16-.36,2.09.42,4.17.42,2.08-.26,4.16-.26,2.08.11,4.17.11,2.08-.46,4.16-.46,2.09,0,4.17,0,2.08.76,4.17.76,2.08-.53,4.17-.53,2.08.43,4.16.43,2.09-.71,4.17-.71,2.09.65,4.17.65,2.09-.35,4.17-.35,2.09.53,4.17.53,2.09-.14,4.17-.14a11.65,11.65,0,0,0,4.16-.39C493.15,294.41,493.79,293.34,495.31,294.77Z"/><path class="cls-7" d="M547.5,217.86c-1.45-1.33-.53-1.84-.53-3.81s-.06-2-.06-3.93-.79-2.41.63-3.76,1.91.13,4,.13,2.07-.7,4.14-.7,2.07.24,4.14.24,2.06.58,4.13.58,2.07-.65,4.14-.65,2.07.29,4.14.29,2.07.06,4.14.06,2.07.08,4.14.08,2.07.26,4.15.26,2.07-.61,4.14-.61,2.07-.28,4.14-.28,2.07.89,4.14.89,2.07-.81,4.14-.81,2.08.55,4.15.55,2.77-1.76,4.28-.33-.09,2.09-.09,4.06.3,2,.3,3.93,1.35,2.87-.13,4.16c-1.7,1.48-2.46.22-4.71.22s-2.25-.62-4.5-.62-2.25.51-4.5.51-2.25-.37-4.51-.37-2.36-.7-4.4.26c-1,.45-.13.83-.13,1.89,0,1.56.39,3,.51,4.4a35.9,35.9,0,0,0,.61,4.35,23.68,23.68,0,0,0,1.1,4.23,21.43,21.43,0,0,0,2.44,4.26,18.2,18.2,0,0,0,3.15,3.79,24,24,0,0,0,4.44,2.24,28.08,28.08,0,0,0,4.59,1.79c1.21.35,2.35,1.1,3.65,1.43s2.48.66,3.78.95,2.86.4,4.17.66c.58,1.74-.09,1.94-.09,3.78s.15,1.84.15,3.67,0,1.84,0,3.68.34,2-.37,3.69a39.14,39.14,0,0,1-4.85-.86c-1.53-.25-3.09-.6-4.76-1-1.18-.31-2.49-.14-3.63-.52s-2.17-1.13-3.29-1.6-2.43-.52-3.52-1.07-1.78-1.74-2.79-2.35-2.37-.76-3.34-1.46-1.7-1.71-2.61-2.5a23.2,23.2,0,0,1-3.55-3.43,20,20,0,0,1-2.27-4.49,15.82,15.82,0,0,1-1.78,4.66c-.89,1.24-2.62,1.82-3.93,2.92-.93.78-1.86,1.54-2.88,2.24s-1.86,1.59-2.95,2.21-2,1.5-3.11,2-2.48.71-3.66,1.17-2.22,1.42-3.43,1.81-2.54.44-3.78.75c-1.71.43-3.32.78-4.82,1.05a51,51,0,0,1-5.28.64c-.71-1.7.38-2,.36-3.84s-.45-1.83-.47-3.67.72-1.85.7-3.69-1.29-2-.72-3.8c1.29-.19,2.89-.53,4.11-.76s2.59-.18,3.8-.46,2.47-.73,3.66-1.07a24.61,24.61,0,0,0,4.55-2c1.5-.77,3.27-1.14,4.54-2.21a20.67,20.67,0,0,0,3.32-3.91c.93-1.32,1.28-3,2-4.66a22.65,22.65,0,0,0,1.72-4.11,36.17,36.17,0,0,0,.51-4.44c.13-1.39-.18-2.88-.18-4.45,0-1.06,1.46-2,.51-2.47-1.92-.95-2.31.51-4.45.51s-2.14-.54-4.28-.54-2.14.37-4.28.37-2.14,0-4.28,0-2.26-.74-4.36-.34S549.08,219.3,547.5,217.86Zm92.08,77.06c1.44,1.39.53,1.88.53,3.89s.06,2,.06,4,.8,2.44-.63,3.85-1.88-.13-3.91-.13-2,.7-4.07.7-2-.24-4.07-.24-2-.58-4.07-.58-2,.65-4.08.65-2-.29-4.06-.29-2-.06-4.07-.06-2-.08-4.07-.08-2-.26-4.07-.26-2,.61-4.07.61-2,.28-4.08.28-2-.89-4.07-.89-2,.81-4.07.81-2-.55-4.08-.55-2,.38-4.07.38-2-.14-4.07-.14-2,.3-4.08.3-2,0-4.08,0-2,.14-4.08.14c-1.53,0-2.86-.86-4.11-1.38a9.74,9.74,0,0,1-3.77-2.09,11.32,11.32,0,0,1-2-4.41,16.42,16.42,0,0,1-.92-4.75c0-2,.28-2,.28-3.95s-.34-2-.34-4v-3.95c0-2,.15-2,.15-3.95s-.09-2-.09-4-1.21-2.62.28-3.92c1.72-1.49,2.25-.48,4.52-.48h4.55c2.27,0,2.86-1.07,4.57.43,1.5,1.3,0,2,0,4s.37,2,.37,4-.11,2-.11,4,.15,2,.15,4,0,2,0,4-1.81,2.57-.38,3.95,2,.39,4.1.39h4.13c2.06,0,2.06-.53,4.12-.53s2.07.33,4.13.33,2.06-.49,4.12-.49,2.07.71,4.13.71,2.06-.63,4.12-.63,2.07.32,4.13.32,2.06-.25,4.13-.25,2.06.28,4.12.28,2.07-.54,4.13-.54,2.07.87,4.13.87,2.07,0,4.13,0,2.06-.3,4.13-.3,2.06-.38,4.13-.38,2.06.38,4.13.38a14,14,0,0,0,4.05-.54C637.58,293.94,638.1,293.48,639.58,294.92Zm12.73-69.13c1.54,1.28.51,1.88.51,3.88s.06,2,.06,4,.93,2.56-.61,3.84c-1.87,1.55-2.28-.12-4.71-.12s-2.43.71-4.86.71-2.88-1.84-4.75-.28c-1.55,1.28-.52,1.89-.52,3.9s.65,2,.65,4-.29,2-.29,4-.07,2-.07,4-.07,2-.07,4-.27,2-.27,4,.61,2,.61,4,.28,2,.28,4,.78,2.35-.73,3.69c-1.7,1.51-2,.69-4.24.69s-2.27-.55-4.55-.55-3,1.85-4.67.34c-1.51-1.35.08-2.17.08-4.19s-.3-2-.3-4.06,0-2,0-4.06-.13-2-.13-4.05.61-2,.61-4.06-.51-2-.51-4.05.37-2,.37-4.06-.28-2-.28-4.06.28-2,.28-4.06-.34-2-.34-4.06v-4.06c0-2,.15-2,.15-4.06s-.09-2-.09-4.06.3-2,.3-4.06-.5-2-.5-4.06v-4.06c0-2-1.09-2.74.43-4.1,1.69-1.51,2.3,0,4.57,0s2.27-.37,4.55-.37,3-1.35,4.71.18c1.53,1.38.23,2.24.23,4.31s0,2.06,0,4.13-.37,2.06-.37,4.13-.4,2.06-.4,4.13-1.45,3.08.12,4.43c1.85,1.57,2.67-.45,5.1-.45s2.5.77,4.89.33S650.44,224.24,652.31,225.79Z"/><path class="cls-6" d="M744.51,256.87a63.43,63.43,0,0,1-6.5-.17c-1.56-.14-3.11-1-4.83-1.39-1.54-.36-3.09-.89-4.76-1.45-1.22-.42-2.69-.28-3.9-.84s-2-1.76-3.17-2.44-2.49-.92-3.59-1.69a22.84,22.84,0,0,1-3.23-3,23.88,23.88,0,0,1-2.9-3.32,25.33,25.33,0,0,1-2-3.65,23.68,23.68,0,0,1-2.45,3.67,22.67,22.67,0,0,1-3,3.43,32.28,32.28,0,0,1-3,3.19,30.89,30.89,0,0,1-3.61,2.44,40.06,40.06,0,0,1-3.92,1.44c-1.28.57-2.36,1.6-3.67,2s-2.57.33-3.73.63-2.43.86-3.6,1.07a53.16,53.16,0,0,1-6,1.05c-1.76.09-3.15-.12-3.86-.12a17.79,17.79,0,0,1-.31-4.31c0-2.14,0-2.14,0-4.28s-.77-2.47.06-4.44a53.59,53.59,0,0,0,5.57-.26,41.8,41.8,0,0,0,5.2-.53,27.5,27.5,0,0,0,4.47-1.75,24,24,0,0,0,4.32-2.09,22.09,22.09,0,0,0,3.37-3.26,23.84,23.84,0,0,0,2.6-3.83,21.5,21.5,0,0,0,1.62-3.09,24.46,24.46,0,0,0,1.4-3.25,29.56,29.56,0,0,0,.41-3.4c-2.16-.61-2.21-.3-4.45-.3s-2.24.11-4.48.11-2.24.2-4.47.2-2.24-.43-4.48-.43-2.25.07-4.49.07-2.63,1.52-4.32,0c-1.47-1.29-.26-1.77-.26-3.73s-.32-2-.32-3.93-1.06-2.63.42-3.93c1.68-1.47,2.23-.18,4.47-.18s2.24.34,4.48.34,2.24-.57,4.48-.57,2.24-.06,4.48-.06,2.24.7,4.48.7,3.13,1.58,4.71,0-.62-2.5-.62-4.78-1.37-3.11.29-4.69,2.51.54,4.92.54,2.41-.66,4.81-.66,3-1.38,4.78.28-.09,2.24-.09,4.53-1.6,3.06,0,4.7,2.34.33,4.54.33,2.19-.61,4.39-.61,2.19-.28,4.39-.28,2.19.89,4.39.89,2.2-.82,4.4-.82,2.62-1,4.26.51c1.46,1.3.32,1.81.32,3.77s-.15,2-.15,3.93,1.64,2.85.19,4.18-2.36.06-4.48.06-2.13.14-4.26.14-2.13-.61-4.26-.61-2.13.5-4.26.5-2.13-.37-4.26-.37-2.18-.45-4.18.27a19.18,19.18,0,0,0,.68,4,29.76,29.76,0,0,0,4.48,7.26,22.84,22.84,0,0,0,3.06,3,26.34,26.34,0,0,0,3.47,2.12,28.84,28.84,0,0,0,3.59,2,35.75,35.75,0,0,0,4,.72,39.73,39.73,0,0,0,4,.76c1.31.19,2.64.76,4.05.84.66,2-.05,2.13-.05,4.24a21.16,21.16,0,0,0,.37,4.2C744.84,254.68,745.06,254.82,744.51,256.87ZM771.17,205c1.51,1.36.09,2.27.09,4.31s-.59,2-.59,4.08-.08,2-.08,4.07.67,2,.67,4.08-.69,2-.69,4.08.52,2,.52,4.07-.16,2-.16,4.07.2,2,.2,4.08.11,2,.11,4.08-.53,2-.53,4.07-.19,2-.19,4.08.44,2,.44,4.08,0,2,0,4.08-.49,2-.49,4.08.57,2,.57,4.07-.44,2-.44,4.08.28,2,.28,4.08.32,2.05.32,4.09,1.34,2.82-.18,4.19c-1.69,1.52-2.37.34-4.64.34h-4.55c-2.28,0-3.14,1.39-4.83-.12-1.52-1.36.15-2.35.15-4.39s.39-2,.39-4.08-.25-2-.25-4.07.3-2,.3-4.08-.25-2-.25-4.08-.24-2-.24-4.07.07-2,.07-4.07.34-2,.34-4.08-.34-2-.34-4.08.31-2,.31-4.07-.12-2-.12-4.08-.2-2-.2-4.08.44-2,.44-4.08-.08-2-.08-4.08,0-2,0-4.08-.36-2-.36-4.07-.31-2-.31-4.08.42-2.05.42-4.09-1.64-2.85-.12-4.21c1.69-1.52,2.38.29,4.66.29a13.15,13.15,0,0,0,4.45-.56C768.78,204.3,769.47,203.51,771.17,205Z"/></g></g></svg>