<svg xmlns="http://www.w3.org/2000/svg" width="821.162" height="309.951" viewBox="0 0 821.162 309.951">
  <g id="그룹_318" data-name="그룹 318" transform="translate(-592 -216.953)">
    <g id="그룹_288" data-name="그룹 288" transform="translate(571.976 -190.869)">
      <g id="그룹_283" data-name="그룹 283">
        <g id="그룹_282" data-name="그룹 282">
          <path id="패스_231" data-name="패스 231" d="M787.616,598.609c1.695-.953,3.592-1.585,5.33-2.51s3.423-1.932,5.194-2.755c1.789-.831,3.508-1.864,5.337-2.524a46.65,46.65,0,0,1,5.655-1.782c1.919-.425,3.982.2,5.94.109a30.942,30.942,0,0,1,5.937-.134,34.324,34.324,0,0,1,5.776,1.47,39.494,39.494,0,0,1,5.716,1.868,32.477,32.477,0,0,1,5.028,3.161c1.54,1.2,2.478,2.887,3.657,4.476-1.2,1.31-2.458,2.378-3.7,3.666s-2.1,2.976-3.412,4.164a44.4,44.4,0,0,1-4.23,3.314,29.768,29.768,0,0,1-4.722,2.536,25.582,25.582,0,0,1-5.508,2.028,30.143,30.143,0,0,1-5.861.635c-1.966.006-3.855-.841-5.759-1.169-1.964-.338-4.058-.088-5.854-.718a23.734,23.734,0,0,1-4.861-2.208c-1.473-.939-2.313-2.7-3.491-4.009a31.515,31.515,0,0,1-3.53-4.33,21.488,21.488,0,0,1-2.082-5.144" fill="#69a71b"/>
        </g>
      </g>
      <g id="그룹_285" data-name="그룹 285">
        <g id="그룹_284" data-name="그룹 284">
          <path id="패스_232" data-name="패스 232" d="M776.319,619.026c.556,2.479,1.812,3.432,4.189,2.537,2.732-1.027,1.3-2.661,2.684-5.229s1.136-2.706,2.523-5.277,1.285-2.628,2.672-5.2,4.263-2.162,3.623-5.014c-.557-2.479-2.521-3.209-4.9-2.315-2.731,1.028-1.462,2.526-2.848,5.094s-.948,2.807-2.335,5.378-.995,2.92-2.819,5.2C777.247,616.533,775.678,616.174,776.319,619.026Z" fill="#427823"/>
        </g>
      </g>
      <g id="그룹_287" data-name="그룹 287">
        <g id="그룹_286" data-name="그룹 286">
          <path id="패스_233" data-name="패스 233" d="M790.776,602.253a32.6,32.6,0,0,0,1.92-5.619,36.473,36.473,0,0,0,1.379-5.759,39.068,39.068,0,0,0,.414-5.929,38.162,38.162,0,0,0-.662-5.908,34.014,34.014,0,0,0-1.423-5.783,27.08,27.08,0,0,0-2.979-5.134,32.4,32.4,0,0,0-2.849-4.467,43.91,43.91,0,0,0-3.793-3.717c-1.335-1.141-2.935-1.98-4.353-3.023s-2.85-1.709-4.287-2.71a18.066,18.066,0,0,0-2.934,3.723,23.953,23.953,0,0,0-1.8,4.637c-.494,1.591-1.44,3.123-1.651,4.775-.212,1.671.576,3.388.628,5.032a18.612,18.612,0,0,0,2.263,11.039c.712,1.79.8,3.9,1.8,5.513,1.008,1.64,2.855,2.661,4.12,4.079,1.281,1.435,2.163,3.292,3.671,4.453s3.522,1.573,5.236,2.417,3.261,2.151,5.128,2.621" fill="#427823"/>
        </g>
      </g>
    </g>
    <g id="그룹_300" data-name="그룹 300" transform="translate(376.089 -84.857)">
      <g id="그룹_293" data-name="그룹 293">
        <g id="그룹_290" data-name="그룹 290">
          <g id="그룹_289" data-name="그룹 289">
            <path id="패스_234" data-name="패스 234" d="M442.511,357.435c-1.484,1.435-.28,2.082-.28,4.146s.181,2.064.181,4.129.041,2.065.041,4.13-.24,2.069-.24,4.137,2.085,2.985.617,4.442-2.387-.02-4.471-.02-2.084-.119-4.169-.119-2.088-.542-4.175-.542-2.78-1.193-4.328.208c-1.4,1.267.025,2.057.025,3.946s.454,1.892.454,3.784-1.628,2.4-.227,3.674c1.543,1.4,1.984-.1,4.068-.1s2.084.012,4.169.012,2.088.394,4.176.394,2.463-1.442,3.929.044c1.486,1.508.079,1.875.079,3.992s-.161,2.119-.161,4.237.763,2.119.763,4.237-.56,2.119-.56,4.237.048,2.118.048,4.236.475,2.118.475,4.236.036,2.119.036,4.238-.752,2.122-.752,4.244-1.2,2.762.3,4.259,2.146.189,4.278.189,2.135.239,4.27.239,2.9,1.212,4.436-.271c1.483-1.433.016-2.234.016-4.3s-.3-2.062-.3-4.125.426-2.062.426-4.124-.14-2.06-.14-4.12.27-2.062.27-4.125-.2-2.061-.2-4.122-.559-2.063-.559-4.127-.131-2.061-.131-4.123.32-2.063.32-4.126-.308-2.064-.308-4.128.177-2.064.177-4.128.7-2.063.7-4.127-.292-2.064-.292-4.127.123-2.063.123-4.127-.724-2.064-.724-4.128.894-2.068.894-4.135.989-2.64-.495-4.08c-1.53-1.484-2.078.149-4.21.149s-2.261.61-4.349.164C444.485,357.342,444.046,355.951,442.511,357.435Z" fill="#e64c29"/>
          </g>
        </g>
        <g id="그룹_292" data-name="그룹 292">
          <g id="그룹_291" data-name="그룹 291">
            <path id="패스_235" data-name="패스 235" d="M412.913,363.516c-.945-.855-2.488-.966-3.535-1.694s-1.813-1.879-2.949-2.474a33.078,33.078,0,0,0-3.659-1.163,32.629,32.629,0,0,0-3.614-1.6,32.992,32.992,0,0,0-3.921-.466,33.874,33.874,0,0,0-3.92-.591c-.005,0,0,.577-.005.577a35.6,35.6,0,0,0-4.031-.053,32,32,0,0,0-3.931.895,30.464,30.464,0,0,0-3.833,1.244,32.848,32.848,0,0,0-3.168,2.084,31.483,31.483,0,0,0-3.324,1.759,30.93,30.93,0,0,0-3.224,2.063,140.5,140.5,0,0,0-4.473,6.024,30.775,30.775,0,0,0-1.392,3.463c-.533,1.188-1.5,2.231-1.851,3.5a28.122,28.122,0,0,0-.917,3.864,31.13,31.13,0,0,0-.255,3.967,30.087,30.087,0,0,0,.544,4.03,27.49,27.49,0,0,0,.948,3.92,26.773,26.773,0,0,0,1.157,3.882,31.417,31.417,0,0,0,1.967,3.283,29.485,29.485,0,0,0,2.242,3.078,28.652,28.652,0,0,0,2.434,2.955c.918.859,2.357,1.078,3.383,1.813a29.07,29.07,0,0,0,3.087,2.1,30.832,30.832,0,0,0,3.348,1.687c1.206.477,2.281,1.394,3.53,1.713a31.25,31.25,0,0,0,3.871.579,31.872,31.872,0,0,0,3.893.14,33.57,33.57,0,0,0,4.005-.691,31.62,31.62,0,0,0,3.987-.553,30.4,30.4,0,0,0,3.815-1.291,32.623,32.623,0,0,0,3.478-1.61,31.579,31.579,0,0,0,3.476-1.709,30.021,30.021,0,0,0,3.1-2.351,87.478,87.478,0,0,0,4.844-5.942c.662-1.068.584-2.539,1.114-3.7.545-1.2,1.516-2.218,1.878-3.489a27.707,27.707,0,0,0,.758-3.889,30.726,30.726,0,0,0-.214-3.949,30.015,30.015,0,0,0-.3-4.027c-.184-1.381.272-2.864-.1-4.152a24.988,24.988,0,0,0-1.745-3.742,31.39,31.39,0,0,0-1.712-3.434,30.533,30.533,0,0,0-2.105-3.243A29.913,29.913,0,0,0,412.913,363.516Zm-21.582,37.977c-1.147-.042-2.369.677-3.463.432s-2.023-1.166-3.061-1.62a18.941,18.941,0,0,1-3.1-1.211,143.7,143.7,0,0,0-4.5-4.807,18.185,18.185,0,0,1-1.267-3c-.454-1.016-1.338-1.894-1.563-3a17.352,17.352,0,0,1,.035-3.375,16.387,16.387,0,0,1,.261-3.421,16.664,16.664,0,0,1,1.119-3.247A22.113,22.113,0,0,1,377,374.978a19.851,19.851,0,0,1,2.4-2.524,52.591,52.591,0,0,0,5.512-3.84,33.93,33.93,0,0,1,6.4-1.8c1.182,0,2.266.675,3.371.927A13.676,13.676,0,0,1,397.815,369a18.228,18.228,0,0,1,7.68,6.422,19.082,19.082,0,0,1,1.294,3.143,18.562,18.562,0,0,1,1.116,3.081,11.792,11.792,0,0,1-.2,6.633c-.236,1.138.1,2.475-.373,3.517a19.91,19.91,0,0,1-1.789,2.867,18.566,18.566,0,0,1-2.236,2.506c-.775.775-1.947,1.037-2.858,1.643a11.289,11.289,0,0,1-9.116,2.682Z" fill="#e64c29"/>
          </g>
        </g>
      </g>
      <g id="그룹_295" data-name="그룹 295">
        <g id="그룹_294" data-name="그룹 294">
          <path id="패스_236" data-name="패스 236" d="M496.105,415.716c-1.411,0-2.727.26-3.9.182-1.468-.1-2.656-.935-3.739-1.157-1.945-.4-3.619-.8-4.77-1.951s-1.532-2.823-1.929-4.766c-.221-1.081-1.071-2.263-1.169-3.728-.078-1.166.115-2.478.115-3.887,0-2.051-.332-2.051-.332-4.1s.8-2.052.8-4.1-.8-2.052-.8-4.1.695-2.055.695-4.11-1.85-2.826-.4-4.279,2.224.627,4.28.627,2.054-.616,4.108-.616,2.056.191,4.113.191,2.055-.417,4.11-.417,2.057-.076,4.114-.076,2.056.764,4.112.764,2.057-.188,4.114-.188,2.057.2,4.115.2,2.058-.133,4.116-.133,2.057-.317,4.115-.317,2.057.168,4.115.168,2.057.035,4.115.035,2.058.057,4.116.057,2.061-.559,4.122-.559,3.093,2.261,4.422.685c1.6-1.9-.306-2.736-.273-5.22s1.493-2.892-.078-4.816c-1.3-1.6-1.876.115-3.937.115s-2.058.085-4.116.085-2.061-.266-4.122-.266-2.059-.279-4.119-.279-2.061-.046-4.123-.046-2.06.307-4.121.307-2.061.1-4.122.1-2.062.281-4.125.281-2.062-.39-4.124-.39-2.062-.29-4.124-.29-2.062.384-4.124.384-2.061-.558-4.123-.558-2.063.124-4.125.124-2.066.354-4.132.354-2.764,1.478-4.223.015.5-2.163.5-4.236-.6-2.076-.6-4.152-1.608-3.01-.135-4.472,2.41.176,4.5.176,2.093-.237,4.186-.237,2.093.049,4.185.049,2.093.389,4.185.389,2.09-.127,4.18-.127,2.093.345,4.185.345,2.092-.254,4.183-.254,2.093-.309,4.187-.309,2.092.353,4.184.353,2.093-.221,4.186-.221,2.094.414,4.188.414,2.094.009,4.188.009,2.094,0,4.188,0,2.093-.356,4.187-.356,2.093-.2,4.187-.2,2.094.174,4.189.174,2.1.085,4.2.085,2.916-1.651,4.371-.141c1.511,1.567-.491,2.346-.491,4.522s-.145,2.176-.145,4.353.874,2.176.874,4.352-.591,2.176-.591,4.351.435,2.176.435,4.352-.465,2.177-.465,4.353.233,2.18.233,4.36,1.215,2.536-.272,4.13c-1.388,1.487-1.788.47-3.822.47s-2.032-.371-4.064-.371-2.034.1-4.068.1-2.033-.066-4.067-.066-2.035.486-4.07.486-2.034-.316-4.067-.316-2.035-.483-4.07-.483-2.036.349-4.071.349-2.036-.049-4.072-.049-2.036.378-4.071.378-2.035-.556-4.071-.556-2.035-.132-4.07-.132l-4.072,0c-2.04,0-2.04.277-4.079.277s-2.638-1.295-4.1.132c-1.427,1.4-.279,2.014-.279,4.011s.18,2,.18,3.994a12.367,12.367,0,0,0,.242,2.77,1.6,1.6,0,0,0,1.6,1.079c2.115,0,2.115-.744,4.231-.744s2.118.144,4.235.144,2.117.119,4.234.119,2.119.543,4.237.543,2.118-.15,4.235-.15,2.118-.1,4.237-.1,2.119-.455,4.239-.455,2.119.179,4.238.179,2.12-.058,4.239-.058,2.119.012,4.238.012,2.119.393,4.238.393,2.119.148,4.239.148,2.123-.179,4.246-.179,2.464-1.367,4.023.074c1.441,1.332.658,1.721.658,3.684s-.56,1.966-.56,3.931,1.522,2.546.073,3.875c-1.579,1.448-2.091.454-4.234.454s-2.145.036-4.29.036-2.145-.752-4.289-.752-2.146.3-4.293.3-2.144-.183-4.289-.183-2.146-.239-4.293-.239-2.146.2-4.293.2-2.147.057-4.294.057-2.147.295-4.294.295-2.147-.426-4.293-.426-2.147.14-4.293.14-2.148-.27-4.295-.27-2.154.172-4.3.2S498.256,415.716,496.105,415.716Zm85.852,31.921c1.429,1.345.323,2.018.323,3.981s-.684,1.965-.684,3.931,1.794,2.641.371,4c-1.5,1.424-2.128-.4-4.192-.4s-2.065.7-4.129.7-2.065-.233-4.13-.233-2.064.332-4.129.332-2.065-.8-4.131-.8-2.064.8-4.129.8-2.065-.695-4.129-.695-2.063.466-4.125.466-2.065-.7-4.13-.7-2.063.616-4.127.616-2.066-.191-4.131-.191-2.065.417-4.129.417-2.065.076-4.131.076-2.066-.764-4.132-.764-2.067.188-4.133.188-2.066-.2-4.132-.2-2.066.133-4.132.133-2.066.317-4.132.317-2.066-.168-4.133-.168-2.07-.035-4.14-.035-2.069-.057-4.139-.057c-1.768,0-3.528.393-5.117.083s-2.7-1.641-3.933-2.49a8.609,8.609,0,0,1-3.238-3.208,13.591,13.591,0,0,1-1.328-6.046c0-2.163-.028-2.163-.028-4.325s-.084-2.162-.084-4.323.265-2.162.265-4.324.28-2.162.28-4.325.045-2.166.045-4.332-1.839-2.869-.286-4.379c1.6-1.553,2.274-.123,4.5-.123s2.23-.282,4.461-.282,2.93-1.17,4.505.409-.271,2.28-.271,4.516.384,2.237.384,4.473-.559,2.238-.559,4.475.124,2.241.124,4.481.354,2.241.354,4.482a3.588,3.588,0,0,0,.806,2.753,3.874,3.874,0,0,0,2.694,1.236c2.078,0,2.078-.6,4.157-.6s2.078-.268,4.157-.268,2.078.307,4.157.307,2.079-.237,4.158-.237,2.079.049,4.157.049,2.079.389,4.157.389,2.077-.127,4.153-.127,2.078.344,4.157.344,2.078-.254,4.155-.254,2.08-.308,4.159-.308,2.078.352,4.156.352,2.08-.221,4.159-.221,2.08.415,4.16.415,2.08.009,4.16.009,2.081,0,4.161,0,2.079-.356,4.159-.356,2.08-.2,4.16-.2,2.08.173,4.16.173,2.125.526,4.162.086C579.926,447.19,580.44,446.208,581.957,447.637Zm0-15.78c-1.8,1.562-2.434.318-4.816.318s-2.385-.684-4.769-.684-3.025,1.937-4.829.376c-1.56-1.349.395-2.131.395-4.194s-.7-2.063-.7-4.127.233-2.063.233-4.126-.332-2.063-.332-4.126.8-2.061.8-4.121-.8-2.063-.8-4.126.7-2.062.7-4.124-.466-2.064-.466-4.128.7-2.063.7-4.125-.616-2.064-.616-4.128.192-2.064.192-4.129-.418-2.065-.418-4.129-.075-2.065-.075-4.129.764-2.064.764-4.128-.188-2.065-.188-4.129.2-2.065.2-4.13-.133-2.068-.133-4.136-1.833-2.881-.271-4.237c1.8-1.562,2.47.135,4.853.135s2.385.035,4.769.035,2.883-1.534,4.687.026c1.56,1.35.515,1.968.515,4.031s-.824,2.063-.824,4.127.432,2.063.432,4.126.2,2.063.2,4.126.028,2.061.028,4.121.084,2.063.084,4.126-.266,2.062-.266,4.124-.279,2.064-.279,4.128-.045,2.063-.045,4.125.306,2.064.306,4.128.1,2.064.1,4.129.281,2.065.281,4.129-.39,2.065-.39,4.129-.29,2.064-.29,4.128.384,2.065.384,4.129-.558,2.065-.558,4.13-.335,2.184.131,4.2C582.142,429.928,583.516,430.5,581.955,431.857Z" fill="#905b9e"/>
        </g>
      </g>
      <g id="그룹_297" data-name="그룹 297">
        <g id="그룹_296" data-name="그룹 296">
          <path id="패스_237" data-name="패스 237" d="M638.72,355.118a35.759,35.759,0,0,1,4.255.774c1.424.173,2.992-.394,4.392-.048,1.383.342,2.581,1.379,3.94,1.89s2.926.51,4.176,1.157a35.18,35.18,0,0,1,3.56,2.442,34.53,34.53,0,0,1,3.486,2.525,31.987,31.987,0,0,1,2.655,3.394,31.628,31.628,0,0,1,2.786,3.249,34.465,34.465,0,0,1,1.774,3.9,28.214,28.214,0,0,1,1.826,4.114,29.928,29.928,0,0,1,.967,4.41,33.319,33.319,0,0,1,.335,4.508,31.566,31.566,0,0,1-.514,4.319,29.372,29.372,0,0,1-.936,4.22,28.911,28.911,0,0,1-1.63,3.993,28.947,28.947,0,0,1-7.166,10.378,28.87,28.87,0,0,1-6.9,5.12,36.638,36.638,0,0,1-3.983,1.637,33.825,33.825,0,0,1-4.263,1.207,34.344,34.344,0,0,1-4.359.682,36.426,36.426,0,0,1-4.4.584,35.034,35.034,0,0,1-4.276-.291,34.925,34.925,0,0,1-8.292-2.088,33.889,33.889,0,0,1-3.738-1.815,32.669,32.669,0,0,1-3.665-2.005,32.2,32.2,0,0,1-3.224-2.673,32.92,32.92,0,0,1-3.013-2.974,33.981,33.981,0,0,1-2.15-3.646,35.071,35.071,0,0,1-2.248-3.578c-.618-1.34-.492-2.966-.9-4.395a29.792,29.792,0,0,1-1.281-4.241,35.218,35.218,0,0,1,.141-4.434c0-1.478-.608-2.963-.434-4.364a31.24,31.24,0,0,1,1.061-4.236,29.907,29.907,0,0,1,1.132-4.233c.554-1.27,1.889-2.131,2.583-3.3s.826-2.766,1.675-3.837,2.288-1.627,3.277-2.586a31.729,31.729,0,0,1,2.883-3.054c1.111-.822,2.646-.982,3.876-1.665,1.2-.666,2.173-1.812,3.486-2.346a36.149,36.149,0,0,1,4.3-1.239,38.1,38.1,0,0,1,4.307-1.308A43.524,43.524,0,0,1,638.72,355.118Zm.005,51.787a19.7,19.7,0,0,0,3.863.127c1.232-.253,2.187-1.433,3.375-1.939s2.577-.532,3.62-1.222,1.619-1.972,2.53-2.861a19.05,19.05,0,0,0,2.614-2.686,20.186,20.186,0,0,0,1.692-3.355,18.34,18.34,0,0,0,1.652-3.587,20.09,20.09,0,0,0,.094-3.953,18.493,18.493,0,0,0-.053-3.821,21.5,21.5,0,0,0-1.353-3.578,22.786,22.786,0,0,0-1.816-3.473,34.868,34.868,0,0,0-5.144-5.919,22.932,22.932,0,0,0-3.325-2.151,16.935,16.935,0,0,0-3.732-1.532,17.522,17.522,0,0,0-4.019-.612,26.469,26.469,0,0,0-7.354,2.208,22.824,22.824,0,0,0-3.275,2.178,25.259,25.259,0,0,0-7.67,9.052,20.092,20.092,0,0,0-1.37,3.706,18.274,18.274,0,0,0-.111,3.942,18.73,18.73,0,0,0,.359,3.844,17.808,17.808,0,0,0,1.207,3.67,20.644,20.644,0,0,0,1.9,3.276,20.12,20.12,0,0,0,2.416,2.915,20.954,20.954,0,0,0,3.123,2.179,21.648,21.648,0,0,0,3.318,1.8,19.31,19.31,0,0,0,3.7,1.016A19.776,19.776,0,0,0,638.725,406.9ZM703.309,357.8c1.531,1.393-.477,2.163-.477,4.232s.844,2.07.844,4.139-.636,2.07-.636,4.14.64,2.069.64,4.139-.269,2.069-.269,4.139.16,2.067.16,4.134-.483,2.069-.483,4.139.3,2.068.3,4.137-.349,2.07-.349,4.14.234,2.069.234,4.138.028,2.07.028,4.141.037,2.071.037,4.141-.224,2.071-.224,4.142-.037,2.071-.037,4.142-.13,2.071-.13,4.141-.144,2.071-.144,4.142.392,2.071.392,4.142.028,2.075.028,4.149,1.612,2.834.08,4.233c-1.678,1.532-2.348.047-4.621.047s-2.274-.2-4.548-.2-2.7,1.425-4.386-.106c-1.531-1.393.206-1.891.206-3.961s-.324-2.069-.324-4.138.034-2.07.034-4.14,0-2.07,0-4.139-.033-2.069-.033-4.139.046-2.067.046-4.134-.279-2.069-.279-4.139-.025-2.068-.025-4.137-.206-2.07-.206-4.14.345-2.069.345-4.138-.3-2.071-.3-4.141.684-2.071.684-4.142-.4-2.071-.4-4.141.425-2.072.425-4.143-.7-2.07-.7-4.14.233-2.071.233-4.142-.332-2.071-.332-4.142.8-2.075.8-4.149-2.181-3.1-.649-4.494c1.678-1.533,2.587.573,4.86.573a14.18,14.18,0,0,0,4.5-.461C701.031,357.14,701.627,356.27,703.309,357.8Z" fill="#4fb2ab"/>
        </g>
      </g>
      <g id="그룹_299" data-name="그룹 299">
        <g id="그룹_298" data-name="그룹 298">
          <path id="패스_238" data-name="패스 238" d="M790.361,405.032c-1.488,1.443-2.061-.342-4.134-.342s-2.075.288-4.151.288-2.074-.392-4.148-.392-2.077.221-4.153.221-2.075.638-4.15.638-2.076-.727-4.152-.727-2.077.6-4.154.6-2.077-.712-4.154-.712-2.077.47-4.154.47-2.076.4-4.152.4-2.077-.6-4.154-.6-2.077.393-4.154.393-2.081-.213-4.161-.213-2.081-.253-4.161-.253a5.727,5.727,0,0,1-4.518-1.723c-1.237-1.324-1.648-3.147-1.648-5.443,0-1.992-.53-1.992-.53-3.983s.7-1.992.7-3.984-.394-1.993-.394-3.986.138-1.993.138-3.986.281-1.993.281-3.986-.067-1.992-.067-3.985-.02-1.992-.02-3.985-.132-1.993-.132-3.986-.355-2-.355-3.993-1.333-2.692.167-4.01c1.708-1.5,2.288-.155,4.56-.155s2.274.046,4.549.046,2.641-1.174,4.275.408c1.582,1.53.725,1.919.725,4.12s-.636,2.2-.636,4.4.64,2.2.64,4.4-.269,2.2-.269,4.4.16,2.2.16,4.4-.483,2.2-.483,4.4.3,2.205.3,4.41-1.823,2.949-.3,4.54c1.465,1.527,2.252-.176,4.368-.176s2.119-.028,4.237-.028,2.117-.037,4.234-.037,2.119.224,4.237.224,2.119.037,4.238.037,2.119.129,4.238.129,2.119.145,4.239.145,2.118-.392,4.237-.392,2.119-.028,4.237-.028,2.12-.117,4.239-.117,2.123-.018,4.246-.018,2.653-1.275,4.2.183c1.458,1.379-.191,1.954-.191,3.961s-.544,2.133-.119,4.1C790.466,403.2,791.8,403.633,790.361,405.032Zm-51.113,54.431a9.979,9.979,0,0,1-4.038-1.118,9.358,9.358,0,0,1-3.528-2.22,10.7,10.7,0,0,1-1.935-4.237,14.882,14.882,0,0,1-.857-4.593c0-2.249-.639-2.249-.639-4.5s.728-2.25.728-4.5-.6-2.253-.6-4.507-.932-2.55.595-4.208c1.406-1.527,1.751-.328,3.827-.328s2.075-.4,4.15-.4,2.076.6,4.151.6,2.073-.393,4.146-.393,2.075.214,4.151.214,2.074.252,4.148.252,2.076-.27,4.152-.27,2.075.212,4.15.212,2.076-.53,4.152-.53,2.077.7,4.154.7,2.077-.394,4.154-.394,2.077.138,4.154.138,2.076.281,4.152.281,2.077-.067,4.153-.067,2.077-.02,4.155-.02,2.08-.132,4.16-.132,2.421.98,4.048-.315c1.3-1.031.091-1.514.091-3.169s1.219-2.154-.084-3.175c-1.661-1.3-2-.01-4.115-.01s-2.111-.518-4.221-.518-2.11.844-4.221.844-2.108-.636-4.216-.636-2.11.639-4.22.639-2.11-.268-4.219-.268-2.111.16-4.222.16-2.11-.483-4.22-.483-2.111.3-4.222.3-2.112-.349-4.224-.349-2.112.234-4.224.234-2.112.028-4.224.028-2.111.037-4.223.037-2.111-.224-4.223-.224-2.112-.037-4.224-.037-2.116-.13-4.232-.13-2.391,1.408-3.942-.031c-1.439-1.335-.256-1.651-.256-3.614s-.028-1.966-.028-3.931-1.527-2.683-.081-4.015c1.57-1.446,2.211-.048,4.345-.048s2.135.2,4.27.2,2.135.169,4.27.169,2.135.127,4.27.127,2.135-.323,4.27-.323,2.135.033,4.27.033,2.132,0,4.264,0,2.135-.032,4.27-.032,2.134.046,4.268.046,2.135-.28,4.271-.28,2.135-.025,4.269-.025,2.136-.205,4.271-.205,2.136.345,4.273.345,2.136-.3,4.273-.3,2.136.685,4.273.685,2.136-.4,4.271-.4,2.137.426,4.273.426,2.136-.7,4.273-.7,2.14.233,4.28.233,3.093-1.71,4.607-.2-.661,2.463-.661,4.6.8,2.137.8,4.275-.7,2.136-.7,4.272.466,2.137.466,4.274-.695,2.137-.695,4.275.616,2.14.616,4.281,1.309,2.723-.183,4.258c-1.449,1.492-2.055.408-4.135.408s-2.079.075-4.158.075-2.079-.764-4.158-.764-2.077.188-4.154.188-2.079-.2-4.159-.2-2.078.133-4.156.133-2.08.317-4.16.317-2.079-.167-4.157-.167-2.08-.036-4.16-.036-2.081-.057-4.162-.057-2.08.559-4.161.559-2.081-.824-4.162-.824-2.08.432-4.16.432-2.08.2-4.161.2-2.081.028-4.162.028-2.084.084-4.168.084-2.508-1.612-4.115-.285c-1.327,1.1-.249,1.657-.249,3.379s-1.3,2.552.045,3.631c1.669,1.342,2.292-.254,4.434-.254s2.141-.1,4.283-.1,2.141-.281,4.283-.281,2.139.39,4.278.39,2.141.29,4.283.29,2.14-.384,4.281-.384,2.142.558,4.285.558,2.141-.124,4.282-.124,2.142-.354,4.284-.354,2.143-.053,4.286-.053,2.143.541,4.286.541,2.144-.6,4.287-.6,2.142-.268,4.285-.268,2.143.307,4.285.307,2.144-.237,4.287-.237,2.147.049,4.294.049,2.67-1.075,4.255.374c1.448,1.324.108,1.92.108,3.883s-.345,1.965-.345,3.931,1.7,2.574.261,3.916c-1.537,1.436-2.089.3-4.193.3s-2.1-.352-4.208-.352-2.1.221-4.206.221-2.1-.415-4.207-.415-2.1-.009-4.2-.009-2.1,0-4.207,0-2.1.356-4.2.356-2.1.2-4.209.2-2.1-.173-4.206-.173-2.1-.086-4.209-.086-2.105.216-4.21.216-2.1-.56-4.21-.56-2.1-.145-4.21-.145-2.1.874-4.209.874-2.105-.591-4.21-.591-2.1.435-4.21.435-2.108-.459-4.217-.465S741.357,459.463,739.248,459.463Zm60.8-101.822c1.687-1.522,2.261.342,4.534.342s2.274-.288,4.548-.288,2.524-1.2,4.25.281c1.481,1.271.061,1.6.061,3.556s.639,1.952.639,3.9-.728,1.955-.728,3.91-.85,2.326.52,3.722c1.343,1.369,1.725.63,3.644.63s1.919-.47,3.838-.47,1.922-.4,3.844-.4,2.387-.841,3.716.547c1.388,1.45.344,1.884.344,3.891s-.214,2.01-.214,4.02,1.205,2.393-.183,3.847c-1.325,1.387-1.737.193-3.656.193s-1.919-.213-3.838-.213-1.922.531-3.844.531-2.834-2.015-4.118-.584c-1.431,1.6.3,2.389.3,4.533s-.139,2.144-.139,4.288-.28,2.144-.28,4.289.067,2.148.067,4.3,1.676,2.6.115,4.074c-1.651,1.561-2.063.049-4.335.049s-2.275.354-4.549.354-2.872,1.355-4.563-.165c-1.521-1.367-.158-2.061-.158-4.106s.046-2.047.046-4.093.519-2.046.519-4.091-.844-2.047-.844-4.093.636-2.047.636-4.1-.64-2.047-.64-4.094.268-2.048.268-4.1-.159-2.047-.159-4.094.483-2.047.483-4.094-.3-2.047-.3-4.1.788-2.14.344-4.142C799.749,359.544,798.531,359.015,800.053,357.641Z" fill="#ec898e"/>
        </g>
      </g>
    </g>
    <g id="그룹_315" data-name="그룹 315" transform="translate(-137.149 728)">
      <g id="그룹_307" data-name="그룹 307" transform="translate(308.976 -788.336)">
        <g id="그룹_302" data-name="그룹 302">
          <g id="그룹_301" data-name="그룹 301">
            <path id="패스_239" data-name="패스 239" d="M479.1,545.966c1.449,1.565,2.327-.383,4.46-.383s2.133.225,4.266.225,2.133.255,4.267.255,2.133-.481,4.266-.481,2.133-.126,4.265-.126,2.133.506,4.266.506,2.134-.512,4.267-.512,2.137-.1,4.274-.1,2.425-.713,4,.732c1.445,1.328.727,1.663.727,3.626s.011,1.965.011,3.931,1.244,2.88-.192,4.222c-1.538,1.436-2.375-.124-4.48-.124s-2.1-.371-4.206-.371-2.1-.262-4.208-.262-2.1.628-4.208.628-2.1-.516-4.208-.516-2.1.2-4.208.2-2.1.607-4.209.607-2.1-.7-4.208-.7-2.1-.17-4.208-.17-2.1.519-4.2.519-2.1-.32-4.208-.32-2.1.056-4.206.056-2.105.359-4.21.359-2.1.01-4.207.01-2.105-.12-4.209-.12-2.106.187-4.212.187-2.1-.034-4.211-.034-2.1.166-4.211.166-2.105-.749-4.21-.749-2.106.782-4.211.782-2.106-.707-4.212-.707-2.109.7-4.218.7-2.658.988-4.2-.449c-1.437-1.337-.3-1.945-.3-3.907s.145-1.966.145-3.932-1.078-2.34.385-3.653c1.629-1.463,1.94-.592,4.129-.592s2.191-.136,4.382-.136,2.191.659,4.383.659,2.191.092,4.383.092,2.192-.261,4.383-.261,2.191-.378,4.382-.378,2.192.653,4.383.653,2.192-.213,4.383-.213,2.2-.213,4.391-.213,2.9,1.718,4.412.131c1.588-1.663.352-2.319.352-4.618s-.432-2.3-.432-4.6.427-2.3.427-4.606,1.233-2.946-.287-4.676c-1.336-1.52-2.105.005-4.128.005s-2.024.373-4.047.373-2.023-.19-4.046-.19-2.024.113-4.047.113-2.024-.369-4.048-.369-2.027-.059-4.054-.059-2.027.631-4.054.631c-1.4,0-2.658-.761-3.809-.821-1.465-.076-2.817.546-3.88.374a9.088,9.088,0,0,1-4.474-2.168,6.706,6.706,0,0,1-1.871-3.969,19.846,19.846,0,0,1-.881-3.212c-.06-.988.139-2.11.139-3.312,0-2.083.154-2.083.154-4.166s.2-2.083.2-4.166.2-2.083.2-4.166-.016-2.083-.016-4.165.091-2.084.091-4.167-.09-2.087-.09-4.174-2.059-2.952-.585-4.429,2.34.629,4.424.629,2.083-.6,4.166-.6,2.084-.082,4.169-.082,2.083.756,4.167.756,2.084-.008,4.168-.008,2.083-.543,4.167-.543,2.085.315,4.169.315,2.084-.435,4.168-.435,2.084.324,4.168.324,2.081-.287,4.163-.287,2.084.348,4.168.348,2.083-.142,4.165-.142,2.085.337,4.17.337,2.083-.288,4.167-.288,2.085.392,4.169.392,2.086-.221,4.171-.221,2.086-.638,4.171-.638,2.085.727,4.171.727,2.085-.6,4.17-.6,2.085.712,4.17.712,2.086-.47,4.172-.47,2.089-.4,4.178-.4,2.534-.877,4.056.554c1.431,1.343.338,1.833.338,3.795s-.214,1.966-.214,3.932,1.245,2.391-.175,3.75c-1.485,1.421-1.882.2-3.937.2s-2.056-.212-4.111-.212-2.056.53-4.111.53-2.056-.705-4.112-.705-2.055.394-4.111.394-2.055-.138-4.11-.138-2.053-.281-4.107-.281-2.055.067-4.111.067-2.054.02-4.108.02-2.057.132-4.113.132-2.055.355-4.11.355-2.056-.16-4.112-.16-2.057.151-4.114.151-2.057-.047-4.114-.047-2.057-.518-4.114-.518-2.056.844-4.113.844-2.056-.636-4.113-.636-2.057.64-4.115.64-2.06-.268-4.121-.268-2.385-1.352-3.882.064c-1.416,1.34-.375,1.7-.375,3.647s.3,1.95.3,3.9-.348,1.953-.348,3.906.233,1.953.233,3.906a4.353,4.353,0,0,0,.351,2.031c.219.4.972.526,2.385.526,2.09,0,2.09.224,4.181.224s2.09.037,4.18.037,2.091.129,4.182.129,2.09.145,4.181.145,2.09-.392,4.18-.392,2.088-.028,4.176-.028,2.091-.118,4.181-.118,2.09-.018,4.179-.018,2.091.2,4.182.2,2.09.169,4.18.169,2.091.127,4.182.127,2.092-.323,4.184-.323,2.092.033,4.184.033,2.092,0,4.184,0,2.092-.032,4.183-.032,2.092.046,4.183.046,2.092-.28,4.185-.28,2.1-.025,4.191-.025,2.95-1.524,4.479-.091c1.433,1.341-.212,2.27-.212,4.232s.3,1.966.3,3.932.86,2.372-.585,3.7c-1.568,1.446-1.923.317-4.056.317s-2.133-.425-4.266-.425-2.133.7-4.267.7-2.133-.233-4.266-.233-2.133.332-4.265.332-2.133-.8-4.266-.8-2.134.8-4.267.8-2.137-.7-4.274-.7-2.645-1.175-4.1.39c-1.565,1.684-.632,2.137-.632,4.436s.616,2.3.616,4.6.322,2.353-.191,4.6C478.692,543.657,477.533,544.277,479.1,545.966Z" fill="#ec898e"/>
          </g>
        </g>
        <g id="그룹_304" data-name="그룹 304">
          <g id="그룹_303" data-name="그룹 303">
            <path id="패스_240" data-name="패스 240" d="M586.966,488.834c0,1.614.008,3.148.114,4.631.116,1.614.079,3.165.321,4.624a36.631,36.631,0,0,0,1.156,4.48c.359,1.217.768,2.361,1.2,3.469a35.139,35.139,0,0,0,1.556,3.311c.578,1.122.7,2.489,1.369,3.473a32.644,32.644,0,0,0,3.179,3.521,26.52,26.52,0,0,0,3.647,2.951c1.135.879,2.316,1.573,3.452,2.3,1.2.778,2.169,1.862,3.374,2.475,1.135.579,2.324.957,3.429,1.432,1.171.5,2.205,1.284,3.341,1.669,2.206.752,3.958,1.233,5.46,1.849.627,2.022-.18,2.058-.18,4.175s.209,2.12.209,4.24,1.145,2.348.374,4.323c-1.566-.227-3.228-.925-4.716-1.259-1.539-.345-3.108-.426-4.564-.884-1.5-.472-2.791-1.4-4.2-1.988-1.313-.55-2.667-.891-3.889-1.5-1.274-.63-2.431-1.379-3.608-2.068-1.225-.718-2.461-1.334-3.579-2.115-1.036-.723-2.157-1.285-3.1-2.045-.984-.788-1.769-1.765-2.657-2.593-.92-.858-1.83-1.682-2.649-2.582a46.7,46.7,0,0,1-3.063-3.7,33.37,33.37,0,0,1-2.66-3.738,42.255,42.255,0,0,1-2.612,3.881c-.954,1.241-2.471,2.083-3.608,3.334-.815.9-1.473,1.945-2.385,2.8-.883.828-2,1.388-2.972,2.177-.94.761-1.828,1.584-2.852,2.309-1.1.779-2.087,1.748-3.287,2.464-1.157.689-2.446,1.168-3.7,1.8-1.2.606-2.247,1.609-3.535,2.161-1.382.593-2.9.917-4.365,1.389-1.428.459-2.952.611-4.463.956-1.458.333-3.084.957-4.621,1.184-.758-1.977-.139-2.19-.139-4.307s.506-2.12.506-4.241-1.126-2.315-.5-4.34c1.465-.472,3.223-1.328,4.929-1.953,1.481-.542,3.35-.356,5.011-1.012,1.231-.486,2.07-1.829,3.254-2.483a33.209,33.209,0,0,0,3.333-2.123,37.432,37.432,0,0,0,3.132-2.427,26.768,26.768,0,0,0,3.361-3.224,33.271,33.271,0,0,0,2.976-3.661,42.816,42.816,0,0,0,2.431-4.081c.514-1.121.39-2.566.784-3.848a35.324,35.324,0,0,0,1.439-3.626c.241-1.213.25-2.535.405-3.864.143-1.233-.355-2.557-.285-3.89.064-1.244.8-2.508.8-3.839,0-2.318-1.573-2.686.049-4.341,1.591-1.622,1.972-.392,4.245-.392s2.274.319,4.548.319,2.427-1.059,4.476-.072C588.725,485.357,586.966,486.516,586.966,488.834ZM628.653,484c1.729-1.475,2.443-.017,4.715-.017s2.274.217,4.548.217,2.947-1.621,4.639-.1c1.519,1.364.064,2.143.064,4.184s.062,2.042.062,4.083-.6,2.042-.6,4.084.32,2.042.32,4.084.313,2.041.313,4.083.118,2.039.118,4.078-.457,2.042-.457,4.083.164,2.041.164,4.081-.357,2.043-.357,4.085.078,2.042.078,4.083-.172,2.042-.172,4.084.21,2.043.21,4.086.389,2.043.389,4.087-.57,2.043-.57,4.086.327,2.042.327,4.085-.424,2.043-.424,4.086.251,2.043.251,4.086-.111,2.047-.111,4.093,1.719,2.61.2,3.98c-1.689,1.52-2.17.182-4.442.182s-2.275-.227-4.549-.227-2.813,1.632-4.486.091c-1.54-1.418.017-2.027.017-4.121s-.334-2.1-.334-4.193.05-2.095.05-4.19.62-2.1.62-4.192-.267-2.1-.267-4.194.312-2.1.312-4.194-.12-2.1-.12-4.195-.275-2.1-.275-4.193.2-2.1.2-4.193-.469-2.1-.469-4.2.225-2.1.225-4.2,1.685-2.945.171-4.4c-1.574-1.514-2.376.4-4.56.4s-2.183.127-4.367.127-2.185-.507-4.369-.507-2.188.512-4.376.512-3.036,1.448-4.665-.013c-1.46-1.31.7-2.285.7-4.247s-.858-1.966-.858-3.932-1.319-2.96.142-4.275c1.623-1.461,2.493-.053,4.677-.053s2.183.23,4.367.23,2.185.371,4.369.371,2.188.262,4.376.262,2.629.862,4.268-.587c1.45-1.282.462-1.814.462-3.749s-.2-1.936-.2-3.871a10.51,10.51,0,0,0-.594-3.771C627.864,486.046,627.178,485.257,628.653,484Z" fill="#e64c29"/>
          </g>
        </g>
        <g id="그룹_306" data-name="그룹 306">
          <g id="그룹_305" data-name="그룹 305">
            <path id="패스_241" data-name="패스 241" d="M734.2,541.092c-1.4,1.475-2.112-.394-4.146-.394s-2.034.714-4.068.714-2.034-.656-4.067-.656-2.034.351-4.068.351-2.031-.525-4.062-.525-2.034.136-4.068.136-2.032.392-4.065.392-2.034-.16-4.069-.16-2.033-.319-4.066-.319-2.034-.021-4.069-.021-2.035-.046-4.07-.046-2.035.222-4.07.222-2.035-.127-4.071-.127-2.034.183-4.069.183-2.035-.241-4.07-.241-2.035.221-4.07.221-2.039.541-4.078.541-2.872,1.322-4.279-.153c-1.475-1.548-.022-2.331-.022-4.47s.118-2.143.118-4.285-1.642-2.984-.186-4.555c1.35-1.457,2.278.041,4.263.041s1.986-.234,3.971-.234,1.985.822,3.971.822,1.985-.521,3.971-.521,1.989.514,3.979.514,2.854,1.335,4.253-.08c1.414-1.43-.537-2.283-.537-4.294s.045-2.012.045-4.024.217-2.012.217-4.024-.136-2.015-.136-4.031-1.513-2.862.037-4.149c1.867-1.551,2.526-.1,4.953-.1s2.429.6,4.857.6,2.95-1.884,4.82-.335c1.549,1.283.291,1.966.291,3.977s.119,2.012.119,4.024-.458,2.012-.458,4.024.164,2.015.164,4.031-1.746,2.865-.267,4.235c1.6,1.478,2.365,0,4.541,0s2.177.172,4.353.172,2.176-.21,4.352-.21,2.176-.389,4.352-.389,2.176.57,4.352.57,2.176-.327,4.353-.327,2.18.424,4.36.424,2.671-1.832,4.227-.3c1.527,1.5-.168,2-.168,4.142s-.308,2.225.151,4.318C734.464,539.034,735.671,539.539,734.2,541.092Zm-15.784-43.968c-1.546-1.484-2.068-.4-4.211-.4s-2.142.714-4.284.714-2.144-.656-4.288-.656-2.142.351-4.285.351-2.144-.525-4.288-.525-2.144.135-4.289.135-2.145.393-4.289.393-2.145-.16-4.29-.16-2.144-.32-4.288-.32-2.144-.02-4.289-.02-2.145-.047-4.29-.047-2.148.222-4.3.222-2.475,1.427-4.053-.031c-1.458-1.347-.068-1.721-.068-3.706s.241-1.988.241-3.976-1.706-2.45-.28-3.835c1.463-1.423,1.9-.482,3.946-.478s2.04.071,4.08.075,2.04.058,4.08.062,2.038.122,4.076.126,2.041-.288,4.081-.285,2.039.174,4.078.178,2.042-.231,4.083-.227,2.038.826,4.078.83,2.042-.518,4.083-.514,2.041.519,4.082.523,2.042.039,4.084.042,2.043-.644,4.085-.641,2.041.05,4.082.054,2.041.221,4.083.225,2.042-.133,4.084-.129,2.045-.015,4.091-.011,2.789-1.431,4.243.008c1.436,1.423-.533,2.176-.533,4.2s.321,2.023.321,4.046.312,2.023.312,4.046.119,2.023.119,4.046-.458,2.022-.458,4.044.165,2.023.165,4.045-.358,2.023-.358,4.047.078,2.026.078,4.052,1.465,2.426-.047,3.775c-1.7,1.512-2.025.115-4.3.115s-2.275.389-4.549.389-2.629,1.042-4.318-.481c-1.523-1.375-.214-1.8-.214-3.849s.425-2.051.425-4.1-.252-2.052-.252-4.1.111-2.052.111-4.1-.572-2.068-.15-4.08C719.081,499.074,719.9,498.546,718.412,497.124Zm-41.006,74.092c0,.884-.269,1.615-.137,1.748s.909-.421,1.882-.421c2.143,0,2.143.656,4.286.656s2.142-.351,4.285-.351,2.143.525,4.286.525,2.143-.135,4.285-.135,2.143-.393,4.285-.393,2.141.16,4.281.16,2.142.32,4.285.32,2.142.02,4.283.02,2.144.047,4.287.047,2.142-.222,4.285-.222,2.143.126,4.286.126,2.144-.183,4.289-.183,2.144.241,4.288.241,2.144-.221,4.289-.221,2.143-.541,4.287-.541,2.144.067,4.288.067,2.144.055,4.289.055,2.148.118,4.3.118,3.055-1.692,4.577-.176-.052,2.421-.052,4.56.234,2.142.234,4.284.772,2.5-.721,4.035c-1.451,1.493-1.824.413-3.906.413s-2.082-.515-4.164-.515-2.081-.035-4.163-.035-2.083.649-4.165.649-2.082-.045-4.164-.045-2.082-.218-4.163-.218-2.08.137-4.16.137-2.082.018-4.163.018-2.081.063-4.162.063-2.083-.6-4.166-.6-2.081.321-4.163.321-2.082.312-4.165.312-2.083.119-4.167.119-2.083-.458-4.167-.458-2.083.165-4.167.165-2.082-.358-4.165-.358-2.083.078-4.167.078-2.083-.172-4.167-.172-2.087.21-4.174.21-2.087.389-4.174.389c-1.343,0-2.551-.609-3.673-.688a33.086,33.086,0,0,1-3.674-.15,8.431,8.431,0,0,1-4.143-2.362,6.9,6.9,0,0,1-2.3-3.627,21.239,21.239,0,0,1-.361-3.1c-.08-.962-.266-1.993-.266-3.143,0-2.052-.222-2.052-.222-4.1s.227-2.051.227-4.1-.067-2.051-.067-4.1-.012-2.052-.012-4.1-.334-2.056-.334-4.111-1.447-2.939.122-4.268c1.852-1.568,2.56.572,4.987.572s2.428-.267,4.857-.267,2.775-1.48,4.542.186c1.666,1.571-.024,1.955-.024,4.245s.275,2.289.275,4.579-.2,2.291-.2,4.583.432,2.29.469,4.583S677.406,568.923,677.406,571.216Zm92.416-73.322c1.4,1.379-.4,2.04-.4,4s.714,1.966.714,3.931.818,2.363-.578,3.746-1.8.276-3.786.276-1.987-.526-3.975-.526-2.786-1.185-4.188.224.305,2.21.305,4.207-.16,2-.16,3.994-.32,2-.32,3.995-.02,2-.02,4-.047,2-.047,4,.222,2,.222,4-.126,2-.126,4,.183,2,.183,4-.241,2-.241,4,.221,2,.221,4,1.926,2.94.424,4.264c-1.705,1.5-2.5.019-4.774.019s-2.274-.055-4.549-.055-2.928,1.375-4.619-.145c-1.52-1.367-.327-2.124-.327-4.168s.169-2.044.169-4.089-.235-2.044-.235-4.088.823-2.042.823-4.083-.522-2.045-.522-4.089.515-2.043.515-4.086.035-2.045.035-4.09-.649-2.044-.649-4.088.045-2.044.045-4.089.218-2.046.218-4.091-.137-2.046-.137-4.092-.019-2.046-.019-4.091-.062-2.045-.062-4.09.6-2.046.6-4.091-.321-2.046-.321-4.092-.313-2.049-.313-4.1-1.523-3.012.006-4.376c1.7-1.513,2.52.385,4.792.407s2.276-.142,4.55-.12,2.749-1.3,4.35.319,0,2.076,0,4.349-.172,2.274-.172,4.548-1.245,2.942.25,4.655c1.3,1.495,2.108-.333,4.092-.333s2.111.994,4.051.562C767.956,497.837,768.407,496.5,769.822,497.894Z" fill="#4fb2ab"/>
          </g>
        </g>
      </g>
      <g id="그룹_314" data-name="그룹 314" transform="translate(707.417 -915.953)">
        <g id="그룹_309" data-name="그룹 309">
          <g id="그룹_308" data-name="그룹 308">
            <path id="패스_242" data-name="패스 242" d="M410.451,633.53c1.589-1.406,2.39.267,4.511.267s2.122.4,4.244.4,2.122.013,4.244.013,2.122-.538,4.244-.538,2.121.332,4.243.332,2.119-.491,4.238-.491,2.122.712,4.244.712,2.121-.632,4.241-.632,2.123.328,4.245.328,2.122-.25,4.243-.25,2.122.271,4.245.271,2.123-.537,4.246-.537,2.124.872,4.247.872,2.123-.037,4.247-.037,2.122-.3,4.245-.3,2.123-.383,4.246-.383,2.124.376,4.247.376,2.127-.549,4.254-.549,2.7,1.911,4.151.354c1.557-1.672-.046-2.189-.046-4.473s1.4-2.609-.162-4.279c-1.455-1.559-1.821-.29-3.954-.29s-2.132.434-4.264.434-2.132-.733-4.265-.733-2.132.711-4.264.711-2.132-.162-4.265-.162-2.129-.328-4.259-.328-2.132.114-4.265.114-2.131.218-4.262.218-2.133-.669-4.266-.669-2.132.191-4.263.191-2.133.516-4.266.516-2.134-.446-4.268-.446-2.133.126-4.267.126-2.134.366-4.268.366-2.133-.723-4.266-.723-2.133.543-4.267.543-2.134-.532-4.268-.532-2.137.367-4.275.367-2.644,1.389-4.243-.03c-1.418-1.258.36-1.86.36-3.756s-.032-1.9-.032-3.8-1.658-2.4-.239-3.664c1.6-1.419,2.015-.108,4.151-.108s2.136.2,4.273.2,2.136-.356,4.272-.356,2.136.418,4.273.418,2.136-.258,4.273-.258,2.137.108,4.274.108,2.136-.458,4.273-.458,2.136-.022,4.272-.022,2.134.761,4.268.761,2.137-.527,4.273-.527,2.136.428,4.271.428,2.137-.714,4.275-.714,2.136.656,4.272.656,2.137-.351,4.274-.351,2.138.525,4.276.525,2.138-.136,4.276-.136,2.138-.392,4.276-.392,2.138.16,4.275.16,2.138.319,4.276.319,2.138.021,4.277.021,2.141.046,4.283.046,2.586-1.78,4.122-.287c1.492,1.45-.2,1.914-.2,4s.184,2.082.184,4.164-.241,2.081-.241,4.163.22,2.082.22,4.164.542,2.081.542,4.162-.068,2.082-.068,4.163-.054,2.082-.054,4.164-.119,2.085-.119,4.171,1.672,3.009.171,4.457c-1.555,1.5-2.437-.058-4.6-.058s-2.165.235-4.329.235-2.733,1.042-4.043-.681c-1.723-2.267,1.285-3.1-.417-5.38-1.267-1.7-1.991-.449-4.113-.449s-2.121-.036-4.243-.036-2.122.649-4.244.649-2.122-.045-4.244-.045-2.121-.217-4.243-.217-2.119.136-4.239.136-2.121.019-4.243.019-2.121.062-4.241.062-2.123-.6-4.246-.6-2.121.321-4.242.321-2.123.313-4.245.313-2.123.118-4.246.118-2.124-.457-4.247-.457-2.123.164-4.247.164-2.122-.357-4.245-.357-2.123.077-4.246.077-2.124-.171-4.247-.171-2.127.209-4.254.209-2.808,1.739-4.4.333c-1.406-1.239.494-2.044.494-3.919a10.26,10.26,0,0,0-.328-3.758C410.2,635.465,409.045,634.774,410.451,633.53Zm-.412,20.675c1.492-1.455,2.366.254,4.45.254s2.083.4,4.166.4,2.085.013,4.169.013,2.083-.539,4.167-.539,2.084.333,4.168.333,2.083-.491,4.167-.491,2.085.712,4.169.712,2.084-.632,4.168-.632,2.084.328,4.167.328,2.082-.25,4.164-.25,2.083.271,4.167.271,2.083-.537,4.166-.537,2.085.872,4.17.872,2.083-.038,4.167-.038,2.084-.3,4.169-.3,2.085-.383,4.171-.383,2.085.376,4.17.376,2.086-.549,4.171-.549,2.085.309,4.17.309,2.085-.009,4.17-.009,2.086-.276,4.172-.276,2.089.426,4.178.426,2.982-1.768,4.481-.312c1.455,1.413-.6,2.34-.6,4.369s.71,2.032.71,4.064,1.218,2.825-.237,4.243c-1.492,1.455-2.259-.257-4.343-.257s-2.083.114-4.166.114-2.084.218-4.168.218-2.084-.669-4.167-.669-2.084.191-4.168.191-2.084.516-4.168.516-2.084-.446-4.169-.446-2.084.127-4.167.127-2.084.365-4.168.365-2.082-.723-4.163-.723-2.084.544-4.168.544-2.083-.533-4.166-.533-2.084.367-4.169.367-2.084-.042-4.167-.042-2.085-.343-4.169-.343-2.086.032-4.171.032-2.086.178-4.171.178-2.086.155-4.171.155-2.085-.2-4.17-.2-2.085.355-4.17.355-2.086-.418-4.171-.418-2.09.259-4.179.259-2.583,1.386-4.082-.07c-1.455-1.413-.416-1.93-.416-3.959s.477-2.009-.012-3.981C409.427,656.375,408.584,655.624,410.039,654.205Zm94.729,48.074c1.43,1.344-.241,2.257-.241,4.219s-.4,1.966-.4,3.932,1.525,2.3.1,3.659c-1.488,1.422-1.8.434-3.857.434s-2.058-.332-4.117-.332-2.059.49-4.117.49-2.06-.712-4.119-.712-2.059.633-4.117.633-2.059-.328-4.118-.328-2.056.25-4.112.25-2.059-.271-4.118-.271-2.058.537-4.115.537-2.06-.872-4.119-.872-2.059.037-4.117.037-2.059.3-4.119.3-2.06.383-4.12.383-2.061-.376-4.121-.376-2.06.549-4.12.549-2.06-.31-4.12-.31-2.06.009-4.12.009-2.06.277-4.121.277-2.063-.426-4.127-.426-2.064.435-4.128.435c-1.489,0-2.737-.973-3.976-1.5-1.259-.535-2.808-.786-3.81-1.864a11.261,11.261,0,0,1-2.271-4.33,17.04,17.04,0,0,1-.328-4.8c0-2.151-.114-2.151-.114-4.3s-.219-2.151-.219-4.3.67-2.151.67-4.3-.192-2.151-.192-4.3-.515-2.155-.515-4.31-1.166-2.715.4-4.2c1.649-1.563,2.166-.084,4.439-.084s2.274-.366,4.548-.366,2.639-.954,4.283.617c1.571,1.5.425,1.9.425,4.068s-.533,2.173-.533,4.345.367,2.173.367,4.346-.041,2.174-.041,4.347-.344,2.177-.344,4.354-1.373,3.03.132,4.6c1.441,1.505,2.343-.067,4.427-.067s2.083-.154,4.166-.154,2.084.2,4.168.2,2.084-.356,4.167-.356,2.083.418,4.167.418,2.081-.258,4.162-.258,2.083.108,4.167.108,2.082-.458,4.164-.458,2.084-.022,4.169-.022,2.083.761,4.166.761,2.084-.527,4.168-.527,2.085.428,4.17.428,2.085-.714,4.17-.714,2.084.656,4.169.656,2.085-.351,4.169-.351,2.085.525,4.17.525,2.085-.136,4.17-.136a11.79,11.79,0,0,0,4.155-.39C502.6,701.923,503.246,700.849,504.768,702.279Z" fill="#69a71b"/>
          </g>
        </g>
        <g id="그룹_311" data-name="그룹 311">
          <g id="그룹_310" data-name="그룹 310">
            <path id="패스_243" data-name="패스 243" d="M556.949,625.366c-1.448-1.325-.521-1.84-.521-3.8s-.06-1.966-.06-3.932-.8-2.408.629-3.762c1.5-1.425,1.909.133,3.979.133s2.067-.7,4.134-.7,2.069.243,4.139.243,2.068.578,4.137.578,2.07-.653,4.14-.653,2.07.291,4.139.291,2.07.065,4.14.065,2.071.077,4.142.077,2.071.265,4.142.265,2.071-.613,4.142-.613,2.071-.281,4.141-.281,2.071.892,4.141.892,2.072-.813,4.143-.813,2.075.555,4.149.555,2.768-1.763,4.275-.337c1.426,1.349-.088,2.1-.088,4.058s.3,1.966.3,3.931,1.346,2.873-.135,4.166c-1.694,1.481-2.454.213-4.7.213s-2.25-.61-4.5-.61-2.251.5-4.5.5-2.255-.373-4.509-.373-2.361-.7-4.4.26c-.96.451-.136.832-.136,1.891,0,1.564.4,3.014.512,4.4a35.977,35.977,0,0,0,.608,4.349,23.773,23.773,0,0,0,1.108,4.234,21.2,21.2,0,0,0,2.438,4.256,18,18,0,0,0,3.149,3.787,23.865,23.865,0,0,0,4.443,2.248,27.355,27.355,0,0,0,4.588,1.782c1.211.357,2.345,1.1,3.644,1.433,1.227.312,2.481.661,3.787.948,1.24.273,2.856.408,4.167.659.582,1.741-.092,1.949-.092,3.785s.149,1.836.149,3.672.01,1.84.01,3.679.346,2-.371,3.692a39.941,39.941,0,0,1-4.847-.862c-1.53-.251-3.092-.6-4.759-1.038-1.176-.309-2.485-.139-3.633-.526s-2.167-1.126-3.287-1.593-2.429-.527-3.517-1.071-1.781-1.74-2.8-2.356-2.369-.757-3.333-1.46-1.7-1.711-2.609-2.5a23.4,23.4,0,0,1-3.551-3.429,19.33,19.33,0,0,1-2.268-4.5,15.766,15.766,0,0,1-1.787,4.661c-.886,1.241-2.618,1.823-3.928,2.923-.934.784-1.858,1.535-2.88,2.241-1,.692-1.863,1.587-2.947,2.205-1.053.6-1.976,1.508-3.108,2.038-1.159.543-2.484.7-3.667,1.169s-2.216,1.415-3.43,1.8-2.542.445-3.781.754c-1.7.426-3.313.784-4.812,1.051a51.1,51.1,0,0,1-5.282.634c-.715-1.691.376-2,.359-3.837s-.451-1.833-.468-3.669.717-1.846.7-3.685-1.29-2.053-.723-3.8c1.288-.2,2.889-.528,4.111-.76,1.281-.243,2.59-.183,3.8-.465,1.271-.3,2.474-.726,3.665-1.066a25,25,0,0,0,4.541-2.01c1.508-.772,3.277-1.145,4.542-2.207a20.3,20.3,0,0,0,3.318-3.909c.933-1.325,1.29-3.042,1.974-4.668a22.142,22.142,0,0,0,1.722-4.108,37.249,37.249,0,0,0,.513-4.434c.121-1.4-.184-2.885-.184-4.457,0-1.059,1.458-1.994.509-2.464-1.918-.95-2.311.5-4.451.5s-2.14-.533-4.28-.533-2.139.367-4.279.367-2.141-.042-4.281-.042-2.257-.741-4.362-.336C558.875,625.523,558.53,626.814,556.949,625.366Zm92.088,77.062c1.44,1.4.524,1.887.524,3.894s.06,2.01.06,4.019.8,2.442-.632,3.854c-1.448,1.43-1.871-.136-3.907-.136s-2.035.7-4.071.7-2.035-.243-4.071-.243-2.036-.578-4.071-.578-2.035.654-4.071.654-2.033-.291-4.066-.291-2.035-.065-4.071-.065-2.034-.078-4.069-.078-2.036-.265-4.072-.265-2.035.613-4.07.613-2.036.281-4.072.281-2.037-.891-4.074-.891-2.037.813-4.074.813-2.037-.556-4.074-.556-2.036.387-4.072.387-2.037-.145-4.074-.145-2.037.3-4.074.3-2.04-.028-4.081-.028-2.04.135-4.081.135c-1.531,0-2.859-.858-4.111-1.379a9.819,9.819,0,0,1-3.766-2.084,11.28,11.28,0,0,1-2.024-4.419,16.24,16.24,0,0,1-.918-4.75c0-1.975.281-1.975.281-3.95s-.34-1.974-.34-3.948V690.33c0-1.975.153-1.975.153-3.95s-.1-1.978-.1-3.956-1.206-2.624.286-3.923c1.714-1.492,2.243-.485,4.516-.485s2.274-.005,4.548-.005,2.86-1.067,4.573.429c1.5,1.306-.038,2.013-.038,4s.369,1.985.369,3.97-.11,1.986-.11,3.971.149,1.986.149,3.972.01,1.989.01,3.978-1.811,2.572-.379,3.953c1.485,1.431,2.038.389,4.1.389s2.063.012,4.127.012,2.063-.538,4.126-.538,2.063.333,4.126.333,2.06-.491,4.121-.491,2.063.712,4.126.712,2.062-.632,4.124-.632,2.064.328,4.128.328,2.063-.251,4.125-.251,2.064.271,4.128.271,2.064-.536,4.129-.536,2.064.872,4.129.872,2.065-.038,4.129-.038,2.064-.3,4.128-.3,2.064-.383,4.129-.383,2.065.375,4.129.375a13.848,13.848,0,0,0,4.049-.54C647.03,701.451,647.553,700.988,649.037,702.428ZM661.762,633.3c1.546,1.278.514,1.879.514,3.885s.06,2.01.06,4.02.931,2.558-.617,3.84c-1.87,1.548-2.279-.122-4.706-.122s-2.428.7-4.857.7-2.887-1.83-4.756-.28c-1.551,1.287-.521,1.893-.521,3.907s.654,2.016.654,4.031-.291,2.016-.291,4.031-.065,2.016-.065,4.031-.078,2.015-.078,4.03-.264,2.015-.264,4.031.612,2.015.612,4.031.281,2.019.281,4.038.773,2.352-.736,3.693c-1.7,1.509-1.966.7-4.239.7s-2.274-.555-4.548-.555-2.974,1.855-4.671.341c-1.514-1.351.084-2.166.084-4.2s-.3-2.029-.3-4.057.029-2.029.029-4.057-.136-2.027-.136-4.053.61-2.028.61-4.057-.5-2.028-.5-4.055.373-2.029.373-4.059-.284-2.028-.284-4.056.281-2.029.281-4.059-.341-2.03-.341-4.06,0-2.03,0-4.06.152-2.03.152-4.06-.1-2.03-.1-4.059.3-2.03.3-4.06-.5-2.03-.5-4.06-.005-2.034-.005-4.068-1.083-2.738.432-4.094c1.694-1.516,2.3.041,4.57.041s2.275-.369,4.549-.369,3.029-1.355,4.713.174c1.529,1.387.23,2.246.23,4.31s.009,2.064.009,4.129-.368,2.065-.368,4.13-.4,2.069-.4,4.137-1.455,3.082.119,4.423c1.848,1.575,2.671-.448,5.1-.448s2.5.768,4.888.33C659.5,632.887,659.889,631.752,661.762,633.3Z" fill="#4fb2ab"/>
          </g>
        </g>
        <g id="그룹_313" data-name="그룹 313">
          <g id="그룹_312" data-name="그룹 312">
            <path id="패스_244" data-name="패스 244" d="M753.961,664.38a61.968,61.968,0,0,1-6.5-.171c-1.562-.14-3.114-.993-4.836-1.391-1.539-.356-3.089-.887-4.755-1.449-1.224-.414-2.69-.276-3.9-.838-1.169-.54-2.009-1.762-3.168-2.441-1.109-.649-2.489-.915-3.589-1.691a22.924,22.924,0,0,1-3.231-2.994,24.92,24.92,0,0,1-2.9-3.32,26.537,26.537,0,0,1-1.977-3.65,23.521,23.521,0,0,1-2.45,3.663,22.738,22.738,0,0,1-3.039,3.432,34.955,34.955,0,0,1-2.957,3.192,31.465,31.465,0,0,1-3.61,2.438,40.533,40.533,0,0,1-3.924,1.44c-1.282.57-2.358,1.6-3.673,2.022-1.244.4-2.565.329-3.729.628-1.272.328-2.424.861-3.6,1.069a55.519,55.519,0,0,1-6,1.054,38.561,38.561,0,0,1-3.864-.127,17.813,17.813,0,0,1-.307-4.3c0-2.142.011-2.142.011-4.284s-.77-2.466.051-4.445a53.278,53.278,0,0,0,5.572-.259,42.628,42.628,0,0,0,5.205-.525,27.413,27.413,0,0,0,4.463-1.754,24.5,24.5,0,0,0,4.33-2.083,22.371,22.371,0,0,0,3.36-3.263,23.738,23.738,0,0,0,2.6-3.836,20.764,20.764,0,0,0,1.62-3.087,24.75,24.75,0,0,0,1.406-3.246,31.757,31.757,0,0,0,.406-3.4c-2.156-.6-2.21-.3-4.449-.3s-2.239.115-4.478.115-2.239.2-4.478.2-2.24-.438-4.479-.438-2.244.073-4.487.073-2.627,1.526-4.316.049c-1.477-1.293-.266-1.768-.266-3.73s-.313-1.966-.313-3.932-1.063-2.627.415-3.924c1.683-1.477,2.233-.178,4.472-.178s2.239.337,4.478.337,2.239-.574,4.478-.574,2.24-.06,4.479-.06,2.244.7,4.487.7,3.13,1.579,4.7-.021c1.6-1.63-.617-2.5-.617-4.781s-1.364-3.111.292-4.684c1.744-1.657,2.515.534,4.92.534s2.406-.654,4.813-.654,3.029-1.381,4.774.276c1.657,1.573-.083,2.243-.083,4.528s-1.6,3.06-.022,4.707c1.521,1.583,2.339.326,4.535.326s2.194-.613,4.389-.613,2.2-.281,4.39-.281,2.2.892,4.391.892,2.2-.813,4.4-.813,2.622-.961,4.262.5c1.464,1.307.319,1.81.319,3.773s-.145,1.966-.145,3.931,1.637,2.848.192,4.181c-1.564,1.445-2.359.062-4.488.062s-2.129.136-4.257.136-2.129-.611-4.257-.611-2.13.505-4.259.505-2.133-.374-4.265-.374-2.173-.451-4.18.27a19.132,19.132,0,0,0,.684,4.019,29.174,29.174,0,0,0,4.478,7.258,22.288,22.288,0,0,0,3.06,2.995,26.565,26.565,0,0,0,3.47,2.121,28.965,28.965,0,0,0,3.591,1.966,36.81,36.81,0,0,0,4.041.726,40.152,40.152,0,0,0,3.985.756c1.315.185,2.648.758,4.057.837.657,2.013-.049,2.129-.049,4.246a21.185,21.185,0,0,0,.366,4.194C754.293,662.19,754.515,662.333,753.961,664.38Zm26.659-51.844c1.518,1.36.1,2.276.1,4.315s-.592,2.038-.592,4.076-.083,2.038-.083,4.077.673,2.038.673,4.076-.693,2.038-.693,4.076.526,2.036.526,4.072-.16,2.038-.16,4.076.2,2.037.2,4.074.106,2.039.106,4.078-.531,2.038-.531,4.075-.183,2.039-.183,4.078.441,2.039.441,4.079.022,2.04.022,4.079-.492,2.04-.492,4.079.577,2.039.577,4.079-.439,2.039-.439,4.078.275,2.04.275,4.08.327,2.043.327,4.086,1.331,2.826-.188,4.192c-1.69,1.52-2.368.342-4.64.342s-2.275-.011-4.549-.011-3.133,1.392-4.827-.126c-1.518-1.36.146-2.349.146-4.387s.388-2.038.388-4.076-.248-2.038-.248-4.077.3-2.038.3-4.076-.251-2.038-.251-4.076-.235-2.036-.235-4.072.066-2.038.066-4.076.341-2.037.341-4.074-.339-2.039-.339-4.078.3-2.038.3-4.075-.115-2.039-.115-4.078-.2-2.04-.2-4.079.438-2.04.438-4.079-.073-2.04-.073-4.08.016-2.039.016-4.078-.355-2.039-.355-4.078-.313-2.04-.313-4.08.418-2.043.418-4.086-1.643-2.848-.124-4.214c1.69-1.52,2.387.294,4.66.294a13.179,13.179,0,0,0,4.457-.564C778.233,611.808,778.926,611.018,780.62,612.536Z" fill="#905b9e"/>
          </g>
        </g>
      </g>
    </g>
    <g id="그룹_281" data-name="그룹 281" transform="translate(357.976 -82.857)">
      <g id="그룹_276" data-name="그룹 276">
        <g id="그룹_275" data-name="그룹 275">
          <path id="패스_228" data-name="패스 228" d="M381.4,340.85c-1.422-1.327-2.611-2.935-4.081-4.245s-3.043-2.478-4.57-3.7-3.271-2.158-4.892-3.232a44.908,44.908,0,0,0-5.1-2.813c-1.765-.866-3.25-2.443-5.13-2.995a31.573,31.573,0,0,0-5.984-.691,34.681,34.681,0,0,0-5.974-.113,38.673,38.673,0,0,0-5.789,1.435,30.936,30.936,0,0,0-5.493,1.825c-1.779.8-3.842,1.379-5.363,2.644.856,1.556,1.616,3.357,2.516,4.9s2.345,2.761,3.343,4.227a43.849,43.849,0,0,0,3.181,4.272,29.605,29.605,0,0,0,3.715,3.831,25.1,25.1,0,0,0,5.08,2.862,29.184,29.184,0,0,0,5.493,1.876c1.909.471,3.764,1.433,5.693,1.565,1.987.136,3.951-.671,5.845-.859a22.1,22.1,0,0,0,5.006-1.2c1.653-.564,3.587-.6,5.042-1.591a32.512,32.512,0,0,0,4.275-3.73,22.694,22.694,0,0,0,3.764-4.282" fill="#69a71b"/>
        </g>
      </g>
      <g id="그룹_278" data-name="그룹 278">
        <g id="그룹_277" data-name="그룹 277">
          <path id="패스_229" data-name="패스 229" d="M388.525,363.181c-1.127,2.276-3.061,2.529-5.159,1.1-2.411-1.645-.846-2.754-1.585-5.578s-1.015-2.753-1.755-5.579-.852-2.8-1.592-5.626-1.923-2.962-.627-5.582c1.127-2.276,2.425-2.913,4.524-1.481,2.411,1.644.654,2.846,1.392,5.669s1.222,2.7,1.961,5.526.109,2.974,1.444,5.574C388.594,360.056,389.821,360.561,388.525,363.181Z" fill="#427823"/>
        </g>
      </g>
      <g id="그룹_280" data-name="그룹 280">
        <g id="그룹_279" data-name="그룹 279">
          <path id="패스_230" data-name="패스 230" d="M378.1,343.137a32.345,32.345,0,0,1-1.136-5.841,37.193,37.193,0,0,1,.34-5.95,39,39,0,0,1,1.2-5.815,37.846,37.846,0,0,1,1.919-5.615,33.369,33.369,0,0,1,3-5.11,28.085,28.085,0,0,1,3.541-4.786,31.646,31.646,0,0,1,4.437-2.883,42.977,42.977,0,0,1,4.561-2.574c1.567-.792,3.032-1.792,4.657-2.471s3.366-1.65,5-2.282a22.143,22.143,0,0,1,1.837,4.916,24.337,24.337,0,0,1,.971,4.927c.1,1.663-.559,3.307-.745,4.962-.189,1.674.332,3.49-.107,5.074a33.416,33.416,0,0,1-2.4,5.269,34.157,34.157,0,0,1-2.608,5.159c-1.115,1.571-3.013,2.473-4.363,3.809-1.367,1.355-2.286,3.251-3.85,4.329-1.584,1.092-3.633,1.377-5.373,2.149s-3.352,2.071-5.217,2.486-3.851-.042-5.776-.027" fill="#427823"/>
        </g>
      </g>
    </g>
  </g>
</svg>
