<svg xmlns="http://www.w3.org/2000/svg" viewBox="0 0 512.16 470.57"><defs><style>.cls-1{fill:#6ab42d;}.cls-2{fill:#458a33;}.cls-3{fill:#1c1c1b;}.cls-4{fill:#fff;}.cls-5{fill:#ec6539;}.cls-6{fill:#a86fad;}.cls-7{fill:#5cbeb9;}.cls-8{fill:#f19da0;}</style></defs><g id="레이어_2" data-name="레이어 2"><g id="Layer_1" data-name="Layer 1"><path class="cls-1" d="M52.37,96.56c-1.42-1.33-2.61-2.93-4.08-4.24s-3-2.48-4.57-3.7-3.27-2.16-4.89-3.23a45.39,45.39,0,0,0-5.1-2.82c-1.76-.86-3.25-2.44-5.13-3a30.89,30.89,0,0,0-6-.69,34.14,34.14,0,0,0-6-.12,40.35,40.35,0,0,0-5.78,1.44A30.6,30.6,0,0,0,5.36,82c-1.78.79-3.84,1.37-5.36,2.64.86,1.56,1.62,3.36,2.52,4.9s2.34,2.76,3.34,4.23A43.81,43.81,0,0,0,9,98.08a29.88,29.88,0,0,0,3.71,3.83,25.38,25.38,0,0,0,5.08,2.86,29.75,29.75,0,0,0,5.5,1.88c1.91.47,3.76,1.43,5.69,1.56s3.95-.67,5.85-.86a22.33,22.33,0,0,0,5-1.19c1.65-.57,3.59-.6,5-1.59a33,33,0,0,0,4.28-3.73A23.15,23.15,0,0,0,53,96.55"/><path class="cls-2" d="M59.5,118.89c-1.13,2.28-3.06,2.53-5.16,1.1-2.41-1.65-.84-2.75-1.58-5.58s-1-2.75-1.76-5.58-.85-2.8-1.59-5.62-1.92-3-.63-5.59c1.13-2.27,2.43-2.91,4.53-1.48,2.41,1.65.65,2.85,1.39,5.67s1.22,2.7,2,5.53.11,3,1.44,5.57C59.57,115.77,60.8,116.27,59.5,118.89Z"/><path class="cls-2" d="M49.08,98.85A32.08,32.08,0,0,1,47.94,93a37.12,37.12,0,0,1,.34-6,39.8,39.8,0,0,1,1.2-5.82,37.83,37.83,0,0,1,1.92-5.61,32.63,32.63,0,0,1,3-5.11,28.42,28.42,0,0,1,3.54-4.79c1.29-1.22,3-1.91,4.44-2.88a43.44,43.44,0,0,1,4.56-2.58c1.57-.79,3-1.79,4.66-2.47s3.36-1.65,5-2.28a22.06,22.06,0,0,1,1.83,4.92,23.55,23.55,0,0,1,1,4.92c.11,1.67-.56,3.31-.74,5s.33,3.49-.11,5.07a33.41,33.41,0,0,1-2.4,5.27,35.09,35.09,0,0,1-2.6,5.16c-1.12,1.57-3,2.47-4.37,3.81S66.9,92.89,65.33,94,61.7,95.34,60,96.11s-3.35,2.08-5.22,2.49-3.85,0-5.77,0"/><path class="cls-3" d="M331.68,27.43c-1.27-3.77-2.42-7.35-4.78-10.49a37.62,37.62,0,0,0-8.28-8.38A38.84,38.84,0,0,0,308.05,2.9c-3.76-1.18-7.81-.42-12-.42s-8,0-11.72,1.2a38.09,38.09,0,0,0-10.67,5.11,60.67,60.67,0,0,0-5.27,4.09A38.09,38.09,0,0,0,259,6a39.62,39.62,0,0,0-11.29-4.15C243.8,1.12,239.51-.41,235.45.1s-8,2.36-11.74,4.09-5.93,5.52-8.81,8.15l-.85.78a71.19,71.19,0,0,0-6.51-4.65c-3.45-2.27-7.92-2.16-11.71-3.23S188.21,3,184.2,3.17A39.13,39.13,0,0,0,172.41,5.1a38.59,38.59,0,0,0-10.78,5.28c-3.12,2.35-4.75,6-7.09,9.38s-4.47,6.4-5.58,10.08a35.29,35.29,0,0,0-1.65,11.43,36.17,36.17,0,0,0,1.76,11.53,37,37,0,0,0,6,10.15c2.43,3,5.89,4.88,9.34,7.15s6.15,5.91,9.94,7,8.25,0,12.26-.17,8.13-.1,11.94-1.43,6.52-4.32,9.75-6.76c1.76-1.32,3.83-2.38,5.72-3.66a36,36,0,0,0,8.27,6.14,39.37,39.37,0,0,0,11.13,4.38,39.86,39.86,0,0,0,12.05.13c3.92-.49,7.33-2.45,11.09-4.18s8.37-2.14,11.24-4.77a11.25,11.25,0,0,0,1.39-1.54,23.19,23.19,0,0,0,4.18,3.92c3.25,2.29,7.35,2.8,11.25,4s7.38,3.62,11.54,3.61,8.16-1.32,11.92-2.51a41.93,41.93,0,0,0,19.38-13.53c2.35-3.15,5.6-6.26,6.86-10s1.21-8,1.2-12S332.9,31.08,331.68,27.43Z"/><path class="cls-3" d="M385.21,38.48a34.74,34.74,0,0,1-1.32,11,34.87,34.87,0,0,1-5,10,35.59,35.59,0,0,1-8.14,7.63c-3,2.2-5.69,5.53-9.34,6.71s-7.62.08-11.52.08a36,36,0,0,1-21.21-6.32c-3.07-2.23-6.54-4.32-8.77-7.38s-2-7.33-3.17-11-2.59-6.84-2.59-10.73a35,35,0,0,1,1.84-11c1.19-3.63,1.83-7.6,4-10.63A37.41,37.41,0,0,1,328.39,9c3-2.21,6.72-3.42,10.37-4.6s7.2-.7,11.11-.7,7.81-1.13,11.33,0,6.28,4.21,9.32,6.41a35,35,0,0,1,8.16,7.47,34.66,34.66,0,0,1,5,9.9A34.46,34.46,0,0,1,385.21,38.48Z"/><path class="cls-4" d="M179.41,26.13a21.91,21.91,0,0,0-4.29,4.36l-4.81-3.75a33,33,0,0,1,2.82-3.46,15.08,15.08,0,0,1,3.13-2.56A14.53,14.53,0,0,1,180,19.13a17.42,17.42,0,0,1,4.62-.55,15.93,15.93,0,0,1,5.25.82,11.32,11.32,0,0,1,4,2.38,10.77,10.77,0,0,1,2.58,3.66,11.82,11.82,0,0,1,.91,4.72,12.2,12.2,0,0,1-2.46,7.66,23.49,23.49,0,0,1-3.16,3.47q-1.91,1.77-4.45,3.86l-8,6.62h18.43v5.95h-28V52.38L183.09,41.1q2-1.65,3.38-3a18.85,18.85,0,0,0,2.24-2.56A9,9,0,0,0,190,33.17a7.66,7.66,0,0,0,.39-2.47,5.55,5.55,0,0,0-1.8-4.43,6.51,6.51,0,0,0-4.45-1.57A7.93,7.93,0,0,0,179.41,26.13Z"/><path class="cls-4" d="M257.7,46.17a19.79,19.79,0,0,1-3.44,6.37,16.07,16.07,0,0,1-5.34,4.27,16.13,16.13,0,0,1-13.86,0,16,16,0,0,1-5.31-4.24,19.51,19.51,0,0,1-3.41-6.34,25,25,0,0,1-1.19-7.78,24.6,24.6,0,0,1,1.22-7.8,19.88,19.88,0,0,1,3.43-6.37A16.4,16.4,0,0,1,235.14,20,16.24,16.24,0,0,1,249,20a16.18,16.18,0,0,1,5.31,4.25,19.39,19.39,0,0,1,3.4,6.34,24.6,24.6,0,0,1,1.19,7.77A24.6,24.6,0,0,1,257.7,46.17Zm-6.51-13.09a14.15,14.15,0,0,0-2-4.41,10.31,10.31,0,0,0-3.13-3,8.21,8.21,0,0,0-8.16,0,9.91,9.91,0,0,0-3.07,2.92,14.37,14.37,0,0,0-2,4.39,21.59,21.59,0,0,0,0,10.83,14.49,14.49,0,0,0,2,4.41,9.82,9.82,0,0,0,3.12,3,7.92,7.92,0,0,0,4.1,1.08,7.76,7.76,0,0,0,4.07-1.08,9.79,9.79,0,0,0,3.07-2.95,14.63,14.63,0,0,0,2-4.38,20.22,20.22,0,0,0,.69-5.38A20.48,20.48,0,0,0,251.19,33.08Z"/><path class="cls-4" d="M294.92,26.13a21.39,21.39,0,0,0-4.29,4.36l-4.82-3.75a33,33,0,0,1,2.82-3.46,15.34,15.34,0,0,1,3.13-2.56,14.68,14.68,0,0,1,3.71-1.59,17.53,17.53,0,0,1,4.62-.55,16,16,0,0,1,5.26.82,11.5,11.5,0,0,1,4,2.38A10.74,10.74,0,0,1,312,25.44a11.83,11.83,0,0,1,.92,4.72,13.14,13.14,0,0,1-.61,4.13,13.2,13.2,0,0,1-1.86,3.53,24,24,0,0,1-3.15,3.47q-1.9,1.77-4.46,3.86l-8,6.62h18.43v5.95h-28V52.38L298.6,41.1c1.32-1.1,2.45-2.1,3.37-3a18.85,18.85,0,0,0,2.24-2.56,9.08,9.08,0,0,0,1.25-2.37,7.66,7.66,0,0,0,.39-2.47,5.55,5.55,0,0,0-1.8-4.43,6.53,6.53,0,0,0-4.46-1.57A7.88,7.88,0,0,0,294.92,26.13Z"/><path class="cls-4" d="M349.35,18.85h4.76V57.72h-6.76v-32l-7,1.92-1.44-5.51Z"/><path class="cls-1" d="M458.59,354.32c1.7-.95,3.59-1.59,5.33-2.51s3.42-1.93,5.2-2.76,3.5-1.86,5.33-2.52a46.89,46.89,0,0,1,5.66-1.78c1.92-.43,4,.2,5.94.11a31.06,31.06,0,0,1,5.93-.14,34.73,34.73,0,0,1,5.78,1.47,39.84,39.84,0,0,1,5.72,1.87,32.33,32.33,0,0,1,5,3.16c1.55,1.2,2.48,2.89,3.66,4.48-1.2,1.31-2.46,2.38-3.7,3.66s-2.09,3-3.41,4.17a41.59,41.59,0,0,1-4.23,3.31,29.4,29.4,0,0,1-4.72,2.54,25.71,25.71,0,0,1-5.51,2,29.61,29.61,0,0,1-5.86.63c-2,0-3.85-.84-5.76-1.17s-4.05-.09-5.85-.72a23.14,23.14,0,0,1-4.86-2.2c-1.48-.94-2.32-2.7-3.49-4a30.93,30.93,0,0,1-3.53-4.33,21.58,21.58,0,0,1-2.09-5.15"/><path class="cls-2" d="M447.29,374.74c.56,2.48,1.82,3.43,4.19,2.53,2.74-1,1.3-2.66,2.69-5.23s1.13-2.7,2.52-5.27,1.29-2.63,2.67-5.2,4.27-2.17,3.63-5c-.56-2.48-2.53-3.21-4.9-2.31-2.73,1-1.47,2.52-2.85,5.09s-.95,2.81-2.34,5.38-1,2.92-2.82,5.2S446.65,371.88,447.29,374.74Z"/><path class="cls-2" d="M461.75,358a32,32,0,0,0,1.92-5.61,35.52,35.52,0,0,0,1.38-5.76,38.14,38.14,0,0,0,.41-5.93,37.25,37.25,0,0,0-.66-5.91,33.67,33.67,0,0,0-1.42-5.78,26.85,26.85,0,0,0-3-5.14,32.25,32.25,0,0,0-2.85-4.46,42.92,42.92,0,0,0-3.79-3.72c-1.34-1.14-2.94-2-4.35-3s-2.85-1.7-4.29-2.71a18.52,18.52,0,0,0-2.94,3.73,24.09,24.09,0,0,0-1.79,4.64c-.5,1.59-1.44,3.12-1.65,4.77s.57,3.39.62,5a33.61,33.61,0,0,0,.28,5.7,32.63,32.63,0,0,0,2,5.34c.71,1.79.8,3.9,1.8,5.51s2.85,2.66,4.12,4.08,2.16,3.29,3.67,4.46,3.52,1.57,5.23,2.41,3.26,2.15,5.13,2.62"/><path class="cls-5" d="M113.49,113.15c-1.49,1.43-.28,2.08-.28,4.14s.18,2.07.18,4.13,0,2.07,0,4.13-.24,2.07-.24,4.14,2.08,3,.62,4.44-2.39,0-4.47,0-2.09-.12-4.17-.12-2.09-.54-4.18-.54-2.78-1.19-4.33.21c-1.4,1.26,0,2.05,0,3.94s.45,1.89.45,3.79-1.63,2.4-.23,3.67c1.55,1.4,2-.1,4.07-.1s2.09,0,4.17,0,2.09.39,4.18.39,2.46-1.44,3.93,0,.08,1.88.08,4-.17,2.11-.17,4.23.77,2.12.77,4.24-.56,2.12-.56,4.24.05,2.11.05,4.23.47,2.12.47,4.24,0,2.12,0,4.24-.76,2.12-.76,4.24-1.2,2.76.31,4.26,2.14.19,4.28.19,2.13.24,4.27.24,2.9,1.21,4.43-.27,0-2.24,0-4.3-.3-2.06-.3-4.12.43-2.07.43-4.13-.14-2.06-.14-4.12.27-2.06.27-4.12-.2-2.07-.2-4.13-.56-2.06-.56-4.12-.13-2.06-.13-4.13.32-2.06.32-4.12-.31-2.07-.31-4.13.18-2.06.18-4.13.7-2.06.7-4.13-.29-2.06-.29-4.12.12-2.07.12-4.13-.73-2.06-.73-4.13.9-2.06.9-4.13,1-2.64-.5-4.08-2.07.15-4.21.15-2.26.61-4.35.16S115,111.66,113.49,113.15Z"/><path class="cls-5" d="M83.89,119.23c-1-.86-2.49-1-3.54-1.7s-1.81-1.88-2.95-2.47a30.46,30.46,0,0,0-3.65-1.16,31.45,31.45,0,0,0-3.62-1.61,31.78,31.78,0,0,0-3.92-.46,32.23,32.23,0,0,0-3.92-.59v.57a36.48,36.48,0,0,0-4,0,32,32,0,0,0-3.93.9,29.51,29.51,0,0,0-3.83,1.24A32,32,0,0,0,47.32,116,31.68,31.68,0,0,0,44,117.74a32.24,32.24,0,0,0-3.23,2.06,29.23,29.23,0,0,0-2.28,3,27.47,27.47,0,0,0-2.19,3,30.09,30.09,0,0,0-1.39,3.46c-.53,1.19-1.5,2.23-1.85,3.5a27.61,27.61,0,0,0-.92,3.87,32.13,32.13,0,0,0-.25,4,29.39,29.39,0,0,0,.54,4,26.69,26.69,0,0,0,1,3.92,25.64,25.64,0,0,0,1.16,3.89,30.88,30.88,0,0,0,2,3.28,32.74,32.74,0,0,0,2.24,3.08,30.33,30.33,0,0,0,2.44,3c.92.86,2.36,1.08,3.38,1.81a28.45,28.45,0,0,0,3.09,2.1A30.86,30.86,0,0,0,51,167.37c1.2.47,2.28,1.39,3.53,1.71a34.62,34.62,0,0,0,7.76.72,33.59,33.59,0,0,0,4-.69,32.58,32.58,0,0,0,4-.55,37.39,37.39,0,0,0,7.3-2.91,30.17,30.17,0,0,0,3.47-1.7,30.12,30.12,0,0,0,3.1-2.36,27.69,27.69,0,0,0,2.49-2.91,30,30,0,0,0,2.36-3c.66-1.07.58-2.54,1.11-3.7s1.52-2.22,1.88-3.49a27.58,27.58,0,0,0,.76-3.89,31.38,31.38,0,0,0-.22-3.95,30.91,30.91,0,0,0-.29-4c-.19-1.39.27-2.87-.11-4.16a25.42,25.42,0,0,0-1.74-3.74,32.24,32.24,0,0,0-1.71-3.43A30,30,0,0,0,86.57,122,28.39,28.39,0,0,0,83.89,119.23Zm-21.58,38c-1.15,0-2.37.68-3.47.44s-2-1.17-3.06-1.62a20.16,20.16,0,0,1-3.1-1.21,18.21,18.21,0,0,1-2.25-2.46A17.21,17.21,0,0,1,48.18,150a17.88,17.88,0,0,1-1.27-3c-.46-1-1.34-1.89-1.56-3a17.39,17.39,0,0,1,0-3.38,16.23,16.23,0,0,1,.26-3.42A16.9,16.9,0,0,1,46.76,134,22.15,22.15,0,0,1,48,130.69a19.72,19.72,0,0,1,2.39-2.53,20.21,20.21,0,0,1,2.83-1.84,19.55,19.55,0,0,1,2.69-2,14.94,14.94,0,0,1,3.13-1,14.37,14.37,0,0,1,3.27-.76c1.18,0,2.27.68,3.37.93a13.68,13.68,0,0,1,3.13,1.26,17.9,17.9,0,0,1,2.84,1.75,18.45,18.45,0,0,1,2.68,2,19.27,19.27,0,0,1,2.16,2.62,18.48,18.48,0,0,1,1.29,3.14,19.18,19.18,0,0,1,1.12,3.09,15.84,15.84,0,0,1,.38,3.26,16.38,16.38,0,0,1-.58,3.37c-.24,1.14.1,2.47-.37,3.52a19.92,19.92,0,0,1-1.79,2.86,19.12,19.12,0,0,1-2.24,2.51c-.77.77-2,1-2.86,1.64a15.66,15.66,0,0,1-2.77,1.64,16.35,16.35,0,0,1-3.09,1.06A16.82,16.82,0,0,1,62.31,157.2Z"/><path class="cls-6" d="M167.08,171.43c-1.41,0-2.73.26-3.89.18-1.47-.1-2.66-.94-3.74-1.16-1.95-.39-3.62-.8-4.77-1.95s-1.54-2.82-1.93-4.77c-.22-1.08-1.07-2.26-1.17-3.72-.08-1.17.11-2.48.11-3.89,0-2.05-.33-2.05-.33-4.1s.8-2.05.8-4.11-.8-2-.8-4.1.69-2.05.69-4.11-1.85-2.83-.39-4.28,2.22.63,4.28.63,2.05-.62,4.1-.62,2.06.19,4.12.19,2.05-.41,4.11-.41,2-.08,4.11-.08,2.06.77,4.11.77,2.06-.19,4.12-.19,2,.2,4.11.2,2.06-.14,4.12-.14,2.06-.31,4.11-.31,2.06.16,4.12.16,2.05,0,4.11,0,2.06.06,4.12.06,2.06-.56,4.12-.56,3.09,2.26,4.42.68c1.6-1.9-.3-2.73-.27-5.22s1.49-2.89-.08-4.81c-1.3-1.6-1.87.11-3.94.11s-2.05.09-4.11.09-2.06-.27-4.12-.27-2.06-.28-4.12-.28-2.06,0-4.13,0-2.06.3-4.12.3-2.06.11-4.12.11-2.06.28-4.12.28-2.07-.39-4.13-.39-2.06-.29-4.12-.29-2.06.38-4.12.38-2.07-.56-4.13-.56-2.06.13-4.12.13-2.07.35-4.14.35-2.76,1.48-4.22,0,.51-2.17.51-4.24-.6-2.08-.6-4.15-1.61-3-.13-4.47,2.41.17,4.5.17,2.09-.23,4.18-.23,2.1,0,4.19,0,2.09.39,4.18.39,2.09-.12,4.18-.12,2.1.34,4.19.34,2.09-.25,4.18-.25,2.09-.31,4.19-.31,2.09.35,4.18.35,2.1-.22,4.19-.22,2.09.41,4.19.41h8.37c2.1,0,2.1-.36,4.19-.36s2.09-.19,4.19-.19,2.09.17,4.19.17,2.09.09,4.19.09,2.92-1.65,4.37-.14-.49,2.34-.49,4.52-.14,2.18-.14,4.35.87,2.18.87,4.35-.59,2.18-.59,4.36.43,2.17.43,4.35-.46,2.17-.46,4.35.23,2.18.23,4.36,1.22,2.54-.27,4.13-1.79.47-3.82.47-2-.37-4.07-.37-2,.09-4.06.09-2-.06-4.07-.06-2,.48-4.07.48-2-.31-4.07-.31-2-.48-4.07-.48-2,.34-4.07.34-2,0-4.07,0-2,.37-4.07.37-2-.55-4.07-.55-2-.13-4.07-.13h-4.08c-2,0-2,.28-4.07.28s-2.64-1.29-4.1.13-.28,2-.28,4,.18,2,.18,4a12.57,12.57,0,0,0,.24,2.77,1.61,1.61,0,0,0,1.6,1.08c2.12,0,2.12-.75,4.23-.75s2.12.15,4.24.15,2.12.12,4.23.12,2.12.54,4.24.54,2.12-.15,4.24-.15,2.11-.1,4.23-.1,2.12-.45,4.24-.45,2.12.17,4.24.17,2.12,0,4.24,0h4.24c2.12,0,2.12.39,4.23.39s2.12.15,4.24.15,2.13-.18,4.25-.18,2.46-1.37,4,.07.66,1.72.66,3.69-.56,2-.56,3.93,1.52,2.54.07,3.87-2.09.46-4.23.46-2.15,0-4.29,0-2.15-.75-4.29-.75-2.15.3-4.29.3-2.15-.18-4.29-.18-2.15-.24-4.29-.24-2.15.2-4.3.2-2.14.06-4.29.06-2.15.29-4.3.29-2.14-.42-4.29-.42-2.15.14-4.29.14-2.15-.27-4.3-.27-2.15.17-4.3.2S169.23,171.43,167.08,171.43Zm85.85,31.92c1.43,1.34.33,2,.33,4s-.69,2-.69,3.93,1.8,2.64.37,4-2.12-.4-4.19-.4-2.06.69-4.13.69-2.06-.23-4.13-.23-2.06.33-4.13.33-2.06-.79-4.13-.79-2.06.8-4.13.8S226,215,224,215s-2.06.47-4.12.47-2.07-.7-4.13-.7-2.06.62-4.13.62-2.06-.19-4.13-.19-2.06.42-4.13.42-2.06.07-4.13.07-2.07-.76-4.13-.76-2.07.18-4.13.18-2.07-.2-4.14-.2-2.06.14-4.13.14-2.06.31-4.13.31-2.07-.16-4.13-.16-2.07,0-4.14,0-2.07-.06-4.14-.06c-1.77,0-3.53.4-5.12.09s-2.7-1.64-3.93-2.49a8.6,8.6,0,0,1-3.24-3.21,13.62,13.62,0,0,1-1.33-6c0-2.16,0-2.16,0-4.32s-.08-2.16-.08-4.32.27-2.17.27-4.33.27-2.16.27-4.32.05-2.17.05-4.34-1.84-2.86-.29-4.37,2.28-.13,4.5-.13,2.24-.28,4.47-.28,2.93-1.17,4.5.41-.27,2.28-.27,4.52.38,2.23.38,4.47-.56,2.24-.56,4.47.13,2.24.13,4.49.35,2.24.35,4.48a3.59,3.59,0,0,0,.81,2.75,3.86,3.86,0,0,0,2.69,1.24c2.08,0,2.08-.6,4.16-.6s2.08-.27,4.16-.27,2.08.31,4.15.31,2.08-.24,4.16-.24,2.08,0,4.16,0,2.08.39,4.16.39,2.07-.13,4.15-.13,2.08.35,4.16.35,2.07-.26,4.15-.26,2.08-.3,4.16-.3,2.08.35,4.16.35,2.08-.22,4.15-.22,2.08.41,4.16.41h8.33c2.08,0,2.08-.36,4.15-.36s2.08-.19,4.16-.19,2.08.17,4.17.17,2.12.53,4.16.09S251.42,201.92,252.93,203.35Zm0-15.78c-1.8,1.56-2.43.32-4.82.32s-2.38-.69-4.76-.69-3,1.94-4.83.38c-1.56-1.35.39-2.13.39-4.2s-.7-2.06-.7-4.12.24-2.07.24-4.13-.34-2.06-.34-4.13.8-2.06.8-4.12-.8-2.06-.8-4.12.69-2.06.69-4.13-.46-2.06-.46-4.12.69-2.07.69-4.13-.61-2.06-.61-4.13.19-2.06.19-4.13-.42-2.06-.42-4.13-.07-2.06-.07-4.12.76-2.07.76-4.13-.19-2.07-.19-4.13.2-2.07.2-4.13-.13-2.07-.13-4.14-1.83-2.88-.27-4.23c1.8-1.57,2.47.13,4.85.13s2.39,0,4.77,0,2.88-1.54,4.69,0c1.56,1.35.51,2,.51,4s-.82,2.07-.82,4.13.43,2.06.43,4.13.2,2.06.2,4.12,0,2.06,0,4.12.08,2.07.08,4.13S253,140,253,142.08s-.28,2.07-.28,4.13-.05,2.06-.05,4.13.31,2.06.31,4.12.1,2.07.1,4.13.28,2.07.28,4.13-.39,2.07-.39,4.13-.29,2.06-.29,4.13.39,2.06.39,4.13-.56,2.06-.56,4.13-.34,2.18.13,4.2C253.12,185.64,254.49,186.21,252.93,187.57Z"/><path class="cls-7" d="M309.7,110.83a36.43,36.43,0,0,1,4.25.77c1.42.18,3-.39,4.39,0s2.58,1.38,3.94,1.89,2.93.51,4.18,1.16A36.13,36.13,0,0,1,330,117a34.71,34.71,0,0,1,3.48,2.53,31.26,31.26,0,0,1,2.66,3.39,33.2,33.2,0,0,1,2.79,3.25,33.77,33.77,0,0,1,1.77,3.9,28,28,0,0,1,1.83,4.11,30.6,30.6,0,0,1,1,4.41,33.22,33.22,0,0,1,.34,4.51,30.71,30.71,0,0,1-.52,4.32,29.63,29.63,0,0,1-.93,4.22,29.3,29.3,0,0,1-1.63,4,33.43,33.43,0,0,1-2.12,3.63A33.93,33.93,0,0,1,336.5,163a32.56,32.56,0,0,1-2.9,3.1,28.3,28.3,0,0,1-6.9,5.12,36.08,36.08,0,0,1-4,1.64,37.91,37.91,0,0,1-8.62,1.89,37.81,37.81,0,0,1-4.4.58,35.63,35.63,0,0,1-4.28-.29,35.09,35.09,0,0,1-4.21-.79,50.94,50.94,0,0,1-11.48-5.12,32.92,32.92,0,0,1-3.23-2.67,33.87,33.87,0,0,1-3-3,34.47,34.47,0,0,1-2.15-3.64,37.25,37.25,0,0,1-2.25-3.58c-.62-1.34-.49-3-.9-4.4a30.11,30.11,0,0,1-1.28-4.24,35,35,0,0,1,.14-4.43c0-1.48-.6-3-.43-4.36a30.92,30.92,0,0,1,1.06-4.24,30.56,30.56,0,0,1,1.13-4.23c.56-1.27,1.89-2.13,2.59-3.3s.82-2.76,1.67-3.84,2.29-1.62,3.28-2.58a32.14,32.14,0,0,1,2.88-3.06c1.11-.82,2.65-1,3.88-1.66s2.17-1.81,3.48-2.35a38,38,0,0,1,4.3-1.24,38.35,38.35,0,0,1,4.31-1.3A44.31,44.31,0,0,1,309.7,110.83Zm0,51.79a19.27,19.27,0,0,0,3.86.12c1.24-.25,2.19-1.43,3.38-1.94s2.58-.53,3.62-1.22,1.62-2,2.53-2.86A19,19,0,0,0,325.7,154a19.83,19.83,0,0,0,1.69-3.35,18.49,18.49,0,0,0,1.66-3.59,20.69,20.69,0,0,0,.09-4,18.76,18.76,0,0,0-.05-3.82,21.83,21.83,0,0,0-1.36-3.58,22,22,0,0,0-10.28-11.54,16.66,16.66,0,0,0-3.73-1.53,17.37,17.37,0,0,0-4-.62,16.5,16.5,0,0,0-3.79.85,16.9,16.9,0,0,0-3.57,1.36,23,23,0,0,0-3.27,2.18,23.2,23.2,0,0,0-2.92,2.62,22.76,22.76,0,0,0-2.66,3,23.54,23.54,0,0,0-2.09,3.44A20.08,20.08,0,0,0,290,139.2a18.5,18.5,0,0,0-.11,3.94,18.67,18.67,0,0,0,.36,3.84,17.52,17.52,0,0,0,1.2,3.67,20.78,20.78,0,0,0,1.9,3.28,19.78,19.78,0,0,0,2.42,2.91,33.55,33.55,0,0,0,6.44,4,19.59,19.59,0,0,0,3.69,1A20.86,20.86,0,0,0,309.7,162.62Zm64.58-49.11c1.54,1.39-.47,2.16-.47,4.23s.84,2.07.84,4.14S374,124,374,126s.64,2.07.64,4.14-.27,2.07-.27,4.14.16,2.07.16,4.13-.49,2.07-.49,4.14.3,2.07.3,4.14-.35,2.07-.35,4.14.24,2.07.24,4.14,0,2.07,0,4.14,0,2.07,0,4.14-.22,2.07-.22,4.14,0,2.07,0,4.14-.13,2.07-.13,4.14-.14,2.08-.14,4.15.39,2.07.39,4.14,0,2.07,0,4.15,1.61,2.83.08,4.23-2.35,0-4.63,0-2.27-.21-4.54-.21-2.71,1.43-4.39-.1.21-1.89.21-4-.33-2.07-.33-4.14,0-2.07,0-4.14,0-2.07,0-4.14,0-2.07,0-4.14,0-2.07,0-4.13-.28-2.07-.28-4.14,0-2.07,0-4.14-.2-2.07-.2-4.14.34-2.07.34-4.14-.3-2.07-.3-4.14.69-2.07.69-4.14-.4-2.07-.4-4.14.42-2.07.42-4.14-.69-2.07-.69-4.14.23-2.07.23-4.15-.33-2.07-.33-4.14.79-2.07.79-4.15-2.18-3.09-.65-4.49,2.59.57,4.86.57a14.19,14.19,0,0,0,4.5-.46C372,112.85,372.6,112,374.28,113.51Z"/><path class="cls-8" d="M461.34,160.74c-1.49,1.45-2.06-.34-4.14-.34s-2.07.29-4.15.29-2.07-.39-4.15-.39-2.07.22-4.15.22-2.07.64-4.15.64-2.08-.73-4.15-.73-2.08.6-4.16.6-2.07-.72-4.15-.72-2.08.47-4.15.47-2.08.4-4.16.4-2.07-.6-4.15-.6-2.08.39-4.15.39-2.08-.21-4.16-.21-2.09-.26-4.17-.26a5.69,5.69,0,0,1-4.51-1.72c-1.24-1.32-1.65-3.15-1.65-5.44,0-2-.53-2-.53-4s.7-2,.7-4-.39-2-.39-4,.14-2,.14-4,.28-2,.28-4-.07-2-.07-4,0-2,0-4-.13-2-.13-4-.35-2-.35-4-1.34-2.69.16-4c1.71-1.5,2.29-.16,4.56-.16s2.28,0,4.55,0,2.64-1.18,4.28.4.72,1.92.72,4.12-.64,2.2-.64,4.41.64,2.2.64,4.4-.26,2.2-.26,4.4.16,2.2.16,4.4-.49,2.2-.49,4.4.3,2.21.3,4.41-1.82,3-.3,4.54,2.26-.17,4.37-.17,2.12,0,4.24,0,2.12,0,4.23,0,2.12.23,4.24.23,2.12,0,4.24,0,2.12.13,4.24.13,2.12.15,4.23.15,2.12-.4,4.24-.4l4.24,0c2.12,0,2.12-.12,4.24-.12s2.12,0,4.24,0,2.66-1.27,4.2.18-.19,2-.19,4-.54,2.13-.12,4.09S462.78,159.34,461.34,160.74Zm-51.12,54.43a9.94,9.94,0,0,1-4-1.11,9.47,9.47,0,0,1-3.53-2.22,10.78,10.78,0,0,1-1.94-4.24,14.81,14.81,0,0,1-.85-4.59c0-2.25-.64-2.25-.64-4.5s.72-2.25.72-4.5-.59-2.26-.59-4.51-.93-2.55.59-4.21,1.75-.33,3.83-.33,2.07-.39,4.15-.39,2.08.6,4.15.6,2.07-.39,4.15-.39,2.07.21,4.15.21,2.07.25,4.15.25,2.07-.27,4.15-.27,2.07.22,4.15.22,2.07-.54,4.15-.54,2.08.71,4.15.71,2.08-.39,4.16-.39,2.07.13,4.15.13,2.08.28,4.15.28,2.08-.06,4.16-.06,2.07,0,4.15,0,2.08-.13,4.16-.13,2.42,1,4.05-.32c1.3-1,.09-1.51.09-3.17s1.22-2.15-.08-3.17c-1.66-1.31-2,0-4.12,0s-2.11-.52-4.22-.52-2.11.84-4.22.84-2.11-.63-4.22-.63-2.11.64-4.22.64-2.11-.27-4.22-.27-2.11.16-4.22.16-2.11-.49-4.22-.49-2.11.3-4.22.3-2.11-.35-4.22-.35-2.12.24-4.23.24-2.11,0-4.22,0-2.11,0-4.22,0-2.12-.22-4.23-.22-2.11,0-4.22,0-2.12-.13-4.23-.13-2.39,1.41-3.95,0-.25-1.65-.25-3.61,0-2,0-3.94-1.53-2.68-.08-4,2.21-.05,4.34-.05,2.14.21,4.27.21,2.14.16,4.27.16,2.14.13,4.27.13,2.14-.32,4.27-.32,2.14,0,4.27,0h4.27c2.13,0,2.13,0,4.27,0s2.13,0,4.27,0,2.13-.28,4.27-.28,2.13,0,4.27,0,2.13-.21,4.27-.21,2.13.35,4.27.35,2.14-.3,4.27-.3,2.14.68,4.28.68,2.13-.4,4.27-.4,2.13.43,4.27.43,2.14-.7,4.27-.7,2.14.23,4.28.23,3.1-1.71,4.61-.19-.66,2.46-.66,4.6.8,2.13.8,4.27-.69,2.14-.69,4.27.46,2.14.46,4.28-.69,2.13-.69,4.27.61,2.14.61,4.28,1.31,2.73-.18,4.26-2.06.41-4.14.41-2.07.07-4.15.07-2.08-.76-4.16-.76-2.08.19-4.16.19-2.07-.2-4.15-.2-2.08.13-4.16.13-2.08.32-4.16.32-2.08-.17-4.16-.17-2.08,0-4.16,0-2.08-.06-4.16-.06-2.08.56-4.16.56-2.08-.83-4.16-.83-2.08.44-4.16.44-2.08.19-4.16.19-2.08,0-4.17,0-2.08.09-4.16.09-2.51-1.62-4.12-.29c-1.33,1.1-.25,1.66-.25,3.38s-1.29,2.55.05,3.63c1.67,1.34,2.29-.25,4.43-.25s2.14-.11,4.28-.11,2.15-.28,4.29-.28,2.14.39,4.28.39,2.14.29,4.28.29,2.14-.38,4.28-.38,2.14.56,4.28.56,2.15-.13,4.29-.13,2.14-.35,4.28-.35,2.14-.06,4.29-.06,2.14.55,4.28.55,2.15-.6,4.29-.6,2.14-.27,4.28-.27,2.15.31,4.29.31,2.14-.24,4.29-.24,2.14,0,4.29,0,2.67-1.07,4.26.38.1,1.92.1,3.88-.34,2-.34,3.93,1.7,2.57.26,3.92-2.09.3-4.19.3-2.11-.35-4.21-.35-2.1.22-4.21.22-2.1-.42-4.2-.42h-8.41c-2.11,0-2.11.35-4.21.35s-2.1.2-4.21.2-2.1-.17-4.2-.17-2.11-.09-4.21-.09-2.11.22-4.21.22-2.11-.56-4.21-.56-2.11-.15-4.21-.15-2.11.87-4.21.87S425,215,422.87,215s-2.11.44-4.21.44-2.11-.46-4.22-.47S412.33,215.17,410.22,215.17ZM471,113.35c1.69-1.52,2.26.34,4.53.34s2.28-.28,4.55-.28,2.53-1.2,4.25.28c1.48,1.27.06,1.6.06,3.55s.64,2,.64,3.91-.73,1.95-.73,3.91-.85,2.32.52,3.72,1.73.63,3.65.63,1.92-.47,3.83-.47,1.93-.4,3.85-.4,2.39-.84,3.71.55.35,1.88.35,3.89-.21,2-.21,4,1.2,2.39-.19,3.85-1.74.19-3.65.19-1.92-.21-3.84-.21-1.92.53-3.85.53-2.83-2-4.11-.58c-1.43,1.59.3,2.38.3,4.53s-.14,2.14-.14,4.29-.28,2.14-.28,4.28.06,2.15.06,4.3,1.68,2.6.12,4.07-2.06.05-4.34.05-2.27.36-4.54.36-2.88,1.35-4.57-.17c-1.52-1.36-.16-2.06-.16-4.1s.05-2,.05-4.1.52-2,.52-4.09-.84-2-.84-4.09.63-2.05.63-4.1-.64-2-.64-4.09.27-2,.27-4.09-.16-2.05-.16-4.1.48-2,.48-4.09-.29-2-.29-4.1.78-2.14.34-4.14C470.72,115.25,469.51,114.73,471,113.35Z"/><path class="cls-8" d="M150.07,301.68c1.45,1.56,2.33-.39,4.46-.39s2.14.23,4.27.23,2.13.25,4.27.25,2.13-.48,4.26-.48,2.13-.12,4.27-.12,2.13.5,4.26.5,2.14-.51,4.27-.51,2.14-.1,4.27-.1,2.43-.71,4,.74.73,1.66.73,3.62,0,2,0,3.93,1.25,2.88-.19,4.22-2.38-.12-4.48-.12-2.1-.37-4.21-.37-2.1-.26-4.21-.26-2.1.63-4.2.63-2.11-.52-4.21-.52-2.11.19-4.21.19-2.1.61-4.21.61-2.1-.7-4.21-.7-2.1-.17-4.2-.17-2.11.52-4.21.52-2.1-.32-4.21-.32-2.1.06-4.2.06-2.11.36-4.21.36h-4.21c-2.1,0-2.1-.12-4.21-.12s-2.1.18-4.21.18-2.11,0-4.21,0-2.11.17-4.21.17-2.11-.75-4.21-.75-2.11.78-4.21.78-2.11-.71-4.21-.71-2.11.71-4.22.71-2.66,1-4.21-.45-.29-1.95-.29-3.91.14-2,.14-3.93-1.08-2.34.39-3.66c1.63-1.46,1.94-.59,4.13-.59s2.19-.13,4.38-.13,2.19.66,4.38.66,2.19.09,4.38.09,2.2-.26,4.39-.26,2.19-.38,4.38-.38,2.19.65,4.38.65,2.19-.21,4.39-.21,2.19-.21,4.39-.21,2.89,1.71,4.41.13.35-2.32.35-4.62-.43-2.3-.43-4.6.43-2.31.43-4.61,1.23-2.95-.29-4.68c-1.34-1.52-2.11,0-4.13,0s-2,.37-4.05.37-2-.19-4-.19-2,.12-4,.12-2-.37-4.05-.37-2-.06-4-.06-2,.63-4.06.63c-1.39,0-2.65-.76-3.8-.82-1.47-.08-2.82.54-3.88.37a9.06,9.06,0,0,1-4.48-2.17,6.71,6.71,0,0,1-1.87-4,20.52,20.52,0,0,1-.88-3.21c-.06-1,.14-2.11.14-3.31,0-2.08.15-2.08.15-4.17s.2-2.08.2-4.16.2-2.08.2-4.17,0-2.08,0-4.16.09-2.09.09-4.17-.09-2.09-.09-4.17-2.06-3-.58-4.43,2.34.63,4.42.63S99,241,101.12,241s2.08-.08,4.17-.08,2.08.76,4.16.76h4.17c2.09,0,2.09-.54,4.17-.54s2.08.31,4.17.31,2.08-.43,4.17-.43,2.08.32,4.16.32,2.09-.29,4.17-.29,2.08.35,4.17.35,2.08-.14,4.16-.14,2.09.34,4.17.34,2.08-.29,4.17-.29,2.08.39,4.17.39,2.08-.22,4.17-.22,2.08-.64,4.17-.64,2.08.73,4.17.73,2.08-.6,4.17-.6,2.08.71,4.17.71,2.09-.47,4.17-.47,2.09-.39,4.18-.39,2.53-.88,4.06.55.33,1.84.33,3.8-.21,2-.21,3.93,1.24,2.39-.18,3.75-1.88.2-3.93.2-2.06-.21-4.11-.21-2.06.53-4.11.53-2.06-.71-4.12-.71-2,.4-4.11.4-2.05-.14-4.11-.14-2-.28-4.1-.28-2.06.07-4.11.07-2.06,0-4.11,0-2.06.13-4.12.13-2,.35-4.11.35-2.05-.16-4.11-.16-2.06.15-4.11.15-2.06,0-4.12,0-2.05-.52-4.11-.52-2.06.84-4.11.84-2.06-.63-4.12-.63-2,.64-4.11.64-2.06-.27-4.12-.27-2.39-1.35-3.88.06-.38,1.7-.38,3.65.3,1.95.3,3.9-.35,1.95-.35,3.91.23,1.95.23,3.9a4.38,4.38,0,0,0,.35,2c.22.4,1,.53,2.39.53,2.09,0,2.09.22,4.18.22s2.09,0,4.18,0,2.09.13,4.18.13,2.09.14,4.18.14,2.09-.39,4.18-.39,2.09,0,4.18,0,2.09-.12,4.18-.12h4.18c2.09,0,2.09.2,4.18.2s2.09.17,4.18.17,2.09.13,4.18.13,2.1-.33,4.19-.33,2.09,0,4.18,0h4.18c2.1,0,2.1,0,4.19,0s2.09.05,4.18.05,2.09-.28,4.19-.28,2.09,0,4.19,0,2.95-1.52,4.48-.09-.22,2.27-.22,4.23.3,2,.3,3.93.86,2.38-.58,3.71-1.92.32-4.06.32-2.13-.43-4.26-.43-2.14.7-4.27.7-2.13-.23-4.27-.23-2.13.33-4.26.33-2.13-.8-4.27-.8-2.13.8-4.26.8-2.14-.69-4.28-.69-2.64-1.18-4.1.39-.63,2.13-.63,4.43.62,2.3.62,4.61.32,2.35-.2,4.59C149.67,299.37,148.51,300,150.07,301.68Z"/><path class="cls-5" d="M257.94,244.54c0,1.62,0,3.15.12,4.64s.07,3.16.32,4.62a35.28,35.28,0,0,0,1.15,4.48c.36,1.22.77,2.36,1.2,3.47a33.68,33.68,0,0,0,1.56,3.31c.58,1.12.69,2.49,1.37,3.47a31.94,31.94,0,0,0,3.18,3.52,26.27,26.27,0,0,0,3.64,2.95c1.14.88,2.32,1.58,3.46,2.31a40.7,40.7,0,0,0,3.37,2.47c1.13.58,2.32,1,3.43,1.44s2.2,1.28,3.34,1.67c2.21.75,4,1.23,5.46,1.84.63,2-.18,2.06-.18,4.18s.21,2.12.21,4.24,1.14,2.35.37,4.32c-1.56-.22-3.23-.92-4.71-1.26s-3.11-.42-4.57-.88-2.79-1.4-4.2-2-2.67-.89-3.89-1.49-2.43-1.38-3.61-2.07-2.46-1.34-3.58-2.12-2.15-1.28-3.1-2-1.77-1.77-2.66-2.6-1.83-1.68-2.65-2.58a47,47,0,0,1-3.06-3.69,32.79,32.79,0,0,1-2.66-3.74,43.23,43.23,0,0,1-2.61,3.88c-1,1.24-2.47,2.08-3.61,3.33-.81.9-1.47,1.95-2.38,2.8s-2,1.39-3,2.18-1.82,1.59-2.85,2.31-2.09,1.75-3.29,2.46-2.44,1.17-3.69,1.8-2.25,1.61-3.54,2.17-2.89.91-4.36,1.38-2.95.61-4.46,1-3.09,1-4.62,1.18c-.76-2-.14-2.19-.14-4.3s.5-2.12.5-4.24-1.12-2.32-.5-4.34c1.47-.48,3.23-1.33,4.93-2,1.48-.54,3.35-.35,5-1,1.24-.49,2.07-1.83,3.26-2.48a32.23,32.23,0,0,0,3.33-2.13,36.48,36.48,0,0,0,3.13-2.42,26.87,26.87,0,0,0,3.37-3.23,34.27,34.27,0,0,0,3-3.66,41.86,41.86,0,0,0,2.43-4.08c.52-1.12.39-2.56.79-3.85a35.89,35.89,0,0,0,1.43-3.62c.25-1.22.25-2.54.41-3.87s-.36-2.55-.29-3.89.8-2.5.8-3.84c0-2.31-1.57-2.68.05-4.34s2-.39,4.24-.39,2.28.32,4.55.32,2.43-1.06,4.48-.07S257.94,242.23,257.94,244.54Zm41.69-4.83c1.73-1.48,2.44,0,4.71,0s2.28.22,4.55.22,2.95-1.62,4.64-.1c1.52,1.36.06,2.14.06,4.18s.07,2,.07,4.08-.6,2.05-.6,4.09.32,2,.32,4.08.31,2,.31,4.09.12,2,.12,4.07-.46,2.05-.46,4.09.17,2,.17,4.08-.36,2-.36,4.08.08,2,.08,4.09-.17,2-.17,4.08.21,2,.21,4.09.39,2,.39,4.08-.57,2.05-.57,4.09.32,2,.32,4.08-.42,2-.42,4.09.25,2,.25,4.09-.11,2-.11,4.09,1.72,2.61.2,4c-1.69,1.52-2.17.18-4.44.18s-2.28-.23-4.55-.23-2.82,1.64-4.49.1,0-2,0-4.13-.34-2.09-.34-4.19,0-2.09,0-4.19.62-2.1.62-4.19-.26-2.1-.26-4.2.31-2.09.31-4.19-.12-2.1-.12-4.19-.28-2.1-.28-4.2.2-2.09.2-4.19-.46-2.1-.46-4.19.22-2.11.22-4.21,1.69-2.94.17-4.4-2.37.41-4.56.41-2.18.12-4.37.12-2.18-.5-4.36-.5-2.19.51-4.38.51-3,1.45-4.66,0c-1.47-1.31.69-2.28.69-4.24s-.86-2-.86-3.93-1.32-3,.14-4.28c1.63-1.46,2.5-.05,4.68-.05s2.19.23,4.37.23,2.18.37,4.37.37,2.19.26,4.37.26,2.63.86,4.27-.59c1.45-1.28.46-1.81.46-3.75s-.19-1.93-.19-3.87a10.38,10.38,0,0,0-.6-3.77C298.84,241.76,298.15,241,299.63,239.71Z"/><path class="cls-1" d="M405.17,296.8c-1.4,1.48-2.11-.39-4.14-.39s-2,.71-4.07.71-2-.65-4.07-.65-2,.35-4.07.35-2-.53-4.06-.53-2,.14-4.07.14-2,.39-4.06.39-2-.16-4.07-.16-2-.32-4.07-.32-2,0-4.07,0-2-.05-4.07-.05-2,.23-4.07.23-2-.13-4.07-.13-2,.18-4.07.18-2-.24-4.07-.24-2,.22-4.07.22-2,.54-4.07.54-2.88,1.33-4.28-.15,0-2.33,0-4.47.12-2.14.12-4.28-1.64-3-.18-4.56,2.27,0,4.26,0,2-.23,4-.23,2,.82,4,.82,2-.52,4-.52,2,.51,4,.51,2.86,1.34,4.25-.08-.53-2.28-.53-4.29,0-2,0-4,.22-2,.22-4-.14-2-.14-4-1.51-2.86,0-4.15c1.87-1.55,2.53-.1,5-.1s2.43.6,4.86.6,3-1.88,4.82-.34c1.55,1.29.29,2,.29,4s.12,2,.12,4-.46,2-.46,4,.17,2,.17,4-1.75,2.87-.27,4.24,2.36,0,4.54,0,2.18.17,4.35.17,2.18-.21,4.36-.21,2.17-.39,4.35-.39,2.17.57,4.35.57,2.18-.32,4.35-.32,2.18.42,4.36.42,2.67-1.83,4.23-.3-.17,2-.17,4.14-.31,2.22.15,4.32C405.44,294.74,406.65,295.25,405.17,296.8Zm-15.78-44c-1.55-1.48-2.07-.39-4.21-.39s-2.15.71-4.29.71-2.14-.66-4.28-.66-2.15.36-4.29.36-2.14-.53-4.29-.53-2.14.14-4.29.14-2.14.39-4.29.39-2.14-.16-4.29-.16-2.14-.32-4.28-.32-2.15,0-4.29,0-2.15,0-4.29,0-2.15.22-4.3.22-2.48,1.43-4.05,0-.07-1.72-.07-3.7.24-2,.24-4-1.71-2.45-.28-3.83,1.9-.49,4-.48,2,.07,4.08.07,2,.06,4.08.06,2,.13,4.07.13,2-.29,4.08-.28,2,.17,4.08.17,2-.23,4.08-.22,2,.82,4.08.83,2-.52,4.08-.52,2.05.52,4.09.53,2,0,4.08,0,2-.65,4.09-.64,2,.05,4.08.05,2,.22,4.08.23,2-.14,4.08-.13,2.05,0,4.1,0,2.79-1.44,4.24,0-.53,2.18-.53,4.2.32,2,.32,4.05.31,2,.31,4,.12,2,.12,4-.46,2-.46,4,.16,2,.16,4.05-.35,2-.35,4.05.07,2,.07,4,1.47,2.42,0,3.77c-1.7,1.51-2,.12-4.3.12s-2.27.39-4.55.39-2.63,1-4.32-.48c-1.52-1.38-.21-1.8-.21-3.85s.42-2.05.42-4.11-.25-2.05-.25-4.1.11-2.05.11-4.1-.57-2.07-.15-4.08S390.87,254.26,389.39,252.83Zm-41,74.1c0,.88-.27,1.61-.14,1.74s.91-.42,1.89-.42c2.14,0,2.14.66,4.28.66s2.14-.35,4.29-.35,2.14.52,4.28.52,2.15-.13,4.29-.13,2.14-.39,4.28-.39,2.14.16,4.28.16,2.15.32,4.29.32l4.28,0c2.15,0,2.15,0,4.29,0s2.14-.22,4.28-.22,2.15.13,4.29.13,2.15-.19,4.29-.19,2.14.24,4.29.24,2.14-.22,4.29-.22,2.14-.54,4.28-.54,2.15.07,4.29.07,2.15.05,4.29.05,2.15.12,4.3.12,3-1.69,4.57-.17-.05,2.42-.05,4.56.24,2.14.24,4.28.77,2.5-.73,4-1.82.41-3.9.41-2.08-.52-4.16-.52-2.09,0-4.17,0-2.08.65-4.16.65-2.09-.05-4.17-.05-2.08-.22-4.16-.22-2.08.14-4.16.14l-4.16,0c-2.08,0-2.08.06-4.17.06s-2.08-.59-4.16-.59-2.08.32-4.16.32-2.09.31-4.17.31-2.08.12-4.17.12-2.08-.46-4.16-.46-2.09.16-4.17.16-2.08-.35-4.17-.35-2.08.07-4.16.07-2.09-.17-4.17-.17-2.09.21-4.17.21-2.09.39-4.18.39c-1.34,0-2.55-.61-3.67-.69a31.06,31.06,0,0,1-3.67-.15,8.4,8.4,0,0,1-4.15-2.36,6.88,6.88,0,0,1-2.3-3.63,21.37,21.37,0,0,1-.36-3.1c-.08-1-.26-2-.26-3.14,0-2-.23-2-.23-4.11s.23-2.05.23-4.1-.07-2.05-.07-4.1,0-2,0-4.11-.33-2.05-.33-4.11-1.45-2.94.12-4.26c1.85-1.57,2.56.57,5,.57s2.43-.27,4.85-.27,2.78-1.48,4.55.19,0,1.95,0,4.24.28,2.29.28,4.58-.2,2.29-.2,4.58.43,2.29.47,4.59S348.38,324.63,348.38,326.93Zm92.42-73.32c1.39,1.37-.4,2-.4,4s.72,2,.72,3.93.81,2.36-.58,3.74-1.8.28-3.79.28-2-.53-4-.53-2.79-1.18-4.19.23.3,2.21.3,4.21-.16,2-.16,4-.32,2-.32,4,0,2,0,4,0,2,0,4,.22,2,.22,4-.13,2-.13,4,.19,2,.19,4-.25,2-.25,4,.23,2,.23,4,1.92,2.94.42,4.26c-1.71,1.51-2.5,0-4.77,0s-2.28-.05-4.55-.05-2.93,1.37-4.62-.15c-1.52-1.36-.33-2.12-.33-4.17s.17-2,.17-4.08-.24-2-.24-4.09.83-2,.83-4.09-.52-2-.52-4.08.51-2.05.51-4.09,0-2.05,0-4.09-.65-2-.65-4.09,0-2,0-4.09.22-2,.22-4.09-.14-2-.14-4.09,0-2.05,0-4.09-.06-2.05-.06-4.09.6-2.05.6-4.09-.32-2-.32-4.09-.31-2.05-.31-4.1-1.53-3,0-4.38c1.7-1.51,2.52.39,4.79.41s2.28-.14,4.55-.12,2.75-1.3,4.35.32,0,2.07,0,4.35-.17,2.27-.17,4.54-1.25,3,.25,4.66c1.3,1.49,2.11-.33,4.09-.33s2.11,1,4.05.56C438.93,253.55,439.38,252.21,440.8,253.61Z"/><path class="cls-1" d="M81.43,389.24c1.59-1.41,2.39.27,4.51.27s2.12.4,4.24.4h4.25c2.12,0,2.12-.54,4.24-.54s2.12.33,4.24.33,2.12-.49,4.24-.49,2.12.72,4.24.72,2.13-.64,4.25-.64,2.12.33,4.24.33,2.12-.25,4.24-.25,2.13.27,4.25.27,2.12-.54,4.24-.54,2.13.88,4.25.88,2.12,0,4.25,0,2.12-.3,4.24-.3,2.13-.38,4.25-.38,2.12.37,4.25.37,2.12-.55,4.25-.55,2.7,1.91,4.15.36,0-2.19,0-4.48,1.39-2.6-.17-4.27-1.82-.29-3.95-.29-2.13.43-4.26.43-2.14-.73-4.27-.73-2.13.71-4.26.71-2.14-.16-4.27-.16-2.13-.33-4.26-.33-2.13.11-4.26.11-2.13.22-4.26.22S126.11,380,124,380s-2.13.19-4.26.19-2.14.52-4.27.52-2.13-.45-4.27-.45-2.13.13-4.26.13-2.14.36-4.27.36-2.14-.72-4.27-.72-2.13.54-4.27.54S92,380,89.85,380s-2.14.37-4.28.37-2.64,1.39-4.24,0c-1.42-1.26.36-1.86.36-3.76s0-1.9,0-3.8-1.66-2.4-.24-3.66c1.59-1.42,2-.11,4.15-.11s2.13.2,4.27.2,2.14-.36,4.27-.36,2.14.42,4.28.42,2.13-.26,4.27-.26,2.14.11,4.27.11,2.14-.46,4.28-.46,2.13,0,4.27,0,2.13.76,4.27.76,2.13-.52,4.27-.52,2.14.42,4.27.42,2.14-.71,4.28-.71,2.13.66,4.27.66,2.13-.36,4.27-.36,2.14.53,4.28.53,2.14-.14,4.27-.14,2.14-.39,4.28-.39,2.14.16,4.28.16,2.13.32,4.27.32,2.14,0,4.28,0,2.14.05,4.28.05,2.59-1.78,4.12-.29-.19,1.91-.19,4,.18,2.08.18,4.16-.24,2.08-.24,4.16.22,2.08.22,4.17.54,2.08.54,4.16-.07,2.08-.07,4.16-.05,2.08-.05,4.17-.12,2.08-.12,4.17,1.67,3,.17,4.45-2.44,0-4.6,0-2.16.23-4.33.23-2.73,1-4-.68c-1.72-2.27,1.29-3.1-.42-5.38-1.26-1.7-2-.45-4.11-.45s-2.12,0-4.24,0-2.12.64-4.25.64-2.12,0-4.24,0-2.12-.22-4.24-.22-2.12.14-4.24.14-2.12,0-4.25,0-2.12.06-4.24.06-2.12-.6-4.24-.6-2.12.32-4.24.32-2.13.32-4.25.32-2.12.11-4.25.11-2.12-.45-4.24-.45-2.13.16-4.25.16-2.12-.36-4.24-.36-2.13.08-4.25.08-2.12-.17-4.25-.17-2.12.21-4.25.21-2.81,1.74-4.4.33c-1.41-1.24.49-2,.49-3.92a10.35,10.35,0,0,0-.33-3.76C81.17,391.18,80,390.48,81.43,389.24ZM81,409.92c1.5-1.46,2.37.25,4.46.25s2.08.4,4.16.4H93.8c2.08,0,2.08-.54,4.17-.54s2.08.34,4.16.34,2.09-.5,4.17-.5,2.09.72,4.17.72,2.08-.64,4.17-.64,2.08.33,4.17.33,2.08-.25,4.16-.25,2.08.27,4.17.27,2.08-.53,4.16-.53,2.09.87,4.17.87,2.09,0,4.17,0,2.08-.3,4.17-.3,2.08-.38,4.17-.38,2.08.37,4.17.37,2.09-.54,4.17-.54,2.09.3,4.17.3h4.17c2.09,0,2.09-.28,4.17-.28s2.09.43,4.18.43,3-1.77,4.48-.32-.6,2.34-.6,4.37.71,2,.71,4.07,1.22,2.82-.24,4.24-2.26-.26-4.34-.26-2.08.12-4.17.12-2.08.22-4.16.22-2.09-.67-4.17-.67-2.08.19-4.17.19-2.08.51-4.17.51-2.08-.44-4.17-.44-2.08.12-4.16.12-2.09.37-4.17.37-2.08-.72-4.16-.72-2.09.54-4.17.54-2.08-.53-4.17-.53-2.08.36-4.17.36-2.08,0-4.16,0-2.09-.34-4.17-.34-2.09,0-4.17,0-2.09.18-4.17.18-2.09.15-4.18.15-2.08-.19-4.17-.19-2.08.35-4.17.35-2.08-.42-4.17-.42-2.09.26-4.17.26-2.59,1.39-4.09-.07-.41-1.93-.41-4,.47-2,0-4C80.4,412.09,79.56,411.33,81,409.92ZM175.74,458c1.43,1.34-.24,2.26-.24,4.22s-.4,2-.4,3.93,1.53,2.3.11,3.66-1.8.43-3.86.43-2.06-.33-4.12-.33-2.06.49-4.11.49-2.06-.71-4.12-.71-2.06.63-4.12.63-2.06-.33-4.12-.33-2,.25-4.11.25-2.06-.27-4.12-.27-2.06.54-4.11.54-2.06-.87-4.12-.87-2.06,0-4.12,0-2.06.3-4.12.3-2.06.38-4.12.38-2.06-.38-4.12-.38-2.06.55-4.12.55-2.06-.31-4.12-.31h-4.12c-2.06,0-2.06.28-4.12.28s-2.06-.43-4.13-.43-2.06.44-4.13.44c-1.48,0-2.73-1-4-1.5s-2.81-.79-3.81-1.87A11.15,11.15,0,0,1,83,462.81,17,17,0,0,1,82.7,458c0-2.15-.11-2.15-.11-4.3s-.22-2.15-.22-4.3.67-2.16.67-4.31-.2-2.15-.2-4.3-.51-2.15-.51-4.31-1.17-2.71.4-4.2,2.16-.08,4.44-.08,2.27-.37,4.55-.37,2.63-1,4.28.62.42,1.89.42,4.07-.53,2.17-.53,4.34.37,2.18.37,4.35,0,2.17,0,4.35-.35,2.17-.35,4.35-1.37,3,.13,4.6,2.35-.06,4.43-.06,2.08-.16,4.17-.16,2.08.2,4.16.2,2.09-.36,4.17-.36,2.08.42,4.17.42,2.08-.26,4.16-.26,2.08.11,4.17.11,2.08-.46,4.16-.46,2.09,0,4.17,0,2.08.76,4.17.76,2.08-.52,4.16-.52,2.09.42,4.17.42,2.09-.71,4.17-.71,2.09.66,4.17.66,2.09-.36,4.17-.36,2.09.53,4.17.53,2.09-.14,4.17-.14a11.65,11.65,0,0,0,4.16-.39C173.58,457.63,174.22,456.56,175.74,458Z"/><path class="cls-7" d="M227.92,381.08c-1.44-1.33-.52-1.84-.52-3.81s-.06-2-.06-3.93-.79-2.41.63-3.76,1.91.13,4,.13,2.07-.7,4.14-.7,2.06.24,4.13.24,2.07.58,4.14.58,2.07-.65,4.14-.65,2.07.29,4.14.29,2.07.06,4.14.06,2.07.08,4.14.08,2.07.27,4.14.27,2.08-.62,4.15-.62,2.07-.28,4.14-.28,2.07.89,4.14.89,2.07-.81,4.14-.81,2.08.56,4.15.56,2.77-1.77,4.28-.34-.09,2.09-.09,4.06.3,2,.3,3.93,1.35,2.87-.13,4.16c-1.7,1.48-2.46.22-4.71.22s-2.25-.61-4.5-.61-2.25.5-4.5.5-2.25-.37-4.51-.37-2.36-.7-4.4.26c-1,.45-.13.83-.13,1.89,0,1.56.39,3,.51,4.4a35.62,35.62,0,0,0,.61,4.35,23.68,23.68,0,0,0,1.1,4.23,21.43,21.43,0,0,0,2.44,4.26,18.2,18.2,0,0,0,3.15,3.79,24,24,0,0,0,4.44,2.24,27.21,27.21,0,0,0,4.59,1.79c1.21.35,2.35,1.1,3.65,1.43s2.48.66,3.78.95,2.86.41,4.17.66c.58,1.74-.09,1.95-.09,3.78s.15,1.84.15,3.67,0,1.84,0,3.68.34,2-.37,3.7a41.21,41.21,0,0,1-4.85-.87c-1.53-.25-3.09-.6-4.76-1-1.18-.3-2.49-.13-3.63-.52s-2.17-1.13-3.29-1.59-2.43-.53-3.52-1.08-1.78-1.73-2.8-2.35-2.36-.76-3.33-1.46-1.7-1.71-2.61-2.5a23.2,23.2,0,0,1-3.55-3.43,20,20,0,0,1-2.27-4.49,15.82,15.82,0,0,1-1.78,4.66c-.89,1.24-2.62,1.82-3.93,2.92-.94.79-1.86,1.54-2.88,2.24s-1.86,1.59-3,2.21-2,1.51-3.11,2-2.48.7-3.66,1.16-2.22,1.42-3.43,1.81-2.55.44-3.78.75c-1.71.43-3.32.79-4.82,1.05a51,51,0,0,1-5.28.64c-.71-1.69.38-2,.36-3.84s-.45-1.83-.47-3.67.72-1.85.7-3.68-1.29-2.06-.72-3.81c1.29-.19,2.89-.53,4.11-.76s2.59-.18,3.8-.46,2.47-.73,3.66-1.07a24.61,24.61,0,0,0,4.55-2c1.5-.77,3.27-1.14,4.54-2.21a19.9,19.9,0,0,0,3.31-3.9c.94-1.33,1.29-3.05,2-4.67a22.35,22.35,0,0,0,1.72-4.11,36.22,36.22,0,0,0,.51-4.43c.12-1.4-.18-2.89-.18-4.46,0-1.06,1.46-2,.51-2.47-1.92-1-2.31.51-4.45.51s-2.14-.53-4.28-.53-2.14.36-4.28.36-2.14,0-4.28,0-2.26-.74-4.36-.33S229.51,382.52,227.92,381.08ZM320,458.14c1.44,1.4.53,1.89.53,3.89s.06,2,.06,4,.79,2.44-.64,3.86-1.87-.14-3.9-.14-2,.7-4.07.7-2-.24-4.07-.24-2-.58-4.08-.58-2,.66-4.07.66-2-.29-4.06-.29-2-.07-4.07-.07-2-.08-4.07-.08-2-.26-4.07-.26-2,.61-4.07.61-2,.28-4.08.28-2-.89-4.07-.89-2,.81-4.07.81-2-.55-4.08-.55-2,.38-4.07.38-2-.14-4.07-.14-2,.3-4.08.3-2,0-4.08,0-2,.14-4.08.14c-1.53,0-2.86-.86-4.11-1.38a9.85,9.85,0,0,1-3.77-2.08,11.36,11.36,0,0,1-2-4.42,16.36,16.36,0,0,1-.92-4.75c0-2,.28-2,.28-3.95s-.34-2-.34-3.95V446c0-2,.15-2,.15-4s-.09-2-.09-4-1.21-2.62.28-3.92c1.72-1.49,2.25-.48,4.52-.48h4.55c2.27,0,2.86-1.07,4.57.43,1.5,1.31,0,2,0,4s.37,2,.37,4-.11,2-.11,4,.15,2,.15,4,0,2,0,4-1.81,2.57-.38,3.95,2,.39,4.1.39,2.06,0,4.13,0,2.06-.54,4.12-.54,2.07.33,4.13.33,2.06-.49,4.12-.49,2.06.71,4.13.71,2.06-.63,4.12-.63,2.07.33,4.13.33,2.06-.25,4.12-.25,2.07.27,4.13.27,2.07-.54,4.13-.54,2.07.87,4.13.87,2.07,0,4.13,0,2.06-.29,4.13-.29,2.06-.39,4.13-.39,2.06.38,4.13.38a13.86,13.86,0,0,0,4-.54C318,457.16,318.53,456.7,320,458.14ZM332.74,389c1.54,1.28.51,1.88.51,3.88s.06,2,.06,4,.93,2.56-.62,3.85c-1.86,1.54-2.27-.13-4.7-.13s-2.43.71-4.86.71-2.89-1.83-4.75-.28c-1.55,1.28-.53,1.89-.53,3.9s.66,2,.66,4-.29,2-.29,4-.07,2-.07,4-.08,2-.08,4-.26,2-.26,4,.61,2,.61,4,.28,2,.28,4,.78,2.35-.73,3.69c-1.7,1.51-2,.7-4.24.7s-2.28-.56-4.55-.56-3,1.86-4.67.34c-1.51-1.35.08-2.16.08-4.19s-.3-2-.3-4.06,0-2,0-4.06-.14-2-.14-4.05.62-2,.62-4.06-.51-2-.51-4.05.37-2,.37-4.06-.28-2-.28-4.06.28-2,.28-4.06-.34-2-.34-4.06v-4.06c0-2,.15-2,.15-4.06s-.09-2-.09-4.06.3-2,.3-4.06-.5-2-.5-4.06,0-2,0-4.06-1.08-2.74.44-4.1c1.69-1.51,2.29,0,4.57,0s2.27-.37,4.55-.37,3-1.35,4.71.18c1.53,1.39.23,2.24.23,4.31s0,2.06,0,4.13-.37,2.06-.37,4.13-.4,2.07-.4,4.13-1.45,3.09.12,4.43c1.85,1.57,2.67-.45,5.1-.45s2.5.77,4.89.33S330.86,387.46,332.74,389Z"/><path class="cls-6" d="M424.94,420.09a63.43,63.43,0,0,1-6.5-.17c-1.56-.14-3.11-1-4.84-1.39-1.53-.36-3.08-.89-4.75-1.45-1.22-.41-2.69-.28-3.9-.84s-2-1.76-3.17-2.44-2.49-.91-3.59-1.69a23.37,23.37,0,0,1-3.23-3,25.09,25.09,0,0,1-2.9-3.32,26.44,26.44,0,0,1-2-3.65,24.07,24.07,0,0,1-2.45,3.66,23.22,23.22,0,0,1-3,3.43,32.28,32.28,0,0,1-3,3.19,30.49,30.49,0,0,1-3.61,2.44,40.06,40.06,0,0,1-3.92,1.44c-1.28.57-2.36,1.6-3.67,2s-2.57.33-3.73.63-2.43.86-3.6,1.07a53.16,53.16,0,0,1-6,1.05c-1.76.09-3.15-.12-3.86-.12a17.74,17.74,0,0,1-.31-4.3c0-2.15,0-2.15,0-4.29s-.77-2.46.05-4.44a53.65,53.65,0,0,0,5.58-.26,41.8,41.8,0,0,0,5.2-.53,27,27,0,0,0,4.46-1.75,24.38,24.38,0,0,0,4.33-2.08,22.11,22.11,0,0,0,3.36-3.27,23.25,23.25,0,0,0,2.61-3.83,21.5,21.5,0,0,0,1.62-3.09,24.46,24.46,0,0,0,1.4-3.25,29.29,29.29,0,0,0,.41-3.4c-2.16-.6-2.21-.3-4.45-.3s-2.24.11-4.48.11-2.24.21-4.48.21-2.24-.44-4.47-.44-2.25.07-4.49.07-2.63,1.53-4.32.05c-1.47-1.29-.26-1.77-.26-3.73s-.32-2-.32-3.93-1.06-2.63.42-3.93c1.68-1.47,2.23-.17,4.47-.17s2.24.33,4.48.33,2.24-.57,4.48-.57,2.24-.06,4.48-.06,2.24.7,4.48.7,3.13,1.58,4.7,0-.61-2.5-.61-4.78-1.37-3.11.29-4.69,2.51.54,4.92.54,2.41-.66,4.81-.66,3-1.38,4.78.28-.09,2.24-.09,4.53-1.6,3.06,0,4.7,2.34.33,4.54.33,2.19-.61,4.39-.61,2.19-.28,4.39-.28,2.19.89,4.39.89,2.2-.81,4.39-.81,2.63-1,4.27.5c1.46,1.31.32,1.81.32,3.77s-.15,2-.15,3.93,1.64,2.85.19,4.18-2.36.07-4.49.07-2.12.13-4.25.13-2.13-.61-4.26-.61-2.13.51-4.26.51-2.13-.38-4.26-.38-2.18-.45-4.18.27a21.1,21.1,0,0,0,5.16,11.28,21.17,21.17,0,0,0,3.06,3A27.52,27.52,0,0,0,409,403a28.79,28.79,0,0,0,3.59,2,38.11,38.11,0,0,0,4,.73,39.76,39.76,0,0,0,4,.75c1.31.19,2.64.76,4.05.84.66,2-.05,2.13-.05,4.25a21.07,21.07,0,0,0,.37,4.19C425.27,417.9,425.49,418,424.94,420.09Zm26.66-51.84c1.51,1.36.09,2.27.09,4.31s-.59,2-.59,4.08-.08,2-.08,4.07.67,2,.67,4.08-.69,2-.69,4.08.52,2,.52,4.07-.16,2-.16,4.07.2,2,.2,4.08.11,2,.11,4.08-.53,2-.53,4.07-.19,2-.19,4.08.44,2,.44,4.08,0,2,0,4.08-.5,2-.5,4.08.58,2,.58,4.08-.44,2-.44,4.07.28,2,.28,4.08.32,2,.32,4.09,1.34,2.83-.18,4.19c-1.69,1.52-2.37.34-4.64.34h-4.55c-2.28,0-3.14,1.39-4.83-.12-1.52-1.36.15-2.35.15-4.39s.38-2,.38-4.08-.24-2-.24-4.07.3-2,.3-4.08-.25-2-.25-4.08-.24-2-.24-4.07.07-2,.07-4.07.34-2,.34-4.08-.34-2-.34-4.08.31-2,.31-4.07-.12-2-.12-4.08-.2-2-.2-4.08.44-2,.44-4.08-.08-2-.08-4.08,0-2,0-4.07-.36-2-.36-4.08-.31-2-.31-4.08.42-2.05.42-4.09-1.64-2.85-.13-4.21c1.69-1.52,2.39.29,4.66.29a13.18,13.18,0,0,0,4.46-.56C449.21,367.52,449.9,366.73,451.6,368.25Z"/></g></g></svg>