<svg xmlns="http://www.w3.org/2000/svg" viewBox="0 0 79.41 65.36"><defs><style>.cls-1{fill:#6ab42d;}.cls-2{fill:#458a33;}</style></defs><g id="레이어_2" data-name="레이어 2"><g id="Layer_1" data-name="Layer 1"><path class="cls-1" d="M52.37,41c-1.42-1.33-2.61-2.93-4.08-4.24s-3-2.48-4.57-3.7-3.27-2.16-4.89-3.23a45.39,45.39,0,0,0-5.1-2.82c-1.76-.86-3.25-2.44-5.13-3a30.89,30.89,0,0,0-6-.69,34.14,34.14,0,0,0-6-.12,40.35,40.35,0,0,0-5.78,1.44,31.37,31.37,0,0,0-5.5,1.82c-1.78.8-3.84,1.38-5.36,2.65.86,1.55,1.62,3.36,2.52,4.9s2.34,2.76,3.34,4.23A43.81,43.81,0,0,0,9,42.56a29.88,29.88,0,0,0,3.71,3.83,25.38,25.38,0,0,0,5.08,2.86,29.75,29.75,0,0,0,5.5,1.88c1.91.47,3.76,1.43,5.69,1.56S33,52,34.87,51.83a22.33,22.33,0,0,0,5-1.19c1.65-.57,3.59-.6,5-1.59a33,33,0,0,0,4.28-3.73A23.15,23.15,0,0,0,53,41"/><path class="cls-2" d="M59.5,63.37c-1.13,2.28-3.06,2.53-5.16,1.1-2.41-1.65-.84-2.75-1.58-5.58s-1-2.75-1.76-5.58-.85-2.8-1.59-5.62-1.92-3-.63-5.59c1.13-2.27,2.43-2.91,4.53-1.48,2.41,1.65.65,2.85,1.39,5.67s1.22,2.7,2,5.53.11,3,1.44,5.57C59.57,60.25,60.8,60.75,59.5,63.37Z"/><path class="cls-2" d="M49.08,43.33a32.08,32.08,0,0,1-1.14-5.84,37.12,37.12,0,0,1,.34-6,39.8,39.8,0,0,1,1.2-5.82,37.44,37.44,0,0,1,1.92-5.61,32.63,32.63,0,0,1,3-5.11,28.42,28.42,0,0,1,3.54-4.79c1.29-1.22,3-1.91,4.44-2.88a43.44,43.44,0,0,1,4.56-2.58C68.51,4,70,3,71.6,2.28S75,.63,76.6,0a21.88,21.88,0,0,1,1.83,4.92,23.55,23.55,0,0,1,1,4.92c.11,1.67-.56,3.31-.74,5s.33,3.49-.11,5.07a33.41,33.41,0,0,1-2.4,5.27,35.09,35.09,0,0,1-2.6,5.16c-1.12,1.57-3,2.47-4.37,3.81s-2.28,3.25-3.85,4.33S61.7,39.82,60,40.59s-3.35,2.08-5.22,2.49-3.85,0-5.77,0"/></g></g></svg>